<?xml version="1.0" encoding="UTF-8"?> <svg xmlns="http://www.w3.org/2000/svg" xmlns:xlink="http://www.w3.org/1999/xlink" width="1440px" height="825px" viewBox="0 0 1440 825" version="1.1"><title>curve and dot</title><g id="Page-1" stroke="none" stroke-width="1" fill="none" fill-rule="evenodd"><g id="Reviews-desktop-Aug" transform="translate(0.000000, -943.000000)"><g id="curve-and-dot" transform="translate(-370.042310, 873.190514)"><path d="M2057.57307,282.984564 C1958.09343,200.742145 1832.49538,148.23839 1702.03277,154.182787 C1638.1931,157.091573 1575.66531,174.668388 1520.72916,207.556901 C1465.40573,240.678608 1419.10854,286.514151 1376.87514,334.748455 C1331.97982,386.021097 1290.551,440.186161 1245.00111,490.907865 C1196.83977,544.536992 1145.48875,595.390977 1090.33033,641.830642 C1034.88825,688.51032 975.462845,731.876191 911.238623,765.732936 C862.257699,791.554721 811.272154,808.914707 756.866481,818.737486 C724.893467,824.510056 692.929998,829.7876 660.425145,831.385865 C616.327585,833.554158 572.081384,829.524405 529.421151,817.949263 C474.163173,802.955309 422.83807,775.704359 377.87866,740.417086 C315.380867,691.363195 264.831702,628.4895 222.760582,561.48923 C160.456432,462.270026 115.134281,352.955302 78.3147211,242.039587 C67.0547542,208.118748 56.6457283,173.926531 46.8680896,139.551578 C44.7120998,131.966642 32.8657473,135.190445 35.0340103,142.813565 C69.9034972,265.405336 112.873287,386.756135 172.820986,499.519673 C213.769791,576.544551 263.285281,650.476542 326.16627,711.415137 C370.847488,754.71555 422.484875,790.871504 480.291584,814.313621 C524.851434,832.382734 572.47958,842.157783 620.501832,843.934693 C657.615949,845.309309 694.62097,841.725488 731.208703,835.678813 C745.528784,833.311418 759.818865,830.701284 774.098036,828.096604 C843.912012,815.360948 909.079906,784.175705 968.742593,746.57013 C1089.97577,670.156193 1195.09425,569.516007 1287.63544,460.722219 C1372.45407,361.00799 1452.17523,242.55234 1578.64769,192.436122 C1703.54237,142.947208 1847.8955,166.817529 1962.89117,231.067203 C2080.79694,296.941052 2170.05983,404.38477 2238.76649,518.71248 C2255.52075,546.592098 2271.16634,575.11675 2286.02099,604.050514 C2289.6293,611.077694 2300.22379,604.875556 2296.6182,597.855194 C2236.32685,480.425052 2160.13736,367.777116 2057.57307,282.984564 Z" id="Fill-1-Copy-2" fill="#FF8300" transform="translate(1166.063026, 489.727525) scale(-1, 1) rotate(173.000000) translate(-1166.063026, -489.727525) "></path><circle id="Oval" fill="#F58320" style="mix-blend-mode: multiply;" cx="1770.54231" cy="631.309486" r="144.5"></circle></g></g></g></svg> 