<?xml version="1.0" encoding="UTF-8"?> <svg xmlns="http://www.w3.org/2000/svg" xmlns:xlink="http://www.w3.org/1999/xlink" width="1440px" height="1121px" viewBox="0 0 1440 1121" version="1.1"><title>Fill 1</title><g id="Page-1" stroke="none" stroke-width="1" fill="none" fill-rule="evenodd"><g id="Reviews-desktop-Aug-2" transform="translate(0.000000, -2854.000000)" fill="#FF8300" stroke="#F6F4F2" stroke-width="2"><path d="M1192.68556,3185.56388 C1095.84861,3105.52542 972.567302,3054.99374 845.570435,3060.77884 C783.426675,3063.60968 722.559933,3080.71546 669.083167,3112.72262 C615.229401,3144.95672 570.1621,3189.56395 529.050633,3236.50565 C485.347961,3286.40428 445.019696,3339.11781 400.679844,3388.48026 C353.797903,3440.67221 303.811032,3490.1634 250.117889,3535.35856 C196.148634,3580.7873 138.301866,3622.99104 75.7837624,3655.94048 C28.104018,3681.07029 -21.5270941,3697.96505 -74.4874784,3707.5246 C-105.611129,3713.14247 -136.725488,3718.27859 -168.366848,3719.83402 C-211.292955,3721.94421 -254.363755,3718.02245 -295.890717,3706.7575 C-349.680765,3692.16536 -399.642414,3665.64469 -443.407476,3631.30305 C-504.245014,3583.56372 -553.451339,3522.37494 -594.404838,3457.17016 C-655.053877,3360.60986 -699.172043,3254.22459 -735.01349,3146.28123 C-745.974336,3113.26941 -756.106846,3079.99349 -765.624741,3046.53972 C-767.723457,3039.15805 -779.255111,3042.29546 -777.144448,3049.71429 C-743.20127,3169.02081 -701.372974,3287.11962 -643.017788,3396.86128 C-603.156789,3471.82202 -554.95668,3543.77276 -493.746125,3603.07831 C-450.251865,3645.21834 -399.986227,3680.40538 -343.715155,3703.21929 C-300.339039,3720.80418 -253.976136,3730.31727 -207.229597,3732.04656 C-171.101418,3733.38434 -135.079436,3729.89656 -99.4636572,3724.01193 C-85.5239892,3721.70797 -71.6135253,3719.16779 -57.7136811,3716.63291 C10.2456851,3704.23855 73.6823916,3673.88901 131.760138,3637.29121 C249.772749,3562.92503 352.098747,3464.98183 442.181584,3359.10353 C524.747004,3262.06148 602.350375,3146.78024 725.463091,3098.00705 C847.039934,3049.84436 987.558319,3073.07499 1099.49912,3135.60288 C1214.27273,3199.71143 1301.16434,3304.27583 1368.04581,3415.53975 C1384.355,3442.67225 1399.58496,3470.43249 1414.04499,3498.59087 C1417.55745,3505.42974 1427.8705,3499.39381 1424.36069,3492.56158 C1365.67098,3378.27836 1292.52523,3268.08414 1192.68556,3185.56388 Z" id="Fill-1" transform="translate(323.838747, 3387.331547) scale(-1, 1) rotate(-27.000000) translate(-323.838747, -3387.331547) "></path></g></g></svg> 