<?xml version="1.0" encoding="UTF-8"?>
<svg width="167px" height="26px" viewBox="0 0 167 26" version="1.1" xmlns="http://www.w3.org/2000/svg" xmlns:xlink="http://www.w3.org/1999/xlink">
    <title>allox2_logo Pro</title>
    <defs>
        <polygon id="path-1" points="2.78383965e-22 0 101.719947 0 101.719947 24.5951007 2.78383965e-22 24.5951007"></polygon>
    </defs>
    <g id="Page-1" stroke="none" stroke-width="1" fill="none" fill-rule="evenodd">
        <g id="allox2_logo-Pro" transform="translate(0, 0.192)">
            <g id="Fill-401-Clipped" transform="translate(0, 0.125)">
                <mask id="mask-2" fill="white">
                    <use xlink:href="#path-1"></use>
                </mask>
                <g id="path-1"></g>
                <path d="M14.3804155,14.0166092 L7.10724695,14.0166092 L10.744165,4.39682195 L14.3804155,14.0166092 Z M-0.00011925,24.1324628 L7.10724695,24.1324628 L7.10724695,23.6698253 L3.43823675,23.6698253 L6.90935575,14.4792471 L14.5789749,14.4792471 L18.0500928,23.6698253 L14.3804155,23.6698253 L14.3804155,24.1324628 L24.562449,24.1324628 L24.562449,23.6698253 L21.620156,23.6698253 L12.6281419,-0.00024075 L11.8345724,-0.00024075 L2.90874575,23.6698253 L-0.00011925,23.6698253 L-0.00011925,24.1324628 Z M25.4549657,24.1324628 L33.3893314,24.1324628 L33.3893314,23.6698253 L30.8434874,23.6698253 L30.8434874,0.29726425 L25.4549657,0.29726425 L25.4549657,0.75990125 L28.0008083,0.75990125 L28.0008083,23.6698253 L25.4549657,23.6698253 L25.4549657,24.1324628 Z M35.2398792,24.1324628 L43.1742467,24.1324628 L43.1742467,23.6698253 L40.6284037,23.6698253 L40.6284037,0.29726425 L35.2398792,0.29726425 L35.2398792,0.75990125 L37.7857234,0.75990125 L37.7857234,23.6698253 L35.2398792,23.6698253 L35.2398792,24.1324628 Z M49.1571148,13.7358178 C49.3336107,12.8433018 49.6037028,12.1159171 49.9673948,11.5536661 C50.3310857,10.9914141 50.7883767,10.5896148 51.3392627,10.3469305 C51.8901487,10.1049155 52.5399787,9.98323815 53.2894257,9.98323815 C54.0388708,9.98323815 54.6887007,10.1049155 55.2402557,10.3469305 C55.7904727,10.5896148 56.2484308,10.9914141 56.6121238,11.5536661 C56.9758138,12.1159171 57.2452417,12.8433018 57.4217368,13.7358178 C57.5982347,14.628335 57.6864877,15.7354555 57.6864877,17.0578503 C57.6864877,18.6229294 57.5648107,19.8677726 57.3227947,20.7937168 C57.0801078,21.7189917 56.7605428,22.430331 56.3640887,22.9257273 C55.9676427,23.4217923 55.5043318,23.7473772 54.9755088,23.9011443 C54.4466848,24.055579 53.8844357,24.1324628 53.2894257,24.1324628 C52.6944127,24.1324628 52.1328318,24.055579 51.6040087,23.9011443 C51.0745167,23.7473772 50.6118797,23.4217923 50.2154278,22.9257273 C49.8183068,22.430331 49.4987398,21.7189917 49.2567257,20.7937168 C49.0140427,19.8677726 48.8930347,18.6229294 48.8930347,17.0578503 C48.8930347,15.7354555 48.9806127,14.628335 49.1571148,13.7358178 L49.1571148,13.7358178 Z M46.2482438,19.9834323 C46.6888207,20.898679 47.2671188,21.6975984 47.9838057,22.3801891 C48.6998237,23.0641177 49.5208018,23.6036389 50.4467437,24.0000894 C51.3720227,24.3972094 52.3193597,24.5951007 53.2894257,24.5951007 C54.2594897,24.5951007 55.2068278,24.3972094 56.1327687,24.0000894 C57.0580468,23.6036389 57.8790307,23.0641177 58.5957167,22.3801891 C59.3117318,21.6975984 59.8900287,20.898679 60.3312748,19.9834323 C60.7718498,19.0695224 60.9924687,18.0941055 60.9924687,17.0578503 C60.9924687,15.9781399 60.7551338,14.9753123 60.2817978,14.0493689 C59.8071277,13.1240931 59.2014228,12.3251743 58.4633438,11.6526108 C57.7245927,10.9807166 56.8982647,10.4579096 55.9836867,10.0828532 C55.0691097,9.70846365 54.1705728,9.52060025 53.2894257,9.52060025 C52.4076088,9.52060025 51.5097437,9.70846365 50.5951637,10.0828532 C49.6805867,10.4579096 48.8542577,10.9807166 48.1161768,11.6526108 C47.3774268,12.3251743 46.7717217,13.1240931 46.2977207,14.0493689 C45.8237178,14.9753123 45.5870478,15.9781399 45.5870478,17.0578503 C45.5870478,18.0941055 45.8070017,19.0695224 46.2482438,19.9834323 L46.2482438,19.9834323 Z M63.4052757,24.1324628 L70.3147457,24.1324628 L70.3147457,23.6698253 L67.1411347,23.6698253 L73.4555998,13.0906657 L79.9017697,23.6698253 L76.7281598,23.6698253 L76.7281598,24.1324628 L86.6461167,24.1324628 L86.6461167,23.6698253 L83.9017128,23.6698253 L75.6705117,10.2145567 L81.1914087,1.05740725 L84.3650157,1.05740725 L84.3650157,0.59477025 L77.4882988,0.59477025 L77.4882988,1.05740725 L80.6619177,1.05740725 L75.3730077,9.75191975 L70.0834297,1.05740725 L73.2570447,1.05740725 L73.2570447,0.59477025 L63.4052757,0.59477025 L63.4052757,1.05740725 L66.1496717,1.05740725 L73.1908557,12.6280278 L66.5788868,23.6698253 L63.4052757,23.6698253 L63.4052757,24.1324628 Z M89.8190677,23.3556063 C90.3478918,23.1684115 90.9315327,22.9150307 91.5713407,22.5954625 C92.2098067,22.2758953 92.8656527,21.9068551 93.5382147,21.487673 C94.2101118,21.0691597 94.8325257,20.5951568 95.4061497,20.0663325 C96.3976048,19.1403886 97.1303397,18.1322131 97.6043388,17.0418054 C98.0776808,15.9507294 98.3150087,14.832242 98.3150087,13.686345 C98.3150087,12.495655 98.0282047,11.5817452 97.4552597,10.9419413 C96.8823077,10.3034743 96.0673437,9.98323815 95.0090247,9.98323815 C93.9513768,9.98323815 93.1410887,10.181798 92.5795117,10.5782489 C92.0172568,10.9753695 91.7364717,11.493496 91.7364717,12.1319628 C91.7364717,12.5290822 91.8026567,12.8874264 91.9350268,13.2069931 C92.0667328,13.5265608 92.1329177,13.8294153 92.1329177,14.1155548 C92.1329177,14.3803015 92.0119157,14.6176377 91.7692247,14.8262252 C91.5265417,15.0361509 91.1628557,15.1404448 90.6788168,15.1404448 C90.1493287,15.1404448 89.7695908,15.0140887 89.5382758,14.7607069 C89.3062888,14.5073261 89.1906267,14.1710453 89.1906267,13.7518634 C89.1906267,13.245101 89.2949207,12.7436876 89.5048437,12.248291 C89.7141027,11.7522259 90.0503827,11.3009529 90.5130148,10.8924685 C90.9763327,10.4853211 91.5873857,10.1543885 92.3481967,9.90100665 C93.1083357,9.64762585 94.0282577,9.52060025 95.1086417,9.52060025 C96.2766027,9.52060025 97.2627167,9.64762585 98.0669767,9.90100665 C98.8712447,10.1543885 99.5324387,10.4906682 100.050574,10.9091815 C100.56803,11.3276949 100.943091,11.8016987 101.174407,12.3305226 C101.406402,12.8593474 101.522048,13.410902 101.522048,13.9838504 C101.522048,14.7332964 101.328841,15.4606809 100.943091,16.1653342 C100.557334,16.8713246 100.045218,17.5432191 99.4060887,18.1816856 C98.7662797,18.8214893 98.0449127,19.4218487 97.2406527,19.9834323 C96.4357137,20.5456837 95.6154088,21.0577943 94.7777087,21.5211005 C93.9400087,21.9837382 93.1297288,22.3915548 92.3481967,22.7438817 C91.5653137,23.0968764 90.8767158,23.3836849 90.2816988,23.6036389 L90.3478918,23.6698253 L96.4637968,23.6698253 C97.2353047,23.6698253 97.9018468,23.6317178 98.4640947,23.5541661 C99.0256867,23.4772823 99.4996858,23.3228472 99.8854437,23.0915286 C100.270522,22.8595409 100.584746,22.534625 100.827422,22.1161117 C101.070113,21.6975984 101.257308,21.1574082 101.38967,20.4962111 L101.719947,20.4962111 L101.719947,24.1324628 L88.5956177,24.1324628 L88.5956177,23.7360117 C88.8817508,23.6698253 89.2902437,23.5434691 89.8190677,23.3556063 L89.8190677,23.3556063 Z" id="Fill-401" fill="#55575A" fill-rule="nonzero" mask="url(#mask-2)"></path>
            </g>
            <g id="®" transform="translate(160.1392, 0)" fill="#55575A" fill-rule="nonzero">
                <g id="Shape">
                    <path d="M0.48,2.992 C0.48,3.34933333 0.545333333,3.68133333 0.676,3.988 C0.806666667,4.29466667 0.986666667,4.56133333 1.216,4.788 C1.44533333,5.01466667 1.712,5.19333333 2.016,5.324 C2.32,5.45466667 2.648,5.52 3,5.52 C3.352,5.52 3.68,5.45466667 3.984,5.324 C4.288,5.19333333 4.55466667,5.01333333 4.784,4.784 C5.01333333,4.55466667 5.19333333,4.284 5.324,3.972 C5.45466667,3.66 5.52,3.32266667 5.52,2.96 C5.52,2.60266667 5.45466667,2.26933333 5.324,1.96 C5.19333333,1.65066667 5.01333333,1.38266667 4.784,1.156 C4.55466667,0.929333333 4.288,0.752 3.984,0.624 C3.68,0.496 3.352,0.432 3,0.432 C2.648,0.432 2.32,0.497333333 2.016,0.628 C1.712,0.758666667 1.44533333,0.937333333 1.216,1.164 C0.986666667,1.39066667 0.806666667,1.66 0.676,1.972 C0.545333333,2.284 0.48,2.624 0.48,2.992 Z M0,2.992 C0,2.56533333 0.08,2.16933333 0.24,1.804 C0.4,1.43866667 0.616,1.12266667 0.888,0.856 C1.16,0.589333333 1.47733333,0.38 1.84,0.228 C2.20266667,0.076 2.58933333,0 3,0 C3.40533333,0 3.79066667,0.076 4.156,0.228 C4.52133333,0.38 4.84,0.588 5.112,0.852 C5.384,1.116 5.6,1.428 5.76,1.788 C5.92,2.148 6,2.53866667 6,2.96 C6,3.38666667 5.92,3.78266667 5.76,4.148 C5.6,4.51333333 5.384,4.82933333 5.112,5.096 C4.84,5.36266667 4.52133333,5.572 4.156,5.724 C3.79066667,5.876 3.40533333,5.952 3,5.952 C2.58933333,5.952 2.20266667,5.876 1.84,5.724 C1.47733333,5.572 1.16,5.364 0.888,5.1 C0.616,4.836 0.4,4.524 0.24,4.164 C0.08,3.804 0,3.41333333 0,2.992 Z M2.368,2.808 L2.96,2.808 C3.07733333,2.808 3.192,2.804 3.304,2.796 C3.416,2.788 3.516,2.76533333 3.604,2.728 C3.692,2.69066667 3.76133333,2.63466667 3.812,2.56 C3.86266667,2.48533333 3.888,2.37866667 3.888,2.24 C3.888,2.12266667 3.86533333,2.028 3.82,1.956 C3.77466667,1.884 3.71466667,1.82933333 3.64,1.792 C3.56533333,1.75466667 3.48133333,1.73066667 3.388,1.72 C3.29466667,1.70933333 3.20266667,1.704 3.112,1.704 L2.368,1.704 L2.368,2.808 Z M1.888,1.272 L3.152,1.272 C3.568,1.272 3.87466667,1.35066667 4.072,1.508 C4.26933333,1.66533333 4.368,1.91733333 4.368,2.264 C4.368,2.57333333 4.28,2.8 4.104,2.944 C3.928,3.088 3.712,3.17333333 3.456,3.2 L4.448,4.72 L3.928,4.72 L2.984,3.24 L2.368,3.24 L2.368,4.72 L1.888,4.72 L1.888,1.272 Z"></path>
                </g>
            </g>
            <g id="Pro" transform="translate(111, 0.808)" fill="#55575A" fill-rule="nonzero">
                <path d="M6.72540917,11.8103819 C7.15039553,11.8986014 7.59663121,11.964766 8.0641162,12.0088757 C8.5316012,12.0529855 8.9459629,12.0750403 9.30720131,12.0750403 C10.8796508,12.0750403 12.106799,11.595347 12.9886457,10.6359602 C13.8704924,9.67657343 14.3114157,8.22646584 14.3114157,6.28563744 C14.3114157,5.16083916 14.2051691,4.22350726 13.9926759,3.47364174 C13.7801828,2.72377622 13.445506,2.12278107 12.9886457,1.67065627 C12.5317853,1.21853147 11.9368044,0.904249597 11.2037029,0.727810651 C10.4706015,0.551371705 9.5940671,0.463152232 8.57409984,0.463152232 C8.17036279,0.463152232 7.80381206,0.474179666 7.47444763,0.496234535 C7.1450832,0.518289403 6.89540371,0.540344271 6.72540917,0.562399139 L6.72540917,11.8103819 Z M0,23.1906939 L3.53801146,23.1906939 L3.53801146,0.562399139 L0,0.562399139 L0,0.0992469069 L5.99230769,0.0992469069 C6.28979815,0.0992469069 6.5872886,0.0937331899 6.88477905,0.0827057558 C7.1822695,0.0716783217 7.47975996,0.0551371705 7.77725041,0.0330823023 C8.07474086,0.0330823023 8.36691899,0.0275685853 8.65378478,0.0165411512 C8.94065057,0.00551371705 9.2328287,0 9.53031915,0 C10.7415303,0 11.8624318,0.14887036 12.8930237,0.446611081 C13.9236157,0.744351802 14.816087,1.16890802 15.5704378,1.72027972 C16.3247886,2.27165143 16.9144572,2.93329747 17.3394435,3.70521786 C17.7644299,4.47713825 17.9769231,5.33727811 17.9769231,6.28563744 C17.9769231,7.27810651 17.7325559,8.16030124 17.2438216,8.93222162 C16.7550873,9.70414201 16.1069831,10.3547606 15.299509,10.8840775 C14.4920349,11.4133943 13.5517526,11.8214094 12.478662,12.1081226 C11.4055715,12.3948359 10.2846699,12.5381926 9.11595745,12.5381926 C8.81846699,12.5381926 8.43597927,12.510624 7.96849427,12.4554868 C7.50100927,12.4003497 7.08664757,12.3396988 6.72540917,12.2735342 L6.72540917,23.1906939 L10.2634206,23.1906939 L10.2634206,23.6538462 L0,23.6538462 L0,23.1906939 Z" id="Shape"></path>
                <path d="M20.8153846,23.2022727 L23.2882306,23.2022727 L23.2882306,10.2679196 L20.8153846,10.2679196 L20.8153846,9.81634615 L25.9858807,9.81634615 L25.9858807,13.0741259 L26.0501105,13.0741259 C26.1357502,12.7515734 26.2749146,12.386014 26.4676039,11.9774476 C26.6602932,11.5688811 26.9279173,11.1764423 27.270476,10.8001311 C27.6130347,10.4238199 28.0251757,10.1066434 28.506899,9.8486014 C28.9886222,9.59055944 29.5720426,9.46153846 30.2571601,9.46153846 C30.7495883,9.46153846 31.1777867,9.54217657 31.5417554,9.7034528 C31.905724,9.86472902 32.2054629,10.0690122 32.4409721,10.3163024 C32.6764812,10.5635927 32.8477606,10.848514 32.9548102,11.1710664 C33.0618598,11.4936189 33.1153846,11.8161713 33.1153846,12.1387238 C33.1153846,12.8483392 32.9548102,13.3214161 32.6336614,13.5579545 C32.3125126,13.794493 31.9378389,13.9127622 31.5096405,13.9127622 C30.5676039,13.9127622 30.0965857,13.6117133 30.0965857,13.0096154 C30.0965857,12.8160839 30.1179956,12.6601836 30.1608154,12.5419143 C30.2036353,12.4236451 30.2518076,12.3053759 30.3053324,12.1871066 C30.3588572,12.0688374 30.4070295,11.9344406 30.4498494,11.7839161 C30.4926692,11.6333916 30.5140791,11.4183566 30.5140791,11.1388112 C30.5140791,10.4506993 30.1394055,10.1066434 29.3900582,10.1066434 C29.0474995,10.1066434 28.6835308,10.2356643 28.2981522,10.4937063 C27.9127736,10.7517483 27.5541575,11.1280594 27.2223037,11.6226399 C26.8904499,12.1172203 26.6121209,12.7139423 26.3873167,13.4128059 C26.1625126,14.1116696 26.0501105,14.9126748 26.0501105,15.8158217 L26.0501105,23.2022727 L28.8441052,23.2022727 L28.8441052,23.6538462 L20.8153846,23.6538462 L20.8153846,23.2022727 Z" id="Path"></path>
                <path d="M37.3101354,17.0307692 C37.3101354,18.6021592 37.4292506,19.8526316 37.667481,20.7821862 C37.9057115,21.7117409 38.2197425,22.4255061 38.6095741,22.9234818 C38.9994057,23.4214575 39.4542093,23.7479082 39.9739848,23.902834 C40.4937603,24.0577598 41.0460218,24.1352227 41.6307692,24.1352227 C42.2155167,24.1352227 42.7677781,24.0577598 43.2875536,23.902834 C43.8073292,23.7479082 44.2621327,23.4214575 44.6519643,22.9234818 C45.041796,22.4255061 45.355827,21.7117409 45.5940574,20.7821862 C45.8322879,19.8526316 45.9514031,18.6021592 45.9514031,17.0307692 C45.9514031,15.702834 45.8647739,14.5906883 45.6915154,13.694332 C45.5182569,12.7979757 45.2529548,12.0676113 44.8956091,11.5032389 C44.5382635,10.9388664 44.0888742,10.5349528 43.5474414,10.291498 C43.0060086,10.0480432 42.3671179,9.92631579 41.6307692,9.92631579 C40.8944206,9.92631579 40.2555299,10.0480432 39.7140971,10.291498 C39.1726642,10.5349528 38.723275,10.9388664 38.3659293,11.5032389 C38.0085837,12.0676113 37.7432816,12.7979757 37.5700231,13.694332 C37.3967646,14.5906883 37.3101354,15.702834 37.3101354,17.0307692 Z M34.0615385,17.0307692 C34.0615385,15.9462888 34.2943546,14.9392713 34.7599868,14.0097166 C35.225619,13.0801619 35.8211951,12.2778677 36.5467151,11.602834 C37.2722351,10.9278003 38.0843843,10.4021592 38.9831628,10.0259109 C39.8819412,9.64966262 40.7644767,9.46153846 41.6307692,9.46153846 C42.4970617,9.46153846 43.3795972,9.64966262 44.2783757,10.0259109 C45.1771542,10.4021592 45.9893034,10.9278003 46.7148234,11.602834 C47.4403433,12.2778677 48.0359194,13.0801619 48.5015517,14.0097166 C48.9671839,14.9392713 49.2,15.9462888 49.2,17.0307692 C49.2,18.0709852 48.9834269,19.0503374 48.5502806,19.9688259 C48.1171344,20.8873144 47.5486299,21.6896086 46.8447672,22.3757085 C46.1409046,23.0618084 45.3341697,23.6040486 44.4245626,24.0024291 C43.5149554,24.4008097 42.583691,24.6 41.6307692,24.6 C40.6778475,24.6 39.746583,24.4008097 38.8369759,24.0024291 C37.9273688,23.6040486 37.1206339,23.0618084 36.4167712,22.3757085 C35.7129086,21.6896086 35.1444041,20.8873144 34.7112578,19.9688259 C34.2781116,19.0503374 34.0615385,18.0709852 34.0615385,17.0307692 Z" id="Shape"></path>
            </g>
        </g>
    </g>
</svg>