<?xml version="1.0" encoding="UTF-8"?>
<svg width="230px" height="265px" viewBox="0 0 230 265" version="1.1" xmlns="http://www.w3.org/2000/svg" xmlns:xlink="http://www.w3.org/1999/xlink">
    <title>processing time icon - outlines</title>
    <g id="Page-1" stroke="none" stroke-width="1" fill="none" fill-rule="evenodd">
        <g id="processing-time-icon---outlines" transform="translate(0, -21.7951)" fill="#D69516" fill-rule="nonzero">
            <path d="M115,56.7950933 C178.512746,56.7950933 230,108.282347 230,171.795093 C230,235.307839 178.512746,286.795093 115,286.795093 C51.4872538,286.795093 0,235.307839 0,171.795093 C0,108.282347 51.4872538,56.7950933 115,56.7950933 Z M115,76.7950933 C62.5329488,76.7950933 20,119.328042 20,171.795093 C20,224.262144 62.5329488,266.795093 115,266.795093 C167.467051,266.795093 210,224.262144 210,171.795093 C210,119.328042 167.467051,76.7950933 115,76.7950933 Z" id="Oval"></path>
            <path d="M197.398642,74.1575581 C201.416578,70.3683585 207.745512,70.5537862 211.534711,74.5717224 C215.323911,78.5896586 215.138483,84.9185926 211.120547,88.7077921 L195.360953,103.57021 C191.343017,107.35941 185.014083,107.173982 181.224883,103.156046 C177.435683,99.1381098 177.621111,92.8091758 181.639047,89.0199762 L197.398642,74.1575581 Z" id="Line-2"></path>
            <path d="M47.1211912,87.9371819 C51.1603462,91.7037549 51.3813176,98.0315476 47.6147446,102.070703 C43.8481717,106.109857 37.520379,106.330829 33.481224,102.564256 L17.6384031,87.7905864 C13.5992481,84.0240135 13.3782767,77.6962208 17.1448497,73.6570658 C20.9114226,69.6179109 27.2392153,69.3969395 31.2783703,73.1635124 L47.1211912,87.9371819 Z" id="Path"></path>
            <path d="M146.981824,21.7950929 C152.504662,21.7850715 156.989945,26.2540789 157,31.7769173 C157.010022,37.2997556 152.541014,41.7850384 147.018176,41.7950767 L83.5668111,41.9104229 C78.0439727,41.9204443 73.5586899,37.4514369 73.5486347,31.9285985 C73.5386133,26.4057601 78.0076207,21.9204773 83.5304591,21.910439 L146.981824,21.7950929 Z" id="Path"></path>
            <path d="M125.000004,61.7365233 C125.032176,67.2592761 120.581323,71.7625744 115.05857,71.7950969 C109.535817,71.827269 105.032519,67.376416 105.000172,61.8536632 L104.826875,32.2961957 C104.794703,26.7734429 109.245556,22.2701446 114.768309,22.2376221 C120.291062,22.20545 124.79436,26.656303 124.826708,32.1790558 L125.000004,61.7365233 Z" id="Path"></path>
            <path d="M124.999779,171.728676 C125.036461,177.251401 120.589143,181.758191 115.066418,181.795098 C109.543692,181.831554 105.036902,177.384237 105.000221,171.861511 L104.604017,112.209467 C104.567335,106.686742 109.014653,102.179952 114.537379,102.143045 C120.060104,102.106589 124.566894,106.553906 124.603576,112.076632 L124.999779,171.728676 Z" id="Path"></path>
            <path d="M155.902661,163.795567 C161.425247,163.741808 165.945768,168.175169 166.00001,173.697755 C166.053285,179.22034 161.619925,183.740861 156.097339,183.794619 L115.064854,184.194043 C109.542268,184.247802 105.021747,179.814441 104.967505,174.291856 C104.91423,168.76927 109.34759,164.248749 114.870176,164.194991 L155.902661,163.795567 Z" id="Path"></path>
        </g>
    </g>
</svg>