<?xml version="1.0" encoding="UTF-8"?>
<svg xmlns="http://www.w3.org/2000/svg" xmlns:xlink="http://www.w3.org/1999/xlink" width="114px" height="27px" viewBox="0 0 114 27" version="1.1">
    <title>sientra_logo_white</title>
    <defs>
        <polygon id="path-1" points="0 0 12.3290225 0 12.3290225 18.285092 0 18.285092"/>
        <polygon id="path-3" points="0 2.78383965e-22 16.24487 2.78383965e-22 16.24487 18.3850588 0 18.3850588"/>
    </defs>
    <g id="Page-1" stroke="none" stroke-width="1" fill="none" fill-rule="evenodd">
        <g id="sientra_logo_white">
            <path d="M19.304366,0 C20.613075,0 21.413772,0.76197153 21.413772,2.0715053 C21.413772,3.233624 20.64775,3.997134 19.450385,3.997134 C18.105323,3.997134 17.271468,3.1964202 17.271468,2.0352809 C17.271468,0.87022525 18.105323,0 19.304366,0" id="Fill-782" fill="#FF8300" fill-rule="nonzero"/>
            <path d="M112.315605,25.0127875 L112.471065,25.0127875 C112.653135,25.0127875 112.799925,24.9520875 112.799925,24.8053775 C112.799925,24.6736275 112.705985,24.5884375 112.496155,24.5884375 C112.410155,24.5884375 112.350455,24.5962875 112.315605,24.6049675 L112.315605,25.0127875 Z M112.306885,25.8104275 L111.978025,25.8104275 L111.978025,24.3888575 C112.106625,24.3706975 112.289605,24.3448075 112.524775,24.3448075 C112.792105,24.3448075 112.914365,24.3888575 113.009765,24.4573975 C113.095635,24.5182475 113.156485,24.6238375 113.156485,24.7603275 C113.156485,24.9346175 113.025565,25.0474675 112.860775,25.0989575 L112.860775,25.1178275 C113.000235,25.1594975 113.068905,25.2715475 113.113095,25.4624475 C113.156485,25.6809075 113.190485,25.7567175 113.217215,25.8104275 L112.869505,25.8104275 C112.827325,25.7567175 112.799925,25.6360275 112.757315,25.4624475 C112.732115,25.3165575 112.646115,25.2470575 112.463005,25.2470575 L112.306885,25.2470575 L112.306885,25.8104275 Z M111.431145,25.0727975 C111.431145,25.7053975 111.908445,26.2087575 112.540405,26.2087575 C113.156485,26.2174175 113.625115,25.7053975 113.625115,25.0829875 C113.625115,24.4487175 113.156485,23.9383875 112.524775,23.9383875 C111.908445,23.9383875 111.431145,24.4487175 111.431145,25.0727975 L111.431145,25.0727975 Z M113.987975,25.0727975 C113.987975,25.8719475 113.347525,26.5037375 112.531735,26.5037375 C111.716855,26.5037375 111.068295,25.8719475 111.068295,25.0727975 C111.068295,24.2753175 111.716855,23.6512175 112.540405,23.6512175 C113.347525,23.6512175 113.987975,24.2753175 113.987975,25.0727975 L113.987975,25.0727975 Z" id="Fill-784" fill="#FFFFFF" fill-rule="nonzero"/>
            <path d="M17.666161,15.5403295 C17.666161,12.9598625 17.632179,10.6761865 17.413712,8.6418845 C18.03064,8.7498595 18.613587,8.7876215 19.231224,8.7876215 C19.850533,8.7876215 20.468865,8.7498595 21.085098,8.6418845 C20.831108,10.8568885 20.831108,12.9962245 20.831108,15.0692675 C20.831108,19.6471105 20.902023,23.3183755 21.085098,26.0440145 C20.468865,25.9342125 19.850533,25.8624655 19.231224,25.8624655 C18.613587,25.8624655 18.03064,25.9342125 17.413712,26.0440145 C17.594277,23.9014515 17.666161,20.4090885 17.666161,15.5403295" id="Fill-786" fill="#FFFFFF" fill-rule="nonzero"/>
            <path d="M31.4767425,15.6855915 C33.2604225,15.6855915 35.5860625,15.6492295 38.4953325,15.6145395 C38.5300125,15.2872605 38.5662225,14.8865575 38.5662225,14.5598285 C38.5662225,11.5077545 36.8592225,9.6208675 34.3861525,9.6208675 C31.6615025,9.6208675 29.9890425,11.7263595 29.7342025,15.6855915 L31.4767425,15.6855915 Z M29.6253825,17.5031045 C29.6253825,22.3002465 31.8427525,24.9523305 35.5860625,24.9523305 C37.8753225,24.9523305 39.7652725,24.0797265 40.8927025,22.6266925 L41.3651725,22.7370445 C41.2191625,23.3541175 41.1458425,24.0443405 41.0731325,24.8457555 C39.2936725,25.9343025 37.1115225,26.5173935 34.6765125,26.5173935 C29.2253825,26.5173935 25.9903525,23.1725755 25.9903525,17.6119225 C25.9903525,11.9060815 29.2995125,8.2048935 34.4249225,8.2048935 C39.2209325,8.2048935 42.0925925,11.1473305 42.0925925,16.1597275 C42.0925925,16.5232225 42.0925925,16.8863135 42.0554025,17.2491135 C39.3314225,17.1749865 36.7123525,17.1031025 34.2418225,17.1031025 C32.6419525,17.1031025 31.1147925,17.1411425 29.6253825,17.1749865 L29.6253825,17.5031045 Z" id="Fill-788" fill="#FFFFFF" fill-rule="nonzero"/>
            <path d="M46.82233,15.5778345 C46.82233,13.1780775 46.82233,10.8572005 46.56601,8.6421965 C47.14908,8.7503125 47.73276,8.7882155 48.31177,8.7882155 C48.85764,8.7882155 49.44058,8.7503125 50.01877,8.6421965 C49.9841,9.6589955 49.94772,10.6767805 49.91235,11.7637855 C51.36386,9.4413755 53.50876,8.2066645 56.12546,8.2066645 C57.97681,8.2066645 59.54187,8.8970255 60.52551,10.0219415 C61.61252,11.3290935 61.65057,12.7433845 61.65057,14.5955885 L61.65057,18.0476755 L61.65057,19.9377815 C61.65057,21.6473235 61.65057,23.6810675 61.79559,26.0444635 C61.2142,25.9339745 60.59741,25.8629225 60.01349,25.8629225 C59.39841,25.8629225 58.81531,25.9339745 58.19681,26.0444635 C58.34283,22.8810575 58.45081,20.1570815 58.45081,17.9019385 L58.45081,16.0494605 C58.45081,14.1611785 58.37918,12.8144375 57.61783,11.8354025 C56.8898,10.9290915 55.83508,10.4588695 54.52557,10.4588695 C51.29111,10.4588695 49.9841,12.8524775 49.9841,17.7227775 C49.9841,20.5554195 50.056,23.3182595 50.16562,26.0444635 C49.58408,25.9339745 48.96576,25.8629225 48.38504,25.8629225 C47.76825,25.8629225 47.18518,25.9339745 46.56601,26.0444635 C46.78448,23.7543555 46.82233,20.2645025 46.82233,15.5778345" id="Fill-790" fill="#FFFFFF" fill-rule="nonzero"/>
            <path d="M67.8443575,7.5140765 C67.8443575,7.0430185 67.8071575,6.1343325 67.7008375,4.7894115 C68.9376575,4.4264675 70.1714175,3.8798865 71.3720975,3.1169335 C71.1181075,4.9708135 71.0084575,6.3133525 71.0084575,7.2237205 L71.0084575,8.9332615 C72.4623075,8.9332615 73.7686475,8.8236105 74.9717675,8.6420665 C74.9313075,8.9332615 74.8976175,9.2219375 74.8976175,9.5493565 C74.8976175,9.8395705 74.9313075,10.1323055 74.9717675,10.4581855 C73.8807075,10.3130075 72.7535375,10.2402785 71.6269875,10.2402785 L70.9729275,10.2402785 L70.7891875,19.1387555 L70.7891875,20.0103835 C70.7891875,23.3179895 71.2616275,24.8451465 73.7355075,24.8451465 C74.1346775,24.8451465 74.6781275,24.7718615 75.3668175,24.6630475 L75.3668175,25.8984565 C74.2073975,26.2981875 73.1155075,26.4797245 72.0987275,26.4797245 C68.9731775,26.4797245 67.5927775,24.8451465 67.5927775,21.3545985 C67.5927775,19.9015695 67.7008375,18.0121615 67.7379175,15.6866645 L67.8443575,7.5140765 Z" id="Fill-792" fill="#FFFFFF" fill-rule="nonzero"/>
            <g id="Fill-794-Clipped" transform="translate(0, 8.2052)">
                <mask id="mask-2" fill="white">
                    <use xlink:href="#path-1"/>
                </mask>
                <g id="path-1"/>
                <path d="M1.27400718,13.521084 C1.81919124,15.81287 3.16494854,16.866734 5.56457054,16.866734 C8.07384504,16.866734 9.49386894,15.669094 9.49386894,13.703312 C9.49386894,11.522167 7.78516774,11.26817 5.05575044,10.394032 C1.81919124,9.376385 0.29259161,8.104756 0.29259161,5.59618 C0.29259161,2.29179 2.83669104,0 6.80235444,0 C8.36419874,0 9.93010054,0.398331 11.5299883,1.162956 C11.2017308,2.145771 10.8380881,3.197262 10.4744444,4.322315 L10.111641,4.322315 C9.81890874,2.473053 8.58434214,1.491078 6.51199924,1.491078 C4.44049514,1.491078 3.09222014,2.690117 3.09222014,4.394768 C3.09222014,6.35899 4.76539574,6.684033 7.45705134,7.521115 C10.7639599,8.541126 12.3290225,9.595837 12.3290225,12.429173 C12.3290225,15.993298 9.67457014,18.285092 5.12847914,18.285092 C3.27460084,18.285092 1.56520078,17.92284 -8.6e-07,17.194843 C0.29259161,15.993298 0.6184713,14.757328 0.94812736,13.521084 L1.27400718,13.521084 Z" id="Fill-794" fill="#FFFFFF" fill-rule="nonzero" mask="url(#mask-2)"/>
            </g>
            <path d="M80.301445,14.5233465 C80.301445,12.7436025 80.301445,10.7841265 80.011955,8.6417045 C80.663445,8.7505225 81.281365,8.7875905 81.936025,8.7875905 C82.554555,8.7875905 83.209225,8.7505225 83.828365,8.6417045 C83.645445,9.8059195 83.537345,10.8937765 83.537345,11.8728185 L83.537345,12.3066715 C84.953425,9.5487175 86.770805,8.2417035 89.241445,8.2417035 C89.495595,8.2417035 89.786675,8.2417035 90.079465,8.2780685 C90.004445,8.8224105 89.931815,9.4052165 89.931815,9.9866255 C89.931815,10.5687375 90.004445,11.1477705 90.079465,11.7631605 C89.023855,11.5084685 88.225515,11.3639985 87.643425,11.3639985 C86.516165,11.3639985 85.497615,11.8349155 84.808225,12.5978625 C83.537345,14.0138325 83.464715,15.4337165 83.464715,17.0319215 L83.464715,17.7585145 L83.464715,20.8090595 C83.464715,22.2998505 83.537345,24.0440825 83.680965,26.0438315 C83.064875,25.9341815 82.445545,25.8622975 81.826475,25.8622975 C81.210995,25.8622975 80.628225,25.9341815 80.011955,26.0438315 C80.265135,24.1892625 80.301445,20.3364645 80.301445,14.5233465" id="Fill-797" fill="#FFFFFF" fill-rule="nonzero"/>
            <g id="Fill-799-Clipped" transform="translate(92.5838, 8.1329)">
                <mask id="mask-4" fill="white">
                    <use xlink:href="#path-3"/>
                </mask>
                <g id="path-3"/>
                <path d="M8.35955,9.152333 C5.05187,9.770664 3.49078,10.933483 3.49078,13.040653 C3.49078,15.003346 4.6535,16.239315 6.43225,16.239315 C8.79565,16.239315 10.54223,14.713833 10.54223,12.058399 L10.54223,8.719181 L8.35955,9.152333 Z M5.01629,18.385083 C2.00061,18.385083 0,16.420849 0,13.623593 C0,10.098225 1.85461,9.11681 5.92431,8.207287 L9.23193,7.483074 C10.24969,7.263768 10.6502,6.790478 10.6502,5.627655 C10.6502,3.050545 9.08599,1.527165 6.54431,1.527165 C4.47039,1.527165 2.9085,2.57795 2.17962,4.393231 L1.41833,4.100495 L1.6015,2.144795 C3.16326,0.690922 5.12512,2.78383965e-22 7.45159,2.78383965e-22 C11.99536,2.78383965e-22 13.62902,1.78199 13.62902,5.773525 L13.62902,14.38628 C13.62902,15.876499 13.77587,16.458752 15.19018,16.458752 C15.30139,16.458752 15.63043,16.420849 16.24487,16.420849 L16.24487,17.1852 C14.97497,17.767453 13.88391,18.093891 12.93884,18.093891 C11.48413,18.093891 10.75854,17.33038 10.54223,15.6572 C9.04901,17.438351 7.16131,18.385083 5.01629,18.385083 L5.01629,18.385083 Z" id="Fill-799" fill="#FFFFFF" fill-rule="nonzero" mask="url(#mask-4)"/>
            </g>
        </g>
    </g>
</svg>
