<?xml version="1.0" encoding="UTF-8"?>
<svg xmlns="http://www.w3.org/2000/svg" xmlns:xlink="http://www.w3.org/1999/xlink" width="841px" height="55px" viewBox="0 0 841 55" version="1.1">
    <title>tiger aesthetics text only upper case white</title>
    <g id="Page-1" stroke="none" stroke-width="1" fill="none" fill-rule="evenodd">
        <g id="tiger-aesthetics-text-only-upper-case-white" transform="translate(0.736, 0.7037)" fill="#FFFFFF" fill-rule="nonzero">
            <g id="TM" transform="translate(796.739, 2.1963)">
                <polygon id="Path" points="6.025 18.1 10.25 18.1 10.25 2.4 16.275 2.4 16.275 0 -1.13686838e-13 0 -1.13686838e-13 2.4 6.025 2.4"/>
                <path d="M30.3,18.275 C31.825,18.275 32.825,17.625 33.4,16.075 L39.2,3.775 L39.2,18.1 L43.475,18.1 L43.475,0 L40.1,0 C38.675,0 37.8,0.4 37.25,1.9 L31,14.7 L24.775,1.925 C24.25,0.4 23.475,0 22.075,0 L18.775,0 L18.775,18.1 L21.425,18.1 L21.425,3.775 L27.25,16.075 C27.875,17.775 28.975,18.275 30.3,18.275 Z" id="Path"/>
            </g>
            <g id="TIGER-AESTHETICS" transform="translate(-0, 0)">
                <polygon id="Path" points="17.352 52.9842659 29.52 52.9842659 29.52 7.76826594 46.872 7.76826594 46.872 0.856265944 0 0.856265944 0 7.76826594 17.352 7.76826594"/>
                <polygon id="Path" points="54.072 52.9842659 66.312 52.9842659 66.312 0.856265944 54.072 0.856265944"/>
                <path d="M104.256,53.7042659 C115.56,53.7042659 124.632,50.3202659 132.48,50.3202659 L132.48,24.5442659 L104.112,24.5442659 L104.112,31.0962659 L120.96,31.0962659 L120.96,42.4722659 C120.96,43.8402659 120.6,44.4162659 119.016,44.9922659 C115.056,46.2882659 110.232,47.0082659 105.84,47.0082659 C91.944,47.0082659 87.768,40.8882659 87.768,26.9922659 C87.768,9.49626594 96.624,4.81626594 128.16,8.05626594 L128.16,1.21626594 C92.736,-3.03173406 75.96,3.44826594 75.96,26.9922659 C75.96,45.2082659 83.304,53.7042659 104.256,53.7042659 Z" id="Path"/>
                <path d="M150.192,52.9842659 L187.344,52.9842659 L187.344,46.0722659 L158.112,46.0722659 C156.528,46.0722659 155.952,45.2802659 155.952,43.9122659 L155.952,28.5762659 L185.832,28.5762659 L185.832,22.0962659 L155.952,22.0962659 L155.952,9.92826594 C155.952,8.56026594 156.528,7.76826594 158.112,7.76826594 L187.344,7.76826594 L187.344,0.856265944 L150.192,0.856265944 C145.656,0.856265944 143.784,2.72826594 143.784,7.33626594 L143.784,46.5042659 C143.784,51.1122659 145.656,52.9842659 150.192,52.9842659 Z" id="Path"/>
                <path d="M196.92,7.91226594 L196.92,52.9842659 L209.16,52.9842659 L209.16,9.92826594 C209.16,8.56026594 209.448,7.76826594 210.96,7.76826594 L220.032,7.76826594 C232.56,7.76826594 236.376,9.85626594 236.376,18.1362659 C236.376,25.6962659 232.128,28.4322659 218.232,28.4322659 C214.92,28.4322659 213.48,30.8802659 215.856,33.2562659 L235.368,52.9842659 L250.2,52.9842659 L228.96,32.7522659 C245.16,31.9602659 248.76,25.7682659 248.76,17.6322659 C248.76,5.53626594 240.768,0.856265944 220.608,0.856265944 L203.976,0.856265944 C199.368,0.856265944 196.92,3.37626594 196.92,7.91226594 Z" id="Path"/>
                <path d="M296.568,10.3602659 L278.568,52.9842659 L287.136,52.9842659 L291.312,42.9042659 L324.864,42.9042659 L329.04,52.9842659 L342.36,52.9842659 L324.144,10.5762659 C321.12,3.59226594 317.52,0.352265944 309.816,0.352265944 C302.904,0.352265944 299.232,3.88026594 296.568,10.3602659 Z M293.832,36.8562659 L303.192,14.3922659 C304.848,10.5042659 306,9.64026594 308.232,9.64026594 C310.248,9.64026594 311.4,10.6482659 313.128,14.5362659 L322.344,36.8562659 L293.832,36.8562659 Z" id="Shape"/>
                <path d="M354.6,52.9842659 L391.752,52.9842659 L391.752,46.0722659 L362.52,46.0722659 C360.936,46.0722659 360.36,45.2802659 360.36,43.9122659 L360.36,28.5762659 L390.24,28.5762659 L390.24,22.0962659 L360.36,22.0962659 L360.36,9.92826594 C360.36,8.56026594 360.936,7.76826594 362.52,7.76826594 L391.752,7.76826594 L391.752,0.856265944 L354.6,0.856265944 C350.064,0.856265944 348.192,2.72826594 348.192,7.33626594 L348.192,46.5042659 C348.192,51.1122659 350.064,52.9842659 354.6,52.9842659 Z" id="Path"/>
                <path d="M398.592,45.1362659 L398.592,52.2642659 C440.856,57.4482659 447.552,48.9522659 447.552,38.1522659 C447.552,16.2642659 409.752,26.0562659 409.752,13.8162659 C409.752,8.56026594 414,5.53626594 443.88,8.05626594 L443.88,1.43226594 C404.496,-2.81573406 397.944,4.02426594 397.944,15.1842659 C397.944,35.5602659 435.456,26.9202659 435.456,39.0162659 C435.456,44.6322659 430.056,49.0242659 398.592,45.1362659 Z" id="Path"/>
                <polygon id="Path" points="466.632 52.9842659 478.8 52.9842659 478.8 7.76826594 496.152 7.76826594 496.152 0.856265944 449.28 0.856265944 449.28 7.76826594 466.632 7.76826594"/>
                <polygon id="Path" points="503.352 52.9842659 515.592 52.9842659 515.592 28.7202659 542.808 28.7202659 542.808 52.9842659 555.048 52.9842659 555.048 0.856265944 542.808 0.856265944 542.808 21.6642659 515.592 21.6642659 515.592 0.856265944 503.352 0.856265944"/>
                <path d="M573.264,52.9842659 L610.416,52.9842659 L610.416,46.0722659 L581.184,46.0722659 C579.6,46.0722659 579.024,45.2802659 579.024,43.9122659 L579.024,28.5762659 L608.904,28.5762659 L608.904,22.0962659 L579.024,22.0962659 L579.024,9.92826594 C579.024,8.56026594 579.6,7.76826594 581.184,7.76826594 L610.416,7.76826594 L610.416,0.856265944 L573.264,0.856265944 C568.728,0.856265944 566.856,2.72826594 566.856,7.33626594 L566.856,46.5042659 C566.856,51.1122659 568.728,52.9842659 573.264,52.9842659 Z" id="Path"/>
                <polygon id="Path" points="632.808 52.9842659 644.976 52.9842659 644.976 7.76826594 662.328 7.76826594 662.328 0.856265944 615.456 0.856265944 615.456 7.76826594 632.808 7.76826594"/>
                <polygon id="Path" points="669.528 52.9842659 681.768 52.9842659 681.768 0.856265944 669.528 0.856265944"/>
                <path d="M737.568,52.4082659 L737.568,45.4242659 C711.36,48.9522659 703.368,43.6242659 703.368,26.9922659 C703.368,10.2882659 710.568,5.03226594 737.496,8.20026594 L737.496,1.21626594 C706.104,-2.95973406 691.416,4.02426594 691.416,26.9922659 C691.416,49.9602659 707.04,56.9442659 737.568,52.4082659 Z" id="Path"/>
                <path d="M743.832,45.1362659 L743.832,52.2642659 C786.096,57.4482659 792.792,48.9522659 792.792,38.1522659 C792.792,16.2642659 754.992,26.0562659 754.992,13.8162659 C754.992,8.56026594 759.24,5.53626594 789.12,8.05626594 L789.12,1.43226594 C749.736,-2.81573406 743.184,4.02426594 743.184,15.1842659 C743.184,35.5602659 780.696,26.9202659 780.696,39.0162659 C780.696,44.6322659 775.296,49.0242659 743.832,45.1362659 Z" id="Path"/>
            </g>
        </g>
    </g>
</svg>
