<?xml version="1.0" encoding="UTF-8"?>
<svg width="213px" height="209px" viewBox="0 0 213 209" version="1.1" xmlns="http://www.w3.org/2000/svg" xmlns:xlink="http://www.w3.org/1999/xlink">
    <title>viality_clinical_study_icon - GOLD</title>
    <g id="Page-1" stroke="none" stroke-width="1" fill="none" fill-rule="evenodd">
        <g id="viality_clinical_study_icon---GOLD" transform="translate(0, 0)" fill-rule="nonzero">
            <path d="M106.438,208.594 C165.222,208.594 212.876,161.899 212.876,104.297 C212.876,46.695 165.222,0 106.438,0 C47.655,0 0,46.695 0,104.297 C0,161.899 47.655,208.594 106.438,208.594" id="Path" fill="#D69516"></path>
            <path d="M119.565,158.455 L119.565,138.788 C119.415,138.698 119.331,138.605 119.241,138.596 C115.891,138.318 115.891,138.32 115.898,134.936 L115.898,132.986 L119.567,132.733 L119.567,123.542 C118.409,123.48 117.276,123.42 115.924,123.35 C115.924,121.747 115.869,120.188 115.973,118.64 C115.993,118.346 116.61,117.92 116.998,117.861 C117.808,117.742 118.648,117.826 119.662,117.826 C119.662,116.071 119.642,114.51 119.666,112.948 C119.697,110.805 120.786,109.557 122.568,109.575 C124.334,109.59 125.41,110.851 125.41,113.005 C125.42,128.933 125.42,144.861 125.408,160.785 C125.406,163.174 124.317,164.285 121.944,164.285 C97.029,164.296 72.115,164.295 47.2,164.281 C44.724,164.279 43.648,163.198 43.645,160.691 C43.623,144.869 43.6290765,129.048 43.632,113.226 C43.6290765,112.80628 43.6697691,112.387394 43.753,111.976 C44.091,110.357 45.392,109.343 46.891,109.497 C48.364,109.65 49.379,110.777 49.421,112.421 C49.462,114.144 49.429,115.866 49.429,117.725 L53.099,117.89 L53.099,123.359 C51.914,123.412 50.785,123.465 49.449,123.524 C49.449,126.434 49.419,129.251 49.498,132.062 C49.504,132.333 50.166,132.739 50.572,132.812 C51.381,132.96 52.223,132.918 53.134,132.957 L53.134,138.419 L49.524,138.633 L49.524,158.455 L119.564,158.455 L119.565,158.455 Z" id="Path" fill="#FFFFFF"></path>
            <path d="M127.718,51.313 C131.284,51.313 134.695,51.309 138.104,51.316 C141.333,51.32 142.146,52.118 142.151,55.281 C142.155,57.803 142.175,60.324 142.146,62.846 C142.122,64.934 141.126,65.953 139.039,65.956 C124.117,65.971 109.195,65.969 94.274,65.958 C92.139,65.955 91.184,65.043 91.12,62.915 C91.034,60.132 90.99,57.347 91.001,54.564 C91.01,52.5 92.161,51.358 94.249,51.329 C97.557,51.285 100.869,51.285 104.179,51.329 C105.191,51.342 105.608,51.102 105.755,49.973 C106.432,44.778 111.059,40.678 116.21,40.559 C121.727,40.434 126.356,44.154 127.354,49.516 C127.46,50.079 127.582,50.639 127.718,51.314 M122.192,51.777 C122.274,48.568 119.95,46.077 116.818,46.01 C113.581,45.944 111.023,48.363 110.982,51.534 C110.94,54.542 113.537,57.177 116.576,57.208 C119.592,57.241 122.117,54.8 122.192,51.777" id="Shape" fill="#FFFFFF"></path>
            <path d="M146.562,51.598 C151.5,50.151 157.575,54.09 158.823,59.576 C159.049182,60.6004965 159.16153,61.6468388 159.158,62.696 C159.174,90.339 159.172,117.984 159.169,145.63 C159.167,152.547 154.619,157.11 147.74,157.11 C142.38,157.11 137.017,157.079 131.659,157.145793 C130.402,157.16 130.04,156.763 130.041984,155.529 C130.052,151.74 130.005,151.747 133.758,151.74 C138.488,151.736 143.218,151.727 147.948,151.705 C151.716,151.689 153.771,149.641 153.774,145.842 C153.782,119.195 153.778,92.549 153.778,65.904 C153.778,64.644 153.8,63.382 153.767,62.123 C153.687,59.016 151.643,56.875 148.519,56.815 C147.167,56.789 146.625,56.412 146.719,55.009 C146.799,53.88 146.625,52.731 146.563,51.598" id="Path" fill="#FFFFFF"></path>
            <path d="M77.91,105.87 C77.279,105.66 76.584,105.645 76.344,105.305 C75.907,104.685 75.325,103.674 75.559,103.195 C75.887,102.525 76.895,101.801 77.634,101.779 C81.729,101.654 85.83,101.733 89.932,101.744 C90.457,101.744 90.982,101.751 91.508,101.74 C92.653,101.72 93.482,102.198 93.68,103.36 C93.881,104.534 93.226,105.237 92.143,105.583 C91.905,105.66 91.661,105.724 91.332,105.821 L91.332,107.901 C91.33,121.2 91.336,134.499 91.321,147.798 C91.317,151.578 89.283,154.252 85.951,154.966 C81.881,155.84 77.998,152.846 77.927,148.689 C77.863,144.748 77.91,140.805 77.91,136.863 L77.91,105.87 M80.115,105.753 C80.053,106.06 80.013,106.161 80.013,106.265 C80.007,120.351 79.996,134.439 80.018,148.525 C80.018,149.182 80.214,149.888 80.498,150.485 C81.42,152.411 83.508,153.341 85.658,152.874 C87.788,152.413 89.125,150.624 89.127,148.075 C89.145,134.461 89.142,120.847 89.137,107.233 C89.137,106.734 89.043,106.238 88.992,105.753 L80.115,105.753 L80.115,105.753 Z" id="Shape" fill="#FFFFFF"></path>
            <path d="M101.043,105.849 C100.563,105.686 100.091,105.671 99.899,105.43 C99.416,104.826 98.638,104.03 98.757,103.477 C98.897,102.813 99.835,101.849 100.448,101.832 C105.332,101.699 110.225,101.702 115.11,101.834 C115.73,101.851 116.67,102.791 116.82,103.45 C116.947,104.006 116.206,104.826 115.718,105.424 C115.5,105.693 114.964,105.702 114.461,105.864 L114.461,107.744 C114.461,121.304 114.471,134.866 114.453,148.43 C114.448,151.643 112.351,154.245 109.317,154.941 C106.274,155.643 103.105,154.245 101.839,151.385 C101.306,150.183 101.085,148.75 101.079,147.422 C101.024,134.227 101.043,121.034 101.043,107.838 L101.043,105.849 M103.39,105.757 C103.328,106.189 103.235,106.542 103.235,106.895 C103.231,120.721 103.225,134.549 103.271,148.375 C103.273,149.221 103.544,150.163 103.971,150.897 C105.024,152.701 107.176,153.411 109.196,152.8 C111.171,152.205 112.378,150.447 112.378,148.077 C112.384,134.46 112.38,120.844 112.375,107.227 C112.375,106.767 112.327,106.308 112.296,105.757 L103.39,105.757 L103.39,105.757 Z" id="Shape" fill="#FFFFFF"></path>
            <path d="M54.572,105.816 C54.174,105.701 53.698,105.71 53.506,105.481 C52.984,104.852 52.168,104.071 52.243,103.445 C52.32,102.815 53.317,101.822 53.934,101.807 C58.869,101.67 63.811,101.675 68.746,101.794 C69.339,101.807 70.274,102.698 70.386,103.306 C70.499,103.922 69.87,104.751 69.403,105.362 C69.169,105.668 68.569,105.692 68.051,105.873 L68.051,124.473 C68.049,132.46 68.066,140.449 68.036,148.436 C68.025,151.289 66.622,153.366 64.06,154.533 C61.469,155.713 59.01,155.25 56.878,153.393 C55.283,152.003 54.624,150.18 54.626,148.059 C54.64,134.187 54.624,120.314 54.616,106.442 C54.616,106.288 54.596,106.132 54.571,105.816 M56.854,105.728 C56.783,106.056 56.724,106.206 56.724,106.356 C56.717,120.341 56.693,134.326 56.764,148.308 C56.768,149.329 57.264,150.476 57.859,151.336 C58.951,152.916 61.131,153.391 62.966,152.712 C64.862,152.012 65.958,150.324 65.958,147.997 C65.968,134.381 65.965,120.764 65.958,107.147 C65.958,106.693 65.892,106.239 65.853,105.727 L56.853,105.727 L56.854,105.728 Z" id="Shape" fill="#FFFFFF"></path>
            <path d="M86.662,51.18 L86.239,56.647 C85.785,56.693 85.335,56.759 84.881,56.779 C81.485,56.933 79.415,59.103 79.411,62.6 C79.395,70.587 79.408,78.576 79.411,86.565 L79.411,97.04 C77.803,97.04 76.345,97.088 74.898,97 C74.585,96.98 74.21,96.506 74.034,96.155 C73.882,95.855 73.964,95.435 73.964,95.068 C73.961,84.347 73.934,73.626 73.974,62.905 C73.994,57.392 76.974,53.169 81.82,51.828 C83.342,51.408 84.974,51.394 86.663,51.18" id="Path" fill="#FFFFFF"></path>
            <path d="M96.23,78.643 C99.944,79.326 99.944,79.326 99.95,81.588 C99.96,84.589 99.96,84.589 96.21,85.301 C95.454,89.085 95.454,89.085 92.034,89.048 C90.206,89.028 90.206,89.028 89.58,85.471 C88.365,85.111 86.753,85.107 86.168,84.331 C85.54,83.496 85.794,81.932 85.809,80.688 C85.844,77.932 88.182,79.24 89.408,78.71 C89.736,77.506 89.703,75.842 90.466,75.301 C91.373,74.66 92.966,74.869 94.255,74.918 C96.903,75.013 95.567,77.284 96.23,78.642" id="Path" fill="#FFFFFF"></path>
            <path d="M131.944,89.477 C136.412,89.479 140.881,89.479 145.349,89.477 C146.323,89.477 147.062,89.891 147.064,90.903 C147.064,91.938 146.271,92.295 145.327,92.319 C144.855,92.332 144.381,92.335 143.909,92.335 L124.985,92.335 C122.881,92.335 120.78,92.339 118.675,92.328 C117.611,92.324 116.513,92.16 116.581,90.8 C116.641,89.57 117.681,89.466 118.698,89.47 C123.113,89.483 127.529,89.475 131.944,89.477" id="Path" fill="#FFFFFF"></path>
            <path d="M131.818,80.024 C136.171,80.024 140.526,80.033 144.879,80.02 C145.953,80.015 147.047,80.132 147.053131,81.457 C147.063,82.803 145.931,82.9 144.881,82.9 C136.173,82.9 127.465,82.9 118.758,82.897 C117.706,82.897 116.572,82.792 116.577952,81.455 C116.583,80.135 117.686,80.015 118.758,80.018 C123.11,80.031 127.465,80.024 131.818,80.024" id="Path" fill="#FFFFFF"></path>
            <path d="M120.157,99.043 C120.582,99.001 120.977,98.926 121.372,98.926 C129.242,98.92 137.112,98.92 144.982,98.92 C145.295,98.92 145.707,98.823 145.906,98.98 C146.356,99.339 146.989,99.815 147.008,100.267 C147.028,100.71 146.468,101.347 146.001,101.597 C145.54,101.844 144.876,101.745 144.301,101.747 C137.481,101.756 130.66,101.756 123.839,101.757 C121.289,101.757 121.289,101.757 120.157,99.043" id="Path" fill="#FFFFFF"></path>
            <path d="M109.708,86.352 C109.708,89.45 109.681,92.548 109.723,95.646 C109.736,96.619 109.487,97.084 108.416,97.0733747 C107.388,97.06 106.925,96.815 106.934,95.653 C106.984,89.403 106.962,83.157 106.951,76.907 C106.949,75.909 107.181,75.031 108.336,75.0218672 C109.509,75.013 109.716,75.913 109.712,76.901 C109.702,80.051 109.708,83.201 109.708,86.351" id="Path" fill="#FFFFFF"></path>
            <path d="M138.239,139.469 C135.931,139.469 133.622,139.433 131.315,139.486 C130.325,139.511 130.023,139.109 130.058,138.186 C130.087,137.356 130.028,136.596 131.223,136.599968 C135.943,136.624 140.665,136.604 145.386,136.626 C146.321,136.631 147.108,137.039 147.076,138.08 C147.044,139.1 146.279,139.469 145.322,139.469 C142.96,139.467 140.601,139.467 138.239,139.469" id="Path" fill="#FFFFFF"></path>
            <path d="M138.301,130.016 C135.994,130.016 133.685,129.972 131.379,130.034 C130.307,130.064 130.049,129.613 130.047,128.636 C130.047,127.692 130.237,127.165 131.326,127.174 C135.941,127.204 140.554,127.184 145.169,127.194 C146.133,127.194 147.066,127.425 147.064006,128.589 C147.059,129.838 146.111,130.034 145.064,130.023 C142.81,130.001 140.554,130.016 138.301,130.016" id="Path" fill="#FFFFFF"></path>
            <path d="M128.842,108.373 L137.321,108.373 C140.049,108.373 142.779,108.301 145.497,108.44 C146.049,108.468 146.562,109.29 147.092,109.747 C146.565,110.206 146.044,111.048 145.504,111.059 C140.684,111.167 135.859,111.121 131.034,111.132 C129.254,111.136 129.854,109.476 128.842,108.373" id="Path" fill="#FFFFFF"></path>
            <path d="M138.274,120.579 C135.961,120.579 133.646,120.546 131.334,120.595 C130.362,120.615 130.023,120.24 130.06,119.298 C130.09,118.454 130.058,117.761 131.264,117.775 C135.944,117.823 140.623,117.801 145.304,117.795 C146.257,117.792 147.054,118.092 147.064064,119.146 C147.07,120.288 146.23,120.59 145.214,120.586 C142.9,120.571 140.587,120.579 138.274,120.579" id="Path" fill="#FFFFFF"></path>
            <path d="M69.46,132.888 C71.65,132.888 73.627,132.853 75.603,132.928 C75.899,132.938 76.185,133.464 76.454,133.768 C76.507,133.83 76.465,133.973 76.472,134.077 C76.747,138.535 76.747,138.555 72.276,138.529 C69.019,138.511 69.513,138.985 69.462,135.693 C69.449,134.862 69.46,134.028 69.46,132.888" id="Path" fill="#FFFFFF"></path>
            <polygon id="Path" fill="#FFFFFF" points="99.552 139.424 92.85 139.424 92.85 134.041 99.552 134.041"></polygon>
            <path d="M69.472,117.829 C71.645,117.829 73.578,117.785 75.508,117.871 C75.838,117.887 76.397,118.431 76.421,118.762 C76.521,120.217 76.463,121.684 76.463,123.412 C74.24,123.412 72.165,123.439 70.093,123.372 C69.876,123.364 69.514,122.804 69.501,122.486 C69.437,121.026 69.473,119.562 69.473,117.829" id="Path" fill="#FFFFFF"></path>
            <path d="M99.532,123.345 C98.943,123.378 98.436,123.431 97.929,123.433 C96.269,123.444 94.609,123.438 92.842,123.438 L92.842,117.916 L99.532,117.916 L99.532,123.345 L99.532,123.345 Z" id="Path" fill="#FFFFFF"></path>
            <path d="M81.389,124.153 C83.308,124.153 85.087,124.175 86.867,124.146 C88.055,124.126 87.872,124.964 87.872,125.672 C87.879,132.506 87.877,139.342 87.874,146.177 C87.874,146.808 87.892,147.439 87.872,148.069 C87.808,150.135 86.494,151.595 84.648,151.666 C82.867,151.732 81.365,150.296 81.303,148.217 C81.208,145.117 81.261,142.014 81.259,138.911 C81.255,134.706 81.255,130.499 81.266,126.294 C81.268,125.626 81.341,124.958 81.389,124.153" id="Path" fill="#FFFFFF"></path>
            <path d="M110.982,129.196 C111.036,129.915 111.118,130.479 111.118,131.044 C111.124,136.497 111.12,141.952 111.116,147.405 C111.116,147.719 111.118,148.036 111.089,148.347 C110.906,150.301 109.51,151.694 107.769,151.672 C105.942,151.648 104.525,150.179 104.514,148.133 C104.478,142.259 104.516,136.387 104.481,130.514 C104.474,129.478 104.851,129.138 105.863,129.178 C107.53,129.242 109.199,129.196 110.981,129.196" id="Path" fill="#FFFFFF"></path>
            <path d="M64.6,141.806 C64.602,144.165 64.615,146.524 64.598,148.884 C64.582,151.149 63.222,152.694 61.303,152.67 C59.427,152.648 58.09,151.14 58.083,148.957 C58.066,144.081 58.11,139.206 58.055,134.33 C58.042,133.164 58.388,132.714 59.57,132.789 C60.822,132.869 62.086,132.842 63.343,132.796 C64.3,132.76 64.626,133.164 64.613,134.099 C64.571,136.668 64.598,139.237 64.6,141.806" id="Path" fill="#FFFFFF"></path>
        </g>
    </g>
</svg>