<?xml version="1.0" encoding="UTF-8"?>
<svg xmlns="http://www.w3.org/2000/svg" xmlns:xlink="http://www.w3.org/1999/xlink" width="117px" height="43px" viewBox="0 0 117 43" version="1.1">
    <title>viality_logo white</title>
    <defs>
        <polygon id="path-1" points="0 0 20.1818151 0 20.1818151 20.368569 0 20.368569"/>
    </defs>
    <g id="Page-1" stroke="none" stroke-width="1" fill="none" fill-rule="evenodd">
        <g id="viality_logo-white">
            <g id="Fill-333-Clipped" transform="translate(0, 12.611)">
                <mask id="mask-2" fill="white">
                    <use xlink:href="#path-1"/>
                </mask>
                <g id="path-1"/>
                <path d="M20.1818151,0 L20.1818151,0.331841 C18.2320811,0.580727 17.5891141,1.451973 16.6764403,3.837212 L10.3501988,20.368569 L9.97682196,20.368569 L3.15270856,3.007607 C2.55116396,1.514107 1.97044256,0.560013 -9.37499976e-07,0.331841 L-9.37499976e-07,0 L8.85669326,0 L8.85669326,0.331841 L7.61217926,0.477043 C6.67879396,0.580727 6.05653716,0.850418 6.05653716,1.763092 C6.05653716,2.13636 6.16032076,2.634239 6.40920116,3.277199 L11.3042965,16.676445 L16.1786776,3.609039 C16.427558,2.986794 16.5727683,2.447502 16.5727683,1.991264 C16.5727683,1.182266 16.0541831,0.663796 14.5607892,0.497757 L13.3162757,0.331841 L13.3162757,0 L20.1818151,0 Z" id="Fill-333" fill="#FFFFFF" fill-rule="nonzero" mask="url(#mask-2)"/>
            </g>
            <path d="M21.9448725,32.6270606 L23.0857225,32.5233926 C24.5998325,32.3574526 25.2843325,31.8596046 25.2843325,29.9098436 L25.2843325,17.2365426 C25.2843325,15.6601946 24.6827825,15.1624306 23.5005125,14.8513036 L22.3389725,14.5401696 L22.3389725,14.2497566 L28.2090025,12.1962366 L28.2090025,29.9098436 C28.2090025,31.6936496 28.7481625,32.3366396 30.4075925,32.5233926 L31.5483225,32.6270606 L31.5483225,32.9797216 L21.9448725,32.9797216 L21.9448725,32.6270606 Z" id="Fill-336" fill="#FFFFFF" fill-rule="nonzero"/>
            <path d="M41.9194,12.6111536 C36.79611,12.6111536 39.69995,19.6219036 36.40204,19.6219036 C35.4064,19.6219036 34.88779,18.9789356 34.88779,17.8173836 C34.88779,15.3075266 37.02429,12.1962366 42.50012,12.1962366 C48.14194,12.1962366 48.53601,15.5565196 48.53601,17.7758416 L48.53601,29.7023936 C48.53601,31.2166146 49.15829,32.0670476 50.27829,32.0670476 C50.83829,32.0670476 51.48129,31.8388826 52.06213,31.3411266 L52.24875,31.5070346 C51.25323,32.8552096 50.0087,33.4567726 48.78491,33.4567726 C47.02182,33.4567726 45.77731,32.3159186 45.69437,30.2625126 C44.11798,32.0877536 42.00235,33.4567726 39.49246,33.4567726 C36.56793,33.4567726 34.65967,31.6107036 34.65967,28.8105476 C34.65967,24.7658776 38.49695,23.2517706 41.38007,22.2975626 L45.63211,20.8664176 L45.63211,17.9417656 C45.63211,15.6601946 45.27954,12.6111536 41.9194,12.6111536 M41.25555,31.9218456 C43.06012,31.9218456 44.76099,30.8639536 45.63211,29.8061756 L45.63211,21.3019336 L43.08081,22.2353136 C41.04813,22.9613576 37.91617,24.1436166 37.91617,28.1260456 C37.91617,30.3661966 39.05698,31.9218456 41.25555,31.9218456" id="Fill-338" fill="#FFFFFF" fill-rule="nonzero"/>
            <path d="M57.2269775,31.009171 C57.2269775,31.79735 57.4551575,32.419609 58.2019275,32.419609 C59.8405075,32.419609 61.3961675,29.578028 62.2880175,26.757048 L62.7443775,26.881544 C61.7694275,29.702412 60.1930475,33.456665 56.9573875,33.456665 C55.1735775,33.456665 54.4475575,32.253685 54.4475575,30.428453 C54.4475575,29.785374 54.5512875,29.038733 54.7172475,28.271265 L59.6952975,5.0403037 C59.7575575,4.7084622 59.7989675,4.4387589 59.7989675,4.189878 C59.7989675,3.2773161 59.3219175,2.9246519 58.3885375,2.6550589 L57.3099575,2.3646429 L57.3721775,2.0535145 L63.6569675,0 L57.5381075,28.851986 C57.3929075,29.536491 57.2269775,30.345383 57.2269775,31.009171" id="Fill-340" fill="#FFFFFF" fill-rule="nonzero"/>
            <path d="M65.3578025,32.6270606 L66.5247925,32.5233926 C68.0735625,32.3574526 68.7736325,31.8596046 68.7736325,29.9098436 L68.7736325,17.2365426 C68.7736325,15.6601946 68.1583925,15.1624306 66.9491025,14.8513036 L65.7609325,14.5401696 L65.7609325,14.2497566 L71.7653325,12.1962366 L71.7653325,29.9098436 C71.7653325,31.6936496 72.3169025,32.3366396 74.0143525,32.5233926 L75.1812225,32.6270606 L75.1812225,32.9797216 L65.3578025,32.9797216 L65.3578025,32.6270606 Z" id="Fill-342" fill="#FFFFFF" fill-rule="nonzero"/>
            <path d="M83.0091025,13.0259806 L83.0091025,28.6031176 C83.0091025,31.3825596 84.3572425,32.3989096 86.1204325,32.3989096 C87.1367225,32.3989096 88.2567225,32.0048206 89.2939525,31.2996056 L89.4598525,31.5691896 C88.0078825,32.7929986 86.2655725,33.4567866 84.6062725,33.4567866 C82.0757525,33.4567866 80.0844825,31.9218586 80.0844825,28.4994496 L80.0844825,13.0259806 L77.1391725,13.0259806 L77.1391725,12.6111786 L80.0844825,12.6111786 L80.0844825,6.2641176 L83.0091025,5.3100196 L83.0091025,12.6111786 L88.5265025,12.6111786 L88.5265025,13.0259806 L83.0091025,13.0259806 Z" id="Fill-344" fill="#FFFFFF" fill-rule="nonzero"/>
            <path d="M111.093693,12.6110466 L111.093693,12.9428876 C108.998723,13.2125866 108.355783,14.4571006 107.629823,16.4482586 L101.096013,34.7634286 C100.058963,37.6672526 98.3166525,42.1475536 93.7119825,42.1475536 C91.8452225,42.1475536 89.9991525,41.3800976 89.9991525,39.7828986 C89.9991525,38.7872626 90.6837225,38.0406196 91.7000125,38.0406196 C93.6704725,38.0406196 93.8986225,40.7162946 95.8899525,40.7162946 C97.8188525,40.7162946 99.5405325,38.0820626 100.701973,34.2863776 L93.5045825,15.6186536 C92.9652725,14.2703636 92.4052725,13.1917736 90.3933125,12.9428876 L90.3933125,12.6110466 L99.2085025,12.6110466 L99.2085025,12.9428876 L98.0263125,13.0673836 C97.0722125,13.1710596 96.4913325,13.5028926 96.4913325,14.4362806 C96.4913325,14.8096546 96.5950925,15.2867056 96.8024925,15.8882456 L102.070923,30.6772166 L107.132023,16.2200856 C107.339423,15.6186536 107.484683,15.1000756 107.484683,14.6437386 C107.484683,13.7933126 106.966073,13.2540136 105.410463,13.0880896 L104.082953,12.9428876 L104.082953,12.6110466 L111.093693,12.6110466 Z" id="Fill-346" fill="#FFFFFF" fill-rule="nonzero"/>
            <path d="M28.5717725,4.63991185 C28.5717725,5.94324085 27.5152325,6.99990285 26.2117725,6.99990285 C24.9084625,6.99990285 23.8517925,5.94324085 23.8517925,4.63991185 C23.8517925,3.33658385 24.9084625,2.27992085 26.2117725,2.27992085 C27.5152325,2.27992085 28.5717725,3.33658385 28.5717725,4.63991185" id="Fill-348" fill="#F58320" fill-rule="nonzero"/>
            <path d="M72.2311275,4.63991185 C72.2311275,5.94324085 71.1746075,6.99990285 69.8711375,6.99990285 C68.5677975,6.99990285 67.5112175,5.94324085 67.5112175,4.63991185 C67.5112175,3.33658385 68.5677975,2.27992085 69.8711375,2.27992085 C71.1746075,2.27992085 72.2311275,3.33658385 72.2311275,4.63991185" id="Fill-350" fill="#F58320" fill-rule="nonzero"/>
            <polygon id="Fill-352" fill="#FFFFFF" fill-rule="nonzero" points="114.459282 12.6583246 114.459282 12.9438626 113.689512 12.9438626 113.689512 15.0550916 113.376942 15.0550916 113.376942 12.9438626 112.607232 12.9438626 112.607232 12.6583246"/>
            <path d="M114.736087,12.6583566 L115.179447,12.6583566 L115.836177,14.6847236 L116.488277,12.6583566 L116.928707,12.6583566 L116.928707,15.0551156 L116.633177,15.0551156 L116.633177,13.6405796 C116.633177,13.5916296 116.634278,13.5105446 116.636348,13.3974616 C116.638307,13.2842646 116.639527,13.1630946 116.639527,13.0336076 L115.987308,15.0551156 L115.680417,15.0551156 L115.022097,13.0336076 L115.022097,13.1070406 C115.022097,13.1657496 115.023677,13.2552416 115.026737,13.3754276 C115.029908,13.4955906 115.031497,13.5839846 115.031497,13.6405796 L115.031497,15.0551156 L114.736087,15.0551156 L114.736087,12.6583566 Z" id="Fill-354" fill="#FFFFFF" fill-rule="nonzero"/>
        </g>
    </g>
</svg>
