<?xml version="1.0" encoding="UTF-8"?>
<svg width="214px" height="210px" viewBox="0 0 214 210" version="1.1" xmlns="http://www.w3.org/2000/svg" xmlns:xlink="http://www.w3.org/1999/xlink">
    <title>viality_auraclens_icon - GOLD</title>
    <g id="Page-1" stroke="none" stroke-width="1" fill="none" fill-rule="evenodd">
        <g id="viality_auraclens_icon---GOLD" transform="translate(0, -0)" fill-rule="nonzero">
            <path d="M106.714,209.134 C165.649,209.134 213.427,162.317 213.427,104.566 C213.427,46.816 165.649,0 106.714,0 C47.778,0 0,46.816 0,104.566 C0,162.317 47.778,209.134 106.714,209.134" id="Path" fill="#D69516"></path>
            <path d="M89.067,83.5307892 C64.326,83.582 44.295,103.251 44.1342685,128.774 C43.981,153.694 64.544,173.927 89.42,173.877184 C114.699,173.824 134.798,153.559 134.52,127.914 C134.271,104.919 116.179,83.476 89.067,83.5307892" id="Path" fill="#FFFFFF"></path>
            <path d="M106.586,107.891 C101.816,108.03 98.381,111.613 98.497,116.33 C98.612,120.813 102.381,124.42 106.826,124.301 C111.333,124.178 115.007,120.345 114.903,115.871 C114.802,111.393 111.018,107.763 106.586,107.891 M92.405,116.22 C92.193,108.548 98.445,102.08 106.343,101.805 C114.132,101.534 120.837,107.953 121.005,115.84 C121.172,123.611 114.72,130.22 106.793,130.4 C99.146,130.577 92.627,124.15 92.405,116.22" id="Shape" fill="#D69516"></path>
            <path d="M68.426,114.375 C71,114.375 73.174,112.261 73.170011,109.762 C73.167,107.246 70.987,105.022 68.52,105.022 C65.902,105.022 63.811,107.16 63.8268186,109.822 C63.84,112.309 65.928,114.375 68.427,114.375 M57.712,109.683 C57.714,103.89 62.57,99.008 68.42,98.92 C74.25,98.832 79.216,103.87 79.2401185,109.892 C79.26,115.531 74.228,120.49 68.504,120.472098 C62.585,120.455 57.712,115.584 57.712,109.682" id="Shape" fill="#D69516"></path>
            <path d="M106.295,151.38 C106.295,159.94 99.355,166.879 90.795,166.879 C82.233,166.879 75.293,159.939 75.293,151.379 C75.293,142.819 82.233,135.879 90.795,135.879 C99.355,135.879 106.295,142.819 106.295,151.379" id="Path" fill="#D69516"></path>
            <path d="M78.533,148.75 C79.073,145.605 80.613,142.948 83.527,141.239 C84.983,140.383 86.5,140.785 87.457,142.109 C88.346,143.34 88.264,144.937 87.031,145.986 C85.666,147.149 84.767,148.48 84.304,150.229 C83.922,151.68 82.321,152.414 80.857,152.086 C79.435,151.764 78.427,150.383 78.533,148.749" id="Path" fill="#FFFFFF"></path>
            <path d="M161.268,60.148 C161.268,74.638 149.522,86.386 135.03,86.386 C120.54,86.386 108.793,74.638 108.793,60.148 C108.793,45.658 120.54,33.909 135.03,33.909 C149.522,33.909 161.268,45.659 161.268,60.148 Z" id="Path" stroke="#FFFFFF" stroke-width="2.566" fill="#D69516" stroke-linecap="round" stroke-linejoin="round"></path>
            <path d="M142.719,42.83 C142.719,48.564 138.07,53.21 132.339,53.21 C126.606,53.21 121.958,48.564 121.958,42.83 C121.958,37.098 126.606,32.451 132.339,32.451 C138.07,32.451 142.719,37.098 142.719,42.831" id="Path" fill="#FFFFFF"></path>
            <path d="M128.004,79.826 C130.577,79.826 132.751,77.711 132.747011,75.213 C132.745,72.696 130.564,70.472 128.097,70.472 C125.479,70.472 123.388,72.608 123.403819,75.272 C123.417,77.759 125.505,79.826 128.004,79.826 M117.289,75.133 C117.291,69.34 122.147,64.456 127.997,64.37 C133.827,64.282 138.793,69.318 138.817118,75.34 C138.837,80.981 133.805,85.94 128.081,85.923087 C122.162,85.905 117.289,81.034 117.289,75.133" id="Shape" fill="#FFFFFF"></path>
            <path d="M153.902,62.369 C153.902,65.4573763 151.398376,67.961 148.31,67.961 C145.221624,67.961 142.718,65.4573763 142.718,62.369 C142.718,59.2806237 145.221624,56.777 148.31,56.777 C151.398376,56.777 153.902,59.2806237 153.902,62.369" id="Path" fill="#FFFFFF"></path>
        </g>
    </g>
</svg>