<?xml version="1.0" encoding="UTF-8"?>
<svg width="117px" height="43px" viewBox="0 0 117 43" version="1.1" xmlns="http://www.w3.org/2000/svg" xmlns:xlink="http://www.w3.org/1999/xlink">
    <title>viality_logo with sub text</title>
    <defs>
        <polygon id="path-1" points="0 0 20.1818151 0 20.1818151 20.368569 0 20.368569"></polygon>
    </defs>
    <g id="Page-1" stroke="none" stroke-width="1" fill="none" fill-rule="evenodd">
        <g id="viality_logo-with-sub-text" transform="translate(0, 0)">
            <g id="Fill-333-Clipped" transform="translate(0, 12.611)">
                <mask id="mask-2" fill="white">
                    <use xlink:href="#path-1"></use>
                </mask>
                <g id="path-1"></g>
                <path d="M20.1818151,0 L20.1818151,0.331841 C18.2320811,0.580727 17.5891141,1.451973 16.6764403,3.837212 L10.3501988,20.368569 L9.97682196,20.368569 L3.15270856,3.007607 C2.55116396,1.514107 1.97044256,0.560013 -9.37499976e-07,0.331841 L-9.37499976e-07,0 L8.85669326,0 L8.85669326,0.331841 L7.61217926,0.477043 C6.67879396,0.580727 6.05653716,0.850418 6.05653716,1.763092 C6.05653716,2.13636 6.16032076,2.634239 6.40920116,3.277199 L11.3042965,16.676445 L16.1786776,3.609039 C16.427558,2.986794 16.5727683,2.447502 16.5727683,1.991264 C16.5727683,1.182266 16.0541831,0.663796 14.5607892,0.497757 L13.3162757,0.331841 L13.3162757,0 L20.1818151,0 Z" id="Fill-333" fill="#55575A" fill-rule="nonzero" mask="url(#mask-2)"></path>
            </g>
            <path d="M21.9448725,32.6270606 L23.0857225,32.5233926 C24.5998325,32.3574526 25.2843325,31.8596046 25.2843325,29.9098436 L25.2843325,17.2365426 C25.2843325,15.6601946 24.6827825,15.1624306 23.5005125,14.8513036 L22.3389725,14.5401696 L22.3389725,14.2497566 L28.2090025,12.1962366 L28.2090025,29.9098436 C28.2090025,31.6936496 28.7481625,32.3366396 30.4075925,32.5233926 L31.5483225,32.6270606 L31.5483225,32.9797216 L21.9448725,32.9797216 L21.9448725,32.6270606 Z" id="Fill-336" fill="#55575A" fill-rule="nonzero"></path>
            <path d="M41.9194,12.6111536 C36.79611,12.6111536 39.69995,19.6219036 36.40204,19.6219036 C35.4064,19.6219036 34.88779,18.9789356 34.88779,17.8173836 C34.88779,15.3075266 37.02429,12.1962366 42.50012,12.1962366 C48.14194,12.1962366 48.53601,15.5565196 48.53601,17.7758416 L48.53601,29.7023936 C48.53601,31.2166146 49.15829,32.0670476 50.27829,32.0670476 C50.83829,32.0670476 51.48129,31.8388826 52.06213,31.3411266 L52.24875,31.5070346 C51.25323,32.8552096 50.0087,33.4567726 48.78491,33.4567726 C47.02182,33.4567726 45.77731,32.3159186 45.69437,30.2625126 C44.11798,32.0877536 42.00235,33.4567726 39.49246,33.4567726 C36.56793,33.4567726 34.65967,31.6107036 34.65967,28.8105476 C34.65967,24.7658776 38.49695,23.2517706 41.38007,22.2975626 L45.63211,20.8664176 L45.63211,17.9417656 C45.63211,15.6601946 45.27954,12.6111536 41.9194,12.6111536 M41.25555,31.9218456 C43.06012,31.9218456 44.76099,30.8639536 45.63211,29.8061756 L45.63211,21.3019336 L43.08081,22.2353136 C41.04813,22.9613576 37.91617,24.1436166 37.91617,28.1260456 C37.91617,30.3661966 39.05698,31.9218456 41.25555,31.9218456" id="Fill-338" fill="#55575A" fill-rule="nonzero"></path>
            <path d="M57.2269775,31.009171 C57.2269775,31.79735 57.4551575,32.419609 58.2019275,32.419609 C59.8405075,32.419609 61.3961675,29.578028 62.2880175,26.757048 L62.7443775,26.881544 C61.7694275,29.702412 60.1930475,33.456665 56.9573875,33.456665 C55.1735775,33.456665 54.4475575,32.253685 54.4475575,30.428453 C54.4475575,29.785374 54.5512875,29.038733 54.7172475,28.271265 L59.6952975,5.0403037 C59.7575575,4.7084622 59.7989675,4.4387589 59.7989675,4.189878 C59.7989675,3.2773161 59.3219175,2.9246519 58.3885375,2.6550589 L57.3099575,2.3646429 L57.3721775,2.0535145 L63.6569675,0 L57.5381075,28.851986 C57.3929075,29.536491 57.2269775,30.345383 57.2269775,31.009171" id="Fill-340" fill="#55575A" fill-rule="nonzero"></path>
            <path d="M65.3578025,32.6270606 L66.5247925,32.5233926 C68.0735625,32.3574526 68.7736325,31.8596046 68.7736325,29.9098436 L68.7736325,17.2365426 C68.7736325,15.6601946 68.1583925,15.1624306 66.9491025,14.8513036 L65.7609325,14.5401696 L65.7609325,14.2497566 L71.7653325,12.1962366 L71.7653325,29.9098436 C71.7653325,31.6936496 72.3169025,32.3366396 74.0143525,32.5233926 L75.1812225,32.6270606 L75.1812225,32.9797216 L65.3578025,32.9797216 L65.3578025,32.6270606 Z" id="Fill-342" fill="#55575A" fill-rule="nonzero"></path>
            <path d="M83.0091025,13.0259806 L83.0091025,28.6031176 C83.0091025,31.3825596 84.3572425,32.3989096 86.1204325,32.3989096 C87.1367225,32.3989096 88.2567225,32.0048206 89.2939525,31.2996056 L89.4598525,31.5691896 C88.0078825,32.7929986 86.2655725,33.4567866 84.6062725,33.4567866 C82.0757525,33.4567866 80.0844825,31.9218586 80.0844825,28.4994496 L80.0844825,13.0259806 L77.1391725,13.0259806 L77.1391725,12.6111786 L80.0844825,12.6111786 L80.0844825,6.2641176 L83.0091025,5.3100196 L83.0091025,12.6111786 L88.5265025,12.6111786 L88.5265025,13.0259806 L83.0091025,13.0259806 Z" id="Fill-344" fill="#55575A" fill-rule="nonzero"></path>
            <path d="M111.093693,12.6110466 L111.093693,12.9428876 C108.998723,13.2125866 108.355783,14.4571006 107.629823,16.4482586 L101.096013,34.7634286 C100.058963,37.6672526 98.3166525,42.1475536 93.7119825,42.1475536 C91.8452225,42.1475536 89.9991525,41.3800976 89.9991525,39.7828986 C89.9991525,38.7872626 90.6837225,38.0406196 91.7000125,38.0406196 C93.6704725,38.0406196 93.8986225,40.7162946 95.8899525,40.7162946 C97.8188525,40.7162946 99.5405325,38.0820626 100.701973,34.2863776 L93.5045825,15.6186536 C92.9652725,14.2703636 92.4052725,13.1917736 90.3933125,12.9428876 L90.3933125,12.6110466 L99.2085025,12.6110466 L99.2085025,12.9428876 L98.0263125,13.0673836 C97.0722125,13.1710596 96.4913325,13.5028926 96.4913325,14.4362806 C96.4913325,14.8096546 96.5950925,15.2867056 96.8024925,15.8882456 L102.070923,30.6772166 L107.132023,16.2200856 C107.339423,15.6186536 107.484683,15.1000756 107.484683,14.6437386 C107.484683,13.7933126 106.966073,13.2540136 105.410463,13.0880896 L104.082953,12.9428876 L104.082953,12.6110466 L111.093693,12.6110466 Z" id="Fill-346" fill="#55575A" fill-rule="nonzero"></path>
            <path d="M28.5717725,4.63991185 C28.5717725,5.94324085 27.5152325,6.99990285 26.2117725,6.99990285 C24.9084625,6.99990285 23.8517925,5.94324085 23.8517925,4.63991185 C23.8517925,3.33658385 24.9084625,2.27992085 26.2117725,2.27992085 C27.5152325,2.27992085 28.5717725,3.33658385 28.5717725,4.63991185" id="Fill-348" fill="#F58320" fill-rule="nonzero"></path>
            <path d="M72.2311275,4.63991185 C72.2311275,5.94324085 71.1746075,6.99990285 69.8711375,6.99990285 C68.5677975,6.99990285 67.5112175,5.94324085 67.5112175,4.63991185 C67.5112175,3.33658385 68.5677975,2.27992085 69.8711375,2.27992085 C71.1746075,2.27992085 72.2311275,3.33658385 72.2311275,4.63991185" id="Fill-350" fill="#F58320" fill-rule="nonzero"></path>
            <polygon id="Fill-352" fill="#55575A" fill-rule="nonzero" points="114.459282 12.6583246 114.459282 12.9438626 113.689512 12.9438626 113.689512 15.0550916 113.376942 15.0550916 113.376942 12.9438626 112.607232 12.9438626 112.607232 12.6583246"></polygon>
            <path d="M114.736087,12.6583566 L115.179447,12.6583566 L115.836177,14.6847236 L116.488277,12.6583566 L116.928707,12.6583566 L116.928707,15.0551156 L116.633177,15.0551156 L116.633177,13.6405796 C116.633177,13.5916296 116.634278,13.5105446 116.636348,13.3974616 C116.638307,13.2842646 116.639527,13.1630946 116.639527,13.0336076 L115.987308,15.0551156 L115.680417,15.0551156 L115.022097,13.0336076 L115.022097,13.1070406 C115.022097,13.1657496 115.023677,13.2552416 115.026737,13.3754276 C115.029908,13.4955906 115.031497,13.5839846 115.031497,13.6405796 L115.031497,15.0551156 L114.736087,15.0551156 L114.736087,12.6583566 Z" id="Fill-354" fill="#55575A" fill-rule="nonzero"></path>
            <g id="Enhanced-Viability-F" transform="translate(10, 37.33)" fill="#55575A" fill-rule="nonzero">
                <polygon id="Path" points="0 0.06 0 3.67 2.305 3.67 2.305 3.23 0.5 3.23 0.5 2.03 2.18 2.03 2.18 1.61 0.5 1.61 0.5 0.485 2.265 0.485 2.265 0.06"></polygon>
                <path d="M5.315,1.96 C5.315,1.35 4.855,1.11 4.405,1.11 C4.03,1.11 3.755,1.26 3.6,1.565 C3.6,1.5 3.6,1.365 3.595,1.16 L3.125,1.16 C3.13,1.305 3.13,1.405 3.13,1.45 L3.13,3.67 L3.6,3.67 L3.6,2.21 C3.6,1.775 3.875,1.475 4.255,1.475 C4.485,1.475 4.835,1.59 4.835,2.025 L4.835,3.67 L5.315,3.67 L5.315,1.96 Z" id="Path"></path>
                <path d="M6.17,0.065 L6.17,3.67 L6.645,3.67 L6.645,2.265 C6.645,1.925 6.7,1.82 6.805,1.695 C6.925,1.55 7.125,1.475 7.315,1.475 C7.67,1.475 7.855,1.67 7.855,2.15 L7.855,3.67 L8.335,3.67 L8.335,2.015 C8.335,1.68 8.275,1.495 8.135,1.355 C7.985,1.205 7.735,1.115 7.46,1.115 C7.105,1.115 6.805,1.265 6.645,1.53 L6.645,0.065 L6.17,0.065 Z" id="Path"></path>
                <path d="M11.16,1.82 C11.16,1.51 11.035,1.345 10.845,1.235 C10.67,1.135 10.415,1.085 10.185,1.085 C9.88,1.085 9.5,1.15 9.315,1.435 C9.25,1.535 9.21,1.665 9.2,1.83 L9.67,1.83 C9.68,1.555 9.865,1.405 10.155,1.405 C10.33,1.405 10.535,1.44 10.64,1.615 C10.69,1.695 10.7,1.805 10.7,1.955 L10.7,2.125 C10.54,2.11 10.385,2.11 10.32,2.11 C9.855,2.11 9.525,2.22 9.365,2.36 C9.115,2.575 9.05,2.795 9.05,3.01 C9.05,3.45 9.395,3.75 9.93,3.75 C10.32,3.75 10.555,3.58 10.71,3.295 C10.71,3.455 10.72,3.555 10.755,3.67 L11.18,3.67 C11.155,3.475 11.14,3.18 11.14,3.045 L11.16,1.82 Z M10.045,3.38 C9.71,3.38 9.525,3.195 9.525,2.94 C9.525,2.61 9.835,2.435 10.43,2.435 C10.49,2.435 10.65,2.44 10.7,2.45 L10.69,2.71 C10.675,3.12 10.44,3.38 10.045,3.38 Z" id="Shape"></path>
                <path d="M14.205,1.96 C14.205,1.35 13.745,1.11 13.295,1.11 C12.92,1.11 12.645,1.26 12.49,1.565 C12.49,1.5 12.49,1.365 12.485,1.16 L12.015,1.16 C12.02,1.305 12.02,1.405 12.02,1.45 L12.02,3.67 L12.49,3.67 L12.49,2.21 C12.49,1.775 12.765,1.475 13.145,1.475 C13.375,1.475 13.725,1.59 13.725,2.025 L13.725,3.67 L14.205,3.67 L14.205,1.96 Z" id="Path"></path>
                <path d="M16.965,1.965 C16.945,1.43 16.555,1.095 15.98,1.095 C15.405,1.095 14.845,1.49 14.845,2.45 C14.845,3.305 15.28,3.735 15.975,3.735 C16.53,3.735 16.945,3.385 16.985,2.835 L16.51,2.835 C16.49,3.18 16.28,3.38 15.965,3.38 C15.55,3.38 15.34,3.055 15.34,2.39 C15.34,1.735 15.585,1.44 15.99,1.44 C16.285,1.44 16.47,1.62 16.49,1.965 L16.965,1.965 Z" id="Path"></path>
                <path d="M19.65,2.3 C19.65,1.505 19.28,1.095 18.565,1.095 C17.89,1.095 17.38,1.48 17.38,2.44 C17.38,3.28 17.775,3.745 18.545,3.745 C19.17,3.745 19.59,3.405 19.625,2.885 L19.155,2.885 C19.12,3.22 18.9,3.405 18.565,3.405 C18.105,3.405 17.845,3.08 17.845,2.54 L17.845,2.5 L19.65,2.5 L19.65,2.3 Z M17.865,2.17 C17.865,1.715 18.155,1.43 18.55,1.43 C18.965,1.43 19.17,1.69 19.17,2.135 L19.17,2.17 L17.865,2.17 Z" id="Shape"></path>
                <path d="M22.08,0.065 L22.08,1.5 C21.92,1.2 21.645,1.075 21.3,1.075 C20.63,1.075 20.165,1.575 20.165,2.445 C20.165,3.34 20.69,3.72 21.25,3.72 C21.56,3.72 21.935,3.59 22.09,3.27 C22.095,3.465 22.1,3.6 22.1,3.67 L22.57,3.67 C22.555,3.465 22.55,3.335 22.55,3.28 L22.55,0.065 L22.08,0.065 Z M21.355,3.39 C20.9,3.39 20.665,3.065 20.665,2.43 C20.665,1.77 20.915,1.425 21.35,1.425 C21.79,1.425 22.095,1.74 22.095,2.375 C22.095,3.05 21.835,3.39 21.355,3.39 Z" id="Shape"></path>
                <polygon id="Path" points="24.165 0.06 25.45 3.67 26 3.67 27.33 0.06 26.825 0.06 25.745 3.145 24.72 0.06"></polygon>
                <path d="M27.7,0.07 L27.7,0.585 L28.265,0.585 L28.265,0.07 L27.7,0.07 Z M27.75,1.16 L27.75,3.67 L28.22,3.67 L28.22,1.16 L27.75,1.16 Z" id="Shape"></path>
                <path d="M31.07,1.82 C31.07,1.51 30.945,1.345 30.755,1.235 C30.58,1.135 30.325,1.085 30.095,1.085 C29.79,1.085 29.41,1.15 29.225,1.435 C29.16,1.535 29.12,1.665 29.11,1.83 L29.58,1.83 C29.59,1.555 29.775,1.405 30.065,1.405 C30.24,1.405 30.445,1.44 30.55,1.615 C30.6,1.695 30.61,1.805 30.61,1.955 L30.61,2.125 C30.45,2.11 30.295,2.11 30.23,2.11 C29.765,2.11 29.435,2.22 29.275,2.36 C29.025,2.575 28.96,2.795 28.96,3.01 C28.96,3.45 29.305,3.75 29.84,3.75 C30.23,3.75 30.465,3.58 30.62,3.295 C30.62,3.455 30.63,3.555 30.665,3.67 L31.09,3.67 C31.065,3.475 31.05,3.18 31.05,3.045 L31.07,1.82 Z M29.955,3.38 C29.62,3.38 29.435,3.195 29.435,2.94 C29.435,2.61 29.745,2.435 30.34,2.435 C30.4,2.435 30.56,2.44 30.61,2.45 L30.6,2.71 C30.585,3.12 30.35,3.38 29.955,3.38 Z" id="Shape"></path>
                <path d="M31.915,0.06 L31.915,3.22 C31.915,3.295 31.91,3.445 31.905,3.67 L32.36,3.67 C32.36,3.605 32.365,3.48 32.37,3.285 C32.545,3.57 32.84,3.705 33.175,3.705 C33.485,3.705 33.76,3.6 33.97,3.38 C34.185,3.15 34.295,2.82 34.295,2.36 C34.295,1.56 33.9,1.095 33.205,1.095 C32.83,1.095 32.55,1.225 32.385,1.525 L32.385,0.06 L31.915,0.06 Z M33.075,3.365 C32.615,3.365 32.375,3.02 32.375,2.415 C32.375,1.77 32.635,1.415 33.09,1.415 C33.565,1.415 33.8,1.8 33.8,2.39 C33.8,2.975 33.545,3.365 33.075,3.365 Z" id="Shape"></path>
                <path d="M34.925,0.07 L34.925,0.585 L35.49,0.585 L35.49,0.07 L34.925,0.07 Z M34.975,1.16 L34.975,3.67 L35.445,3.67 L35.445,1.16 L34.975,1.16 Z" id="Shape"></path>
                <polygon id="Path" points="36.37 0.065 36.37 3.67 36.84 3.67 36.84 0.065"></polygon>
                <path d="M37.705,0.07 L37.705,0.585 L38.27,0.585 L38.27,0.07 L37.705,0.07 Z M37.755,1.16 L37.755,3.67 L38.225,3.67 L38.225,1.16 L37.755,1.16 Z" id="Shape"></path>
                <path d="M39.665,0.475 L39.2,0.625 L39.2,1.15 L38.755,1.15 L38.755,1.495 L39.2,1.495 L39.2,3.185 C39.2,3.53 39.355,3.705 39.84,3.705 C40,3.705 40.14,3.69 40.225,3.675 L40.225,3.31 C40.165,3.325 40.085,3.335 40,3.335 C39.785,3.335 39.665,3.255 39.665,3.03 L39.665,1.495 L40.225,1.495 L40.225,1.15 L39.665,1.15 L39.665,0.475 Z" id="Path"></path>
                <polygon id="Path" points="40.425 1.16 41.47 3.66 41.09 4.62 41.575 4.62 41.925 3.705 43.05 1.16 42.54 1.16 41.74 3.14 40.955 1.16"></polygon>
                <polygon id="Path" points="45.01 0.06 45.01 3.67 45.52 3.67 45.52 2.03 47.065 2.03 47.065 1.61 45.52 1.61 45.52 0.485 47.16 0.485 47.16 0.06"></polygon>
                <path d="M49.59,1.82 C49.59,1.51 49.465,1.345 49.275,1.235 C49.1,1.135 48.845,1.085 48.615,1.085 C48.31,1.085 47.93,1.15 47.745,1.435 C47.68,1.535 47.64,1.665 47.63,1.83 L48.1,1.83 C48.11,1.555 48.295,1.405 48.585,1.405 C48.76,1.405 48.965,1.44 49.07,1.615 C49.12,1.695 49.13,1.805 49.13,1.955 L49.13,2.125 C48.97,2.11 48.815,2.11 48.75,2.11 C48.285,2.11 47.955,2.22 47.795,2.36 C47.545,2.575 47.48,2.795 47.48,3.01 C47.48,3.45 47.825,3.75 48.36,3.75 C48.75,3.75 48.985,3.58 49.14,3.295 C49.14,3.455 49.15,3.555 49.185,3.67 L49.61,3.67 C49.585,3.475 49.57,3.18 49.57,3.045 L49.59,1.82 Z M48.475,3.38 C48.14,3.38 47.955,3.195 47.955,2.94 C47.955,2.61 48.265,2.435 48.86,2.435 C48.92,2.435 49.08,2.44 49.13,2.45 L49.12,2.71 C49.105,3.12 48.87,3.38 48.475,3.38 Z" id="Shape"></path>
                <path d="M50.96,0.475 L50.495,0.625 L50.495,1.15 L50.05,1.15 L50.05,1.495 L50.495,1.495 L50.495,3.185 C50.495,3.53 50.65,3.705 51.135,3.705 C51.295,3.705 51.435,3.69 51.52,3.675 L51.52,3.31 C51.46,3.325 51.38,3.335 51.295,3.335 C51.08,3.335 50.96,3.255 50.96,3.03 L50.96,1.495 L51.52,1.495 L51.52,1.15 L50.96,1.15 L50.96,0.475 Z" id="Path"></path>
                <polygon id="Path" points="52.905 0.06 52.905 0.485 54.115 0.485 54.115 3.67 54.61 3.67 54.61 0.485 55.82 0.485 55.82 0.06"></polygon>
                <path d="M57.095,1.135 C56.695,1.135 56.39,1.305 56.305,1.645 C56.305,1.56 56.3,1.4 56.295,1.16 L55.82,1.16 C55.835,1.335 55.845,1.59 55.845,1.635 L55.845,3.67 L56.32,3.67 L56.32,2.315 C56.32,1.83 56.515,1.575 57.02,1.575 C57.115,1.575 57.175,1.58 57.23,1.6 L57.23,1.14 L57.095,1.135 Z" id="Path"></path>
                <path d="M59.7,1.82 C59.7,1.51 59.575,1.345 59.385,1.235 C59.21,1.135 58.955,1.085 58.725,1.085 C58.42,1.085 58.04,1.15 57.855,1.435 C57.79,1.535 57.75,1.665 57.74,1.83 L58.21,1.83 C58.22,1.555 58.405,1.405 58.695,1.405 C58.87,1.405 59.075,1.44 59.18,1.615 C59.23,1.695 59.24,1.805 59.24,1.955 L59.24,2.125 C59.08,2.11 58.925,2.11 58.86,2.11 C58.395,2.11 58.065,2.22 57.905,2.36 C57.655,2.575 57.59,2.795 57.59,3.01 C57.59,3.45 57.935,3.75 58.47,3.75 C58.86,3.75 59.095,3.58 59.25,3.295 C59.25,3.455 59.26,3.555 59.295,3.67 L59.72,3.67 C59.695,3.475 59.68,3.18 59.68,3.045 L59.7,1.82 Z M58.585,3.38 C58.25,3.38 58.065,3.195 58.065,2.94 C58.065,2.61 58.375,2.435 58.97,2.435 C59.03,2.435 59.19,2.44 59.24,2.45 L59.23,2.71 C59.215,3.12 58.98,3.38 58.585,3.38 Z" id="Shape"></path>
                <path d="M62.745,1.96 C62.745,1.35 62.285,1.11 61.835,1.11 C61.46,1.11 61.185,1.26 61.03,1.565 C61.03,1.5 61.03,1.365 61.025,1.16 L60.555,1.16 C60.56,1.305 60.56,1.405 60.56,1.45 L60.56,3.67 L61.03,3.67 L61.03,2.21 C61.03,1.775 61.305,1.475 61.685,1.475 C61.915,1.475 62.265,1.59 62.265,2.025 L62.265,3.67 L62.745,3.67 L62.745,1.96 Z" id="Path"></path>
                <path d="M65.375,1.785 C65.375,1.475 65.21,1.3 64.965,1.2 C64.805,1.135 64.61,1.1 64.405,1.1 C63.82,1.1 63.425,1.41 63.425,1.86 C63.425,2.335 63.775,2.48 64.39,2.61 C64.865,2.71 64.94,2.79 64.94,2.985 C64.94,3.07 64.915,3.38 64.425,3.38 C64.065,3.38 63.87,3.21 63.87,2.925 L63.375,2.925 C63.375,3.46 63.74,3.74 64.37,3.74 C65.32,3.74 65.44,3.18 65.44,2.935 C65.44,2.57 65.225,2.365 64.785,2.255 L64.205,2.11 C64.005,2.06 63.9,1.955 63.9,1.805 C63.9,1.57 64.09,1.445 64.41,1.445 C64.735,1.445 64.895,1.58 64.895,1.825 L64.895,1.855 L65.375,1.855 L65.375,1.785 Z" id="Path"></path>
                <path d="M67.355,0.035 C67.235,0.015 67.105,0 66.97,0 C66.815,0 66.615,0.025 66.46,0.145 C66.33,0.245 66.235,0.385 66.235,0.755 L66.235,1.16 L65.74,1.16 L65.74,1.5 L66.235,1.5 L66.235,3.67 L66.7,3.67 L66.7,1.5 L67.285,1.5 L67.285,1.16 L66.7,1.16 L66.7,0.725 C66.7,0.465 66.83,0.4 67.095,0.4 C67.17,0.4 67.27,0.405 67.355,0.41 L67.355,0.035 Z" id="Path"></path>
                <path d="M69.855,2.3 C69.855,1.505 69.485,1.095 68.77,1.095 C68.095,1.095 67.585,1.48 67.585,2.44 C67.585,3.28 67.98,3.745 68.75,3.745 C69.375,3.745 69.795,3.405 69.83,2.885 L69.36,2.885 C69.325,3.22 69.105,3.405 68.77,3.405 C68.31,3.405 68.05,3.08 68.05,2.54 L68.05,2.5 L69.855,2.5 L69.855,2.3 Z M68.07,2.17 C68.07,1.715 68.36,1.43 68.755,1.43 C69.17,1.43 69.375,1.69 69.375,2.135 L69.375,2.17 L68.07,2.17 Z" id="Shape"></path>
                <path d="M71.82,1.135 C71.42,1.135 71.115,1.305 71.03,1.645 C71.03,1.56 71.025,1.4 71.02,1.16 L70.545,1.16 C70.56,1.335 70.57,1.59 70.57,1.635 L70.57,3.67 L71.045,3.67 L71.045,2.315 C71.045,1.83 71.24,1.575 71.745,1.575 C71.84,1.575 71.9,1.58 71.955,1.6 L71.955,1.14 L71.82,1.135 Z" id="Path"></path>
            </g>
        </g>
    </g>
</svg>