<?xml version="1.0" encoding="UTF-8"?>
<svg xmlns="http://www.w3.org/2000/svg" xmlns:xlink="http://www.w3.org/1999/xlink" width="239px" height="43px" viewBox="0 0 239 43" version="1.1">
    <title>SimpliDerm Hydrated Logo Vector Color</title>
    <g id="Page-1" stroke="none" stroke-width="1" fill="none" fill-rule="evenodd">
        <g id="SimpliDerm-Hydrated-Logo-Vector-Color" transform="translate(0, 0)" fill-rule="nonzero">
            <path d="M20.2,6.44 C20.04,6.71 19.88,6.9 19.71,7.03 C19.54,7.16 19.32,7.22 19.05,7.22 C18.77,7.22 18.45,7.09 18.09,6.83 C17.73,6.57 17.28,6.28 16.74,5.96 C16.2,5.64 15.55,5.35 14.8,5.09 C14.05,4.83 13.15,4.7 12.1,4.7 C11.11,4.7 10.25,4.83 9.5,5.09 C8.76,5.35 8.13,5.7 7.63,6.15 C7.13,6.6 6.75,7.12 6.49,7.73 C6.23,8.34 6.1,8.99 6.1,9.69 C6.1,10.6 6.33,11.35 6.79,11.95 C7.25,12.55 7.86,13.05 8.61,13.48 C9.36,13.9 10.22,14.27 11.17,14.58 C12.12,14.89 13.11,15.22 14.11,15.56 C15.11,15.9 16.09,16.29 17.05,16.72 C18.01,17.16 18.86,17.71 19.61,18.38 C20.36,19.05 20.97,19.86 21.43,20.83 C21.89,21.79 22.12,22.97 22.12,24.37 C22.12,25.86 21.87,27.25 21.36,28.55 C20.85,29.85 20.11,30.99 19.14,31.96 C18.17,32.93 16.97,33.7 15.55,34.25 C14.13,34.8 12.52,35.08 10.72,35.08 C9.64,35.08 8.59,34.97 7.57,34.76 C6.55,34.55 5.59,34.25 4.68,33.87 C3.77,33.49 2.92,33.02 2.13,32.48 C1.34,31.94 0.63,31.33 -5.68434189e-14,30.66 L1.43,28.26 C1.57,28.07 1.74,27.92 1.94,27.79 C2.14,27.66 2.36,27.6 2.61,27.6 C2.94,27.6 3.32,27.77 3.75,28.12 C4.18,28.47 4.71,28.85 5.35,29.26 C5.98,29.68 6.74,30.06 7.63,30.4 C8.52,30.75 9.59,30.92 10.86,30.92 C11.89,30.92 12.82,30.78 13.63,30.51 C14.44,30.24 15.13,29.84 15.69,29.33 C16.25,28.82 16.67,28.21 16.97,27.48 C17.27,26.76 17.42,25.96 17.42,25.08 C17.42,24.09 17.19,23.29 16.74,22.66 C16.28,22.03 15.68,21.51 14.93,21.08 C14.18,20.66 13.32,20.3 12.37,20 C11.41,19.7 10.43,19.39 9.43,19.07 C8.43,18.75 7.45,18.38 6.49,17.95 C5.53,17.53 4.68,16.97 3.93,16.29 C3.18,15.61 2.57,14.75 2.12,13.73 C1.66,12.7 1.44,11.44 1.44,9.93 C1.44,8.72 1.68,7.56 2.15,6.43 C2.62,5.3 3.31,4.3 4.21,3.43 C5.11,2.56 6.22,1.86 7.54,1.34 C8.86,0.81 10.36,0.55 12.05,0.55 C13.95,0.55 15.69,0.85 17.28,1.45 C18.87,2.05 20.25,2.92 21.43,4.05 L20.21,6.42 L20.2,6.44 Z" id="Path" fill="#395D84"/>
            <path d="M31.91,3.44 C31.91,3.86 31.82,4.27 31.65,4.65 C31.48,5.03 31.25,5.37 30.96,5.66 C30.67,5.95 30.33,6.18 29.94,6.34 C29.55,6.5 29.14,6.59 28.72,6.59 C28.3,6.59 27.9,6.51 27.52,6.34 C27.14,6.18 26.81,5.95 26.52,5.66 C26.23,5.37 26,5.03 25.84,4.65 C25.68,4.27 25.59,3.86 25.59,3.44 C25.59,3.02 25.67,2.59 25.84,2.21 C26,1.83 26.23,1.49 26.52,1.2 C26.81,0.91 27.14,0.68 27.52,0.52 C27.9,0.36 28.3,0.27 28.72,0.27 C29.14,0.27 29.55,0.35 29.94,0.52 C30.33,0.69 30.67,0.91 30.96,1.2 C31.25,1.49 31.48,1.83 31.65,2.21 C31.82,2.59 31.91,3.01 31.91,3.44 Z M31.04,10.82 L31.04,34.71 L26.46,34.71 L26.46,10.82 L31.04,10.82 Z" id="Shape" fill="#395D84"/>
            <path d="M36.75,34.71 L36.75,10.82 L39.5,10.82 C40.14,10.82 40.54,11.13 40.7,11.74 L41.03,14.02 C41.91,12.97 42.88,12.11 43.96,11.45 C45.03,10.78 46.29,10.45 47.73,10.45 C49.31,10.45 50.6,10.89 51.59,11.75 C52.58,12.62 53.3,13.8 53.75,15.29 C54.09,14.44 54.54,13.71 55.09,13.1 C55.64,12.49 56.25,11.99 56.92,11.6 C57.59,11.21 58.31,10.92 59.07,10.73 C59.83,10.54 60.6,10.45 61.39,10.45 C62.66,10.45 63.79,10.65 64.79,11.05 C65.79,11.45 66.63,12.03 67.32,12.8 C68.01,13.57 68.53,14.52 68.9,15.64 C69.26,16.77 69.44,18.05 69.44,19.5 L69.44,34.71 L64.83,34.71 L64.83,19.5 C64.83,17.71 64.44,16.37 63.67,15.46 C62.89,14.55 61.76,14.1 60.27,14.1 C59.61,14.1 58.98,14.21 58.39,14.44 C57.79,14.67 57.27,15.01 56.83,15.46 C56.38,15.92 56.03,16.48 55.77,17.15 C55.51,17.82 55.38,18.61 55.38,19.5 L55.38,34.71 L50.77,34.71 L50.77,19.5 C50.77,17.65 50.4,16.29 49.67,15.41 C48.93,14.53 47.85,14.09 46.43,14.09 C45.44,14.09 44.53,14.35 43.68,14.87 C42.83,15.39 42.06,16.09 41.35,16.99 L41.35,34.72 L36.77,34.72 L36.75,34.71 Z" id="Path" fill="#395D84"/>
            <path d="M79.02,14.39 C79.52,13.79 80.06,13.25 80.63,12.76 C81.2,12.27 81.82,11.84 82.48,11.49 C83.14,11.14 83.84,10.86 84.58,10.67 C85.32,10.47 86.12,10.38 86.97,10.38 C88.33,10.38 89.57,10.65 90.67,11.18 C91.77,11.71 92.72,12.5 93.5,13.53 C94.28,14.56 94.89,15.84 95.32,17.36 C95.75,18.88 95.97,20.63 95.97,22.6 C95.97,24.37 95.73,26.01 95.25,27.53 C94.77,29.04 94.09,30.36 93.2,31.47 C92.31,32.58 91.23,33.46 89.96,34.09 C88.68,34.72 87.24,35.04 85.65,35.04 C84.22,35.04 83,34.81 81.98,34.33 C80.96,33.86 80.05,33.2 79.25,32.35 L79.25,42.72 L74.67,42.72 L74.67,10.82 L77.42,10.82 C78.06,10.82 78.46,11.13 78.62,11.74 L79.02,14.4 L79.02,14.39 Z M79.26,28.83 C80.01,29.82 80.82,30.51 81.69,30.9 C82.56,31.29 83.54,31.49 84.62,31.49 C86.72,31.49 88.35,30.73 89.5,29.22 C90.65,27.71 91.23,25.5 91.23,22.6 C91.23,21.08 91.1,19.78 90.84,18.71 C90.58,17.64 90.21,16.76 89.71,16.08 C89.22,15.4 88.61,14.9 87.89,14.58 C87.17,14.26 86.35,14.1 85.44,14.1 C84.11,14.1 82.95,14.4 81.97,14.99 C80.99,15.59 80.08,16.43 79.25,17.53 L79.25,28.84 L79.26,28.83 Z" id="Shape" fill="#395D84"/>
            <polygon id="Path" fill="#395D84" points="104.89 0 104.89 34.7 100.28 34.7 100.28 0"/>
            <path d="M116.15,3.44 C116.15,3.86 116.06,4.27 115.89,4.65 C115.72,5.03 115.49,5.37 115.2,5.66 C114.91,5.95 114.57,6.18 114.18,6.34 C113.79,6.5 113.38,6.59 112.96,6.59 C112.54,6.59 112.14,6.51 111.76,6.34 C111.38,6.18 111.05,5.95 110.76,5.66 C110.47,5.37 110.24,5.03 110.08,4.65 C109.92,4.27 109.83,3.86 109.83,3.44 C109.83,3.02 109.91,2.59 110.08,2.21 C110.24,1.83 110.47,1.49 110.76,1.2 C111.05,0.91 111.38,0.68 111.76,0.52 C112.14,0.36 112.54,0.27 112.96,0.27 C113.38,0.27 113.79,0.35 114.18,0.52 C114.57,0.69 114.91,0.91 115.2,1.2 C115.49,1.49 115.72,1.83 115.89,2.21 C116.06,2.59 116.15,3.01 116.15,3.44 Z M115.28,10.82 L115.28,34.71 L110.7,34.71 L110.7,10.82 L115.28,10.82 Z" id="Shape" fill="#395D84"/>
            <path d="M151.75,17.71 C151.75,20.2 151.33,22.49 150.5,24.58 C149.67,26.66 148.5,28.46 147,29.96 C145.5,31.46 143.69,32.63 141.57,33.46 C139.45,34.29 137.1,34.71 134.52,34.71 L121.56,34.71 L121.56,0.71 L134.52,0.71 C137.11,0.71 139.46,1.13 141.57,1.97 C143.68,2.81 145.5,3.98 147,5.47 C148.5,6.97 149.67,8.76 150.5,10.84 C151.33,12.92 151.75,15.21 151.75,17.71 Z M145.26,17.71 C145.26,15.84 145.01,14.17 144.52,12.69 C144.03,11.21 143.31,9.96 142.38,8.93 C141.45,7.9 140.32,7.12 138.99,6.57 C137.67,6.02 136.17,5.75 134.51,5.75 L127.9,5.75 L127.9,29.68 L134.51,29.68 C136.17,29.68 137.66,29.41 138.99,28.86 C140.32,28.31 141.44,27.52 142.38,26.5 C143.31,25.47 144.03,24.22 144.52,22.74 C145.01,21.26 145.26,19.59 145.26,17.72 L145.26,17.71 Z" id="Shape" fill="#1B2E5A"/>
            <path d="M159.62,23.37 C159.71,24.61 159.93,25.68 160.28,26.58 C160.63,27.48 161.08,28.23 161.64,28.81 C162.2,29.4 162.87,29.84 163.65,30.13 C164.43,30.42 165.28,30.56 166.22,30.56 C167.16,30.56 167.97,30.45 168.65,30.23 C169.33,30.01 169.93,29.77 170.44,29.5 C170.95,29.23 171.4,28.99 171.78,28.77 C172.16,28.55 172.54,28.44 172.9,28.44 C173.39,28.44 173.75,28.62 173.98,28.98 L175.65,31.1 C175.01,31.85 174.29,32.48 173.49,32.99 C172.69,33.5 171.86,33.91 170.99,34.21 C170.12,34.52 169.24,34.73 168.33,34.86 C167.42,34.99 166.55,35.05 165.71,35.05 C164.03,35.05 162.47,34.77 161.03,34.22 C159.59,33.66 158.33,32.84 157.27,31.75 C156.2,30.66 155.37,29.31 154.75,27.71 C154.14,26.1 153.83,24.24 153.83,22.13 C153.83,20.48 154.1,18.94 154.63,17.49 C155.16,16.04 155.93,14.78 156.92,13.7 C157.92,12.63 159.13,11.78 160.56,11.15 C161.99,10.52 163.61,10.21 165.41,10.21 C166.93,10.21 168.33,10.45 169.62,10.94 C170.91,11.43 172.01,12.14 172.94,13.07 C173.86,14 174.59,15.15 175.11,16.5 C175.63,17.86 175.9,19.4 175.9,21.14 C175.9,22.02 175.81,22.61 175.62,22.91 C175.43,23.22 175.07,23.37 174.54,23.37 L159.61,23.37 L159.62,23.37 Z M170.7,19.87 C170.7,19.12 170.59,18.41 170.38,17.74 C170.17,17.07 169.85,16.49 169.43,15.99 C169.01,15.49 168.47,15.09 167.82,14.8 C167.17,14.51 166.41,14.36 165.55,14.36 C163.87,14.36 162.55,14.84 161.59,15.79 C160.63,16.75 160.01,18.1 159.74,19.86 L170.7,19.86 L170.7,19.87 Z" id="Shape" fill="#1B2E5A"/>
            <path d="M184.8,14.77 C185.55,13.33 186.45,12.2 187.48,11.37 C188.51,10.55 189.74,10.14 191.15,10.14 C192.26,10.14 193.16,10.38 193.83,10.87 L193.45,15.22 C193.37,15.5 193.26,15.7 193.11,15.82 C192.96,15.94 192.76,16 192.51,16 C192.27,16 191.93,15.96 191.46,15.88 C191,15.8 190.55,15.76 190.11,15.76 C189.47,15.76 188.9,15.85 188.39,16.04 C187.89,16.23 187.44,16.5 187.04,16.85 C186.64,17.2 186.29,17.63 185.98,18.13 C185.67,18.63 185.39,19.2 185.12,19.85 L185.12,34.71 L179.31,34.71 L179.31,10.58 L182.72,10.58 C183.32,10.58 183.73,10.69 183.97,10.9 C184.21,11.11 184.36,11.49 184.44,12.04 L184.79,14.77 L184.8,14.77 Z" id="Path" fill="#1B2E5A"/>
            <path d="M195.92,34.71 L195.92,10.58 L199.47,10.58 C200.22,10.58 200.72,10.93 200.95,11.64 L201.33,13.43 C201.75,12.96 202.2,12.53 202.66,12.14 C203.12,11.75 203.62,11.41 204.14,11.13 C204.66,10.85 205.23,10.62 205.83,10.46 C206.43,10.3 207.1,10.21 207.82,10.21 C209.34,10.21 210.59,10.62 211.57,11.44 C212.55,12.26 213.28,13.36 213.77,14.72 C214.15,13.92 214.62,13.23 215.18,12.66 C215.74,12.09 216.36,11.62 217.04,11.26 C217.71,10.9 218.43,10.63 219.19,10.46 C219.95,10.29 220.71,10.2 221.48,10.2 C222.81,10.2 224,10.4 225.03,10.81 C226.06,11.22 226.93,11.81 227.64,12.6 C228.35,13.38 228.88,14.34 229.25,15.47 C229.62,16.6 229.8,17.89 229.8,19.35 L229.8,34.7 L223.99,34.7 L223.99,19.35 C223.99,17.81 223.65,16.66 222.98,15.88 C222.31,15.1 221.32,14.72 220.02,14.72 C219.42,14.72 218.87,14.82 218.36,15.03 C217.85,15.23 217.4,15.53 217.02,15.91 C216.64,16.29 216.33,16.78 216.11,17.36 C215.89,17.94 215.78,18.61 215.78,19.36 L215.78,34.71 L209.95,34.71 L209.95,19.36 C209.95,17.75 209.62,16.57 208.97,15.83 C208.32,15.09 207.37,14.73 206.11,14.73 C205.26,14.73 204.48,14.94 203.75,15.35 C203.02,15.77 202.34,16.33 201.72,17.05 L201.72,34.71 L195.91,34.71 L195.92,34.71 Z" id="Path" fill="#1B2E5A"/>
            <path d="M234.41,4.91 C234.8,4.91 235.17,4.96 235.53,5.06 C235.89,5.16 236.23,5.3 236.54,5.49 C236.85,5.68 237.14,5.89 237.39,6.15 C237.64,6.41 237.87,6.69 238.05,7 C238.23,7.31 238.37,7.65 238.47,8.01 C238.57,8.37 238.62,8.74 238.62,9.13 C238.62,9.52 238.57,9.89 238.47,10.25 C238.37,10.61 238.23,10.95 238.05,11.26 C237.87,11.57 237.65,11.86 237.39,12.11 C237.13,12.36 236.85,12.59 236.54,12.77 C236.23,12.96 235.89,13.1 235.53,13.2 C235.17,13.3 234.8,13.35 234.41,13.35 C234.02,13.35 233.65,13.3 233.29,13.2 C232.93,13.1 232.6,12.96 232.29,12.77 C231.98,12.59 231.69,12.37 231.44,12.11 C231.19,11.85 230.96,11.57 230.78,11.26 C230.6,10.95 230.45,10.61 230.35,10.26 C230.25,9.9 230.2,9.53 230.2,9.14 C230.2,8.75 230.25,8.38 230.35,8.02 C230.45,7.66 230.59,7.32 230.78,7.01 C230.96,6.7 231.19,6.41 231.44,6.16 C231.69,5.91 231.98,5.68 232.29,5.5 C232.6,5.32 232.94,5.17 233.29,5.07 C233.65,4.97 234.02,4.92 234.41,4.92 L234.41,4.91 Z M234.41,12.82 C234.75,12.82 235.08,12.78 235.39,12.69 C235.7,12.6 236,12.48 236.27,12.32 C236.54,12.16 236.79,11.97 237.01,11.75 C237.23,11.53 237.42,11.28 237.58,11 C237.74,10.72 237.86,10.43 237.95,10.11 C238.04,9.79 238.08,9.47 238.08,9.12 C238.08,8.6 237.99,8.12 237.79,7.67 C237.59,7.22 237.34,6.82 237.01,6.49 C236.68,6.15 236.29,5.89 235.85,5.69 C235.41,5.49 234.93,5.4 234.42,5.4 C234.08,5.4 233.76,5.44 233.45,5.53 C233.14,5.62 232.85,5.74 232.58,5.9 C232.31,6.06 232.07,6.25 231.85,6.48 C231.63,6.71 231.44,6.96 231.28,7.23 C231.12,7.5 231,7.8 230.92,8.12 C230.84,8.44 230.79,8.77 230.79,9.11 C230.79,9.45 230.83,9.78 230.92,10.1 C231.01,10.42 231.13,10.71 231.28,10.99 C231.44,11.26 231.62,11.51 231.85,11.74 C232.07,11.96 232.31,12.15 232.58,12.31 C232.85,12.47 233.14,12.59 233.45,12.68 C233.76,12.77 234.09,12.81 234.42,12.81 L234.41,12.82 Z M234.34,6.55 C235.01,6.55 235.5,6.67 235.81,6.91 C236.13,7.15 236.29,7.51 236.29,7.97 C236.29,8.33 236.19,8.64 235.98,8.89 C235.77,9.14 235.47,9.32 235.06,9.41 C235.13,9.45 235.18,9.5 235.23,9.56 C235.28,9.62 235.32,9.69 235.37,9.76 L236.69,11.69 L235.83,11.69 C235.7,11.69 235.61,11.64 235.55,11.55 L234.38,9.81 C234.38,9.81 234.3,9.72 234.26,9.69 C234.21,9.66 234.14,9.65 234.04,9.65 L233.58,9.65 L233.58,11.69 L232.68,11.69 L232.68,6.54 L234.34,6.54 L234.34,6.55 Z M234.25,8.99 C234.68,8.99 234.98,8.91 235.15,8.76 C235.32,8.6 235.41,8.38 235.41,8.09 C235.41,7.95 235.39,7.82 235.36,7.71 C235.32,7.6 235.26,7.51 235.18,7.44 C235.1,7.37 234.99,7.32 234.85,7.28 C234.71,7.25 234.54,7.23 234.34,7.23 L233.58,7.23 L233.58,8.98 L234.24,8.98 L234.25,8.99 Z" id="Shape" fill="#1B2E5A"/>
        </g>
    </g>
</svg>
