<?xml version="1.0" encoding="UTF-8"?>
<svg width="184px" height="25px" viewBox="0 0 184 25" version="1.1" xmlns="http://www.w3.org/2000/svg" xmlns:xlink="http://www.w3.org/1999/xlink">
    <title>tiger view with font - bold OUTLINES</title>
    <g id="Page-1" stroke="none" stroke-width="1" fill="none" fill-rule="evenodd">
        <g id="tiger-view-with-font---bold-OUTLINES" transform="translate(0.625, 0.9375)" fill="#FFFFFF" fill-rule="nonzero">
            <g id="TIGER-VIEW" transform="translate(-0, 0)">
                <polygon id="Path" points="18.53125 4.109375 11.5625 4.109375 11.5625 23.0625 6.875 23.0625 6.875 4.109375 0 4.109375 0 0.3125 18.53125 0.3125"></polygon>
                <polygon id="Path" points="26.1711145 23.0625 21.4836145 23.0625 21.4836145 0.3125 26.1711145 0.3125"></polygon>
                <path d="M48.4984789,20.1875 C47.6547289,21.1979167 46.4620206,21.9817708 44.9203539,22.5390625 C43.3786872,23.0963542 41.6703539,23.375 39.7953539,23.375 C37.8266039,23.375 36.1000414,22.9453125 34.6156664,22.0859375 C33.1312914,21.2265625 31.9854581,19.9791667 31.1781664,18.34375 C30.3708747,16.7083333 29.9568122,14.7864583 29.9359789,12.578125 L29.9359789,11.03125 C29.9359789,8.76041667 30.3187914,6.79427083 31.0844164,5.1328125 C31.8500414,3.47135417 32.9542081,2.20052083 34.3969164,1.3203125 C35.8396247,0.440104167 37.5297289,0 39.4672289,0 C42.1651456,0 44.2745206,0.643229167 45.7953539,1.9296875 C47.3161872,3.21614583 48.2172289,5.08854167 48.4984789,7.546875 L43.9359789,7.546875 C43.7276456,6.24479167 43.2667081,5.29166667 42.5531664,4.6875 C41.8396247,4.08333333 40.8578539,3.78125 39.6078539,3.78125 C38.0141039,3.78125 36.8005622,4.38020833 35.9672289,5.578125 C35.1338956,6.77604167 34.7120206,8.55729167 34.7016039,10.921875 L34.7016039,12.375 C34.7016039,14.7604167 35.1547289,16.5625 36.0609789,17.78125 C36.9672289,19 38.2953539,19.609375 40.0453539,19.609375 C41.8057706,19.609375 43.0609789,19.234375 43.8109789,18.484375 L43.8109789,14.5625 L39.5453539,14.5625 L39.5453539,11.109375 L48.4984789,11.109375 L48.4984789,20.1875 Z" id="Path"></path>
                <polygon id="Path" points="65.9664684 13.203125 56.9664684 13.203125 56.9664684 19.296875 67.5289684 19.296875 67.5289684 23.0625 52.2789684 23.0625 52.2789684 0.3125 67.4977184 0.3125 67.4977184 4.109375 56.9664684 4.109375 56.9664684 9.53125 65.9664684 9.53125"></polygon>
                <path d="M78.6844578,14.734375 L74.9500828,14.734375 L74.9500828,23.0625 L70.2625828,23.0625 L70.2625828,0.3125 L78.7157078,0.3125 C81.4032078,0.3125 83.4761245,0.911458333 84.9344578,2.109375 C86.3927912,3.30729167 87.1219578,5 87.1219578,7.1875 C87.1219578,8.73958333 86.7860203,10.0338542 86.1141453,11.0703125 C85.4422703,12.1067708 84.4240412,12.9322917 83.0594578,13.546875 L87.9813328,22.84375 L87.9813328,23.0625 L82.9500828,23.0625 L78.6844578,14.734375 Z M74.9500828,10.9375 L78.7313328,10.9375 C79.9084162,10.9375 80.8198745,10.6380208 81.4657078,10.0390625 C82.1115412,9.44010417 82.4344578,8.61458333 82.4344578,7.5625 C82.4344578,6.48958333 82.1297703,5.64583333 81.5203953,5.03125 C80.9110203,4.41666667 79.9761245,4.109375 78.7157078,4.109375 L74.9500828,4.109375 L74.9500828,10.9375 Z" id="Shape"></path>
                <polygon id="Path" points="107.026687 17.421875 112.182937 0.3125 117.401687 0.3125 109.479812 23.0625 104.589187 23.0625 96.6985617 0.3125 101.901687 0.3125"></polygon>
                <polygon id="Path" points="124.510301 23.0625 119.822801 23.0625 119.822801 0.3125 124.510301 0.3125"></polygon>
                <polygon id="Path" points="142.525166 13.203125 133.525166 13.203125 133.525166 19.296875 144.087666 19.296875 144.087666 23.0625 128.837666 23.0625 128.837666 0.3125 144.056416 0.3125 144.056416 4.109375 133.525166 4.109375 133.525166 9.53125 142.525166 9.53125"></polygon>
                <polygon id="Path" points="164.54003 16.5 167.60253 0.3125 172.274405 0.3125 167.22753 23.0625 162.50878 23.0625 158.805655 7.84375 155.10253 23.0625 150.38378 23.0625 145.336905 0.3125 150.00878 0.3125 153.086905 16.46875 156.836905 0.3125 160.805655 0.3125"></polygon>
            </g>
            <g id="TM" transform="translate(174.4922, 0.2969)">
                <polygon id="Path" points="3.47460938 0.711914062 2.16796875 0.711914062 2.16796875 4.265625 1.2890625 4.265625 1.2890625 0.711914062 0 0.711914062 0 0 3.47460938 0"></polygon>
                <polygon id="Path" points="5.12095115 0 6.21665427 3.09375 7.30649802 0 8.4607949 0 8.4607949 4.265625 7.57895896 4.265625 7.57895896 3.09960938 7.66684959 1.08691406 6.5154824 4.265625 5.91196677 4.265625 4.76352927 1.08984375 4.8514199 3.09960938 4.8514199 4.265625 3.97251365 4.265625 3.97251365 0"></polygon>
            </g>
        </g>
    </g>
</svg>