<?xml version="1.0" encoding="UTF-8"?> <svg xmlns="http://www.w3.org/2000/svg" xmlns:xlink="http://www.w3.org/1999/xlink" width="1442px" height="1537px" viewBox="0 0 1442 1537" version="1.1"><title>LOWERS-curve</title><defs><rect id="path-1" x="0.4976655" y="0.279452581" width="1439.00139" height="1506"></rect></defs><g id="Reconstruction-page" stroke="none" stroke-width="1" fill="none" fill-rule="evenodd"><g id="Recon_Expander&amp;ImplantOptions" transform="translate(2.000000, -4015.000000)"><g id="LOWERS-curve" transform="translate(-2.000000, 4015.000000)"><g transform="translate(1.997226, 30.000000)"><mask id="mask-2" fill="white"><use xlink:href="#path-1"></use></mask><g id="Mask"></g><path d="M1374.43333,657.882314 C1307.52185,603.820812 1222.94342,568.996504 1136.49754,571.409781 C1094.19672,572.590675 1052.93407,583.235145 1016.88131,603.826019 C980.574403,624.562916 950.398914,653.588213 922.94577,684.202936 C893.762268,716.746101 866.910686,751.19023 837.286798,783.371368 C805.96451,817.397159 772.495221,849.600541 736.45048,878.918833 C700.220397,908.388664 661.310829,935.680458 619.109944,956.794257 C586.925237,972.897297 553.314149,983.527375 517.348615,989.26476 C496.212463,992.636456 475.076963,995.689353 453.540255,996.366133 C424.322578,997.284294 394.935246,994.207978 366.51308,986.28804 C329.697724,976.028909 295.349808,957.916353 265.13102,934.695792 C223.12406,902.416215 188.882125,861.363444 160.214932,817.744307 C117.761021,753.149682 86.4526443,682.235731 60.764254,610.382697 C52.9083503,588.408221 45.613621,566.268157 38.7354896,544.017226 C37.2187877,539.107507 29.4000558,541.05573 30.9253343,545.99018 C55.4544833,625.343914 85.3409771,703.986127 126.387591,777.28061 C154.425516,827.345547 188.108818,875.510997 230.506198,915.451015 C260.632412,943.830726 295.289549,967.683392 333.891948,983.412607 C363.648293,995.536666 395.344199,1002.35089 427.209717,1004.01688 C451.837076,1005.3053 476.335222,1003.39825 500.528402,999.900067 C509.997368,998.530406 519.443654,997.004044 528.882769,995.481076 C575.032649,988.034436 617.889953,968.651897 657.022938,945.073537 C736.540235,897.162674 805.09349,833.470019 865.212814,764.388179 C920.315189,701.071681 971.822316,625.626381 1055.11557,594.713725 C1137.36975,564.188061 1233.36884,581.132598 1310.36316,623.771366 C1389.30589,667.488037 1449.73136,737.673642 1496.60427,812.070864 C1508.03433,830.213148 1518.73659,848.758936 1528.91905,867.559693 C1531.39244,872.125863 1538.34686,868.245369 1535.87536,863.683621 C1494.54733,787.37912 1443.41961,713.620128 1374.43333,657.882314 Z" id="Fill-1" fill="#FF8300" mask="url(#mask-2)" transform="translate(783.563745, 772.795044) rotate(-252.000000) translate(-783.563745, -772.795044) "></path></g></g></g></g></svg> 