<?xml version="1.0" encoding="UTF-8"?> <svg xmlns="http://www.w3.org/2000/svg" xmlns:xlink="http://www.w3.org/1999/xlink" width="320px" height="242px" viewBox="0 0 320 242" version="1.1"><title>Fill 1 Copy 2</title><g id="4-main-pages" stroke="none" stroke-width="1" fill="none" fill-rule="evenodd"><g id="US-Surgeons" transform="translate(-1118.000000, -748.000000)" fill="#F58320" stroke="#F58320" stroke-width="3"><g id="Fill-1-Copy-2" transform="translate(1.000000, 748.000000)"><g id="Fill-1-Copy" transform="translate(999.252171, -274.000000)"><path d="M736.012842,418.738542 C694.391902,382.924258 642.626262,358.838 590.675625,358.245806 C565.254463,357.956024 540.696467,363.674094 519.523779,375.807436 C498.20186,388.026859 480.777914,405.636019 465.031969,424.316629 C448.293535,444.173918 433.006051,465.290033 415.993527,484.907677 C398.005631,505.649814 378.680025,525.187315 357.73214,542.837907 C336.676561,560.579755 313.95393,576.87911 289.095312,589.192402 C270.13678,598.58351 250.182097,604.47993 228.687505,607.225745 C216.055605,608.839376 203.416062,610.251493 190.475236,610.151714 C172.919123,610.016357 155.160253,607.351727 137.860004,601.648836 C115.450907,594.261603 94.328433,581.970259 75.5615637,566.551035 C49.4738269,545.11635 27.836904,518.3259 9.48942259,490.049687 C-17.6817386,448.17603 -38.3063015,402.580643 -55.573185,356.52929 C-60.8536809,342.445627 -65.8007114,328.271036 -70.4998839,314.036565 C-71.5361813,310.89572 -76.1913336,311.93575 -75.1492526,315.092438 C-58.3907867,365.856974 -38.4269278,416.302964 -11.8832054,463.641778 C6.24813548,495.9773 27.7282255,527.250359 54.2439476,553.537172 C73.0851568,572.215495 94.5383586,588.143036 118.160533,599.031972 C129.603624,604.306544 141.454727,608.274258 153.450555,610.949707 C160.543219,612.531596 167.686478,613.661723 174.82591,614.343105 C189.675807,615.760905 204.367418,615.155514 218.835436,613.536814 C224.498059,612.902951 230.143087,612.169473 235.783886,611.437966 C263.362961,607.861137 288.660162,596.658345 311.610811,582.711918 C358.245984,554.372987 397.88669,515.788966 432.317159,473.591548 C463.874421,434.915796 492.96284,388.484722 542.29832,370.983744 C591.018373,353.701948 649.204765,366.765258 696.604278,395.605646 C745.203254,425.175167 783.328195,471.02344 813.405192,519.202084 C820.739544,530.950779 827.646172,542.936719 834.246479,555.071105 C835.849723,558.018212 839.936146,555.735519 838.334148,552.791254 C811.545244,503.542758 778.924361,455.663338 736.012842,418.738542 Z" transform="translate(381.699721, 463.638675) scale(-1, -1) rotate(236.000000) translate(-381.699721, -463.638675) "></path></g></g></g></g></svg> 