<?xml version="1.0" encoding="UTF-8"?>
<svg xmlns="http://www.w3.org/2000/svg" xmlns:xlink="http://www.w3.org/1999/xlink" width="66" height="88" xml:space="preserve" overflow="hidden">
  <g transform="translate(-1051 -287)">
    <path d="M1106 369.5 1062 369.5C1058.96 369.5 1056.5 367.042 1056.5 364L1056.5 298C1056.5 294.958 1058.96 292.5 1062 292.5L1084 292.5 1084 311.75C1084 316.305 1087.7 320 1092.25 320L1111.5 320 1111.5 364C1111.5 367.042 1109.04 369.5 1106 369.5ZM1092.25 314.5C1090.74 314.5 1089.5 313.263 1089.5 311.75L1089.5 292.586C1089.98 292.706 1090.43 292.947 1090.77 293.308L1110.69 313.228C1111.05 313.589 1111.29 314.019 1111.41 314.5L1092.25 314.5ZM1062 287C1055.93 287 1051 291.933 1051 298L1051 364C1051 370.067 1055.93 375 1062 375L1106 375C1112.07 375 1117 370.067 1117 364L1117 315.17C1117 312.987 1116.12 310.891 1114.58 309.344L1094.67 289.423C1093.13 287.877 1091.03 287 1088.85 287L1062 287ZM1070.25 325.5C1068.74 325.5 1067.5 326.737 1067.5 328.25L1067.5 342 1067.5 353C1067.5 354.513 1068.74 355.75 1070.25 355.75 1071.76 355.75 1073 354.513 1073 353L1073 344.75 1080.12 344.75 1088.37 353 1082.06 359.308C1080.99 360.373 1080.99 362.127 1082.06 363.192 1083.12 364.258 1084.88 364.258 1085.94 363.192L1092.25 356.884 1098.56 363.192C1099.62 364.258 1101.38 364.258 1102.44 363.192 1103.51 362.127 1103.51 360.373 1102.44 359.308L1096.13 353 1102.44 346.692C1103.51 345.627 1103.51 343.873 1102.44 342.808 1101.38 341.742 1099.62 341.742 1098.56 342.808L1092.25 349.116 1086.89 343.753C1090.07 342.189 1092.25 338.906 1092.25 335.125 1092.25 329.814 1087.94 325.5 1082.62 325.5L1070.25 325.5ZM1082.62 339.25 1081.25 339.25 1073 339.25 1073 331 1082.62 331C1084.91 331 1086.75 332.839 1086.75 335.125 1086.75 337.411 1084.91 339.25 1082.62 339.25Z" fill="#F1925E"></path>
  </g>
</svg>
