<?xml version="1.0" encoding="UTF-8"?>
<svg xmlns="http://www.w3.org/2000/svg" xmlns:xlink="http://www.w3.org/1999/xlink" width="95" height="88" xml:space="preserve" overflow="hidden">
  <g transform="translate(-708 -292)">
    <path d="M21.1111 73.8889 73.8889 73.8889 73.8889 10.5556 21.1111 10.5556 21.1111 73.8889ZM15.8333 73.8889 15.8333 10.5556 10.5556 10.5556C7.63628 10.5556 5.27778 12.9141 5.27778 15.8333L5.27778 68.6111C5.27778 71.5304 7.63628 73.8889 10.5556 73.8889L15.8333 73.8889ZM10.5556 5.27778 15.8333 5.27778 18.4722 5.27778 21.1111 5.27778 73.8889 5.27778 76.5278 5.27778 79.1667 5.27778 84.4444 5.27778C90.2665 5.27778 95 10.0113 95 15.8333L95 68.6111C95 74.4332 90.2665 79.1667 84.4444 79.1667L79.1667 79.1667 76.5278 79.1667 73.8889 79.1667 21.1111 79.1667 18.4722 79.1667 15.8333 79.1667 10.5556 79.1667C4.73351 79.1667 0 74.4332 0 68.6111L0 15.8333C0 10.0113 4.73351 5.27778 10.5556 5.27778ZM79.1667 73.8889 84.4444 73.8889C87.3637 73.8889 89.7222 71.5304 89.7222 68.6111L89.7222 15.8333C89.7222 12.9141 87.3637 10.5556 84.4444 10.5556L79.1667 10.5556 79.1667 73.8889ZM44.8611 23.75 50.1389 23.75C53.0582 23.75 55.4167 26.1085 55.4167 29.0278L55.4167 34.3056 60.6944 34.3056C63.6137 34.3056 65.9722 36.6641 65.9722 39.5833L65.9722 44.8611C65.9722 47.7804 63.6137 50.1389 60.6944 50.1389L55.4167 50.1389 55.4167 55.4167C55.4167 58.3359 53.0582 60.6944 50.1389 60.6944L44.8611 60.6944C41.9418 60.6944 39.5833 58.3359 39.5833 55.4167L39.5833 50.1389 34.3056 50.1389C31.3863 50.1389 29.0278 47.7804 29.0278 44.8611L29.0278 39.5833C29.0278 36.6641 31.3863 34.3056 34.3056 34.3056L39.5833 34.3056 39.5833 29.0278C39.5833 26.1085 41.9418 23.75 44.8611 23.75ZM44.8611 29.0278 44.8611 36.9444C44.8611 37.6371 44.5807 38.3134 44.0859 38.8082 43.5911 39.303 42.9149 39.5833 42.2222 39.5833L34.3056 39.5833 34.3056 44.8611 42.2222 44.8611C43.6736 44.8611 44.8611 46.0486 44.8611 47.5L44.8611 55.4167 50.1389 55.4167 50.1389 47.5C50.1389 46.0486 51.3264 44.8611 52.7778 44.8611L60.6944 44.8611 60.6944 39.5833 52.7778 39.5833C51.3264 39.5833 50.1389 38.3958 50.1389 36.9444L50.1389 29.0278 44.8611 29.0278Z" fill="#F1925E" transform="matrix(1 0 0 1.04211 708 292)"></path>
  </g>
</svg>
