<?xml version="1.0" encoding="UTF-8"?>
<!-- Generator: Adobe Illustrator 26.0.3, SVG Export Plug-In . SVG Version: 6.00 Build 0)  -->
<svg xmlns="http://www.w3.org/2000/svg" xmlns:xlink="http://www.w3.org/1999/xlink" version="1.1" x="0px" y="0px" viewBox="0 0 90 58.6" style="enable-background:new 0 0 90 58.6;" xml:space="preserve">
<style type="text/css">
	.st0{fill-rule:evenodd;clip-rule:evenodd;fill:#E9A779;}
	.st1{display:none;}
	.st2{display:inline;enable-background:new    ;}
	.st3{fill:#E9A779;}
</style>
<g id="Layer_1">
	<path id="DME-icon.svg" class="st0" d="M73,1.6H17c-4.4,0-8,3.6-8,8c0,0,0,0,0,0v40c0,4.4,3.6,8,8,8c0,0,0,0,0,0h56   c4.4,0,8-3.6,8-8c0,0,0,0,0,0v-40C81,5.2,77.4,1.6,73,1.6z M21,53.6h-4c-2.2,0-4-1.8-4-4v-40c0-2.2,1.8-4,4-4h4V53.6z M65,53.6H25   v-48h40V53.6z M77,49.6c0,2.2-1.8,4-4,4h-4v-48h4c2.2,0,4,1.8,4,4V49.6z M35,33.6h6v6c0,1.1,0.9,2,2,2h4c1.1,0,2-0.9,2-2v-6h6   c1.1,0,2-0.9,2-2v-4c0-1.1-0.9-2-2-2h-6v-6c0-1.1-0.9-2-2-2h-4c-1.1,0-2,0.9-2,2v6h-6c-1.1,0-2,0.9-2,2v4   C33,32.7,33.9,33.6,35,33.6L35,33.6z"></path>
</g>
<g id="Layer_2" class="st1">
	<g class="st2">
		<path class="st3" d="M76.4,8.4c5.8,0,10.5,4.7,10.5,10.5v20.9c0,5.8-4.7,10.5-10.5,10.5H13.6c-5.8,0-10.5-4.7-10.5-10.5V18.8    c0-5.8,4.7-10.5,10.5-10.5L76.4,8.4L76.4,8.4z M24.1,46.1V12.6H13.6c-3.5,0-6.3,2.8-6.3,6.3v20.9c0,3.5,2.8,6.3,6.3,6.3L24.1,46.1    L24.1,46.1z M61.8,12.6H28.2v33.5h33.5V12.6z M35.6,23c0-1.7,1.4-3.1,3.1-3.1s3.1,1.4,3.1,3.1s-1.4,3.1-3.1,3.1S35.6,24.8,35.6,23    z M35.6,35.6c0-1.7,1.4-3.1,3.1-3.1s3.1,1.4,3.1,3.1s-1.4,3.1-3.1,3.1S35.6,37.3,35.6,35.6z M54.4,23c0,1.7-1.4,3.1-3.1,3.1    s-3.1-1.4-3.1-3.1s1.4-3.1,3.1-3.1S54.4,21.3,54.4,23z M54.4,35.6c0,1.7-1.4,3.1-3.1,3.1s-3.1-1.4-3.1-3.1s1.4-3.1,3.1-3.1    S54.4,33.9,54.4,35.6z M65.9,46.1h10.5c3.5,0,6.3-2.8,6.3-6.3V18.8c0-3.5-2.8-6.3-6.3-6.3H65.9V46.1z"></path>
	</g>
</g>
</svg>
