<?xml version="1.0" encoding="utf-8"?>
<!-- Generator: Adobe Illustrator 28.2.0, SVG Export Plug-In . SVG Version: 6.00 Build 0)  -->
<svg version="1.1" id="Layer_1" xmlns="http://www.w3.org/2000/svg" xmlns:xlink="http://www.w3.org/1999/xlink" x="0px" y="0px"
	 viewBox="0 0 203.9 162.9" style="enable-background:new 0 0 203.9 162.9;" xml:space="preserve">
<style type="text/css">
	.st0{fill:#FFFFFF;}
</style>
<g>
	<g>
		<path class="st0" d="M43.4,108.8H22.8c0-9.1,0-18.3,0-27.4h20.5v5H28v6.3h14.9v4.8H28v6.2h15.4V108.8z"/>
		<path class="st0" d="M66.2,81.4h5.2v27.5h-3.2l0,0L53.7,90.3v18.5h-5.2V81.4h4.2l13.4,17L66.2,81.4L66.2,81.4z"/>
		<path class="st0" d="M100.3,105.4c-2.8,2.8-6.5,4.1-10.4,4.1c-10.2,0-14.5-7-14.5-14.1c0-7.2,4.6-14.5,14.5-14.5
			c3.7,0,7.3,1.4,10.1,4.2l-3.4,3.3c-1.8-1.8-4.2-2.6-6.6-2.6c-6.6,0-9.5,4.9-9.4,9.5c0,4.5,2.7,9.3,9.4,9.3c2.4,0,5.1-1,6.9-2.8
			L100.3,105.4z"/>
		<path class="st0" d="M130.1,95.3c-0.1,7.1-4.4,14.2-14.1,14.2c-9.6,0-14.1-6.9-14.1-14.1s4.6-14.5,14.1-14.5
			S130.2,88.1,130.1,95.3z M107.1,95.4c0.1,4.5,2.5,9.3,9,9.3s8.9-4.9,9-9.4c0.1-4.6-2.5-9.8-9-9.8
			C109.6,85.6,106.9,90.8,107.1,95.4z"/>
		<path class="st0" d="M158.3,108.8h-6.2l-8-9.2h-5v9.2H134V81.4c4.3,0,8.7,0,13,0c6.5,0,9.9,4.3,9.9,9.1c0,3.8-1.7,7.6-6.9,8.6
			l8.3,9.4V108.8z M139.2,86.2V95h7.9c3.3,0,4.7-2.2,4.7-4.4c0-2.2-1.4-4.4-4.7-4.4H139.2z"/>
		<path class="st0" d="M180.8,108.8h-20.5c0-9.1,0-18.3,0-27.4h20.5v5h-15.4v6.3h14.9v4.8h-14.9v6.2h15.4V108.8z"/>
	</g>
	<g>
		<g>
			<path class="st0" d="M73.7,28.3c-0.5,0-0.9-0.2-1.2-0.5c-0.3-0.3-0.5-0.7-0.5-1.2s0.2-0.9,0.5-1.2s0.7-0.5,1.2-0.5
				s0.9,0.2,1.2,0.5c0.3,0.3,0.5,0.7,0.5,1.2s-0.2,0.9-0.5,1.2C74.6,28.1,74.2,28.3,73.7,28.3z"/>
			<path class="st0" d="M71.8,32.2c-0.4,0-0.8-0.2-1.1-0.5c-0.3-0.3-0.5-0.7-0.5-1.1s0.2-0.8,0.5-1.1c0.3-0.3,0.7-0.5,1.1-0.5
				s0.8,0.2,1.1,0.5c0.3,0.3,0.5,0.7,0.5,1.1s-0.2,0.8-0.5,1.1C72.6,32.1,72.2,32.2,71.8,32.2z"/>
			<path class="st0" d="M70.4,36.4c-0.4,0-0.8-0.2-1.1-0.4c-0.3-0.3-0.4-0.7-0.4-1.1c0-0.4,0.2-0.8,0.4-1.1c0.3-0.3,0.7-0.4,1.1-0.4
				s0.8,0.2,1.1,0.4c0.3,0.3,0.4,0.7,0.4,1.1c0,0.4-0.2,0.8-0.4,1.1C71.2,36.2,70.8,36.4,70.4,36.4z"/>
			<path class="st0" d="M69.5,40.8c-0.4,0-0.8-0.2-1-0.4c-0.3-0.3-0.4-0.6-0.4-1s0.2-0.8,0.4-1c0.3-0.3,0.6-0.4,1-0.4s0.8,0.2,1,0.4
				c0.3,0.3,0.4,0.6,0.4,1s-0.2,0.8-0.4,1C70.3,40.6,69.9,40.8,69.5,40.8z"/>
			<path class="st0" d="M69.3,45.2c-0.4,0-0.7-0.2-1-0.4c-0.3-0.3-0.4-0.6-0.4-1s0.2-0.7,0.4-1c0.3-0.3,0.6-0.4,1-0.4s0.7,0.2,1,0.4
				c0.3,0.3,0.4,0.6,0.4,1s-0.2,0.7-0.4,1C70.1,45,69.7,45.2,69.3,45.2z"/>
			<path class="st0" d="M69.7,49.5c-0.4,0-0.7-0.1-0.9-0.4c-0.2-0.2-0.4-0.6-0.4-0.9c0-0.4,0.1-0.7,0.4-0.9c0.2-0.2,0.6-0.4,0.9-0.4
				c0.4,0,0.7,0.1,0.9,0.4c0.2,0.2,0.4,0.6,0.4,0.9c0,0.4-0.1,0.7-0.4,0.9C70.4,49.4,70.1,49.5,69.7,49.5z"/>
			<path class="st0" d="M70.7,53.8c-0.3,0-0.7-0.1-0.9-0.4c-0.2-0.2-0.4-0.5-0.4-0.9s0.1-0.7,0.4-0.9c0.2-0.2,0.5-0.4,0.9-0.4
				c0.3,0,0.7,0.1,0.9,0.4s0.4,0.5,0.4,0.9s-0.1,0.7-0.4,0.9C71.3,53.7,71,53.8,70.7,53.8z"/>
			<path class="st0" d="M72.2,58c-0.3,0-0.6-0.1-0.8-0.3c-0.2-0.2-0.3-0.5-0.3-0.8s0.1-0.6,0.3-0.8c0.2-0.2,0.5-0.3,0.8-0.3
				s0.6,0.1,0.8,0.3c0.2,0.2,0.3,0.5,0.3,0.8s-0.1,0.6-0.3,0.8S72.6,58,72.2,58z"/>
			<path class="st0" d="M74.3,61.9c-0.3,0-0.6-0.1-0.8-0.3c-0.2-0.2-0.3-0.5-0.3-0.8s0.1-0.6,0.3-0.8c0.2-0.2,0.5-0.3,0.8-0.3
				s0.6,0.1,0.8,0.3c0.2,0.2,0.3,0.5,0.3,0.8s-0.1,0.6-0.3,0.8C74.9,61.7,74.6,61.9,74.3,61.9z"/>
			<path class="st0" d="M76.9,65.4c-0.3,0-0.5-0.1-0.7-0.3c-0.2-0.2-0.3-0.4-0.3-0.7c0-0.3,0.1-0.5,0.3-0.7c0.2-0.2,0.4-0.3,0.7-0.3
				c0.3,0,0.5,0.1,0.7,0.3s0.3,0.4,0.3,0.7s-0.1,0.5-0.3,0.7C77.5,65.3,77.2,65.4,76.9,65.4z"/>
			<path class="st0" d="M80,68.6c-0.3,0-0.5-0.1-0.7-0.3c-0.2-0.2-0.3-0.4-0.3-0.7s0.1-0.5,0.3-0.7c0.2-0.2,0.4-0.3,0.7-0.3
				c0.3,0,0.5,0.1,0.7,0.3c0.2,0.2,0.3,0.4,0.3,0.7s-0.1,0.5-0.3,0.7C80.5,68.5,80.3,68.6,80,68.6z"/>
			<path class="st0" d="M83.5,71.4c-0.2,0-0.5-0.1-0.6-0.3c-0.2-0.2-0.3-0.4-0.3-0.6s0.1-0.5,0.3-0.6c0.2-0.2,0.4-0.3,0.6-0.3
				s0.5,0.1,0.6,0.3c0.2,0.2,0.3,0.4,0.3,0.6s-0.1,0.5-0.3,0.6C83.9,71.3,83.7,71.4,83.5,71.4z"/>
			<path class="st0" d="M87.3,73.6c-0.2,0-0.4-0.1-0.6-0.2c-0.1-0.1-0.2-0.3-0.2-0.6c0-0.2,0.1-0.4,0.2-0.6c0.1-0.1,0.3-0.2,0.6-0.2
				s0.4,0.1,0.6,0.2c0.1,0.1,0.2,0.3,0.2,0.6c0,0.2-0.1,0.4-0.2,0.6C87.7,73.5,87.5,73.6,87.3,73.6z"/>
			<path class="st0" d="M91.4,75.4c-0.2,0-0.4-0.1-0.5-0.2s-0.2-0.3-0.2-0.5s0.1-0.4,0.2-0.5s0.3-0.2,0.5-0.2s0.4,0.1,0.5,0.2
				s0.2,0.3,0.2,0.5s-0.1,0.4-0.2,0.5S91.6,75.4,91.4,75.4z"/>
			<path class="st0" d="M95.7,76.5c-0.2,0-0.3-0.1-0.5-0.2C95.1,76.2,95,76,95,75.8s0.1-0.3,0.2-0.5c0.1-0.1,0.3-0.2,0.5-0.2
				s0.3,0.1,0.5,0.2c0.1,0.1,0.2,0.3,0.2,0.5s-0.1,0.3-0.2,0.5C96.1,76.4,95.9,76.5,95.7,76.5z"/>
			<path class="st0" d="M100.1,77.1c-0.2,0-0.3-0.1-0.4-0.2s-0.2-0.3-0.2-0.4c0-0.2,0.1-0.3,0.2-0.4s0.3-0.2,0.4-0.2
				s0.3,0.1,0.4,0.2s0.2,0.3,0.2,0.4c0,0.2-0.1,0.3-0.2,0.4C100.5,77,100.3,77.1,100.1,77.1z"/>
			<path class="st0" d="M104.6,77.1c-0.1,0-0.3-0.1-0.4-0.1c-0.1-0.1-0.1-0.2-0.1-0.4s0.1-0.3,0.1-0.4c0.1-0.1,0.2-0.1,0.4-0.1
				s0.3,0.1,0.4,0.1c0.1,0.1,0.1,0.2,0.1,0.4S105,76.9,105,77C104.9,77,104.8,77.1,104.6,77.1z"/>
			<path class="st0" d="M109.1,76.4c-0.1,0-0.2,0-0.3-0.1s-0.1-0.2-0.1-0.3s0-0.2,0.1-0.3c0.1-0.1,0.2-0.1,0.3-0.1
				c0.1,0,0.2,0,0.3,0.1c0.1,0.1,0.1,0.2,0.1,0.3s0,0.2-0.1,0.3S109.2,76.4,109.1,76.4z"/>
			<path class="st0" d="M113.4,75.2c-0.1,0-0.2,0-0.3-0.1c-0.1-0.1-0.1-0.2-0.1-0.3c0-0.1,0-0.2,0.1-0.3c0.1-0.1,0.2-0.1,0.3-0.1
				c0.1,0,0.2,0,0.3,0.1c0.1,0.1,0.1,0.2,0.1,0.3c0,0.1,0,0.2-0.1,0.3C113.6,75.2,113.5,75.2,113.4,75.2z"/>
			<path class="st0" d="M117.5,73.5c-0.1,0-0.2,0-0.2-0.1c-0.1-0.1-0.1-0.1-0.1-0.2s0-0.2,0.1-0.2c0.1-0.1,0.1-0.1,0.2-0.1
				s0.2,0,0.2,0.1c0.1,0.1,0.1,0.1,0.1,0.2s0,0.2-0.1,0.2C117.7,73.4,117.6,73.5,117.5,73.5z"/>
			<path class="st0" d="M121.4,71.1c-0.1,0-0.1,0-0.2-0.1c0,0-0.1-0.1-0.1-0.2s0-0.1,0.1-0.2c0,0,0.1-0.1,0.2-0.1s0.1,0,0.2,0.1
				c0,0,0.1,0.1,0.1,0.2s0,0.1-0.1,0.2S121.5,71.1,121.4,71.1z"/>
			<path class="st0" d="M125,68.3L125,68.3L125,68.3l-0.1-0.2h0.1h0.1L125,68.3L125,68.3C125,68.3,125,68.3,125,68.3z"/>
			<path class="st0" d="M128.1,65.1L128.1,65.1C128,65,128,65,128.1,65.1C128,65,128,65,128,65S128,65,128.1,65.1
				c0-0.1,0-0.1,0.1-0.1C128.2,64.9,128.2,65,128.1,65.1C128.2,65,128.2,65,128.1,65.1L128.1,65.1z"/>
		</g>
		<g>
			<path class="st0" d="M76.2,26.9C76.2,26.9,76.1,26.9,76.2,26.9C76.1,26.9,76.1,26.9,76.2,26.9c-0.1-0.1-0.1-0.1-0.1-0.1
				s0,0,0.1,0s0,0,0.1,0C76.2,26.8,76.3,26.8,76.2,26.9C76.3,26.9,76.2,26.9,76.2,26.9L76.2,26.9z"/>
			<path class="st0" d="M78.8,23.3L78.8,23.3l-0.1-0.1v-0.1h0.1h0.1v0.1L78.8,23.3C78.9,23.3,78.9,23.3,78.8,23.3z"/>
			<path class="st0" d="M82,20.1c-0.1,0-0.1,0-0.2-0.1c0,0-0.1-0.1-0.1-0.2s0-0.1,0.1-0.2c0,0,0.1-0.1,0.2-0.1s0.1,0,0.2,0.1
				c0,0,0.1,0.1,0.1,0.2s0,0.1-0.1,0.2C82.2,20.1,82.1,20.1,82,20.1z"/>
			<path class="st0" d="M85.7,17.4c-0.1,0-0.2,0-0.2-0.1c-0.1-0.1-0.1-0.1-0.1-0.2s0-0.2,0.1-0.2c0.1-0.1,0.1-0.1,0.2-0.1
				s0.2,0,0.2,0.1c0.1,0,0.1,0.1,0.1,0.2s0,0.2-0.1,0.2C85.8,17.4,85.8,17.4,85.7,17.4z"/>
			<path class="st0" d="M89.7,15.3c-0.1,0-0.2,0-0.3-0.1c-0.1-0.1-0.1-0.2-0.1-0.3s0-0.2,0.1-0.3s0.2-0.1,0.3-0.1
				c0.1,0,0.2,0,0.3,0.1c0.1,0.1,0.1,0.2,0.1,0.3s0,0.2-0.1,0.3C89.9,15.2,89.8,15.3,89.7,15.3z"/>
			<path class="st0" d="M93.9,13.7c-0.1,0-0.3-0.1-0.3-0.1s-0.1-0.2-0.1-0.3s0.1-0.3,0.1-0.3c0.1-0.1,0.2-0.1,0.3-0.1
				s0.3,0.1,0.3,0.1c0.1,0.1,0.1,0.2,0.1,0.3s-0.1,0.3-0.1,0.3S94.1,13.7,93.9,13.7z"/>
			<path class="st0" d="M98.4,12.8c-0.2,0-0.3-0.1-0.4-0.2c-0.1-0.1-0.2-0.2-0.2-0.4s0.1-0.3,0.2-0.4c0.1-0.1,0.2-0.2,0.4-0.2
				c0.2,0,0.3,0.1,0.4,0.2c0.1,0.1,0.2,0.2,0.2,0.4s-0.1,0.3-0.2,0.4C98.7,12.8,98.6,12.8,98.4,12.8z"/>
			<path class="st0" d="M103,12.6c-0.2,0-0.3-0.1-0.5-0.2c-0.1-0.1-0.2-0.3-0.2-0.5s0.1-0.3,0.2-0.5c0.1-0.1,0.3-0.2,0.5-0.2
				s0.3,0.1,0.5,0.2c0.1,0.1,0.2,0.3,0.2,0.5s-0.1,0.3-0.2,0.5C103.3,12.5,103.1,12.6,103,12.6z"/>
			<path class="st0" d="M107.5,13.1c-0.2,0-0.4-0.1-0.5-0.2c-0.1-0.1-0.2-0.3-0.2-0.5s0.1-0.4,0.2-0.5s0.3-0.2,0.5-0.2
				s0.4,0.1,0.5,0.2c0.1,0.1,0.2,0.3,0.2,0.5s-0.1,0.4-0.2,0.5C107.9,13,107.7,13.1,107.5,13.1z"/>
			<path class="st0" d="M112,14.2c-0.2,0-0.4-0.1-0.6-0.2c-0.1-0.1-0.2-0.3-0.2-0.6s0.1-0.4,0.2-0.6c0.1-0.1,0.3-0.2,0.6-0.2
				c0.2,0,0.4,0.1,0.6,0.2c0.1,0.1,0.2,0.3,0.2,0.6s-0.1,0.4-0.2,0.6C112.4,14.1,112.2,14.2,112,14.2z"/>
			<path class="st0" d="M116.2,15.9c-0.2,0-0.5-0.1-0.6-0.3c-0.2-0.2-0.3-0.4-0.3-0.6s0.1-0.5,0.3-0.6c0.2-0.2,0.4-0.3,0.6-0.3
				s0.5,0.1,0.6,0.3c0.2,0.2,0.3,0.4,0.3,0.6s-0.1,0.5-0.3,0.6C116.7,15.8,116.5,15.9,116.2,15.9z"/>
			<path class="st0" d="M120.2,18.3c-0.3,0-0.5-0.1-0.7-0.3c-0.2-0.2-0.3-0.4-0.3-0.7c0-0.3,0.1-0.5,0.3-0.7
				c0.2-0.2,0.4-0.3,0.7-0.3c0.3,0,0.5,0.1,0.7,0.3c0.2,0.2,0.3,0.4,0.3,0.7c0,0.3-0.1,0.5-0.3,0.7
				C120.7,18.2,120.5,18.3,120.2,18.3z"/>
			<path class="st0" d="M123.8,21.2c-0.3,0-0.5-0.1-0.7-0.3c-0.2-0.2-0.3-0.4-0.3-0.7c0-0.3,0.1-0.5,0.3-0.7
				c0.2-0.2,0.4-0.3,0.7-0.3c0.3,0,0.5,0.1,0.7,0.3c0.2,0.2,0.3,0.4,0.3,0.7c0,0.3-0.1,0.5-0.3,0.7
				C124.3,21.1,124.1,21.2,123.8,21.2z"/>
			<path class="st0" d="M126.9,24.6c-0.3,0-0.6-0.1-0.8-0.3c-0.2-0.2-0.3-0.5-0.3-0.8s0.1-0.6,0.3-0.8c0.2-0.2,0.5-0.3,0.8-0.3
				s0.6,0.1,0.8,0.3c0.2,0.2,0.3,0.5,0.3,0.8s-0.1,0.6-0.3,0.8C127.5,24.4,127.2,24.6,126.9,24.6z"/>
			<path class="st0" d="M129.5,28.4c-0.3,0-0.6-0.1-0.8-0.4c-0.2-0.2-0.4-0.5-0.4-0.8s0.1-0.6,0.4-0.8c0.2-0.2,0.5-0.4,0.8-0.4
				s0.6,0.1,0.8,0.4s0.4,0.5,0.4,0.8s-0.1,0.6-0.4,0.8S129.9,28.4,129.5,28.4z"/>
			<path class="st0" d="M131.6,32.6c-0.4,0-0.7-0.1-0.9-0.4c-0.2-0.2-0.4-0.6-0.4-0.9s0.1-0.7,0.4-0.9c0.2-0.2,0.6-0.4,0.9-0.4
				s0.7,0.1,0.9,0.4c0.2,0.2,0.4,0.6,0.4,0.9s-0.1,0.7-0.4,0.9C132.3,32.4,131.9,32.6,131.6,32.6z"/>
			<path class="st0" d="M133,37c-0.4,0-0.7-0.2-1-0.4c-0.2-0.2-0.4-0.6-0.4-1s0.2-0.7,0.4-1c0.2-0.2,0.6-0.4,1-0.4s0.7,0.2,1,0.4
				c0.2,0.2,0.4,0.6,0.4,1s-0.2,0.7-0.4,1C133.7,36.8,133.4,37,133,37z"/>
			<path class="st0" d="M133.8,41.6c-0.4,0-0.8-0.2-1-0.4c-0.3-0.3-0.4-0.6-0.4-1s0.2-0.8,0.4-1c0.3-0.3,0.6-0.4,1-0.4
				s0.8,0.2,1,0.4c0.3,0.3,0.4,0.6,0.4,1s-0.2,0.8-0.4,1C134.6,41.4,134.2,41.6,133.8,41.6z"/>
			<path class="st0" d="M133.9,46.2c-0.4,0-0.8-0.2-1.1-0.4c-0.3-0.3-0.4-0.7-0.4-1.1s0.2-0.8,0.4-1.1c0.3-0.3,0.7-0.4,1.1-0.4
				s0.8,0.2,1.1,0.4c0.3,0.3,0.4,0.7,0.4,1.1s-0.2,0.8-0.4,1.1C134.7,46,134.3,46.2,133.9,46.2z"/>
			<path class="st0" d="M133.4,50.8c-0.4,0-0.8-0.2-1.1-0.5s-0.5-0.7-0.5-1.1s0.2-0.8,0.5-1.1s0.7-0.5,1.1-0.5
				c0.4,0,0.8,0.2,1.1,0.5s0.5,0.7,0.5,1.1s-0.2,0.8-0.5,1.1S133.8,50.8,133.4,50.8z"/>
			<path class="st0" d="M132.1,55.3c-0.5,0-0.9-0.2-1.2-0.5s-0.5-0.7-0.5-1.2s0.2-0.9,0.5-1.2s0.7-0.5,1.2-0.5s0.9,0.2,1.2,0.5
				s0.5,0.7,0.5,1.2s-0.2,0.9-0.5,1.2S132.6,55.3,132.1,55.3z"/>
		</g>
		<g>
			<path class="st0" d="M74.1,41c-0.5,0-0.9-0.2-1.2-0.5c-0.3-0.3-0.5-0.7-0.5-1.2s0.2-0.9,0.5-1.2s0.7-0.5,1.2-0.5s0.9,0.2,1.2,0.5
				c0.3,0.3,0.5,0.7,0.5,1.2s-0.2,0.9-0.5,1.2C75,40.8,74.5,41,74.1,41z"/>
			<path class="st0" d="M73.8,45.3c-0.4,0-0.8-0.2-1.1-0.5c-0.3-0.3-0.5-0.7-0.5-1.1c0-0.4,0.2-0.8,0.5-1.1s0.7-0.5,1.1-0.5
				s0.8,0.2,1.1,0.5c0.3,0.3,0.5,0.7,0.5,1.1c0,0.4-0.2,0.8-0.5,1.1S74.2,45.3,73.8,45.3z"/>
			<path class="st0" d="M74.2,49.7c-0.4,0-0.8-0.2-1.1-0.4c-0.3-0.3-0.4-0.7-0.4-1.1c0-0.4,0.2-0.8,0.4-1.1c0.3-0.3,0.7-0.4,1.1-0.4
				s0.8,0.2,1.1,0.4c0.3,0.3,0.4,0.7,0.4,1.1c0,0.4-0.2,0.8-0.4,1.1C75,49.5,74.7,49.7,74.2,49.7z"/>
			<path class="st0" d="M75.3,53.9c-0.4,0-0.8-0.2-1-0.4c-0.3-0.3-0.4-0.6-0.4-1s0.2-0.8,0.4-1c0.3-0.3,0.6-0.4,1-0.4s0.8,0.2,1,0.4
				s0.4,0.6,0.4,1s-0.2,0.8-0.4,1S75.7,53.9,75.3,53.9z"/>
			<path class="st0" d="M77.1,57.9c-0.4,0-0.7-0.2-1-0.4c-0.2-0.2-0.4-0.6-0.4-1s0.1-0.7,0.4-1c0.2-0.2,0.6-0.4,1-0.4s0.7,0.2,1,0.4
				c0.2,0.2,0.4,0.6,0.4,1s-0.1,0.7-0.4,1C77.8,57.7,77.5,57.9,77.1,57.9z"/>
			<path class="st0" d="M79.4,61.6c-0.3,0-0.7-0.1-0.9-0.4c-0.2-0.2-0.4-0.5-0.4-0.9c0-0.3,0.1-0.7,0.4-0.9c0.2-0.2,0.5-0.4,0.9-0.4
				c0.3,0,0.7,0.1,0.9,0.4c0.2,0.2,0.4,0.5,0.4,0.9c0,0.3-0.1,0.7-0.4,0.9C80.1,61.4,79.8,61.6,79.4,61.6z"/>
			<path class="st0" d="M82.3,64.9c-0.3,0-0.6-0.1-0.8-0.3c-0.2-0.2-0.3-0.5-0.3-0.8s0.1-0.6,0.3-0.8c0.2-0.2,0.5-0.3,0.8-0.3
				s0.6,0.1,0.8,0.3c0.2,0.2,0.3,0.5,0.3,0.8s-0.1,0.6-0.3,0.8C83,64.7,82.7,64.9,82.3,64.9z"/>
			<path class="st0" d="M85.7,67.7c-0.3,0-0.6-0.1-0.8-0.3c-0.2-0.2-0.3-0.5-0.3-0.8s0.1-0.6,0.3-0.8c0.2-0.2,0.5-0.3,0.8-0.3
				s0.6,0.1,0.8,0.3c0.2,0.2,0.3,0.5,0.3,0.8s-0.1,0.6-0.3,0.8C86.3,67.5,86,67.7,85.7,67.7z"/>
			<path class="st0" d="M89.5,69.9c-0.3,0-0.5-0.1-0.7-0.3c-0.2-0.2-0.3-0.4-0.3-0.7s0.1-0.5,0.3-0.7c0.2-0.2,0.4-0.3,0.7-0.3
				c0.3,0,0.5,0.1,0.7,0.3s0.3,0.4,0.3,0.7s-0.1,0.5-0.3,0.7C90,69.8,89.8,69.9,89.5,69.9z"/>
			<path class="st0" d="M93.6,71.6c-0.3,0-0.5-0.1-0.7-0.3c-0.2-0.2-0.3-0.4-0.3-0.7c0-0.3,0.1-0.5,0.3-0.7c0.2-0.2,0.4-0.3,0.7-0.3
				c0.3,0,0.5,0.1,0.7,0.3c0.2,0.2,0.3,0.4,0.3,0.7c0,0.3-0.1,0.5-0.3,0.7C94.1,71.5,93.8,71.6,93.6,71.6z"/>
			<path class="st0" d="M97.9,72.6c-0.2,0-0.4-0.1-0.6-0.2c-0.2-0.2-0.2-0.4-0.2-0.6s0.1-0.4,0.2-0.6c0.2-0.2,0.4-0.2,0.6-0.2
				s0.4,0.1,0.6,0.2c0.2,0.2,0.2,0.4,0.2,0.6s-0.1,0.4-0.2,0.6C98.3,72.5,98.1,72.6,97.9,72.6z"/>
			<path class="st0" d="M102.3,72.9c-0.2,0-0.4-0.1-0.5-0.2s-0.2-0.3-0.2-0.5s0.1-0.4,0.2-0.5s0.3-0.2,0.5-0.2s0.4,0.1,0.5,0.2
				s0.2,0.3,0.2,0.5s-0.1,0.4-0.2,0.5C102.7,72.8,102.5,72.9,102.3,72.9z"/>
			<path class="st0" d="M106.8,72.5c-0.2,0-0.4-0.1-0.5-0.2s-0.2-0.3-0.2-0.5s0.1-0.4,0.2-0.5s0.3-0.2,0.5-0.2s0.4,0.1,0.5,0.2
				s0.2,0.3,0.2,0.5s-0.1,0.4-0.2,0.5C107.1,72.4,107,72.5,106.8,72.5z"/>
			<path class="st0" d="M111.1,71.5c-0.2,0-0.3-0.1-0.4-0.2s-0.2-0.3-0.2-0.4s0.1-0.3,0.2-0.4s0.3-0.2,0.4-0.2
				c0.2,0,0.3,0.1,0.4,0.2s0.2,0.3,0.2,0.4s-0.1,0.3-0.2,0.4S111.3,71.5,111.1,71.5z"/>
			<path class="st0" d="M115.3,69.8c-0.1,0-0.3-0.1-0.4-0.1c-0.1-0.1-0.1-0.2-0.1-0.4s0.1-0.3,0.1-0.4s0.2-0.1,0.4-0.1
				c0.1,0,0.3,0.1,0.4,0.1s0.1,0.2,0.1,0.4s-0.1,0.3-0.1,0.4C115.5,69.7,115.4,69.8,115.3,69.8z"/>
			<path class="st0" d="M119.1,67.5c-0.1,0-0.2,0-0.3-0.1c-0.1-0.1-0.1-0.2-0.1-0.3c0-0.1,0-0.2,0.1-0.3c0.1-0.1,0.2-0.1,0.3-0.1
				c0.1,0,0.2,0,0.3,0.1c0.1,0.1,0.1,0.2,0.1,0.3c0,0.1,0,0.2-0.1,0.3C119.3,67.4,119.2,67.5,119.1,67.5z"/>
			<path class="st0" d="M122.6,64.6c-0.1,0-0.2,0-0.2-0.1c-0.1-0.1-0.1-0.1-0.1-0.2s0-0.2,0.1-0.2c0.1-0.1,0.1-0.1,0.2-0.1
				s0.2,0,0.2,0.1c0.1,0.1,0.1,0.1,0.1,0.2s0,0.2-0.1,0.2C122.7,64.6,122.7,64.6,122.6,64.6z"/>
			<path class="st0" d="M125.6,61.2c-0.1,0-0.1,0-0.2-0.1c0,0-0.1-0.1-0.1-0.2c0-0.1,0-0.1,0.1-0.2c0,0,0.1-0.1,0.2-0.1
				s0.1,0,0.2,0.1s0.1,0.1,0.1,0.2c0,0.1,0,0.1-0.1,0.2S125.6,61.2,125.6,61.2z"/>
			<path class="st0" d="M128,57.5L128,57.5L128,57.5l-0.1-0.2h0.1h0.1v0.1v0.1C128.1,57.4,128.1,57.5,128,57.5z"/>
			<path class="st0" d="M129.9,53.3L129.9,53.3C129.8,53.3,129.8,53.3,129.9,53.3c-0.1-0.1-0.1-0.1-0.1-0.1S129.8,53.2,129.9,53.3
				c0.1-0.1,0-0.1,0.1-0.1C130,53.2,130,53.2,129.9,53.3C130,53.3,130,53.3,129.9,53.3L129.9,53.3z"/>
		</g>
		<g>
			<path class="st0" d="M76.3,39.7C76.3,39.7,76.2,39.7,76.3,39.7C76.2,39.7,76.2,39.7,76.3,39.7c-0.1-0.1-0.1-0.1-0.1-0.2
				c0,0,0,0,0.1,0c0,0,0,0,0.1,0C76.4,39.6,76.4,39.6,76.3,39.7C76.4,39.7,76.4,39.7,76.3,39.7L76.3,39.7z"/>
			<path class="st0" d="M77.3,35.4C77.2,35.4,77.2,35.4,77.3,35.4l-0.2-0.2c0-0.1,0-0.1,0.1-0.1l0.1-0.1c0.1,0,0.1,0,0.1,0.1
				l0.1,0.1C77.5,35.3,77.5,35.3,77.3,35.4C77.4,35.4,77.3,35.4,77.3,35.4z"/>
			<path class="st0" d="M79,31.3c-0.1,0-0.1,0-0.2-0.1s-0.1-0.1-0.1-0.2s0-0.1,0.1-0.2s0.1-0.1,0.2-0.1s0.1,0,0.2,0.1
				s0.1,0.1,0.1,0.2s0,0.1-0.1,0.2C79.1,31.2,79.1,31.3,79,31.3z"/>
			<path class="st0" d="M81.4,27.5c-0.1,0-0.2,0-0.3-0.1C81,27.3,81,27.2,81,27.1s0-0.2,0.1-0.3c0.1-0.1,0.2-0.1,0.3-0.1
				c0.1,0,0.2,0,0.3,0.1c0.1,0.1,0.1,0.2,0.1,0.3s0,0.2-0.1,0.3C81.6,27.5,81.5,27.5,81.4,27.5z"/>
			<path class="st0" d="M84.4,24.2c-0.1,0-0.2-0.1-0.3-0.1C84,24,84,23.9,84,23.7s0.1-0.2,0.1-0.3c0.1-0.1,0.2-0.1,0.3-0.1
				c0.1,0,0.2,0.1,0.3,0.1c0.1,0.1,0.1,0.2,0.1,0.3s-0.1,0.2-0.1,0.3C84.7,24.2,84.6,24.2,84.4,24.2z"/>
			<path class="st0" d="M88,21.5c-0.2,0-0.3-0.1-0.4-0.2s-0.2-0.2-0.2-0.4c0-0.2,0.1-0.3,0.2-0.4s0.2-0.2,0.4-0.2s0.3,0.1,0.4,0.2
				s0.2,0.2,0.2,0.4c0,0.2-0.1,0.3-0.2,0.4S88.1,21.5,88,21.5z"/>
			<path class="st0" d="M92,19.4c-0.2,0-0.3-0.1-0.5-0.2c-0.1-0.1-0.2-0.3-0.2-0.5s0.1-0.3,0.2-0.5c0.1-0.1,0.3-0.2,0.5-0.2
				s0.3,0.1,0.5,0.2c0.1,0.1,0.2,0.3,0.2,0.5s-0.1,0.3-0.2,0.5C92.3,19.3,92.2,19.4,92,19.4z"/>
			<path class="st0" d="M96.3,18c-0.2,0-0.4-0.1-0.5-0.2s-0.2-0.3-0.2-0.5s0.1-0.4,0.2-0.5s0.3-0.2,0.5-0.2s0.4,0.1,0.5,0.2
				s0.2,0.3,0.2,0.5s-0.1,0.4-0.2,0.5C96.7,17.9,96.5,18,96.3,18z"/>
			<path class="st0" d="M100.8,17.4c-0.2,0-0.4-0.1-0.6-0.2c-0.2-0.2-0.2-0.4-0.2-0.6s0.1-0.4,0.2-0.6c0.2-0.2,0.4-0.2,0.6-0.2
				s0.4,0.1,0.6,0.2c0.2,0.2,0.2,0.4,0.2,0.6s-0.1,0.4-0.2,0.6C101.2,17.3,101,17.4,100.8,17.4z"/>
			<path class="st0" d="M105.3,17.5c-0.3,0-0.5-0.1-0.7-0.3c-0.2-0.2-0.3-0.4-0.3-0.7c0-0.3,0.1-0.5,0.3-0.7
				c0.2-0.2,0.4-0.3,0.7-0.3c0.3,0,0.5,0.1,0.7,0.3s0.3,0.4,0.3,0.7s-0.1,0.5-0.3,0.7C105.8,17.4,105.6,17.5,105.3,17.5z"/>
			<path class="st0" d="M109.8,18.4c-0.3,0-0.5-0.1-0.7-0.3c-0.2-0.2-0.3-0.4-0.3-0.7c0-0.3,0.1-0.5,0.3-0.7
				c0.2-0.2,0.4-0.3,0.7-0.3s0.5,0.1,0.7,0.3c0.2,0.2,0.3,0.4,0.3,0.7c0,0.3-0.1,0.5-0.3,0.7C110.3,18.3,110.1,18.4,109.8,18.4z"/>
			<path class="st0" d="M114.1,20.1c-0.3,0-0.6-0.1-0.8-0.3c-0.2-0.2-0.3-0.5-0.3-0.8s0.1-0.6,0.3-0.8c0.2-0.2,0.5-0.3,0.8-0.3
				s0.6,0.1,0.8,0.3c0.2,0.2,0.3,0.5,0.3,0.8s-0.1,0.6-0.3,0.8C114.6,20,114.4,20.1,114.1,20.1z"/>
			<path class="st0" d="M118,22.5c-0.3,0-0.6-0.1-0.9-0.4c-0.2-0.2-0.4-0.5-0.4-0.9c0-0.3,0.1-0.6,0.4-0.9c0.2-0.2,0.5-0.4,0.9-0.4
				c0.3,0,0.6,0.1,0.9,0.4c0.2,0.2,0.4,0.5,0.4,0.9c0,0.3-0.1,0.6-0.4,0.9C118.6,22.3,118.3,22.5,118,22.5z"/>
			<path class="st0" d="M121.5,25.5c-0.4,0-0.7-0.1-0.9-0.4c-0.2-0.2-0.4-0.6-0.4-0.9c0-0.4,0.1-0.7,0.4-0.9
				c0.2-0.2,0.6-0.4,0.9-0.4s0.7,0.1,0.9,0.4c0.2,0.2,0.4,0.6,0.4,0.9c0,0.4-0.1,0.7-0.4,0.9C122.2,25.3,121.9,25.5,121.5,25.5z"/>
			<path class="st0" d="M124.5,29c-0.4,0-0.7-0.2-1-0.4c-0.3-0.3-0.4-0.6-0.4-1s0.2-0.7,0.4-1c0.3-0.3,0.6-0.4,1-0.4s0.7,0.2,1,0.4
				c0.3,0.3,0.4,0.6,0.4,1s-0.2,0.7-0.4,1C125.2,28.9,124.8,29,124.5,29z"/>
			<path class="st0" d="M126.8,33c-0.4,0-0.8-0.2-1.1-0.4c-0.3-0.3-0.4-0.6-0.4-1.1c0-0.4,0.2-0.8,0.4-1.1c0.3-0.3,0.6-0.4,1.1-0.4
				c0.4,0,0.8,0.2,1.1,0.4c0.3,0.3,0.4,0.6,0.4,1.1c0,0.4-0.2,0.8-0.4,1.1C127.6,32.8,127.2,33,126.8,33z"/>
			<path class="st0" d="M128.4,37.3c-0.4,0-0.8-0.2-1.1-0.5c-0.3-0.3-0.5-0.7-0.5-1.1c0-0.4,0.2-0.8,0.5-1.1s0.7-0.5,1.1-0.5
				c0.4,0,0.8,0.2,1.1,0.5s0.5,0.7,0.5,1.1c0,0.4-0.2,0.8-0.5,1.1C129.3,37.2,128.9,37.3,128.4,37.3z"/>
			<path class="st0" d="M129.3,41.9c-0.5,0-0.9-0.2-1.2-0.5s-0.5-0.7-0.5-1.2s0.2-0.9,0.5-1.2s0.7-0.5,1.2-0.5s0.9,0.2,1.2,0.5
				s0.5,0.7,0.5,1.2s-0.2,0.9-0.5,1.2S129.8,41.9,129.3,41.9z"/>
		</g>
		<g>
			<path class="st0" d="M80,53.8c-0.5,0-0.9-0.2-1.2-0.5c-0.3-0.3-0.5-0.7-0.5-1.2s0.2-0.9,0.5-1.2s0.7-0.5,1.2-0.5s0.9,0.2,1.2,0.5
				c0.3,0.3,0.5,0.7,0.5,1.2s-0.2,0.9-0.5,1.2C80.9,53.6,80.4,53.8,80,53.8z"/>
			<path class="st0" d="M81.9,57.6c-0.4,0-0.8-0.2-1.1-0.5c-0.3-0.3-0.5-0.7-0.5-1.1c0-0.4,0.2-0.8,0.5-1.1s0.7-0.5,1.1-0.5
				s0.8,0.2,1.1,0.5c0.3,0.3,0.5,0.7,0.5,1.1c0,0.4-0.2,0.8-0.5,1.1C82.8,57.4,82.4,57.6,81.9,57.6z"/>
			<path class="st0" d="M84.6,61c-0.4,0-0.8-0.2-1-0.4c-0.3-0.3-0.4-0.6-0.4-1s0.2-0.8,0.4-1c0.3-0.3,0.6-0.4,1-0.4s0.8,0.2,1,0.4
				c0.3,0.3,0.4,0.6,0.4,1s-0.2,0.8-0.4,1C85.4,60.9,85,61,84.6,61z"/>
			<path class="st0" d="M87.8,63.9c-0.4,0-0.7-0.2-1-0.4c-0.3-0.3-0.4-0.6-0.4-1s0.2-0.7,0.4-1c0.3-0.3,0.6-0.4,1-0.4s0.7,0.2,1,0.4
				c0.3,0.3,0.4,0.6,0.4,1s-0.2,0.7-0.4,1C88.5,63.8,88.2,63.9,87.8,63.9z"/>
			<path class="st0" d="M91.5,66.2c-0.4,0-0.7-0.1-0.9-0.4c-0.2-0.2-0.4-0.6-0.4-0.9c0-0.4,0.1-0.7,0.4-0.9c0.2-0.2,0.6-0.4,0.9-0.4
				s0.7,0.1,0.9,0.4c0.2,0.2,0.4,0.6,0.4,0.9c0,0.4-0.1,0.7-0.4,0.9C92.2,66,91.9,66.2,91.5,66.2z"/>
			<path class="st0" d="M95.6,67.7c-0.3,0-0.6-0.1-0.8-0.3c-0.2-0.2-0.3-0.5-0.3-0.8s0.1-0.6,0.3-0.8c0.2-0.2,0.5-0.3,0.8-0.3
				s0.6,0.1,0.8,0.3c0.2,0.2,0.3,0.5,0.3,0.8s-0.1,0.6-0.3,0.8S95.9,67.7,95.6,67.7z"/>
			<path class="st0" d="M99.9,68.6c-0.3,0-0.6-0.1-0.8-0.3s-0.3-0.5-0.3-0.8s0.1-0.6,0.3-0.8c0.2-0.2,0.5-0.3,0.8-0.3
				s0.6,0.1,0.8,0.3c0.2,0.2,0.3,0.5,0.3,0.8s-0.1,0.6-0.3,0.8C100.5,68.4,100.2,68.6,99.9,68.6z"/>
			<path class="st0" d="M104.3,68.6c-0.3,0-0.5-0.1-0.7-0.3c-0.2-0.2-0.3-0.4-0.3-0.7s0.1-0.5,0.3-0.7s0.4-0.3,0.7-0.3
				c0.3,0,0.5,0.1,0.7,0.3c0.2,0.2,0.3,0.4,0.3,0.7s-0.1,0.5-0.3,0.7C104.8,68.5,104.6,68.6,104.3,68.6z"/>
			<path class="st0" d="M108.6,67.8c-0.2,0-0.5-0.1-0.6-0.3c-0.2-0.2-0.3-0.4-0.3-0.6s0.1-0.5,0.3-0.6c0.2-0.2,0.4-0.3,0.6-0.3
				s0.5,0.1,0.6,0.3c0.2,0.2,0.3,0.4,0.3,0.6s-0.1,0.5-0.3,0.6C109.1,67.7,108.9,67.8,108.6,67.8z"/>
			<path class="st0" d="M112.8,66.3c-0.2,0-0.4-0.1-0.6-0.2c-0.1-0.1-0.2-0.3-0.2-0.6c0-0.2,0.1-0.4,0.2-0.6
				c0.1-0.1,0.3-0.2,0.6-0.2c0.2,0,0.4,0.1,0.6,0.2c0.1,0.1,0.2,0.3,0.2,0.6c0,0.2-0.1,0.4-0.2,0.6C113.2,66.2,113,66.3,112.8,66.3z
				"/>
			<path class="st0" d="M116.6,64c-0.2,0-0.4-0.1-0.5-0.2c-0.1-0.1-0.2-0.3-0.2-0.5s0.1-0.4,0.2-0.5s0.3-0.2,0.5-0.2
				s0.4,0.1,0.5,0.2c0.1,0.1,0.2,0.3,0.2,0.5s-0.1,0.4-0.2,0.5C117,63.9,116.8,64,116.6,64z"/>
			<path class="st0" d="M120,61.1c-0.2,0-0.3-0.1-0.4-0.2s-0.2-0.3-0.2-0.4c0-0.2,0.1-0.3,0.2-0.4c0.1-0.1,0.3-0.2,0.4-0.2
				s0.3,0.1,0.4,0.2c0.1,0.1,0.2,0.3,0.2,0.4c0,0.2-0.1,0.3-0.2,0.4S120.2,61.1,120,61.1z"/>
			<path class="st0" d="M122.8,57.6c-0.1,0-0.3-0.1-0.3-0.1c-0.1-0.1-0.1-0.2-0.1-0.3s0.1-0.3,0.1-0.3c0.1-0.1,0.2-0.1,0.3-0.1
				c0.1,0,0.3,0.1,0.3,0.1c0.1,0.1,0.1,0.2,0.1,0.3s-0.1,0.3-0.1,0.3C123.1,57.6,123,57.6,122.8,57.6z"/>
			<path class="st0" d="M125,53.7c-0.1,0-0.2,0-0.3-0.1c-0.1-0.1-0.1-0.2-0.1-0.3s0-0.2,0.1-0.3s0.2-0.1,0.3-0.1
				c0.1,0,0.2,0,0.3,0.1c0.1,0.1,0.1,0.2,0.1,0.3s0,0.2-0.1,0.3C125.2,53.7,125.1,53.7,125,53.7z"/>
			<path class="st0" d="M126.5,49.4c-0.1,0-0.2,0-0.2-0.1c-0.1-0.1-0.1-0.1-0.1-0.2s0-0.2,0.1-0.2c0.1-0.1,0.1-0.1,0.2-0.1
				s0.2,0,0.2,0.1c0.1,0.1,0.1,0.1,0.1,0.2s0,0.2-0.1,0.2C126.6,49.4,126.6,49.4,126.5,49.4z"/>
			<path class="st0" d="M127.2,45C127.1,45,127.1,45,127.2,45l-0.2-0.2c0-0.1,0-0.1,0.1-0.1l0.1-0.1c0.1,0,0.1,0,0.1,0.1
				s0.1,0.1,0.1,0.1C127.4,44.9,127.4,44.9,127.2,45C127.3,45,127.2,45,127.2,45z"/>
			<path class="st0" d="M127.1,40.5C127,40.5,127,40.5,127.1,40.5C127,40.5,127,40.4,127.1,40.5c-0.1-0.1-0.1-0.2-0.1-0.2s0,0,0.1,0
				h0.1C127.2,40.4,127.2,40.4,127.1,40.5C127.2,40.4,127.2,40.5,127.1,40.5L127.1,40.5z"/>
		</g>
		<g>
			<path class="st0" d="M82.3,52L82.3,52C82.2,51.9,82.2,51.9,82.3,52l-0.1-0.2c0,0,0,0,0.1,0h0.1C82.4,51.8,82.4,51.8,82.3,52
				C82.4,51.9,82.4,52,82.3,52C82.4,52,82.3,52,82.3,52z"/>
			<path class="st0" d="M81,47.8c-0.1,0-0.1,0-0.2-0.1c0,0-0.1-0.1-0.1-0.2c0-0.1,0-0.1,0.1-0.2c0,0,0.1-0.1,0.2-0.1s0.1,0,0.2,0.1
				c0,0,0.1,0.1,0.1,0.2c0,0.1,0,0.1-0.1,0.2C81.1,47.8,81,47.8,81,47.8z"/>
			<path class="st0" d="M80.5,43.4c-0.1,0-0.2,0-0.2-0.1c-0.1-0.1-0.1-0.1-0.1-0.2c0-0.1,0-0.2,0.1-0.2c0.1-0.1,0.1-0.1,0.2-0.1
				s0.2,0,0.2,0.1c0.1,0.1,0.1,0.1,0.1,0.2c0,0.1,0,0.2-0.1,0.2C80.7,43.4,80.6,43.4,80.5,43.4z"/>
			<path class="st0" d="M81,39.1c-0.1,0-0.2,0-0.3-0.1c-0.1-0.1-0.1-0.2-0.1-0.3s0.1-0.2,0.1-0.3c0.1-0.1,0.2-0.1,0.3-0.1
				c0.1,0,0.2,0,0.3,0.1c0.1,0.1,0.1,0.2,0.1,0.3s0,0.2-0.1,0.3C81.2,39,81.1,39.1,81,39.1z"/>
			<path class="st0" d="M82.4,34.9c-0.2,0-0.3-0.1-0.4-0.2c-0.1-0.1-0.2-0.2-0.2-0.4s0.1-0.3,0.2-0.4c0.1-0.1,0.2-0.2,0.4-0.2
				c0.2,0,0.3,0.1,0.4,0.2c0.1,0.1,0.2,0.2,0.2,0.4s-0.1,0.3-0.2,0.4C82.7,34.8,82.5,34.9,82.4,34.9z"/>
			<path class="st0" d="M84.6,31c-0.2,0-0.4-0.1-0.5-0.2s-0.2-0.3-0.2-0.5s0.1-0.4,0.2-0.5s0.3-0.2,0.5-0.2s0.4,0.1,0.5,0.2
				s0.2,0.3,0.2,0.5s-0.1,0.4-0.2,0.5C84.9,31,84.8,31,84.6,31z"/>
			<path class="st0" d="M87.6,27.7c-0.2,0-0.4-0.1-0.6-0.2c-0.1-0.1-0.2-0.3-0.2-0.6c0-0.2,0.1-0.4,0.2-0.6c0.1-0.1,0.3-0.2,0.6-0.2
				c0.2,0,0.4,0.1,0.6,0.2c0.1,0.1,0.2,0.3,0.2,0.6c0,0.2-0.1,0.4-0.2,0.6S87.8,27.7,87.6,27.7z"/>
			<path class="st0" d="M91.1,25.1c-0.2,0-0.5-0.1-0.6-0.3c-0.2-0.2-0.3-0.4-0.3-0.6s0.1-0.5,0.3-0.6c0.2-0.2,0.4-0.3,0.6-0.3
				s0.5,0.1,0.6,0.3c0.2,0.2,0.3,0.4,0.3,0.6s-0.1,0.5-0.3,0.6C91.6,25,91.4,25.1,91.1,25.1z"/>
			<path class="st0" d="M95.2,23.3c-0.3,0-0.5-0.1-0.7-0.3c-0.2-0.2-0.3-0.4-0.3-0.7c0-0.3,0.1-0.5,0.3-0.7c0.2-0.2,0.4-0.3,0.7-0.3
				c0.3,0,0.5,0.1,0.7,0.3c0.2,0.2,0.3,0.4,0.3,0.7c0,0.3-0.1,0.5-0.3,0.7C95.8,23.2,95.5,23.3,95.2,23.3z"/>
			<path class="st0" d="M99.6,22.3c-0.3,0-0.6-0.1-0.8-0.3c-0.2-0.2-0.3-0.5-0.3-0.8s0.1-0.6,0.3-0.8c0.2-0.2,0.5-0.3,0.8-0.3
				s0.6,0.1,0.8,0.3c0.2,0.2,0.3,0.5,0.3,0.8s-0.1,0.6-0.3,0.8C100.2,22.2,99.9,22.3,99.6,22.3z"/>
			<path class="st0" d="M104.1,22.2c-0.3,0-0.6-0.1-0.9-0.4c-0.2-0.2-0.4-0.5-0.4-0.9c0-0.3,0.1-0.6,0.4-0.9
				c0.2-0.2,0.5-0.4,0.9-0.4c0.3,0,0.6,0.1,0.9,0.4c0.2,0.2,0.4,0.5,0.4,0.9c0,0.3-0.1,0.6-0.4,0.9
				C104.8,22.1,104.5,22.2,104.1,22.2z"/>
			<path class="st0" d="M108.6,23.1c-0.4,0-0.7-0.1-1-0.4c-0.2-0.2-0.4-0.6-0.4-1s0.2-0.7,0.4-1c0.2-0.2,0.6-0.4,1-0.4
				s0.7,0.1,1,0.4c0.2,0.2,0.4,0.6,0.4,1s-0.2,0.7-0.4,1C109.3,22.9,109,23.1,108.6,23.1z"/>
			<path class="st0" d="M112.8,24.8c-0.4,0-0.8-0.2-1-0.4c-0.3-0.3-0.4-0.6-0.4-1s0.2-0.8,0.4-1c0.3-0.3,0.6-0.4,1-0.4
				s0.8,0.2,1,0.4c0.3,0.3,0.4,0.6,0.4,1s-0.2,0.8-0.4,1S113.2,24.8,112.8,24.8z"/>
			<path class="st0" d="M116.6,27.3c-0.4,0-0.8-0.2-1.1-0.5c-0.3-0.3-0.5-0.7-0.5-1.1s0.2-0.8,0.5-1.1s0.7-0.5,1.1-0.5
				s0.8,0.2,1.1,0.5c0.3,0.3,0.5,0.7,0.5,1.1s-0.2,0.8-0.5,1.1C117.4,27.2,117,27.3,116.6,27.3z"/>
			<path class="st0" d="M119.8,30.6c-0.5,0-0.9-0.2-1.2-0.5s-0.5-0.7-0.5-1.2s0.2-0.9,0.5-1.2s0.7-0.5,1.2-0.5s0.9,0.2,1.2,0.5
				s0.5,0.7,0.5,1.2s-0.2,0.9-0.5,1.2S120.3,30.6,119.8,30.6z"/>
		</g>
		<g>
			<path class="st0" d="M92.6,62c-0.5,0-0.9-0.2-1.2-0.5c-0.3-0.3-0.5-0.7-0.5-1.2s0.2-0.9,0.5-1.2s0.7-0.5,1.2-0.5s0.9,0.2,1.2,0.5
				c0.3,0.3,0.5,0.7,0.5,1.2s-0.2,0.9-0.5,1.2C93.5,61.9,93,62,92.6,62z"/>
			<path class="st0" d="M96.5,63.7c-0.4,0-0.8-0.2-1.1-0.5s-0.4-0.6-0.4-1c0-0.4,0.2-0.8,0.5-1.1s0.7-0.5,1.1-0.5s0.8,0.2,1.1,0.5
				s0.5,0.7,0.5,1.1c0,0.4-0.2,0.8-0.5,1.1S97,63.7,96.5,63.7z"/>
			<path class="st0" d="M100.8,64.5c-0.4,0-0.8-0.2-1-0.4c-0.3-0.3-0.4-0.6-0.4-1s0.2-0.8,0.4-1s0.6-0.4,1-0.4s0.8,0.2,1,0.4
				s0.4,0.6,0.4,1s-0.2,0.8-0.4,1C101.5,64.3,101.2,64.5,100.8,64.5z"/>
			<path class="st0" d="M105.1,64.3c-0.4,0-0.7-0.1-0.9-0.4c-0.2-0.2-0.4-0.6-0.4-0.9s0.1-0.7,0.4-0.9c0.2-0.2,0.6-0.4,0.9-0.4
				c0.4,0,0.7,0.1,0.9,0.4c0.2,0.2,0.4,0.6,0.4,0.9s-0.1,0.7-0.4,0.9C105.8,64.2,105.5,64.3,105.1,64.3z"/>
			<path class="st0" d="M109.3,63.2c-0.3,0-0.6-0.1-0.8-0.4c-0.2-0.2-0.4-0.5-0.4-0.8s0.1-0.6,0.4-0.8c0.2-0.2,0.5-0.4,0.8-0.4
				s0.6,0.1,0.8,0.4c0.2,0.2,0.4,0.5,0.4,0.8s-0.1,0.6-0.4,0.8C110,63.1,109.7,63.2,109.3,63.2z"/>
			<path class="st0" d="M113.2,61.3c-0.3,0-0.6-0.1-0.8-0.3c-0.2-0.2-0.3-0.5-0.3-0.8s0.1-0.6,0.3-0.8c0.2-0.2,0.5-0.3,0.8-0.3
				s0.6,0.1,0.8,0.3c0.2,0.2,0.3,0.5,0.3,0.8s-0.1,0.6-0.3,0.8C113.8,61.1,113.5,61.3,113.2,61.3z"/>
			<path class="st0" d="M116.7,58.5c-0.3,0-0.5-0.1-0.7-0.3s-0.3-0.4-0.3-0.7s0.1-0.5,0.3-0.7c0.2-0.2,0.4-0.3,0.7-0.3
				c0.3,0,0.5,0.1,0.7,0.3s0.3,0.4,0.3,0.7s-0.1,0.5-0.3,0.7C117.2,58.4,116.9,58.5,116.7,58.5z"/>
			<path class="st0" d="M119.4,55c-0.2,0-0.4-0.1-0.6-0.2c-0.2-0.2-0.2-0.4-0.2-0.6c0-0.2,0.1-0.4,0.2-0.6c0.2-0.2,0.4-0.2,0.6-0.2
				s0.4,0.1,0.6,0.2c0.2,0.2,0.2,0.4,0.2,0.6c0,0.2-0.1,0.4-0.2,0.6C119.9,54.9,119.7,55,119.4,55z"/>
			<path class="st0" d="M121.4,51c-0.2,0-0.4-0.1-0.5-0.2c-0.1-0.1-0.2-0.3-0.2-0.5s0.1-0.4,0.2-0.5s0.3-0.2,0.5-0.2
				s0.4,0.1,0.5,0.2c0.1,0.1,0.2,0.3,0.2,0.5s-0.1,0.4-0.2,0.5C121.8,51,121.6,51,121.4,51z"/>
			<path class="st0" d="M122.5,46.7c-0.2,0-0.3-0.1-0.4-0.2c-0.1-0.1-0.2-0.3-0.2-0.4c0-0.2,0.1-0.3,0.2-0.4
				c0.1-0.1,0.3-0.2,0.4-0.2c0.2,0,0.3,0.1,0.4,0.2c0.1,0.1,0.2,0.3,0.2,0.4c0,0.2-0.1,0.3-0.2,0.4
				C122.8,46.7,122.7,46.7,122.5,46.7z"/>
			<path class="st0" d="M122.7,42.3c-0.1,0-0.3-0.1-0.3-0.1c-0.1-0.1-0.1-0.2-0.1-0.3s0.1-0.3,0.1-0.3c0.1-0.1,0.2-0.1,0.3-0.1
				c0.1,0,0.3,0.1,0.3,0.1c0.1,0.1,0.1,0.2,0.1,0.3s-0.1,0.3-0.1,0.3C122.9,42.2,122.8,42.3,122.7,42.3z"/>
			<path class="st0" d="M121.9,37.9c-0.1,0-0.2,0-0.3-0.1c-0.1-0.1-0.1-0.2-0.1-0.3s0-0.2,0.1-0.3s0.2-0.1,0.3-0.1s0.2,0,0.3,0.1
				c0.1,0.1,0.1,0.2,0.1,0.3s0,0.2-0.1,0.3C122.1,37.8,122,37.9,121.9,37.9z"/>
			<path class="st0" d="M120.3,33.8c-0.1,0-0.1,0-0.2-0.1c0,0-0.1-0.1-0.1-0.2c0-0.1,0-0.1,0.1-0.2c0,0,0.1-0.1,0.2-0.1
				s0.1,0,0.2,0.1c0,0,0.1,0.1,0.1,0.2c0,0.1,0,0.1-0.1,0.2C120.4,33.7,120.3,33.8,120.3,33.8z"/>
			<path class="st0" d="M117.8,30.1C117.7,30.1,117.7,30.1,117.8,30.1c-0.1-0.1-0.1-0.1-0.1-0.1v-0.1h0.1h0.1V30
				C117.9,30,117.9,30,117.8,30.1L117.8,30.1z"/>
		</g>
		<g>
			<path class="st0" d="M93.3,58.3C93.2,58.3,93.2,58.3,93.3,58.3C93.2,58.2,93.2,58.2,93.3,58.3l-0.1-0.2h0.1h0.1L93.3,58.3
				C93.4,58.2,93.4,58.2,93.3,58.3L93.3,58.3z"/>
			<path class="st0" d="M89.8,55.6c-0.1,0-0.1,0-0.2-0.1s-0.1-0.1-0.1-0.2c0-0.1,0-0.1,0.1-0.2c0.1-0.1,0.1-0.1,0.2-0.1
				s0.1,0,0.2,0.1s0.1,0.1,0.1,0.2c0,0.1,0,0.1-0.1,0.2C90,55.6,89.9,55.6,89.8,55.6z"/>
			<path class="st0" d="M87.2,52.1c-0.1,0-0.2,0-0.3-0.1c-0.1-0.1-0.1-0.2-0.1-0.3s0-0.2,0.1-0.3s0.2-0.1,0.3-0.1
				c0.1,0,0.2,0,0.3,0.1c0.1,0.1,0.1,0.2,0.1,0.3s0,0.2-0.1,0.3S87.3,52.1,87.2,52.1z"/>
			<path class="st0" d="M85.6,48.1c-0.2,0-0.3-0.1-0.4-0.2c-0.1-0.1-0.2-0.2-0.2-0.4s0.1-0.3,0.2-0.4c0.1-0.1,0.2-0.2,0.4-0.2
				c0.2,0,0.3,0.1,0.4,0.2c0.1,0.1,0.2,0.2,0.2,0.4s-0.1,0.3-0.2,0.4S85.7,48.1,85.6,48.1z"/>
			<path class="st0" d="M85,43.8c-0.2,0-0.4-0.1-0.5-0.2c-0.1-0.1-0.2-0.3-0.2-0.5s0.1-0.4,0.2-0.5s0.3-0.2,0.5-0.2s0.4,0.1,0.5,0.2
				c0.1,0.1,0.2,0.3,0.2,0.5s-0.1,0.4-0.2,0.5C85.4,43.7,85.2,43.8,85,43.8z"/>
			<path class="st0" d="M85.6,39.5c-0.2,0-0.4-0.1-0.6-0.2c-0.2-0.2-0.2-0.4-0.2-0.6c0-0.2,0.1-0.4,0.2-0.6c0.2-0.2,0.4-0.2,0.6-0.2
				s0.4,0.1,0.6,0.2c0.2,0.2,0.2,0.4,0.2,0.6c0,0.2-0.1,0.4-0.2,0.6C86,39.4,85.8,39.5,85.6,39.5z"/>
			<path class="st0" d="M87.3,35.5c-0.3,0-0.5-0.1-0.7-0.3s-0.3-0.4-0.3-0.7s0.1-0.5,0.3-0.7c0.2-0.2,0.4-0.3,0.7-0.3
				s0.5,0.1,0.7,0.3s0.3,0.4,0.3,0.7S88.2,35,88,35.2S87.5,35.5,87.3,35.5z"/>
			<path class="st0" d="M89.9,32c-0.3,0-0.6-0.1-0.8-0.3c-0.2-0.2-0.3-0.5-0.3-0.8s0.1-0.6,0.3-0.8c0.2-0.2,0.5-0.3,0.8-0.3
				s0.6,0.1,0.8,0.3c0.2,0.2,0.3,0.5,0.3,0.8s-0.1,0.6-0.3,0.8S90.2,32,89.9,32z"/>
			<path class="st0" d="M93.4,29.4c-0.3,0-0.7-0.1-0.9-0.4c-0.2-0.2-0.4-0.5-0.4-0.9s0.1-0.7,0.4-0.9c0.2-0.2,0.5-0.4,0.9-0.4
				c0.3,0,0.7,0.1,0.9,0.4s0.4,0.5,0.4,0.9s-0.1,0.7-0.4,0.9S93.7,29.4,93.4,29.4z"/>
			<path class="st0" d="M97.5,27.6c-0.4,0-0.7-0.2-1-0.4c-0.3-0.3-0.4-0.6-0.4-1s0.2-0.7,0.4-1c0.3-0.3,0.6-0.4,1-0.4s0.7,0.2,1,0.4
				c0.3,0.3,0.4,0.6,0.4,1s-0.2,0.7-0.4,1C98.2,27.5,97.8,27.6,97.5,27.6z"/>
			<path class="st0" d="M101.9,27c-0.4,0-0.8-0.2-1.1-0.5s-0.5-0.7-0.5-1.1s0.2-0.8,0.5-1.1c0.3-0.3,0.7-0.5,1.1-0.5
				s0.8,0.2,1.1,0.5c0.3,0.3,0.5,0.7,0.5,1.1s-0.2,0.8-0.5,1.1S102.3,27,101.9,27z"/>
			<path class="st0" d="M106.3,27.5c-0.5,0-0.9-0.2-1.2-0.5s-0.5-0.7-0.5-1.2s0.2-0.9,0.5-1.2s0.7-0.5,1.2-0.5s0.9,0.2,1.2,0.5
				c0.3,0.3,0.5,0.7,0.5,1.2s-0.2,0.9-0.5,1.2C107.2,27.3,106.8,27.5,106.3,27.5z"/>
		</g>
		<g>
			<path class="st0" d="M104.5,60.3c-0.5,0-0.9-0.2-1.2-0.5c-0.3-0.3-0.5-0.7-0.5-1.2s0.2-0.9,0.5-1.2s0.7-0.5,1.2-0.5
				s0.9,0.2,1.2,0.5s0.5,0.7,0.5,1.2s-0.2,0.9-0.5,1.2S105,60.3,104.5,60.3z"/>
			<path class="st0" d="M109,58.9c-0.4,0-0.8-0.2-1.1-0.4c-0.3-0.3-0.4-0.7-0.4-1.1c0-0.4,0.2-0.8,0.4-1.1c0.3-0.3,0.7-0.4,1.1-0.4
				s0.8,0.2,1.1,0.4c0.3,0.3,0.4,0.7,0.4,1.1c0,0.4-0.2,0.8-0.4,1.1C109.8,58.7,109.4,58.9,109,58.9z"/>
			<path class="st0" d="M112.9,56.2c-0.4,0-0.7-0.2-1-0.4c-0.2-0.2-0.4-0.6-0.4-1s0.2-0.7,0.4-1c0.2-0.2,0.6-0.4,1-0.4
				s0.7,0.2,1,0.4c0.2,0.2,0.4,0.6,0.4,1s-0.2,0.7-0.4,1C113.7,56,113.3,56.2,112.9,56.2z"/>
			<path class="st0" d="M116,52.5c-0.3,0-0.6-0.1-0.8-0.3c-0.2-0.2-0.3-0.5-0.3-0.8s0.1-0.6,0.3-0.8c0.2-0.2,0.5-0.3,0.8-0.3
				s0.6,0.1,0.8,0.3c0.2,0.2,0.3,0.5,0.3,0.8s-0.1,0.6-0.3,0.8C116.6,52.3,116.3,52.5,116,52.5z"/>
			<path class="st0" d="M117.8,48c-0.3,0-0.5-0.1-0.7-0.3s-0.3-0.4-0.3-0.7s0.1-0.5,0.3-0.7c0.2-0.2,0.4-0.3,0.7-0.3
				c0.3,0,0.5,0.1,0.7,0.3s0.3,0.4,0.3,0.7s-0.1,0.5-0.3,0.7C118.3,47.9,118.1,48,117.8,48z"/>
			<path class="st0" d="M118.2,43.2c-0.2,0-0.4-0.1-0.6-0.2c-0.2-0.2-0.2-0.4-0.2-0.6c0-0.2,0.1-0.4,0.2-0.6
				c0.2-0.2,0.4-0.2,0.6-0.2s0.4,0.1,0.6,0.2c0.2,0.2,0.2,0.4,0.2,0.6c0,0.2-0.1,0.4-0.2,0.6C118.7,43.1,118.5,43.2,118.2,43.2z"/>
			<path class="st0" d="M117.3,38.5c-0.2,0-0.4-0.1-0.5-0.2c-0.1-0.1-0.2-0.3-0.2-0.5s0.1-0.4,0.2-0.5s0.3-0.2,0.5-0.2
				s0.4,0.1,0.5,0.2c0.1,0.1,0.2,0.3,0.2,0.5s-0.1,0.4-0.2,0.5C117.7,38.4,117.5,38.5,117.3,38.5z"/>
			<path class="st0" d="M115.1,34.2c-0.1,0-0.3-0.1-0.4-0.1c-0.1-0.1-0.1-0.2-0.1-0.4c0-0.1,0.1-0.3,0.1-0.4s0.2-0.1,0.4-0.1
				s0.3,0.1,0.4,0.1s0.1,0.2,0.1,0.4c0,0.1-0.1,0.3-0.1,0.4C115.3,34.2,115.2,34.2,115.1,34.2z"/>
			<path class="st0" d="M111.7,30.8c-0.1,0-0.2,0-0.2-0.1c-0.1-0.1-0.1-0.1-0.1-0.2s0-0.2,0.1-0.2c0.1-0.1,0.1-0.1,0.2-0.1
				s0.2,0,0.2,0.1c0.1,0.1,0.1,0.1,0.1,0.2s0,0.2-0.1,0.2C111.9,30.8,111.8,30.8,111.7,30.8z"/>
			<path class="st0" d="M107.5,28.6L107.5,28.6l-0.1-0.1v-0.1h0.1h0.1v0.1L107.5,28.6C107.6,28.6,107.6,28.6,107.5,28.6z"/>
		</g>
		<g>
			<path class="st0" d="M102.9,56.6C102.8,56.6,102.8,56.6,102.9,56.6l-0.2-0.2c0-0.1,0-0.1,0.1-0.1l0.1-0.1c0.1,0,0.1,0,0.1,0.1
				l0.1,0.1C103.1,56.5,103.1,56.5,102.9,56.6C103,56.6,102.9,56.6,102.9,56.6z"/>
			<path class="st0" d="M98.5,56.1c-0.1,0-0.2,0-0.3-0.1c-0.1-0.1-0.1-0.2-0.1-0.3s0-0.2,0.1-0.3s0.2-0.1,0.3-0.1
				c0.1,0,0.2,0,0.3,0.1c0.1,0.1,0.1,0.2,0.1,0.3s0,0.2-0.1,0.3C98.7,56.1,98.7,56.1,98.5,56.1z"/>
			<path class="st0" d="M94.7,54.2c-0.2,0-0.3-0.1-0.4-0.2c-0.1-0.1-0.2-0.2-0.2-0.4s0.1-0.3,0.2-0.4c0.1-0.1,0.2-0.2,0.4-0.2
				c0.2,0,0.3,0.1,0.4,0.2c0.1,0.1,0.2,0.2,0.2,0.4s-0.1,0.3-0.2,0.4C95,54.2,94.8,54.2,94.7,54.2z"/>
			<path class="st0" d="M91.7,51.2c-0.2,0-0.4-0.1-0.5-0.2c-0.1-0.1-0.2-0.3-0.2-0.5s0.1-0.4,0.2-0.5s0.3-0.2,0.5-0.2
				s0.4,0.1,0.5,0.2c0.1,0.1,0.2,0.3,0.2,0.5s-0.1,0.4-0.2,0.5S91.9,51.2,91.7,51.2z"/>
			<path class="st0" d="M89.9,47.4c-0.3,0-0.5-0.1-0.7-0.3s-0.3-0.4-0.3-0.7s0.1-0.5,0.3-0.7c0.2-0.2,0.4-0.3,0.7-0.3
				c0.3,0,0.5,0.1,0.7,0.3s0.3,0.4,0.3,0.7s-0.1,0.5-0.3,0.7C90.4,47.3,90.2,47.4,89.9,47.4z"/>
			<path class="st0" d="M89.5,43.2c-0.3,0-0.6-0.1-0.8-0.3c-0.2-0.2-0.3-0.5-0.3-0.8s0.1-0.6,0.3-0.8c0.2-0.2,0.5-0.3,0.8-0.3
				s0.6,0.1,0.8,0.3c0.2,0.2,0.3,0.5,0.3,0.8s-0.1,0.6-0.3,0.8C90.1,43.1,89.9,43.2,89.5,43.2z"/>
			<path class="st0" d="M90.6,39.1c-0.4,0-0.7-0.1-0.9-0.4c-0.2-0.2-0.4-0.6-0.4-0.9c0-0.4,0.1-0.7,0.4-0.9c0.2-0.2,0.6-0.4,0.9-0.4
				c0.4,0,0.7,0.1,0.9,0.4c0.2,0.2,0.4,0.6,0.4,0.9c0,0.4-0.1,0.7-0.4,0.9C91.3,39,91,39.1,90.6,39.1z"/>
			<path class="st0" d="M93,35.6c-0.4,0-0.8-0.2-1.1-0.4c-0.3-0.3-0.4-0.6-0.4-1.1c0-0.4,0.2-0.8,0.4-1.1c0.3-0.3,0.6-0.4,1.1-0.4
				c0.4,0,0.8,0.2,1.1,0.4c0.3,0.3,0.4,0.6,0.4,1.1c0,0.4-0.2,0.8-0.4,1.1C93.8,35.5,93.5,35.6,93,35.6z"/>
			<path class="st0" d="M96.5,33.1c-0.5,0-0.9-0.2-1.2-0.5c-0.3-0.3-0.5-0.7-0.5-1.2s0.2-0.9,0.5-1.2c0.3-0.3,0.7-0.5,1.2-0.5
				s0.9,0.2,1.2,0.5c0.3,0.3,0.5,0.7,0.5,1.2s-0.2,0.9-0.5,1.2S97,33.1,96.5,33.1z"/>
		</g>
		<g>
			<path class="st0" d="M111.5,51.5c-0.5,0-0.9-0.2-1.2-0.5c-0.3-0.3-0.5-0.7-0.5-1.2s0.2-0.9,0.5-1.2s0.7-0.5,1.2-0.5
				s0.9,0.2,1.2,0.5c0.3,0.3,0.5,0.7,0.5,1.2s-0.2,0.9-0.5,1.2C112.4,51.3,112,51.5,111.5,51.5z"/>
			<path class="st0" d="M113.5,47.1c-0.4,0-0.8-0.2-1-0.4c-0.3-0.3-0.4-0.6-0.4-1s0.2-0.8,0.4-1c0.3-0.3,0.6-0.4,1-0.4
				s0.8,0.2,1,0.4c0.3,0.3,0.4,0.6,0.4,1s-0.2,0.8-0.4,1C114.3,46.9,113.9,47.1,113.5,47.1z"/>
			<path class="st0" d="M113.6,42.2c-0.3,0-0.6-0.1-0.8-0.4c-0.2-0.2-0.4-0.5-0.4-0.8s0.1-0.6,0.4-0.8c0.2-0.2,0.5-0.4,0.8-0.4
				s0.6,0.1,0.8,0.4c0.2,0.2,0.4,0.5,0.4,0.8s-0.1,0.6-0.4,0.8C114.2,42.1,113.9,42.2,113.6,42.2z"/>
			<path class="st0" d="M111.7,37.7c-0.3,0-0.5-0.1-0.7-0.3s-0.3-0.4-0.3-0.7s0.1-0.5,0.3-0.7c0.2-0.2,0.4-0.3,0.7-0.3
				c0.3,0,0.5,0.1,0.7,0.3s0.3,0.4,0.3,0.7s-0.1,0.5-0.3,0.7C112.2,37.6,112,37.7,111.7,37.7z"/>
			<path class="st0" d="M108.3,34.4c-0.2,0-0.4-0.1-0.5-0.2c-0.1-0.1-0.2-0.3-0.2-0.5s0.1-0.4,0.2-0.5s0.3-0.2,0.5-0.2
				s0.4,0.1,0.5,0.2c0.1,0.1,0.2,0.3,0.2,0.5s-0.1,0.4-0.2,0.5C108.7,34.3,108.5,34.4,108.3,34.4z"/>
			<path class="st0" d="M103.9,32.7c-0.1,0-0.3-0.1-0.3-0.1c-0.1-0.1-0.1-0.2-0.1-0.3s0.1-0.3,0.1-0.3c0.1-0.1,0.2-0.1,0.3-0.1
				c0.1,0,0.3,0.1,0.3,0.1c0.1,0.1,0.1,0.2,0.1,0.3s-0.1,0.3-0.1,0.3C104.1,32.6,104,32.7,103.9,32.7z"/>
			<path class="st0" d="M99.3,33c-0.1,0-0.1,0-0.2-0.1c0,0-0.1-0.1-0.1-0.2c0-0.1,0-0.1,0.1-0.2c0,0,0.1-0.1,0.2-0.1s0.1,0,0.2,0.1
				c0,0,0.1,0.1,0.1,0.2c0,0.1,0,0.1-0.1,0.2C99.4,32.9,99.4,33,99.3,33z"/>
		</g>
		<g>
			<path class="st0" d="M94.2,43c-0.5,0-0.9-0.2-1.2-0.5c-0.3-0.3-0.5-0.7-0.5-1.2s0.2-0.9,0.5-1.2s0.7-0.5,1.2-0.5s0.9,0.2,1.2,0.5
				s0.5,0.7,0.5,1.2s-0.2,0.9-0.5,1.2S94.6,43,94.2,43z"/>
			<path class="st0" d="M94.3,46.9c-0.4,0-0.7-0.2-1-0.4c-0.3-0.3-0.4-0.6-0.4-1s0.2-0.7,0.4-1c0.3-0.3,0.6-0.4,1-0.4s0.7,0.2,1,0.4
				c0.3,0.3,0.4,0.6,0.4,1s-0.2,0.7-0.4,1C95,46.8,94.7,46.9,94.3,46.9z"/>
			<path class="st0" d="M96.4,50.3c-0.3,0-0.6-0.1-0.8-0.3c-0.2-0.2-0.3-0.5-0.3-0.8s0.1-0.6,0.3-0.8c0.2-0.2,0.5-0.3,0.8-0.3
				s0.6,0.1,0.8,0.3c0.2,0.2,0.3,0.5,0.3,0.8s-0.1,0.6-0.3,0.8S96.7,50.3,96.4,50.3z"/>
			<path class="st0" d="M100,52.3c-0.2,0-0.4-0.1-0.6-0.2c-0.2-0.2-0.2-0.4-0.2-0.6c0-0.2,0.1-0.4,0.2-0.6c0.2-0.2,0.4-0.2,0.6-0.2
				s0.4,0.1,0.6,0.2c0.2,0.2,0.2,0.4,0.2,0.6c0,0.2-0.1,0.4-0.2,0.6C100.4,52.2,100.2,52.3,100,52.3z"/>
			<path class="st0" d="M104.2,52.4c-0.2,0-0.3-0.1-0.4-0.2c-0.1-0.1-0.2-0.2-0.2-0.4s0.1-0.3,0.2-0.4c0.1-0.1,0.2-0.2,0.4-0.2
				c0.2,0,0.3,0.1,0.4,0.2c0.1,0.1,0.2,0.2,0.2,0.4s-0.1,0.3-0.2,0.4C104.5,52.3,104.3,52.4,104.2,52.4z"/>
			<path class="st0" d="M108.1,50.4c-0.1,0-0.1,0-0.2-0.1s-0.1-0.1-0.1-0.2c0-0.1,0-0.1,0.1-0.2c0.1-0.1,0.1-0.1,0.2-0.1
				s0.1,0,0.2,0.1s0.1,0.1,0.1,0.2c0,0.1,0,0.1-0.1,0.2C108.2,50.4,108.1,50.4,108.1,50.4z"/>
		</g>
		<g>
			<path class="st0" d="M97.4,39.9c-0.1,0-0.2,0-0.3-0.1C97,39.7,97,39.6,97,39.5s0-0.2,0.1-0.3s0.2-0.1,0.3-0.1
				c0.1,0,0.2,0,0.3,0.1c0.1,0.1,0.1,0.2,0.1,0.3s0,0.2-0.1,0.3C97.6,39.8,97.5,39.9,97.4,39.9z"/>
			<path class="st0" d="M101.1,37.7c-0.2,0-0.4-0.1-0.6-0.2c-0.2-0.2-0.2-0.4-0.2-0.6s0.1-0.4,0.2-0.6c0.2-0.2,0.4-0.2,0.6-0.2
				s0.4,0.1,0.6,0.2c0.2,0.2,0.2,0.4,0.2,0.6s-0.1,0.4-0.2,0.6C101.5,37.6,101.3,37.7,101.1,37.7z"/>
			<path class="st0" d="M105.6,38.6c-0.3,0-0.7-0.1-0.9-0.4c-0.2-0.2-0.4-0.5-0.4-0.9c0-0.3,0.1-0.7,0.4-0.9
				c0.2-0.2,0.5-0.4,0.9-0.4s0.7,0.1,0.9,0.4c0.2,0.2,0.4,0.5,0.4,0.9c0,0.3-0.1,0.7-0.4,0.9C106.3,38.4,106,38.6,105.6,38.6z"/>
			<path class="st0" d="M108.8,42.3c-0.5,0-0.9-0.2-1.2-0.5s-0.5-0.7-0.5-1.2s0.2-0.9,0.5-1.2s0.7-0.5,1.2-0.5s0.9,0.2,1.2,0.5
				c0.3,0.3,0.5,0.7,0.5,1.2s-0.2,0.9-0.5,1.2S109.2,42.3,108.8,42.3z"/>
		</g>
	</g>
	<g>
		<path class="st0" d="M188.4,83.7c0,1.2-1,2.2-2.2,2.2s-2.2-1-2.2-2.2s1-2.1,2.2-2.1S188.4,82.5,188.4,83.7z M184.6,83.7
			c0,1,0.7,1.7,1.7,1.7c0.9,0,1.6-0.8,1.6-1.7c0-1-0.7-1.7-1.7-1.7C185.3,82,184.6,82.8,184.6,83.7z M185.9,84.8h-0.5v-2.1
			c0.2,0,0.5-0.1,0.8-0.1c0.4,0,0.6,0.1,0.7,0.2c0.1,0.1,0.2,0.2,0.2,0.5s-0.2,0.4-0.4,0.5l0,0c0.2,0.1,0.3,0.2,0.4,0.5
			c0.1,0.3,0.1,0.4,0.2,0.5h-0.5c-0.1-0.1-0.1-0.3-0.2-0.5c0-0.2-0.2-0.3-0.4-0.3H186v0.8H185.9z M185.9,83.6h0.2
			c0.3,0,0.5-0.1,0.5-0.3c0-0.2-0.1-0.3-0.5-0.3c-0.1,0-0.2,0-0.3,0v0.6H185.9z"/>
	</g>
</g>
<g>
	<path class="st0" d="M45.6,132.8l-0.4-1H42l-0.4,1h-0.8l1.7-4.1c0.3-0.7,0.6-1,1.3-1s1.1,0.3,1.4,1l1.7,4.1H45.6z M42.2,131.3h2.7
		l-0.9-2.1c-0.2-0.4-0.3-0.5-0.5-0.5s-0.3,0.1-0.5,0.5L42.2,131.3z"/>
	<path class="st0" d="M50.1,132.8c-0.4,0-0.6-0.2-0.6-0.6v-3.7c0-0.4,0.2-0.6,0.6-0.6h1.2c1.1,0,1.9,0.1,2.4,0.4
		c0.3,0.1,0.5,0.3,0.6,0.5c0.3,0.4,0.4,0.9,0.4,1.6c0,0.7-0.1,1.2-0.4,1.6c-0.4,0.6-1.3,0.9-3,0.9h-1.2V132.8z M51.4,132.2
		c0.8,0,1.3-0.1,1.6-0.4s0.4-0.8,0.4-1.5s-0.2-1.2-0.4-1.5c-0.3-0.3-0.8-0.4-1.6-0.4h-0.6c-0.1,0-0.2,0.1-0.2,0.2v3.3
		c0,0.1,0.1,0.2,0.2,0.2L51.4,132.2L51.4,132.2z"/>
	<path class="st0" d="M55.4,127.8c0-0.3,0.2-0.5,0.7-0.5s0.7,0.2,0.7,0.5s-0.2,0.5-0.7,0.5C55.6,128.3,55.4,128.2,55.4,127.8z
		 M55.8,132.8c-0.2,0-0.3-0.1-0.3-0.4v-3.6h1.1v3.9h-0.8V132.8z"/>
	<path class="st0" d="M59,132.7c-0.3-0.2-0.4-0.4-0.6-0.9l-1.3-3h1.2l1.1,2.6c0.1,0.4,0.2,0.4,0.4,0.4s0.2-0.1,0.4-0.4l1.1-2.7h0.8
		l-1.3,3c-0.2,0.3-0.3,0.6-0.5,0.7c-0.2,0.2-0.4,0.2-0.7,0.2C59.4,132.9,59.2,132.8,59,132.7z"/>
	<path class="st0" d="M62.4,127.8c0-0.3,0.2-0.5,0.7-0.5s0.7,0.2,0.7,0.5s-0.2,0.5-0.7,0.5C62.6,128.3,62.4,128.2,62.4,127.8z
		 M62.9,132.8c-0.2,0-0.3-0.1-0.3-0.4v-3.6h1.1v3.9h-0.8V132.8z"/>
	<path class="st0" d="M64.4,132.1c0.9,0.1,1.5,0.2,1.9,0.2c0.6-0.1,0.8-0.3,0.8-0.5c0-0.4-0.7-0.4-1.4-0.6c-0.7-0.2-1.4-0.4-1.4-1.2
		c0-0.3,0.1-0.6,0.5-0.8c0.2-0.1,0.4-0.2,0.7-0.3c0.5-0.1,1.4-0.1,2.6,0.1v0.6c-0.7-0.1-1.2-0.2-1.6-0.1c-0.8,0.1-1,0.2-1,0.5
		c0,0.4,0.7,0.4,1.4,0.6c0.2,0.1,0.5,0.1,0.7,0.2c0.4,0.2,0.7,0.5,0.7,1c0,0.3-0.1,0.6-0.5,0.9c-0.2,0.1-0.4,0.2-0.7,0.3
		c-0.6,0.1-1.5,0.1-2.7-0.1V132.1z"/>
	<path class="st0" d="M68.9,127.8c0-0.3,0.2-0.5,0.7-0.5s0.7,0.2,0.7,0.5s-0.2,0.5-0.7,0.5S68.9,128.2,68.9,127.8z M69.3,132.8
		c-0.2,0-0.3-0.1-0.3-0.4v-3.6h1.1v3.9h-0.8V132.8z"/>
	<path class="st0" d="M73.2,128.8c1.6,0,2.4,0.7,2.4,2c0,1.4-0.8,2.1-2.4,2.1s-2.4-0.7-2.4-2.1C70.8,129.5,71.7,128.8,73.2,128.8z
		 M74.5,130.9c0-0.9-0.4-1.4-1.3-1.4s-1.3,0.4-1.3,1.4s0.4,1.4,1.3,1.4C74.1,132.3,74.5,131.8,74.5,130.9z"/>
	<path class="st0" d="M76.3,132.8v-3.7c0.3,0,0.7,0,1.2-0.1s1-0.1,1.4-0.1c0.7,0,1.2,0.1,1.4,0.4c0.3,0.2,0.4,0.7,0.4,1.3v2.3h-0.8
		c-0.2,0-0.4-0.1-0.4-0.4v-1.8c0-0.5-0.1-0.8-0.2-0.9c-0.1-0.2-0.4-0.2-0.8-0.2c-0.3,0-0.6,0-1,0.1c-0.2,0-0.2,0.1-0.2,0.2v3h-1
		V132.8z"/>
	<path class="st0" d="M85.9,128.8c1.6,0,2.4,0.7,2.4,2c0,1.4-0.8,2.1-2.4,2.1s-2.4-0.7-2.4-2.1C83.5,129.5,84.3,128.8,85.9,128.8z
		 M87.1,130.9c0-0.9-0.4-1.4-1.3-1.4s-1.3,0.4-1.3,1.4s0.4,1.4,1.3,1.4C86.7,132.3,87.1,131.8,87.1,130.9z"/>
	<path class="st0" d="M88.9,132.8v-4c0-0.5,0.1-0.9,0.4-1c0.3-0.2,0.8-0.3,1.5-0.3h0.6v0.6h-0.5c-0.7,0-0.9,0.1-0.9,0.7v0.1h1.4v0.6
		H90v3.3L88.9,132.8L88.9,132.8z"/>
	<path class="st0" d="M95.4,132.8v-4.3h-1.7v-0.7h4.5v0.7h-1.7v4.3H95.4z"/>
	<path class="st0" d="M98.7,127.8c0-0.3,0.2-0.5,0.7-0.5s0.7,0.2,0.7,0.5s-0.2,0.5-0.7,0.5C98.9,128.3,98.7,128.2,98.7,127.8z
		 M99.1,132.8c-0.2,0-0.3-0.1-0.3-0.4v-3.6h1.1v3.9h-0.8V132.8z"/>
	<path class="st0" d="M101.2,133.6c0.5,0,0.9,0.1,1.2,0.1c0.6,0,1.1,0,1.4-0.1c0.4-0.2,0.5-0.5,0.5-1.1V132
		c-0.3,0.5-0.8,0.7-1.5,0.7c-1.4,0-2.1-0.7-2.1-1.9c0-1.3,0.7-1.9,2.2-1.9c0.3,0,0.7,0,1.3,0.1c0.6,0.1,1,0.1,1.2,0.1v3.2
		c0,0.3,0,0.5,0,0.7c-0.1,0.4-0.3,0.7-0.6,0.9c-0.6,0.3-1.6,0.4-3.5,0.2L101.2,133.6L101.2,133.6z M104.3,129.8c0-0.1,0-0.2-0.2-0.2
		c-0.4-0.1-0.7-0.1-1-0.1c-0.9,0-1.3,0.4-1.3,1.3c0,0.9,0.4,1.3,1.3,1.3s1.3-0.4,1.3-1.3v-1H104.3z"/>
	<path class="st0" d="M110.4,132.8c-3.3,0.4-4.3-0.3-4.3-1.9c0-1.4,0.8-2,2.3-2s2.3,0.7,2.3,1.9c0,0.3-0.1,0.4-0.3,0.4h-3.1
		c0,0.6,0.2,0.9,0.7,1.1c0.5,0.1,1.3,0.2,2.5,0L110.4,132.8L110.4,132.8z M109.5,130.5c0-0.7-0.4-1.1-1.1-1.1
		c-0.8,0-1.1,0.3-1.1,1.1H109.5z"/>
	<path class="st0" d="M111.4,132.8v-2.7c0-0.5,0.1-0.8,0.4-1s0.8-0.3,1.5-0.3h0.6v0.6h-0.6c-0.3,0-0.5,0-0.6,0.1s-0.2,0.3-0.2,0.6
		v2.7L111.4,132.8L111.4,132.8z"/>
	<path class="st0" d="M117.2,132.8c-0.4,0-0.6-0.2-0.6-0.6v-3.7c0-0.4,0.2-0.6,0.6-0.6h1.8c1.9,0,2.4,0.5,2.4,1.3
		c0,0.7-0.2,1.1-1.1,1.2c0.8,0.1,1.3,0.5,1.3,1.2c0,0.5-0.2,0.8-0.5,1c-0.4,0.2-1,0.3-1.9,0.3L117.2,132.8L117.2,132.8z M117.7,130
		h1.2c0.5,0,0.8-0.1,1-0.2c0.2-0.1,0.2-0.3,0.2-0.6s-0.1-0.5-0.2-0.6c-0.2-0.1-0.5-0.2-1-0.2h-1c-0.1,0-0.2,0.1-0.2,0.2V130z
		 M119,132.2c0.5,0,0.9-0.1,1.1-0.2c0.2-0.1,0.3-0.3,0.3-0.6s-0.1-0.5-0.3-0.6c-0.2-0.1-0.5-0.2-1.1-0.2h-1.3v1.4
		c0,0.1,0.1,0.2,0.2,0.2L119,132.2L119,132.2z"/>
	<path class="st0" d="M122.1,127.8c0-0.3,0.2-0.5,0.7-0.5s0.7,0.2,0.7,0.5s-0.2,0.5-0.7,0.5C122.4,128.3,122.1,128.2,122.1,127.8z
		 M122.6,132.8c-0.2,0-0.3-0.1-0.3-0.4v-3.6h1.1v3.9h-0.8V132.8z"/>
	<path class="st0" d="M126.5,128.8c1.6,0,2.4,0.7,2.4,2c0,1.4-0.8,2.1-2.4,2.1s-2.4-0.7-2.4-2.1
		C124.1,129.5,124.9,128.8,126.5,128.8z M127.8,130.9c0-0.9-0.4-1.4-1.3-1.4s-1.3,0.4-1.3,1.4s0.4,1.4,1.3,1.4
		C127.4,132.3,127.8,131.8,127.8,130.9z"/>
	<path class="st0" d="M129.5,132.1c0.9,0.1,1.5,0.2,1.9,0.2c0.6-0.1,0.8-0.3,0.8-0.5c0-0.4-0.7-0.4-1.4-0.6
		c-0.7-0.2-1.4-0.4-1.4-1.2c0-0.3,0.1-0.6,0.5-0.8c0.2-0.1,0.4-0.2,0.7-0.3c0.5-0.1,1.4-0.1,2.6,0.1v0.6c-0.7-0.1-1.2-0.2-1.6-0.1
		c-0.8,0.1-1,0.2-1,0.5c0,0.4,0.7,0.4,1.4,0.6c0.2,0.1,0.5,0.1,0.7,0.2c0.4,0.2,0.7,0.5,0.7,1c0,0.3-0.1,0.6-0.5,0.9
		c-0.2,0.1-0.4,0.2-0.7,0.3c-0.6,0.1-1.5,0.1-2.7-0.1V132.1z"/>
	<path class="st0" d="M137.6,132.8c-2.6,0.4-3.8-0.2-3.8-1.9s1.2-2.3,3.8-1.9v0.6c-1-0.1-1.6-0.1-2,0.1c-0.4,0.2-0.6,0.6-0.6,1.2
		c0,0.6,0.2,1,0.6,1.2c0.4,0.2,1.1,0.2,2,0.1V132.8z"/>
	<path class="st0" d="M138.1,127.8c0-0.3,0.2-0.5,0.7-0.5s0.7,0.2,0.7,0.5s-0.2,0.5-0.7,0.5C138.4,128.3,138.1,128.2,138.1,127.8z
		 M138.6,132.8c-0.2,0-0.3-0.1-0.3-0.4v-3.6h1.1v3.9h-0.8V132.8z"/>
	<path class="st0" d="M144.5,132.8c-3.3,0.4-4.3-0.3-4.3-1.9c0-1.4,0.8-2,2.3-2s2.3,0.7,2.3,1.9c0,0.3-0.1,0.4-0.3,0.4h-3.1
		c0,0.6,0.2,0.9,0.7,1.1c0.5,0.1,1.3,0.2,2.5,0L144.5,132.8L144.5,132.8z M143.5,130.5c0-0.7-0.4-1.1-1.1-1.1
		c-0.8,0-1.1,0.3-1.1,1.1H143.5z"/>
	<path class="st0" d="M145.4,132.8v-3.7c0.3,0,0.7,0,1.2-0.1s1-0.1,1.4-0.1c0.7,0,1.2,0.1,1.4,0.4c0.3,0.2,0.4,0.7,0.4,1.3v2.3H149
		c-0.2,0-0.4-0.1-0.4-0.4v-1.8c0-0.5-0.1-0.8-0.2-0.9c-0.1-0.2-0.4-0.2-0.8-0.2c-0.3,0-0.6,0-1,0.1c-0.2,0-0.2,0.1-0.2,0.2v3h-1
		V132.8z"/>
	<path class="st0" d="M154.2,132.8c-2.6,0.4-3.8-0.2-3.8-1.9s1.2-2.3,3.8-1.9v0.6c-1-0.1-1.6-0.1-2,0.1c-0.4,0.2-0.6,0.6-0.6,1.2
		c0,0.6,0.2,1,0.6,1.2c0.4,0.2,1.1,0.2,2,0.1V132.8z"/>
	<path class="st0" d="M158.8,132.8c-3.3,0.4-4.3-0.3-4.3-1.9c0-1.4,0.8-2,2.3-2s2.3,0.7,2.3,1.9c0,0.3-0.1,0.4-0.3,0.4h-3.1
		c0,0.6,0.2,0.9,0.7,1.1c0.5,0.1,1.3,0.2,2.5,0L158.8,132.8L158.8,132.8z M157.9,130.5c0-0.7-0.4-1.1-1.1-1.1
		c-0.8,0-1.1,0.3-1.1,1.1H157.9z"/>
	<path class="st0" d="M159.6,132.1c0.9,0.1,1.5,0.2,1.9,0.2c0.6-0.1,0.8-0.3,0.8-0.5c0-0.4-0.7-0.4-1.4-0.6
		c-0.7-0.2-1.4-0.4-1.4-1.2c0-0.3,0.1-0.6,0.5-0.8c0.2-0.1,0.4-0.2,0.7-0.3c0.5-0.1,1.4-0.1,2.6,0.1v0.6c-0.7-0.1-1.2-0.2-1.6-0.1
		c-0.8,0.1-1,0.2-1,0.5c0,0.4,0.7,0.4,1.4,0.6c0.2,0.1,0.5,0.1,0.7,0.2c0.4,0.2,0.7,0.5,0.7,1c0,0.3-0.1,0.6-0.5,0.9
		c-0.2,0.1-0.4,0.2-0.7,0.3c-0.6,0.1-1.5,0.1-2.7-0.1V132.1z"/>
</g>
<g>
	<path class="st0" d="M22.8,121.8c-0.1-0.1-0.1-0.1,0-0.2l0.2-0.4c0.1-0.1,0.1-0.1,0.2,0c0.5,0.4,1.3,0.6,2.1,0.6
		c1,0,1.8-0.5,1.8-1.4c0-0.8-0.5-1.3-1.8-1.6c-1.5-0.3-2.3-0.9-2.3-2.1c0-1.1,1-2,2.4-2c1,0,1.7,0.2,2.2,0.6c0.1,0.1,0.1,0.1,0,0.2
		l-0.2,0.3c-0.1,0.1-0.1,0.1-0.2,0c-0.5-0.3-0.9-0.5-1.7-0.5c-1,0-1.6,0.5-1.6,1.3s0.6,1.1,1.7,1.4c1.6,0.4,2.4,1,2.4,2.2
		c0,1.4-1.1,2.1-2.5,2.1C24.4,122.5,23.5,122.3,22.8,121.8z"/>
	<path class="st0" d="M32,119.4v-4.3c0-0.1,0.1-0.2,0.2-0.2h0.5c0.1,0,0.2,0.1,0.2,0.2v4.3c0,1.4,0.9,2.3,2.3,2.3
		c1.4,0,2.3-0.9,2.3-2.3v-4.3c0-0.1,0.1-0.2,0.2-0.2H38c0.1,0,0.2,0.1,0.2,0.2v4.3c0,2-1.2,3.1-3,3.1C33.3,122.5,32,121.4,32,119.4z
		"/>
	<path class="st0" d="M48.2,122.4h-0.6c-0.1,0-0.2,0-0.2-0.1l-1.6-2.4c-0.2,0-0.3,0-0.5,0h-1.5v2.3c0,0.1-0.1,0.2-0.2,0.2h-0.4
		c-0.1,0-0.2-0.1-0.2-0.2v-7.1c0-0.1,0.1-0.2,0.2-0.2h2.2c1.7,0,2.9,0.8,2.9,2.5c0,1.1-0.6,1.9-1.6,2.3l1.7,2.5
		C48.4,122.3,48.3,122.4,48.2,122.4z M45.3,119.3c1.3,0,2.2-0.7,2.2-1.8c0-1.3-0.9-1.8-2.1-1.8h-1.6v3.7L45.3,119.3L45.3,119.3z"/>
	<path class="st0" d="M59,119.2v2.5c0,0.1,0,0.1-0.1,0.2c-0.4,0.2-1.3,0.7-2.7,0.7c-2.2,0-3.9-1.6-3.9-3.8c0-2.2,1.7-3.8,4-3.8
		c1.2,0,1.9,0.4,2.3,0.6c0.1,0.1,0.1,0.1,0.1,0.2l-0.2,0.3c0,0.1-0.1,0.1-0.2,0.1c-0.3-0.2-0.9-0.5-1.9-0.5c-1.8,0-3.3,1.3-3.3,3.2
		c0,1.8,1.5,3.1,3.2,3.1c0.9,0,1.6-0.2,2-0.4v-2.2c0-0.1,0.1-0.2,0.2-0.2h0.4C58.9,119,59,119.1,59,119.2z"/>
	<path class="st0" d="M63.4,122.3v-7.1c0-0.1,0.1-0.2,0.2-0.2H64c0.1,0,0.2,0.1,0.2,0.2v7.1c0,0.1-0.1,0.2-0.2,0.2h-0.4
		C63.4,122.4,63.4,122.4,63.4,122.3z"/>
	<path class="st0" d="M68.5,118.7c0-2.2,1.6-3.8,3.9-3.8c1.2,0,1.9,0.4,2.3,0.6c0.1,0.1,0.1,0.1,0,0.2l-0.2,0.3
		c-0.1,0.1-0.1,0.1-0.2,0c-0.3-0.2-0.9-0.5-1.8-0.5c-1.9,0-3.2,1.3-3.2,3.1c0,1.8,1.3,3.1,3.2,3.1c0.9,0,1.5-0.3,1.8-0.5
		c0.1-0.1,0.2,0,0.2,0.1l0.2,0.3c0.1,0.1,0,0.2-0.1,0.3c-0.4,0.2-1.1,0.5-2.2,0.5C70.1,122.5,68.5,120.9,68.5,118.7z"/>
	<path class="st0" d="M84.7,122.4h-0.5c-0.1,0-0.2,0-0.2-0.1l-0.6-1.6h-3.9l-0.6,1.6c0,0.1-0.1,0.1-0.2,0.1h-0.5
		c-0.1,0-0.2-0.1-0.1-0.2l3-7.2c0-0.1,0.1-0.1,0.2-0.1h0.4c0.1,0,0.2,0,0.2,0.1l3,7.2C84.9,122.3,84.8,122.4,84.7,122.4z
		 M79.8,120.1h3.4l-1.7-4.1L79.8,120.1z"/>
	<path class="st0" d="M93.7,121.9v0.4c0,0.1-0.1,0.2-0.2,0.2H89c-0.1,0-0.2-0.1-0.2-0.2v-7.1c0-0.1,0.1-0.2,0.2-0.2h0.4
		c0.1,0,0.2,0.1,0.2,0.2v6.6h3.9C93.6,121.7,93.7,121.8,93.7,121.9z"/>
	<path class="st0" d="M109.1,118.7c0,2.2-1.6,3.7-3.9,3.7h-2.4c-0.1,0-0.2-0.1-0.2-0.2v-7.1c0-0.1,0.1-0.2,0.2-0.2h2.4
		C107.5,115,109.1,116.4,109.1,118.7z M108.3,118.7c0-1.8-1.2-3.1-3.1-3.1h-1.8v6.1h1.8C107.1,121.7,108.3,120.5,108.3,118.7z"/>
	<path class="st0" d="M118.7,122.4h-0.6c-0.1,0-0.2,0-0.2-0.1l-1.6-2.4c-0.2,0-0.3,0-0.5,0h-1.5v2.3c0,0.1-0.1,0.2-0.2,0.2h-0.4
		c-0.1,0-0.2-0.1-0.2-0.2v-7.1c0-0.1,0.1-0.2,0.2-0.2h2.2c1.7,0,2.9,0.8,2.9,2.5c0,1.1-0.6,1.9-1.6,2.3l1.7,2.5
		C118.9,122.3,118.8,122.4,118.7,122.4z M115.8,119.3c1.3,0,2.2-0.7,2.2-1.8c0-1.3-0.9-1.8-2.1-1.8h-1.6v3.7L115.8,119.3
		L115.8,119.3z"/>
	<path class="st0" d="M124.1,115.6v2.7h3.4c0.1,0,0.2,0.1,0.2,0.2v0.4c0,0.1-0.1,0.2-0.2,0.2h-3.4v2.8h3.9c0.1,0,0.2,0.1,0.2,0.2
		v0.4c0,0.1-0.1,0.2-0.2,0.2h-4.5c-0.1,0-0.2-0.1-0.2-0.2v-7.1c0-0.1,0.1-0.2,0.2-0.2h4.5c0.1,0,0.2,0.1,0.2,0.2v0.4
		c0,0.1-0.1,0.2-0.2,0.2h-3.9V115.6z"/>
	<path class="st0" d="M131.9,121.8c-0.1-0.1-0.1-0.1,0-0.2l0.2-0.4c0.1-0.1,0.1-0.1,0.2,0c0.5,0.4,1.3,0.6,2.1,0.6
		c1,0,1.8-0.5,1.8-1.4c0-0.8-0.5-1.3-1.8-1.6c-1.5-0.3-2.3-0.9-2.3-2.1c0-1.1,1-2,2.4-2c1,0,1.7,0.2,2.2,0.6c0.1,0.1,0.1,0.1,0,0.2
		l-0.2,0.3c-0.1,0.1-0.1,0.1-0.2,0c-0.5-0.3-0.9-0.5-1.7-0.5c-1,0-1.6,0.5-1.6,1.3s0.6,1.1,1.7,1.4c1.6,0.4,2.4,1,2.4,2.2
		c0,1.4-1.1,2.1-2.5,2.1C133.5,122.5,132.6,122.3,131.9,121.8z"/>
	<path class="st0" d="M140.7,121.8c-0.1-0.1-0.1-0.1,0-0.2l0.2-0.4c0.1-0.1,0.1-0.1,0.2,0c0.5,0.4,1.3,0.6,2.1,0.6
		c1,0,1.8-0.5,1.8-1.4c0-0.8-0.5-1.3-1.8-1.6c-1.5-0.3-2.3-0.9-2.3-2.1c0-1.1,1-2,2.4-2c1,0,1.7,0.2,2.2,0.6c0.1,0.1,0.1,0.1,0,0.2
		l-0.2,0.3c-0.1,0.1-0.1,0.1-0.2,0c-0.5-0.3-0.9-0.5-1.7-0.5c-1,0-1.6,0.5-1.6,1.3s0.6,1.1,1.7,1.4c1.6,0.4,2.4,1,2.4,2.2
		c0,1.4-1.1,2.1-2.5,2.1C142.2,122.5,141.3,122.3,140.7,121.8z"/>
	<path class="st0" d="M150,122.3v-7.1c0-0.1,0.1-0.2,0.2-0.2h0.4c0.1,0,0.2,0.1,0.2,0.2v7.1c0,0.1-0.1,0.2-0.2,0.2h-0.4
		C150,122.4,150,122.4,150,122.3z"/>
	<path class="st0" d="M161.8,115.1v7.2c0,0.1-0.1,0.2-0.2,0.2h-0.2c-0.1,0-0.1,0-0.2-0.1l-4.9-6v5.9c0,0.1-0.1,0.2-0.2,0.2h-0.4
		c-0.1,0-0.2-0.1-0.2-0.2V115c0-0.1,0.1-0.2,0.2-0.2h0.2c0.1,0,0.1,0,0.2,0.1l4.9,6.1v-5.9c0-0.1,0.1-0.2,0.2-0.2h0.4
		C161.8,115,161.8,115,161.8,115.1z"/>
	<path class="st0" d="M172.9,119.2v2.5c0,0.1,0,0.1-0.1,0.2c-0.4,0.2-1.3,0.7-2.7,0.7c-2.2,0-3.9-1.6-3.9-3.8c0-2.2,1.7-3.8,4-3.8
		c1.2,0,1.9,0.4,2.3,0.6c0.1,0.1,0.1,0.1,0.1,0.2l-0.2,0.3c0,0.1-0.1,0.1-0.2,0.1c-0.3-0.2-0.9-0.5-1.9-0.5c-1.8,0-3.3,1.3-3.3,3.2
		c0,1.8,1.5,3.1,3.2,3.1c0.9,0,1.6-0.2,2-0.4v-2.2c0-0.1,0.1-0.2,0.2-0.2L172.9,119.2C172.9,119,172.9,119.1,172.9,119.2z"/>
	<path class="st0" d="M176.8,121.8c-0.1-0.1-0.1-0.1,0-0.2l0.2-0.4c0.1-0.1,0.1-0.1,0.2,0c0.5,0.4,1.3,0.6,2.1,0.6
		c1,0,1.8-0.5,1.8-1.4c0-0.8-0.5-1.3-1.8-1.6c-1.5-0.3-2.3-0.9-2.3-2.1c0-1.1,1-2,2.4-2c1,0,1.7,0.2,2.2,0.6c0.1,0.1,0.1,0.1,0,0.2
		l-0.2,0.3c-0.1,0.1-0.1,0.1-0.2,0c-0.5-0.3-0.9-0.5-1.7-0.5c-1,0-1.6,0.5-1.6,1.3s0.6,1.1,1.7,1.4c1.6,0.4,2.4,1,2.4,2.2
		c0,1.4-1.1,2.1-2.5,2.1C178.3,122.5,177.4,122.3,176.8,121.8z"/>
</g>
</svg>
