<?xml version="1.0" encoding="UTF-8"?>
<svg xmlns="http://www.w3.org/2000/svg" id="Layer_3" data-name="Layer 3" viewBox="0 0 57.21 53.55">
  <defs>
    <style>.cls-1{fill:#e9a779;}</style>
  </defs>
  <path class="cls-1" d="M58,56.41h0c-3.1,0-14.23-1-27.38-14.17-11.07-11.07-15.13-19.33-14-28.51A14.66,14.66,0,0,1,17.49,10v0a14.51,14.51,0,0,1,2.08-3.66,1,1,0,0,1,.13-.16l1.14-1.15a7.32,7.32,0,0,1,10.4,0l4.26,4.25a7.35,7.35,0,0,1,0,10.37l-.29.28,0,0-1.71,1.61a56.78,56.78,0,0,0,7.76,10.05,56.59,56.59,0,0,0,10.19,7.83l1.95-1.95a7.32,7.32,0,0,1,10.36,0l4.1,4.09a7.34,7.34,0,0,1,0,10.41l-1.15,1.13-.15.14a15.1,15.1,0,0,1-3.67,2.09,15.51,15.51,0,0,1-3.78,1A10.2,10.2,0,0,1,58,56.41ZM20.86,11.33a11.25,11.25,0,0,0-.71,2.81h0c-1,8,2.8,15.35,13,25.54C45.31,51.85,55.22,52.8,58,52.8h0c.42,0,.65,0,.65,0A12.23,12.23,0,0,0,61.5,52a11,11,0,0,0,2.68-1.5l1.07-1.06a3.7,3.7,0,0,0,1.12-2.64,3.75,3.75,0,0,0-1.09-2.65L61.18,40a3.72,3.72,0,0,0-5.26,0L53,42.94a1.81,1.81,0,0,1-2.14.31l-.29-.15-.52-.28a59.22,59.22,0,0,1-11.39-8.66A59.75,59.75,0,0,1,30,22.75c-.11-.19-.18-.34-.24-.47l-.11-.21A1.8,1.8,0,0,1,30,19.88l2.7-2.54.27-.26a3.73,3.73,0,0,0,0-5.27L28.7,7.56a3.71,3.71,0,0,0-2.63-1.09,3.66,3.66,0,0,0-2.65,1.11L22.36,8.66A11.07,11.07,0,0,0,20.86,11.33Z" transform="translate(-16.39 -2.86)"></path>
  <path class="cls-1" d="M61.46,29.91A3.21,3.21,0,0,1,60,29.57a3.14,3.14,0,0,1-1.73-2.82H49.54a4.93,4.93,0,0,1-4.93-4.92V18.51a4.93,4.93,0,0,1,4.93-4.93h1.17a1.81,1.81,0,0,1,0,3.61H49.54a1.32,1.32,0,0,0-1.32,1.32v3.32a1.32,1.32,0,0,0,1.32,1.32H60.09a1.8,1.8,0,0,1,1.8,1.8v.93l7.81-5.71-7.81-5.71v.93a1.8,1.8,0,0,1-1.8,1.8H57.17a1.81,1.81,0,0,1,0-3.61h1.12A3.13,3.13,0,0,1,60,10.77a3.17,3.17,0,0,1,3.31.27l9,6.57a3.17,3.17,0,0,1,0,5.12l-9,6.57A3.14,3.14,0,0,1,61.46,29.91Z" transform="translate(-16.39 -2.86)"></path>
</svg>
