<?xml version="1.0" encoding="UTF-8"?> <!-- Generator: Adobe Illustrator 25.0.0, SVG Export Plug-In . SVG Version: 6.00 Build 0) --> <svg xmlns="http://www.w3.org/2000/svg" xmlns:xlink="http://www.w3.org/1999/xlink" version="1.1" id="Layer_1" x="0px" y="0px" viewBox="0 0 1264 1640" style="enable-background:new 0 0 1264 1640;" xml:space="preserve"> <style type="text/css"> .st0{fill:#F58320;} </style> <g> <path class="st0" d="M1264,1528.5c-1.6,0.7-3.4,1.1-4.9,2c-20.6,12.1-42.8,18.3-66.6,17.5c-46.2-1.6-81.7-22.4-105.7-61.9 c-10.1-16.6-15.1-34.8-16.5-54.3c-4.6-63.3,38.3-119.2,100.5-131.5c31.2-6.2,60.8-0.7,88.4,15.3c1.5,0.9,3.3,1.3,4.9,1.9 C1264,1387.9,1264,1458.2,1264,1528.5z"></path> <path class="st0" d="M1264,1604.5c-9.7,3.4-19.2,7.4-29.2,10c-21.3,5.6-42.7,11.7-64.4,15.1c-25.3,4-50.9,4.4-76.6,1.6 c-43.3-4.6-83.4-17.9-119.4-42.6c-31.1-21.4-56.8-48.6-78.4-79.1c-25.2-35.6-48.8-72.3-72.9-108.7c-45-68.1-95.8-131.3-156.2-186.4 c-30.7-28-63.3-53.6-100.2-73.1c-30.4-16.1-62.8-26.2-96.1-34.2c-29.6-7.1-59.4-11-89.9-10c-35.8,1.2-70,9.3-102.8,23.7 c-42.4,18.5-79,45.4-112.1,77.3c-48.6,46.6-87.5,100.8-121.5,158.5c-15.6,26.5-29.6,54-44.3,81c0-7,0-14,0-21c1.4-2,3.1-3.8,4.2-6 c23.6-44.9,49.4-88.4,79.2-129.5c34.8-48,74-91.9,121.7-127.5c36.3-27.1,76-47.1,120.2-58c26-6.4,52.5-8.8,79.2-7.5 c33.7,1.6,66.3,9.5,98.8,18.2c53.8,14.4,99.7,42.9,142.2,77.8c71.4,58.6,129.6,128.8,180.7,205.2c18.9,28.2,36.8,57.1,55.6,85.5 c19.2,29.1,40.5,56.6,66,80.7c35.2,33.2,76.3,54.6,123.9,63.7c23.4,4.4,46.9,5.8,70.5,4.6c41.9-2.1,82.1-12,120.7-28.4 c0.5-0.2,0.8-0.5,1.3-0.8C1264,1597.9,1264,1601.2,1264,1604.5z"></path> <path class="st0" d="M0,202.5c10.5,28.2,20.4,56.6,31.8,84.5c23.3,57.4,51.1,112.5,86.6,163.4c29.7,42.7,64,81,106.7,111.3 c37.3,26.5,78.5,43.6,123.8,49.8c17.9,2.5,36.2,3.9,54.2,3.1c56.9-2.5,112.3-12.3,163.8-38.4c40-20.3,76.8-45.3,111.9-73.2 c64-50.8,119.4-110.1,170.9-173.3c27.3-33.5,55.3-66.3,88-94.7c32.4-28.2,68.4-49.5,110.5-59.7c25.9-6.3,52.2-8.7,78.7-7.3 c46,2.4,89.8,14.4,131.3,34.4c1.9,0.9,4,1.4,6,2.1c0,3.3,0,6.7,0,10c-24-12.1-48.9-21.7-75-28.2c-21.2-5.3-42.7-8.2-64.5-9.3 c-38.4-2-75.2,4.2-110.5,19.2c-27.4,11.6-51.6,28.4-73.8,48c-33.4,29.5-61.4,63.8-89.5,98.1c-41.9,51.1-86.6,99.6-136.6,142.9 c-42.8,37.1-88.3,70.4-138.7,96.5c-31.8,16.5-65.2,28.4-100.6,34.2c-29.5,4.8-59.3,8.6-89.3,8c-46.4-0.9-90.4-12.1-131.4-34.3 c-49.4-26.7-89.3-64.2-123.6-108.1c-40.3-51.7-71.4-108.8-97.1-168.8c-11-25.7-20.7-51.9-31-77.9c-0.6-1.5-1.5-2.8-2.3-4.3 C0,221.2,0,211.8,0,202.5z"></path> <path class="st0" d="M190,11.9c90.9-0.6,164.9,74.5,164.7,164.9c-0.2,89.8-73.6,164.7-165.4,164.3C99.1,340.8,24.8,267,25.4,175.4 C26,84.7,100.3,11.4,190,11.9z"></path> </g> </svg> 