<?xml version="1.0" encoding="UTF-8"?> <!-- Generator: Adobe Illustrator 25.0.0, SVG Export Plug-In . SVG Version: 6.00 Build 0) --> <svg xmlns="http://www.w3.org/2000/svg" xmlns:xlink="http://www.w3.org/1999/xlink" version="1.1" id="Layer_1" x="0px" y="0px" viewBox="0 0 1440 1822.5" style="enable-background:new 0 0 1440 1822.5;" xml:space="preserve"> <style type="text/css"> .st0{fill:#F58320;} </style> <path class="st0" d="M1440,491.2c-16.5,9.6-33.8,17.2-52.6,20.9c-53.1,10.4-100.7-1.2-142.3-36c-29.4-24.6-47.9-56.1-55-93.7 c-9.8-51.6,2.1-98.1,35.6-138.7c25.5-30.9,58.4-49.7,97.7-56.7c39.4-7,76.8-0.4,111.8,19.3c1.5,0.9,3.3,1.2,4.9,1.8 C1440,302.5,1440,396.8,1440,491.2z"></path> <path class="st0" d="M0,1355.2c4.7-3.6,9.3-7.4,14.1-10.9c19.3-14.2,40.9-22.3,64.8-24.8c65.4-6.9,128.2,37.5,140.2,106.3 c10.9,62.3-23.4,123.5-83.9,144.3c-49,16.9-93.3,7.1-132.3-27.1c-0.8-0.7-1.9-1.2-2.9-1.8C0,1479.2,0,1417.2,0,1355.2z"></path> <path class="st0" d="M170.6-3.7c-1.2,2.2-2.4,4.4-3.6,6.5c-40.8,70-74.5,143.1-97.8,220.8C58.7,258.5,50.3,293.9,45,330 c-3.3,23-6,46.2-7.2,69.4c-1.4,26.6-2.3,53.3-0.8,79.9c5.8,105.4,31.7,205.1,87.2,296c36.2,59.2,83.5,107.8,140.4,147.3 c43.7,30.3,90.9,54.1,139.7,75c58.2,24.9,118.2,44.8,177.7,65.9c92.2,32.7,182.2,70.5,269.1,115.3 c94.4,48.6,184.1,104.7,266.7,171.8c53.5,43.5,102.7,91.3,142,148.3c19.6,28.4,37,58.6,54.4,88.5c24.5,42.1,45.4,86,60.9,132.2 c11.7,35,20.4,70.8,25.2,107.5c-7.5,2.5-8.8,1.6-10-6.1c-8.4-54.4-23.8-106.8-47.1-156.6c-27-57.9-58.2-113.5-95.7-165.4 c-30.2-41.7-65-79.3-103.6-113.5c-71.9-63.8-151.4-116.7-234.8-163.9c-100.5-56.9-205.7-103.4-314.2-142.6 c-58.8-21.2-117.6-42.6-175.9-65.1c-57.3-22.2-111.9-49.9-162.4-85.1c-85.3-59.4-145-138.7-183.2-234.9 C58.6,656.5,47,618.4,39.9,579c-4.1-23-7.6-46.3-9.4-69.6c-2.1-27.8-3.4-55.9-2.8-83.8c0.6-27.4,3.5-54.8,6.6-82 c6.3-54.3,19.8-107.1,37.6-158.8C94.3,120,123.5,58.3,158-1C160.3-5.1,162.9-5.7,170.6-3.7z"></path> </svg> 