<?xml version="1.0" encoding="UTF-8"?> <!-- Generator: Adobe Illustrator 25.0.0, SVG Export Plug-In . SVG Version: 6.00 Build 0) --> <svg xmlns="http://www.w3.org/2000/svg" xmlns:xlink="http://www.w3.org/1999/xlink" version="1.1" id="Layer_1" x="0px" y="0px" viewBox="0 0 1440 384" style="enable-background:new 0 0 1440 384;" xml:space="preserve"> <style type="text/css"> .st0{fill:#FE8302;} </style> <path class="st0" d="M1440,234c-23.8-38.7-50.5-75.2-83.1-107.1c-46.8-45.7-101-79.2-163.4-98.9c-24.9-7.9-50.5-12.6-76.7-14.6 c-62.8-4.8-120.6,10.9-175,41.4c-32.2,18-62,39.7-91,62.4c-31.7,24.8-62.9,50.5-95.1,74.8c-61.1,46.1-125.6,87.2-194.6,120.5 c-48.3,23.3-97.9,43.4-150.4,55.5c-22.4,5.2-45,8.5-68,9.8c-27.7,1.6-55.2-0.2-82.8-2c-35.4-2.4-69.8-9.4-103-21.7 c-44.4-16.5-83.3-41.7-116.7-75.1c-12.9-12.9-24.4-27.3-36.5-41c-1.2-1.4-2.5-2.6-3.7-3.9c0-5,0-10,0-15 c15.5,21.4,32.4,41.5,51.7,59.5c44.8,41.9,97.1,70,157.4,81.5c22.8,4.4,46.1,6.3,69.2,8.1c17.2,1.4,34.6,1.3,51.9,1.1 c37-0.3,73-6.9,108.4-17.4c76.7-22.7,147.2-58.8,215.1-100.5c53.5-32.8,103.5-70.4,152.6-109.4c31.6-25,63.6-49.6,96.6-72.6 c36.7-25.7,76.6-45.6,120.5-56.5c29.5-7.3,59.4-10.3,89.6-8.4c69.2,4.5,131.9,28.1,188.9,67.4c53.9,37.3,97.4,84.6,133.1,139.4 c1.5,2.3,3.4,4.4,5.1,6.6C1440,223.3,1440,228.7,1440,234z"></path> </svg> 