<?xml version="1.0" encoding="UTF-8"?> <!-- Generator: Adobe Illustrator 25.0.0, SVG Export Plug-In . SVG Version: 6.00 Build 0) --> <svg xmlns="http://www.w3.org/2000/svg" xmlns:xlink="http://www.w3.org/1999/xlink" version="1.1" id="Layer_1" x="0px" y="0px" viewBox="0 0 910 1354.5" style="enable-background:new 0 0 910 1354.5;" xml:space="preserve"> <style type="text/css"> .st0{fill:#F58320;} </style> <path class="st0" d="M866.2,13.8c11.7,0,23.3,0,35,0c2.3,0,5.7-0.8,5.4,3.2c-0.2,3.5-3.1,3.3-5.7,3.3c-14.7,0-29.3-0.3-44,0.1 c-27,0.8-53.9,1.2-80.8,3.1C722,27.4,668.3,34.8,615.7,48.4c-44.3,11.4-87.2,26.5-127.1,49.2c-67,38.1-116.6,91.2-141.4,165.4 c-7.9,23.7-12.6,48.2-16.5,72.8c-3.4,21.6-5.5,43.2-4.9,65.1c0.8,35.3,7.2,69.7,16.4,103.6c23,84.1,60,162,105.3,236.3 c20.4,33.6,41,67.1,60.5,101.2c16.5,28.9,28.5,59.7,35.2,92.4c4.5,21.9,5.6,44.1,3.8,66.5c-5.4,66.8-33.1,124.1-75.2,175 c-34.5,41.6-76.5,73.9-123.8,99.7c-49,26.6-101.2,44.6-155.2,57.8c-17.7,4.3-35.7,7.9-53.5,11.8c-0.3,0.1-0.7,0.2-1,0.1 c-2.4-0.2-6,1.7-6.6-2.3c-0.6-3.9,3-3.6,5.5-4.2c30.2-7.2,60.7-13.4,90.5-21.9c64.4-18.4,124.9-45.3,178.2-86.5 c58.8-45.5,101.9-102.5,124.2-174.1c8.5-27.2,12.8-55.1,11.3-83.6c-1.9-36.6-12.1-71.2-27.5-104.4c-18.1-38.8-41.5-74.4-64.1-110.5 c-38.7-62-72.3-126.6-96.6-195.7c-12.7-35.9-23.1-72.5-29.3-110.1c-6-36.7-6.9-73.3-0.7-110.2c4.9-29,9.9-57.9,19.7-85.8 c22-62.1,61.6-110.2,115.7-147c43.3-29.4,91-48.8,141.2-62.9c35.3-9.9,71.1-16.8,107.3-21.7c24.5-3.3,49.2-5.5,73.9-7.2 c28.4-1.9,56.9-2.7,85.3-4C866.1,13.3,866.1,13.6,866.2,13.8z"></path> </svg> 