<?xml version="1.0" encoding="UTF-8"?>
<svg id="Layer_1" xmlns="http://www.w3.org/2000/svg" version="1.1" viewBox="0 0 244.31 62.98">
  <!-- Generator: Adobe Illustrator 29.1.0, SVG Export Plug-In . SVG Version: 2.1.0 Build 142)  -->
  <defs>
    <style>
      .st0 {
        fill: #1b2e5a;
      }

      .st1 {
        fill: #395d84;
      }
    </style>
  </defs>
  <path class="st1" d="M23.3,8.05c-.16.27-.32.46-.49.59-.17.13-.39.19-.66.19-.28,0-.6-.13-.96-.39-.36-.26-.81-.55-1.35-.87-.54-.32-1.19-.61-1.94-.87-.75-.26-1.65-.39-2.7-.39-.99,0-1.85.13-2.6.39-.74.26-1.37.61-1.87,1.06-.5.45-.88.97-1.14,1.58s-.39,1.26-.39,1.96c0,.91.23,1.66.69,2.26.46.6,1.07,1.1,1.82,1.53.75.42,1.61.79,2.56,1.1s1.94.64,2.94.98c1,.34,1.98.73,2.94,1.16.96.44,1.81.99,2.56,1.66.75.67,1.36,1.48,1.82,2.45.46.96.69,2.14.69,3.54,0,1.49-.25,2.88-.76,4.18-.51,1.3-1.25,2.44-2.22,3.41s-2.17,1.74-3.59,2.29-3.03.83-4.83.83c-1.08,0-2.13-.11-3.15-.32-1.02-.21-1.98-.51-2.89-.89s-1.76-.85-2.55-1.39c-.79-.54-1.5-1.15-2.13-1.82l1.43-2.4c.14-.19.31-.34.51-.47.2-.13.42-.19.67-.19.33,0,.71.17,1.14.52s.96.73,1.6,1.14c.63.42,1.39.8,2.28,1.14.89.35,1.96.52,3.23.52,1.03,0,1.96-.14,2.77-.41.81-.27,1.5-.67,2.06-1.18.56-.51.98-1.12,1.28-1.85.3-.72.45-1.52.45-2.4,0-.99-.23-1.79-.68-2.42-.46-.63-1.06-1.15-1.81-1.58-.75-.42-1.61-.78-2.56-1.08-.96-.3-1.94-.61-2.94-.93-1-.32-1.98-.69-2.94-1.12-.96-.42-1.81-.98-2.56-1.66-.75-.68-1.36-1.54-1.81-2.56-.46-1.03-.68-2.29-.68-3.8,0-1.21.24-2.37.71-3.5.47-1.13,1.16-2.13,2.06-3s2.01-1.57,3.33-2.09c1.32-.53,2.82-.79,4.51-.79,1.9,0,3.64.3,5.23.9,1.59.6,2.97,1.47,4.15,2.6l-1.22,2.37Z"/>
  <path class="st1" d="M35.01,5.05c0,.42-.09.83-.26,1.21-.17.38-.4.72-.69,1.01-.29.29-.63.52-1.02.68s-.8.25-1.22.25-.82-.08-1.2-.25c-.38-.16-.71-.39-1-.68-.29-.29-.52-.63-.68-1.01-.16-.38-.25-.79-.25-1.21s.08-.85.25-1.23c.16-.38.39-.72.68-1.01s.62-.52,1-.68c.38-.16.78-.25,1.2-.25s.83.08,1.22.25.73.39,1.02.68.52.63.69,1.01c.17.38.26.8.26,1.23ZM34.14,12.43v23.89h-4.58V12.43h4.58Z"/>
  <path class="st1" d="M39.85,36.32V12.43h2.75c.64,0,1.04.31,1.2.92l.33,2.28c.88-1.05,1.85-1.91,2.93-2.57,1.07-.67,2.33-1,3.77-1,1.58,0,2.87.44,3.86,1.3.99.87,1.71,2.05,2.16,3.54.34-.85.79-1.58,1.34-2.19.55-.61,1.16-1.11,1.83-1.5.67-.39,1.39-.68,2.15-.87s1.53-.28,2.32-.28c1.27,0,2.4.2,3.4.6,1,.4,1.84.98,2.53,1.75.69.77,1.21,1.72,1.58,2.84.36,1.13.54,2.41.54,3.86v15.21h-4.61v-15.21c0-1.79-.39-3.13-1.16-4.04-.78-.91-1.91-1.36-3.4-1.36-.66,0-1.29.11-1.88.34-.6.23-1.12.57-1.56,1.02-.45.46-.8,1.02-1.06,1.69-.26.67-.39,1.46-.39,2.35v15.21h-4.61v-15.21c0-1.85-.37-3.21-1.1-4.09-.74-.88-1.82-1.32-3.24-1.32-.99,0-1.9.26-2.75.78-.85.52-1.62,1.22-2.33,2.12v17.73h-4.58Z"/>
  <path class="st1" d="M82.12,16c.5-.6,1.04-1.14,1.61-1.63.57-.49,1.19-.92,1.85-1.27.66-.35,1.36-.63,2.1-.82.74-.2,1.54-.29,2.39-.29,1.36,0,2.6.27,3.7.8,1.1.53,2.05,1.32,2.83,2.35.78,1.03,1.39,2.31,1.82,3.83.43,1.52.65,3.27.65,5.24,0,1.77-.24,3.41-.72,4.93-.48,1.51-1.16,2.83-2.05,3.94-.89,1.11-1.97,1.99-3.24,2.62-1.28.63-2.72.95-4.31.95-1.43,0-2.65-.23-3.67-.71-1.02-.47-1.93-1.13-2.73-1.98v10.37h-4.58V12.43h2.75c.64,0,1.04.31,1.2.92l.4,2.66ZM82.36,30.44c.75.99,1.56,1.68,2.43,2.07.87.39,1.85.59,2.93.59,2.1,0,3.73-.76,4.88-2.27s1.73-3.72,1.73-6.62c0-1.52-.13-2.82-.39-3.89-.26-1.07-.63-1.95-1.13-2.63-.49-.68-1.1-1.18-1.82-1.5-.72-.32-1.54-.48-2.45-.48-1.33,0-2.49.3-3.47.89-.98.6-1.89,1.44-2.72,2.54v11.31Z"/>
  <path class="st1" d="M107.99,1.61v34.7h-4.61V1.61h4.61Z"/>
  <path class="st1" d="M119.25,5.05c0,.42-.09.83-.26,1.21-.17.38-.4.72-.69,1.01-.29.29-.63.52-1.02.68s-.8.25-1.22.25-.82-.08-1.2-.25c-.38-.16-.71-.39-1-.68-.29-.29-.52-.63-.68-1.01-.16-.38-.25-.79-.25-1.21s.08-.85.25-1.23c.16-.38.39-.72.68-1.01s.62-.52,1-.68c.38-.16.78-.25,1.2-.25s.83.08,1.22.25.73.39,1.02.68.52.63.69,1.01c.17.38.26.8.26,1.23ZM118.38,12.43v23.89h-4.58V12.43h4.58Z"/>
  <path class="st0" d="M154.85,19.32c0,2.49-.42,4.78-1.25,6.87-.83,2.08-2,3.88-3.5,5.38-1.5,1.5-3.31,2.67-5.43,3.5-2.12.83-4.47,1.25-7.05,1.25h-12.96V2.32h12.96c2.59,0,4.94.42,7.05,1.26s3.93,2.01,5.43,3.5c1.5,1.5,2.67,3.29,3.5,5.37.83,2.08,1.25,4.37,1.25,6.87ZM148.36,19.32c0-1.87-.25-3.54-.74-5.02-.49-1.48-1.21-2.73-2.14-3.76-.93-1.03-2.06-1.81-3.39-2.36-1.32-.55-2.82-.82-4.48-.82h-6.61v23.93h6.61c1.66,0,3.15-.27,4.48-.82,1.33-.55,2.45-1.34,3.39-2.36.93-1.03,1.65-2.28,2.14-3.76.49-1.48.74-3.15.74-5.02Z"/>
  <path class="st0" d="M162.72,24.98c.09,1.24.31,2.31.66,3.21s.8,1.65,1.36,2.23c.56.59,1.23,1.03,2.01,1.32.78.29,1.63.43,2.57.43s1.75-.11,2.43-.33c.68-.22,1.28-.46,1.79-.73.51-.27.96-.51,1.34-.73.38-.22.76-.33,1.12-.33.49,0,.85.18,1.08.54l1.67,2.12c-.64.75-1.36,1.38-2.16,1.89-.8.51-1.63.92-2.5,1.22-.87.31-1.75.52-2.66.65s-1.78.19-2.62.19c-1.68,0-3.24-.28-4.68-.83-1.44-.56-2.7-1.38-3.76-2.47-1.07-1.09-1.9-2.44-2.52-4.04-.61-1.61-.92-3.47-.92-5.58,0-1.65.27-3.19.8-4.64.53-1.45,1.3-2.71,2.29-3.79,1-1.07,2.21-1.92,3.64-2.55,1.43-.63,3.05-.94,4.85-.94,1.52,0,2.92.24,4.21.73,1.29.49,2.39,1.2,3.32,2.13.92.93,1.65,2.08,2.17,3.43.52,1.36.79,2.9.79,4.64,0,.88-.09,1.47-.28,1.77-.19.31-.55.46-1.08.46h-14.93ZM173.8,21.48c0-.75-.11-1.46-.32-2.13-.21-.67-.53-1.25-.95-1.75-.42-.5-.96-.9-1.61-1.19s-1.41-.44-2.27-.44c-1.68,0-3,.48-3.96,1.43-.96.96-1.58,2.31-1.85,4.07h10.96Z"/>
  <path class="st0" d="M187.9,16.38c.75-1.44,1.65-2.57,2.68-3.4,1.03-.82,2.26-1.23,3.67-1.23,1.11,0,2.01.24,2.68.73l-.38,4.35c-.08.28-.19.48-.34.6-.15.12-.35.18-.6.18-.24,0-.58-.04-1.05-.12-.46-.08-.91-.12-1.35-.12-.64,0-1.21.09-1.72.28-.5.19-.95.46-1.35.81-.4.35-.75.78-1.06,1.28-.31.5-.59,1.07-.86,1.72v14.86h-5.81V12.19h3.41c.6,0,1.01.11,1.25.32.24.21.39.59.47,1.14l.35,2.73Z"/>
  <path class="st0" d="M199.02,36.32V12.19h3.55c.75,0,1.25.35,1.48,1.06l.38,1.79c.42-.47.87-.9,1.33-1.29.46-.39.96-.73,1.48-1.01.52-.28,1.09-.51,1.69-.67s1.27-.25,1.99-.25c1.52,0,2.77.41,3.75,1.23.98.82,1.71,1.92,2.2,3.28.38-.8.85-1.49,1.41-2.06.56-.57,1.18-1.04,1.86-1.4.67-.36,1.39-.63,2.15-.8.76-.17,1.52-.26,2.29-.26,1.33,0,2.52.2,3.55.61,1.03.41,1.9,1,2.61,1.79.71.78,1.24,1.74,1.61,2.87.37,1.13.55,2.42.55,3.88v15.35h-5.81v-15.35c0-1.54-.34-2.69-1.01-3.47-.67-.78-1.66-1.16-2.96-1.16-.6,0-1.15.1-1.66.31-.51.2-.96.5-1.34.88-.38.38-.69.87-.91,1.45-.22.58-.33,1.25-.33,2v15.35h-5.83v-15.35c0-1.61-.33-2.79-.98-3.53s-1.6-1.1-2.86-1.1c-.85,0-1.63.21-2.36.62-.73.42-1.41.98-2.03,1.7v17.66h-5.81Z"/>
  <path class="st0" d="M237.51,6.52c.39,0,.76.05,1.12.15.36.1.7.24,1.01.43s.6.4.85.66.48.54.66.85c.18.31.32.65.42,1.01.1.36.15.73.15,1.12s-.05.76-.15,1.12c-.1.36-.24.7-.42,1.01-.18.31-.4.6-.66.85s-.54.48-.85.66c-.31.19-.65.33-1.01.43-.36.1-.73.15-1.12.15s-.76-.05-1.12-.15c-.36-.1-.69-.24-1-.43-.31-.18-.6-.4-.85-.66s-.48-.54-.66-.85c-.18-.31-.33-.65-.43-1-.1-.36-.15-.73-.15-1.12s.05-.76.15-1.12c.1-.36.24-.7.43-1.01.18-.31.41-.6.66-.85s.54-.48.85-.66c.31-.18.65-.33,1-.43.36-.1.73-.15,1.12-.15ZM237.51,14.43c.34,0,.67-.04.98-.13.31-.09.61-.21.88-.37.27-.16.52-.35.74-.57.22-.22.41-.47.57-.75.16-.28.28-.57.37-.89.09-.32.13-.64.13-.99,0-.52-.09-1-.29-1.45s-.45-.85-.78-1.18c-.33-.34-.72-.6-1.16-.8s-.92-.29-1.43-.29c-.34,0-.66.04-.97.13-.31.09-.6.21-.87.37-.27.16-.51.35-.73.58-.22.23-.41.48-.57.75-.16.27-.28.57-.36.89s-.13.65-.13.99.04.67.13.99.21.61.36.89c.16.27.34.52.57.75.22.22.46.41.73.57s.56.28.87.37c.31.09.64.13.97.13ZM237.44,8.16c.67,0,1.16.12,1.47.36.32.24.48.6.48,1.06,0,.36-.1.67-.31.92s-.51.43-.92.52c.07.04.12.09.17.15.05.06.09.13.14.2l1.32,1.93h-.86c-.13,0-.22-.05-.28-.14l-1.17-1.74s-.08-.09-.12-.12c-.05-.03-.12-.04-.22-.04h-.46v2.04h-.9v-5.15h1.66ZM237.35,10.6c.43,0,.73-.08.9-.23.17-.16.26-.38.26-.67,0-.14-.02-.27-.05-.38-.04-.11-.1-.2-.18-.27-.08-.07-.19-.12-.33-.16-.14-.03-.31-.05-.51-.05h-.76v1.75h.66Z"/>
  <g>
    <path class="st0" d="M36.08,49.59v9.31h-1.26v-4.24h-5.02v4.24h-1.26v-9.31h1.26v4.15h5.02v-4.15h1.26Z"/>
    <path class="st0" d="M43.75,52.32l-3.67,8.53c-.04.09-.09.16-.15.21-.06.05-.15.08-.27.08h-.86l1.2-2.61-2.72-6.2h1c.1,0,.18.02.24.07.06.05.1.1.12.17l1.76,4.15c.07.18.13.37.18.57.06-.2.13-.4.19-.58l1.71-4.14c.03-.07.07-.13.13-.17s.13-.07.21-.07h.92Z"/>
    <path class="st0" d="M50.08,49.33v9.57h-.69c-.16,0-.27-.08-.31-.24l-.1-.8c-.28.34-.6.61-.96.82s-.78.31-1.25.31c-.38,0-.72-.07-1.03-.22-.31-.14-.57-.36-.79-.64-.22-.28-.38-.63-.5-1.05-.12-.42-.18-.9-.18-1.45,0-.49.06-.94.19-1.35.13-.42.32-.78.56-1.09s.54-.55.89-.73c.35-.18.75-.26,1.19-.26.4,0,.75.07,1.04.21.29.14.54.33.77.57v-3.65h1.16ZM48.92,53.89c-.22-.29-.45-.49-.7-.61-.25-.11-.53-.17-.84-.17-.61,0-1.08.22-1.41.66-.33.44-.49,1.06-.49,1.87,0,.43.04.8.11,1.1.07.31.18.56.32.75s.32.34.53.43.44.14.71.14c.38,0,.71-.09,1-.26.28-.17.54-.42.78-.73v-3.18Z"/>
    <path class="st0" d="M53.05,53.64c.21-.45.46-.8.77-1.06.3-.25.67-.38,1.11-.38.14,0,.27.02.4.05.13.03.24.08.34.14l-.08.86c-.03.11-.09.16-.19.16-.06,0-.15-.01-.27-.04-.12-.03-.25-.04-.4-.04-.21,0-.39.03-.56.09-.16.06-.31.15-.44.27s-.24.27-.34.44c-.1.18-.19.38-.28.6v4.16h-1.16v-6.58h.66c.13,0,.21.02.26.07s.08.13.1.25l.08,1Z"/>
    <path class="st0" d="M56.45,53.25c.36-.35.76-.61,1.18-.79s.89-.26,1.4-.26c.37,0,.7.06.98.18.29.12.53.29.72.51.2.22.34.48.44.79s.15.65.15,1.01v4.21h-.51c-.11,0-.2-.02-.26-.05-.06-.04-.11-.11-.14-.22l-.13-.62c-.17.16-.34.3-.51.43-.16.12-.34.23-.52.31-.18.08-.38.15-.58.2-.21.04-.43.07-.69.07s-.5-.04-.72-.11c-.23-.07-.42-.18-.59-.32-.17-.14-.3-.32-.4-.54-.1-.22-.15-.48-.15-.78,0-.26.07-.51.21-.75.14-.24.37-.45.7-.64.32-.19.74-.34,1.25-.46s1.15-.19,1.9-.21v-.51c0-.51-.11-.9-.33-1.16-.22-.26-.54-.39-.97-.39-.29,0-.53.04-.72.11-.19.07-.36.15-.5.24-.14.09-.26.17-.36.24-.1.07-.2.11-.3.11-.08,0-.15-.02-.2-.06-.06-.04-.1-.09-.14-.15l-.21-.37ZM60.19,55.94c-.53.02-.99.06-1.36.13-.37.07-.68.16-.92.26-.24.11-.41.24-.51.38-.11.15-.16.31-.16.49s.03.32.08.45c.06.13.13.23.23.31.1.08.21.14.34.18.13.04.27.06.43.06.2,0,.39-.02.56-.06.17-.04.33-.1.48-.18.15-.08.29-.17.43-.28.14-.11.27-.23.4-.37v-1.37Z"/>
    <path class="st0" d="M65.06,59.01c-.52,0-.92-.15-1.2-.44s-.42-.71-.42-1.25v-4.03h-.79c-.07,0-.13-.02-.18-.06-.05-.04-.07-.1-.07-.19v-.46l1.08-.14.27-2.03c.01-.06.04-.12.09-.16s.1-.06.18-.06h.58v2.27h1.9v.84h-1.9v3.95c0,.28.07.48.2.62.13.13.31.2.52.2.12,0,.23-.02.31-.05s.17-.07.23-.11.12-.07.17-.11c.05-.03.09-.05.12-.05.06,0,.11.04.16.11l.34.55c-.2.19-.44.33-.72.44-.28.11-.57.16-.87.16Z"/>
    <path class="st0" d="M73.04,57.98c-.14.17-.31.32-.51.45s-.41.23-.64.32c-.23.08-.46.14-.71.18s-.48.06-.72.06c-.46,0-.87-.08-1.26-.23-.38-.15-.72-.38-.99-.68s-.5-.66-.65-1.1c-.16-.44-.23-.94-.23-1.51,0-.46.07-.89.21-1.29.14-.4.34-.74.61-1.04.26-.29.59-.52.97-.69.38-.17.81-.25,1.29-.25.39,0,.76.07,1.1.2.34.13.63.32.87.57.25.25.44.56.58.92s.21.78.21,1.25c0,.18-.02.3-.06.36s-.11.09-.22.09h-4.4c.01.42.07.78.17,1.09.1.31.24.56.43.77.18.21.4.36.65.46.25.1.53.15.84.15.29,0,.54-.03.75-.1.21-.07.39-.14.54-.22.15-.08.28-.15.38-.22.1-.07.19-.1.26-.1.1,0,.17.04.22.11l.32.42ZM72.11,54.89c0-.27-.04-.51-.11-.74-.08-.22-.19-.42-.33-.58-.15-.16-.32-.29-.53-.38s-.44-.13-.71-.13c-.55,0-.99.16-1.32.48s-.52.77-.6,1.34h3.6Z"/>
    <path class="st0" d="M80.05,49.33v9.57h-.69c-.16,0-.27-.08-.31-.24l-.1-.8c-.28.34-.6.61-.96.82s-.78.31-1.25.31c-.38,0-.72-.07-1.03-.22-.31-.14-.57-.36-.79-.64-.22-.28-.38-.63-.5-1.05-.12-.42-.18-.9-.18-1.45,0-.49.06-.94.19-1.35.13-.42.32-.78.56-1.09s.54-.55.89-.73c.35-.18.75-.26,1.19-.26.4,0,.75.07,1.04.21.29.14.54.33.77.57v-3.65h1.16ZM78.89,53.89c-.22-.29-.45-.49-.7-.61-.25-.11-.53-.17-.84-.17-.61,0-1.08.22-1.41.66-.33.44-.49,1.06-.49,1.87,0,.43.04.8.11,1.1.07.31.18.56.32.75s.32.34.53.43.44.14.71.14c.38,0,.71-.09,1-.26.28-.17.54-.42.78-.73v-3.18Z"/>
    <path class="st0" d="M92.7,58.9h-.98c-.11,0-.2-.03-.27-.08-.07-.06-.12-.13-.16-.21l-.87-2.25h-4.18l-.87,2.25c-.03.08-.08.15-.15.21s-.17.09-.27.09h-.98l3.72-9.31h1.27l3.72,9.31ZM90.07,55.45l-1.46-3.79c-.04-.11-.09-.24-.14-.39-.05-.15-.09-.31-.14-.48-.09.35-.18.64-.28.88l-1.46,3.78h3.48Z"/>
    <path class="st0" d="M98.1,53.49s-.07.08-.1.11c-.03.03-.08.04-.14.04-.06,0-.14-.03-.21-.08s-.17-.11-.29-.18-.26-.12-.42-.18-.37-.08-.61-.08c-.32,0-.61.06-.86.17s-.45.28-.62.5c-.17.22-.29.48-.38.79s-.13.65-.13,1.03.05.75.14,1.06c.09.31.22.57.39.78.17.21.37.37.6.48.24.11.5.17.8.17s.51-.03.7-.1c.18-.07.33-.14.45-.22s.22-.16.3-.22c.08-.07.16-.1.24-.1.1,0,.17.04.22.11l.32.42c-.14.18-.31.33-.49.46s-.38.23-.59.32c-.21.08-.43.15-.66.19-.23.04-.46.06-.7.06-.41,0-.79-.08-1.15-.23-.35-.15-.66-.37-.92-.66-.26-.29-.46-.64-.61-1.06-.15-.42-.22-.9-.22-1.44,0-.49.07-.94.21-1.36.14-.42.34-.77.6-1.08.26-.3.58-.54.97-.71.38-.17.82-.25,1.32-.25.46,0,.87.07,1.23.22s.67.36.94.63l-.31.42Z"/>
    <path class="st0" d="M104.99,57.98c-.14.17-.31.32-.51.45s-.41.23-.64.32c-.23.08-.46.14-.71.18s-.48.06-.72.06c-.46,0-.87-.08-1.26-.23-.38-.15-.72-.38-.99-.68s-.5-.66-.65-1.1c-.16-.44-.23-.94-.23-1.51,0-.46.07-.89.21-1.29.14-.4.34-.74.61-1.04.26-.29.59-.52.97-.69.38-.17.81-.25,1.29-.25.39,0,.76.07,1.1.2.34.13.63.32.87.57.25.25.44.56.58.92s.21.78.21,1.25c0,.18-.02.3-.06.36s-.11.09-.22.09h-4.4c.01.42.07.78.17,1.09.1.31.24.56.43.77.18.21.4.36.65.46.25.1.53.15.84.15.29,0,.54-.03.75-.1.21-.07.39-.14.54-.22.15-.08.28-.15.38-.22.1-.07.19-.1.26-.1.1,0,.17.04.22.11l.32.42ZM104.06,54.89c0-.27-.04-.51-.11-.74-.08-.22-.19-.42-.33-.58-.15-.16-.32-.29-.53-.38s-.44-.13-.71-.13c-.55,0-.99.16-1.32.48s-.52.77-.6,1.34h3.6Z"/>
    <path class="st0" d="M107.75,49.33v9.57h-1.16v-9.57h1.16Z"/>
    <path class="st0" d="M110.85,49.33v9.57h-1.16v-9.57h1.16Z"/>
    <path class="st0" d="M118.18,52.32v6.58h-.69c-.17,0-.27-.08-.31-.24l-.09-.71c-.29.32-.61.57-.96.76-.35.19-.76.29-1.22.29-.36,0-.68-.06-.95-.18-.27-.12-.51-.29-.69-.5-.19-.22-.33-.48-.42-.79-.09-.31-.14-.65-.14-1.02v-4.2h1.16v4.2c0,.5.11.88.34,1.16.23.27.58.41,1.04.41.34,0,.66-.08.96-.24s.57-.39.82-.67v-4.85h1.16Z"/>
    <path class="st0" d="M121.25,49.33v9.57h-1.16v-9.57h1.16Z"/>
    <path class="st0" d="M122.99,53.25c.36-.35.76-.61,1.18-.79s.89-.26,1.4-.26c.37,0,.7.06.98.18.29.12.53.29.72.51.2.22.34.48.44.79s.15.65.15,1.01v4.21h-.51c-.11,0-.2-.02-.26-.05-.06-.04-.11-.11-.14-.22l-.13-.62c-.17.16-.34.3-.51.43-.16.12-.34.23-.52.31-.18.08-.38.15-.58.2-.21.04-.43.07-.69.07s-.5-.04-.72-.11c-.23-.07-.42-.18-.59-.32-.17-.14-.3-.32-.4-.54-.1-.22-.15-.48-.15-.78,0-.26.07-.51.21-.75.14-.24.37-.45.7-.64.32-.19.74-.34,1.25-.46s1.15-.19,1.9-.21v-.51c0-.51-.11-.9-.33-1.16-.22-.26-.54-.39-.97-.39-.29,0-.53.04-.72.11-.19.07-.36.15-.5.24-.14.09-.26.17-.36.24-.1.07-.2.11-.3.11-.08,0-.15-.02-.2-.06-.06-.04-.1-.09-.14-.15l-.21-.37ZM126.73,55.94c-.53.02-.99.06-1.36.13-.37.07-.68.16-.92.26-.24.11-.41.24-.51.38-.11.15-.16.31-.16.49s.03.32.08.45c.06.13.13.23.23.31.1.08.21.14.34.18.13.04.27.06.43.06.2,0,.39-.02.56-.06.17-.04.33-.1.48-.18.15-.08.29-.17.43-.28.14-.11.27-.23.4-.37v-1.37Z"/>
    <path class="st0" d="M130.76,53.64c.21-.45.46-.8.77-1.06.3-.25.67-.38,1.11-.38.14,0,.27.02.4.05.13.03.24.08.34.14l-.08.86c-.03.11-.09.16-.19.16-.06,0-.15-.01-.27-.04-.12-.03-.25-.04-.4-.04-.21,0-.39.03-.56.09-.16.06-.31.15-.44.27s-.24.27-.34.44c-.1.18-.19.38-.28.6v4.16h-1.16v-6.58h.66c.13,0,.21.02.26.07s.08.13.1.25l.08,1Z"/>
    <path class="st0" d="M145.87,54.25c0,.7-.11,1.33-.33,1.9-.22.57-.53,1.06-.94,1.47s-.89.72-1.45.95c-.57.22-1.19.33-1.88.33h-3.48v-9.31h3.48c.68,0,1.31.11,1.88.33.57.22,1.05.54,1.45.95s.71.9.94,1.47c.22.57.33,1.21.33,1.9ZM144.58,54.25c0-.57-.08-1.08-.23-1.53s-.38-.83-.66-1.14-.63-.55-1.04-.71-.86-.25-1.37-.25h-2.22v7.27h2.22c.5,0,.96-.08,1.37-.25.41-.16.75-.4,1.04-.71.29-.31.51-.69.66-1.14s.23-.96.23-1.53Z"/>
    <path class="st0" d="M152.7,57.98c-.14.17-.31.32-.51.45s-.41.23-.64.32c-.23.08-.46.14-.71.18-.24.04-.48.06-.72.06-.46,0-.87-.08-1.26-.23-.38-.15-.71-.38-.99-.68s-.5-.66-.65-1.1-.23-.94-.23-1.51c0-.46.07-.89.21-1.29.14-.4.34-.74.61-1.04.26-.29.59-.52.97-.69.38-.17.81-.25,1.29-.25.39,0,.76.07,1.1.2s.63.32.87.57c.25.25.44.56.58.92s.21.78.21,1.25c0,.18-.02.3-.06.36s-.11.09-.22.09h-4.4c.01.42.07.78.17,1.09s.24.56.43.77c.18.21.4.36.65.46.25.1.53.15.84.15.29,0,.54-.03.75-.1.21-.07.39-.14.54-.22.15-.08.28-.15.38-.22.1-.07.19-.1.26-.1.1,0,.17.04.22.11l.32.42ZM151.77,54.89c0-.27-.04-.51-.11-.74-.08-.22-.19-.42-.33-.58s-.32-.29-.53-.38-.44-.13-.71-.13c-.55,0-.99.16-1.32.48-.32.32-.52.77-.6,1.34h3.6Z"/>
    <path class="st0" d="M155.36,53.64c.21-.45.46-.8.77-1.06.3-.25.67-.38,1.11-.38.14,0,.27.02.4.05s.24.08.34.14l-.08.86c-.03.11-.09.16-.2.16-.06,0-.15-.01-.27-.04-.12-.03-.25-.04-.4-.04-.21,0-.39.03-.56.09-.16.06-.31.15-.44.27s-.24.27-.34.44c-.1.18-.19.38-.28.6v4.16h-1.16v-6.58h.66c.13,0,.21.02.26.07.05.05.08.13.1.25l.08,1Z"/>
    <path class="st0" d="M159.03,58.9v-6.58h.7c.17,0,.27.08.31.24l.08.68c.24-.3.52-.54.82-.73.3-.19.65-.29,1.05-.29.44,0,.8.12,1.08.37s.47.58.59,1c.09-.24.22-.44.37-.62s.32-.32.5-.43c.19-.11.38-.2.59-.25.21-.05.42-.08.64-.08.35,0,.66.06.93.17.27.11.5.27.69.48s.33.47.43.78c.1.31.15.66.15,1.06v4.19h-1.16v-4.19c0-.52-.11-.91-.34-1.17-.23-.27-.55-.4-.98-.4-.19,0-.37.03-.54.1-.17.07-.32.17-.45.3-.13.13-.23.29-.31.49-.08.2-.11.43-.11.69v4.19h-1.16v-4.19c0-.53-.11-.92-.32-1.18-.21-.26-.52-.39-.93-.39-.29,0-.55.08-.79.23-.24.15-.47.36-.67.63v4.91h-1.16Z"/>
    <path class="st0" d="M169.6,53.25c.36-.35.76-.61,1.18-.79.42-.17.89-.26,1.4-.26.37,0,.7.06.98.18.29.12.53.29.72.51.2.22.34.48.44.79s.15.65.15,1.01v4.21h-.51c-.11,0-.2-.02-.26-.05-.06-.04-.11-.11-.14-.22l-.13-.62c-.17.16-.34.3-.51.43-.16.12-.34.23-.52.31-.18.08-.38.15-.58.2-.21.04-.43.07-.69.07s-.5-.04-.72-.11-.42-.18-.59-.32c-.17-.14-.3-.32-.4-.54-.1-.22-.15-.48-.15-.78,0-.26.07-.51.21-.75.14-.24.37-.45.7-.64.32-.19.74-.34,1.25-.46s1.15-.19,1.9-.21v-.51c0-.51-.11-.9-.33-1.16-.22-.26-.54-.39-.97-.39-.29,0-.53.04-.72.11-.19.07-.36.15-.5.24-.14.09-.26.17-.36.24s-.2.11-.3.11c-.08,0-.14-.02-.2-.06-.06-.04-.1-.09-.14-.15l-.21-.37ZM173.33,55.94c-.53.02-.99.06-1.36.13-.37.07-.68.16-.92.26-.24.11-.41.24-.51.38s-.16.31-.16.49.03.32.08.45c.06.13.13.23.23.31.1.08.21.14.34.18.13.04.27.06.43.06.2,0,.39-.02.56-.06.17-.04.33-.1.48-.18.15-.08.29-.17.43-.28.14-.11.27-.23.4-.37v-1.37Z"/>
    <path class="st0" d="M177.46,49.33v9.57h-1.16v-9.57h1.16Z"/>
    <path class="st0" d="M192.7,49.59v9.31h-1.1v-6.84c0-.09,0-.19,0-.29s.01-.21.02-.32l-3.2,5.82c-.1.19-.25.29-.46.29h-.18c-.2,0-.36-.1-.46-.29l-3.26-5.85c.03.23.04.44.04.64v6.84h-1.11v-9.31h.93c.11,0,.2.01.26.03.06.02.12.08.18.18l3.22,5.73c.05.1.1.21.15.32.05.11.1.23.14.34.04-.12.09-.23.14-.35.05-.11.1-.22.16-.33l3.16-5.73c.05-.1.11-.16.17-.18.06-.02.15-.03.26-.03h.93Z"/>
    <path class="st0" d="M194.48,53.25c.36-.35.76-.61,1.18-.79.42-.17.89-.26,1.4-.26.37,0,.7.06.98.18.29.12.53.29.72.51.2.22.34.48.44.79s.15.65.15,1.01v4.21h-.51c-.11,0-.2-.02-.26-.05-.06-.04-.11-.11-.14-.22l-.13-.62c-.17.16-.34.3-.51.43-.17.12-.34.23-.52.31-.18.08-.38.15-.58.2-.21.04-.43.07-.69.07s-.5-.04-.72-.11c-.23-.07-.42-.18-.59-.32-.17-.14-.3-.32-.4-.54s-.15-.48-.15-.78c0-.26.07-.51.21-.75.14-.24.38-.45.7-.64.32-.19.74-.34,1.25-.46s1.15-.19,1.9-.21v-.51c0-.51-.11-.9-.33-1.16s-.54-.39-.97-.39c-.29,0-.53.04-.72.11-.19.07-.36.15-.5.24-.14.09-.26.17-.36.24-.1.07-.2.11-.3.11-.08,0-.15-.02-.2-.06-.06-.04-.1-.09-.14-.15l-.21-.37ZM198.22,55.94c-.53.02-.99.06-1.36.13s-.68.16-.92.26c-.24.11-.41.24-.51.38-.11.15-.16.31-.16.49s.03.32.08.45c.06.13.13.23.23.31.1.08.21.14.34.18.13.04.27.06.43.06.2,0,.39-.02.56-.06.17-.04.33-.1.48-.18.15-.08.29-.17.43-.28s.27-.23.4-.37v-1.37Z"/>
    <path class="st0" d="M203.09,59.01c-.52,0-.92-.15-1.2-.44s-.42-.71-.42-1.25v-4.03h-.79c-.07,0-.13-.02-.17-.06-.05-.04-.07-.1-.07-.19v-.46l1.08-.14.27-2.03c.01-.06.04-.12.09-.16.05-.04.11-.06.18-.06h.58v2.27h1.9v.84h-1.9v3.95c0,.28.07.48.2.62s.31.2.52.2c.12,0,.23-.02.32-.05s.17-.07.23-.11c.07-.04.12-.07.17-.11.04-.03.08-.05.12-.05.06,0,.11.04.16.11l.34.55c-.2.19-.44.33-.72.44-.28.11-.57.16-.87.16Z"/>
    <path class="st0" d="M206.87,53.64c.21-.45.46-.8.77-1.06s.67-.38,1.11-.38c.14,0,.27.02.4.05.13.03.24.08.34.14l-.08.86c-.03.11-.09.16-.19.16-.06,0-.15-.01-.27-.04s-.25-.04-.4-.04c-.21,0-.39.03-.56.09-.16.06-.31.15-.44.27s-.24.27-.34.44-.19.38-.28.6v4.16h-1.16v-6.58h.66c.12,0,.21.02.26.07.05.05.08.13.1.25l.08,1Z"/>
    <path class="st0" d="M212.01,50.25c0,.11-.02.22-.07.31-.05.1-.11.18-.18.26-.08.08-.16.14-.27.18-.1.04-.21.06-.32.06s-.22-.02-.32-.06-.18-.1-.26-.18c-.07-.08-.13-.16-.18-.26-.04-.1-.06-.2-.06-.31s.02-.22.06-.32c.04-.1.1-.19.18-.27.07-.08.16-.14.26-.18s.2-.06.32-.06.22.02.32.06c.1.04.19.1.27.18.08.08.14.16.18.27.04.1.07.21.07.32ZM211.76,52.32v6.58h-1.16v-6.58h1.16Z"/>
    <path class="st0" d="M219.1,58.9h-1.11c-.1,0-.17-.02-.22-.07-.05-.05-.1-.11-.13-.17l-1.66-2.58c-.02.06-.04.12-.06.18-.02.06-.05.11-.08.16l-1.53,2.24c-.04.06-.09.12-.14.17s-.12.07-.21.07h-1.03l2.31-3.38-2.22-3.2h1.11c.1,0,.17.02.21.05.04.03.08.07.12.13l1.62,2.47c.04-.13.09-.25.16-.36l1.42-2.08c.04-.06.08-.11.13-.15.04-.04.1-.06.17-.06h1.07l-2.22,3.15,2.31,3.44Z"/>
  </g>
</svg>