<?xml version="1.0" encoding="UTF-8"?> <svg xmlns="http://www.w3.org/2000/svg" xmlns:xlink="http://www.w3.org/1999/xlink" width="763px" height="438px" viewBox="0 0 763 438" version="1.1"><title>Group 3</title><g id="Page-1" stroke="none" stroke-width="1" fill="none" fill-rule="evenodd"><g id="Group-3" transform="translate(-1.000000, -0.409271)"><g id="step-one-diagram-2" transform="translate(109.000000, 0.000000)"><g id="step-one-diagram" transform="translate(0.000000, 0.655172)"><path d="M578.420062,381.854247 C589.966689,389.974168 596.402515,395.261559 601.324028,402.059632 C606.056252,409.046541 609.463454,416.788792 611.545633,425.097548 C612.492077,428.874256 613.249233,432.462128 613.8171,436.05 L617.413591,436.05 C617.792169,432.273292 617.981458,427.930079 617.981458,422.831524 C618.170747,416.977627 617.981458,410.368389 617.792169,403.570315 C618.549325,411.12373 619.306481,418.677145 620.063636,424.908713 C620.631503,429.063091 621.19937,432.462128 621.577948,435.861165 L622.902971,435.861165 C623.281549,431.706786 623.660127,427.741243 624.038705,423.964536 C624.606572,418.48831 624.98515,413.200919 625.363728,408.102364 C625.553017,412.823249 625.931595,417.732968 626.310173,422.076182 C626.688751,426.419396 627.256617,430.007268 627.824484,433.59514 C628.203062,430.007268 628.770929,426.419396 629.149507,420.565499 C629.528085,414.711602 629.906663,406.780517 630.095952,398.660595 C630.285241,403.38148 630.663819,408.102364 631.231686,412.256743 C631.799553,416.411121 632.178131,420.187828 632.745998,425.097548 C633.124576,428.30775 633.503154,432.084457 633.881732,436.05 L635.396043,436.05 C636.342488,431.14028 636.910355,426.23056 637.288933,421.132005 C637.667511,413.200919 637.478222,403.759151 637.667511,384.686778 C637.8568,365.614405 638.424667,337.289098 638.613956,308.586121 C638.803245,279.883144 638.424667,250.424825 638.046089,220.588835 C637.667511,190.752846 637.288933,160.728021 637.099644,136.934764 C636.910355,113.141506 637.288933,95.7686515 638.046089,82.9278459 C638.803245,70.0870403 639.938979,61.7782837 641.074713,53.2806918 C638.235378,56.4908932 635.396043,59.7010946 630.853108,65.5549912 C626.310173,71.4088879 620.063636,80.0953152 613.8171,88.5929072 C622.335104,73.6749124 630.663819,58.7569177 639.181823,43.6500876 C629.717374,56.8685639 620.252925,70.0870403 612.113499,81.6059982 C603.974074,93.1249562 597.15967,103.133231 589.398822,114.085683 C581.637975,125.038135 572.930682,137.312434 566.116279,145.998862 C559.301875,154.685289 554.569651,160.161515 549.837427,165.448905 C553.433917,159.217338 557.030408,152.796935 562.330499,144.677014 C567.63059,136.557093 574.634282,126.548818 583.341575,114.085683 C592.048868,101.622548 602.459762,86.7045534 611.545633,72.5419002 C620.631503,58.3792469 628.203062,44.5942644 635.96391,31.1869527 C626.499462,44.9719352 616.845724,58.7569177 608.138431,71.4088879 C599.431138,84.0608581 591.102423,95.7686515 582.962997,107.476445 C591.102423,94.0691331 599.431138,80.472986 607.759853,66.8768389 C616.088568,53.2806918 624.038705,39.4957093 632.178131,25.7107268 C626.310173,33.6418126 620.252925,41.5728984 613.627811,51.392338 C607.002697,61.2117776 599.620427,72.7307356 592.806024,83.1166813 C585.991621,93.502627 579.555796,102.37789 571.794948,113.330342 C564.0341,124.282793 554.948229,137.123599 545.862358,150.908581 C536.776487,164.693564 527.312039,178.856217 520.497636,191.319352 C514.440388,201.516462 509.518875,212.280079 505.733096,223.421366 C502.893761,232.485464 501.000871,241.738398 500.433004,251.180166 C499.675848,259.677758 500.054426,268.364186 501.19016,276.672942 C502.325894,283.28218 504.218784,289.702583 506.868829,295.934151 C509.140297,301.410377 511.790343,306.697767 515.008255,311.796322 C518.226168,317.272548 522.390525,323.31528 526.365594,329.169177 C519.929769,321.804597 513.872521,314.062347 508.383141,305.942426 C499.486559,291.968608 494.565046,275.728765 494.186468,258.922417 C494.375757,249.102977 495.890069,239.472373 498.729403,230.030604 C502.136605,219.455823 506.490251,209.258713 511.790343,199.439273 C517.279723,189.053327 523.904837,178.856217 535.262176,161.861033 C546.619514,144.865849 562.709077,121.450263 576.337883,101.056042 C589.966689,80.6618214 601.702606,63.2889667 611.167055,49.1263135 C620.631503,34.9636602 627.635195,23.4447023 634.828176,12.3034151 C631.231686,15.3247811 628.013773,18.7238179 625.174439,22.5005254 C620.631503,28.3544221 614.006389,37.9850263 601.324028,56.3020578 C588.641667,74.6190893 570.280636,102.566725 556.65183,122.205604 C543.023024,141.844483 534.126442,154.307618 525.22986,167.903765 C516.522567,181.122242 508.57243,194.529553 501.379449,208.503371 C496.836514,217.378634 493.429312,226.820403 491.157844,236.639842 C489.264955,244.570928 488.31851,252.502014 488.31851,260.621935 C488.507799,268.364186 489.643533,276.106436 491.915,283.471016 C494.375757,290.457925 497.215092,297.255998 500.622293,303.865236 C498.350826,299.710858 495.890069,295.745315 493.618601,291.402102 C490.589978,286.492382 488.507799,281.016156 487.372065,275.351095 C485.668464,266.286996 485.289886,257.034063 486.236331,247.78113 C487.372065,237.395184 490.022111,227.198074 494.186468,217.567469 C499.29727,205.482005 505.354518,193.774212 511.979632,182.632925 C519.74048,169.414448 529.015639,154.496454 540.751556,137.123599 C552.487472,119.750744 566.494857,100.300701 580.312952,80.0953152 C594.131047,59.8899299 607.759853,39.6845447 615.70999,27.0325744 C620.442214,19.8568301 624.606572,12.4922504 628.013773,4.75 C610.788477,28.9209282 593.56318,52.903021 574.823571,79.1511384 C557.030408,104.077408 538.10151,131.080867 523.147681,154.118783 L519.929769,159.028503 C505.165229,181.688748 494.754335,199.816944 488.507799,214.357268 C483.207708,225.876226 479.989795,238.150525 478.854061,250.61366 C477.718327,261.188441 478.854061,271.952058 482.261263,282.149168 C486.614909,294.801138 493.050734,306.697767 501.379449,317.272548 C511.601054,330.113354 523.147681,341.443476 536.208621,351.451751 C550.405294,362.593039 567.062723,373.734326 578.420062,381.854247 L578.420062,381.854247 Z" id="Path" fill="#BCBEC0"></path><path d="M78.7466068,68.4 C79.1355161,76.5155333 79.5244254,84.6310667 80.1077893,104.448067 C80.6911532,124.265067 81.0800625,155.783533 80.6911532,189.378067 C80.3022439,222.9726 78.7466068,258.831933 76.8020605,286.009533 C74.8575141,313.187133 72.5240585,332.437933 70.3850575,351.5 C70.9684214,329.4182 71.3573307,307.525133 72.5240585,283.556 C73.6907863,259.586867 75.2464234,233.919133 76.0242419,208.2514 C76.8020605,182.583667 76.6076058,156.7272 76.8020605,133.324267 C76.9965151,109.921333 77.7743337,89.1606667 78.7466068,68.4" id="Path" fill="#BCBEC0"></path><path d="M67.3482551,336.3 C67.7283795,332.331127 68.1085038,328.362254 68.6786904,318.534569 C69.2488769,308.706884 69.8190635,292.831392 70.38925,277.711876 C70.9594366,262.59236 71.1494988,248.22882 71.5296231,226.305522 C71.9097475,204.382224 72.2898719,174.899168 72.8600584,150.329955 C73.4302449,125.760741 74.3805559,106.105371 75.1408046,86.45 C73.4302449,96.4666793 71.7196853,106.483359 69.8190635,117.822995 C67.9184416,129.162632 65.6376954,141.636233 63.1668871,152.597882 C60.6960787,163.559531 57.8451459,172.631241 55.3743376,181.891944 C52.9035292,190.77466 51.0029073,200.035363 49.6724721,209.107073 C48.532099,216.477837 48.1519746,224.037595 48.1519746,231.408359 C48.3420368,240.480068 49.1022855,249.551778 50.4327208,258.434493 C52.1432804,269.963124 54.9942132,284.515658 57.6550837,299.257186 C55.1842754,290.752458 52.713467,282.247731 50.622783,272.420045 C48.532099,262.403366 47.0116015,252.386687 46.0612906,242.370008 C45.1109797,233.676286 45.3010418,224.79357 46.4414149,216.099849 C48.1519746,204.382224 50.4327208,192.853593 53.2836535,181.324962 C56.7047728,166.961422 61.2662652,149.195991 64.3072602,135.777421 C67.3482551,122.35885 68.8687526,112.909153 69.8190635,106.294365 C70.38925,101.75851 70.7693744,97.2226551 70.5793122,92.6868003 C68.4886282,104.404425 66.3979442,116.12205 62.5967005,133.131505 C58.7954568,150.140961 53.2836535,172.631241 49.2923477,189.073714 C45.3010418,205.516188 43.40042,216.477837 42.8302335,227.817474 C42.6401713,238.779123 43.40042,249.740772 45.1109797,260.513427 C46.6314771,269.396142 48.532099,278.089864 50.8128452,286.783585 C53.0935914,295.477307 55.9445241,305.304992 58.0352081,312.86475 C60.1258921,320.424508 61.8364518,326.472315 63.3569492,332.331127 C62.7867627,323.637405 62.2165761,314.943684 61.6463896,305.493986 C61.076203,296.044289 60.8861409,286.02761 60.3159543,275.632943 C59.7457678,265.238275 58.4153325,254.654614 57.8451459,245.393911 C57.0848972,237.456165 56.7047728,229.329425 56.894835,221.202685 C57.0848972,214.776891 57.6550837,208.351097 58.6053947,201.925303 C59.3656434,196.822466 60.1258921,193.231581 60.6960787,189.82969 C60.6960787,204.004236 60.8861409,218.178782 61.076203,229.518419 C61.2662652,240.858056 61.6463896,249.740772 62.2165761,262.214372 C62.7867627,274.687973 63.5470114,290.563464 64.3072602,306.816944 C64.6873845,286.216604 64.8774467,265.616263 65.0675089,249.17379 C65.2575711,232.731316 65.4476333,219.879728 65.2575711,206.839145 C65.0675089,193.798563 64.4973223,180.190998 63.9271358,166.772428 C60.6960787,178.868041 57.2749594,191.152648 55.3743376,202.114297 C53.4737157,213.264939 52.713467,224.604576 53.4737157,235.944213 C54.0439023,248.984796 55.9445241,265.427269 57.6550837,281.680749 C55.7544619,268.640166 53.8538401,255.599584 52.9035292,244.826929 C51.9532183,235.566225 51.7631561,226.116528 52.5234048,216.855825 C53.2836535,207.028139 54.9942132,197.389448 57.2749594,187.750756 C60.1258921,175.46615 64.4973223,159.401664 68.6786904,143.337179 C68.1085038,166.583434 67.7283795,189.640696 67.3482551,212.697958 C66.9681307,235.755219 67.1581929,258.434493 67.1581929,278.84584 C67.1581929,299.257186 67.3482551,318.156581 67.3482551,336.3" id="Path" fill="#BCBEC0"></path><polygon id="Path" fill="#BCBEC0" points="632.514368 407.55 642.596552 334.164184 647.732759 61.75 632.514368 87.0294326"></polygon><path d="M613.491379,75.05 L613.491379,407.55 C611.054527,399.615341 608.820745,391.680682 607.602319,365.042898 C606.383893,338.405114 606.790035,292.875284 607.602319,247.156534 C608.414603,201.437784 609.633029,155.530114 610.851456,126.814205 C612.069882,98.0982955 612.882166,86.5741477 613.491379,75.05" id="Path" fill="#BCBEC0"></path><path d="M643.297151,416.1 C644.659529,399.467769 646.216533,382.835538 646.995035,360.722231 C647.773537,338.608924 647.968163,311.203543 649.135916,259.605827 C650.303669,208.00811 652.249924,132.029055 654.390805,56.05 C653.028426,69.8471916 651.666047,83.8333858 650.303669,106.135696 C648.94129,128.438005 647.578912,159.245433 646.021908,206.118084 C644.464904,252.990735 642.518649,315.550604 642.129398,353.162126 C641.740146,390.773648 642.518649,403.436824 643.297151,416.1" id="Path" fill="#BCBEC0"></path><path d="M629.630285,316.35 C629.630285,316.35 630.396153,336.714443 624.269207,343.066654 C624.269207,343.066654 613.164118,357.452545 608.760376,355.023758 C607.228639,353.52912 605.88837,351.847652 604.931034,349.792525 L619.099597,322.141722 L629.630285,316.35 Z" id="Path" fill="#E6E7E8" fill-rule="nonzero"></path><path d="M623.891825,144.00566 C623.891825,144.00566 625.408136,120.106289 613.467191,115.9 C613.467191,115.9 608.349644,116.091195 606.833333,120.106289 L607.781027,128.136478 L621.996437,146.3 L623.891825,144.00566 Z" id="Path" fill="#E6E7E8" fill-rule="nonzero"></path><path d="M586.484482,362.079043 C586.484482,362.079043 616.909755,355.290978 636.752323,299.855119 C636.752323,299.855119 652.815355,254.412799 639.775953,191.246089 C639.775953,191.246089 625.791666,129.964953 602.925468,117.897283 C602.925468,117.897283 585.917552,109.035088 573.634057,122.045544 C573.634057,122.045544 559.271817,142.409737 555.303303,149.197802 C555.303303,149.197802 522.232355,193.131663 514.862258,215.192872 C514.862258,215.192872 507.492161,231.785918 507.303184,246.870506 C507.303184,246.870506 500.122064,307.963085 551.712743,350.765602 C551.523766,350.954159 568.531682,366.604419 586.484482,362.079043" id="Path" fill="#FFFFFF" fill-rule="nonzero"></path><path d="M619.496285,324.360329 C619.496285,324.360329 669.677091,262.224356 620.2566,143.240579 C620.2566,143.240579 610.56258,120.199276 598.967773,143.240579 C598.967773,143.240579 559.051222,193.289311 574.067448,266.379345 C574.067448,266.379345 582.050758,312.273088 591.554699,325.493508 C591.554699,325.493508 602.009034,346.268453 619.496285,324.360329" id="Path" fill="#696766" fill-rule="nonzero" opacity="0.06"></path><path d="M543.051367,174.165513 C552.222989,159.044255 563.827898,149.404453 569.068825,152.61772 C574.309752,155.830987 571.314937,170.76323 562.143315,185.884487 C552.971693,201.005745 541.366783,210.645547 536.125856,207.43228 C530.884929,204.219013 534.066921,189.28677 543.051367,174.165513" id="Path" fill="#696766" fill-rule="nonzero" opacity="0.18"></path><path d="M575.929432,124.257721 C576.686686,124.257721 577.443939,124.447151 578.011879,124.826012 C595.239392,134.486957 596.375272,166.500675 596.375272,175.972189 C596.375272,178.055922 596.185959,179.950225 595.807332,182.033958 C587.288232,217.836282 553.022519,237.158171 552.643892,237.347601 C539.581272,245.114243 528.790412,249.092279 520.460625,249.092279 C512.130839,249.092279 509.101825,244.924813 508.723199,244.167091 C507.776632,225.413493 525.193459,196.43066 525.382772,196.241229 C533.901872,183.17054 563.056126,139.980435 571.764539,127.099175 C572.332479,125.394303 574.036299,124.447151 575.929432,124.257721 M575.929432,123.5 C573.846986,123.68943 571.953852,124.826012 571.007286,126.720315 C561.730932,140.359295 533.144619,182.791679 524.625519,195.862369 C524.625519,195.862369 506.830065,225.224063 507.965945,244.356522 C507.965945,244.356522 510.616332,249.85 520.460625,249.85 C527.275905,249.85 537.688139,247.197976 553.022519,237.915892 C553.022519,237.915892 587.856172,218.594003 596.564586,182.223388 C596.943212,180.139655 597.321839,178.055922 597.321839,175.972189 C597.321839,165.364093 596.185959,133.918666 578.579819,124.257721 C577.633252,123.68943 576.686686,123.5 575.929432,123.5" id="Shape" fill="#FFFFFF" fill-rule="nonzero"></path><path d="M596.278635,179.486378 C596.278635,179.486378 599.097138,130.305454 573.542715,122.55 C573.542715,122.55 534.64738,180.243008 524.500771,195.943072 C524.500771,195.943072 506.838155,225.26247 507.965556,244.367368 C507.965556,244.367368 515.669463,260.256589 552.685796,237.936016 C552.497896,237.936016 588.762628,217.696174 596.278635,179.486378" id="Path" fill="#696766" fill-rule="nonzero" opacity="0.1"></path><path d="M574.487654,123.306612 C598.935783,131.25104 596.472018,178.917608 596.472018,179.295914 C589.080723,216.748217 553.071852,237.176746 552.692811,237.365899 C539.615905,245.121174 528.813244,249.093388 520.474347,249.093388 C512.135451,249.093388 509.103125,244.932021 508.724084,244.175409 C507.776482,225.449257 525.212357,196.697994 525.401877,196.319688 C534.877896,181.376597 570.886767,128.602897 574.487654,123.306612 M574.108614,122.55 C574.108614,122.55 534.877896,180.241679 524.643795,195.941382 C524.643795,195.941382 506.82888,225.070951 507.966002,244.364562 C507.966002,244.364562 510.619288,249.85 520.474347,249.85 C527.297081,249.85 537.720701,247.201857 553.071852,237.933358 C553.071852,237.933358 589.649284,217.693982 597.2301,179.485067 C597.2301,179.485067 600.072905,130.305275 574.108614,122.55" id="Shape" fill="#FFFFFF" fill-rule="nonzero" opacity="0.4"></path><path d="M337.658046,82.65 L337.658046,400.9 C335.221193,393.35406 332.987412,385.619472 331.768986,360.151926 C330.550559,334.684381 330.956702,291.10658 331.768986,247.34013 C332.58127,203.573681 333.799696,159.618583 335.018122,132.075904 C336.236549,104.533225 336.845762,93.7802608 337.658046,82.65" id="Path" fill="#BCBEC0"></path><path d="M323.710944,417.05 C325.073322,400.997289 326.630326,385.133434 327.408828,363.981627 C328.18733,342.829819 328.576581,316.578916 329.549709,267.098795 C330.522836,217.618675 332.663717,144.909337 334.804598,72.2 C333.442219,85.4198795 332.079841,98.8286145 330.717462,120.169277 C329.355083,141.50994 327.992705,171.160241 326.435701,215.918976 C324.878697,260.677711 322.932442,320.733735 322.543191,356.80512 C322.15394,392.876506 322.932442,404.963253 323.710944,417.05" id="Path" fill="#BCBEC0"></path><path d="M250.992397,158.392583 C240.944049,179.170086 233.739573,195.792087 229.378969,209.014134 C225.587139,219.969545 223.12245,231.302728 222.174492,242.824797 C221.226535,252.835775 221.416127,262.846754 223.312041,272.857732 C225.397548,284.568688 229.189377,296.090757 234.118755,306.857281 C239.8065,318.94601 246.631793,330.279193 254.784226,340.85683 C263.315843,352.190014 273.364191,363.33431 280.189484,371.834197 C287.014777,380.334085 290.996198,385.434017 293.840071,392.045041 C296.683943,399.222723 298.579858,406.778179 299.338223,414.333634 C300.475772,422.077976 300.665364,429.444545 301.044547,437 C301.42373,433.977818 301.992504,430.955636 302.561279,427.177908 C303.130053,423.40018 303.319644,418.300248 303.698827,412.822543 C304.07801,407.344838 304.07801,400.922701 304.267602,394.68945 C304.457193,401.867133 304.646785,409.044815 305.025968,415.089179 C305.405151,421.133544 305.594742,426.04459 305.973925,430.766749 C306.5427,425.289044 307.111474,419.622453 307.680248,414.333634 C308.249023,409.044815 308.628206,404.322656 309.007389,399.41161 C309.007389,403.944883 309.007389,408.667042 309.19698,412.633656 C309.386572,416.600271 309.576163,420.189112 309.765755,423.589067 C310.144938,420.189112 310.524121,416.978043 311.092895,411.311452 C311.661669,405.64486 312.040852,398.278291 312.420035,390.722836 C312.420035,395.256109 312.420035,399.600496 312.609627,403.56711 C312.799218,407.533724 312.799218,411.122565 312.98881,415.655839 C313.178401,420.189112 313.367993,425.477931 313.557584,430.955636 C314.505542,425.289044 315.453499,419.622453 316.022273,412.066997 C316.591048,404.511542 316.780639,395.633882 317.539005,377.689675 C318.297371,359.745469 319.624511,333.112489 320.572469,305.723963 C321.520426,278.335437 322.468384,250.758025 323.226749,222.613954 C323.985115,194.469883 324.743481,165.948039 325.501847,143.659445 C326.260213,121.370852 327.018579,104.937737 327.966536,92.8490081 C328.914494,80.7602795 330.052043,72.8270514 331,64.8938233 C329.104085,67.9160054 327.20817,70.5604148 324.174707,76.0381199 C321.141243,81.5158251 316.970231,89.2601668 312.609627,97.0045086 C318.486963,83.4046889 324.174707,69.6159829 330.052043,55.8272768 C323.605932,67.727119 317.159822,79.8158476 311.851261,90.2045987 C306.5427,100.59335 301.802913,109.659896 296.494351,119.859761 C291.18579,130.059626 285.308454,141.015036 280.758259,148.759378 C276.208063,156.692606 272.985008,161.414766 269.761953,166.325812 C272.226642,160.65922 274.691331,154.803742 278.29357,147.437173 C281.895808,140.070604 286.635594,131.004058 292.51293,119.670875 C298.390266,108.337692 305.405151,94.737872 311.661669,81.8935978 C317.918188,69.0493237 323.037158,56.393936 328.345719,44.116321 C321.899609,56.5828224 315.453499,69.0493237 309.576163,80.5713931 C303.698827,92.0934626 298.011083,102.6711 292.51293,113.248738 C298.200675,100.971123 303.698827,88.6935077 309.386572,76.2270063 C315.074316,63.760505 320.572469,51.1051172 326.070622,38.4497295 C322.089201,45.6274121 318.10778,52.8050947 313.557584,61.6827547 C309.007389,70.5604148 304.07801,81.1380523 299.338223,90.5823715 C294.598437,100.026691 290.427424,108.148805 285.118863,118.159784 C279.810301,128.170762 273.743374,139.692831 267.486855,152.159333 C261.230337,164.625834 254.973818,177.658995 250.234031,188.992178 C246.063019,198.436497 242.650372,208.447475 239.996091,218.458454 C236.01467,234.891569 234.308347,251.702457 235.256304,268.702232 C235.635487,274.935482 236.583445,281.168733 238.100177,287.213097 C239.237725,292.501916 240.944049,297.601849 242.650372,302.701781 C244.546287,307.9906 246.821384,313.846078 249.286074,319.701555 C245.304653,312.334986 241.892006,304.779531 238.668951,296.846303 C236.01467,289.857507 234.118755,282.490938 232.981207,274.935482 C231.654066,267.191141 231.085292,259.446799 231.274883,251.513571 C231.654066,242.447024 232.981207,233.380478 235.066713,224.502818 C237.341811,214.869612 240.564866,205.425293 244.356695,196.358747 C248.148525,186.914427 252.69872,177.470108 260.282379,162.170311 C267.866038,146.870514 278.862344,125.337466 288.152326,106.826601 C297.442309,88.3157349 305.405151,72.4492786 311.851261,59.4161181 C318.297371,46.3829576 323.037158,35.9942065 327.966536,25.7943417 C325.501847,28.6276375 323.416341,31.6498197 321.520426,34.8608882 C318.486963,40.1497069 313.936767,48.8384806 305.405151,65.6493688 C296.873534,82.460257 284.360497,107.39326 275.070514,125.337466 C265.780532,143.281673 259.903196,154.425969 253.836269,166.892471 C247.769342,179.358972 241.512823,193.336564 237.531402,204.103088 C234.308347,212.602976 231.843658,221.291749 230.137334,230.169409 C228.620603,237.535978 227.672645,245.091434 227.483054,252.646889 C227.293462,260.013458 227.862237,267.191141 228.999786,274.368823 C230.137334,280.979847 231.843658,287.59087 233.739573,294.013007 C232.412432,290.046393 231.085292,286.079779 229.758152,281.924279 C228.051828,276.824346 226.914279,271.724414 226.345505,266.435595 C225.587139,257.746821 225.587139,249.058048 226.535096,240.369274 C227.483054,230.736069 229.56856,221.291749 232.602024,212.225203 C236.204262,201.269793 240.375274,190.503269 244.92547,180.114518 C250.234031,168.025789 256.49055,154.237083 264.453392,138.559513 C272.416234,122.881943 281.895808,104.937737 291.18579,86.8046438 C300.475772,68.6715509 309.765755,49.9717989 315.263907,38.4497295 C318.486963,31.838706 321.330835,25.0387962 323.985115,18.05 C312.420035,39.9608206 300.665364,61.8716411 288.152326,85.6713255 C276.208063,108.337692 263.315843,132.892922 253.267495,153.85931" id="Path" fill="#BCBEC0"></path><path d="M319.54351,311.6 C319.54351,311.6 320.486683,328.493707 313.507206,333.749527 C313.507206,333.749527 301.057329,345.575122 296.152832,343.698044 C294.455122,342.571796 292.946046,341.070134 292.002874,339.380763 L307.848171,316.480404 L319.54351,311.6 Z" id="Path" fill="#E6E7E8" fill-rule="nonzero"></path><path d="M315.693878,163.59 C315.693878,163.59 317.550275,144.02 304.184212,140.6 C304.184212,140.6 298.429379,140.6 296.758621,144.02 L297.68682,150.48 L313.65184,165.3 L315.693878,163.59 Z" id="Path" fill="#E6E7E8" fill-rule="nonzero"></path><path d="M293.667894,343.268849 C293.667894,343.268849 313.207567,337.618103 325.795625,292.035417 C325.795625,292.035417 336.129105,254.552134 327.674439,202.565269 C327.674439,202.565269 318.844011,152.085269 304.001375,142.102284 C304.001375,142.102284 293.10425,134.756314 285.213229,145.492732 C285.213229,145.492732 276.007037,162.256612 273.564578,167.907359 C273.564578,167.907359 252.333972,204.260493 247.636936,222.34288 C244.818714,230.819 243.315662,239.483477 242.752018,248.336313 C242.752018,248.336313 238.242862,298.627954 271.122119,334.039297 C271.31,334.039297 282.207125,346.847655 293.667894,343.268849" id="Path" fill="#FFFFFF" fill-rule="nonzero"></path><path d="M306.629565,311.657003 C306.629565,311.657003 360.438141,260.088205 308.1453,162.239718 C308.1453,162.239718 297.914092,143.350048 285.409282,162.428615 C285.409282,162.428615 242.779248,204.174784 258.315527,264.243933 C258.315527,264.243933 266.652067,302.023272 276.693808,312.790383 C276.693808,312.97928 287.872351,329.979982 306.629565,311.657003" id="Path" fill="#696766" fill-rule="nonzero" opacity="0.06"></path><path d="M300.498724,192.251173 C300.498724,192.251173 302.379384,151.754176 285.829576,145.35 C285.829576,145.35 260.816798,192.816248 254.234488,205.6246 C254.234488,205.6246 242.950528,229.73444 243.514726,245.368165 C243.514726,245.368165 248.404442,258.364875 272.288824,240.094137 C287.52217,228.415933 297.489668,211.275344 300.498724,192.251173" id="Path" fill="#696766" fill-rule="nonzero" opacity="0.1"></path><path d="M286.017642,146.102809 C301.62712,152.878092 299.934526,191.835967 299.934526,192.212372 C296.737404,211.032602 286.769906,227.970808 271.912692,239.827553 C263.637788,246.226431 256.679346,249.42587 251.413498,249.42587 C248.216376,249.802275 245.395386,248.108454 243.890858,245.28542 C243.32666,229.852831 254.422554,206.139342 254.422554,205.762937 C260.628732,193.71799 283.572784,150.619664 286.017642,146.102809 M285.829576,145.35 C285.829576,145.35 260.628732,192.776979 254.234488,205.574735 C254.234488,205.574735 242.950528,229.664629 243.514726,245.28542 C245.019254,248.296656 248.216376,250.178679 251.413498,249.802275 C255.739016,249.802275 262.321326,247.543847 272.288824,240.015755 C287.334104,228.159011 297.489668,211.032602 300.498724,192.02417 C300.498724,192.02417 302.379384,151.748878 285.829576,145.35" id="Shape" fill="#FFFFFF" fill-rule="nonzero" opacity="0.4"></path><path d="M265.025053,190.192666 C270.703715,177.473492 278.464552,168.551086 282.250327,170.259632 C286.036101,171.968178 284.71108,183.73816 279.032418,196.457334 C273.353757,209.176508 265.592919,218.098914 261.807144,216.390368 C258.02137,214.681822 259.346391,202.91184 265.025053,190.192666" id="Path" fill="#696766" fill-rule="nonzero" opacity="0.18"></path><path d="M266.924893,189.424779 C271.917007,178.571885 278.388266,170.765417 281.161662,172.098229 C283.935059,173.43104 282.271021,183.522328 277.094014,194.375221 C271.917007,205.228115 265.630641,213.034583 262.857244,211.701771 C260.083847,210.36896 261.932779,200.277672 266.924893,189.424779" id="Path" fill="#E6E7E8" fill-rule="nonzero" opacity="0.75"></path><path d="M287.364006,146.864558 C287.928588,146.864558 288.304977,147.052744 288.681365,147.24093 C299.784827,155.521112 300.34941,181.867147 300.161216,189.959143 C300.161216,191.276445 299.973022,192.405561 299.784827,193.534676 C296.397331,211.600529 286.423034,227.972707 272.12027,239.452051 C263.839722,245.850374 256.876534,249.049535 251.607094,249.049535 C248.407791,249.425907 245.584877,247.732233 244.079323,244.909444 C243.51474,229.478195 254.618202,205.766764 254.618202,205.578578 C260.075836,194.851978 278.518875,159.661203 284.164703,149.122789 C285.105674,147.805488 286.23484,146.864558 287.364006,146.864558 M287.175811,146.3 C285.858451,146.3 284.729286,147.24093 283.788314,149.122789 C277.766098,160.602133 259.511253,194.851978 254.241814,205.578578 C254.241814,205.578578 242.950158,229.666381 243.51474,245.285816 C245.020295,248.296791 248.219597,250.178651 251.4189,249.802279 C255.747368,249.802279 262.334168,247.544047 272.308464,240.016609 C286.987617,228.537265 296.773719,211.976901 300.161216,193.722862 C300.34941,192.405561 300.537605,191.276445 300.537605,189.959143 C300.725799,182.243519 300.161216,155.332926 288.86956,146.864558 C288.304977,146.676372 287.740394,146.3 287.175811,146.3" id="Shape" fill="#FFFFFF" fill-rule="nonzero"></path><polyline id="Path" points="0 437 662 437 662 0.95 0 0.95"></polyline><path d="M586.665714,408.514413 C591.194448,416.247009 593.83621,425.677005 595.723183,436.05 L602.516285,436.05 C601.384101,424.545405 598.931037,414.17241 594.213605,405.874014 C587.797897,391.351821 578.363034,386.448223 564.210738,380.413026 C538.736605,369.662831 523.640823,361.930234 502.318031,331.565648 C451.747161,275.362874 478.730871,210.107304 500.99715,172.575921 C504.771096,166.163524 574.966483,62.9993715 590.439659,40.9331816 C598.176248,28.2969874 604.591955,14.9063936 609.686782,0.95 L604.214561,0.95 C602.138891,6.23079757 600.063218,11.3229952 597.98755,16.0379931 C515.338143,161.825726 394.571886,236.699892 520.621667,363.061834 C520.621667,363.061834 543.831432,379.658626 556.851544,383.053424 C571.381234,387.014023 580.250006,393.992219 586.665714,408.514413 L586.665714,408.514413 Z" id="Path" fill="#53575A"></path><path d="M276.888494,408.513971 C281.436796,417.189706 284.468997,426.43125 285.985097,436.05 L292.80755,436.05 C291.670474,424.545221 289.206811,414.172059 284.468997,405.873529 L251.114785,358.722794 C226.667664,324.962868 190.849789,247.635662 249.030147,128.438603 C257.747725,110.709926 269.497504,92.2268382 278.215082,73.1779412 C287.69071,52.6202206 295.650238,31.4966912 301.71464,9.80735294 C302.662203,6.60110294 303.609766,3.39485294 304.367816,0 L297.166339,0 C292.997062,13.5794118 289.017298,26.0272059 285.037534,36.9661765 C279.162645,53.5632353 272.340193,69.9716912 264.570177,85.8143382 C256.989675,100.902574 248.840634,115.613603 239.744031,129.947426 C239.744031,129.947426 170.761457,255.179779 240.312569,358.722794 L276.888494,408.513971 Z" id="Path" fill="#53575A"></path><path d="M45.6929664,329.208312 C47.9606074,332.228571 50.2282485,334.871299 52.6848596,337.702792 C55.1414707,339.967987 57.2201416,342.610714 59.1098424,345.253442 C71.2039278,366.206494 64.0230646,405.092338 76.4950902,436.05 L76.6840603,436.05 C64.967915,404.903571 76.11715,364.507597 64.0230646,343.554545 L53.2517698,329.585844 C0.340146152,252.380455 50.4172185,120.81039 50.4172185,120.81039 C50.4172185,120.81039 60.6216031,95.3269481 65.3458552,78.1492208 C70.0701073,60.9714935 74.4164193,39.4521429 77.0620005,24.1620779 C78.384791,16.2338961 79.3296415,8.11694805 79.8965517,0 L78.5737611,0 C74.9833295,17.744026 71.3928979,35.2992857 67.6134962,50.7781169 C63.4561544,68.7109091 59.6767527,84.000974 54.7635305,96.4595455 C23.5834665,173.476169 22.8275862,233.503831 22.8275862,233.503831 C24.1503768,270.124481 32.0871203,302.969805 43.6142955,325.810519 C44.1812058,326.943117 44.9370861,328.075714 45.6929664,329.208312 L45.6929664,329.208312 Z" id="Path" fill="#53575A"></path></g></g><g id="Group-13" transform="translate(0.000000, 327.655172)"><line x1="120" y1="28.5" x2="178.5" y2="28.5" id="Line" stroke="#F58320" stroke-linecap="square"></line><text id="breast-after-mastect" font-family="Avenir-Roman, Avenir" font-size="16" font-weight="normal" fill="#55575A"><tspan x="0" y="16">breast after</tspan><tspan x="0" y="36">mastectomy</tspan></text></g><g id="Group-13-Copy" transform="translate(405.000000, 332.655172)"><line x1="198.5" y1="23.5" x2="277.5" y2="23.5" id="Line" stroke="#F58320" stroke-linecap="square"></line><line x1="0.5" y1="23.5" x2="79.5" y2="23.5" id="Line-Copy" stroke="#F58320" stroke-linecap="square"></line><text id="tissue-expander" font-family="Avenir-Roman, Avenir" font-size="16" font-weight="normal" fill="#55575A"><tspan x="95.5" y="16">tissue</tspan><tspan x="95.5" y="36">expander</tspan></text></g></g></g></svg> 