<?xml version="1.0" encoding="UTF-8"?> <svg xmlns="http://www.w3.org/2000/svg" xmlns:xlink="http://www.w3.org/1999/xlink" width="581px" height="437px" viewBox="0 0 581 437" version="1.1"><title>Group 4</title><defs><rect id="path-1" x="0" y="0" width="301" height="453"></rect></defs><g id="Page-1" stroke="none" stroke-width="1" fill="none" fill-rule="evenodd"><g id="Group-4" transform="translate(-391.000000, -11.000000)"><path d="M601.324028,413.305534 C606.056252,420.292443 609.463454,428.034693 611.545633,436.34345 C612.492077,440.120157 613.249233,443.708029 613.8171,447.295902 L617.413591,447.295902 C617.792169,443.519194 617.981458,439.17598 617.981458,434.077425 C618.170747,428.223529 617.981458,421.61429 617.792169,414.816217 C618.549325,422.369632 619.306481,429.923047 620.063636,436.154614 C620.631503,440.308993 621.19937,443.708029 621.577948,447.107066 L622.902971,447.107066 C623.281549,442.952688 623.660127,438.987145 624.038705,435.210438 C624.606572,429.734212 624.98515,424.446821 625.363728,419.348266 C625.553017,424.06915 625.931595,428.97887 626.310173,433.322084 C626.688751,437.665297 627.256617,441.25317 627.824484,444.841042 C628.203062,441.25317 628.770929,437.665297 629.149507,431.811401 C629.528085,425.957504 629.906663,418.026418 630.095952,409.906497 C630.285241,414.627381 630.663819,419.348266 631.231686,423.502644 C631.799553,427.657022 632.178131,431.43373 632.745998,436.34345 C633.124576,439.553651 633.503154,443.330359 633.881732,447.295902 L635.396043,447.295902 C636.342488,442.386182 636.910355,437.476462 637.288933,432.377907 C637.667511,424.446821 637.478222,415.005052 637.667511,395.932679 C637.8568,376.860306 638.424667,348.535 638.613956,319.832022 C638.803245,291.129045 638.424667,261.670727 638.046089,231.834737 C637.667511,201.998748 637.288933,171.973923 637.099644,148.180665 C636.910355,124.387408 637.288933,107.014553 638.046089,94.1737475 C638.803245,81.3329419 639.938979,73.0241854 641.074713,64.5265934 C638.235378,67.7367948 635.396043,70.9469962 630.853108,76.8008929 C626.310173,82.6547896 620.063636,91.3412169 613.8171,99.8388088 C622.335104,84.9208141 630.663819,70.0028193 639.181823,54.8959892 C629.717374,68.1144656 620.252925,81.3329419 612.113499,92.8518999 C603.974074,104.370858 597.15967,114.379133 589.398822,125.331585 C581.637975,136.284036 572.930682,148.558336 566.116279,157.244763 C559.301875,165.931191 554.569651,171.407417 549.837427,176.694807 C553.433917,170.46324 557.030408,164.042837 562.330499,155.922916 C567.63059,147.802994 574.634282,137.79472 583.341575,125.331585 C592.048868,112.86845 602.459762,97.9504551 611.545633,83.7878018 C620.631503,69.6251486 628.203062,55.8401661 635.96391,42.4328544 C626.499462,56.2178368 616.845724,70.0028193 608.138431,82.6547896 C599.431138,95.3067598 591.102423,107.014553 582.962997,118.722346 C591.102423,105.315035 599.431138,91.7188876 607.759853,78.1227405 C616.088568,64.5265934 624.038705,50.7416109 632.178131,36.9566284 C626.310173,44.8877142 620.252925,52.8188001 613.627811,62.6382396 C607.002697,72.4576792 599.620427,83.9766372 592.806024,94.3625829 C585.991621,104.748529 579.555796,113.623791 571.794948,124.576243 C564.0341,135.528695 554.948229,148.369501 545.862358,162.154483 C536.776487,175.939466 527.312039,190.102119 520.497636,202.565254 C514.440388,212.762364 509.518875,223.52598 505.733096,234.667268 C502.893761,243.731366 501.000871,252.984299 500.433004,262.426068 C499.675848,270.92366 500.054426,279.610087 501.19016,287.918844 C502.325894,294.528082 504.218784,300.948485 506.868829,307.180052 C509.140297,312.656278 511.790343,317.943669 515.008255,323.042224 C518.226168,328.51845 522.390525,334.561182 526.365594,340.415079 C519.929769,333.050499 513.872521,325.308248 508.383141,317.188327 C499.486559,303.214509 494.565046,286.974667 494.186468,270.168318 C494.375757,260.348879 495.890069,250.718275 498.729403,241.276506 C502.136605,230.701725 506.490251,220.504614 511.790343,210.685175 C517.279723,200.299229 523.904837,190.102119 535.262176,173.106935 C546.619514,156.111751 562.709077,132.696164 576.337883,112.301944 C589.966689,91.907723 601.702606,74.5348684 611.167055,60.3722151 C620.631503,46.2095619 627.635195,34.6906039 634.828176,23.5493167 C631.231686,26.5706827 628.013773,29.9697195 625.174439,33.746427 C620.631503,39.6003237 614.006389,49.2309279 601.324028,67.5479594 C588.641667,85.864991 570.280636,113.812627 556.65183,133.451506 C543.023024,153.090385 534.126442,165.55352 525.22986,179.149667 C516.522567,192.368143 508.57243,205.775455 501.379449,219.749273 C496.836514,228.624536 493.429312,238.066304 491.157844,247.885744 C489.264955,255.81683 488.31851,263.747916 488.31851,271.867837 C488.507799,279.610087 489.643533,287.352338 491.915,294.716917 C494.375757,301.703826 497.215092,308.5019 500.622293,315.111138 C498.350826,310.95676 495.890069,306.991217 493.618601,302.648003 C490.589978,297.738283 488.507799,292.262058 487.372065,286.596996 C485.668464,277.532898 485.289886,268.279965 486.236331,259.027031 C487.372065,248.641086 490.022111,238.443975 494.186468,228.813371 C499.29727,216.727907 505.354518,205.020114 511.979632,193.878826 C519.74048,180.66035 529.015639,165.742355 540.751556,148.369501 C552.487472,130.996646 566.494857,111.546602 580.312952,91.3412169 C594.131047,71.1358316 607.759853,50.9304463 615.70999,38.2784761 C620.442214,31.1027318 624.606572,23.7381521 628.013773,15.9959016 C610.788477,40.1668298 593.56318,64.1489227 574.823571,90.39704 C557.030408,115.32331 538.10151,142.326769 523.147681,165.364684 L519.929769,170.274404 C505.165229,192.934649 494.754335,211.062846 488.507799,225.60317 C483.207708,237.122128 479.989795,249.396427 478.854061,261.859562 C477.718327,272.434343 478.854061,283.197959 482.261263,293.39507 C486.614909,306.04704 493.050734,317.943669 501.379449,328.51845 C511.601054,341.359255 523.147681,352.689378 536.208621,362.697653 C550.405294,373.83894 567.062723,384.980227 578.420062,393.100149 C589.966689,401.22007 596.402515,406.50746 601.324028,413.305534 Z" id="Path" fill="#BCBEC0"></path><polygon id="Path" fill="#BCBEC0" points="632.514368 418.795902 642.596552 345.410086 647.732759 72.9959016 632.514368 98.2753343"></polygon><path d="M613.491379,418.795902 C611.054527,410.861243 608.820745,402.926583 607.602319,376.288799 C606.383893,349.651015 606.790035,304.121186 607.602319,258.402436 C608.414603,212.683686 609.633029,166.776015 610.851456,138.060106 C612.069882,109.344197 612.882166,97.8200494 613.491379,86.2959016 L613.491379,418.795902 Z" id="Path" fill="#BCBEC0"></path><path d="M646.995035,371.968133 C647.773537,349.854826 647.968163,322.449445 649.135916,270.851728 C650.303669,219.254012 652.249924,143.274957 654.390805,67.2959016 C653.028426,81.0930932 651.666047,95.0792875 650.303669,117.381597 C648.94129,139.683907 647.578912,170.491335 646.021908,217.363986 C644.464904,264.236637 642.518649,326.796505 642.129398,364.408028 C641.740146,402.01955 642.518649,414.682726 643.297151,427.345902 C644.659529,410.713671 646.216533,394.08144 646.995035,371.968133 Z" id="Path" fill="#BCBEC0"></path><path d="M629.630285,327.595902 C629.630285,327.595902 630.396153,347.960344 624.269207,354.312556 C624.269207,354.312556 613.164118,368.698446 608.760376,366.26966 C607.228639,364.775022 605.88837,363.093554 604.931034,361.038427 L619.099597,333.387624 L629.630285,327.595902 Z" id="Path" fill="#E6E7E8" fill-rule="nonzero"></path><path d="M636.752323,311.101021 C636.752323,311.101021 652.815355,265.658701 639.775953,202.491991 C639.775953,202.491991 625.791666,141.210854 602.925468,129.143184 C602.925468,129.143184 585.917552,120.280989 573.634057,133.291446 C573.634057,133.291446 559.271817,153.655639 555.303303,160.443703 C555.303303,160.443703 522.232355,204.377564 514.862258,226.438774 C514.862258,226.438774 507.492161,243.03182 507.303184,258.116407 C507.303184,258.116407 500.122064,319.208987 551.712743,362.011504 C551.523766,362.200061 568.531682,377.85032 586.484482,373.324944 C586.484482,373.324944 616.909755,366.53688 636.752323,311.101021 Z" id="Path" fill="#FFFFFF" fill-rule="nonzero"></path><path d="M620.2566,154.486481 C620.2566,154.486481 610.56258,131.445178 598.967773,154.486481 C598.967773,154.486481 559.051222,204.535212 574.067448,277.625247 C574.067448,277.625247 582.050758,323.51899 591.554699,336.739409 C591.554699,336.739409 602.009034,357.514355 619.496285,335.606231 C619.496285,335.606231 669.677091,273.470258 620.2566,154.486481 Z" id="Path" fill="#696766" fill-rule="nonzero" opacity="0.06"></path><path d="M569.068825,163.863622 C574.309752,167.076889 571.314937,182.009131 562.143315,197.130389 C552.971693,212.251647 541.366783,221.891449 536.125856,218.678182 C530.884929,215.464914 534.066921,200.532672 543.051367,185.411414 C552.222989,170.290156 563.827898,160.650354 569.068825,163.863622 Z" id="Path" fill="#696766" fill-rule="nonzero" opacity="0.18"></path><path d="M578.011879,136.071914 C595.239392,145.732858 596.375272,177.746576 596.375272,187.218091 C596.375272,189.301824 596.185959,191.196127 595.807332,193.27986 C587.288232,229.082183 553.022519,248.404073 552.643892,248.593503 C539.581272,256.360145 528.790412,260.33818 520.460625,260.33818 C512.130839,260.33818 509.101825,256.170714 508.723199,255.412993 C507.776632,236.659395 525.193459,207.676561 525.382772,207.487131 C533.901872,194.416441 563.056126,151.226336 571.764539,138.345077 C572.332479,136.640204 574.036299,135.693053 575.929432,135.503623 C576.686686,135.503623 577.443939,135.693053 578.011879,136.071914 Z M571.007286,137.966216 C561.730932,151.605197 533.144619,194.037581 524.625519,207.10827 C524.625519,207.10827 506.830065,236.469965 507.965945,255.602423 C507.965945,255.602423 510.616332,261.095902 520.460625,261.095902 C527.275905,261.095902 537.688139,258.443878 553.022519,249.161794 C553.022519,249.161794 587.856172,229.839905 596.564586,193.46929 C596.943212,191.385557 597.321839,189.301824 597.321839,187.218091 C597.321839,176.609995 596.185959,145.164567 578.579819,135.503623 C577.633252,134.935332 576.686686,134.745902 575.929432,134.745902 C573.846986,134.935332 571.953852,136.071914 571.007286,137.966216 Z" id="Shape" fill="#FFFFFF" fill-rule="nonzero"></path><path d="M573.542715,133.795902 C573.542715,133.795902 534.64738,191.48891 524.500771,207.188974 C524.500771,207.188974 506.838155,236.508372 507.965556,255.613269 C507.965556,255.613269 515.669463,271.502491 552.685796,249.181918 C552.497896,249.181918 588.762628,228.942075 596.278635,190.73228 C596.278635,190.73228 599.097138,141.551355 573.542715,133.795902 Z" id="Path" fill="#696766" fill-rule="nonzero" opacity="0.1"></path><path d="M596.472018,190.541815 C589.080723,227.994119 553.071852,248.422648 552.692811,248.611801 C539.615905,256.367075 528.813244,260.339289 520.474347,260.339289 C512.135451,260.339289 509.103125,256.177922 508.724084,255.42131 C507.776482,236.695159 525.212357,207.943896 525.401877,207.56559 C534.877896,192.622499 570.886767,139.848799 574.487654,134.552514 C598.935783,142.496942 596.472018,190.163509 596.472018,190.541815 Z M524.643795,207.187284 C524.643795,207.187284 506.82888,236.316853 507.966002,255.610463 C507.966002,255.610463 510.619288,261.095902 520.474347,261.095902 C527.297081,261.095902 537.720701,258.447759 553.071852,249.17926 C553.071852,249.17926 589.649284,228.939884 597.2301,190.730969 C597.2301,190.730969 600.072905,141.551177 574.108614,133.795902 C574.108614,133.795902 534.877896,191.487581 524.643795,207.187284 Z" id="Shape" fill="#FFFFFF" fill-rule="nonzero" opacity="0.4"></path><polyline id="Path" points="0 448.245902 662 448.245902 662 12.1959016 0 12.1959016"></polyline><path d="M595.723183,447.295902 L602.516285,447.295902 C601.384101,435.791307 598.931037,425.418312 594.213605,417.119916 C587.797897,402.597722 578.363034,397.694124 564.210738,391.658927 C538.736605,380.908732 523.640823,373.176136 502.318031,342.81155 C451.747161,286.608776 478.730871,221.353205 500.99715,183.821823 C504.771096,177.409426 574.966483,74.2452731 590.439659,52.1790833 C598.176248,39.5428891 604.591955,26.1522952 609.686782,12.1959016 L604.214561,12.1959016 C602.138891,17.4766992 600.063218,22.5688969 597.98755,27.2838947 C515.338143,173.071628 394.571886,247.945793 520.621667,374.307735 C520.621667,374.307735 543.831432,390.904528 556.851544,394.299326 C571.381234,398.259924 580.250006,405.238121 586.665714,419.760314 C591.194448,427.492911 593.83621,436.922906 595.723183,447.295902 Z" id="Path" fill="#53575A"></path><g id="Group-14" transform="translate(714.000000, 0.000000)"><g id="step-two-diagram"><mask id="mask-2" fill="white"><use xlink:href="#path-1"></use></mask><g id="Mask"></g><g mask="url(#mask-2)"><g transform="translate(-255.000000, 11.245902)"><path d="M122.407699,378.4375 C133.792943,386.5 140.138816,391.75 144.991543,398.5 C149.657626,405.4375 153.017206,413.125 154.88364,421.375 C155.816856,425.125 156.56343,429.0625 157.12336,433 L160.48294,433 C160.856226,429.0625 161.04287,424.5625 161.229513,419.3125 C161.416156,413.5 161.229513,406.9375 161.04287,400.1875 C161.789443,407.6875 162.536016,415.1875 163.28259,421.375 C163.84252,425.6875 164.40245,429.4375 164.96238,433 L166.08224,433 C166.455526,428.6875 166.828813,424.5625 167.2021,420.4375 C167.76203,415 168.135316,409.75 168.508603,404.6875 C168.695246,409.5625 169.068533,414.25 169.44182,418.5625 C169.815106,422.875 170.375036,426.4375 170.934966,430 C171.308253,426.4375 171.868183,422.875 172.24147,417.0625 C172.614756,411.25 172.988043,403.375 173.174686,395.3125 C173.36133,400 173.734617,404.5 174.294547,408.8125 C174.854477,413.125 175.227763,416.6875 175.787693,421.5625 C176.16098,424.9375 176.534267,428.875 176.907553,433 L178.214057,433 C179.147273,427.9375 179.707203,422.875 180.08049,417.625 C180.453777,409.75 180.267133,400.375 180.453777,381.4375 C180.64042,362.5 181.20035,334.375 181.386993,305.875 C181.573637,277.375 181.20035,248.125 180.827063,218.5 C180.453777,188.875 180.08049,159.0625 179.893847,135.4375 C179.707203,111.8125 180.08049,94.5625 180.827063,81.8125 C181.573637,69.0625 182.88014,60.625 184,52.375 C181.20035,55.5625 178.4007,58.75 173.92126,64.5625 C169.44182,70.375 163.28259,79 157.12336,87.4375 C165.52231,72.625 173.734617,57.8125 182.133567,42.8125 C172.8014,55.9375 163.469233,69.0625 155.44357,80.5 C147.417906,91.9375 140.698746,101.875 133.046369,112.75 C125.393992,123.8125 116.808399,135.8125 110.089239,144.4375 C103.370079,153.0625 98.7039953,158.3125 94.0379119,163.75 C97.5841353,157.5625 101.130359,151.1875 106.356372,143.125 C111.582386,135.0625 118.488189,125.125 127.073782,112.75 C135.846019,100.375 145.924759,85.5625 154.88364,71.5 C163.84252,57.4375 171.308253,43.75 178.96063,30.4375 L151.524059,70.375 C142.751823,82.9375 134.726159,94.5625 126.700496,106.1875 C134.726159,92.875 142.938466,79.375 151.150773,65.875 C159.36308,52.375 167.2021,38.6875 175.227763,25 C169.44182,32.875 163.469233,40.75 156.936716,50.5 C150.404199,60.25 143.125109,71.6875 136.405949,82 C129.686789,92.3125 123.340916,101.125 115.688539,112 C108.036162,122.875 99.077282,135.625 90.1184019,149.125 C81.1595217,162.625 72.0139983,176.875 65.1081948,189.25 C59.135608,199.375 54.2828813,210.0625 50.5500146,221.125 C47.5637212,230.125 45.8839312,239.3125 45.3240012,248.6875 C44.5774278,257.125 44.9507145,265.5625 46.0705745,274 C47.1904345,280.5625 49.0568679,286.9375 51.6698746,293.125 C53.9095946,298.5625 56.5226013,303.8125 59.6955381,308.875 C62.8684748,314.3125 66.9746282,320.3125 70.8941382,326.125 C64.5482648,318.8125 58.575678,311.125 53.1630213,303.0625 C44.2041411,289 39.3514144,272.875 39.1647711,256.375 C39.3514144,246.625 40.8445611,237.0625 43.6442111,227.6875 C46.8171479,217.1875 51.1099446,207.0625 56.5226013,197.3125 C61.9352581,187 68.4677749,176.875 79.666375,160 C90.8649752,143.125 106.729659,119.875 120.167979,99.625 C133.606299,79.375 145.178186,62.125 154.510353,47.875 C163.84252,33.625 170.748323,22.375 177.84077,11.125 C174.294547,14.125 171.12161,17.5 168.32196,21.25 C163.84252,27.0625 157.310003,36.4375 144.804899,54.8125 C132.299796,73.1875 114.008749,100.375 100.570429,120.0625 C87.1321085,139.5625 78.3598717,151.9375 69.5876349,165.4375 C60.8153981,178.9375 52.0431613,194.875 46.2572178,206.3125 C41.7777778,215.125 38.4181977,224.5 36.1784777,234.25 C34.3120443,242.125 33.3788276,250 33.3788276,258.0625 C33.565471,265.75 34.685331,273.4375 36.925051,280.75 C39.3514144,287.6875 42.1510645,294.4375 45.5106445,301 C43.2709245,296.875 41.0312044,292.9375 38.6048411,288.625 C35.6185477,283.75 33.565471,278.3125 32.445611,272.6875 C30.7658209,263.6875 30.3925343,254.5 31.3257509,245.3125 C32.445611,235 35.0586177,224.875 39.1647711,215.3125 C44.2041411,203.3125 50.1767279,191.6875 56.7092447,180.625 C64.3616215,167.5 73.5071449,152.6875 85.0790318,135.4375 C96.6509186,118.1875 110.649169,98.875 124.274132,78.8125 C137.899096,58.75 151.337416,38.6875 159.176436,26.125 C163.84252,19 167.948673,11.6875 171.308253,4 C154.32371,28 137.339166,51.8125 119.048119,77.875 C101.503645,102.625 82.8393118,129.4375 68.0944882,152.3125 L64.9215515,157.1875 C50.3633712,179.6875 40.0979878,197.6875 33.9387577,212.125 C28.7127442,223.5625 25.5398075,235.75 24.4199475,248.125 C23.3000875,258.625 24.4199475,269.3125 27.7795276,279.4375 C32.0723243,292 38.4181977,303.8125 46.6305045,314.3125 C56.7092447,327.0625 68.0944882,338.3125 80.9728784,348.25 C94.7844853,359.3125 111.022456,370.1875 122.407699,378.4375 L122.407699,378.4375 Z" id="Path" fill="#BCBEC0" fill-rule="evenodd"></path><path d="M395.860506,348.412021 C409.984307,359.648955 426.367916,370.511324 437.855275,378.56446 C449.342633,386.617596 455.745423,391.861498 460.641674,398.603659 C465.349608,405.533101 468.73932,413.211672 470.622493,421.452091 C471.752398,425.5723 472.505667,429.692509 473.070619,434 L476.460331,434 C476.836966,429.879791 477.213601,425.010453 477.213601,419.391986 C477.401918,413.586237 477.213601,407.031359 477.025283,400.289199 C477.778553,407.780488 478.531822,415.271777 479.285092,421.452091 C480.038361,426.134146 480.414996,430.067073 481.168265,434 L481.921534,434 C482.298169,429.505226 482.863121,424.823171 483.051439,420.515679 C483.616391,415.084495 483.993025,409.840592 484.36966,404.783972 C484.557977,409.65331 484.934612,414.335366 485.311247,418.642857 C485.687881,422.950348 486.252833,426.508711 486.817786,430.067073 C487.19442,426.508711 487.759372,422.950348 488.136007,417.144599 C488.512642,411.33885 488.889276,403.472997 489.077594,395.419861 C489.265911,400.101916 489.642546,404.59669 490.207498,408.904181 C490.77245,413.211672 491.149085,416.770035 491.714037,421.639373 C492.090671,425.385017 492.655623,429.505226 493.032258,434 L493.973845,434 C495.103749,428.568815 495.668701,423.137631 496.045336,417.706446 C496.42197,409.840592 496.233653,400.476481 496.42197,381.560976 C496.610288,362.64547 497.17524,334.553136 497.363557,306.086237 C497.551874,277.619338 497.17524,248.40331 496.798605,218.812718 C496.42197,189.222125 496.045336,159.444251 495.857018,135.84669 C495.668701,112.249129 496.045336,95.0191638 496.798605,82.2839721 C497.551874,69.5487805 498.870096,61.1210801 500,52.880662 C497.17524,56.0644599 494.35048,59.2482578 489.830863,65.054007 C485.311247,70.8597561 479.096774,79.4747387 472.882302,87.902439 C481.356582,73.1071429 489.642546,58.3118467 498.116827,43.3292683 C488.700959,56.4390244 479.285092,69.5487805 471.187446,80.9729965 C463.089799,92.3972125 456.310375,102.323171 448.589364,113.18554 C440.868352,124.047909 432.205754,136.221254 425.42633,144.836237 C418.646905,153.45122 413.938971,158.695122 409.231037,164.126307 C412.809067,157.945993 416.387097,151.578397 421.659983,143.525261 C426.932868,135.472125 433.90061,125.546167 442.563208,113.18554 C451.414124,100.824913 461.583261,86.0296167 470.622493,71.9834495 C479.661726,57.9372822 487.19442,44.2656794 494.915432,30.9686411 C485.499564,44.6402439 475.895379,58.3118467 467.232781,70.8597561 C458.570183,83.4076655 450.28422,95.0191638 442.186574,106.630662 C450.28422,93.3336237 458.570183,79.8493031 466.856146,66.3649826 C475.14211,52.880662 483.051439,39.2090592 491.149085,25.5374564 C485.122929,33.4033101 479.285092,41.2691638 472.693984,51.0078397 C466.102877,60.7465157 458.7585,72.1707317 451.979076,82.4712544 C445.199651,92.771777 438.796861,101.574042 431.07585,112.436411 C423.354839,123.29878 414.315606,136.033972 405.276373,149.518293 C396.23714,163.002613 387.00959,177.236063 380.041848,189.59669 C374.015693,199.70993 369.119442,210.385017 365.353095,221.434669 C359.891892,238.477352 358.385353,256.643728 360.833479,274.248258 C361.963383,280.803136 363.846556,287.170732 366.482999,293.351045 C368.742807,298.78223 371.37925,304.026132 374.580645,309.082753 C377.78204,314.513937 381.925022,320.506969 385.879686,326.312718 C379.476896,319.008711 373.450741,311.330139 367.989538,303.277003 C358.950305,289.230836 354.054054,273.124564 353.865737,256.643728 C354.054054,246.905052 355.560593,237.353659 358.385353,227.989547 C361.775065,217.501742 366.106364,207.388502 371.37925,197.649826 C376.840453,187.349303 383.431561,177.236063 394.730602,160.380662 C406.029643,143.525261 422.036617,120.302265 435.595466,100.075784 C449.342633,79.8493031 460.829991,62.619338 470.245859,48.3858885 C479.661726,34.152439 486.629468,22.9155052 493.785527,11.6785714 C490.207498,14.6750871 487.006103,18.0461672 484.181343,21.7918118 C479.661726,27.597561 473.070619,36.9616725 460.453357,55.315331 C447.836094,73.6689895 429.380994,100.824913 415.822145,120.489547 C402.263296,140.154181 393.600697,152.327526 384.561465,165.811847 C375.898867,178.921603 367.989538,192.218641 360.833479,206.077526 C356.313862,214.879791 352.92415,224.243902 350.664342,233.982578 C348.781168,241.848432 347.839582,249.714286 347.839582,257.767422 C347.839582,265.445993 349.157803,273.124564 351.417611,280.428571 C353.677419,287.358014 356.690497,294.100174 360.080209,300.655052 C357.820401,296.534843 355.560593,292.601916 353.112467,288.294425 C350.09939,283.425087 348.027899,277.993902 346.897995,272.375436 C345.203139,263.385889 344.826504,254.209059 345.768091,245.03223 C346.897995,234.731707 349.534438,224.618467 353.677419,215.067073 C358.761988,203.08101 364.788143,191.469512 371.37925,180.419861 C379.100262,167.310105 388.327812,152.514808 400.003487,135.284843 C411.679163,118.054878 425.614647,98.7648084 439.361813,78.7256098 C453.297297,58.8736934 466.667829,38.6472125 474.577158,26.0993031 C479.285092,18.9825784 483.428073,11.6785714 486.817786,4 C469.680907,27.7848432 452.544028,51.7569686 433.90061,77.7891986 C416.198779,102.510453 397.367044,129.291812 382.489974,152.140244 L379.288579,157.009582 C364.599826,179.483449 354.242371,197.462544 348.027899,211.883275 C342.755013,223.307491 339.553618,235.480836 338.423714,247.841463 C337.29381,258.329268 338.423714,269.004355 341.813426,279.117596 C346.144725,291.665505 352.547515,303.464286 360.833479,313.952091 C371.37925,327.249129 382.866609,338.486063 395.860506,348.412021 L395.860506,348.412021 Z" id="Path" fill="#BCBEC0" fill-rule="evenodd"></path><polygon id="Path" fill="#BCBEC0" fill-rule="evenodd" points="178 404 187.9375 330.996181 193 60 178 85.1478451"></polygon><path d="M159,75 L159,405 C156.776773,397.125 154.738814,389.25 153.627201,362.8125 C152.700856,336.375 152.886125,291.1875 153.627201,245.8125 C154.368277,200.4375 155.47989,154.875 156.591504,126.375 C157.703117,97.875 158.258924,86.4375 159,75" id="Path" fill="#BCBEC0" fill-rule="evenodd"></path><path d="M188.130953,413 C189.342942,396.471144 190.728071,379.942288 191.420636,357.966422 C192.1132,335.990556 192.459483,308.755509 193.325188,257.290661 C194.190894,205.825813 196.095447,130.506821 198,55 C196.788012,68.8992655 195.576024,82.610703 194.364035,104.774397 C193.152047,126.93809 191.940059,157.55404 190.55493,204.135362 C189.1698,250.716684 187.438389,312.887723 187.092106,350.265477 C186.745824,387.643232 187.438389,400.41553 188.130953,413" id="Path" fill="#BCBEC0" fill-rule="evenodd"></path><path d="M173.970269,313 C173.970269,313 174.713534,333.390584 168.76742,339.75095 C168.76742,339.75095 157.99009,354.155308 153.716321,351.723403 C152.229793,350.226847 150.92908,348.543221 150,346.485455 L163.750387,318.799157 L173.970269,313 Z" id="Path" fill="#E6E7E8" fill-rule="nonzero"></path><path d="M167.938241,142.811321 C167.938241,142.811321 169.443862,120.012579 157.587094,116 C157.587094,116 152.505621,116 151,120.012579 L151.941013,127.672956 L166.056214,145 L167.938241,142.811321 Z" id="Path" fill="#E6E7E8" fill-rule="nonzero"></path><path d="M131.072668,359.182188 C131.072668,359.182188 161.254362,352.420132 180.938076,297.196671 C180.938076,297.196671 196.872511,251.928459 183.937499,189.003767 C183.937499,189.003767 170.065167,127.957424 147.194567,115.935991 C147.194567,115.935991 130.322812,107.10775 118.137656,120.068358 C118.137656,120.068358 103.890397,140.354528 99.9536544,147.116584 C99.9536544,147.116584 66.9600012,190.882116 59.8363716,212.8588 C59.8363716,212.8588 52.7127419,229.388271 52.337814,244.415063 C52.337814,244.415063 45.2141843,305.273571 96.3918396,347.912094 C96.5793035,348.099929 113.451058,363.690226 131.072668,359.182188" id="Path" fill="#FFFFFF" fill-rule="nonzero"></path><g id="Group" opacity="0.06" stroke-width="1" fill="none" fill-rule="evenodd" transform="translate(116.000000, 131.000000)"><g fill="#696766" fill-rule="nonzero" id="Path"><path d="M48.0184211,190.021231 C48.0184211,190.021231 97.3447368,128.319179 48.7657895,10.1663128 C48.7657895,10.1663128 39.2368421,-12.7140835 27.8394737,10.1663128 C27.8394737,10.1663128 -11.3973684,59.8655343 3.36315789,132.445152 C3.36315789,132.445152 11.2105263,178.018401 20.5526316,191.146497 C20.3657895,191.146497 30.6421053,211.776362 48.0184211,190.021231"></path></g></g><g id="Group" opacity="0.18" stroke-width="1" fill="none" fill-rule="evenodd" transform="translate(79.000000, 150.000000)"><g fill="#696766" fill-rule="nonzero" id="Path"><path d="M10.0285714,22.415914 C18.9428571,7.37935484 30.6428571,-2.20645161 35.8428571,0.988817204 C41.0428571,4.18408602 38.0714286,19.0326882 28.9714286,34.0692473 C19.8714286,49.1058065 8.35714286,58.6916129 3.15714286,55.4963441 C-2.04285714,52.3010753 0.928571429,37.4524731 10.0285714,22.415914"></path></g></g><g id="Group" opacity="0.75" stroke-width="1" fill="none" fill-rule="evenodd" transform="translate(80.000000, 154.000000)"><g fill="#E6E7E8" fill-rule="nonzero" id="Path"><path d="M9.82222222,18.9384615 C18.1333333,6.2 28.1444444,-2.10769231 32.1111111,0.476923077 C36.0777778,3.06153846 32.4888889,15.2461538 24.1777778,27.9846154 C15.8666667,40.7230769 5.85555556,49.0307692 1.88888889,46.4461538 C-1.88888889,43.8615385 1.51111111,31.6769231 9.82222222,18.9384615"></path></g></g><path d="M120.273269,122.749625 C121.020178,122.749625 121.767088,122.937031 122.32727,123.311844 C139.319454,132.869565 140.439818,164.353823 140.439818,173.911544 C140.439818,175.973013 140.253091,177.847076 139.879636,179.908546 C131.476907,215.328336 97.6792655,234.443778 97.3058109,234.631184 C84.4216269,242.314843 73.7781706,246.250375 65.5621692,246.250375 C57.3461678,246.250375 54.3585309,242.127436 53.9850763,241.377811 C53.0514398,222.824588 70.2303518,194.338831 70.4170791,193.964018 C78.8198078,181.032984 107.575813,138.304348 116.165269,125.56072 C116.72545,123.874063 118.405996,122.749625 120.273269,122.749625 M120.086542,122 C118.032542,122.187406 116.165269,123.311844 115.231632,125.185907 C106.081994,138.67916 77.8861712,180.658171 69.4834426,193.589205 C69.4834426,193.589205 51.931076,222.637181 53.0514398,241.565217 C53.0514398,241.565217 55.6656221,247 65.3754419,247 C72.0976248,247 82.3676265,244.376312 97.4925382,235.193403 C97.4925382,235.193403 131.850362,216.077961 140.253091,180.095952 C140.626545,178.034483 141,175.973013 141,173.911544 C141,163.416792 139.879636,132.307346 122.513997,122.749625 C121.767088,122.187406 121.020178,122 120.086542,122" id="Shape" fill="#FFFFFF" fill-rule="nonzero"></path><g id="Group" opacity="0.1" stroke-width="1" fill="none" fill-rule="evenodd" transform="translate(53.000000, 121.000000)"><g fill="#696766" fill-rule="nonzero" id="Path"><path d="M88.25,56.4029412 C88.25,56.4029412 91.0625,7.84411765 65.5625,0.186764706 C65.5625,0.186764706 26.75,57.15 16.625,72.6514706 C16.625,72.6514706 -1,101.413235 0.125,120.463235 C0.125,120.463235 7.8125,136.151471 44.5625,114.113235 C44.5625,114.3 80.75,94.3161765 88.25,56.4029412"></path></g></g><g id="Group" opacity="0.4" stroke-width="1" fill="none" fill-rule="evenodd" transform="translate(53.000000, 121.000000)"><g fill="#FFFFFF" fill-rule="nonzero" id="Shape"><path d="M65.75,1.12058824 C89.9375,8.96470588 87.5,56.0294118 87.5,56.4029412 C80.1875,93.3823529 44.5625,113.552941 44.1875,113.739706 C31.25,121.397059 20.5625,125.319118 12.3125,125.319118 C4.0625,125.319118 1.0625,121.210294 0.6875,120.463235 C-0.25,101.973529 17,73.5852941 17.1875,73.2117647 C26.5625,58.4573529 62.1875,6.35 65.75,1.12058824 M65.5625,0.186764706 C65.5625,0.186764706 26.75,57.15 16.625,72.6514706 C16.625,72.6514706 -1,101.6 0.125,120.463235 C0.125,120.463235 2.75,125.879412 12.5,125.879412 C19.25,125.879412 29.5625,123.264706 44.75,114.113235 C44.75,114.113235 80.9375,94.1294118 88.4375,56.4029412 C88.25,56.5897059 91.0625,8.03088235 65.5625,0.186764706"></path></g></g><polygon id="Path" fill="#BCBEC0" fill-rule="evenodd" points="493 404 502.9375 330.996181 508 60 493 85.1478451"></polygon><path d="M473,75 L473,405 C470.803993,397.125 468.790987,389.25 467.692983,362.8125 C466.59498,336.375 466.960981,291.1875 467.692983,245.8125 C468.424986,200.4375 469.522989,154.875 470.620992,126.375 C471.718996,97.875 472.450998,86.4375 473,75" id="Path" fill="#BCBEC0" fill-rule="evenodd"></path><path d="M503.130953,413 C504.342942,396.471144 505.728071,379.942288 506.420636,357.966422 C507.1132,335.990556 507.286341,308.755509 508.325188,257.290661 C509.364035,205.825813 511.095447,130.506821 513,55 C511.788012,68.8992655 510.576024,82.610703 509.364035,104.774397 C508.152047,126.93809 506.940059,157.55404 505.55493,204.135362 C504.1698,250.716684 502.438389,312.887723 502.092106,350.265477 C501.745824,387.643232 502.438389,400.41553 503.130953,413" id="Path" fill="#BCBEC0" fill-rule="evenodd"></path><path d="M447.337691,359.243193 C447.337691,359.243193 477.381301,352.479461 496.97496,297.242316 C496.97496,297.242316 512.836493,251.962887 499.96066,189.022601 C499.96066,189.022601 486.151796,127.961131 463.572437,115.936718 C463.572437,115.936718 446.777872,107.10629 434.648464,120.07011 C434.648464,120.07011 420.466388,140.361306 416.734262,147.125038 C416.734262,147.125038 383.891558,190.901416 376.800519,212.883545 C376.800519,212.883545 369.522875,229.417113 369.336268,244.447629 C369.336268,244.447629 362.24523,305.321218 413.188743,347.970307 C413.002137,347.970307 429.796701,363.564467 447.337691,359.243193" id="Path" fill="#FFFFFF" fill-rule="nonzero"></path><polygon id="Path" fill="none" points="0 0 514 0 514 433 0 433"></polygon><path d="M447.239169,405.597313 C451.71671,413.292588 454.328608,422.67707 456.19425,433 L462.910561,433 C461.791176,421.550932 459.365841,411.228002 454.701737,402.969658 C448.358554,388.517555 439.030345,383.637625 425.038031,377.631556 C399.851866,366.933247 384.926731,359.237971 363.844977,329.019939 C313.845775,273.088427 340.524454,208.147811 362.539028,170.797573 C366.270312,164.416125 435.67219,61.7498916 450.970453,39.7902037 C458.619585,27.2149978 464.962767,13.8890334 470,0 L464.589639,0 C462.537433,5.25530993 460.485226,10.3229302 458.43302,15.0151712 C376.717906,160.099263 257.316826,234.61205 381.941704,360.364109 C381.941704,360.364109 404.889099,376.880798 417.762028,380.259211 C432.12747,384.200694 440.895987,391.14521 447.239169,405.597313 L447.239169,405.597313 Z" id="Path" fill="#53575A" fill-rule="evenodd"></path><path d="M133.239169,405.597313 C137.71671,413.292588 140.328608,422.67707 142.19425,433 L148.910561,433 C147.791176,421.550932 145.365841,411.228002 140.701737,402.969658 C134.358554,388.517555 125.030345,383.637625 111.038031,377.631556 C85.8518656,366.933247 70.9267306,359.237971 49.8449774,329.019939 C-0.154224758,273.088427 26.524454,208.147811 48.5390281,170.797573 C52.2703119,164.416125 121.67219,61.7498916 136.970453,39.7902037 C144.619585,27.2149978 150.962767,13.8890334 156,0 L150.589639,0 C148.537433,5.25530993 146.485226,10.3229302 144.43302,15.0151712 C62.7179064,160.099263 -56.6831735,234.61205 67.9417036,360.364109 C67.9417036,360.364109 90.8890986,376.880798 103.762028,380.259211 C118.12747,384.200694 126.895987,391.14521 133.239169,405.597313 L133.239169,405.597313 Z" id="Path" fill="#53575A" fill-rule="evenodd"></path></g></g></g><g id="Group-13-Copy-3" transform="translate(0.000000, 340.000000)"><line x1="95.5" y1="26.5" x2="174.5" y2="26.5" id="Line" stroke="#F58320" stroke-linecap="square"></line><text id="breast-implant" font-family="Avenir-Roman, Avenir" font-size="16" font-weight="normal" fill="#55575A"><tspan x="0" y="19">breast</tspan><tspan x="0" y="39">implant</tspan></text></g></g><line x1="494.5" y1="366.745902" x2="573.5" y2="366.745902" id="Line" stroke="#F58320" stroke-linecap="square"></line><text id="tissue-expander" font-family="Avenir-Roman, Avenir" font-size="16" font-weight="normal" fill="#55575A"><tspan x="391.5" y="359.245902">tissue</tspan><tspan x="391.5" y="379.245902">expander</tspan></text></g></g></svg> 