<?xml version="1.0" encoding="UTF-8"?> <svg xmlns="http://www.w3.org/2000/svg" xmlns:xlink="http://www.w3.org/1999/xlink" width="258px" height="435px" viewBox="0 0 258 435" version="1.1"><title>Group</title><defs><rect id="path-1" x="0" y="0" width="301" height="453"></rect></defs><g id="Page-1" stroke="none" stroke-width="1" fill="none" fill-rule="evenodd"><g id="Group" transform="translate(-1.000000, -11.000000)"><g id="Clipped" transform="translate(0.942451, 0.254093)"><mask id="mask-2" fill="white"><use xlink:href="#path-1"></use></mask><g id="Rectangle"></g><g id="Group" mask="url(#mask-2)"><g transform="translate(73.000000, 11.245902)" id="Path"><path d="M67.860506,348.412021 C81.984307,359.648955 98.367916,370.511324 109.855275,378.56446 C121.342633,386.617596 127.745423,391.861498 132.641674,398.603659 C137.349608,405.533101 140.73932,413.211672 142.622493,421.452091 C143.752398,425.5723 144.505667,429.692509 145.070619,434 L148.460331,434 C148.836966,429.879791 149.213601,425.010453 149.213601,419.391986 C149.401918,413.586237 149.213601,407.031359 149.025283,400.289199 C149.778553,407.780488 150.531822,415.271777 151.285092,421.452091 C152.038361,426.134146 152.414996,430.067073 153.168265,434 L153.921534,434 C154.298169,429.505226 154.863121,424.823171 155.051439,420.515679 C155.616391,415.084495 155.993025,409.840592 156.36966,404.783972 C156.557977,409.65331 156.934612,414.335366 157.311247,418.642857 C157.687881,422.950348 158.252833,426.508711 158.817786,430.067073 C159.19442,426.508711 159.759372,422.950348 160.136007,417.144599 C160.512642,411.33885 160.889276,403.472997 161.077594,395.419861 C161.265911,400.101916 161.642546,404.59669 162.207498,408.904181 C162.77245,413.211672 163.149085,416.770035 163.714037,421.639373 C164.090671,425.385017 164.655623,429.505226 165.032258,434 L165.973845,434 C167.103749,428.568815 167.668701,423.137631 168.045336,417.706446 C168.42197,409.840592 168.233653,400.476481 168.42197,381.560976 C168.610288,362.64547 169.17524,334.553136 169.363557,306.086237 C169.551874,277.619338 169.17524,248.40331 168.798605,218.812718 C168.42197,189.222125 168.045336,159.444251 167.857018,135.84669 C167.668701,112.249129 168.045336,95.0191638 168.798605,82.2839721 C169.551874,69.5487805 170.870096,61.1210801 172,52.880662 C169.17524,56.0644599 166.35048,59.2482578 161.830863,65.054007 C157.311247,70.8597561 151.096774,79.4747387 144.882302,87.902439 C153.356582,73.1071429 161.642546,58.3118467 170.116827,43.3292683 C160.700959,56.4390244 151.285092,69.5487805 143.187446,80.9729965 C135.089799,92.3972125 128.310375,102.323171 120.589364,113.18554 C112.868352,124.047909 104.205754,136.221254 97.42633,144.836237 C90.646905,153.45122 85.938971,158.695122 81.231037,164.126307 C84.809067,157.945993 88.387097,151.578397 93.659983,143.525261 C98.932868,135.472125 105.90061,125.546167 114.563208,113.18554 C123.414124,100.824913 133.583261,86.0296167 142.622493,71.9834495 C151.661726,57.9372822 159.19442,44.2656794 166.915432,30.9686411 C157.499564,44.6402439 147.895379,58.3118467 139.232781,70.8597561 C130.570183,83.4076655 122.28422,95.0191638 114.186574,106.630662 C122.28422,93.3336237 130.570183,79.8493031 138.856146,66.3649826 C147.14211,52.880662 155.051439,39.2090592 163.149085,25.5374564 C157.122929,33.4033101 151.285092,41.2691638 144.693984,51.0078397 C138.102877,60.7465157 130.7585,72.1707317 123.979076,82.4712544 C117.199651,92.771777 110.796861,101.574042 103.07585,112.436411 C95.354839,123.29878 86.315606,136.033972 77.276373,149.518293 C68.23714,163.002613 59.00959,177.236063 52.041848,189.59669 C46.015693,199.70993 41.119442,210.385017 37.353095,221.434669 C31.891892,238.477352 30.385353,256.643728 32.833479,274.248258 C33.963383,280.803136 35.846556,287.170732 38.482999,293.351045 C40.742807,298.78223 43.37925,304.026132 46.580645,309.082753 C49.78204,314.513937 53.925022,320.506969 57.879686,326.312718 C51.476896,319.008711 45.450741,311.330139 39.989538,303.277003 C30.950305,289.230836 26.054054,273.124564 25.865737,256.643728 C26.054054,246.905052 27.560593,237.353659 30.385353,227.989547 C33.775065,217.501742 38.106364,207.388502 43.37925,197.649826 C48.840453,187.349303 55.431561,177.236063 66.730602,160.380662 C78.029643,143.525261 94.036617,120.302265 107.595466,100.075784 C121.342633,79.8493031 132.829991,62.619338 142.245859,48.3858885 C151.661726,34.152439 158.629468,22.9155052 165.785527,11.6785714 C162.207498,14.6750871 159.006103,18.0461672 156.181343,21.7918118 C151.661726,27.597561 145.070619,36.9616725 132.453357,55.315331 C119.836094,73.6689895 101.380994,100.824913 87.822145,120.489547 C74.263296,140.154181 65.600697,152.327526 56.561465,165.811847 C47.898867,178.921603 39.989538,192.218641 32.833479,206.077526 C28.313862,214.879791 24.92415,224.243902 22.664342,233.982578 C20.781168,241.848432 19.839582,249.714286 19.839582,257.767422 C19.839582,265.445993 21.157803,273.124564 23.417611,280.428571 C25.677419,287.358014 28.690497,294.100174 32.080209,300.655052 C29.820401,296.534843 27.560593,292.601916 25.112467,288.294425 C22.09939,283.425087 20.027899,277.993902 18.897995,272.375436 C17.203139,263.385889 16.826504,254.209059 17.768091,245.03223 C18.897995,234.731707 21.534438,224.618467 25.677419,215.067073 C30.761988,203.08101 36.788143,191.469512 43.37925,180.419861 C51.100262,167.310105 60.327812,152.514808 72.003487,135.284843 C83.679163,118.054878 97.614647,98.7648084 111.361813,78.7256098 C125.297297,58.8736934 138.667829,38.6472125 146.577158,26.0993031 C151.285092,18.9825784 155.428073,11.6785714 158.817786,4 C141.680907,27.7848432 124.544028,51.7569686 105.90061,77.7891986 C88.198779,102.510453 69.367044,129.291812 54.489974,152.140244 L51.288579,157.009582 C36.599826,179.483449 26.242371,197.462544 20.027899,211.883275 C14.755013,223.307491 11.553618,235.480836 10.423714,247.841463 C9.29381,258.329268 10.423714,269.004355 13.813426,279.117596 C18.144725,291.665505 24.547515,303.464286 32.833479,313.952091 C43.37925,327.249129 54.866609,338.486063 67.860506,348.412021 L67.860506,348.412021 Z" fill="#BCBEC0" fill-rule="evenodd"></path><polygon fill="#BCBEC0" fill-rule="evenodd" points="165 404 174.9375 330.996181 180 60 165 85.1478451"></polygon><path d="M145,75 L145,405 C142.803993,397.125 140.790987,389.25 139.692983,362.8125 C138.59498,336.375 138.960981,291.1875 139.692983,245.8125 C140.424986,200.4375 141.522989,154.875 142.620992,126.375 C143.718996,97.875 144.450998,86.4375 145,75" fill="#BCBEC0" fill-rule="evenodd"></path><path d="M175.130953,413 C176.342942,396.471144 177.728071,379.942288 178.420636,357.966422 C179.1132,335.990556 179.286341,308.755509 180.325188,257.290661 C181.364035,205.825813 183.095447,130.506821 185,55 C183.788012,68.8992655 182.576024,82.610703 181.364035,104.774397 C180.152047,126.93809 178.940059,157.55404 177.55493,204.135362 C176.1698,250.716684 174.438389,312.887723 174.092106,350.265477 C173.745824,387.643232 174.438389,400.41553 175.130953,413" fill="#BCBEC0" fill-rule="evenodd"></path><path d="M119.337691,359.243193 C119.337691,359.243193 149.381301,352.479461 168.97496,297.242316 C168.97496,297.242316 184.836493,251.962887 171.96066,189.022601 C171.96066,189.022601 158.151796,127.961131 135.572437,115.936718 C135.572437,115.936718 118.777872,107.10629 106.648464,120.07011 C106.648464,120.07011 92.466388,140.361306 88.734262,147.125038 C88.734262,147.125038 55.891558,190.901416 48.800519,212.883545 C48.800519,212.883545 41.522875,229.417113 41.336268,244.447629 C41.336268,244.447629 34.24523,305.321218 85.188743,347.970307 C85.002137,347.970307 101.796701,363.564467 119.337691,359.243193" fill="#FFFFFF" fill-rule="nonzero"></path><path d="M119.239169,405.597313 C123.71671,413.292588 126.328608,422.67707 128.19425,433 L134.910561,433 C133.791176,421.550932 131.365841,411.228002 126.701737,402.969658 C120.358554,388.517555 111.030345,383.637625 97.038031,377.631556 C71.851866,366.933247 56.926731,359.237971 35.844977,329.019939 C-14.154225,273.088427 12.524454,208.147811 34.539028,170.797573 C38.270312,164.416125 107.67219,61.7498916 122.970453,39.7902037 C130.619585,27.2149978 136.962767,13.8890334 142,0 L136.589639,0 C134.537433,5.25530993 132.485226,10.3229302 130.43302,15.0151712 C48.717906,160.099263 -70.683174,234.61205 53.941704,360.364109 C53.941704,360.364109 76.889099,376.880798 89.762028,380.259211 C104.12747,384.200694 112.895987,391.14521 119.239169,405.597313 L119.239169,405.597313 Z" fill="#53575A" fill-rule="evenodd"></path></g></g></g><g id="Group-13-Copy-3" transform="translate(0.942451, 343.254093)" fill-rule="nonzero"><line x1="95.5" y1="23.5" x2="174.5" y2="23.5" id="Line" stroke="#F58320" fill="#000000" stroke-linecap="square"></line><g id="breast-implant" fill="#55575A" font-family="Avenir-Book, Avenir" font-size="16" font-weight="normal"><text id="breast"><tspan x="0" y="16">breast</tspan></text><text id="implant"><tspan x="0" y="36">implant</tspan></text></g></g></g></g></svg> 