<?xml version="1.0" encoding="UTF-8"?> <svg xmlns="http://www.w3.org/2000/svg" xmlns:xlink="http://www.w3.org/1999/xlink" width="31px" height="20px" viewBox="0 0 31 20" version="1.1"><title>Combined Shape</title><g id="Augmentation-page" stroke="none" stroke-width="1" fill="none" fill-rule="evenodd"><g id="Aug_Breast_Implant_Basics" transform="translate(-213.000000, -1213.000000)" fill="#F58320" fill-rule="nonzero"><g id="Group-3" transform="translate(-204.000000, 893.000000)"><g id="Group-2" transform="translate(417.000000, 320.000000)"><path d="M21.0868457,0.16131124 L21.1593129,0.225302476 L30.3900821,9.45607171 C30.4447009,9.51069049 30.489389,9.57147941 30.5241464,9.63619478 C30.5493398,9.68359073 30.5682776,9.72982273 30.582557,9.77715955 C30.5888639,9.7981018 30.5941864,9.81891443 30.5986266,9.83987657 C30.6108852,9.90016891 30.6160025,9.95490665 30.6153253,10.0095859 C30.6151158,10.0265929 30.6143416,10.0436465 30.6130035,10.0606642 C30.606032,10.1494897 30.5836463,10.2374465 30.5458553,10.320086 C30.5378125,10.3376723 30.529082,10.3549998 30.5196554,10.3720453 C30.510511,10.3886204 30.5002828,10.4055805 30.4893424,10.4222095 C30.4803619,10.4358455 30.4711242,10.4489637 30.4614284,10.4618467 C30.4590366,10.4650254 30.4565695,10.4682509 30.4540734,10.4714611 L30.3900821,10.5439283 L21.1593129,19.7746975 C20.8589096,20.0751008 20.3718596,20.0751008 20.0714563,19.7746975 C19.794161,19.4974022 19.7728306,19.0610706 20.0074651,18.7593081 L20.0714563,18.6868409 L27.989,10.769 L0.857142857,10.7692308 C0.383755929,10.7692308 0,10.4248344 0,10 C0,9.60551089 0.330891592,9.28037911 0.757181892,9.23594441 L0.857142857,9.23076923 L27.988,9.23 L20.0714563,1.31315906 C19.771053,1.01275576 19.771053,0.525705777 20.0714563,0.225302476 C20.3487517,-0.0519928791 20.7850833,-0.073323291 21.0868457,0.16131124 Z" id="Combined-Shape"></path></g></g></g></g></svg> 