<?xml version="1.0" encoding="UTF-8"?> <svg xmlns="http://www.w3.org/2000/svg" xmlns:xlink="http://www.w3.org/1999/xlink" width="21px" height="32px" viewBox="0 0 21 32" version="1.1"><title>Combined Shape</title><g id="Augmentation-page" stroke="none" stroke-width="1" fill="none" fill-rule="evenodd"><g id="Aug_Breast_Implant_Basics_Expanded_Click2-ImplantProjection" transform="translate(-218.000000, -1584.000000)" fill="#F58320" fill-rule="nonzero"><g id="Group-3" transform="translate(-204.000000, 894.000000)"><g id="Group-2-Copy-4" transform="translate(422.000000, 690.000000)"><path d="M16.0868457,6.16131124 L16.1593129,6.22530248 L25.3900821,15.4560717 C25.4447009,15.5106905 25.489389,15.5714794 25.5241464,15.6361948 C25.5493398,15.6835907 25.5682776,15.7298227 25.582557,15.7771595 C25.5888639,15.7981018 25.5941864,15.8189144 25.5986266,15.8398766 C25.6108852,15.9001689 25.6160025,15.9549066 25.6153253,16.0095859 C25.6151158,16.0265929 25.6143416,16.0436465 25.6130035,16.0606642 C25.606032,16.1494897 25.5836463,16.2374465 25.5458553,16.320086 C25.5378125,16.3376723 25.529082,16.3549998 25.5196554,16.3720453 C25.510511,16.3886204 25.5002828,16.4055805 25.4893424,16.4222095 C25.4803619,16.4358455 25.4711242,16.4489637 25.4614284,16.4618467 C25.4590366,16.4650254 25.4565695,16.4682509 25.4540734,16.4714611 L25.3900821,16.5439283 L16.1593129,25.7746975 C15.8589096,26.0751008 15.3718596,26.0751008 15.0714563,25.7746975 C14.794161,25.4974022 14.7728306,25.0610706 15.0074651,24.7593081 L15.0714563,24.6868409 L22.989,16.769 L-4.14285714,16.7692308 C-4.61624407,16.7692308 -5,16.4248344 -5,16 C-5,15.6055109 -4.66910841,15.2803791 -4.24281811,15.2359444 L-4.14285714,15.2307692 L22.988,15.23 L15.0714563,7.31315906 C14.771053,7.01275576 14.771053,6.52570578 15.0714563,6.22530248 C15.3487517,5.94800712 15.7850833,5.92667671 16.0868457,6.16131124 Z" id="Combined-Shape" transform="translate(10.307692, 16.000000) rotate(-270.000000) translate(-10.307692, -16.000000) "></path></g></g></g></g></svg> 