<?xml version="1.0" encoding="UTF-8" standalone="no"?> <svg xmlns="http://www.w3.org/2000/svg" xmlns:xlink="http://www.w3.org/1999/xlink" version="1.1" preserveAspectRatio="xMidYMid meet" viewBox="160.5999999999999 -1 320.8000000000002 644" width="316.8" height="640"><defs><path d="M478.4 0C478.4 0 478.4 0 478.4 0C478.4 384 478.4 597.33 478.4 640C478.4 640 478.4 640 478.4 640C288.32 640 182.72 640 161.6 640C161.6 640 161.6 640 161.6 640C161.6 256 161.6 42.67 161.6 0C161.6 0 161.6 0 161.6 0C351.68 0 457.28 0 478.4 0Z" id="bPt1IwzzQ"></path><path d="M320.32 203.52L388.16 298.88L251.84 298.88L251.84 298.88L320.32 203.52Z" id="eMtYQO2T9"></path><path d="M320.32 436.48L251.84 341.12L388.16 341.12L388.16 341.12L320.32 436.48Z" id="b2f52snRo6"></path></defs><g><g><use xlink:href="#bPt1IwzzQ" opacity="1" fill="#f6f4f2" fill-opacity="1"></use><g><use xlink:href="#bPt1IwzzQ" opacity="1" fill-opacity="0" stroke="#000000" stroke-width="1" stroke-opacity="0"></use></g></g><g><use xlink:href="#eMtYQO2T9" opacity="1" fill="#444444" fill-opacity="1"></use><g><use xlink:href="#eMtYQO2T9" opacity="1" fill-opacity="0" stroke="#000000" stroke-width="1" stroke-opacity="0"></use></g></g><g><use xlink:href="#b2f52snRo6" opacity="1" fill="#444444" fill-opacity="1"></use><g><use xlink:href="#b2f52snRo6" opacity="1" fill-opacity="0" stroke="#000000" stroke-width="1" stroke-opacity="0"></use></g></g></g></svg> 