<?xml version="1.0" encoding="UTF-8"?> <svg xmlns="http://www.w3.org/2000/svg" xmlns:xlink="http://www.w3.org/1999/xlink" width="792px" height="182px" viewBox="0 0 792 182" version="1.1"><title>Sientra_RECON_Complication_Rates_Chart</title><g id="US-Surgeons" stroke="none" stroke-width="1" fill="none" fill-rule="evenodd"><g id="Surgeons_Safety" transform="translate(-325.000000, -2500.000000)"><g id="reconstruction" transform="translate(295.000000, 2068.000000)"><g id="Sientra_RECON_Complication_Rates_Chart" transform="translate(30.000000, 432.000000)"><polygon id="Fill-1" fill="#FF8300" points="198.078981 48.9071678 395.780532 48.9071678 395.780532 0.826589996 198.078981 0.826589996"></polygon><path d="M395.780532,48.9071678 L593.224022,48.9071678 L593.224022,0.826589996 L395.780532,0.826589996 L395.780532,48.9071678 Z M593.224022,48.9071678 L791.185013,48.9071678 L791.185013,0.826589996 L593.224022,0.826589996 L593.224022,48.9071678 Z" id="Fill-2" fill="#55575A"></path><path d="M593.224022,48.5314628 L593.224022,1.20194998 M395.780532,48.5314628 L395.780532,1.20194998" id="Stroke-3" stroke="#FFFFFF" stroke-width="0.751409965"></path><path d="M0.00172499992,48.9071678 L198.454341,48.9071678 M0.377429982,75.5767015 L0.377429982,49.2828727 M198.078981,75.5767015 L198.078981,49.2828727 M395.780532,75.5767015 L395.780532,49.2828727 M593.224022,75.5767015 L593.224022,49.2828727 M791.185013,75.5767015 L791.185013,49.2828727 M0.00172499992,75.9524065 L198.078981,75.9524065 M0.377429982,102.622285 L0.377429982,76.3281115 M198.078981,75.9524065 L395.780532,75.9524065 M198.078981,102.622285 L198.078981,76.3281115 M395.780532,75.9524065 L593.224022,75.9524065 M395.780532,102.622285 L395.780532,76.3281115 M593.224022,75.9524065 L791.557613,75.9524065 M593.224022,102.622285 L593.224022,76.3281115 M791.185013,102.622285 L791.185013,76.3281115 M0.00172499992,102.997645 L198.078981,102.997645 M0.377429982,129.667524 L0.377429982,103.37335 M198.078981,102.997645 L395.780532,102.997645 M198.078981,129.667524 L198.078981,103.37335 M395.780532,102.997645 L593.224022,102.997645 M395.780532,129.667524 L395.780532,103.37335 M593.224022,102.997645 L791.557613,102.997645 M593.224022,129.667524 L593.224022,103.37335 M791.185013,129.667524 L791.185013,103.37335 M0.00172499992,130.043229 L198.078981,130.043229 M0.377429982,156.712763 L0.377429982,130.418934 M198.078981,130.043229 L395.780532,130.043229 M198.078981,156.712763 L198.078981,130.418934 M395.780532,130.043229 L593.224022,130.043229 M395.780532,156.712763 L395.780532,130.418934 M593.224022,130.043229 L791.557613,130.043229 M593.224022,156.712763 L593.224022,130.418934 M791.185013,156.712763 L791.185013,130.418934 M0.00172499992,157.088468 L198.078981,157.088468 M0.377429982,180.602977 L0.377429982,157.464173 M198.078981,157.088468 L395.780532,157.088468 M198.078981,180.602977 L198.078981,157.464173 M395.780532,157.088468 L593.224022,157.088468 M395.780532,180.602977 L395.780532,157.464173 M593.224022,157.088468 L791.557613,157.088468 M593.224022,180.602977 L593.224022,157.464173 M791.185013,180.602977 L791.185013,157.464173 M0.00172499992,180.978337 L791.557613,180.978337" id="Stroke-4" stroke="#8C8E90" stroke-width="0.751409965"></path><path d="M593.224022,0.826589996 L791.557613,0.826589996 M791.185013,48.5314628 L791.185013,1.20194998 M593.224022,48.9071678 L791.557613,48.9071678 M395.780532,0.826589996 L593.224022,0.826589996 M395.780532,48.9071678 L593.224022,48.9071678" id="Stroke-5" stroke="#AAACAF" stroke-width="0.751409965"></path><path d="M197.703276,0.826589996 L395.780532,0.826589996 M198.078981,48.5314628 L198.078981,1.20194998" id="Stroke-6" stroke="#FF8300" stroke-width="0.751409965"></path><line x1="198.454341" y1="48.9071678" x2="395.780532" y2="48.9071678" id="Stroke-7" stroke="#FFA84D" stroke-width="0.751409965"></line><text id="Sientra-10-Yr" font-family="Avenir-Roman, Avenir" font-size="16.5277072" font-weight="normal" letter-spacing="0.00344999973" fill="#FFFFFF"><tspan x="248.008068" y="21.7876003">Sientra 10-Yr</tspan></text><text id="N=225" font-family="Avenir-Roman, Avenir" font-size="16.5277072" font-weight="normal" letter-spacing="0.00344999973" fill="#FFFFFF"><tspan x="270.882415" y="40.9150446">N=225</tspan></text><text id="Mentor-10-Yr" font-family="Avenir-Roman, Avenir" font-size="16.5277072" font-weight="normal" letter-spacing="0.00344999973" fill="#FFFFFF"><tspan x="444.125842" y="20.3826002">Mentor 10-Yr</tspan></text><text id="N=251" font-family="Avenir-Roman, Avenir" font-size="16.5277072" font-weight="normal" letter-spacing="0.00344999973" fill="#FFFFFF"><tspan x="468.454627" y="39.9150446">N=251</tspan></text><text id="Allergan-10-Yr" font-family="Avenir-Roman, Avenir" font-size="16.5277072" font-weight="normal" letter-spacing="0.00344999973" fill="#FFFFFF"><tspan x="637.994195" y="21.3826002">Alle</tspan><tspan x="666.782734" y="21.3826002" letter-spacing="-0.295701496">r</tspan><tspan x="672.007286" y="21.3826002">gan 10-Yr</tspan></text><text id="N=98" font-family="Avenir-Roman, Avenir" font-size="16.5277072" font-weight="normal" letter-spacing="0.00344999973" fill="#FFFFFF"><tspan x="670.83475" y="40.9150446">N=98</tspan></text><text id="Number-of-Implants" font-family="Avenir-Roman, Avenir" font-size="15.0251978" font-weight="normal" letter-spacing="0.00344999973" fill="#5F6062"><tspan x="30.4435231" y="66.2578321">Number of Implants</tspan></text><text id="412" font-family="Avenir-Roman, Avenir" font-size="15.0251978" font-weight="normal" letter-spacing="0.00344999973" fill="#545759"><tspan x="284.247662" y="67.7628716">412</tspan></text><text id="410127" font-family="Avenir-Roman, Avenir" font-size="15.0251978" font-weight="normal" letter-spacing="0.00344999973" fill="#5F6062"><tspan x="481.819998" y="67.7628716">41</tspan><tspan x="498.534918" y="67.7628716" letter-spacing="172.192223">0</tspan><tspan x="679.08115" y="67.7628716">127</tspan></text><text id="MRI-Cohort-Patients" font-family="Avenir-Roman, Avenir" font-size="15.0251978" font-weight="normal" letter-spacing="0.00344999973" fill="#5F6062"><tspan x="29.6547002" y="93.3031881">MRI Cohort Patients</tspan></text><text id="48" font-family="Avenir-Roman, Avenir" font-size="15.0251978" font-weight="normal" letter-spacing="0.00344999973" fill="#545759"><tspan x="288.499793" y="94.0582277">48</tspan></text><text id="13451" font-family="Avenir-Roman, Avenir" font-size="15.0251978" font-weight="normal" letter-spacing="0.00344999973" fill="#5F6062"><tspan x="481.819998" y="94.8082277">13</tspan><tspan x="498.534918" y="94.8082277" letter-spacing="176.447353">4</tspan><tspan x="683.336281" y="94.8082277">51</tspan></text><text id="Capsular-Contracture-III/IV" font-family="Avenir-Roman, Avenir" font-size="15.0251978" font-weight="normal" letter-spacing="0.00344999973" fill="#5F6062"><tspan x="8.16866734" y="120.348544">Capsular Contractu</tspan><tspan x="138.529283" y="120.348544" letter-spacing="-0.267003559">r</tspan><tspan x="143.280695" y="120.348544">e III/IV</tspan></text><text id="15.8%" font-family="Avenir-Roman, Avenir" font-size="15.0251978" font-weight="normal" letter-spacing="0.00344999973" fill="#545759"><tspan x="276.500912" y="121.103584">15.8%</tspan></text><text id="20.5%24.6%-" font-family="Avenir-Roman, Avenir" font-size="15.0251978" font-weight="normal" letter-spacing="0.00344999973" fill="#5F6062"><tspan x="473.321746" y="121.103584">20.5</tspan><tspan x="502.574581" y="121.103584" letter-spacing="155.20023">%</tspan><tspan x="670.2908" y="121.103584">24.6</tspan><tspan x="699.543635" y="121.103584" letter-spacing="-0.146801982">%</tspan><tspan x="711.912823" y="121.103584"> </tspan></text><text id="Rupture-(MRI-Cohort)" font-family="Avenir-Roman, Avenir" font-size="15.0251978" font-weight="normal" letter-spacing="0.00344999973" fill="#5F6062"><tspan x="25.5438061" y="147.3939">Ruptu</tspan><tspan x="65.9187374" y="147.3939" letter-spacing="-0.267003559">r</tspan><tspan x="70.6701499" y="147.3939">e (MRI Cohort)</tspan></text><text id="16.5%" font-family="Avenir-Roman, Avenir" font-size="15.0251978" font-weight="normal" letter-spacing="0.00344999973" fill="#545759"><tspan x="275.750912" y="148.89894">16.5%</tspan></text><text id="32.7%35.4%" font-family="Avenir-Roman, Avenir" font-size="15.0251978" font-weight="normal" letter-spacing="0.00344999973" fill="#5F6062"><tspan x="473.321746" y="148.89894">32.7</tspan><tspan x="502.574581" y="148.89894" letter-spacing="155.20023">%</tspan><tspan x="670.2908" y="148.89894">35.4%</tspan></text><text id="Reoperation" font-family="Helvetica" font-size="15.0251978" font-weight="normal" letter-spacing="-0.447305918" fill="#5F6062"><tspan x="58.2837121" y="174.538156">R</tspan><tspan x="68.6871227" y="174.538156" letter-spacing="0.00344999973">eoperation</tspan></text><text id="48.2%" font-family="Helvetica" font-size="15.0251978" font-weight="normal" letter-spacing="0.00344999973" fill="#FF8300"><tspan x="276.412021" y="174.538156">48.2%</tspan></text><text id="49.0%71.5%" font-family="Helvetica" font-size="15.0251978" font-weight="normal" letter-spacing="0.00344999973" fill="#5F6062"><tspan x="474.202222" y="174.538156">4</tspan><tspan x="482.561971" y="174.538156" letter-spacing="-0.462331116">9.</tspan><tspan x="494.168089" y="174.538156">0</tspan><tspan x="502.527838" y="174.538156" letter-spacing="158.872375">%</tspan><tspan x="674.760021" y="174.538156">71.5%</tspan></text></g></g></g></g></svg> 