<?xml version="1.0" encoding="UTF-8"?> <svg xmlns="http://www.w3.org/2000/svg" xmlns:xlink="http://www.w3.org/1999/xlink" width="790px" height="184px" viewBox="0 0 790 184" version="1.1"><title>Sientra_Augmemtation_Complication_Rates_Chart</title><g id="US-Surgeons" stroke="none" stroke-width="1" fill="none" fill-rule="evenodd"><g id="Surgeons_Safety" transform="translate(-325.000000, -1678.000000)"><g id="augmentation" transform="translate(295.000000, 1254.000000)"><g id="Sientra_Augmemtation_Complication_Rates_Chart" transform="translate(30.000000, 424.000000)"><polygon id="Fill-1" fill="#FF8300" points="197 50 395 50 395 0 197 0"></polygon><polygon id="Fill-2" fill="#53575A" points="395 50 593 50 593 0 395 0"></polygon><polygon id="Fill-3" fill="#53575A" points="593 50 790 50 790 0 593 0"></polygon><path d="M592.825998,49 L592.825998,0 M395.174002,49 L395.174002,0" id="Stroke-4" stroke="#FFFFFF" stroke-width="0.748880023"></path><path d="M0,50.1728301 L198.062714,50.1728301 M0.374852956,76.6386448 L0.374852956,50.5457974 M197.687861,76.6386448 L197.687861,50.5457974 M395.643573,76.6386448 L395.643573,50.5530562 M592.957275,76.6386448 L592.957275,50.5530562 M789.628274,76.6386448 L789.628274,50.5530562 M0,77.0116121 L197.687861,77.0116121 M0.374852956,103.092707 L0.374852956,77.3845794 M197.687861,77.0116121 L395.643573,77.0116121 M197.687861,103.092707 L197.687861,77.3845794 M395.643573,77.0116121 L592.957275,77.0116121 M395.643573,103.092707 L395.643573,77.3845794 M592.957275,77.0116121 L790,77.0116121 M592.957275,103.092707 L592.957275,77.3845794 M789.628274,103.092707 L789.628274,77.3845794 M0,103.465674 L197.687861,103.465674 M0.374852956,129.546424 L0.374852956,103.838642 M197.687861,103.465674 L395.643573,103.465674 M197.687861,129.546424 L197.687861,103.838642 M395.643573,103.465674 L592.957275,103.465674 M395.643573,129.546424 L395.643573,103.838642 M592.957275,103.465674 L790,103.465674 M592.957275,129.546424 L592.957275,103.838642 M789.628274,129.546424 L789.628274,103.838642 M0,129.919391 L197.687861,129.919391 M0.374852956,156.000486 L0.374852956,130.292358 M197.687861,129.919391 L395.643573,129.919391 M197.687861,156.000486 L197.687861,130.292358 M395.643573,129.919391 L592.957275,129.919391 M395.643573,156.000486 L395.643573,130.292358 M592.957275,129.919391 L790,129.919391 M592.957275,156.000486 L592.957275,130.292358 M789.628274,156.000486 L789.628274,130.292358 M0,156.373453 L197.687861,156.373453 M0.374852956,182.454203 L0.374852956,156.746421 M197.687861,156.373453 L395.643573,156.373453 M197.687861,182.454203 L197.687861,156.746421 M395.643573,156.373453 L592.957275,156.373453 M395.643573,182.454203 L395.643573,156.746421 M592.957275,156.373453 L790,156.373453 M592.957275,182.454203 L592.957275,156.746421 M789.628274,182.454203 L789.628274,156.746421 M0,182.82717 L790,182.82717" id="Stroke-5" stroke="#878A8B" stroke-width="0.734583223"></path><line x1="198" y1="50" x2="790" y2="50" id="Stroke-6" stroke="#878A8B" stroke-width="0.748880023"></line><text id="Sientra-10-Yr" font-family="Avenir-Roman, Avenir" font-size="17.1561605" font-weight="normal" letter-spacing="0.00340400012" fill="#FFFFFF"><tspan x="245" y="22">Sientra 10-Yr</tspan></text><text id="N=1,116" font-family="Avenir-Roman, Avenir" font-size="17.1561605" font-weight="normal" letter-spacing="0.00340400012" fill="#FFFFFF"><tspan x="261" y="42">N=1,116</tspan></text><text id="Mentor-10-Yr" font-family="Avenir-Roman, Avenir" font-size="17.1561605" font-weight="normal" letter-spacing="0.00340400012" fill="#FFFFFF"><tspan x="441" y="20">Mentor 10-Yr</tspan></text><text id="N=552" font-family="Avenir-Roman, Avenir" font-size="17.1561605" font-weight="normal" letter-spacing="0.00340400012" fill="#FFFFFF"><tspan x="467" y="40">N=552</tspan></text><text id="Allergan-10-Yr" font-family="Avenir-Roman, Avenir" font-size="17.1561605" font-weight="normal" letter-spacing="0.00340400012" fill="#FFFFFF"><tspan x="634" y="20">Alle</tspan><tspan x="663.882491" y="20" letter-spacing="-0.307122493">r</tspan><tspan x="669.305527" y="20">gan 10-Yr</tspan></text><text id="N=455" font-family="Avenir-Roman, Avenir" font-size="17.1561605" font-weight="normal" letter-spacing="0.00340400012" fill="#FFFFFF"><tspan x="663" y="40">N=455</tspan></text><text id="Number-of-Implants" font-family="Avenir-Roman, Avenir" font-size="14.2968004" font-weight="normal" letter-spacing="0.00340400012" fill="#53575A"><tspan x="32" y="69">Number of Implants</tspan></text><text id="2,2301,102908" font-family="Avenir-Book, Avenir" font-size="14.2968004" font-weight="normal" letter-spacing="0.00340400012" fill="#53575A"><tspan x="278" y="68">2,23</tspan><tspan x="305.83519" y="68" letter-spacing="157.166693">0</tspan><tspan x="470.950904" y="68">1,10</tspan><tspan x="498.786094" y="68" letter-spacing="162.638082">2</tspan><tspan x="669.373197" y="68">908</tspan></text><text id="MRI-Cohort-Patients" font-family="Avenir-Roman, Avenir" font-size="14.2968004" font-weight="normal" letter-spacing="0.00340400012" fill="#53575A"><tspan x="32" y="96">MRI Cohort Patients</tspan></text><text id="398220158" font-family="Avenir-Book, Avenir" font-size="14.2968004" font-weight="normal" letter-spacing="0.00340400012" fill="#53575A"><tspan x="285" y="95">39</tspan><tspan x="300.90485" y="95" letter-spacing="169.37474">8</tspan><tspan x="478.228611" y="95">22</tspan><tspan x="494.133461" y="95" letter-spacing="168.744245">0</tspan><tspan x="670.826727" y="95">158</tspan></text><text id="Capsular-Contracture-III/IV" font-family="Avenir-Roman, Avenir" font-size="14.2968004" font-weight="normal" letter-spacing="0.00340400012" fill="#53575A"><tspan x="10" y="121">Capsular Contractu</tspan><tspan x="134.043125" y="121" letter-spacing="-0.253938406">r</tspan><tspan x="138.564318" y="121">e III/IV</tspan></text><text id="12.9%" font-family="Avenir-Book, Avenir" font-size="14.2968004" font-weight="normal" letter-spacing="0.00340400012" fill="#55575A"><tspan x="276" y="121">12.9%</tspan></text><text id="12.1%" font-family="Avenir-Book, Avenir" font-size="14.2968004" font-weight="normal" letter-spacing="0.00340400012" fill="#53575A"><tspan x="474" y="121">12.1</tspan><tspan x="501.83519" y="121" letter-spacing="-0.139564005">%</tspan></text><text id="18.9%" font-family="Avenir-Book, Avenir" font-size="14.2968004" font-weight="normal" letter-spacing="0.00340400012" fill="#53575A"><tspan x="670.626086" y="121">18.9%</tspan></text><text id="Rupture-(MRI-Cohort)" font-family="Avenir-Roman, Avenir" font-size="14.2968004" font-weight="normal" letter-spacing="0.00340400012" fill="#53575A"><tspan x="27" y="149">Ruptu</tspan><tspan x="65.418226" y="149" letter-spacing="-0.253938406">r</tspan><tspan x="69.9394189" y="149">e (MRI Cohort)</tspan></text><text id="8.7%" font-family="Avenir-Book, Avenir" font-size="14.2968004" font-weight="normal" letter-spacing="0.00340400012" fill="#53575A"><tspan x="280" y="148">8.7%</tspan></text><text id="24.2%9.3%" font-family="Avenir-Book, Avenir" font-size="14.2968004" font-weight="normal" letter-spacing="0.00340400012" fill="#53575A"><tspan x="473" y="148">24.2</tspan><tspan x="500.83519" y="148" letter-spacing="156.621991">%</tspan><tspan x="669.366416" y="148">9.3%</tspan></text><text id="Reoperation" font-family="Avenir-Book, Avenir" font-size="14.2968004" font-weight="normal" letter-spacing="0.00340400012" fill="#53575A"><tspan x="58" y="175">Reoperation</tspan></text><text id="24.2%" font-family="Avenir-Book, Avenir" font-size="14.2968004" font-weight="normal" letter-spacing="0.00340400012" fill="#FF8300"><tspan x="276" y="174">24.2%</tspan></text><text id="25.5%36.1%" font-family="Avenir-Book, Avenir" font-size="14.2968004" font-weight="normal" letter-spacing="0.00340400012" fill="#53575A"><tspan x="474" y="175">25.5</tspan><tspan x="501.83519" y="175" letter-spacing="152.574574">%</tspan><tspan x="666.318999" y="175">36.1%</tspan></text></g></g></g></g></svg> 