<?xml version="1.0" encoding="UTF-8"?> <!-- Generator: Adobe Illustrator 25.0.0, SVG Export Plug-In . SVG Version: 6.00 Build 0) --> <svg xmlns="http://www.w3.org/2000/svg" xmlns:xlink="http://www.w3.org/1999/xlink" version="1.1" id="Layer_1" x="0px" y="0px" viewBox="0 0 1440 1000" style="enable-background:new 0 0 1440 1000;" xml:space="preserve"> <style type="text/css"> .st0{fill:#FE8302;} </style> <path class="st0" d="M1441.5,23.8c-34.3,1.8-66.9,10.1-98,24.8c-24.7,11.7-46.7,27.6-68.3,44.1c-42.4,32.5-73.8,73.6-98.1,120.8 c-31.6,61.3-53.8,126-68.8,193.1c-7.8,35-13.8,70.4-20.2,105.7c-7.5,41.3-15.7,82.3-32.1,121.2c-21,50-55.7,87.5-102.7,114 c-32.9,18.5-68.1,29.8-105.4,35.1c-23.3,3.3-46.7,4.9-70.2,3.6c-36.1-2-71.6-8.4-106.2-19.1c-63.2-19.6-121.2-49.8-176.6-85.3 c-4.2-2.7-8.4-5.4-12.5-8.2c-2.1-1.4-4.2-3.1-2.3-6.1c2-3.2,4.4-2,6.8-0.5c19.7,12.1,39.2,24.7,59.2,36.2 c48.6,27.8,99.6,50,154.2,63.4c22.3,5.5,44.9,9.8,67.9,10.6c19.9,0.7,40,1.6,59.8-0.2c56.3-5.2,108.2-23,153.2-58.1 c35.2-27.4,58.6-63.3,73.7-104.8c10.3-28.2,16.8-57.4,22-86.9c8.6-49.2,16.3-98.6,29-147.1c13.8-52.9,31.5-104.5,55.5-153.7 c18.7-38.3,39.8-75.4,70.2-105.7c41.8-41.7,88.6-76.2,146-93.9c19-5.9,38.4-9.1,58.2-10.6c1.9-0.1,3.8-0.9,5.8-1.3 C1441.5,17.8,1441.5,20.8,1441.5,23.8z"></path> </svg> 