<?xml version="1.0" encoding="UTF-8"?> <!-- Generator: Adobe Illustrator 25.0.0, SVG Export Plug-In . SVG Version: 6.00 Build 0) --> <svg xmlns="http://www.w3.org/2000/svg" xmlns:xlink="http://www.w3.org/1999/xlink" version="1.1" id="Layer_1" x="0px" y="0px" viewBox="0 0 1052.2 1522.8" style="enable-background:new 0 0 1052.2 1522.8;" xml:space="preserve"> <style type="text/css"> .st0{fill:#FE8302;} </style> <path class="st0" d="M1052.2,553.2c-16.7,3.9-33.6,6.2-50.9,5.7c-36.3-0.9-69-12.1-97.9-33.8c-37.7-28.3-61-66-67.5-112.7 c-8.1-58.2,9.3-108.5,51.5-149.7c26.5-25.8,58.5-40.9,95-45.9c21.5-3,43.1-2.1,64.4,3.3c1.8,0.5,3.6,0.7,5.4,1 C1052.2,331.9,1052.2,442.5,1052.2,553.2z"></path> <path class="st0" d="M1052.2,696.2c-0.8,1-1.8,1.9-2.3,3c-34.9,70.3-77.2,136-123.2,199.4c-24.4,33.7-48.3,67.8-68.1,104.6 c-16.3,30.1-29.2,61.5-36.1,95.3c-5.4,26.7-6.7,53.7-3.9,80.9c9.5,89.8,51.5,163.4,114,226.3c34.3,34.5,73.7,62.3,116.3,85.5 c1,0.5,2.1,0.7,3.2,1.1c0,3.3,0,6.7,0,10c-38.5-20.5-74.7-44.4-107.1-73.7c-60.2-54.5-104.8-118.9-126.1-198.1 c-5.3-19.6-8.2-39.6-9.6-59.9c-4.1-58.1,10.9-111.6,37.2-162.6c21.8-42.2,49-80.8,76.6-119.2c44.6-62.2,86-126.3,119.7-195.2 c3.1-6.4,6.2-12.9,9.3-19.3C1052.2,681.6,1052.2,688.9,1052.2,696.2z"></path> <path class="st0" d="M1052.2,189.2c-41.9-57.6-97.8-97.4-161.5-127.3C838.7,37.4,784.1,20.7,728,9C696.4,2.4,664.6-2.5,632.8-8 c-5.7-1-11.5-1.6-17.3-2.1c-4.1-0.4-3.2-3.5-2.7-5.6c0.2-1.1,2.8-2.7,4.1-2.5c55.9,6.9,111.3,16.9,165.7,31.9 c41.3,11.4,81.5,25.8,120,44.7c56.8,27.8,107.2,63.9,147.1,113.5c0.7,0.9,1.7,1.5,2.5,2.3C1052.2,179.2,1052.2,184.2,1052.2,189.2z"></path> </svg> 