<?xml version="1.0" encoding="UTF-8"?> <!-- Generator: Adobe Illustrator 25.0.0, SVG Export Plug-In . SVG Version: 6.00 Build 0) --> <svg xmlns="http://www.w3.org/2000/svg" xmlns:xlink="http://www.w3.org/1999/xlink" version="1.1" id="Layer_1" x="0px" y="0px" viewBox="0 0 1440 576" style="enable-background:new 0 0 1440 576;" xml:space="preserve"> <style type="text/css"> .st0{fill:#F58320;} </style> <path class="st0" d="M0,276.5c3.1-3.4,6.3-6.8,9.4-10.2c39.8-43.6,88.3-72.8,145.7-87c27.9-6.8,56.2-9.2,84.7-7.2 c61.4,4.2,116.4,25.8,163.6,65.3c49.7,41.7,81.8,94.4,96.1,157.8c4.4,19.7,6.7,39.8,6.7,59.8c-0.1,41-8.1,80.6-25.1,118.2 c-2,4.5-4.6,5.9-9.4,5.8c-154.6-0.1-309.3-0.1-463.9-0.1c-2.7,0-5.3,0.3-8,0.4C0,478.5,0,377.5,0,276.5z"></path> <path class="st0" d="M1440,57.5c-2.1,6.4-4.4,12.7-6.3,19.2c-19,64.5-43.2,126.9-78.1,184.7c-30.9,51.2-68.8,96-117.6,131.1 c-43,30.9-90.9,50.6-143,59.2c-21.7,3.6-43.9,4.7-65.9,6.3c-14.3,1-28.6,1.1-42.9,1.2c-34.2,0.3-67.5-5.4-100.3-14.5 c-72.9-20.2-140.5-52.2-205.2-90.8c-60-35.8-115.7-77.4-169.6-121.6c-35.5-29.2-71.3-58.1-110.8-81.9 c-32.6-19.6-67.2-34.5-104.7-41.7c-26.7-5.2-53.7-6.2-80.9-3.9C135.3,111.8,66.4,143.7,4,191.5c-1.3,1-2.7,2-4,3c0-3.3,0-6.7,0-10 c11.1-7.9,22-16.2,33.4-23.6c43.1-28.1,89.6-48.2,140-58.6c29.9-6.2,60.2-7.9,90.8-5.8c56.9,3.9,107.2,25.6,154.5,55.9 c35.7,22.9,68.6,49.5,101.3,76.3c63.4,51.9,129.4,99.9,201.7,138.9c50.5,27.2,102.5,51,157.7,66.9c24.9,7.2,50.3,12.1,76.2,14.6 c28.1,2.7,56.2,2.2,84.3,0.6c41.2-2.3,81.5-9.4,120.1-24.4c40.1-15.5,75.6-38.4,107.3-67.3c40.8-37.1,72-81.5,97.6-130 c33.4-63.3,56-130.6,73.3-199.9c0.5-1.9,1.1-3.8,1.7-5.7C1440,34.2,1440,45.8,1440,57.5z"></path> </svg> 