<?xml version="1.0" encoding="UTF-8"?> <!-- Generator: Adobe Illustrator 25.0.0, SVG Export Plug-In . SVG Version: 6.00 Build 0) --> <svg xmlns="http://www.w3.org/2000/svg" xmlns:xlink="http://www.w3.org/1999/xlink" version="1.1" id="Layer_1" x="0px" y="0px" viewBox="0 0 1440 1090.8" style="enable-background:new 0 0 1440 1090.8;" xml:space="preserve"> <style type="text/css"> .st0{fill:#FE8302;} </style> <path class="st0" d="M1440,417.8c-9.1,1.9-18.1,4.2-27.2,5.7c-35,5.8-69.1,2.2-101.6-11.8c-62-26.6-100.9-73.1-113.2-139.5 c-10.4-56.3,3.8-107.3,40.4-151.5c30.8-37.3,70.8-58.8,118.4-66.2c28.2-4.4,56-1.8,83.3,6.4C1440,179.8,1440,298.8,1440,417.8z"></path> <path class="st0" d="M0,329.8c6.8,1.5,13.6,2.9,20.4,4.4c41.3,9.1,79,25.8,112.1,52.4c38.8,31.1,62.1,71.9,74.1,119.7 c6.5,25.9,10.3,52.1,13.1,78.6c3.4,31.9,6.4,63.8,11,95.5c10.6,73.1,29,144,61.2,210.9c20.6,42.8,50.4,78.1,86.9,108.2 c21.2,17.5,43.6,32.8,69.2,43.3c21.2,8.7,43.2,14.4,66,16.5c57.3,5.4,111.4-7.4,164-28.8c52-21.1,99.8-49.5,145.8-81.4 c35.1-24.3,68.5-50.8,101.1-78.4c0.1-0.1,0.3-0.2,0.4-0.3c2.7-2.3,5.6-5.2,8.9-1.2c3.4,4.1-0.6,6.3-3.1,8.4 c-5,4.4-10.1,8.7-15.3,12.9c-44.8,36.9-91.3,71.5-141.1,101.3c-47.9,28.7-97.9,52.7-152.2,66.8c-18.8,4.9-37.9,8.3-57.4,9.9 c-36.9,3.2-73,0-108.2-12.1c-31.4-10.8-58.9-28.5-84.4-49.6c-27.6-22.9-52.6-48-71.5-78.9c-16.8-27.6-29.8-56.9-40.9-87.1 c-16.7-45.2-28.6-91.7-35.9-139.3c-4.4-28.5-7.6-57.3-11-86c-4.2-35.8-7.1-71.7-15.9-106.9c-17.6-70.2-60.4-118.7-126-147.9 c-22.9-10.2-46.7-17.4-71.5-21C0,336.4,0,333.1,0,329.8z"></path> </svg> 