<?xml version="1.0" encoding="UTF-8"?> <!-- Generator: Adobe Illustrator 25.0.0, SVG Export Plug-In . SVG Version: 6.00 Build 0) --> <svg xmlns="http://www.w3.org/2000/svg" xmlns:xlink="http://www.w3.org/1999/xlink" version="1.1" id="Layer_1" x="0px" y="0px" viewBox="0 0 872.8 1152.6" style="enable-background:new 0 0 872.8 1152.6;" xml:space="preserve"> <style type="text/css"> .st0{fill:#FE8302;} </style> <path class="st0" d="M862.9-2.7c-9.1,9.2-18.1,17.4-26.2,26.4c-35.5,39.2-60,84.1-70,136.3c-5,26.2-5.4,52.6-3.6,79 c3.5,51.4,16.8,100.8,29.8,150.3c12.1,46.3,23,92.9,30.2,140.2c4,26.1,7.1,52.4,9.2,78.7c2.2,28.2,4,56.5,3.7,84.8 c-0.5,51.6-4.8,102.9-19.5,152.8c-10.5,35.6-27.7,68-46,99.9c-16.5,28.6-35.8,54.9-59.5,78.1c-30.8,30.1-66.5,52.5-106.4,68.5 c-28.8,11.6-58.7,19-89.3,24c-36,5.8-72.2,7-108.5,5.9c-32.6-1-64.9-4.6-97.2-9.5c-98.1-14.9-192.4-43.4-285.2-77.5 c-1.6-0.6-3.5-0.8-4.5-1.9c1.4-4.1,1.3-4.1,1.3-4.1s1-2.8,1.1-2.9c1.5-0.1,3.2,0.9,4.7,1.5c63.3,23.4,127.5,44.2,193.3,59.8 c35.1,8.3,70.4,15.1,106.2,19.8c38,5,76.1,8.3,114.4,7.5c59.8-1.3,118.1-10.5,173.3-35.1c55.8-24.9,100.7-62.7,134.3-113.7 c28.2-42.9,51.9-88.2,64.1-138.4c5.4-22,9.2-44.6,11.4-67.2c2.7-27.6,4-55.5,3.9-83.2c-0.1-26.4-2.4-52.8-4.5-79.2 c-6.2-77.3-24.2-152.4-43.3-227.2c-7.8-30.5-14.3-61.5-20.2-92.4c-5.2-27.3-6.8-55.2-5.3-83c3.1-57.3,23-108.7,57.7-154.1 C822,28,833.4,16,844.5,3.8C851.3-3.6,851.7-3.3,862.9-2.7z"></path> </svg> 