<?xml version="1.0" encoding="UTF-8"?> <!-- Generator: Adobe Illustrator 25.0.0, SVG Export Plug-In . SVG Version: 6.00 Build 0) --> <svg xmlns="http://www.w3.org/2000/svg" xmlns:xlink="http://www.w3.org/1999/xlink" version="1.1" id="Layer_1" x="0px" y="0px" viewBox="0 0 978 2035.7" style="enable-background:new 0 0 978 2035.7;" xml:space="preserve"> <style type="text/css"> .st0{fill:#F58320;} </style> <path class="st0" d="M978,406.9c-10.7,1.2-21.4,3.2-32.1,3.3c-16.5,0.2-32.8-2.5-48.4-8.1c-54.8-19.8-88.5-58.4-99.9-115.3 c-13.2-65.9,20.9-133.3,81.9-163c22.1-10.8,45.8-16.1,70.4-15.3c9.4,0.3,18.8,2.2,28.1,3.4C978,210.2,978,308.6,978,406.9z"></path> <path class="st0" d="M0,1321c4-3.4,8-6.9,12.1-10.2c62.1-49.3,154.2-14.6,168.6,63.5c10.6,57.4-27.6,112.6-84.8,122.4 c-35.8,6.1-66.6-4.3-92.9-29c-1-0.9-2-1.8-3-2.7C0,1417,0,1369,0,1321z"></path> <path class="st0" d="M455.3,2039.8c3.8-2.3,7.5-4.6,11.3-6.9c64-39.5,126-81.8,184.4-129.3c75-61.1,143.6-128.3,198.2-208.8 c37.6-55.4,66.2-115,81.6-180.4c6.4-26.9,10.3-54.1,11.7-81.8c3.5-68.9-10-134.9-33.5-199.2c-13.7-37.7-28.7-74.9-48.3-110 c-22.5-40.4-50.1-77-80.8-111.4c-55.5-62.2-118.4-116.1-185.2-165.7c-69-51.2-142.2-95.8-217.8-136.6 c-50.3-27.1-100.5-54.3-147.9-86.3c-39.4-26.7-75.6-56.9-106.4-93.3c-35.6-42-60.7-89.7-77.2-142.1c-8.6-27.1-14.5-54.8-18.2-83.1 c-3.6-28-5.5-56-4.6-84.2c1.4-45.1,7.8-89.7,19.3-133.4c7.6-28.8,16.9-57,28.3-84.6c3.5-8.5,4.4-8.9,14.5-6.7C83.4-1,82.3,2,81,5 C62.8,47.9,49.4,92.2,42,138.2c-3.6,22.8-5.2,45.9-7.4,68.8c-2.4,25.5-1.1,51,1.2,76.3c6,64,22.8,124.8,54.6,181 c23.6,41.6,54.3,77.3,90.6,108.3c45,38.4,95.2,68.8,146.8,97.1c56.6,31.1,113.9,61,168.6,95.4c63,39.6,123.6,82.5,180.1,130.9 c52.5,44.9,101.7,93.2,144.7,147.5c40.7,51.2,70.4,108.4,92.4,169.8c13.8,38.4,26.3,77,33.4,117.3c6.3,35.6,8.3,71.5,6.1,107.4 c-5.7,94.3-39.7,178.9-91,257.1c-34.5,52.6-75.7,99.7-120.9,143.4c-69.9,67.8-147.1,126.2-228.7,178.9c-9.2,6-18.8,11.5-27.8,17.8 c-6,4.2-12.3,6.3-19.6,5.5c-3.2-0.3-6.5-0.1-9.8-0.1C455.5,2040.4,455.4,2040.1,455.3,2039.8z"></path> </svg> 