<?xml version="1.0" encoding="UTF-8"?> <!-- Generator: Adobe Illustrator 25.0.0, SVG Export Plug-In . SVG Version: 6.00 Build 0) --> <svg xmlns="http://www.w3.org/2000/svg" xmlns:xlink="http://www.w3.org/1999/xlink" version="1.1" id="Layer_1" x="0px" y="0px" viewBox="0 0 1440 510" style="enable-background:new 0 0 1440 510;" xml:space="preserve"> <style type="text/css"> .st0{fill:#FE8302;} </style> <path class="st0" d="M0,363c1.1-2,2.4-3.9,3.3-6c16.8-40.5,35.8-79.9,58-117.7c28.8-49.1,62.3-94.6,104.1-133.5 c37.1-34.6,78.9-61.7,127-78.4c26.8-9.3,54.3-15.5,82.8-16.8c17.3-0.8,34.6-1.4,51.9-0.8c16.7,0.6,33.4,3.2,50.1,4.5 c19.8,1.6,39.1,5.5,58.2,10.7c38,10.5,73.4,26.8,107.5,46.2c83.3,47.3,156.2,107.8,222.4,176.5c34,35.3,66.2,72.3,99.2,108.5 c31.8,34.8,65.5,67.4,105.9,92.3c32.6,20.2,67.7,33.4,105.6,38.6c26.3,3.6,52.7,3.7,79.1,0.5c61.3-7.4,117.2-29,169-62.1 c5.3-3.4,10.5-7,15.8-10.6c0,4.3,0,8.7,0,13c-2.2,1.1-4.5,2-6.5,3.3c-42.5,27.7-88.1,48.3-137.6,59.7c-22.2,5.1-44.8,7.9-67.6,8.7 c-44.6,1.6-87.4-5.9-128.2-24c-29-12.8-54.8-30.8-79.1-51c-36-30-67.2-64.6-98.1-99.6c-39.2-44.4-79.5-87.6-123.7-127 c-52.3-46.6-107.9-88.5-169.3-122.5c-44.3-24.6-91-42.4-141.3-49.7c-18.9-2.7-38-3.9-57.1-5.4c-11.1-0.8-22.3-1-33.4-1.1 c-44.9-0.1-87.7,9.4-128.6,27.9c-51.7,23.3-94.4,58.4-131.3,100.8C90.2,203.3,54.6,266,24.8,332.2C16.1,351.6,8.2,371.4,0,391 C0,381.7,0,372.3,0,363z"></path> <path class="st0" d="M1309.4,210.4c63.1,0.1,115,49.2,114.7,114.9c-0.3,66.3-52.6,114.1-114.5,114.2c-63.4,0-114.8-49.3-114.7-114.4 C1195,258.2,1247.8,210.6,1309.4,210.4z"></path> </svg> 