<?xml version="1.0" encoding="UTF-8"?> <!-- Generator: Adobe Illustrator 25.0.0, SVG Export Plug-In . SVG Version: 6.00 Build 0) --> <svg xmlns="http://www.w3.org/2000/svg" xmlns:xlink="http://www.w3.org/1999/xlink" version="1.1" id="Layer_1" x="0px" y="0px" viewBox="0 0 1440 700" style="enable-background:new 0 0 1440 700;" xml:space="preserve"> <style type="text/css"> .st0{fill:#F58320;} </style> <path class="st0" d="M1440,20.7c-15.1,0-30.4-1.3-45.3,0.2c-25.1,2.5-50.1,6.2-74.9,10.5c-65.9,11.4-127.5,34.3-184.6,69.5 c-53.9,33.3-103.5,72.1-150.3,114.7c-49.1,44.8-95,92.6-137.3,143.8c-30.6,37.1-59.7,75.5-89.3,113.5 c-33.1,42.3-66.5,84.2-106.4,120.5c-36.8,33.4-77.5,60.8-124.5,78c-27.2,10-55.3,16.6-84.1,20.3c-23.7,3-47.5,3.7-71.3,2.6 c-56.8-2.7-111.2-16.2-163.6-38.5C148.2,630,94.6,594.2,46.5,550c-14.8-13.6-28.8-28.2-43.1-42.4c-1.1-1-2.2-1.9-3.4-2.9 c0-5.3,0-10.7,0-16c24.2,27.4,50.3,52.8,78.6,76c52.1,42.8,109.5,76.1,173.9,96.8c29.2,9.4,58.9,15.9,89.3,19.8 c24.6,3.1,49.2,3.9,73.8,2.4c74.9-4.3,142.7-28.2,202.1-74.7c34.2-26.8,64.5-57.4,91.5-91.2c37.7-47.1,74.1-95.2,111.7-142.3 c52.2-65.3,109.2-126.2,172.3-181.3c41.3-36.1,84.7-69.6,131.2-98.8c47.7-29.8,98-53.6,153.3-65.8c33.6-7.4,67.1-15,101.5-17.6 c18.1-1.4,36.2-1.5,54.3-2.2c2.2-0.1,4.3-0.1,6.5-0.2C1440,13.4,1440,17.1,1440,20.7z"></path> </svg> 