<?xml version="1.0" encoding="UTF-8"?> <!-- Generator: Adobe Illustrator 25.0.0, SVG Export Plug-In . SVG Version: 6.00 Build 0) --> <svg xmlns="http://www.w3.org/2000/svg" xmlns:xlink="http://www.w3.org/1999/xlink" version="1.1" id="Layer_1" x="0px" y="0px" viewBox="0 0 1440 956" style="enable-background:new 0 0 1440 956;" xml:space="preserve"> <style type="text/css"> .st0{fill:#FE8302;} </style> <path class="st0" d="M1440,102c-20.8-4.4-41.4-10-62.4-13c-23.2-3.3-46.6-5.2-70-5.7c-30.8-0.7-61.4,2.1-91.7,8.1 c-49.4,9.7-95.5,27.3-137.9,54.4c-37.7,24.2-70.3,54.3-100,87.7c-37.6,42.3-69.8,88.7-101.5,135.5c-36,53.1-72.5,105.8-112.8,155.8 c-60.6,75.4-126.3,145.9-200.6,208C519.3,769.3,473.4,803,423,830c-40.3,21.6-83,36.4-127.2,47.7c-30.6,7.8-61.3,15.3-92.6,19.5 c-28.4,3.8-56.9,5.2-85.6,3.7c-34.7-1.8-68.6-7.6-101.9-17.3c-5.2-1.5-10.5-3.1-15.7-4.7c0-4.3,0-8.7,0-13 c24.9,9,50.5,15.7,76.7,19.2c18.9,2.5,38,4.2,57.1,4.6c30.5,0.7,60.8-2,90.8-7.7c39.7-7.5,78.9-17.3,117.1-30.3 c50.1-17,96.6-41.3,140-71.5c45.1-31.4,87.2-66.4,127.1-104c91.4-86.1,169.2-183.5,239.9-287.1c28.9-42.4,58.6-84.2,89.4-125.2 c31.8-42.2,68.1-80.2,110.7-111.9c46.1-34.3,97.4-57.1,153.3-69.6c25.2-5.7,50.7-8.8,76.4-10.3c53.1-3.1,105.1,3.9,156.5,16.6 c1.6,0.4,3.2,0.8,4.8,1.2C1440,94,1440,98,1440,102z"></path> </svg> 