<?xml version="1.0" encoding="UTF-8"?> <!-- Generator: Adobe Illustrator 25.0.0, SVG Export Plug-In . SVG Version: 6.00 Build 0) --> <svg xmlns="http://www.w3.org/2000/svg" xmlns:xlink="http://www.w3.org/1999/xlink" version="1.1" id="Layer_1" x="0px" y="0px" viewBox="0 0 1440 366.8" style="enable-background:new 0 0 1440 366.8;" xml:space="preserve"> <style type="text/css"> .st0{fill:#F58320;} </style> <path class="st0" d="M0-364.2c60.4,13.3,114.1,39.7,160.6,80.6c60.8,53.5,99.6,119.9,115.5,199.3c3.8,18.9,5.4,38.5,6.3,57.8 c3,63.5-10.9,123.5-40.7,179.6c-33.5,63.1-81.8,112-144.4,146.6c-29,16.1-59.7,27.6-92,35c-1.8,0.4-3.6,0.7-5.4,1.1 C0,102.4,0-130.9,0-364.2z"></path> <path class="st0" d="M1440,146.8c-7.5-12.5-14.5-25.5-22.7-37.6c-29.9-44.3-67.8-80.7-111-111.9c-42.3-30.5-87.9-55.1-135.7-75.8 c-13.3-5.7-26.7-11.1-40.1-16.6c-2.6-1.1-5.5-2-4-5.5c1.4-3.4,4.3-2.3,6.8-1.3c58.4,23,114.8,49.9,166.3,86.1 c55.3,38.8,102.9,85,137.3,143.8c0.8,1.4,2,2.5,3,3.8C1440,136.8,1440,141.8,1440,146.8z"></path> </svg> 