<svg width="432" height="151" viewBox="0 0 432 151" fill="none" xmlns="http://www.w3.org/2000/svg">
<g clip-path="url(#clip0_5063_932)">
<path d="M102.374 8.64362C112.272 8.27873 119.559 9.37283 121.502 8.52185C122.17 8.94727 122.595 10.3456 120.834 10.6492C119.073 10.9534 114.458 10.528 107.779 10.5886C108.568 11.1353 109.175 11.8649 108.75 12.4117C107.232 14.4179 103.649 20.1917 99.1562 28.3366C93.4483 38.7301 90.2909 47.4217 89.9872 49.7922C89.8658 51.9196 85.7367 49.3668 86.0401 47.6648C86.6473 44.2004 94.2375 29.1271 96.4234 25.0546C98.5486 21.1646 102.678 13.3846 104.743 10.6492C104.135 10.6492 103.467 10.7099 102.86 10.7099C91.2014 11.3178 84.2183 14.418 84.0364 19.0372C81.3646 19.2197 80.4539 15.5121 82.7004 13.2628C86.8902 9.00851 96.302 8.8866 102.374 8.64362Z" fill="#984957"/>
<path d="M117.494 22.4412C113 31.6188 111.603 34.5973 110.085 37.6968C112.211 34.962 121.38 22.8666 124.78 21.9544C127.755 21.1647 130.184 24.5686 129.395 26.7566C127.695 31.4976 121.501 43.3493 125.084 43.0457C127.452 42.8632 134.253 34.4754 137.167 29.9168C137.957 29.3095 138.442 30.0386 138.321 31.0108C135.771 35.5693 131.095 41.8298 128.181 44.0791C124.72 46.7532 120.347 43.8967 119.983 41.0401C119.68 35.3876 126.845 25.2371 125.145 25.1152C121.987 24.8721 109.235 42.3165 108.628 44.1396C107.657 46.0846 103.588 44.2003 104.013 42.6201C104.742 40.0067 108.142 32.9557 113.425 22.2586C116.582 15.7551 119.558 9.73762 119.983 8.03566C120.59 6.8198 123.748 8.94732 123.383 10.4062C123.14 11.5001 121.683 13.6883 117.494 22.4412Z" fill="#984957"/>
<path d="M138.32 36.1167C137.895 37.2713 137.713 38.3654 137.773 39.2775C137.895 41.9516 138.441 43.0456 140.506 43.228C143.177 43.4712 148.096 39.7029 150.768 36.1772C151.375 35.6911 151.921 36.056 151.861 36.907C149.614 41.1007 146.517 44.3221 144.392 45.1731C141.052 46.5102 135.223 43.9572 134.191 40.0067C132.733 34.3542 138.745 24.3249 143.845 21.8938C148.035 19.8882 153.136 23.474 152.589 26.1487C151.982 28.7621 143.177 33.9287 138.32 36.1167ZM139.413 33.5639C144.938 30.6467 151.496 25.4803 148.582 23.839C147.064 22.988 142.085 28.3368 139.413 33.5639Z" fill="#984957"/>
<path d="M34.0514 61.4994C34.2437 64.58 35.3979 85.5658 39.3409 107.61L40.3987 113.58C40.5914 109.632 45.6882 96.8292 48.6698 90.6682C58.0946 71.1261 65.0188 58.419 68.9618 56.1083C72.1357 54.1826 73.7709 55.5304 73.6744 57.1672C71.2701 57.1672 62.0376 72.0889 54.7284 88.3575C49.1507 101.065 43.8612 114.927 43.3802 122.243C42.226 123.302 37.7061 124.169 36.6479 121.762C31.3588 109.632 29.6273 87.5876 28.0885 65.4459C24.9151 72.4738 19.1447 86.4317 15.8748 94.3255C9.43115 109.728 4.71898 120.992 4.71898 123.206C3.08383 124.65 -0.666862 124.265 0.102745 120.992C1.35288 115.889 7.8925 100.969 11.2586 93.0747C13.9516 86.6247 24.7228 61.2105 25.7807 58.419C27.7041 53.8937 33.8591 58.7068 34.0514 61.4994Z" fill="#984957"/>
<path d="M89.7335 89.9942C90.8877 91.2449 91.7532 92.8817 90.984 93.8446C89.5412 95.7702 88.8679 97.2141 86.5601 101.931C84.0594 107.515 83.8671 112.809 87.3293 112.328C91.8497 111.75 103.967 95.9622 106.275 92.1118C107.045 91.3418 108.391 91.9189 108.487 92.9786C106.468 96.829 97.1392 110.402 91.561 114.253C86.8489 117.526 82.6172 115.023 79.9242 112.328C78.1932 110.595 78.6741 105.108 80.4052 101.546C77.7122 105.589 70.7881 113.676 66.5564 115.793C63.8634 117.045 58.2857 113.868 57.7083 110.499C56.9392 106.071 60.8823 96.2511 67.7106 88.6462C74.8271 80.7523 80.4052 78.4417 84.8291 77.4788C89.83 76.4199 97.4274 81.5223 96.1773 84.7957C95.0231 87.2982 91.2722 89.8012 89.7335 89.9942ZM89.0606 89.4163C89.3489 87.6835 92.9073 82.3894 90.5031 81.0416C87.8101 79.5967 78.0967 85.373 73.0958 92.3048C64.9211 103.567 62.6132 111.558 64.7288 111.943C68.2873 112.617 82.5206 95.9623 86.1755 89.3204C86.7524 88.3575 87.9064 88.6463 89.0606 89.4163Z" fill="#984957"/>
<path d="M125.412 110.788C129.163 112.713 131.471 111.076 132.337 109.728C133.299 108.188 135.318 109.055 134.164 110.788C131.087 115.504 129.163 115.986 125.797 115.889C118.872 115.697 111.852 104.627 110.409 98.3689L109.832 98.8509C105.889 108.093 102.523 116.563 102.523 117.719C102.812 120.415 96.3684 118.97 96.3684 116.563C96.3684 115.024 105.601 92.4009 112.717 78.6351C120.123 63.9062 124.162 56.6854 125.124 54.8566C126.855 51.5841 134.549 53.5088 132.241 55.2416C131.087 56.5894 125.508 65.8309 118.584 80.1748C116.949 83.3513 114.929 87.4906 113.006 91.823C120.508 86.2398 131.375 79.0199 133.683 79.5009C136.953 80.1748 136.857 83.6402 133.875 83.6402C131.952 83.0633 122.239 89.0314 114.929 94.7116C115.41 97.8881 120.603 108.284 125.412 110.788Z" fill="#984957"/>
<path d="M141.664 101.546C140.99 103.375 140.605 105.108 140.509 106.648C140.413 109.343 141.664 112.328 144.837 112.713C153.877 113.771 165.418 97.0209 169.649 91.7268C170.707 90.5721 172.054 90.9569 172.15 92.1118C169.073 98.2729 160.513 110.691 152.339 115.023C146.664 118.008 137.143 115.312 134.835 108.862C131.277 98.8507 142.433 82.5812 150.511 78.7308C157.147 75.5543 164.552 82.2922 163.879 86.5286C163.11 91.4379 149.453 98.3689 141.664 101.546ZM143.298 97.599C151.954 92.8817 162.244 84.2179 158.013 81.9073C155.512 80.6565 147.626 89.0312 143.298 97.599Z" fill="#984957"/>
<path d="M196.481 86.1438C190.711 97.8881 184.94 115.697 191.48 113.676C194.75 112.617 199.654 106.36 202.54 101.161C203.309 99.7168 204.367 100.969 204.175 102.605C202.732 106.167 199.462 113.676 194.654 116.275C191.576 118.008 183.209 115.504 182.44 109.536C182.151 107.419 182.343 104.819 183.305 101.161C179.266 106.648 173.784 113.387 170.61 115.024C168.783 115.986 163.494 114.831 162.147 110.98C160.224 105.493 170.322 83.9292 179.266 79.9828C183.594 78.0571 188.499 80.1747 191.191 82.1964L191.576 81.5225C198.693 67.5636 202.925 59.3808 204.367 57.1672C206.387 54.6646 213.311 54.5676 212.157 56.4932C210.714 59.0929 207.156 63.7132 196.481 86.1438ZM186.671 91.8229C187.537 89.7053 188.691 87.2986 190.037 84.699C188.21 83.1592 185.806 81.9075 183.786 82.9662C176.958 86.6247 165.225 111.365 168.495 111.943C170.899 112.328 182.248 99.5247 186.671 91.8229Z" fill="#984957"/>
<path d="M248.365 58.1928C264.042 57.6149 275.582 59.3476 278.66 57.9999C279.718 58.6738 280.391 60.8884 277.602 61.3694C274.812 61.8514 267.504 61.1775 256.925 61.2734C258.175 62.1392 259.137 63.2951 258.464 64.1609C256.06 67.3384 250.385 76.4831 243.268 89.3831C234.228 105.845 218.812 140.699 218.332 144.453C218.139 147.823 211.6 143.779 212.08 141.084C213.042 135.597 235.478 90.6347 238.94 84.1847C242.306 78.0237 248.846 65.7015 252.116 61.3691C251.154 61.3691 250.096 61.4652 249.134 61.4652C230.669 62.428 219.61 67.3383 219.321 74.6541C215.09 74.9431 213.648 69.0709 217.206 65.5085C223.841 58.7705 238.748 58.5776 248.365 58.1928Z" fill="#984957"/>
<path d="M280.39 84.3768C283.468 85.1477 286.161 86.3985 283.083 90.4418C278.275 96.7958 269.618 114.508 274.62 115.375C277.504 115.953 292.412 96.6029 295.393 92.4635C296.162 91.5007 297.605 91.7896 297.605 93.3303C296.258 96.7958 283.563 113.834 278.948 117.204C274.811 120.092 267.311 118.648 266.541 113.064C265.387 105.845 274.235 91.6937 276.255 88.0353C277.408 86.1096 274.908 85.6286 272.311 85.0507C267.407 91.7896 255.193 106.037 254.231 108.829C253.269 109.407 250.769 108.636 251.826 105.845C252.884 103.053 262.598 91.3088 268.272 83.7029C267.791 83.4149 267.407 83.0289 267.311 82.5481C266.252 79.4675 273.562 72.1516 275.87 70.5149C278.851 68.7821 281.736 70.0329 281.255 71.6697C280.87 73.4024 276.543 79.5635 274.331 82.5481C274.331 82.741 279.044 83.9919 280.39 84.3768Z" fill="#984957"/>
<path d="M294.43 113.161C298.277 113.546 320.012 84.4738 320.493 82.9331C322.032 81.3933 328.187 83.318 326.167 86.3985C324.051 89.576 311.838 112.006 317.704 112.583C321.166 112.968 334.149 96.8918 337.227 92.1746C338.477 91.0198 339.342 91.4047 339.151 93.8114C337.034 97.5657 326.359 114.22 320.877 115.664C316.262 116.819 310.876 113.546 310.107 110.273C309.049 105.653 311.741 99.4916 312.126 98.7208C311.26 99.8765 302.701 112.391 296.353 115.568C293.084 117.204 286.544 114.605 287.313 109.118C288.756 99.5876 301.259 83.318 301.45 81.0085C302.797 79.0828 308.471 81.0085 307.605 83.3182C306.548 86.0138 288.948 112.584 294.43 113.161Z" fill="#984957"/>
<path d="M349.44 79.7565C353.767 79.7565 357.615 79.8526 358.095 80.4304C359.153 81.7783 358.288 83.222 356.749 83.1261C355.98 82.7411 352.229 82.6441 347.998 82.6441C347.324 83.8959 346.747 85.1477 346.266 86.3026C341.072 98.1439 334.244 114.797 340.976 112.584C344.534 111.428 357.037 95.7372 359.826 91.8858C360.692 91.2119 362.23 91.6939 361.75 93.3306C360.115 96.8921 348.574 113.065 343.574 115.471C340.11 117.108 332.802 115.471 332.033 110.177C331.359 105.46 333.955 97.181 341.361 82.7411C338.283 82.7411 335.879 82.8371 335.206 82.8371C333.283 82.8371 333.571 80.5265 335.591 79.7565C336.264 79.9485 339.246 79.9485 342.803 79.8526C348.478 68.9741 351.075 65.1237 351.651 63.198C353.479 61.8512 357.133 63.969 356.653 66.0866C356.171 68.2042 352.709 73.6915 349.44 79.7565Z" fill="#984957"/>
<path d="M372.232 80.0455C365.693 93.5225 361.172 102.764 360.595 104.112C361.749 102.475 378.579 80.7194 383.772 79.2746C388.485 78.0238 392.332 83.4149 391.082 86.8805C388.389 94.3894 378.579 113.354 384.254 112.68C387.331 112.295 392.813 107.289 397.526 100.646C398.775 99.2986 399.737 100.838 399.064 101.994C397.717 105.267 394.255 112.391 389.254 115.375C384.927 117.975 376.752 114.027 376.175 109.503C375.694 100.551 387.042 84.4739 384.349 84.281C379.348 83.896 359.152 111.525 358.191 114.412C355.498 116.915 350.785 112.969 351.459 110.466C352.805 105.653 357.421 96.699 365.789 79.7567C370.789 69.4563 375.694 59.3478 375.886 57.711C378.099 56.2672 382.041 58.6739 381.561 60.9846C381.08 62.7173 378.964 66.1826 372.232 80.0455Z" fill="#984957"/>
<path d="M18.6445 27.1287C18.9903 28.503 20.057 29.4853 21.4282 29.6922C31.277 30.6169 48.2707 35.7437 55.6518 43.6608C52.7107 38.2336 48.4229 33.0615 42.8915 28.2715C37.3851 23.4923 32.0836 20.3473 28.1494 18.0774C25.1139 19.7149 22.335 21.5199 19.8883 23.4436C18.7703 24.3232 18.2937 25.7352 18.6445 27.1287Z" fill="#B86F74"/>
<path d="M27.4794 13.4208C27.3472 14.8425 28.0255 16.1478 29.2498 16.8275C37.769 21.5526 52.8442 31.7396 59.065 47.2783C59.6298 40.3614 58.4239 32.8851 55.4763 25.0423C52.766 17.8307 49.0522 11.6317 46.3925 7.67493C40.3824 7.88962 34.8191 8.81004 29.8555 10.411C28.5221 10.8407 27.6117 11.9939 27.4794 13.4208Z" fill="#B86F74"/>
<path d="M72.3459 21.6655C74.9011 15.1575 72.9042 8.34755 67.4822 5.70637C61.6156 2.8488 55.8215 0.96878 50.2724 0.0451078C48.9201 -0.179906 47.5696 0.44917 46.8457 1.65825C46.1177 2.87411 46.1601 4.3519 46.9649 5.51968C52.8765 14.0972 62.4796 31.0999 60.3647 48.605C60.2739 49.2743 61.2248 49.5799 61.4919 48.906L72.3459 21.6655Z" fill="#B86F74"/>
<path d="M252.136 137.152H253.409L258.984 150.411H257.599L256.159 146.89H249.143L247.647 150.411H246.355L252.136 137.152ZM252.716 138.5L249.63 145.767H255.709L252.716 138.5Z" fill="#B86F74"/>
<path d="M262.763 137.152H266.578C267.078 137.152 267.583 137.193 268.095 137.273C268.606 137.355 269.065 137.524 269.47 137.779C269.875 138.035 270.206 138.391 270.462 138.846C270.717 139.303 270.845 139.905 270.845 140.653C270.845 141.328 270.645 141.915 270.246 142.414C269.847 142.914 269.254 143.245 268.469 143.406V143.445C268.906 143.481 269.304 143.584 269.666 143.754C270.028 143.922 270.341 144.146 270.601 144.427C270.864 144.708 271.066 145.042 271.209 145.43C271.354 145.817 271.425 146.241 271.425 146.703C271.425 147.465 271.277 148.087 270.985 148.565C270.693 149.048 270.324 149.425 269.882 149.699C269.439 149.974 268.959 150.162 268.44 150.261C267.924 150.361 267.44 150.411 266.99 150.411H262.763L262.763 137.152ZM263.997 142.883H266.56C267.196 142.883 267.714 142.805 268.113 142.648C268.511 142.492 268.824 142.302 269.048 142.078C269.272 141.852 269.423 141.612 269.498 141.356C269.573 141.1 269.609 140.866 269.609 140.653C269.609 140.193 269.531 139.808 269.375 139.503C269.219 139.197 269.011 138.952 268.749 138.771C268.487 138.591 268.181 138.463 267.832 138.389C267.483 138.312 267.115 138.276 266.729 138.276H263.997L263.997 142.883ZM263.997 149.287H266.822C267.545 149.287 268.128 149.201 268.571 149.024C269.015 148.85 269.354 148.632 269.591 148.369C269.829 148.108 269.987 147.831 270.068 147.536C270.149 147.244 270.189 146.978 270.189 146.74C270.189 146.253 270.096 145.835 269.908 145.486C269.722 145.136 269.478 144.853 269.179 144.633C268.88 144.416 268.54 144.256 268.159 144.156C267.779 144.056 267.395 144.007 267.01 144.007H263.997L263.997 149.287Z" fill="#B86F74"/>
<path d="M275.559 143.782C275.559 142.77 275.728 141.84 276.066 140.991C276.401 140.143 276.87 139.408 277.467 138.791C278.067 138.173 278.788 137.689 279.628 137.339C280.47 136.99 281.397 136.814 282.407 136.814C283.417 136.814 284.344 136.99 285.186 137.339C286.028 137.689 286.747 138.173 287.347 138.791C287.945 139.408 288.413 140.143 288.75 140.991C289.086 141.84 289.255 142.77 289.255 143.782C289.255 144.793 289.086 145.726 288.75 146.582C288.413 147.436 287.945 148.173 287.347 148.791C286.747 149.408 286.028 149.89 285.186 150.233C284.344 150.575 283.417 150.748 282.407 150.748C281.397 150.748 280.47 150.575 279.628 150.233C278.788 149.89 278.067 149.408 277.467 148.791C276.87 148.173 276.401 147.436 276.066 146.582C275.728 145.726 275.559 144.793 275.559 143.782ZM276.795 143.782C276.795 144.605 276.926 145.373 277.187 146.085C277.449 146.796 277.823 147.415 278.31 147.938C278.796 148.464 279.386 148.874 280.079 149.175C280.769 149.475 281.547 149.624 282.407 149.624C283.267 149.624 284.045 149.475 284.736 149.175C285.428 148.874 286.018 148.464 286.505 147.938C286.991 147.415 287.365 146.796 287.628 146.085C287.888 145.373 288.019 144.605 288.019 143.782C288.019 142.957 287.888 142.189 287.628 141.478C287.365 140.766 286.991 140.148 286.505 139.624C286.018 139.1 285.428 138.688 284.736 138.389C284.045 138.088 283.267 137.938 282.407 137.938C281.547 137.938 280.769 138.088 280.079 138.389C279.386 138.688 278.796 139.1 278.31 139.624C277.823 140.148 277.449 140.766 277.187 141.478C276.926 142.189 276.795 142.957 276.795 143.782Z" fill="#B86F74"/>
<path d="M303.303 145.335C303.303 146.047 303.222 146.728 303.061 147.377C302.898 148.027 302.627 148.6 302.247 149.101C301.867 149.6 301.368 149.999 300.75 150.298C300.133 150.599 299.375 150.749 298.477 150.749C297.58 150.749 296.821 150.599 296.204 150.298C295.587 149.999 295.088 149.6 294.708 149.101C294.326 148.601 294.055 148.027 293.894 147.377C293.731 146.728 293.65 146.047 293.65 145.335V137.152H294.886V145.018C294.886 145.491 294.929 145.999 295.015 146.534C295.103 147.071 295.274 147.571 295.53 148.032C295.786 148.494 296.148 148.875 296.616 149.176C297.083 149.475 297.704 149.625 298.477 149.625C299.251 149.625 299.87 149.475 300.338 149.176C300.807 148.875 301.167 148.494 301.423 148.032C301.679 147.571 301.852 147.071 301.938 146.534C302.026 145.999 302.069 145.491 302.069 145.018V137.152H303.303L303.303 145.335Z" fill="#B86F74"/>
<path d="M311.498 138.276H306.971V137.152H317.26V138.276H312.733V150.411H311.498V138.276Z" fill="#B86F74"/>
<path d="M338.813 148.333C338.177 149.194 337.439 149.812 336.604 150.186C335.768 150.56 334.865 150.748 333.891 150.748C332.882 150.748 331.955 150.575 331.113 150.233C330.272 149.89 329.551 149.408 328.952 148.791C328.354 148.173 327.885 147.436 327.55 146.582C327.213 145.726 327.043 144.793 327.043 143.782C327.043 142.77 327.213 141.84 327.55 140.991C327.885 140.143 328.354 139.408 328.952 138.791C329.551 138.173 330.272 137.689 331.113 137.339C331.955 136.99 332.882 136.814 333.891 136.814C334.79 136.814 335.629 136.974 336.408 137.293C337.187 137.61 337.869 138.144 338.457 138.894L337.446 139.737C337.034 139.112 336.507 138.656 335.865 138.369C335.223 138.083 334.566 137.938 333.891 137.938C333.031 137.938 332.254 138.088 331.563 138.389C330.87 138.688 330.281 139.1 329.794 139.624C329.307 140.148 328.934 140.766 328.671 141.478C328.41 142.189 328.279 142.957 328.279 143.782C328.279 144.605 328.41 145.373 328.671 146.084C328.933 146.796 329.307 147.414 329.794 147.938C330.28 148.464 330.87 148.874 331.563 149.175C332.254 149.474 333.031 149.624 333.891 149.624C334.229 149.624 334.577 149.584 334.939 149.503C335.302 149.421 335.654 149.296 335.996 149.127C336.34 148.959 336.667 148.746 336.979 148.49C337.29 148.236 337.566 147.927 337.801 147.564L338.813 148.333Z" fill="#B86F74"/>
<path d="M342.948 137.152H351.049V138.276H344.183V142.994H350.619V144.118H344.183V149.287H351.348V150.411H342.948V137.152Z" fill="#B86F74"/>
<path d="M355.912 137.152H357.146V149.287H363.32V150.411H355.912L355.912 137.152Z" fill="#B86F74"/>
<path d="M367.139 137.152H368.373V149.287H374.546V150.411H367.138L367.139 137.152Z" fill="#B86F74"/>
<path d="M387.772 145.335C387.772 146.047 387.691 146.728 387.53 147.377C387.367 148.027 387.096 148.6 386.716 149.101C386.336 149.6 385.837 149.999 385.22 150.298C384.602 150.599 383.844 150.749 382.946 150.749C382.049 150.749 381.29 150.599 380.674 150.298C380.056 149.999 379.557 149.6 379.177 149.101C378.795 148.601 378.524 148.027 378.363 147.377C378.2 146.728 378.119 146.047 378.119 145.335V137.152H379.355V145.018C379.355 145.491 379.398 145.999 379.484 146.534C379.572 147.071 379.743 147.571 379.999 148.032C380.255 148.494 380.617 148.875 381.085 149.176C381.552 149.475 382.173 149.625 382.946 149.625C383.72 149.625 384.339 149.475 384.808 149.176C385.276 148.875 385.636 148.494 385.892 148.032C386.148 147.571 386.321 147.071 386.407 146.534C386.495 145.999 386.538 145.491 386.538 145.018V137.152H387.772L387.772 145.335Z" fill="#B86F74"/>
<path d="M393.029 137.152H394.263V149.287H400.437V150.411H393.029L393.029 137.152Z" fill="#B86F74"/>
<path d="M404.256 137.152H405.49V150.411H404.256V137.152Z" fill="#B86F74"/>
<path d="M413.927 138.276H409.4V137.152H419.689V138.276H415.161V150.411H413.927V138.276Z" fill="#B86F74"/>
<path d="M423.601 137.152H431.701V138.276H424.835V142.994H431.271V144.118H424.835V149.287H432V150.411H423.601V137.152Z" fill="#B86F74"/>
</g>
<defs>
<clipPath id="clip0_5063_932">
<rect width="432" height="150.748" fill="white"/>
</clipPath>
</defs>
</svg>
