<svg width="272" height="273" viewBox="0 0 272 273" fill="none" xmlns="http://www.w3.org/2000/svg">
<rect x="5" y="5.74841" width="262" height="262" rx="131" fill="#D0A0A0"/>
<rect x="5" y="5.74841" width="262" height="262" rx="131" stroke="#984957" stroke-width="10"/>
<path d="M119.408 49.7884C119.288 50.6284 119.048 51.4017 118.688 52.1084C118.341 52.8151 117.881 53.4284 117.308 53.9484C116.734 54.4684 116.054 54.8751 115.268 55.1684C114.481 55.4617 113.601 55.6084 112.628 55.6084C111.641 55.6084 110.794 55.4617 110.088 55.1684C109.381 54.8751 108.814 54.4684 108.388 53.9484C107.961 53.4284 107.668 52.8151 107.508 52.1084C107.361 51.4017 107.348 50.6284 107.468 49.7884L108.688 41.0884H111.808L110.608 49.6684C110.541 50.1084 110.548 50.5151 110.628 50.8884C110.721 51.2617 110.874 51.5884 111.088 51.8684C111.314 52.1351 111.588 52.3484 111.908 52.5084C112.241 52.6551 112.614 52.7284 113.028 52.7284C113.441 52.7284 113.828 52.6551 114.188 52.5084C114.561 52.3484 114.894 52.1351 115.188 51.8684C115.481 51.5884 115.721 51.2617 115.908 50.8884C116.108 50.5151 116.241 50.1084 116.308 49.6684L117.508 41.0884H120.628L119.408 49.7884ZM123.512 41.0884H128.772C129.505 41.0884 130.185 41.1551 130.812 41.2884C131.452 41.4217 131.992 41.6551 132.432 41.9884C132.872 42.3084 133.198 42.7484 133.412 43.3084C133.625 43.8551 133.672 44.5484 133.552 45.3884C133.432 46.2151 133.198 46.9084 132.852 47.4684C132.505 48.0284 132.072 48.4751 131.552 48.8084C131.045 49.1417 130.458 49.3817 129.792 49.5284C129.138 49.6617 128.438 49.7284 127.692 49.7284H125.412L124.652 55.2484H121.532L123.512 41.0884ZM125.792 47.0884H127.872C128.152 47.0884 128.425 47.0617 128.692 47.0084C128.958 46.9551 129.205 46.8684 129.432 46.7484C129.658 46.6151 129.852 46.4417 130.012 46.2284C130.172 46.0017 130.272 45.7217 130.312 45.3884C130.365 45.0284 130.318 44.7417 130.172 44.5284C130.038 44.3017 129.845 44.1284 129.592 44.0084C129.352 43.8884 129.072 43.8151 128.752 43.7884C128.445 43.7484 128.145 43.7284 127.852 43.7284H126.252L125.792 47.0884ZM144.387 43.8484H140.347L140.727 41.0884H151.927L151.547 43.8484H147.507L145.907 55.2484H142.787L144.387 43.8484ZM151.752 48.1684C151.912 47.0351 152.245 46.0084 152.752 45.0884C153.272 44.1684 153.912 43.3884 154.672 42.7484C155.445 42.0951 156.325 41.5951 157.312 41.2484C158.298 40.9017 159.345 40.7284 160.452 40.7284C161.558 40.7284 162.552 40.9017 163.432 41.2484C164.312 41.5951 165.045 42.0951 165.632 42.7484C166.218 43.3884 166.638 44.1684 166.892 45.0884C167.145 46.0084 167.192 47.0351 167.032 48.1684C166.872 49.3017 166.538 50.3284 166.032 51.2484C165.525 52.1684 164.885 52.9551 164.112 53.6084C163.338 54.2484 162.458 54.7417 161.472 55.0884C160.498 55.4351 159.458 55.6084 158.352 55.6084C157.245 55.6084 156.245 55.4351 155.352 55.0884C154.472 54.7417 153.738 54.2484 153.152 53.6084C152.565 52.9551 152.145 52.1684 151.892 51.2484C151.638 50.3284 151.592 49.3017 151.752 48.1684ZM154.992 48.1684C154.898 48.8351 154.918 49.4484 155.052 50.0084C155.185 50.5551 155.412 51.0351 155.732 51.4484C156.065 51.8484 156.485 52.1617 156.992 52.3884C157.498 52.6151 158.085 52.7284 158.752 52.7284C159.418 52.7284 160.038 52.6151 160.612 52.3884C161.185 52.1617 161.692 51.8484 162.132 51.4484C162.572 51.0351 162.932 50.5551 163.212 50.0084C163.505 49.4484 163.698 48.8351 163.792 48.1684C163.885 47.5151 163.865 46.9084 163.732 46.3484C163.612 45.7884 163.385 45.3084 163.052 44.9084C162.718 44.4951 162.298 44.1751 161.792 43.9484C161.285 43.7217 160.698 43.6084 160.032 43.6084C159.365 43.6084 158.745 43.7217 158.172 43.9484C157.598 44.1751 157.092 44.4951 156.652 44.9084C156.212 45.3084 155.845 45.7884 155.552 46.3484C155.272 46.9084 155.085 47.5151 154.992 48.1684Z" fill="white"/>
<path d="M70.8439 110.984C70.1399 111.16 69.4359 111.307 68.7319 111.424C68.0279 111.542 67.2946 111.6 66.5319 111.6C63.5986 111.6 60.9292 111.072 58.5239 110.016C56.1186 108.96 54.0652 107.523 52.3639 105.704C50.6626 103.886 49.3426 101.744 48.4039 99.2804C47.4652 96.7577 46.9959 94.0884 46.9959 91.2724C46.9959 88.0457 47.5826 85.1417 48.7559 82.5604C49.9879 79.9204 51.6306 77.6617 53.6839 75.7844C55.7959 73.9071 58.2599 72.4697 61.0759 71.4724C63.8919 70.4164 66.9426 69.8884 70.2279 69.8884C73.4546 69.8884 76.4759 70.4164 79.2919 71.4724C82.1666 72.4697 84.6306 73.9071 86.6839 75.7844C88.7959 77.6617 90.4386 79.9204 91.6119 82.5604C92.8439 85.1417 93.4599 88.0457 93.4599 91.2724C93.4599 93.5017 93.2546 95.5551 92.8439 97.4324C92.4332 99.2511 91.8759 100.982 91.1719 102.624C90.5266 104.267 89.7346 105.851 88.7959 107.376C87.9159 108.843 86.9772 110.368 85.9799 111.952L72.3399 133.248H56.2359L70.8439 110.984ZM60.1959 91.8004C60.1959 94.6164 61.1052 96.9631 62.9239 98.8404C64.8012 100.659 67.2359 101.568 70.2279 101.568C73.2199 101.568 75.6252 100.659 77.4439 98.8404C79.3212 96.9631 80.2599 94.6164 80.2599 91.8004C80.2599 88.9844 79.3212 86.6671 77.4439 84.8484C75.6252 82.9711 73.2199 82.0324 70.2279 82.0324C67.2359 82.0324 64.8012 82.9711 62.9239 84.8484C61.1052 86.6671 60.1959 88.9844 60.1959 91.8004ZM98.986 102.096C98.986 98.4004 99.3087 94.6457 99.954 90.8324C100.658 87.0191 101.861 83.5577 103.562 80.4484C105.322 77.3391 107.698 74.8164 110.69 72.8804C113.682 70.8857 117.495 69.8884 122.13 69.8884C126.765 69.8884 130.578 70.8857 133.57 72.8804C136.562 74.8164 138.909 77.3391 140.61 80.4484C142.37 83.5577 143.573 87.0191 144.218 90.8324C144.922 94.6457 145.274 98.4004 145.274 102.096C145.274 105.792 144.922 109.547 144.218 113.36C143.573 117.174 142.37 120.635 140.61 123.744C138.909 126.854 136.562 129.406 133.57 131.4C130.578 133.336 126.765 134.304 122.13 134.304C117.495 134.304 113.682 133.336 110.69 131.4C107.698 129.406 105.322 126.854 103.562 123.744C101.861 120.635 100.658 117.174 99.954 113.36C99.3087 109.547 98.986 105.792 98.986 102.096ZM112.186 102.096C112.186 103.739 112.245 105.704 112.362 107.992C112.538 110.28 112.949 112.48 113.594 114.592C114.239 116.704 115.207 118.494 116.498 119.96C117.847 121.427 119.725 122.16 122.13 122.16C124.477 122.16 126.325 121.427 127.674 119.96C129.023 118.494 130.021 116.704 130.666 114.592C131.311 112.48 131.693 110.28 131.81 107.992C131.986 105.704 132.074 103.739 132.074 102.096C132.074 100.454 131.986 98.4884 131.81 96.2004C131.693 93.9124 131.311 91.7124 130.666 89.6004C130.021 87.4884 129.023 85.6991 127.674 84.2324C126.325 82.7657 124.477 82.0324 122.13 82.0324C119.725 82.0324 117.847 82.7657 116.498 84.2324C115.207 85.6991 114.239 87.4884 113.594 89.6004C112.949 91.7124 112.538 93.9124 112.362 96.2004C112.245 98.4884 112.186 100.454 112.186 102.096ZM192.864 116.792C192.864 114.387 193.304 112.128 194.184 110.016C195.123 107.904 196.355 106.056 197.88 104.472C199.464 102.888 201.312 101.656 203.424 100.776C205.536 99.8377 207.795 99.3684 210.2 99.3684C212.605 99.3684 214.864 99.8377 216.976 100.776C219.088 101.656 220.907 102.888 222.432 104.472C224.016 106.056 225.248 107.904 226.128 110.016C227.067 112.128 227.536 114.387 227.536 116.792C227.536 119.198 227.067 121.486 226.128 123.656C225.248 125.768 224.016 127.616 222.432 129.2C220.907 130.784 219.088 132.046 216.976 132.984C214.864 133.864 212.605 134.304 210.2 134.304C207.795 134.304 205.536 133.864 203.424 132.984C201.312 132.046 199.464 130.784 197.88 129.2C196.355 127.616 195.123 125.768 194.184 123.656C193.304 121.486 192.864 119.198 192.864 116.792ZM218.56 116.792C218.56 114.446 217.739 112.451 216.096 110.808C214.512 109.166 212.547 108.344 210.2 108.344C207.853 108.344 205.859 109.166 204.216 110.808C202.632 112.451 201.84 114.446 201.84 116.792C201.84 119.198 202.632 121.222 204.216 122.864C205.859 124.507 207.853 125.328 210.2 125.328C212.547 125.328 214.512 124.507 216.096 122.864C217.739 121.222 218.56 119.198 218.56 116.792ZM148.6 87.3124C148.6 84.9071 149.04 82.6484 149.92 80.5364C150.859 78.4244 152.091 76.5764 153.616 74.9924C155.2 73.4084 157.048 72.1764 159.16 71.2964C161.272 70.3577 163.531 69.8884 165.936 69.8884C168.341 69.8884 170.6 70.3577 172.712 71.2964C174.824 72.1764 176.643 73.4084 178.168 74.9924C179.752 76.5764 180.984 78.4244 181.864 80.5364C182.803 82.6484 183.272 84.9071 183.272 87.3124C183.272 89.7177 182.803 91.9764 181.864 94.0884C180.984 96.2004 179.752 98.0484 178.168 99.6324C176.643 101.216 174.824 102.478 172.712 103.416C170.6 104.296 168.341 104.736 165.936 104.736C163.531 104.736 161.272 104.296 159.16 103.416C157.048 102.478 155.2 101.216 153.616 99.6324C152.091 98.0484 150.859 96.2004 149.92 94.0884C149.04 91.9764 148.6 89.7177 148.6 87.3124ZM174.296 87.3124C174.296 84.9657 173.475 82.9711 171.832 81.3284C170.248 79.6857 168.283 78.8644 165.936 78.8644C163.589 78.8644 161.595 79.6857 159.952 81.3284C158.368 82.9711 157.576 84.9657 157.576 87.3124C157.576 89.6591 158.368 91.6537 159.952 93.2964C161.595 94.9391 163.589 95.7604 165.936 95.7604C168.283 95.7604 170.248 94.9391 171.832 93.2964C173.475 91.6537 174.296 89.6591 174.296 87.3124ZM202.28 68.1284L209.672 72.2644L173.328 136.064L166.64 132.28L202.28 68.1284Z" fill="#984957"/>
<path d="M47.8843 159.628C47.8843 157.928 48.1643 156.388 48.7243 155.008C49.3043 153.628 50.1043 152.458 51.1243 151.498C52.1443 150.518 53.3543 149.768 54.7543 149.248C56.1543 148.728 57.6843 148.468 59.3443 148.468C61.0043 148.468 62.5343 148.728 63.9343 149.248C65.3343 149.768 66.5443 150.518 67.5643 151.498C68.5843 152.458 69.3743 153.628 69.9343 155.008C70.5143 156.388 70.8043 157.928 70.8043 159.628C70.8043 161.328 70.5143 162.868 69.9343 164.248C69.3743 165.628 68.5843 166.808 67.5643 167.788C66.5443 168.748 65.3343 169.488 63.9343 170.008C62.5343 170.528 61.0043 170.788 59.3443 170.788C57.6843 170.788 56.1543 170.528 54.7543 170.008C53.3543 169.488 52.1443 168.748 51.1243 167.788C50.1043 166.808 49.3043 165.628 48.7243 164.248C48.1643 162.868 47.8843 161.328 47.8843 159.628ZM52.7443 159.628C52.7443 160.628 52.8943 161.548 53.1943 162.388C53.5143 163.208 53.9643 163.928 54.5443 164.548C55.1243 165.148 55.8143 165.618 56.6143 165.958C57.4343 166.298 58.3443 166.468 59.3443 166.468C60.3443 166.468 61.2443 166.298 62.0443 165.958C62.8643 165.618 63.5643 165.148 64.1443 164.548C64.7243 163.928 65.1643 163.208 65.4643 162.388C65.7843 161.548 65.9443 160.628 65.9443 159.628C65.9443 158.648 65.7843 157.738 65.4643 156.898C65.1643 156.058 64.7243 155.338 64.1443 154.738C63.5643 154.118 62.8643 153.638 62.0443 153.298C61.2443 152.958 60.3443 152.788 59.3443 152.788C58.3443 152.788 57.4343 152.958 56.6143 153.298C55.8143 153.638 55.1243 154.118 54.5443 154.738C53.9643 155.338 53.5143 156.058 53.1943 156.898C52.8943 157.738 52.7443 158.648 52.7443 159.628ZM74.1652 149.008H88.4152V153.328H78.8452V157.648H87.6952V161.968H78.8452V170.248H74.1652V149.008ZM98.4254 149.008H103.525L106.915 162.628H106.975L111.415 149.008H115.765L120.175 162.988H120.235L123.805 149.008H128.545L122.335 170.248H118.165L113.485 155.548H113.425L108.745 170.248H104.725L98.4254 149.008ZM129.505 159.628C129.505 157.928 129.785 156.388 130.345 155.008C130.925 153.628 131.725 152.458 132.745 151.498C133.765 150.518 134.975 149.768 136.375 149.248C137.775 148.728 139.305 148.468 140.965 148.468C142.625 148.468 144.155 148.728 145.555 149.248C146.955 149.768 148.165 150.518 149.185 151.498C150.205 152.458 150.995 153.628 151.555 155.008C152.135 156.388 152.425 157.928 152.425 159.628C152.425 161.328 152.135 162.868 151.555 164.248C150.995 165.628 150.205 166.808 149.185 167.788C148.165 168.748 146.955 169.488 145.555 170.008C144.155 170.528 142.625 170.788 140.965 170.788C139.305 170.788 137.775 170.528 136.375 170.008C134.975 169.488 133.765 168.748 132.745 167.788C131.725 166.808 130.925 165.628 130.345 164.248C129.785 162.868 129.505 161.328 129.505 159.628ZM134.365 159.628C134.365 160.628 134.515 161.548 134.815 162.388C135.135 163.208 135.585 163.928 136.165 164.548C136.745 165.148 137.435 165.618 138.235 165.958C139.055 166.298 139.965 166.468 140.965 166.468C141.965 166.468 142.865 166.298 143.665 165.958C144.485 165.618 145.185 165.148 145.765 164.548C146.345 163.928 146.785 163.208 147.085 162.388C147.405 161.548 147.565 160.628 147.565 159.628C147.565 158.648 147.405 157.738 147.085 156.898C146.785 156.058 146.345 155.338 145.765 154.738C145.185 154.118 144.485 153.638 143.665 153.298C142.865 152.958 141.965 152.788 140.965 152.788C139.965 152.788 139.055 152.958 138.235 153.298C137.435 153.638 136.745 154.118 136.165 154.738C135.585 155.338 135.135 156.058 134.815 156.898C134.515 157.738 134.365 158.648 134.365 159.628ZM155.606 149.008H162.686L167.576 162.868H167.636L172.556 149.008H179.606V170.248H174.926V153.958H174.866L169.286 170.248H165.716L160.346 153.958H160.286V170.248H155.606V149.008ZM184.116 149.008H198.546V153.328H188.796V157.288H198.006V161.608H188.796V165.928H199.086V170.248H184.116V149.008ZM202.833 149.008H209.193L218.223 163.768H218.283V149.008H222.963V170.248H216.843L207.573 155.128H207.513V170.248H202.833V149.008Z" fill="#984957"/>
<path d="M77.2943 194.089H79.4743L83.5943 208.249H80.7143L79.8343 205.009H73.6943L71.9743 208.249H69.1543L77.2943 194.089ZM79.2543 202.849L77.8943 197.089L74.8543 202.849H79.2543ZM87.1479 194.089H96.2879L95.9679 196.369H89.3479L88.8279 200.089H95.0679L94.7479 202.369H88.5079L87.6879 208.249H85.1679L87.1479 194.089ZM98.6323 194.089H107.772L107.452 196.369H100.832L100.312 200.089H106.552L106.232 202.369H99.9923L99.1723 208.249H96.6523L98.6323 194.089ZM110.117 194.089H119.497L119.177 196.369H112.317L111.837 199.849H118.337L118.017 202.129H111.517L110.977 205.969H118.197L117.877 208.249H108.137L110.117 194.089ZM131.603 197.409C131.15 196.849 130.697 196.475 130.243 196.289C129.79 196.102 129.317 196.009 128.823 196.009C128.09 196.009 127.403 196.142 126.763 196.409C126.137 196.662 125.577 197.022 125.083 197.489C124.59 197.942 124.183 198.475 123.863 199.089C123.543 199.702 123.337 200.362 123.243 201.069C123.137 201.829 123.15 202.529 123.283 203.169C123.43 203.809 123.683 204.362 124.043 204.829C124.403 205.295 124.863 205.662 125.423 205.929C125.983 206.195 126.63 206.329 127.363 206.329C127.937 206.329 128.51 206.195 129.083 205.929C129.657 205.649 130.223 205.209 130.783 204.609L132.663 206.089C131.89 206.969 131.017 207.609 130.043 208.009C129.07 208.409 128.063 208.609 127.023 208.609C125.93 208.609 124.95 208.435 124.083 208.089C123.217 207.729 122.497 207.229 121.923 206.589C121.363 205.935 120.957 205.155 120.703 204.249C120.463 203.342 120.423 202.335 120.583 201.229C120.743 200.095 121.07 199.069 121.563 198.149C122.07 197.215 122.697 196.422 123.443 195.769C124.203 195.115 125.063 194.615 126.023 194.269C126.997 193.909 128.03 193.729 129.123 193.729C130.083 193.729 130.943 193.902 131.703 194.249C132.477 194.582 133.163 195.155 133.763 195.969L131.603 197.409ZM138.615 196.369H134.275L134.595 194.089H145.795L145.475 196.369H141.135L139.475 208.249H136.955L138.615 196.369ZM147.519 194.089H156.899L156.579 196.369H149.719L149.239 199.849H155.739L155.419 202.129H148.919L148.379 205.969H155.599L155.279 208.249H145.539L147.519 194.089ZM159.746 194.089H165.326C166.259 194.089 167.139 194.235 167.966 194.529C168.792 194.809 169.492 195.242 170.066 195.829C170.652 196.415 171.086 197.155 171.366 198.049C171.646 198.929 171.699 199.969 171.526 201.169C171.352 202.382 170.972 203.435 170.386 204.329C169.799 205.209 169.106 205.942 168.306 206.529C167.506 207.102 166.639 207.535 165.706 207.829C164.786 208.109 163.899 208.249 163.046 208.249H157.766L159.746 194.089ZM162.486 205.969C163.272 205.969 164.026 205.882 164.746 205.709C165.466 205.522 166.112 205.242 166.686 204.869C167.259 204.482 167.739 203.989 168.126 203.389C168.512 202.775 168.766 202.035 168.886 201.169C169.006 200.315 168.972 199.582 168.786 198.969C168.612 198.355 168.312 197.862 167.886 197.489C167.472 197.102 166.952 196.822 166.326 196.649C165.712 196.462 165.019 196.369 164.246 196.369H161.946L160.606 205.969H162.486ZM180.839 194.089H186.359C186.893 194.089 187.406 194.155 187.899 194.289C188.406 194.409 188.846 194.615 189.219 194.909C189.593 195.189 189.873 195.555 190.059 196.009C190.246 196.462 190.293 197.009 190.199 197.649C190.093 198.449 189.773 199.109 189.239 199.629C188.706 200.149 188.059 200.522 187.299 200.749V200.789C187.739 200.842 188.133 200.969 188.479 201.169C188.826 201.355 189.113 201.602 189.339 201.909C189.579 202.202 189.746 202.549 189.839 202.949C189.933 203.335 189.946 203.755 189.879 204.209C189.773 204.982 189.526 205.629 189.139 206.149C188.766 206.655 188.306 207.069 187.759 207.389C187.213 207.695 186.606 207.915 185.939 208.049C185.286 208.182 184.626 208.249 183.959 208.249H178.859L180.839 194.089ZM182.559 199.849H184.859C185.699 199.849 186.353 199.689 186.819 199.369C187.286 199.035 187.553 198.602 187.619 198.069C187.713 197.455 187.559 197.002 187.159 196.709C186.773 196.402 186.099 196.249 185.139 196.249H183.059L182.559 199.849ZM181.679 206.089H183.999C184.319 206.089 184.666 206.069 185.039 206.029C185.413 205.989 185.759 205.895 186.079 205.749C186.399 205.602 186.679 205.395 186.919 205.129C187.159 204.849 187.313 204.475 187.379 204.009C187.486 203.262 187.313 202.742 186.859 202.449C186.419 202.155 185.686 202.009 184.659 202.009H182.239L181.679 206.089ZM196.128 202.189L191.948 194.089H195.108L197.788 199.729L202.108 194.089H205.108L198.648 202.189L197.808 208.249H195.288L196.128 202.189ZM98.4489 221.409C97.9956 220.849 97.5422 220.475 97.0889 220.289C96.6356 220.102 96.1622 220.009 95.6689 220.009C94.9356 220.009 94.2489 220.142 93.6089 220.409C92.9822 220.662 92.4222 221.022 91.9289 221.489C91.4356 221.942 91.0289 222.475 90.7089 223.089C90.3889 223.702 90.1822 224.362 90.0889 225.069C89.9822 225.829 89.9956 226.529 90.1289 227.169C90.2756 227.809 90.5289 228.362 90.8889 228.829C91.2489 229.295 91.7089 229.662 92.2689 229.929C92.8289 230.195 93.4756 230.329 94.2089 230.329C94.7822 230.329 95.3556 230.195 95.9289 229.929C96.5022 229.649 97.0689 229.209 97.6289 228.609L99.5089 230.089C98.7356 230.969 97.8622 231.609 96.8889 232.009C95.9156 232.409 94.9089 232.609 93.8689 232.609C92.7756 232.609 91.7956 232.435 90.9289 232.089C90.0622 231.729 89.3422 231.229 88.7689 230.589C88.2089 229.935 87.8022 229.155 87.5489 228.249C87.3089 227.342 87.2689 226.335 87.4289 225.229C87.5889 224.095 87.9156 223.069 88.4089 222.149C88.9156 221.215 89.5422 220.422 90.2889 219.769C91.0489 219.115 91.9089 218.615 92.8689 218.269C93.8422 217.909 94.8756 217.729 95.9689 217.729C96.9289 217.729 97.7889 217.902 98.5489 218.249C99.3222 218.582 100.009 219.155 100.609 219.969L98.4489 221.409ZM102.88 218.089H112.26L111.94 220.369H105.08L104.6 223.849H111.1L110.78 226.129H104.28L103.74 229.969H110.96L110.64 232.249H100.9L102.88 218.089ZM115.107 218.089H117.627L115.967 229.969H121.987L121.667 232.249H113.127L115.107 218.089ZM125.478 218.089H127.998L126.338 229.969H132.358L132.038 232.249H123.498L125.478 218.089ZM145.929 227.049C145.809 227.902 145.556 228.675 145.169 229.369C144.782 230.049 144.296 230.629 143.709 231.109C143.136 231.589 142.482 231.962 141.749 232.229C141.029 232.482 140.262 232.609 139.449 232.609C138.636 232.609 137.896 232.482 137.229 232.229C136.576 231.962 136.029 231.589 135.589 231.109C135.149 230.629 134.829 230.049 134.629 229.369C134.442 228.675 134.409 227.902 134.529 227.049L135.789 218.089H138.309L137.069 226.969C137.016 227.315 137.016 227.682 137.069 228.069C137.122 228.442 137.249 228.789 137.449 229.109C137.649 229.429 137.936 229.695 138.309 229.909C138.696 230.109 139.189 230.209 139.789 230.209C140.389 230.209 140.909 230.109 141.349 229.909C141.789 229.695 142.149 229.429 142.429 229.109C142.722 228.789 142.949 228.442 143.109 228.069C143.269 227.682 143.376 227.315 143.429 226.969L144.669 218.089H147.189L145.929 227.049ZM150.283 218.089H152.803L151.143 229.969H157.163L156.843 232.249H148.303L150.283 218.089ZM160.594 218.089H163.114L161.134 232.249H158.614L160.594 218.089ZM168.8 220.369H164.46L164.78 218.089H175.98L175.66 220.369H171.32L169.66 232.249H167.14L168.8 220.369ZM177.705 218.089H187.085L186.765 220.369H179.905L179.425 223.849H185.925L185.605 226.129H179.105L178.565 229.969H185.785L185.465 232.249H175.725L177.705 218.089Z" fill="white"/>
</svg>
