<?xml version="1.0" encoding="UTF-8"?><svg id="Ebene_2" xmlns="http://www.w3.org/2000/svg" viewBox="0 0 503.53 503.53"><defs><style>.cls-1{opacity:.99;}.cls-1,.cls-2,.cls-3,.cls-4,.cls-5,.cls-6{fill:#de4621;}.cls-2{opacity:.97;}.cls-3{opacity:.98;}.cls-4{opacity:.94;}.cls-5{opacity:.93;}.cls-7{fill:#1d1d1b;}</style></defs><g id="Layer_1"><path class="cls-6" d="M323.2,202.04c-7-19.9,16.15-34.26,6.82-55.52-9.32-21.28-28.61-5.04-39.29,6.82-11.72-5.27-25.55-7.86-38.22-9.36-12.65-1.49-25.74,7.05-37.3,8.51-11.56,1.46-15.21-18.37-28.39-16.46-13.17,1.92-17.25,18.67-14.06,30.3,3.19,11.64,11.74,22.75,9.73,34.65,7.12-19.28-12.93-30.8-5.39-50.85,7.55-20.03,24.68-1.78,34.61,8.64,25.18-12.11,54.94-11.99,80.09,0,9.91-11.33,28.93-27.44,34.87-6.73,5.94,20.71-15.49,32.32-3.49,50.03Z"/><path class="cls-6" d="M203.06,167.41c-2.16-7.51-8.11-15.89-16.24-17.32,12.5,6.31,9.28,19.16,4.33,29.22,3.79-3.69,6.04-10.08,11.91-11.91Z"/><path class="cls-6" d="M316.7,150.09c-8.12,1.4-14.05,9.81-16.24,17.32,5.8,1.79,8.15,8.16,11.91,11.91-4.9-10.12-8.25-22.83,4.33-29.22Z"/><path class="cls-6" d="M289.64,168.49c-20.92-17.11-54.58-16.93-75.76,0,11.48-2.48,22.69-5.9,34.64-6.49.48,5.57-.64,19.03,0,23.81s-2.64,19.6,3.16,19.4c5.79-.22,2.75-15.76,3.33-20.48s-.44-17.3,0-22.73c11.99.48,23.27,3.79,34.64,6.49Z"/><path class="cls-6" d="M251.76,210.7c-7-7.75-12.67-19.5-23-24.62-10.34-5.12-19.81,4.78-27.06,14.61-7.24,9.84-7.39,23.67-2.74,36.83,4.65,13.15,23.05,10.56,36.56,9.98-4.21,14.35-18.31,23.96-22.73,37.88-12.38-2.36-24.96-18.38-7.58-24.89-18.31,1.41-28.71-16-28.14-32.47-1.92,14.62,3.41,31.99,19.48,34.64-11.43,13.96,8.73,24.89,20.56,25.98,4.99-22.83,34.01-41.63,21.65-68.19,2.01,7.97.22,15.95-1.08,23.81-9.86-1.32-27.73,4.22-32.12-5.76-4.39-9.98-5-21.19-.67-30.28,4.32-9.1,11.29-13.51,19.81-16.99,10.24,9.45,21.91,20.13,25.98,33.55,7.4-10.88,16.52-24.55,28.14-33.55,8.55,3.34,16.18,8.55,20.23,17.65,4.06,9.09,3.12,20.91-1.5,30.3-4.61,9.39-22.18,3.51-31.71,5.09-2.13-7.73-1.54-16.81-2.16-23.81-9.85,27.56,17.27,45.14,22.73,68.19,11.85-1.1,31.98-11.98,20.56-25.98,15.63-2.35,22.77-21.02,18.4-34.64,2.9,17.47-9.63,33.51-27.06,32.47,17.29,6.45,4.94,22.53-7.58,24.89-4.38-13.84-18.52-23.55-22.73-37.88,13.86.93,32.41,2.88,36.88-10.75,4.47-13.63,4.06-26.73-3.41-36.79-7.47-10.04-17.1-18.94-27.3-13.4-10.21,5.54-15.41,15.79-22.4,24.14Z"/><path class="cls-6" d="M227.95,213.95c-2.42-6.22-1.45-17.93-10.74-15.07-9.3,2.86-5.55,12.98,1,15.07-4.47-3.44-6.63-12.47,1.07-12.98,7.71-.51,1.93,10.98,8.67,12.98Z"/><path class="cls-6" d="M284.23,215.03c6.54-2.39,11.32-13.66,1.17-16.31-10.16-2.65-6.91,9.63-10.91,15.23,6.59-1.17,1.75-15.88,10.74-12.9,8.97,2.98,1.58,9.91-1,13.98Z"/><path class="cls-6" d="M185.74,203.12c-10.02,10.34-19.37,23.7-18.4,38.96-9.17-1.87-4.74,6.67-6.53,12.96-1.79,6.3-11.14,4.68-10.79-3.21-5.77,11.32,6.54,18.27,15.42,24.62,8.89,6.35,11.47,20.08,13.8,29.49-.21-2.71.54-5.76,2.16-7.58,11.57,27.04,48.63,4.82,61.69,29.22-6.03-18.67-27.89-15.46-43.29-17.32,3.26-9.22,17.22-8.73,20.56-15.15-6.3,2.61-13.2,2.63-17.64,9.42-4.43,6.79-10.92,2.68-15.64-2.11-4.72-4.79-4.65-18.72-8.93-9.47-.78-15.83-18.13-20.66-25.98-31.39,9.05,4.21,14.91-9.2,10.82-16.24,2.79-2.67,4.89.81,7.58,1.08-4.97-16.45,7.58-30.39,15.15-43.29Z"/><path class="cls-6" d="M336.19,242.09c.87-15.07-8.5-29.52-18.4-38.96,8.05,12.85,19.82,26.99,15.15,43.29,2.72-.04,4.83-3.98,7.58-1.08-4.1,7.02,1.8,20.45,10.82,16.24-3.53,6.43-11.97,10.43-17.59,14.88-5.61,4.46-7.37,20.2-11.64,12.18.1,5.81-8.4,22.18-16.15,20.48-7.75-1.7-12.56-16.01-22.82-13.98,3.41,6.47,17.25,5.9,20.56,15.15-16.35,1.57-37.97-.8-44.38,18.4,6.22-11.27,19.63-15.64,32.47-14.07s24.04-5.86,30.31-16.24c1.79,1.73,2.25,4.94,2.16,7.58,2.28-9.51,5.16-23.8,14.34-30.04,9.18-6.23,20.34-12.89,14.88-24.08.51,8.59-10.13,9.23-11.06,2.4-.93-6.83,2.33-13.62-6.26-12.14Z"/><path class="cls-6" d="M156.51,224.77c-.25,4.58.22,9.12-1.08,12.99-3.3,10.48-4.39-8.29-2.16-11.91-9.35,5.38-11.33,19.23-12.99,30.31-1.66,11.07,8.18,20.52,15.15,28.14-3.17.24-5.66-1.87-8.66-2.16,3.45,4.81,10.61,5.09,16.24,5.41-13.5-12.93-27.26-31.64-14.07-49.79-.91,10.18,10.4,7.2,9.38-.36-1.03-7.54-.12-13.71-.73-20.21-.96,2.51-.93,4.84-1.08,7.58Z"/><path class="cls-6" d="M345.93,217.19c-.66,6.57.16,13.44-.36,20.92-.52,7.47,9.81,9.11,9.02-.36,5.07,8.2,6.87,20.85,2.49,29.55-4.37,8.71-12.84,12.38-16.56,20.24,5.68-.32,12.74-.62,16.24-5.41-3.05.26-5.51,2.42-8.66,2.16,6.74-7.68,16.85-17.06,15.15-28.14-1.71-11.08-3.63-24.96-12.99-30.31.36,4.96,3.47,12.6-1.08,16.24-2.32-7.94-.04-17.17-3.25-24.89Z"/><path class="cls-6" d="M235.53,232.35c.22-13.78-19.84-16.69-28.14-9.74,8.13-3.79,5.69,6.23,11.16,9.41,5.47,3.17,11.17,1.04,16.98.34M222.54,220.44c6.92-.81,10.76,9.47,3,11.66-7.76,2.19-10.12-10.81-3-11.66Z"/><path class="cls-6" d="M296.14,222.61c-9.04-7.22-27.28-3.56-29.22,9.74,6.16.49,12.53,3.28,18.13-.27,5.61-3.55,2.88-13.11,11.09-9.47M283.15,220.44c5.63,2.57.65,15.22-6.57,10.9-7.23-4.31.69-13.57,6.57-10.9Z"/><path class="cls-6" d="M225.79,223.69c-2.37.31-2.02,2.39-3.25,4.33,2.72.87,5.71-2.05,3.25-4.33Z"/><path class="cls-6" d="M280.99,228.02c-1.09-2.11-1.13-4.03-3.25-4.33-2.25,2.34.39,5.21,3.25,4.33Z"/><path class="cls-6" d="M155.43,237.76c1.3-3.86.83-8.41,1.08-12.99-.57,3.51-.34,8.93-1.08,12.99Z"/><path class="cls-6" d="M238.77,274.56c-7.14,4.06-.18,12.44,6.49,9.74.94,2.57.94,7.38,4.33,7.58-1.79-2.34.12-10.36-4.33-10.82-4.45-.47-9.96-.22-6.49-6.49Z"/><path class="cls-6" d="M258.26,284.3c6.69,2.63,13.64-5.65,6.49-9.74,3.28,6.09-1.84,6.25-6.41,6.58-4.56.34-2.62,8.34-4.42,10.74,3.55-.19,3.29-5.07,4.33-7.58Z"/><path class="cls-6" d="M238.77,326.51c-14.29-12.94-37.45-3.87-54.1-9.76-16.64-5.9-23.02-19.2-34.66-30.28,10,13.45,17.08,25.71,33.48,32.55,16.39,6.85,38.59-.02,55.28,7.5Z"/><path class="cls-6" d="M353.5,286.46c-11.38,11.18-18.75,25.13-35.48,30.54-16.72,5.42-39-3.33-53.27,9.5,16.77-7.52,39.74-.55,56.03-7.83,16.29-7.27,22.59-18.72,32.72-32.22Z"/><path class="cls-6" d="M217.13,290.79c-8.11,1.2-17.18,3.26-22.73,9.74,3.6-1.78,7.44-3.43,11.18-5.05,3.73-1.62,11.69.41,11.55-4.69Z"/><path class="cls-6" d="M239.86,294.04c-5.42-1.82-12.69-.98-18.4-3.25,3.95,5.55,12.52,5.02,18.4,3.25Z"/><path class="cls-6" d="M282.07,290.79c-5.8,2.21-12.86,1.49-18.4,3.25,5.92,1.76,14.4,2.31,18.4-3.25Z"/><path class="cls-6" d="M309.13,300.53c-5.5-6.47-14.69-8.54-22.73-9.74-.14,5.34,7.91,2.9,11.67,4.57,3.74,1.68,7.41,3.5,11.06,5.17Z"/><path class="cls-6" d="M244.19,299.45c-5.48.09-13.62.08-19.48,1.08,6.49,2.66,13.53,2.46,19.48-1.08Z"/><path class="cls-6" d="M278.82,300.53c-5.8-1.09-13.98-.91-19.48-1.08,5.97,3.52,13.03,3.77,19.48,1.08Z"/><path class="cls-6" d="M252.84,299.45c-6.25,6.02-15.06,6.38-22.73,7.58,6.16,1.81,15.8,4.96,20.56-1.08,7.19,3.93,16.24,4.38,23.81,1.08-6.75-2.24-17.24.51-21.65-7.58Z"/><path class="cls-6" d="M223.62,300.53c-4.36.02-8.4,4.91-9.74,8.66,2.89-3.18,8.3-4.94,9.74-8.66Z"/><path class="cls-6" d="M289.64,309.19c-1.27-3.74-5.41-8.6-9.74-8.66,1.43,3.87,6.82,5.3,9.74,8.66Z"/><path class="cls-6" d="M206.3,334.09c-17.45,4.54-34.02-11.01-44.38-23.81,4.63,11.53,14.89,19.75,24.89,25.98-3.15.62-8.15-1.62-9.74,2.16,22.7-.7,31.55,30.62,54.12,28.14-18.81-.96-26.23-22.83-42.21-28.14,14.55-9.24,22.85,12.24,36.8,6.49-6.72.15-12.01-4.04-17.32-7.58,3.45-8.92-16.24-15.82-23.81-12.99,7.68,1.4,16.73,2.88,21.65,9.74Z"/><path class="cls-6" d="M341.6,310.28c-10.29,12.77-27.02,28.37-44.38,23.81,4.69-7.52,14.95-7.24,21.65-10.82-8.53.01-27.54,4.31-23.81,14.07-5.26,3.49-10.64,7.77-17.32,7.58,13.8,5.74,22.64-15.79,36.8-6.49-15.68,5.99-24.3,26.23-42.21,29.22,23.4-.44,31.17-29.19,54.12-29.22-1.54-3.82-6.59-1.56-9.74-2.16,9.96-6.21,20.25-14.41,24.89-25.98Z"/><path class="cls-6" d="M323.2,202.04c-7-19.9,16.15-34.26,6.82-55.52-9.32-21.28-28.61-5.04-39.29,6.82-11.72-5.27-25.55-7.86-38.22-9.36-12.65-1.49-25.74,7.05-37.3,8.51-11.56,1.46-15.21-18.37-28.39-16.46-13.17,1.92-17.25,18.67-14.06,30.3,3.19,11.64,11.74,22.75,9.73,34.65,7.12-19.28-12.93-30.8-5.39-50.85,7.55-20.03,24.68-1.78,34.61,8.64,25.18-12.11,54.94-11.99,80.09,0,9.91-11.33,28.93-27.44,34.87-6.73,5.94,20.71-15.49,32.32-3.49,50.03Z"/><path class="cls-1" d="M203.06,167.41c-2.16-7.51-8.11-15.89-16.24-17.32,12.5,6.31,9.28,19.16,4.33,29.22,3.79-3.69,6.04-10.08,11.91-11.91Z"/><path class="cls-1" d="M316.7,150.09c-8.12,1.4-14.05,9.81-16.24,17.32,5.8,1.79,8.15,8.16,11.91,11.91-4.9-10.12-8.25-22.83,4.33-29.22Z"/><path class="cls-6" d="M289.64,168.49c-20.92-17.11-54.58-16.93-75.76,0,11.48-2.48,22.69-5.9,34.64-6.49.48,5.57-.64,19.03,0,23.81s-2.64,19.6,3.16,19.4c5.79-.22,2.75-15.76,3.33-20.48s-.44-17.3,0-22.73c11.99.48,23.27,3.79,34.64,6.49Z"/><path class="cls-6" d="M251.76,210.7c-7-7.75-12.67-19.5-23-24.62-10.34-5.12-19.81,4.78-27.06,14.61-7.24,9.84-7.39,23.67-2.74,36.83,4.65,13.15,23.05,10.56,36.56,9.98-4.21,14.35-18.31,23.96-22.73,37.88-12.38-2.36-24.96-18.38-7.58-24.89-18.31,1.41-28.71-16-28.14-32.47-1.92,14.62,3.41,31.99,19.48,34.64-11.43,13.96,8.73,24.89,20.56,25.98,4.99-22.83,34.01-41.63,21.65-68.19,2.01,7.97.22,15.95-1.08,23.81-9.86-1.32-27.73,4.22-32.12-5.76-4.39-9.98-5-21.19-.67-30.28,4.32-9.1,11.29-13.51,19.81-16.99,10.24,9.45,21.91,20.13,25.98,33.55,7.4-10.88,16.52-24.55,28.14-33.55,8.55,3.34,16.18,8.55,20.23,17.65,4.06,9.09,3.12,20.91-1.5,30.3-4.61,9.39-22.18,3.51-31.71,5.09-2.13-7.73-1.54-16.81-2.16-23.81-9.85,27.56,17.27,45.14,22.73,68.19,11.85-1.1,31.98-11.98,20.56-25.98,15.63-2.35,22.77-21.02,18.4-34.64,2.9,17.47-9.63,33.51-27.06,32.47,17.29,6.45,4.94,22.53-7.58,24.89-4.38-13.84-18.52-23.55-22.73-37.88,13.86.93,32.41,2.88,36.88-10.75,4.47-13.63,4.06-26.73-3.41-36.79-7.47-10.04-17.1-18.94-27.3-13.4-10.21,5.54-15.41,15.79-22.4,24.14Z"/><path class="cls-3" d="M227.95,213.95c-2.42-6.22-1.45-17.93-10.74-15.07-9.3,2.86-5.55,12.98,1,15.07-4.47-3.44-6.63-12.47,1.07-12.98,7.71-.51,1.93,10.98,8.67,12.98Z"/><path class="cls-4" d="M284.23,215.03c6.54-2.39,11.32-13.66,1.17-16.31-10.16-2.65-6.91,9.63-10.91,15.23,6.59-1.17,1.75-15.88,10.74-12.9,8.97,2.98,1.58,9.91-1,13.98Z"/><path class="cls-3" d="M185.74,203.12c-10.02,10.34-19.37,23.7-18.4,38.96-9.17-1.87-4.74,6.67-6.53,12.96-1.79,6.3-11.14,4.68-10.79-3.21-5.77,11.32,6.54,18.27,15.42,24.62,8.89,6.35,11.47,20.08,13.8,29.49-.21-2.71.54-5.76,2.16-7.58,11.57,27.04,48.63,4.82,61.69,29.22-6.03-18.67-27.89-15.46-43.29-17.32,3.26-9.22,17.22-8.73,20.56-15.15-6.3,2.61-13.2,2.63-17.64,9.42-4.43,6.79-10.92,2.68-15.64-2.11-4.72-4.79-4.65-18.72-8.93-9.47-.78-15.83-18.13-20.66-25.98-31.39,9.05,4.21,14.91-9.2,10.82-16.24,2.79-2.67,4.89.81,7.58,1.08-4.97-16.45,7.58-30.39,15.15-43.29Z"/><path class="cls-3" d="M336.19,242.09c.87-15.07-8.5-29.52-18.4-38.96,8.05,12.85,19.82,26.99,15.15,43.29,2.72-.04,4.83-3.98,7.58-1.08-4.1,7.02,1.8,20.45,10.82,16.24-3.53,6.43-11.97,10.43-17.59,14.88-5.61,4.46-7.37,20.2-11.64,12.18.1,5.81-8.4,22.18-16.15,20.48-7.75-1.7-12.56-16.01-22.82-13.98,3.41,6.47,17.25,5.9,20.56,15.15-16.35,1.57-37.97-.8-44.38,18.4,6.22-11.27,19.63-15.64,32.47-14.07s24.04-5.86,30.31-16.24c1.79,1.73,2.25,4.94,2.16,7.58,2.28-9.51,5.16-23.8,14.34-30.04,9.18-6.23,20.34-12.89,14.88-24.08.51,8.59-10.13,9.23-11.06,2.4-.93-6.83,2.33-13.62-6.26-12.14Z"/><path class="cls-6" d="M156.51,224.77c-.25,4.58.22,9.12-1.08,12.99-3.3,10.48-4.39-8.29-2.16-11.91-9.35,5.38-11.33,19.23-12.99,30.31-1.66,11.07,8.18,20.52,15.15,28.14-3.17.24-5.66-1.87-8.66-2.16,3.45,4.81,10.61,5.09,16.24,5.41-13.5-12.93-27.26-31.64-14.07-49.79-.91,10.18,10.4,7.2,9.38-.36-1.03-7.54-.12-13.71-.73-20.21-.96,2.51-.93,4.84-1.08,7.58Z"/><path class="cls-6" d="M345.93,217.19c-.66,6.57.16,13.44-.36,20.92-.52,7.47,9.81,9.11,9.02-.36,5.07,8.2,6.87,20.85,2.49,29.55-4.37,8.71-12.84,12.38-16.56,20.24,5.68-.32,12.74-.62,16.24-5.41-3.05.26-5.51,2.42-8.66,2.16,6.74-7.68,16.85-17.06,15.15-28.14-1.71-11.08-3.63-24.96-12.99-30.31.36,4.96,3.47,12.6-1.08,16.24-2.32-7.94-.04-17.17-3.25-24.89Z"/><path class="cls-6" d="M266.91,232.35c6.16.49,12.53,3.28,18.13-.27,5.61-3.55,2.88-13.11,11.09-9.47-9.04-7.22-27.28-3.56-29.22,9.74ZM276.58,231.34c-7.23-4.31.69-13.57,6.57-10.9,5.63,2.57.65,15.22-6.57,10.9Z"/><path class="cls-6" d="M225.79,223.69c-2.37.31-2.02,2.39-3.25,4.33,2.72.87,5.71-2.05,3.25-4.33Z"/><path class="cls-6" d="M280.99,228.02c-1.09-2.11-1.13-4.03-3.25-4.33-2.25,2.34.39,5.21,3.25,4.33Z"/><path class="cls-6" d="M155.43,237.76c1.3-3.86.83-8.41,1.08-12.99-.57,3.51-.34,8.93-1.08,12.99Z"/><path class="cls-6" d="M238.77,274.56c-7.14,4.06-.18,12.44,6.49,9.74.94,2.57.94,7.38,4.33,7.58-1.79-2.34.12-10.36-4.33-10.82-4.45-.47-9.96-.22-6.49-6.49Z"/><path class="cls-6" d="M258.26,284.3c6.69,2.63,13.64-5.65,6.49-9.74,3.28,6.09-1.84,6.25-6.41,6.58-4.56.34-2.62,8.34-4.42,10.74,3.55-.19,3.29-5.07,4.33-7.58Z"/><path class="cls-2" d="M238.77,326.51c-14.29-12.94-37.45-3.87-54.1-9.76-16.64-5.9-23.02-19.2-34.66-30.28,10,13.45,17.08,25.71,33.48,32.55,16.39,6.85,38.59-.02,55.28,7.5Z"/><path class="cls-2" d="M353.5,286.46c-11.38,11.18-18.75,25.13-35.48,30.54-16.72,5.42-39-3.33-53.27,9.5,16.77-7.52,39.74-.55,56.03-7.83,16.29-7.27,22.59-18.72,32.72-32.22Z"/><path class="cls-5" d="M217.13,290.79c-8.11,1.2-17.18,3.26-22.73,9.74,3.6-1.78,7.44-3.43,11.18-5.05,3.73-1.62,11.69.41,11.55-4.69Z"/><path class="cls-6" d="M239.86,294.04c-5.42-1.82-12.69-.98-18.4-3.25,3.95,5.55,12.52,5.02,18.4,3.25Z"/><path class="cls-6" d="M282.07,290.79c-5.8,2.21-12.86,1.49-18.4,3.25,5.92,1.76,14.4,2.31,18.4-3.25Z"/><path class="cls-5" d="M309.13,300.53c-5.5-6.47-14.69-8.54-22.73-9.74-.14,5.34,7.91,2.9,11.67,4.57,3.74,1.68,7.41,3.5,11.06,5.17Z"/><path class="cls-6" d="M244.19,299.45c-5.48.09-13.62.08-19.48,1.08,6.49,2.66,13.53,2.46,19.48-1.08Z"/><path class="cls-6" d="M278.82,300.53c-5.8-1.09-13.98-.91-19.48-1.08,5.97,3.52,13.03,3.77,19.48,1.08Z"/><path class="cls-6" d="M252.84,299.45c-6.25,6.02-15.06,6.38-22.73,7.58,6.16,1.81,15.8,4.96,20.56-1.08,7.19,3.93,16.24,4.38,23.81,1.08-6.75-2.24-17.24.51-21.65-7.58Z"/><path class="cls-6" d="M223.62,300.53c-4.36.02-8.4,4.91-9.74,8.66,2.89-3.18,8.3-4.94,9.74-8.66Z"/><path class="cls-6" d="M289.64,309.19c-1.27-3.74-5.41-8.6-9.74-8.66,1.43,3.87,6.82,5.3,9.74,8.66Z"/><path class="cls-6" d="M206.3,334.09c-17.45,4.54-34.02-11.01-44.38-23.81,4.63,11.53,14.89,19.75,24.89,25.98-3.15.62-8.15-1.62-9.74,2.16,22.7-.7,31.55,30.62,54.12,28.14-18.81-.96-26.23-22.83-42.21-28.14,14.55-9.24,22.85,12.24,36.8,6.49-6.72.15-12.01-4.04-17.32-7.58,3.45-8.92-16.24-15.82-23.81-12.99,7.68,1.4,16.73,2.88,21.65,9.74Z"/><path class="cls-6" d="M341.6,310.28c-10.29,12.77-27.02,28.37-44.38,23.81,4.69-7.52,14.95-7.24,21.65-10.82-8.53.01-27.54,4.31-23.81,14.07-5.26,3.49-10.64,7.77-17.32,7.58,13.8,5.74,22.64-15.79,36.8-6.49-15.68,5.99-24.3,26.23-42.21,29.22,23.4-.44,31.17-29.19,54.12-29.22-1.54-3.82-6.59-1.56-9.74-2.16,9.96-6.21,20.25-14.41,24.89-25.98Z"/><path class="cls-6" d="M207.39,222.61c8.13-3.79,5.69,6.23,11.16,9.41s11.17,1.04,16.98.34c.22-13.78-19.84-16.69-28.14-9.74ZM225.54,232.1c-7.76,2.19-10.12-10.81-3-11.66,6.92-.81,10.76,9.47,3,11.66Z"/><path class="cls-7" d="M251.76,418.74c-92.07,0-166.97-74.9-166.97-166.97S159.69,84.79,251.76,84.79s166.97,74.9,166.97,166.97-74.9,166.97-166.97,166.97ZM251.76,89.61c-89.41,0-162.15,72.74-162.15,162.15s72.74,162.15,162.15,162.15,162.15-72.74,162.15-162.15-72.74-162.15-162.15-162.15Z"/><path class="cls-7" d="M251.76,503.53C112.94,503.53,0,390.59,0,251.76S112.94,0,251.76,0s251.76,112.94,251.76,251.76-112.94,251.76-251.76,251.76ZM251.76,9.64C118.26,9.64,9.64,118.26,9.64,251.76s108.61,242.12,242.12,242.12,242.12-108.61,242.12-242.12S385.27,9.64,251.76,9.64Z"/><circle class="cls-7" cx="45.63" cy="297.57" r="5.52"/><circle class="cls-7" cx="457.9" cy="297.57" r="5.52"/><rect class="cls-7" x="244.13" y="335.65" width="15.27" height="40.14" rx="1.44" ry="1.44"/><rect class="cls-7" x="244.13" y="335.65" width="15.27" height="40.14" rx="1.44" ry="1.44" transform="translate(607.49 103.96) rotate(90)"/><path class="cls-7" d="M67.9,267.31l-34.32,1.49.57,13.17-5.25.23-1.54-35.58,5.25-.23.57,13.17,34.32-1.49.4,9.24Z"/><path class="cls-7" d="M67.98,240.85l-39.42-3.98.93-9.26,39.42,3.98-.93,9.26Z"/><path class="cls-7" d="M65.69,219.94c-3.99,2.22-9.44,2.38-16.22.45-8.47-2.41-13.23-7.07-14.34-13.98-1.1-6.91,1.02-16.78,6.36-29.53l5,1.42c-8.98,22.36-7.35,29.82,5.44,33.46,5.21,1.48,9.27,1.61,12.08.31,2.82-1.3,4.89-4.41,6.3-9.36.97-3.42,1.41-6.77,1.27-10.05-.11-1.22-.38-1.65-1.44-1.94l-8.31-2.37-3.5,12.31-4.79-1.36,5.9-20.73,18.84,5.36c-.48,1.68-.94,4.91-1.4,9.73-.51,4.8-1.16,8.66-1.99,11.6-2.14,7.52-5.18,12.41-9.18,14.68Z"/><path class="cls-7" d="M85.64,174.46c-1.68,3.01-3.62,3.56-6.67,1.85l-25.98-14.53c-3.06-1.71-3.6-3.65-1.92-6.65l13.79-24.64,4.59,2.57-10.85,19.39c-.53.95-.32,1.7.63,2.23l8.07,4.52,11.09-19.82,4.3,2.4-11.09,19.82,10.17,5.69c.96.53,1.7.32,2.23-.63l10.85-19.39,4.58,2.56-13.79,24.64Z"/><path class="cls-7" d="M102.41,145.43l-25.48-22.89c-2.56-2.3-2.75-4.97-.4-7.57l8.45-9.4c5.12-5.7,9.51-9.11,13.17-10.24,3.66-1.2,7.2-.23,10.61,2.84,2.48,2.23,3.68,4.34,3.88,7.39.16,3.01-1.61,6.87-5.39,11.49l22.22-1.73-7.53,8.38-21.06,1.01c-2.51.1-3.24-1.88-1.52-3.79,3.47-3.87,5.48-6.92,5.94-9.15.5-2.27-.39-4.4-2.55-6.33-2.32-2.08-4.45-2.82-6.39-2.21-1.95.53-4.55,2.61-7.77,6.19l-4.61,5.13c-.73.81-.55,1.35.31,2.11l24.34,21.87-6.22,6.92Z"/><path class="cls-7" d="M151.94,97.03c-1.73-.44-3.5-1.71-5.46-3.86l-22.74-25.09,8.61-4.18,19.73,23.02c1.76,2.13,2.66,2.6,4.09,1.91,1.38-.67,1.59-1.62,1.05-4.22l-4.89-26.02c-.6-2.99.38-5.11,2.99-6.37,2.56-1.24,4.83-.7,6.81,1.62l17.28,19.83c1.81,2.1,2.66,2.6,4.09,1.91,1.43-.69,1.61-1.57,1.1-4.24l-5.92-29.9,5.86-2.84,5.66,33.49c.45,2.82.35,5-.3,6.53-.66,1.53-2.09,2.84-4.31,3.91-5.07,2.46-8.05,1.71-11.79-2.61l-15.11-17.24,4.18,22.66c1.03,5.52-.13,8.27-4.61,10.44-2.51,1.22-4.62,1.63-6.33,1.24Z"/><path class="cls-7" d="M198.92,56.57c-2.07-13.35,4.4-21.22,19.43-23.55,14.98-2.32,23.53,3.22,25.6,16.57,2.08,13.41-4.4,21.28-19.48,23.62-14.98,2.32-23.48-3.22-25.55-16.63ZM234.97,50.93c-1.63-10.54-6.5-14.44-15.85-12.99-9.46,1.47-12.92,6.65-11.29,17.2,1.67,10.76,6.35,14.52,15.86,13.04,9.57-1.48,12.95-6.49,11.28-17.25Z"/><path class="cls-7" d="M256.05,67.01c-2.19-2.6-2.99-6.98-2.31-13.24l2.57-23.71,6.31.68c1.9.21,2.78,1.24,2.58,3.14l-2.2,20.29c-.5,4.62-.18,7.79.9,9.51,1.13,1.72,3.55,2.75,7.31,3.16,4.13.45,7.61.38,10.47-.13,1.29-.24,1.59-.49,1.71-1.52l3.45-31.82,9.19,1-4.08,37.64c-1.79-.19-5.1-.17-10.03.12-4.92.24-9.1.17-12.53-.2-6.69-.72-11.13-2.36-13.33-4.91Z"/><path class="cls-7" d="M298.33,75.36l13.94-37.08,5.07,1.91c2.51.94,4.11,2.6,4.87,4.93l10.8,32.99,10.55-28.06,5.38,2.02-13.94,37.08-4.97-1.87c-2.51-.94-4.11-2.6-4.82-4.91l-10.82-33.41-10.69,28.42-5.38-2.02Z"/><path class="cls-7" d="M344.94,95.02c-2.83-1.97-3.18-3.95-1.18-6.82l17.02-24.42c2-2.87,3.98-3.23,6.81-1.25l7.9,5.51c7.23,5.04,11.73,9.58,13.85,13.52,1.1,1.97,1.69,3.98,1.67,6.03.02,4.08-1.51,7.62-4.67,12.15-3.13,4.49-5.92,7.15-9.76,8.54-5.69,2.04-12.7-.25-23.75-7.75l-7.9-5.51ZM356.52,96.96c5.16,3.6,9.35,5.25,12.47,4.89,3.12-.36,6.33-2.86,9.61-7.57,3.22-4.62,4.46-8.5,3.72-11.55-.74-3.05-3.74-6.41-8.9-10.01l-3.77-2.63c-.9-.63-1.66-.49-2.28.41l-15.02,21.55c-.63.9-.49,1.66.41,2.28l3.77,2.63Z"/><path class="cls-7" d="M410.74,158.66c-16.97-16.83-19.27-29.39-5.55-39.66,6.88-5.15,13.24-6.42,19.03-3.71,5.79,2.71,11.67,9.38,17.65,20.01l-4.25,3.18c-10.33-17.83-16.81-19.82-26.98-12.21-10.16,7.61-9.64,14.88,4.36,29.21l-4.25,3.18Z"/><path class="cls-7" d="M426.52,193.96l5.75-5.97-10.2-23.37-8.29.16-2.61-5.97,35.16-.42c5.62-.12,8.98,1.57,11,6.18,2.28,5.22,1.34,8.67-2.76,13.09l-24,25.59-4.05-9.28ZM427.04,164.54l8.67,19.86,12.74-13.21c2.13-2.36,2.53-3.49,1.92-4.9-.7-1.61-1.73-2.05-4.84-2.07l-18.49.31Z"/><path class="cls-7" d="M430.66,206.06l33.78-5.66c3.4-.57,5.59.95,6.17,4.4l2.09,12.46c1.26,7.55,1.2,13.11-.2,16.67-1.34,3.61-4.31,5.77-8.84,6.53-3.29.55-5.68.17-8.19-1.57-2.46-1.75-4.37-5.54-5.62-11.37l-12.5,18.46-1.86-11.11,12.34-17.1c1.49-2.03,3.49-1.36,3.91,1.17.86,5.13,1.99,8.6,3.45,10.35,1.47,1.81,3.68,2.43,6.54,1.96,3.07-.52,4.98-1.72,5.72-3.62.8-1.85.8-5.18,0-9.93l-1.14-6.8c-.18-1.08-.71-1.27-1.84-1.08l-32.27,5.4-1.54-9.17Z"/><path class="cls-7" d="M436.61,254.52c.19-3.44,1.69-4.78,5.19-4.59l29.72,1.65c3.5.19,4.84,1.69,4.65,5.14l-1.57,28.19-5.24-.29,1.23-22.18c.06-1.09-.45-1.67-1.55-1.73l-9.23-.51-1.26,22.67-4.92-.27,1.26-22.67-11.64-.65c-1.09-.06-1.67.46-1.73,1.55l-1.23,22.18-5.24-.29,1.57-28.19Z"/><path class="cls-7" d="M53.14,321.24c.25-.94.99-1.9,2.23-2.91l13.25-10.64,2.41,5.94-11.54,8.51c-.71.53-.86.83-.66,1.32.2.49.55.62,1.37.49l11.59-1.53c1.95-.28,3.26.44,3.96,2.16.7,1.72.25,3.13-1.34,4.29l-9.35,6.96c-.66.51-.86.83-.66,1.32.21.51.55.61,1.38.52l14.22-1.97,1.71,4.21-16.94,1.6c-1.58.16-2.75,0-3.57-.47-.81-.45-1.45-1.3-1.96-2.56-.59-1.47-.77-2.65-.54-3.61.24-.96.99-1.9,2.26-2.83l7.21-5.38-8.96,1.15c-3.06.43-4.5-.48-5.54-3.05-.57-1.41-.75-2.6-.51-3.54Z"/><path class="cls-7" d="M88.02,349.27c3.93,6.66,2.93,11.73-2.99,15.22-6.04,3.57-10.89,1.89-14.82-4.77-3.93-6.66-3.07-11.64,3.02-15.24,5.92-3.49,10.85-1.9,14.8,4.79ZM76.85,360.85c1.32.22,3.05-.29,5.18-1.54,4.13-2.44,4.93-4.84,2.9-8.28-2.02-3.42-4.5-3.85-8.63-1.41-4.2,2.48-5.01,4.82-2.98,8.26,1.03,1.74,2.21,2.75,3.53,2.97Z"/><path class="cls-7" d="M81.56,374.41c.04-1.72,1.16-3.43,3.33-5.11l10.22-7.94,2.65,3.42c.77.99.68,1.86-.31,2.63l-8.32,6.46c-1.31,1.02-2.06,1.92-2.2,2.69-.14.77.23,1.75,1.1,2.87,1.09,1.4,2.07,2.39,2.92,2.99.43.33.83.34,1.18.07l12.08-9.39,3.81,4.9-15.17,11.79c-.7-.9-1.99-2.25-3.86-4.02-1.85-1.79-3.33-3.38-4.44-4.81-2.04-2.63-3.03-4.81-3.01-6.54Z"/><path class="cls-7" d="M96.04,394.7l14.24-14.23,2.49,2.49c1.25,1.25,1.78,2.69,1.57,4.31l-1.75,14.21,9.36-9.35,2.88,2.88-14.24,14.23-2.45-2.45c-1.25-1.26-1.78-2.69-1.57-4.31l1.87-14.41-9.51,9.51-2.88-2.88Z"/><path class="cls-7" d="M117.39,414.98c-1.75-1.36-1.9-2.53-.54-4.28l8.57-11.03c1.36-1.75,2.53-1.9,4.28-.54l4.16,3.23c3.57,2.77,5.69,5.19,6.61,7.21.46,1.03.65,2.05.56,3.07-.17,2.08-1.02,3.7-2.73,5.91-1.68,2.17-3.03,3.36-5,4.05-2.86,1.01-6.3-.26-11.75-4.39l-4.16-3.23ZM124.38,415.92c1.9,1.48,3.47,2.13,4.71,1.98,1.28-.16,2.69-1.25,4.25-3.26,1.55-1.99,2.24-3.6,2.06-4.86-.16-1.28-1.18-2.64-3.08-4.12l-1.62-1.26c-.44-.34-.83-.29-1.17.15l-6.94,8.93c-.34.44-.29.83.15,1.17l1.64,1.27Z"/><path class="cls-7" d="M158.64,441.78c-11.45-4.27-14.88-9.58-10.71-17.13,2.11-3.81,4.72-5.73,7.87-5.76,3.15-.03,7.26,1.83,12.36,5.56l-1.78,3.23c-7.79-5.45-10.52-4.93-13.16-.14-2.63,4.76-1.27,7.69,7.23,11l-1.8,3.25Z"/><path class="cls-7" d="M177.42,450.07l.06-3.49-10.46-4.32-2.42,2.51-4.15-1.72,12.29-12.53c2.12-2.22,4.24-2.57,6.8-1.51,2.87,1.19,4.11,2.9,4.1,6.05v17.58s-6.24-2.57-6.24-2.57ZM169.39,439.82l8.17,3.38.15-8.07c-.02-1.12-.24-1.54-.85-1.79-.64-.26-1.09-.12-1.85.62l-5.63,5.86Z"/><path class="cls-7" d="M187.16,453.73l4.5-16.33c.59-2.14,1.75-2.8,3.89-2.21l6.87,1.89c7.08,1.95,9.59,4.74,8.36,9.21-.91,3.31-3.33,4.66-7.27,4.04l4.39,9.12-6.95-1.92-3.72-8.65c-.53-1.53.34-2.38,1.73-2,3.56.98,5.04.41,5.68-1.92.63-2.27-.24-3.52-3.55-4.43l-2.94-.81c-.51-.14-.68.07-.84.63l-4.11,15.03-6.04-1.66Z"/><path class="cls-7" d="M214.91,460.61c-2.19-.32-2.89-1.27-2.57-3.46l2.04-13.82c.32-2.19,1.27-2.9,3.46-2.57l14.02,2.07-.55,3.7-10.04-1.48c-.55-.08-.86.15-.94.7l-.51,3.48,10.28,1.52-.48,3.24-10.28-1.52-.6,4.09c-.08.55.15.86.7.94l10.04,1.48-.55,3.7-14.01-2.07Z"/><path class="cls-7" d="M246.86,463.96l.27-16.35-6.21-.1.06-3.77,18.65.31-.06,3.77-6.21-.1-.27,16.35-6.24-.1Z"/><path class="cls-7" d="M266.02,463.71c-2.21.19-3.11-.57-3.3-2.78l-1.17-13.93c-.19-2.21.57-3.11,2.78-3.3l14.12-1.19.31,3.73-10.11.85c-.55.05-.81.35-.76.9l.3,3.51,10.36-.87.28,3.26-10.36.87.35,4.12c.05.55.35.81.9.76l10.11-.85.31,3.73-14.12,1.19Z"/><path class="cls-7" d="M301.25,458.54c-11.55,4-17.58,2.09-19.17-6.39-.8-4.28,0-7.42,2.4-9.45,2.41-2.03,6.76-3.21,13.07-3.58l.68,3.62c-9.48.76-11.25,2.9-10.24,8.27,1,5.34,3.92,6.74,12.58,3.88l.69,3.65Z"/><path class="cls-7" d="M305.58,457.75l-5.91-19.19,5.96-1.84,2.28,7.39,8.08-2.49-2.28-7.39,5.99-1.84,5.91,19.19-5.99,1.85-2.51-8.16-8.08,2.49,2.51,8.16-5.96,1.84Z"/><path class="cls-7" d="M331.08,449.53l-8.29-18.34,3.21-1.45c1.62-.73,3.14-.72,4.59.06l12.68,6.65-5.45-12.05,3.71-1.68,8.29,18.34-3.16,1.43c-1.62.73-3.14.72-4.59-.06l-12.83-6.83,5.54,12.25-3.71,1.68Z"/><path class="cls-7" d="M353.51,415.38c6.59-4.05,11.67-3.13,15.27,2.73,3.67,5.98,2.08,10.86-4.51,14.9-6.59,4.05-11.59,3.28-15.29-2.75-3.6-5.86-2.09-10.82,4.53-14.88ZM365.28,426.34c.2-1.32-.34-3.04-1.63-5.15-2.51-4.09-4.93-4.85-8.33-2.76-3.38,2.07-3.77,4.56-1.26,8.65,2.55,4.16,4.91,4.92,8.31,2.83,1.72-1.06,2.71-2.25,2.91-3.58Z"/><path class="cls-7" d="M380.27,421.84c-1.75,1.36-2.92,1.22-4.28-.53l-10.49-13.48,4.94-3.85,9.54,12.25c.34.44.73.49,1.17.15l7.31-5.69,2.32,2.97-10.5,8.17Z"/><path class="cls-7" d="M386.64,389.7c5.56-5.38,10.72-5.58,15.5-.64,4.87,5.04,4.38,10.15-1.19,15.53-5.56,5.38-10.61,5.7-15.52.62-4.78-4.94-4.38-10.11,1.2-15.51ZM400.5,397.86c-.1-1.33-.99-2.9-2.71-4.67-3.33-3.45-5.86-3.67-8.73-.89-2.85,2.75-2.7,5.27.64,8.72,3.39,3.51,5.86,3.75,8.73.97,1.46-1.41,2.16-2.79,2.07-4.12Z"/><path class="cls-7" d="M411.68,389.94c-2.34.22-4.9-.76-7.64-2.97-3.44-2.76-4.75-5.9-3.88-9.43.87-3.53,3.8-7.72,8.83-12.61l2.9,2.32c-2.63,2.62-4.48,4.83-5.57,6.69-1.08,1.83-1.52,3.36-1.27,4.6.23,1.22,1.16,2.46,2.74,3.72,1.88,1.51,3.5,2.28,4.83,2.31,1.32,0,2.67-.85,4-2.51.89-1.1,1.51-2.2,1.92-3.33.17-.61.1-.88-.33-1.23l-2.49-1.99-3.24,4.04-2.58-2.06,6.83-8.52,8.13,6.52c-.71.89-1.65,2.41-2.8,4.51s-2.26,3.8-3.3,5.1c-2.39,2.98-4.76,4.61-7.08,4.84Z"/><path class="cls-7" d="M428.37,371.76l-16.77-11.14,3.45-5.2,16.77,11.14-3.45,5.2Z"/><path class="cls-7" d="M436.21,359.46c-1.08,1.94-2.21,2.26-4.15,1.19l-12.22-6.78c-1.94-1.08-2.26-2.21-1.18-4.15l6.88-12.39,3.27,1.82-4.93,8.87c-.27.49-.16.86.32,1.13l3.08,1.71,5.05-9.09,2.86,1.59-5.05,9.09,3.61,2.01c.49.27.86.16,1.13-.32l4.93-8.87,3.27,1.82-6.88,12.39Z"/><path class="cls-7" d="M441.16,341.51c4.43-7.46,5.7-11.59,3.83-12.38-1.7-.69-3.1,2.27-5.1,5.07-.72.93-1.45,1.79-2.16,2.55-1.48,1.51-3.67,2.18-5.94,1.22-4.31-1.83-5.59-5.5,2-18.85l3.24,1.37c-5.01,9.11-4.87,11.07-3.47,11.66.51.22,1.05.08,1.64-.39,1.13-.97,2.02-2.85,3.44-4.78.72-.99,1.45-1.86,2.2-2.62,1.49-1.54,3.79-2.19,6.24-1.15,1.71.73,2.73,1.52,3.24,3.51.25.98.23,2.15-.02,3.52-.54,2.69-2.36,7.13-5.62,12.77l-3.52-1.49Z"/></g></svg>