<?xml version="1.0" encoding="UTF-8"?> <svg xmlns="http://www.w3.org/2000/svg" xmlns:xlink="http://www.w3.org/1999/xlink" width="87" height="51" viewBox="0 0 87 51"><title>ET Online Logo</title><defs><path id="prefix__a" d="M86.989 0l-44.65.002V0H0v3.451c2.23 0 3.879.235 4.946.7 1.066.464 1.745 1.101 2.034 1.917.29.818.432 1.951.432 3.406v32.048c0 2.207-.45 3.761-1.355 4.663-.902.902-2.92 1.354-6.048 1.356V51h45.452l.411-16.776h-3.53c-.598 3.882-1.654 6.735-3.164 8.56-1.512 1.82-3.048 2.951-4.61 3.387-1.612.443-3.278.664-4.95.658h-4.1c-1.832 0-3.242-.137-4.234-.415-.992-.276-1.706-.723-2.143-1.343-.467-.688-.746-1.484-.81-2.313-.1-.928-.15-2.394-.15-4.4V26.37h5.267c1.792 0 3.105.152 3.97.449.86.3 1.55.951 1.897 1.791.403.895.657 2.275.756 4.158h3.463V15.8H29.92c-.126 1.881-.364 3.263-.716 4.138-.311.845-.988 1.506-1.843 1.791-.875.317-2.206.472-3.989.47h-5.19V4.177h9.56c2.539 0 4.437.145 5.696.436 1.26.29 2.402 1.066 3.425 2.33 1.016 1.266 1.913 3.366 2.69 6.3l3.997.035c.15-3.159.758-4.29 1.824-5.807 1.067-1.519 2.303-2.449 3.707-2.785 1.404-.335 3.174-.509 5.306-.509H58.1v37.346c0 2.207-.452 3.761-1.358 4.663-.894.897-1.469 1.356-4.606 1.356V51h22.683v-3.453c-2.133 0-2.296-.225-3.404-.672-1.103-.448-1.8-1.085-2.103-1.9-.302-.814-.45-1.96-.45-3.438V4.176h4.765c1.437-.024 2.868.156 4.258.529 1.23.351 2.378 1.28 3.441 2.781 1.066 1.503 1.765 2.63 2.093 5.79H87"></path></defs><g fill="none" fill-rule="evenodd"><mask id="prefix__b" fill="#fff"><use xlink:href="#prefix__a"></use></mask><path fill="#000" d="M86.989 0l-44.65.002L0 0v3.451c2.23 0 3.879.235 4.946.7 1.066.464 1.745 1.101 2.034 1.917.29.818.432 1.951.432 3.406v32.048c0 2.207-.45 3.761-1.355 4.663-.902.902-2.92 1.354-6.048 1.356V51h45.863V34.224h-3.53c-.598 3.882-1.654 6.735-3.164 8.56-1.512 1.82-3.048 2.951-4.61 3.387-1.612.443-3.278.664-4.95.658h-4.1c-1.832 0-3.242-.137-4.234-.415-.992-.276-1.706-.723-2.143-1.343-.467-.688-.746-1.484-.81-2.313-.1-.928-.15-2.394-.15-4.4V26.37h5.267c1.792 0 3.105.152 3.97.449.86.3 1.55.951 1.897 1.791.403.895.657 2.275.756 4.158h3.463V15.8H29.92c-.126 1.881-.364 3.263-.716 4.138-.311.845-.988 1.506-1.843 1.791-.875.317-2.206.472-3.989.47h-5.19V4.177h9.56c2.539 0 4.437.145 5.696.436 1.26.29 2.402 1.066 3.425 2.33 1.016 1.266 1.913 3.366 2.69 6.3l3.997.035c.15-3.159.758-4.29 1.824-5.807 1.067-1.519 2.303-2.449 3.707-2.785 1.404-.335 3.174-.509 5.306-.509H58.1v37.346c0 2.207-.452 3.761-1.358 4.663-.894.897-1.469 1.356-4.606 1.356V51h22.683v-3.453c-2.133 0-2.296-.225-3.404-.672-1.103-.448-1.8-1.085-2.103-1.9-.302-.814-.45-1.96-.45-3.438V4.176h4.765c1.437-.024 2.868.156 4.258.529 1.23.351 2.378 1.28 3.441 2.781 1.066 1.503 1.765 2.63 2.093 5.79H87" mask="url(#prefix__b)"></path></g></svg> 