<svg xmlns="http://www.w3.org/2000/svg" width="5202" height="1366" xmlns:v="https://vecta.io/nano"><style><![CDATA[.B{mask:url(#D)}.C{fill:#fff}]]></style><defs><path id="A" d="M0 0h5202v1366H0z"/><path id="B" d="M0 1874h6959V0H0z"/></defs><g fill="none" fill-rule="evenodd"><mask id="C" class="C"><use href="#A"/></mask><g mask="url(#C)"><g transform="translate(-896 -225)"><g class="C"><path d="M2887.214 899.235c-29.423-29.431-44.388-76.817-44.388-141.16 0-80.307 28.926-133.677 86.784-160.615 57.847-26.933 149.627-32.916 274.811-17.955v47.386c-218.458-22.946-279.801 9.976-279.801 131.184 0 49.382 8.982 85.293 27.432 106.744s50.877 31.923 97.752 31.923c32.427 0 62.848-4.489 91.273-13.968 10.482-3.992 13.47-7.483 13.47-17.459v-78.808h-116.709v-45.39h196.502v178.57c-15.952 0-45.375 3.987-88.775 11.967-43.39 7.483-78.795 11.476-106.734 11.476-71.318 0-121.688-14.465-151.618-43.895m462.866 38.906c-31.413 0-44.388-12.97-44.388-44.888V621.906c0-31.923 12.974-44.893 44.388-44.893h257.359v47.882h-202.49c-9.975 0-14.965 4.991-14.965 14.966v84.295h206.978v44.893h-206.978v106.242c0 9.976 4.99 14.966 14.965 14.966h202.49v47.882h-257.359zm316.735 0V625.894c0-31.422 16.956-48.881 48.876-48.881h115.209c69.823 0 119.697 8.978 149.627 26.933 30.426 17.459 45.38 47.386 45.38 89.285 0 30.429-6.981 51.378-26.434 71.33-19.453 19.45-56.353 30.925-110.715 33.418l147.135 140.162H3933.15L3797.98 801.47c-15.958-16.461-6.981-33.418 16.459-33.418 47.382 0 80.3-4.991 98.253-15.463 18.455-10.477 27.437-29.431 27.437-55.867 0-28.433-7.984-47.386-23.947-56.86-15.461-9.976-45.38-14.966-89.277-14.966h-62.837c-9.975 0-12.467 4.489-12.467 14.966v298.279h-84.788zm-1235.978 342.432h197.5l-63.841-154.626c-11.96-26.436-19.944-33.92-33.906-33.92-15.968 0-23.445 6.987-34.914 32.921l-64.839 155.624zm243.894 111.729l-28.932-69.83h-232.425l-28.921 69.83h-59.347l124.682-295.285c19.448-47.386 45.887-69.334 91.774-69.334 51.865 0 77.301 20.448 99.246 70.828l126.182 293.79h-92.26zm170.096.001c-31.424 0-44.388-12.97-44.388-44.888v-271.346c0-31.923 12.964-44.893 44.388-44.893h257.348v47.882h-202.49c-9.975 0-14.96 4.991-14.96 14.966v84.295h206.983v44.893h-206.983v106.242c0 9.976 4.985 14.966 14.96 14.966h202.49v47.882h-257.348zm304.76-54.37c84.292 10.477 147.626 11.972 184.035 7.98 57.362-6.48 71.323-26.933 71.323-50.375 0-34.918-47.376-46.388-102.246-55.366-72.812-13.968-158.102-29.431-157.603-109.738 0-33.914 6.988-55.366 33.422-75.317 38.394-28.929 121.192-35.911 284.78-19.951v45.886c-206.978-16.957-236.401 2.994-236.401 39.908 0 84.791 261.837 16.455 261.837 168.589-.993 38.408-10.978 69.334-59.849 90.785-46.885 18.452-133.664 25.935-279.299 6.981v-49.382zm464.361 54.37v-313.245h-120.204v-47.882h324.69v47.882h-120.204v313.245zm247.398 0v-361.128h84.788v144.154h188.528v-144.154h84.783v361.128h-84.783V1224.21h-188.528v168.093zm477.335 0c-31.424 0-44.388-12.97-44.388-44.888v-271.346c0-31.923 12.964-44.893 44.388-44.893h257.348v47.882h-202.49c-9.975 0-14.965 4.991-14.965 14.966v84.295h206.989v44.893h-206.989v106.242c0 9.976 4.99 14.966 14.965 14.966h202.49v47.882H4338.68zm405.502 0v-313.245h-120.194v-47.882h324.69v47.882h-120.204v313.245z"/><mask id="D"><use href="#B"/></mask><g class="B"><path d="M4991.591 1392.303h84.788v-361.128h-84.788zm463.833-3.992c-215.459 31.923-319.705-19.951-319.705-176.072 0-78.311 25.441-131.681 76.815-159.12 51.368-27.429 132.165-33.914 242.384-19.45v48.384c-186.527-21.948-236.401 14.465-236.401 130.186s55.857 151.632 236.908 127.688v48.384zm43.409-50.378c84.292 10.477 147.636 11.972 184.045 7.98 57.351-6.48 71.313-26.933 71.313-50.375 0-34.918-47.376-46.388-102.235-55.366-72.823-13.968-158.102-29.431-157.613-109.738 0-33.914 6.988-55.366 33.422-75.317 38.405-28.929 121.202-35.911 284.78-19.951v45.886c-206.978-16.957-236.401 2.994-236.401 39.908 0 84.791 261.847 16.455 261.847 168.589-1.003 38.408-10.978 69.334-59.849 90.785-46.885 18.452-133.675 25.935-279.31 6.981v-49.382z"/></g></g><g fill="#d2a524" class="B"><path d="M1522.978 614.278c2.318 3.2 4.953 6.422 7.007 9.828l3.892 5.872 3.913-5.915c1.927-3.137 4.298-6.332 6.643-9.516l7.646-9.458V377.142l10.08.871 13.893 1.394 13.983 1.637c9.394 1.083 18.709 2.524 28.087 3.924l14.014 2.361 14.014 2.567c9.346 1.79 18.624 3.94 27.934 6.084l13.94 3.406a399.59 399.59 0 0 1 13.946 3.57l13.967 3.802c4.605 1.436 9.331 2.625 13.967 4.077l13.998 4.256 14.189 4.346c-3.913-3.248-7.752-6.522-11.849-9.495-4.082-3-8.201-5.999-12.435-8.703-4.182-2.846-8.496-5.434-12.821-8.022-4.372-2.456-8.697-5.107-13.185-7.33-4.451-2.329-8.94-4.584-13.47-6.749-4.536-2.149-9.114-4.167-13.729-6.126-4.62-1.912-9.257-3.813-13.956-5.508-4.673-1.785-9.394-3.401-14.109-5.07-4.737-1.579-9.468-3.227-14.257-4.605-4.774-1.463-9.579-2.794-14.395-4.119-9.61-2.699-19.348-4.832-29.111-6.86-4.884-1.019-9.801-1.832-14.711-2.672-4.921-.813-9.859-1.563-14.817-2.149-4.583-.581-9.183-1.083-13.814-1.463-.38-.026-.75-.074-1.125-.1-5.085-.433-9.874-.676-15.424-.776h-.005l-.327-.011-.317.011h-.005c-5.55.1-10.339.343-15.424.776-.375.026-.75.074-1.125.1-4.631.38-9.23.882-13.814 1.463-4.964.586-9.896 1.336-14.817 2.149l-14.711 2.672c-9.769 2.028-19.501 4.161-29.116 6.86l-14.389 4.119c-4.789 1.378-9.521 3.026-14.257 4.605l-14.109 5.07c-4.7 1.695-9.336 3.596-13.956 5.508-4.615 1.959-9.199 3.977-13.729 6.126-4.531 2.165-9.019 4.42-13.47 6.749-4.488 2.223-8.813 4.874-13.185 7.33-4.33 2.588-8.639 5.175-12.821 8.022-4.235 2.704-8.354 5.703-12.435 8.703-4.098 2.973-7.937 6.247-11.855 9.495l14.194-4.346 13.999-4.256c4.636-1.452 9.362-2.64 13.967-4.077l13.962-3.802c4.636-1.273 9.288-2.466 13.956-3.57 4.626-1.236 9.315-2.244 13.94-3.406l27.939-6.084 14.02-2.567c4.668-.877 9.352-1.621 14.035-2.361l28.129-3.924 14.062-1.637 12.779-1.394 9.125-.871v228.871c1.151.481 7.863 8.265 7.863 8.265M1224.22 429.954l4.187-4.204a126 126 0 0 1 8.697-7.747c1.473-1.215 2.983-2.355 4.467-3.433.745-.523 1.489-1.077 2.207-1.526.665-.438 1.589-1.04 1.853-1.083l9.146-1.389-3.992-12.315-2.873-8.751c-.998-2.889-1.795-5.798-3.189-8.555l-3.812-8.302c-.586-1.384-1.315-2.714-2.128-4.008l-2.334-3.908c-1.605-2.561-2.952-5.239-4.874-7.589l-5.412-7.161c-1.885-2.297-4.003-4.415-5.977-6.601-1.933-2.229-4.129-4.198-6.337-6.136-2.207-1.933-4.277-3.966-6.68-5.64-2.35-1.716-4.583-3.544-6.997-5.123l-7.271-4.589-7.514-4.05-7.704-3.528c-2.64-1.003-5.201-2.123-7.863-3-5.27-1.854-10.651-3.359-16.084-4.352l-.021.069c5.075 2.149 9.901 4.748 14.516 7.626 2.334 1.394 4.536 3.005 6.785 4.484l6.421 4.885 6.057 5.244 5.629 5.614c1.838 1.88 3.464 3.977 5.18 5.931 1.774 1.906 3.179 4.13 4.705 6.21s3.026 4.167 4.23 6.448c1.251 2.239 2.63 4.373 3.77 6.633l3.115 6.913c1.156 2.213 1.727 4.721 2.561 7.055l1.172 3.538c.422 1.157.766 2.345.972 3.591l1.531 7.261c.639 2.35.702 4.885.977 7.33l.063.628c-1.135 1.521-2.255 3.037-3.284 4.573-2.587 3.797-4.943 7.642-7.123 11.549-1.13 1.928-2.144 3.913-3.158 5.883-1.046 1.959-2.012 3.94-2.925 5.952-1.927 3.955-3.554 8.032-5.228 12.041-1.489 4.103-3.1 8.106-4.341 12.252-1.373 4.082-2.524 8.217-3.601 12.352-1.199 4.087-1.933 8.318-2.899 12.421-.47 2.06-.755 4.177-1.135 6.247l-1.067 6.221 2.799-5.651c.956-1.869 1.801-3.765 2.83-5.587 2.091-3.633 3.918-7.341 6.183-10.831 2.144-3.538 4.335-7.018 6.706-10.372 2.234-3.422 4.805-6.628 7.203-9.881 2.577-3.142 5.069-6.305 7.789-9.252a91.58 91.58 0 0 1 4.071-4.388M1989.886 328.1c-.57-3.401-1.283-6.76-1.922-10.145l-.993-5.07-.121-.634-.28-1.067-.312-1.178-.639-2.371-2.524-9.463c-1.093-3.359-2.392-6.871-3.612-10.298-.649-1.695-1.178-3.491-1.943-5.112l-2.276-4.89c-1.574-3.243-2.973-6.533-5.011-9.622l-2.862-4.7c-.945-1.568-1.875-3.142-3.079-4.6-2.339-2.936-4.43-6.01-7.028-8.788-10.038-11.27-23.984-20.585-40.063-23.96-16.047-3.707-33.151-.259-46.97 7.288l-2.635 1.394-2.445 1.637-4.863 3.322c-.866.576-1.494 1.13-2.123 1.605l-1.933 1.505-3.86 3.026-15.472 12.421-30.373 25-53.385 44.941-5.323-2.398-6.743-3.031-6.854-2.73-13.708-5.429-13.882-4.89c-4.61-1.69-9.283-3.153-13.956-4.589l-14.041-4.299-14.136-3.913c-4.705-1.341-9.478-2.361-14.215-3.554-4.737-1.183-9.489-2.287-14.273-3.264l-14.321-2.989-14.373-2.704-14.426-2.403-14.474-2.118-14.527-1.806-14.6-1.505c-4.921-.459-9.69-.829-14.917-1.125l-.665-.037-.639.037a399.11 399.11 0 0 0-14.907 1.167c-4.89.444-9.742.993-14.6 1.547l-14.521 1.848-14.458 2.155-14.416 2.44-14.363 2.746c-4.789.877-9.542 2.023-14.31 3.026a301.03 301.03 0 0 0-14.247 3.332c-4.731 1.22-9.489 2.281-14.189 3.639l-14.104 3.966c-4.7 1.326-9.336 2.91-14.009 4.352-4.668 1.458-9.336 2.931-13.93 4.647l-13.84 4.938-13.671 5.482-6.828 2.751-6.722 3.058-5.856 2.667-53.95-45.031-30.479-24.852-15.493-12.241-3.945-3.031-1.97-1.516-.982-.76-1.082-.797-.512-.343-4.066-2.72-2.038-1.362-2.735-1.458-5.587-2.836c-1.869-.892-3.696-1.389-5.555-2.081-3.638-1.463-7.551-2.149-11.422-2.905-1.917-.481-3.923-.475-5.904-.628-1.985-.079-3.966-.301-5.946-.227l-5.946.502c-.993.1-1.985.164-2.968.312l-2.899.665c-15.609 3.327-29.153 12.416-38.949 23.479-9.911 11.111-16.612 23.965-21.719 36.967l-3.548 9.854-2.741 9.986-.681 2.498-.343 1.246-.243.956-.116.602-.961 4.8-1.885 9.659c-2.181 13.989-3.11 27.604-2.64 41.44.692 13.789 2.851 27.503 6.458 40.711 3.596 13.218 8.486 25.914 13.967 38.102 5.444 12.21 11.728 23.817 17.674 35.404l4.462 8.661 2.207 4.33c.57 1.109 1.352 2.852 2.022 4.246 2.994 6.01 5.317 11.433 7.514 17.343 4.325 11.761 7.261 23.976 7.947 36.365s-1.241 24.942-6.141 36.623c-4.779 11.724-12.198 22.555-21.106 32.156 10.387-7.953 19.627-17.85 26.26-29.653 3.438-5.841 5.814-12.257 7.878-18.795 1.695-6.617 2.888-13.44 3.126-20.3.697-13.752-1.489-27.482-5.238-40.526-1.843-6.501-4.219-13.297-6.616-19.18l-1.943-4.705-2.001-4.515-4.018-8.999-15.625-35.525c-4.853-11.792-8.972-23.706-11.849-35.8-2.888-12.088-4.678-24.319-5.043-36.645-.201-12.294.956-24.794 2.968-36.597.602-3.116 1.378-6.358 2.054-9.527l1.051-4.79.063-.317c-.005.048.042-.158.032-.09l.042-.137.079-.275.327-1.109.655-2.218 2.603-8.861c1.035-2.868 2.191-5.672 3.263-8.513 4.605-11.148 10.476-21.662 18.17-29.932 7.646-8.291 17.119-14.026 27.173-15.985l1.869-.433c.634-.074 1.278-.074 1.912-.127l3.818-.269c1.273-.032 2.55.195 3.828.253 1.273.132 2.561.063 3.807.465 2.514.597 5.064.988 7.477 2.081 1.183.486 2.54.834 3.596 1.389a72.2 72.2 0 0 0 3.126 1.642l1.605.797 2.012 1.399 4.024 2.794 6.975 5.571 15.023 12.331 29.961 25.032 59.474 50.782 6.104 5.276 7.799-3.443 12.752-5.635 6.379-2.82 6.516-2.535 13.032-5.059 13.243-4.563c4.393-1.579 8.871-2.941 13.354-4.283l13.449-4.014 13.565-3.654c4.51-1.252 9.114-2.213 13.666-3.338 4.552-1.109 9.114-2.176 13.713-3.116l13.787-2.878 13.84-2.598 13.898-2.313 13.93-2.038 13.967-1.737 13.956-1.436a388.74 388.74 0 0 1 13.037-.998c4.161.259 8.686.613 13.069 1.04 4.642.417 9.299.951 13.946 1.479l13.956 1.78 13.93 2.075 13.882 2.35 13.83 2.64c4.62.845 9.177 1.959 13.766 2.92 4.594.951 9.162 2.023 13.703 3.179l13.629 3.422 13.539 3.707c4.52 1.236 8.95 2.72 13.423 4.072 4.473 1.357 8.94 2.736 13.317 4.336l13.212 4.61 12.99 5.107 6.49 2.561 6.352 2.841 12.71 5.682 8.253 3.691 6.595-5.645 59.68-50.518 30.056-24.884 15.049-12.151 3.839-3.026 1.933-1.516c.671-.512 1.267-1.04 1.78-1.341l3.226-2.197 1.605-1.12 1.711-.871c9.008-4.806 19.099-7.076 28.683-4.901 9.579 1.912 18.656 7.414 26.054 15.494 7.461 7.98 13.143 18.557 17.695 29.193l3.195 8.075 2.82 9.379.702 2.345.359 1.172.084.296.011.032.079.354 1.019 4.515 2.017 9.046c2.186 12.125 3.316 24.335 3.279 36.549-.18 12.21-1.7 24.398-4.467 36.449-5.449 24.176-16.222 47.439-26.973 71.383-5.286 11.787-10.92 24.277-14.738 37.389-3.881 13.055-6.205 26.838-5.666 40.727.121 6.939 1.473 13.831 3.121 20.538 2.022 6.638 4.562 13.097 8.058 18.985 6.838 11.798 16.396 21.779 27.142 29.225-8.57-10.108-15.657-20.854-20.229-32.583-2.498-5.74-3.797-11.856-5.006-17.855-.333-3.063-.84-6.084-.95-9.152-.005-3.079-.269-6.115-.005-9.189.512-12.257 3.316-24.419 7.504-36.164 4.187-11.782 9.97-22.882 16.053-34.59 5.977-11.507 12.177-23.199 17.816-35.33 5.597-12.167 10.598-24.868 14.321-38.118 3.733-13.239 6.162-27.002 7.034-40.912.639-13.91-.317-27.815-2.323-41.482"/><path d="M1897.669 311.316l-7.868 3-7.699 3.533-7.519 4.045-7.271 4.594c-2.408 1.574-4.642 3.401-6.991 5.117-2.397 1.674-4.478 3.707-6.68 5.645l-6.337 6.131-5.983 6.606-5.402 7.156c-1.927 2.35-3.269 5.027-4.879 7.589l-2.334 3.908c-.813 1.294-1.547 2.625-2.128 4.014l-3.812 8.296c-1.394 2.757-2.191 5.672-3.189 8.555l-2.873 8.751h-.005l-3.987 12.315 9.146 1.394c.264.037 1.183.644 1.848 1.077l2.213 1.531 4.467 3.427a127.83 127.83 0 0 1 8.697 7.747l4.187 4.204a91.58 91.58 0 0 1 4.071 4.388c2.719 2.947 5.207 6.11 7.789 9.252 2.397 3.253 4.964 6.459 7.203 9.881 2.371 3.353 4.562 6.834 6.706 10.377 2.265 3.485 4.098 7.193 6.178 10.826 1.03 1.822 1.88 3.718 2.836 5.587l2.793 5.651-1.067-6.221c-.38-2.07-.66-4.183-1.135-6.242-.961-4.109-1.695-8.339-2.888-12.421-1.077-4.14-2.234-8.275-3.612-12.357-1.236-4.14-2.851-8.143-4.33-12.252-1.684-4.003-3.3-8.085-5.238-12.041-.903-2.007-1.88-3.992-2.92-5.946-1.014-1.975-2.033-3.955-3.163-5.888a150.14 150.14 0 0 0-7.118-11.549c-1.03-1.537-2.154-3.052-3.284-4.568l.063-.634c.275-2.44.338-4.98.977-7.33l1.531-7.261c.206-1.241.549-2.435.972-3.586l1.167-3.538c.834-2.339 1.415-4.848 2.561-7.061l3.121-6.907c1.141-2.266 2.514-4.399 3.77-6.638 1.209-2.281 2.704-4.362 4.23-6.448 1.521-2.081 2.936-4.304 4.7-6.21 1.727-1.954 3.343-4.045 5.18-5.931l5.629-5.614 6.057-5.244 6.432-4.885c2.239-1.479 4.446-3.089 6.775-4.484 4.615-2.878 9.441-5.471 14.516-7.626l-.021-.063c-5.423.993-10.809 2.493-16.079 4.346m-497.609 361.585c-2.271-2.519-4.742-5.814-7.15-9.743s-4.626-8.624-6.104-13.915l-.586-1.991-.38-2.086c-.211-1.405-.639-2.783-.655-4.267-.09-1.463-.248-2.936-.385-4.425l.111-4.579c-.063-1.537.322-3.105.496-4.679l.723-5.133c.306-1.568.454-4.066.47-6.126.005-2.102-.185-4.256-.517-6.448-.723-4.383-2.498-8.941-5.465-12.854-2.925-3.918-6.97-7.124-11.411-9.025-8.913-3.961-18.592-3.845-27.274-1.753-8.718 2.186-16.776 6.432-23.355 12.231-.803.745-1.626 1.458-2.408 2.229l-1.135 1.172-.565.591-.285.29-.137.148-.074.074-.422.507-3.416 4.6c-1.193 2.049-2.345 4.346-3.379 6.522a91.29 91.29 0 0 0-1.78 6.538c-1.479 8.904.734 17.248 3.881 23.902 3.158 6.744 7.366 12.157 11.474 16.772 4.245 4.499 8.417 8.254 12.441 11.132 1.948 1.51 3.818 2.846 5.65 3.934 1.79 1.146 3.443 2.17 5.001 2.984 3.036 1.759 5.56 2.862 7.271 3.607l2.619 1.13-2.218-1.796-2.661-2.118-3.459-3.021c-1.315-1.088-2.672-2.408-4.129-3.855l-2.292-2.218-2.339-2.498c-3.269-3.38-6.495-7.573-9.832-12.125-3.1-4.721-6.088-10.002-8.206-15.758-2.054-5.767-2.778-12.056-1.452-17.749l1.431-4.146c.729-1.135 1.262-2.229 1.933-3.475l3.401-4.114.116-.111.222-.217.449-.438.898-.877c.618-.57 1.278-1.098 1.906-1.653 5.217-4.251 11.485-7.504 18.064-9.089 6.527-1.679 13.433-1.553 18.851.639s8.972 6.506 10.387 12.257c.312 1.447.565 2.92.676 4.452.042 1.558.206 2.672.048 4.626l-.216 5.365c-.021 1.891-.248 3.734-.021 5.582.121 7.388 2.207 14.216 4.7 19.999 1.225 2.936 2.772 5.534 4.267 7.964 1.684 2.313 3.226 4.505 4.948 6.348 3.274 3.802 6.627 6.585 9.484 8.661 2.814 2.134 5.259 3.454 6.907 4.341 1.648.882 2.587 1.225 2.587 1.225s-.787-.613-2.149-1.859c-1.383-1.225-3.3-3.137-5.55-5.682m357.561-58.659l-3.38-6.522-3.416-4.6-.422-.507-.069-.074-.143-.148-.28-.29-.565-.591-1.141-1.172-2.403-2.229c-6.579-5.798-14.637-10.05-23.355-12.236-8.686-2.091-18.36-2.202-27.279 1.753-4.441 1.906-8.486 5.112-11.411 9.03-2.962 3.913-4.742 8.471-5.455 12.854-.338 2.192-.528 4.346-.523 6.448.011 2.06.164 4.552.47 6.126l.723 5.133c.174 1.574.56 3.142.496 4.679l.106 4.579-.38 4.425c-.016 1.484-.449 2.862-.66 4.267l-.38 2.081-.586 1.991c-1.473 5.297-3.691 9.992-6.099 13.921s-4.884 7.224-7.155 9.743c-2.249 2.545-4.166 4.457-5.55 5.682-1.362 1.246-2.149 1.859-2.149 1.859s.94-.343 2.593-1.225c1.648-.887 4.092-2.207 6.907-4.341 2.857-2.075 6.205-4.858 9.484-8.661 1.716-1.843 3.258-4.035 4.942-6.348 1.5-2.429 3.042-5.033 4.272-7.964 2.492-5.783 4.573-12.611 4.7-19.999.232-1.848 0-3.691-.021-5.582l-.222-5.365c-.153-1.954.011-3.068.053-4.626.106-1.531.359-3.005.676-4.452 1.41-5.751 4.964-10.06 10.387-12.262 5.418-2.186 12.325-2.313 18.846-.634 6.585 1.584 12.847 4.837 18.064 9.089.634.554 1.294 1.083 1.906 1.653l.903.877.449.438.227.217.106.111h.005l3.395 4.114c.676 1.246 1.204 2.339 1.933 3.475l1.431 4.146c1.325 5.693.613 11.982-1.447 17.749-2.117 5.751-5.106 11.037-8.211 15.758-3.337 4.552-6.564 8.745-9.827 12.125l-2.339 2.498-2.297 2.213c-1.447 1.452-2.809 2.773-4.124 3.86l-3.459 3.021-2.661 2.118-2.218 1.796 2.619-1.13c1.711-.75 4.235-1.848 7.266-3.612 1.568-.808 3.216-1.832 5.001-2.978 1.843-1.088 3.702-2.429 5.655-3.934 4.018-2.878 8.195-6.633 12.441-11.132 4.103-4.621 8.311-10.029 11.48-16.772 3.142-6.654 5.349-14.998 3.871-23.902a88.5 88.5 0 0 0-1.78-6.538"/></g><path d="M1604.444 1464.905h-38.331v-40.204c0-10.995-8.913-19.909-19.907-19.909h-27.817c-10.994 0-19.902 8.914-19.902 19.909v40.204h-40.205c-10.994 0-19.907 8.914-19.907 19.909v27.815c0 10.995 8.913 19.909 19.907 19.909h40.205v38.334c0 10.995 8.908 19.909 19.902 19.909h27.817c10.994 0 19.907-8.914 19.907-19.909v-38.334h38.331c10.994 0 19.907-8.914 19.907-19.909v-27.815c0-10.995-8.913-19.909-19.907-19.909" class="B C"/><g fill="#d2a524" class="B"><path d="M1408.094 1287.704c43.743 8.006-32.2-13.503-53.708-14.781-3.49-.206 4.842.945 1.463 0l-14.342-1.167c12.879 1.167 14.468 1.415 7.467.481-7.012-.834-14.136-.634-21.201-.829-7.176.327-14.49 1.019-21.623 1.616l-20.409 3.459c-6.4.951-12.763 2.287-19.221 2.968l-9.742.676c-3.247.164-6.49.628-9.764.433l-9.811-.164c-3.269-.037-6.548-.042-9.806-.47l-9.811-.94-4.906-.47-4.869-.829c-6.484-1.183-13.048-1.975-19.432-3.718-6.432-1.542-12.895-2.968-19.189-5.08l-9.505-2.91c-3.147-1.061-6.236-2.287-9.357-3.422l-9.32-3.517-9.146-3.977c-12.23-5.255-23.952-11.613-35.49-18.267l-8.412-5.365c-2.83-1.759-5.624-3.57-8.28-5.556l-8.106-5.809-7.725-6.247c-2.667-2.038-4.958-4.283-7.34-6.48l-3.58-3.301c-1.199-1.088-2.308-2.45-3.459-3.665l-3.438-3.744-.861-.94-.296-.317-.401-.491-1.6-1.975-6.421-7.879-92.64-113.356c.364.269.713.565 1.098.808l4.9 3.359 5.159 2.941c1.706 1.046 3.522 1.806 5.307 2.688 3.554 1.806 7.261 3.174 10.962 4.658l5.629 1.933c1.885.655 3.797 1.146 5.708 1.727a160.23 160.23 0 0 0 11.569 2.883c3.892.85 7.81 1.563 11.77 2.149 1.975.317 3.971.554 5.972.803 2.054.222 3.945.438 6.257.565 2.656.127 5.386-.898 7.287-3.042 3.321-3.749 2.978-9.485-.771-12.806l-1.331-1.183-.026-.016c-6.099-4.478-12.372-9.527-18.376-14.565-6.041-5.08-11.95-10.314-17.705-15.7-11.48-10.794-22.453-22.117-32.364-34.173-4.974-6.015-9.721-12.188-14.062-18.578-4.325-6.385-8.449-12.896-11.892-19.661-3.485-6.744-6.479-13.657-8.771-20.691l-1.521-5.302c-.481-1.748-.745-3.375-1.151-5.059-.422-1.526-.634-3.749-.924-5.682l-.359-2.614-.111-2.794c-.111-3.734-.401-7.436-.396-11.19l.618-11.38c.201-3.797.94-7.626 1.378-11.439l.782-5.725 1.135-5.714c.818-3.808 1.373-7.642 2.397-11.423l2.867-11.38c.998-3.786 2.218-7.536 3.311-11.307 1.072-3.776 2.302-7.52 3.601-11.248 2.429-7.499 5.249-14.887 8.016-22.296l7.203-17.564.216 3.612c.428 5.904.914 13.06 2.651 19.835.903 3.443 1.985 6.907 3.77 10.403 1.774 3.448 4.024 7.045 7.968 10.092 1.03.739 2.012 1.473 3.3 2.033.618.29 1.22.581 1.864.824a38.43 38.43 0 0 0 2.07.56c1.362.407 2.867.359 4.304.412 1.394-.132 2.878-.29 4.156-.702 5.275-1.648 8.665-4.948 11.163-8.08 2.513-3.206 4.224-6.538 5.555-9.854 1.399-3.322 2.292-6.654 3.115-9.97 1.526-6.638 2.186-13.239 2.286-19.767.106-6.538-.227-12.917-.892-19.444l-2.228-18.24c-.433-2.989-.412-5.999-.644-9.009-.19-3.01-.375-6.026-.28-9.036.058-3.015-.021-6.047.137-9.062l.628-9.052c.702-6.004 1.389-12.046 2.582-18.013 1.119-5.978 2.603-11.898 4.378-17.744 1.811-5.835 3.849-11.623 6.294-17.263 2.424-5.651 5.175-11.18 8.491-16.418-4.034 4.716-7.482 9.949-10.598 15.357-1.621 2.672-2.989 5.482-4.473 8.244-1.32 2.836-2.741 5.64-3.892 8.56-2.424 5.788-4.557 11.713-6.337 17.765-1.843 6.031-3.242 12.199-4.42 18.415l-1.415 9.395c-.417 3.137-.602 6.3-.903 9.463-.359 3.158-.422 6.332-.475 9.506-.016 3.169-.28 6.364-.084 9.537l.422 9.532.56 9.199c.227 5.814.18 11.819-.28 17.638-.481 5.83-1.325 11.576-2.809 16.941-1.5 5.26-3.654 10.499-6.511 13.725-1.368 1.632-2.878 2.556-3.58 2.672-.359.053-.486.048-.697-.063-.1-.026-.232-.058-.401-.211-.164-.016-.38-.28-.607-.438-.945-.782-2.149-2.53-3.063-4.605-.966-2.054-1.658-4.563-2.213-7.119-1.104-5.292-1.299-10.551-1.5-16.989-.195-6.136-.248-11.977-.074-18.019.206-5.962.602-11.882 1.352-17.57.343-2.862.866-5.603 1.442-8.217.317-1.273.644-2.519 1.009-3.628.169-.465.343-.94.502-1.315l.517-.998.169-.322a10.1 10.1 0 0 0-3.358-13.081c-4.642-3.084-10.899-1.822-13.983 2.82l-.106-.729c-.18.296-.301-.169-.422-.169h-.011c-.026 0-.053.988-.074 1.04-.185.322-.306.998-.407 1.204-3.855 7.092-7.234 14.274-10.635 21.388-3.512 7.388-6.891 14.945-10.107 22.476-3.269 7.499-6.278 15.172-9.283 22.793-2.846 7.694-5.735 15.399-8.248 23.241-1.331 3.882-2.603 7.811-3.717 11.787l-3.432 11.903-2.999 12.067c-1.056 3.998-1.663 8.159-2.513 12.231l-1.188 6.142c-.327 2.07-.554 4.167-.84 6.247-.475 4.188-1.23 8.302-1.452 12.553l-.639 12.754c0 4.288.602 8.634.771 12.949l.433 3.237v.1l-.216.47-.1.19-.016.375.074.745.195 1.495c.327 2.044.465 3.845 1.035 6.232.496 2.239.935 4.589 1.526 6.717l1.832 6.305c2.725 8.281 6.199 16.17 10.128 23.722 3.913 7.578 8.454 14.692 13.185 21.615 4.742 6.918 9.853 13.509 15.171 19.888 10.603 12.79 22.152 24.604 34.18 35.821 5.581 5.186 11.316 10.187 17.135 15.082-2.154-.121-4.314-.19-6.463-.412-1.822-.211-3.68-.333-5.486-.623l-5.465-.829c-3.585-.734-7.255-1.368-10.772-2.424-1.764-.507-3.591-.903-5.296-1.568l-5.233-1.843-5.053-2.26c-1.743-.692-3.295-1.679-4.911-2.593-1.595-.945-3.3-1.764-4.742-2.942l-4.536-3.322-.032-.026-.032-.032c-.396-.359-.998-.396-1.436-.063-.502.38-.602 1.093-.222 1.59l98.185 129.769 6.157 8.101 1.537 2.028.385.507.539.634.824.966 3.306 3.86c1.141 1.283 2.128 2.598 3.39 3.839l3.754 3.744c2.514 2.493 5.001 5.064 7.657 7.24l7.857 6.807 8.216 6.316c2.704 2.165 5.534 4.14 8.396 6.063l8.544 5.857c11.696 7.298 23.625 14.285 36.118 20.168l9.357 4.447c3.147 1.426 6.374 2.656 9.568 3.992l9.616 3.887 9.827 3.38c6.5 2.413 13.217 4.156 19.918 5.994 6.648 2.049 13.539 3.142 20.351 4.61l5.117 1.051 5.196.681 10.392 1.352c3.459.554 6.96.692 10.466.861l10.508.523c3.501.312 7.023-.042 10.54-.1l10.566-.386c7.028-.502 14.025-1.69 21.053-2.53l19.818-2.482 18.973-.475 9.705.422c3.232.111 6.474.069 9.695.512l9.705.845c3.258.127 6.474.644 9.705 1.109l9.732 1.246 9.674 1.838c6.484 1.109 29 8.661 35.453 10.155-16.824-10.683-19.601-5.857-1.315.729 15.773 5.677 61.459 71.124 80.775 77.271-10.086-9.258-47.561-75.37-58.824-84.295-21.571-17.094-26.038-12.711-34.091-13.319m762.513-377.566c-.222-4.251-.977-8.365-1.447-12.553l-.845-6.247-1.188-6.142c-.85-4.072-1.457-8.233-2.519-12.225l-2.994-12.067c-1.04-4.003-2.292-7.927-3.427-11.898-1.119-3.977-2.392-7.89-3.728-11.777-2.508-7.837-5.397-15.515-8.243-23.21l-9.283-22.74c-3.211-7.525-6.595-14.972-10.107-22.365-3.401-7.113-6.78-14.074-10.64-21.166-.095-.201-.216-1.326-.396-1.648-.032-.053-.058-1.035-.079-1.035h-.011c-.121 0-.243.459-.417.169l-.111.285c-2.836-4.241-8.502-5.55-13.111-3.116-4.927 2.604-6.807 8.819-4.203 13.746l.143.333c.174.327.349.702.517 1.03.164.375.333.866.496 1.331.37 1.109.697 2.361 1.014 3.633.576 2.619 1.098 5.36 1.447 8.222.745 5.688 1.146 11.608 1.352 17.57.164 6.047.121 11.887-.079 18.019-.206 6.437-.396 11.703-1.5 16.994-.554 2.556-1.246 5.059-2.218 7.113-.908 2.081-2.107 3.829-3.063 4.605-.227.158-.444.422-.602.444-.169.148-.306.185-.401.211-.206.111-.338.111-.697.063-.702-.116-2.213-1.04-3.58-2.672-2.857-3.232-5.011-8.465-6.511-13.725-1.484-5.371-2.329-11.116-2.809-16.941-.454-5.825-.507-11.824-.28-17.638l.56-9.199.422-9.537c.201-3.169-.069-6.364-.079-9.532-.058-3.179-.121-6.348-.475-9.511-.312-3.158-.486-6.327-.903-9.463l-1.42-9.395c-1.178-6.216-2.577-12.379-4.42-18.415-1.774-6.047-3.918-11.972-6.337-17.765-1.151-2.915-2.572-5.725-3.886-8.555-1.484-2.767-2.857-5.571-4.483-8.249-3.11-5.402-6.558-10.636-10.593-15.357 3.316 5.239 6.073 10.773 8.491 16.418 2.445 5.64 4.488 11.428 6.289 17.263 1.78 5.846 3.269 11.771 4.388 17.749 1.193 5.962 1.875 12.004 2.577 18.008l.634 9.052c.153 3.021.079 6.047.127 9.062.106 3.015-.084 6.031-.275 9.041-.232 3.005-.206 6.015-.644 9.009l-2.228 18.235c-.665 6.533-.998 12.912-.887 19.45.095 6.522.755 13.123 2.276 19.761.829 3.322 1.727 6.654 3.121 9.976 1.331 3.316 3.042 6.643 5.555 9.849 2.498 3.137 5.893 6.432 11.168 8.08 1.273.412 2.756.576 4.15.708 1.436-.058 2.946-.005 4.304-.417a35.21 35.21 0 0 0 2.07-.56c.639-.238 1.246-.533 1.864-.819 1.288-.56 2.271-1.294 3.3-2.033 3.945-3.047 6.199-6.643 7.968-10.097 1.79-3.491 2.873-6.96 3.77-10.398 1.743-6.781 2.223-13.931 2.651-19.835.09-1.183.137-2.413.211-3.612l7.213 17.564c2.762 7.404 5.581 14.797 8.01 22.291 1.294 3.728 2.529 7.473 3.601 11.248l3.311 11.307 2.873 11.38c1.019 3.786 1.579 7.62 2.392 11.423l1.135 5.719c.312 1.906.517 3.813.787 5.725.433 3.808 1.178 7.642 1.373 11.439l.623 11.38c0 3.755-.296 7.457-.401 11.19l-.111 2.794-.354 2.609c-.301 1.938-.512 4.161-.935 5.682-.401 1.69-.671 3.311-1.141 5.059l-1.531 5.302c-2.286 7.04-5.286 13.952-8.766 20.696-3.443 6.76-7.562 13.276-11.897 19.661-4.33 6.39-9.077 12.558-14.051 18.573-9.922 12.056-20.89 23.384-32.374 34.173a441.93 441.93 0 0 1-17.7 15.7c-5.999 5.038-12.277 10.087-18.376 14.565l-.026.021-1.362 1.215c-1.98 1.769-3.163 4.394-3.01 7.256.28 5.001 4.557 8.83 9.558 8.555 2.308-.127 4.203-.338 6.252-.56l5.972-.808c3.96-.581 7.889-1.299 11.775-2.144a157.53 157.53 0 0 0 11.569-2.889c1.912-.581 3.823-1.067 5.703-1.722l5.634-1.938c3.702-1.484 7.408-2.846 10.968-4.653 1.78-.882 3.596-1.648 5.302-2.688l5.154-2.947 4.906-3.353c.385-.243.734-.539 1.104-.808l-92.646 113.356-6.416 7.879-1.6 1.97-.407.491c.121-.137-.216.232-.296.322l-.861.935-3.438 3.749c-1.151 1.215-2.26 2.577-3.459 3.665l-3.575 3.301c-2.387 2.192-4.673 4.441-7.34 6.48l-7.731 6.247-8.1 5.804c-2.661 1.991-5.455 3.797-8.285 5.561l-8.417 5.365c-11.533 6.654-23.255 13.007-35.479 18.267l-9.151 3.977c-3.068 1.262-6.215 2.339-9.32 3.517l-9.352 3.417-9.515 2.915c-6.289 2.107-12.758 3.538-19.179 5.075-6.389 1.748-12.958 2.535-19.437 3.718l-4.869.834-4.911.47-9.801.94c-3.263.428-6.537.433-9.811.465l-9.811.169c-3.274.19-6.511-.269-9.764-.433l-9.742-.676c-6.458-.681-12.816-2.017-19.216-2.968l-20.409-3.464-21.629-1.611c-7.06.19-14.183-.011-21.201.829-7.007.929-14.062 1.558-20.895 3.306l-3.886.892-12.293 2.339c-9.88 1.965-18.656 4.008-25.172 6.443-12.853 5.318-25.246 12.379-35.881 21.182-26.746 22.132-44.171 72.587-54.257 81.844 12.034-6.437 49.172-59.126 63.218-69.075 10.952-7.763 20.013-14.079 32.749-17.633 6.458-1.495 12.81-3.264 19.3-4.373l9.669-1.838 9.732-1.252c3.232-.465 6.453-.982 9.705-1.104l9.705-.845c3.221-.444 6.458-.407 9.7-.512l9.7-.422c6.363.016 12.583.296 18.973.47l19.812 2.482c7.028.84 14.03 2.033 21.064 2.53l10.561.386c3.517.063 7.039.417 10.54.106l10.513-.528c3.501-.164 7.002-.301 10.461-.856l10.392-1.352 5.196-.687 5.117-1.046c6.807-1.468 13.703-2.567 20.351-4.61 6.696-1.843 13.418-3.58 19.918-5.999l9.827-3.38c3.237-1.215 6.41-2.593 9.621-3.887 3.184-1.336 6.421-2.567 9.563-3.987l9.362-4.447c12.494-5.888 24.422-12.875 36.118-20.173l8.539-5.857c2.867-1.917 5.692-3.892 8.396-6.057l8.211-6.321 7.868-6.802c2.656-2.181 5.138-4.753 7.651-7.24l3.754-3.744c1.262-1.241 2.249-2.561 3.385-3.839l3.306-3.86.834-.966.533-.639.38-.502 1.542-2.028 6.152-8.101 98.19-129.774a1.12 1.12 0 0 0-.058-1.436 1.13 1.13 0 0 0-1.595-.09l-.037.032-.032.032-4.536 3.322c-1.436 1.172-3.147 1.996-4.742 2.941-1.616.914-3.168 1.896-4.906 2.593l-5.059 2.26-5.233 1.838c-1.7.665-3.533 1.067-5.302 1.574-3.517 1.056-7.181 1.685-10.767 2.424l-5.465.829c-1.811.285-3.665.407-5.486.623-2.144.217-4.304.29-6.469.412 5.83-4.895 11.559-9.897 17.14-15.082 12.029-11.217 23.572-23.036 34.186-35.821 5.312-6.379 10.429-12.97 15.165-19.893s9.272-14.032 13.18-21.615c3.934-7.552 7.414-15.436 10.133-23.717l1.838-6.305c.586-2.134 1.03-4.484 1.531-6.723.565-2.387.718-4.183 1.035-6.226l.216-1.495.111-.75.053-.37-.312-.19-.29-.47v-.1l.507-3.243c.169-4.315.676-8.661.676-12.949l-.47-12.748z"/><path d="M1149.262 896.063c-4.003-4.246-7.419-8.999-10.608-13.91-1.479-2.524-3.073-5.038-4.272-7.594-.634-1.304-1.325-2.466-1.938-3.903l-1.827-4.32c-1.151-2.508-2.075-5.666-3.126-8.471-.993-2.905-2.123-5.762-2.994-8.703-1.684-5.899-3.654-11.74-4.958-17.755l-2.154-8.988-1.832-9.073c-.671-3.015-1.061-6.078-1.558-9.136-.459-3.052-1.024-6.105-1.32-9.184l-1.051-9.236-.718-9.279c-.338-6.195-.644-12.405-.692-18.631-.09-6.226.09-12.452.396-18.689.412-6.226.855-12.463 1.774-18.663-3.105 12.157-4.779 24.667-5.861 37.215-.565 6.279-.84 12.585-.956 18.895l-.026 9.485.322 9.479c.053 3.174.38 6.321.602 9.479.253 3.163.417 6.337.855 9.479l1.13 9.463c.422 3.153 1.051 6.268 1.574 9.405.961 6.3 2.603 12.463 3.955 18.7.713 3.11 1.695 6.152 2.535 9.236.95 3.121 1.568 6.047 2.793 9.331l1.547 4.431c.523 1.484 1.283 3.105 1.922 4.653 1.283 3.2 2.846 6.089 4.362 9.062 3.242 5.798 6.812 11.502 11.094 16.646 8.454 10.393 18.867 19.128 30.199 26.077 5.671 3.485 11.58 6.548 17.679 9.115 6.094 2.572 12.325 4.753 18.64 6.575 5.529 1.621 11.147 2.852 16.808 3.845-2.308 2.107-4.557 4.299-6.659 6.67-7.192 8.053-13.28 17.855-16.021 29.124a54.83 54.83 0 0 0-1.42 17.226c.433 5.756 1.769 11.343 3.67 16.593l.755 1.954.375.977.19.486.264.591.1.206 1.611 3.311c1.204 2.239 2.946 5.302 4.504 7.404 3.121 4.626 6.822 8.576 10.582 12.379 7.678 7.399 16.09 13.593 24.813 18.959 4.346 2.73 8.803 5.191 13.286 7.589 4.494 2.355 9.035 4.605 13.624 6.696 9.162 4.225 18.492 7.958 27.923 11.365a408.97 408.97 0 0 0 14.247 4.816c4.816 1.521 9.515 2.936 14.595 4.272l.021.005 7.393 1.975 2.281-13.841c.011-.063-.412-1.23-.576-2.007-.216-.887-.407-1.801-.528-2.773-.29-1.906-.422-3.908-.407-5.931.074-4.045.422-8.196 1.521-12.31 1.938-8.238 5.671-16.308 10.466-23.844 1.082-1.938 2.466-3.739 3.754-5.593 1.31-1.843 2.508-3.739 4.018-5.476l4.293-5.334 4.721-5.624c3.121-3.639 6.247-7.636 9.368-11.481l9.03-11.703c5.888-7.874 11.707-15.795 17.235-23.896 5.544-8.09 10.915-16.286 16.174-24.556 10.545-16.514 20.393-33.439 29.697-50.739l6.785-13.123.84-1.653.322-.665.18-.417.37-.834 1.463-3.332c.998-2.107 1.885-4.721 2.793-7.172 3.475-9.833 5.977-19.381 7.915-29.188 1.922-9.754 3.39-19.55 4.325-29.383.945-9.823 1.674-19.656 1.727-29.521.121-9.854-.116-19.714-1.019-29.563-.169-2.461-.459-4.917-.808-7.372-.327-2.456-.591-4.906-1.082-7.356-.481-2.456-.776-4.869-1.41-7.346-.581-2.382-1.019-4.705-1.721-7.124-2.587-9.654-6.083-18.848-10.392-27.699-4.362-8.777-9.494-17.248-16.1-24.419 5.624 7.927 9.732 16.741 13.191 25.687 3.353 8.978 5.798 18.346 7.43 27.635.475 2.287.745 4.769 1.125 7.15.385 2.271.502 4.705.76 7.04.275 2.345.338 4.737.459 7.113a114.79 114.79 0 0 1 .216 7.145c.222 9.527-.206 19.101-.987 28.633a372.12 372.12 0 0 1-3.348 28.459c-1.399 9.442-3.453 18.747-5.613 27.963-2.202 9.152-5.075 18.304-8.422 26.637-.871 2.06-1.579 4.04-2.756 6.279l-1.6 3.264-.401.819-.201.407-.048.106c.227-.47.032-.074.069-.158l-.106.201-.85 1.568c-2.255 4.198-4.61 8.37-6.981 12.532-9.552 16.624-19.881 32.879-30.447 48.933-5.317 8.006-10.74 15.943-16.317 23.754-5.523 7.847-11.163 15.605-16.94 23.236l-8.792 11.322-9.067 11.037-4.652 5.513-4.863 5.983c-1.669 1.938-3.1 4.13-4.605 6.237-1.494 2.123-2.983 4.241-4.256 6.548-5.428 8.92-9.88 18.758-12.203 29.473-1.267 5.302-1.769 10.905-1.658 16.54.016.665.09 1.336.132 2.001l-.412-.127a390.13 390.13 0 0 1-13.634-4.61c-9.03-3.258-17.938-6.828-26.592-10.815-4.341-1.975-8.597-4.093-12.795-6.29-4.166-2.234-8.306-4.515-12.267-7.013-7.995-4.895-15.451-10.456-21.909-16.677-3.121-3.163-6.173-6.411-8.528-9.949-.686-.887-1.162-1.706-1.642-2.508l-.745-1.209a8.81 8.81 0 0 1-.787-1.421l-1.611-3.306-1.014-2.635c-2.915-7.927-3.675-16.17-1.706-24.034 1.906-7.879 6.368-15.331 12.208-21.868 2.899-3.285 6.205-6.311 9.679-9.136 1.758-1.399 3.554-2.746 5.397-4.014 1.785-1.23 3.865-2.54 5.423-3.401l26.049-14.433-29.93-1.463c-5.365-.269-11.569-.988-17.346-1.943a205.17 205.17 0 0 1-17.404-3.818c-11.485-3.037-22.484-7.541-32.755-13.171-5.154-2.799-10.006-6.073-14.595-9.664-4.626-3.554-8.861-7.578-12.736-11.914m347.772 183.947l1.278 3.512 1.046 3.126 4.018 13.181c1.378 4.373 2.952 8.735 5.18 12.664 2.213 3.918 5.296 7.314 8.692 9.178 3.438 1.748 6.585 2.303 9.04 2.292 2.471.143 4.319-.275 5.571-.496l1.843-.37c.053.005.671.132 1.853.37 1.246.222 3.1.639 5.571.496 2.45.011 5.603-.544 9.04-2.292 3.395-1.864 6.479-5.26 8.692-9.178 2.228-3.929 3.802-8.291 5.175-12.664l4.018-13.181 1.046-3.126 1.283-3.512c.681-1.621 1.373-2.762 2.144-3.522.766-.75 1.632-1.193 3.005-1.674 1.368-.454 3.237-.718 5.354-.803 4.267-.264 9.331.201 14.828.18 2.772.016 5.682-.106 8.803-.623 3.1-.512 6.553-1.458 9.769-3.517 1.605-.977 3.11-2.287 4.341-3.718 1.241-1.294 2.709-3.818 2.894-4.484l.56-1.241.333-1.056.639-2.086c.491-1.362.623-2.778.818-4.146.686-5.503-.132-10.504-1.415-14.692-1.347-4.193-3.232-7.615-5.011-10.483-1.764-2.878-3.675-5.096-5.228-6.881-3.195-3.517-5.407-5.075-5.407-5.075l.713 1.78c.491 1.135 1.046 2.883 1.822 4.996.713 2.149 1.463 4.779 2.202 7.721.655 2.963 1.188 6.295 1.341 9.759.1 3.459-.269 7.034-1.405 10.282-.327.792-.512 1.637-.982 2.371l-.591 1.146-.143.285h0l-.032.048-.121.18-.248.37c-.306.454-.729 1.157-.797 1.003-.148.042-.137.106-.412.264-.396.306-.787.549-1.325.729-1.003.38-2.445.708-4.298.824-1.848.106-4.024.021-6.368-.1-4.71-.296-10.012-.908-16.127-.687-3.057.18-6.395.602-9.927 1.827a22.62 22.62 0 0 0-9.801 6.596c-2.661 3.058-4.145 6.617-5.001 9.743l-.935 3.617c-.306 1.31-.554 2.677-.818 3.992-.966 5.149-1.463 9.881-1.943 14.248-.459 4.357-.935 8.222-1.748 11.47-.803 3.248-1.959 5.835-3.644 7.821-1.764 1.843-3.828 3.396-5.835 4.214-.998.396-1.89.871-2.73 1.151l-2.144.655-1.806.581c-.042-.016-.649-.211-1.795-.581l-2.149-.655c-.834-.28-1.727-.755-2.725-1.151-2.007-.819-4.077-2.371-5.84-4.214-1.679-1.986-2.836-4.573-3.638-7.821-.818-3.248-1.288-7.113-1.748-11.47-.481-4.367-.977-9.099-1.943-14.248-.264-1.315-.512-2.683-.824-3.992l-.935-3.617c-.855-3.126-2.334-6.686-5.006-9.743-2.614-3.089-6.273-5.429-9.79-6.596-3.533-1.225-6.87-1.648-9.927-1.827-6.115-.222-11.416.391-16.132.687-2.339.121-4.515.206-6.363.1-1.853-.116-3.295-.444-4.298-.824a4.26 4.26 0 0 1-1.325-.729c-.275-.158-.264-.222-.412-.264-.069.153-.491-.549-.803-1.003l-.248-.37-.116-.18-.032-.048-.143-.285-.597-1.146c-.47-.734-.655-1.579-.977-2.371-1.135-3.248-1.505-6.823-1.41-10.282.153-3.464.692-6.797 1.347-9.759.739-2.941 1.484-5.571 2.202-7.721.776-2.112 1.331-3.86 1.822-4.996l.713-1.78s-2.213 1.558-5.407 5.075c-1.558 1.785-3.464 4.003-5.228 6.881-1.78 2.868-3.67 6.29-5.011 10.483-1.283 4.188-2.107 9.189-1.415 14.692.19 1.368.327 2.783.813 4.146l.639 2.086.338 1.056.554 1.241c.19.665 1.658 3.19 2.894 4.484 1.236 1.431 2.741 2.741 4.346 3.718 3.216 2.06 6.664 3.005 9.758 3.517 3.131.518 6.041.639 8.808.623 5.497.021 10.566-.444 14.833-.18 2.117.085 3.987.349 5.349.803 1.373.481 2.239.924 3.01 1.674.766.76 1.463 1.901 2.144 3.522"/><path d="M1376.1 756.783c7.461 0 13.47-6.01 13.47-13.466 0-7.462-6.009-13.472-13.47-13.472-1.484 0-2.867.269-4.219.708 2.799 1.283 4.763 4.087 4.763 7.362 0 4.457-3.612 8.101-8.069 8.101-2.366 0-4.488-1.046-5.941-2.635a13.47 13.47 0 0 0 13.465 13.403m-15.392-43.344c.275 0 .544.032.813.069l3.812.401 3.543.475.539.1 2.772.507c7.9 1.521 15.118 3.95 21.634 7.293 1.051.539 2.059 1.077 3.073 1.685 1.283.745 2.529 1.521 3.744 2.297a94.12 94.12 0 0 1 2.096 1.452c.914.676 1.822 1.347 2.735 2.091.776.607 1.426 1.252 2.17 1.922.676.576 1.864 1.183 1.864 1.79v.037c0 3.274 1.648 6.68 1.648 10.229 0 17.755-13.143 32.679-30.59 34.902-.982-.069-1.896-.169-2.836-.269-.137-.032-.253-.069-.396-.032-3.976-.475-7.852-1.252-11.496-2.26-2.598-.882-5.972-2.165-10.498-3.95-.063 0-.095-.037-.164-.069-1.283-.644-2.529-1.283-3.712-1.996-.037 0-.069-.063-.069-.063-7.192-5.202-10.461-16.44-10.461-26.262 0-12.695 6.748-24.203 17.616-30.482.739.032 1.452.063 2.16.132m-14.273 65.489c.069.069.095.1.164.1a58.54 58.54 0 0 0 2.741 1.521c.264.169.533.301.808.407.201.1.37.164.57.264 3.781 1.859 7.9 2.862 12.256 4.077 6.073 2.06 9.109 2.017 12.995 2.017h.063 1.151.032c.808 0 1.79.956 2.904.956.1 0 .201.306.301.275 2.197.169 4.388.391 6.585.391 9.484 0 18.36-1.442 23.73-3.977 14.078-6.68 21.37-7.351 23.825-7.351.613 0 1.019.053 1.114.053l8.913 3.079-1.679-9.178c-4.726-17.855-12.282-32.499-22.843-43.541v-.032l-1.595-.845c-14.986-14.718-35.548-22.914-60.387-24.16l-1.758-.164h-.037c-28.72 0-53.063 7.42-54.04 7.758l-32.913 11.66 34.872-1.732c.945-.069 1.853-.058 2.73-.058 7.968 0 10.703 1.965 11.511 2.841.713.745.745 1.421.745 1.421l-.069.745c-.808 29.774 13.534 45.374 27.311 53.475m-16.488 336.29l-8.707 1.03c-3.327.544-7.097 1.014-11.142 1.854-4.066.718-8.428 1.669-13.016 2.778-4.61.982-9.357 2.508-14.31 3.823-4.869 1.642-9.954 3.11-14.97 5.07s-10.133 3.813-15.055 6.2l-7.419 3.385-7.144 3.808c-2.339 1.299-4.731 2.435-6.954 3.829l-6.564 4.124c-2.133 1.394-4.319 2.593-6.278 4.066l-5.756 4.262-5.428 4.019c-1.679 1.389-3.237 2.815-4.768 4.14-3.026 2.688-5.867 5.049-8.227 7.314l-5.856 6.131-5.08 5.328 5.576-4.806 6.379-5.482c2.561-2.001 5.608-4.061 8.824-6.406l5.059-3.586 5.708-3.411 6.004-3.586c2.038-1.241 4.293-2.207 6.49-3.348l6.743-3.364c2.276-1.13 4.71-2.001 7.092-3.031l7.224-2.989 7.461-2.545c4.921-1.822 10.028-3.105 14.991-4.505s9.97-2.318 14.738-3.422c4.853-.776 9.473-1.785 13.935-2.281 4.441-.618 8.644-1.114 12.536-1.405 3.881-.417 7.451-.496 10.593-.708l8.121-.153c2.26 0 3.971.037 5.059.09l1.832.079.116-16.878-2.012.111c-1.415.069-3.379.227-5.793.465m8.475 71.82c-2.038 1.917-3.929 4.045-5.861 6.105l-5.497 6.374-4.964 6.422-4.293 6.21c-1.394 1.949-2.492 3.94-3.58 5.714l-2.857 4.895-2.022 3.871-1.753 3.353 2.36-2.963 2.704-3.38c1.003-1.326 2.345-2.672 3.691-4.214l4.499-4.816 5.243-5.123 5.861-5.154 6.3-4.959 6.511-4.589 6.5-4.087c4.256-2.551 8.364-4.647 11.907-6.29 3.533-1.669 6.542-2.788 8.597-3.554l2.281-.745.824-.248-6.294-15.658-.993.512c-.75.386-1.637.903-2.783 1.563-2.244 1.362-5.375 3.301-8.887 5.872-3.527 2.551-7.493 5.666-11.485 9.247-2.017 1.764-4.034 3.654-6.009 5.64m617.37-401.245l-1.051 9.236-1.32 9.184-1.558 9.136-1.832 9.073-2.154 8.988c-1.304 6.015-3.274 11.856-4.958 17.755-.871 2.941-2.001 5.798-2.994 8.698-1.051 2.809-1.975 5.967-3.126 8.471l-1.827 4.325c-.613 1.436-1.299 2.598-1.938 3.903-1.199 2.551-2.793 5.07-4.277 7.594-3.184 4.911-6.601 9.664-10.603 13.91-3.876 4.336-8.111 8.354-12.736 11.914-4.589 3.586-9.441 6.865-14.595 9.664-10.27 5.629-21.27 10.134-32.755 13.165-5.735 1.521-11.548 2.809-17.41 3.823-5.766.956-11.976 1.669-17.341 1.943l-29.93 1.463 26.049 14.433c1.558.861 3.638 2.17 5.423 3.401 1.843 1.267 3.644 2.614 5.397 4.014 3.475 2.82 6.78 5.851 9.684 9.136 5.835 6.538 10.297 13.989 12.203 21.868 1.97 7.863 1.204 16.107-1.706 24.034l-1.014 2.635-1.611 3.306a8.82 8.82 0 0 1-.787 1.421l-.745 1.209c-.481.803-.956 1.621-1.642 2.508-2.355 3.538-5.407 6.786-8.528 9.949-6.458 6.221-13.914 11.782-21.903 16.677-3.96 2.498-8.105 4.779-12.272 7.013-4.198 2.192-8.454 4.309-12.795 6.284-8.655 3.992-17.563 7.562-26.592 10.821-4.515 1.616-9.067 3.158-13.634 4.61l-.412.127c.042-.665.116-1.336.137-2.001.106-5.635-.396-11.238-1.663-16.545-2.323-10.71-6.775-20.553-12.198-29.473-1.278-2.308-2.767-4.42-4.261-6.543-1.505-2.107-2.936-4.299-4.605-6.237l-4.863-5.983-4.652-5.513c-3.211-3.713-6.057-7.367-9.067-11.042l-8.792-11.317c-5.777-7.631-11.416-15.389-16.94-23.236-5.571-7.816-10.999-15.748-16.317-23.754-10.566-16.054-20.895-32.309-30.447-48.933l-6.981-12.532-.85-1.568-.106-.201c.037.079-.158-.312.074.158l-.053-.106-.201-.407-.401-.819-1.6-3.269c-1.178-2.234-1.885-4.214-2.756-6.274-3.348-8.333-6.215-17.485-8.417-26.637-2.165-9.215-4.219-18.52-5.618-27.963-1.479-9.427-2.598-18.932-3.348-28.464-.782-9.527-1.209-19.101-.987-28.628a114.79 114.79 0 0 1 .216-7.145c.121-2.376.185-4.769.459-7.113.264-2.334.375-4.769.76-7.045.385-2.376.65-4.858 1.125-7.145 1.626-9.289 4.077-18.658 7.43-27.641 3.459-8.941 7.567-17.755 13.191-25.681-6.606 7.172-11.738 15.642-16.1 24.419-4.309 8.851-7.805 18.045-10.392 27.699-.702 2.419-1.141 4.742-1.721 7.124-.628 2.477-.929 4.89-1.41 7.346-.491 2.445-.755 4.901-1.082 7.356-.343 2.456-.639 4.911-.808 7.372-.903 9.849-1.141 19.709-1.019 29.563.053 9.86.782 19.698 1.727 29.521.935 9.828 2.403 19.629 4.325 29.383 1.938 9.807 4.441 19.355 7.915 29.183.908 2.456 1.795 5.064 2.793 7.177l1.463 3.332.37.829.18.422.322.665.84 1.653c2.197 4.42 4.483 8.777 6.785 13.118 9.304 17.306 19.152 34.231 29.697 50.745 5.259 8.27 10.635 16.461 16.174 24.556 5.529 8.101 11.342 16.022 17.235 23.896l9.03 11.697 9.368 11.486 4.721 5.624 4.293 5.328c1.51 1.743 2.709 3.639 4.018 5.482 1.288 1.854 2.672 3.649 3.754 5.593 4.795 7.536 8.528 15.605 10.471 23.844 1.098 4.114 1.442 8.265 1.515 12.31a36.96 36.96 0 0 1-.407 5.931c-.121.972-.312 1.885-.528 2.773-.164.776-.581 1.938-.576 2.007l2.281 13.841 7.398-1.975.016-.005c5.08-1.336 9.779-2.751 14.595-4.272 4.779-1.516 9.526-3.132 14.247-4.816 9.431-3.406 18.761-7.145 27.923-11.365 4.594-2.091 9.13-4.346 13.624-6.696 4.478-2.398 8.94-4.858 13.286-7.589 8.723-5.365 17.135-11.56 24.813-18.959 3.76-3.802 7.461-7.752 10.582-12.379 1.558-2.102 3.3-5.17 4.504-7.404l1.611-3.311.1-.206.264-.591.19-.486.375-.977.755-1.954c1.901-5.249 3.237-10.837 3.67-16.593a54.97 54.97 0 0 0-1.415-17.226c-2.746-11.27-8.834-21.071-16.026-29.124-2.102-2.371-4.351-4.563-6.659-6.67 5.661-.993 11.279-2.223 16.808-3.845 6.321-1.827 12.546-4.003 18.645-6.575s12.002-5.629 17.674-9.115c11.332-6.95 21.745-15.684 30.199-26.077 4.282-5.149 7.852-10.847 11.094-16.646 1.515-2.973 3.084-5.862 4.362-9.067.639-1.547 1.399-3.163 1.922-4.647l1.547-4.431c1.225-3.285 1.848-6.216 2.793-9.331.84-3.084 1.822-6.126 2.535-9.236 1.357-6.237 2.994-12.4 3.955-18.7.523-3.137 1.151-6.258 1.574-9.405l1.13-9.463c.438-3.142.602-6.321.861-9.479.222-3.158.544-6.311.597-9.479l.322-9.485-.026-9.479c-.116-6.311-.391-12.621-.956-18.901-1.082-12.542-2.756-25.053-5.861-37.21.919 6.195 1.362 12.437 1.774 18.663.306 6.232.486 12.463.396 18.689-.048 6.226-.354 12.437-.692 18.631l-.718 9.279z"/><path d="M1659.332 732.005l5.37-4.288 2.867-1.959 2.936-1.785 3.068-1.69c6.521-3.343 13.74-5.772 21.639-7.293.914-.201 1.827-.338 2.767-.502l.544-.106 3.543-.47c1.246-.169 2.529-.306 3.812-.407.269-.032.539-.069.813-.069a47.02 47.02 0 0 1 2.16-.132c10.899 6.279 17.616 17.792 17.616 30.482 0 9.86-3.269 21.129-10.529 26.331a2.44 2.44 0 0 1-.539.338c-1.014.576-2.059 1.114-3.142 1.653-4.657 1.859-8.1 3.137-10.767 4.019-3.612 1.046-7.424 1.785-11.374 2.229a2.69 2.69 0 0 0-.539.069l-2.704.269c-17.547-2.266-30.748-17.153-30.748-34.907 0-3.512.539-6.955 1.484-10.198.539-.539 1.114-1.04 1.721-1.584m101.163-11.544c.877 0 1.785 0 2.735.069l34.83 1.753-32.908-11.708c-.982-.338-25.246-7.758-54.003-7.758h-.037l-1.383.164c-24.845 1.246-45.919 9.4-60.905 24.118l-1.7.887v.037c-10.561 11.037-18.017 25.687-22.738 43.547l-2.276 9.247 9.193-3.105s.512-.063 1.426-.063c2.498 0 9.806.708 23.884 7.356 5.365 2.567 14.273 4.087 23.788 4.087a88.22 88.22 0 0 0 6.558-.238c.106.032.211.032.317.032 1.114 0 2.128-.718 2.904-.887.407-.069.813-.687 1.183-.687h.106c3.812 0 6.886.042 12.858-1.98 4.251-1.178 8.306-2.424 12.018-4.251.201-.063.401-.026.607-.127 1.278-.644 2.561-1.252 3.876-1.991.069-.037.143-.037.211-.1 13.766-8.069 28.045-23.648 27.237-53.422l-.069-.734s.132-.671.639-1.283c.745-.908 3.411-2.963 11.649-2.963m-69.195 36.322c7.456 0 13.47-6.01 13.502-13.403-1.489 1.59-3.58 2.635-5.941 2.635a8.13 8.13 0 0 1-8.105-8.101c0-3.274 1.964-6.078 4.763-7.362-1.315-.438-2.735-.708-4.219-.708a13.47 13.47 0 0 0-13.47 13.472 13.47 13.47 0 0 0 13.47 13.466m-21.369 440.569c-93.691 20.944-133.691-33.671-133.691-35.9v-.106a.14.14 0 0 0 0 .048c-.011-.011 0-.048 0-.048v.106c-5.28 2.234-42.534 56.844-136.225 35.9 0 0 83.093 51.611 134.958-.259 53.877 53.876 134.958.259 134.958.259m203.282-22.431c-2.36-2.26-5.201-4.621-8.227-7.314l-4.768-4.14-5.428-4.019-5.756-4.262c-1.959-1.473-4.145-2.672-6.278-4.066l-6.564-4.124c-2.223-1.389-4.615-2.53-6.954-3.823l-7.144-3.813-7.419-3.385c-4.921-2.387-10.038-4.235-15.06-6.2-5.011-1.959-10.096-3.427-14.965-5.07-4.953-1.31-9.7-2.836-14.31-3.818-4.589-1.109-8.95-2.065-13.016-2.783-4.045-.834-7.815-1.304-11.142-1.848l-8.707-1.035c-2.413-.238-4.377-.396-5.793-.465l-2.012-.111.116 16.878 1.832-.079c1.088-.053 2.799-.09 5.059-.09 2.223-.032 4.974.079 8.121.158 3.142.206 6.711.285 10.593.702 3.892.296 8.095.787 12.536 1.405 4.462.496 9.082 1.505 13.935 2.281 4.768 1.109 9.779 2.023 14.738 3.422s10.065 2.688 14.991 4.51l7.461 2.545 7.224 2.989c2.381 1.025 4.816 1.901 7.092 3.026l6.738 3.364c2.197 1.141 4.457 2.112 6.495 3.348l6.004 3.591 5.708 3.411c1.774 1.194 3.432 2.435 5.059 3.586 3.216 2.345 6.263 4.399 8.824 6.401l6.379 5.487 5.576 4.8-10.936-11.46m-177.568 5.937l8.602 3.554c3.543 1.642 7.646 3.739 11.907 6.29a104.52 104.52 0 0 1 6.495 4.087c2.223 1.399 4.341 3.021 6.516 4.589 2.186 1.558 4.203 3.322 6.294 4.959 2.049 1.685 3.944 3.475 5.861 5.154 1.885 1.7 3.564 3.491 5.243 5.123 1.706 1.611 3.11 3.311 4.499 4.816 1.347 1.542 2.693 2.889 3.691 4.214l2.704 3.38 2.36 2.963-1.753-3.359-2.022-3.866c-.745-1.521-1.806-3.095-2.857-4.895-1.088-1.774-2.186-3.771-3.575-5.714-1.362-1.959-2.725-4.114-4.298-6.21-1.6-2.07-3.2-4.288-4.958-6.422-1.811-2.086-3.559-4.325-5.497-6.374-1.933-2.06-3.828-4.188-5.867-6.105a116.36 116.36 0 0 0-6.004-5.64 141.87 141.87 0 0 0-11.49-9.247c-3.506-2.572-6.643-4.51-8.887-5.872l-2.783-1.563-.993-.512-6.294 15.658.824.243c.433.116 1.257.401 2.281.75m-329.048-59.242c2.651 1.685 5.571 3.47 8.697 5.302 3.237 1.611 6.722 3.206 10.355 4.806 1.79.882 3.707 1.521 5.666 2.139a184.65 184.65 0 0 0 5.93 1.891l3.02.929 3.121.65 6.284 1.252c4.214.745 8.539.94 12.736 1.294 2.123.016 4.224-.032 6.305-.09 2.07-.032 4.113-.074 6.125-.396l5.888-.76c1.906-.349 3.765-.787 5.56-1.209 3.601-.739 6.891-2.07 9.906-3.1 2.962-1.283 5.629-2.471 7.878-3.813 2.302-1.172 4.135-2.572 5.655-3.596 2.983-2.244 4.388-3.834 4.388-3.834l-1.457.407c-.914.301-2.345.539-4.055 1.003-1.769.338-3.855.792-6.273 1.183-2.381.475-5.148.676-8.053 1.098-2.973.164-6.094.644-9.463.634-1.679.011-3.374.169-5.122.164-1.758-.079-3.538-.074-5.349-.106-3.607.032-7.345-.523-11.11-.639-3.76-.628-7.609-.808-11.406-1.568l-5.708-1.024-2.846-.486-2.799-.687c-3.691-1.019-7.467-1.526-10.973-2.672-3.527-1.056-6.991-1.959-10.297-2.852a278.07 278.07 0 0 0-9.22-2.973l-4.193-1.22-3.717-1.294c-2.329-.856-4.436-1.479-6.162-2.023-3.475-1.072-5.56-1.568-5.56-1.568s1.463 1.495 4.224 3.897c1.378 1.193 3.057 2.677 5.069 4.251l3.184 2.551 3.77 2.461m14.472 44.709l3.596 1.949 4.14 1.753a295.75 295.75 0 0 0 9.505 3.676c3.469 1.003 7.176 1.959 11.036 2.889 1.922.544 3.923.84 5.951 1.098 2.033.301 4.098.576 6.173.813l3.142.37 3.184.095 6.41.111c4.277-.011 8.57-.586 12.763-.982 2.091-.359 4.156-.787 6.183-1.209 2.033-.401 4.04-.803 5.962-1.473l5.661-1.796c1.816-.687 3.564-1.442 5.259-2.181 3.416-1.362 6.416-3.253 9.199-4.8 2.688-1.79 5.106-3.433 7.076-5.154 2.054-1.558 3.612-3.258 4.927-4.542 2.54-2.736 3.644-4.547 3.644-4.547l-1.362.655c-.845.454-2.218.951-3.812 1.706-1.679.65-3.654 1.468-5.967 2.276-2.255.898-4.948 1.579-7.731 2.514-2.899.687-5.882 1.711-9.204 2.297-1.648.312-3.29.771-5.011 1.072-1.743.232-3.49.554-5.275.845-3.548.671-7.324 1.769-11.057 2.324-3.807.048-7.625 1.458-11.496 1.458h-5.798l-2.888-.945-2.878-.671c-3.818-.354-7.62-.422-11.274-.929l-10.64-1.098-9.6-1.357-4.346-.486-3.886-.628c-2.44-.428-4.626-.676-6.426-.908-3.601-.438-5.745-.56-5.745-.56s1.706 1.209 4.847 3.089c1.574.929 3.48 2.091 5.74 3.279m336.075-57.872l-5.56 1.563-6.162 2.023-3.717 1.299-4.198 1.22-9.214 2.973-10.302 2.846c-3.501 1.151-7.282 1.653-10.973 2.677l-2.793.687-2.857.481-5.703 1.03c-3.791.76-7.641.94-11.401 1.568-3.77.116-7.509.665-11.115.639l-5.344.106c-1.748.005-3.443-.158-5.127-.169-3.364.011-6.484-.465-9.463-.628-2.899-.422-5.671-.623-8.053-1.098-2.418-.391-4.51-.845-6.278-1.183-1.7-.465-3.137-.708-4.045-1.003l-1.457-.407s1.399 1.59 4.388 3.834c1.521 1.025 3.353 2.424 5.655 3.596 2.249 1.341 4.916 2.53 7.878 3.808 3.01 1.035 6.294 2.366 9.901 3.1 1.795.428 3.654.861 5.566 1.209 1.912.296 3.881.512 5.888.76 2.007.322 4.055.364 6.125.401l6.305.09c4.193-.354 8.523-.549 12.736-1.294l6.284-1.252 3.121-.655 3.02-.924a184.65 184.65 0 0 0 5.93-1.891c1.954-.618 3.876-1.262 5.661-2.139 3.638-1.6 7.118-3.2 10.355-4.806a284.27 284.27 0 0 0 8.702-5.302l3.765-2.461 3.189-2.551c2.012-1.574 3.686-3.058 5.064-4.251 2.762-2.403 4.23-3.897 4.23-3.897m-135.962 53.03c1.975 1.716 4.388 3.359 7.081 5.149 2.778 1.553 5.782 3.438 9.193 4.806 1.69.734 3.443 1.495 5.259 2.176 1.832.628 3.733 1.188 5.661 1.796 1.922.676 3.929 1.077 5.962 1.479l6.183 1.204c4.193.396 8.491.977 12.763.988l6.41-.116 3.189-.09 3.131-.375c2.086-.238 4.145-.512 6.173-.808 2.038-.259 4.04-.555 5.951-1.104 3.865-.929 7.577-1.88 11.047-2.889 3.406-1.246 6.59-2.487 9.5-3.676l4.145-1.753 3.596-1.943c2.249-1.194 4.166-2.355 5.74-3.285 3.137-1.88 4.847-3.089 4.847-3.089s-2.149.116-5.75.554c-1.795.232-3.981.475-6.421.898l-3.892.618-4.346.454a262.82 262.82 0 0 0-9.595 1.294l-10.645.977c-3.654.507-7.461.333-11.268.687l-2.878 1.157-2.888.951h-5.803c-3.865 0-7.688-1.41-11.501-1.458-3.728-.56-7.504-1.167-11.047-1.838-1.785-.29-3.538-.856-5.28-1.088-1.727-.301-3.358-.887-5.011-1.194-3.321-.586-6.305-1.674-9.204-2.361-2.778-.935-5.471-1.648-7.731-2.54-2.308-.813-4.282-1.642-5.967-2.297-1.589-.755-2.962-1.257-3.807-1.711l-1.362-.66s1.098 1.811 3.638 4.547c1.315 1.278 2.873 2.978 4.927 4.542m-114.566 128.824c-6.173-8.317-13.191-15.991-20.641-23.3-3.918-3.475-7.852-7.298-11.881-10.24-3.802-3.037-8.48-6.638-13.307-9.083-4.805-2.699-9.901-4.6-15.007-6.337-5.148-1.516-10.339-2.82-15.54-3.707-10.408-1.854-20.794-2.815-31.102-3.306-20.604-.956-40.908-.713-60.942-1.695-20.002-.892-39.82-2.825-58.65-7.832-3.686-.977-7.324-2.102-10.915-3.311l3.295-3.57c1.357-1.458 2.719-3.015 4.224-4.547l4.879-4.505 5.148-4.742c1.737-1.627 3.754-3.037 5.666-4.6l5.909-4.674c1.996-1.568 4.209-2.92 6.331-4.415l6.458-4.399 6.78-4.019c4.446-2.788 9.188-5.096 13.756-7.478s9.294-4.304 13.724-6.358c4.594-1.759 8.908-3.686 13.185-5.086 4.214-1.516 8.227-2.857 11.976-3.94 3.712-1.199 7.187-2.007 10.234-2.857l7.915-1.811c2.213-.459 3.892-.776 4.969-.945l1.811-.296-3.343-16.545-1.943.518c-1.373.359-3.263.914-5.576 1.642-2.35.708-5.122 1.695-8.317 2.788-3.142 1.215-6.733 2.445-10.524 4.087-3.834 1.537-7.91 3.364-12.171 5.387-4.309 1.901-8.649 4.367-13.228 6.665-4.436 2.604-9.109 5.08-13.624 8.022-4.504 2.947-9.14 5.804-13.47 9.147l-6.569 4.832-6.215 5.191c-2.022 1.748-4.135 3.348-6.025 5.165l-5.587 5.381c-1.801 1.796-3.691 3.422-5.307 5.26l-4.763 5.344-4.494 5.049c-1.362 1.706-2.598 3.422-3.823 5.027l-3.443 4.563c-4.821-1.7-9.542-3.617-14.115-5.825-4.277-2.102-8.164-4.114-12.636-6.96l-1.626-.993-.76-.47c-.021-.011-.053-.037-.037-.026l-.185-.132-.37-.264-2.978-2.134-5.956-4.262c-7.836-5.798-15.06-12.294-21.703-19.275-1.758-1.669-3.121-3.649-4.705-5.455-1.489-1.875-3.152-3.628-4.546-5.571-2.693-3.934-5.682-7.705-7.894-11.919-2.561-4.045-4.425-8.407-6.458-12.701l-2.477-6.654c-.797-2.229-1.325-4.536-2.007-6.797-1.193-4.573-1.975-9.221-2.535-13.873-.164-2.329-.417-4.668-.396-6.966-.084-2.244.084-4.769.253-6.49l.005-.005h0l-13.296-2.361-5.814 32.784-.623-3.385-.929-5.059-1.125-5.249c-.66-3.528-1.753-6.929-2.682-10.377-.935-3.448-2.249-6.754-3.364-10.145-1.236-3.332-2.661-6.591-3.992-9.886l-4.573-9.611-5.117-9.316-5.608-9.009-6.088-8.687-6.527-8.344c-2.239-2.725-4.626-5.328-6.928-7.995-4.795-5.17-9.705-10.24-14.97-14.913l-3.908-3.559-4.071-3.359c-2.735-2.218-5.391-4.536-8.264-6.554l-8.549-6.205-8.935-5.857c-2.973-1.917-5.909-3.491-8.871-5.255l-4.557-2.662-4.172-2.53c-5.692-3.211-10.862-7.119-15.878-11.138-2.339-2.181-4.853-4.209-7.071-6.501-2.081-2.403-4.414-4.616-6.321-7.145-1.806-2.593-3.976-4.959-5.46-7.742l-2.445-4.045c-.76-1.378-1.378-2.825-2.075-4.23-1.283-2.382-2.128-4.943-3.079-7.462 2.693 2.883 5.766 5.566 9.399 7.779 2.218 1.5 4.784 2.519 7.498 3.522a67.87 67.87 0 0 0 4.673 1.061c.892.206 1.241.121 1.848.185l1.653.079.829.042.412.074.206.063h.718l.058-.058.127-.048 2.001-.232c1.32-.206 2.682-.238 3.966-.613l3.865-1.03c1.278-.375 2.466-.966 3.696-1.452 1.241-.475 2.424-1.046 3.533-1.748 1.125-.66 2.281-1.294 3.374-2.001 2.022-1.6 4.23-3.042 5.967-4.917.908-.898 1.843-1.774 2.709-2.709l2.392-2.947c1.684-1.917 2.82-4.146 4.214-6.221 1.246-2.155 2.265-4.404 3.364-6.617.845-2.292 1.78-4.568 2.524-6.886.613-2.339 1.325-4.668 1.822-7.024l1.199-7.098.602-7.108c.084-2.366.037-4.721.058-7.082.09-2.339-.28-4.785-.407-7.166l-.29-3.602-.486-3.285-1.019-6.712c-.354-2.017-.628-4.008-.792-5.957-.301-3.802-.211-7.768.787-10.087.449-1.215.945-1.875 1.473-2.234.528-.38 1.362-.697 2.693-.776 2.672-.153 6.41.76 9.975 2.186 3.554 1.415 7.366 3.406 10.492 5.418h.005l13.022 8.666-2.693-15.769-1.373-8.038c-.444-2.677-.544-5.429-.84-8.138-.354-2.709-.253-5.466-.312-8.212l-.053-4.119.253-4.135c.206-5.508.972-11.021 1.663-16.535l1.468-8.244c.502-2.746 1.251-5.466 1.853-8.196.586-2.746 1.378-5.445 2.16-8.149.792-2.704 1.489-5.429 2.44-8.09l2.693-8.038 2.925-7.98c2.07-5.281 4.14-10.578 6.5-15.758 2.26-5.228 4.742-10.361 7.234-15.5l7.952-15.193c2.704-5.049 5.608-9.981 8.438-14.972l8.898-14.739 9.257-14.56c6.315-9.617 12.731-19.202 19.501-28.554 6.748-9.368 13.592-18.695 20.768-27.794-4.224 3.977-8.269 8.138-12.251 12.363-3.976 4.225-7.947 8.476-11.723 12.891l-11.258 13.313c-3.691 4.489-7.361 9.009-10.857 13.667-3.538 4.621-6.986 9.321-10.371 14.063-3.374 4.753-6.632 9.59-9.874 14.449-3.179 4.895-6.331 9.812-9.288 14.861-3.047 4.985-5.882 10.118-8.744 15.23l-8.069 15.642c-2.646 5.249-5.006 10.652-7.361 16.054l-3.38 8.185-3.005 8.354c-1.046 2.767-1.853 5.629-2.741 8.465s-1.774 5.666-2.461 8.571c-.713 2.899-1.552 5.756-2.149 8.687l-1.758 8.809c-.898 5.936-1.816 11.887-2.033 17.945l-.275 4.531.037 4.557c.058 3.037-.042 6.073.327 9.115.158 1.505.264 3.01.391 4.52-.153-.063-.285-.137-.438-.201-4.626-1.753-9.579-3.364-15.778-3.11-3.063.164-6.659 1.061-9.737 3.29-3.121 2.192-5.127 5.424-6.194 8.323-.665 1.51-.866 2.889-1.251 4.341-.174 1.357-.454 2.783-.502 4.082-.174 2.662-.084 5.186.106 7.647.206 2.456.533 4.837.945 7.172l.972 6.385.481 3.269.216 3.005c.084 2.023.428 3.971.333 6.052l-.042 6.168-.512 6.089-1.009 5.962c-.417 1.965-1.019 3.86-1.505 5.798-.607 1.885-1.373 3.691-2.033 5.55-.887 1.727-1.674 3.522-2.635 5.186-1.093 1.563-1.938 3.348-3.211 4.726l-1.774 2.213c-.634.681-1.325 1.299-1.98 1.959-1.246 1.405-2.825 2.334-4.23 3.507-.76.486-1.558.903-2.329 1.368-.755.502-1.558.882-2.392 1.183-.824.312-1.616.745-2.461.982l-2.535.665c-.84.285-1.721.232-2.572.38l-1.267.164-.148-.005-.834-.042-1.653-.079c-.486-.048-1.267 0-1.436-.153a10.29 10.29 0 0 0-1.764-.507c-1.368-.581-3.005-1.104-4.42-2.128-2.962-1.774-5.766-4.352-8.264-7.362a65.05 65.05 0 0 1-6.849-9.849c-2.001-3.485-3.913-7.399-5.275-10.889l-9.257-23.738-3.733 24.926c-.354 2.382-.412 4.077-.507 6.057.005 1.885-.063 3.786.084 5.645.095 1.869.211 3.734.486 5.571.211 1.854.444 3.702.85 5.508.602 3.676 1.69 7.219 2.698 10.784 1.336 3.448 2.434 7.003 4.161 10.271.813 1.658 1.558 3.353 2.445 4.964l2.851 4.737c1.774 3.243 4.219 5.999 6.342 8.988 2.213 2.92 4.837 5.461 7.25 8.201 2.54 2.609 5.344 4.911 8.01 7.367 5.613 4.526 11.406 8.867 17.626 12.389l4.594 2.772 4.288 2.508c2.91 1.737 6.004 3.401 8.76 5.191l8.211 5.392c2.714 1.854 5.354 3.897 8.037 5.841 2.719 1.896 5.217 4.087 7.789 6.173l3.844 3.158 3.659 3.348c4.958 4.394 9.568 9.162 14.057 14.005l6.5 7.488 6.104 7.8 5.676 8.106 5.222 8.391 4.758 8.65 4.23 8.898 3.68 9.12c1.009 3.11 2.239 6.158 3.084 9.31.84 3.147 1.859 6.263 2.45 9.463l1.024 4.769.924 5.022 7.345 40.336 6.727 36.956 6.564-36.983 4.71-26.563 1.093 3.132c2.176 4.954 4.245 9.981 7.023 14.618 2.445 4.843 5.661 9.162 8.634 13.662 1.515 2.223 3.332 4.198 5.011 6.29 1.753 2.023 3.321 4.241 5.238 6.089 7.335 7.768 15.266 14.908 23.746 21.214l6.432 4.626 3.216 2.308.401.29.201.143.412.264.813.502 1.621.998c4.098 2.635 9.193 5.397 14.041 7.768 3.955 1.896 7.989 3.586 12.071 5.154l-2.64 4.246 3.115-4.061c5.74 2.181 11.58 4.061 17.489 5.534 20.578 5.175 41.494 6.95 62.067 7.536 20.589.539 40.955-.164 60.979.322 9.991.28 19.918.724 29.581 2.118 9.647 1.384 19.073 3.628 27.532 7.631 4.362 1.943 7.921 4.388 12.24 7.446 4.325 2.862 7.894 5.936 11.823 8.909 7.356 6.253 44.071 60.583 46.854 61.608 12.414 4.579-3.95-3.66-24.438-40.246-17.61-31.448 44.087 83.429 48.438 92.639-2.878-9.796-22.907-62.368-27.648-71.467-4.721-9.12-10.234-17.865-16.406-26.172"/><path d="M1611.638 1290.484c6.711-7.409 8.317-10.15 15.889-16.529 3.929-2.978 7.493-6.047 11.823-8.914 4.309-3.052 7.868-5.503 12.235-7.446 8.465-3.998 17.88-6.247 27.527-7.631 9.663-1.394 19.591-1.838 29.592-2.118 20.018-.486 40.385.217 60.979-.317 20.562-.591 41.483-2.366 62.061-7.541 5.93-1.479 11.786-3.364 17.547-5.556l3.137 4.082-2.656-4.267c4.055-1.563 8.079-3.243 12.008-5.133 4.847-2.366 9.948-5.133 14.035-7.768l1.626-.998.808-.496.412-.269.201-.143.407-.29 3.216-2.308 6.432-4.621c8.48-6.311 16.406-13.451 23.746-21.214 1.922-1.854 3.485-4.066 5.238-6.089 1.674-2.097 3.496-4.072 5.011-6.295 2.973-4.499 6.189-8.819 8.639-13.662 2.767-4.637 4.842-9.664 7.023-14.618l1.088-3.126 4.715 26.558 6.558 36.983 6.727-36.956 7.345-40.331.929-5.027 1.024-4.769c.586-3.195 1.605-6.316 2.45-9.463.84-3.153 2.07-6.2 3.084-9.31 1.135-3.068 2.461-6.073 3.675-9.12l4.235-8.898 4.752-8.65 5.222-8.391 5.682-8.101 6.099-7.8c2.096-2.556 4.335-4.991 6.5-7.488 4.488-4.848 9.093-9.611 14.057-14.005l3.665-3.353 3.844-3.153c2.572-2.091 5.059-4.278 7.783-6.179 2.688-1.938 5.323-3.987 8.042-5.841l8.201-5.392c2.762-1.785 5.856-3.454 8.76-5.191l4.298-2.508 4.594-2.773c6.215-3.522 12.008-7.863 17.621-12.384 2.672-2.461 5.476-4.763 8.01-7.372 2.413-2.736 5.038-5.281 7.255-8.196 2.117-2.994 4.568-5.746 6.342-8.993l2.846-4.737c.887-1.611 1.626-3.306 2.45-4.964 1.727-3.269 2.82-6.823 4.156-10.266 1.003-3.57 2.091-7.113 2.704-10.784.401-1.811.634-3.66.85-5.508.264-1.838.391-3.702.475-5.577.158-1.859.079-3.76.09-5.645-.095-1.975-.153-3.676-.512-6.057l-3.733-24.926-9.251 23.743c-1.357 3.491-3.279 7.399-5.28 10.884a64.62 64.62 0 0 1-6.843 9.849c-2.498 3.01-5.302 5.587-8.264 7.362-1.415 1.025-3.052 1.547-4.425 2.134a10.6 10.6 0 0 0-1.764.502c-.164.153-.945.106-1.431.153l-1.658.079-.824.042-.153.011-1.273-.169c-.85-.148-1.732-.095-2.566-.375l-2.535-.671c-.84-.238-1.637-.671-2.461-.982-.829-.301-1.642-.676-2.392-1.183-.771-.465-1.568-.882-2.329-1.362-1.399-1.178-2.978-2.102-4.23-3.512-.655-.66-1.341-1.278-1.98-1.959l-1.769-2.207c-1.283-1.384-2.128-3.169-3.216-4.726-.961-1.669-1.753-3.464-2.64-5.191-.66-1.854-1.42-3.665-2.033-5.55-.481-1.938-1.082-3.834-1.5-5.793l-1.009-5.967-.512-6.089c-.069-2.049-.021-4.109-.048-6.163-.09-2.086.248-4.035.343-6.052l.211-3.01.486-3.269.961-6.385c.412-2.334.75-4.716.95-7.172s.28-4.985.1-7.647c-.042-1.299-.317-2.725-.491-4.082-.385-1.452-.591-2.831-1.262-4.341-1.067-2.899-3.073-6.131-6.189-8.323-3.073-2.229-6.675-3.121-9.732-3.29-6.199-.253-11.158 1.357-15.783 3.11-.153.063-.285.137-.433.201l.391-4.52c.37-3.042.269-6.078.317-9.115l.042-4.557-.28-4.526c-.216-6.063-1.125-12.009-2.028-17.95l-1.758-8.809c-.602-2.926-1.442-5.788-2.149-8.682-.686-2.91-1.568-5.74-2.455-8.576-.892-2.831-1.7-5.693-2.746-8.465l-3.005-8.354-3.374-8.185c-2.36-5.402-4.726-10.805-7.366-16.054-2.545-5.302-5.302-10.477-8.069-15.642l-8.744-15.23c-2.962-5.043-6.104-9.965-9.294-14.855l-9.869-14.454c-3.385-4.742-6.833-9.442-10.376-14.058-3.49-4.663-7.155-9.184-10.851-13.672-3.691-4.494-7.44-8.935-11.258-13.313-3.77-4.415-7.746-8.661-11.723-12.891-3.981-4.219-8.032-8.386-12.251-12.363 7.181 9.104 14.025 18.425 20.763 27.799 6.775 9.347 13.191 18.932 19.506 28.554 3.179 4.795 6.226 9.675 9.262 14.554 3.052 4.864 5.988 9.791 8.898 14.739l8.438 14.972c2.788 4.996 5.349 10.108 7.947 15.199l7.24 15.494c2.36 5.181 4.43 10.477 6.49 15.758l2.931 7.98 2.693 8.038c.945 2.662 1.648 5.387 2.44 8.09.787 2.704 1.574 5.408 2.16 8.149.607 2.736 1.352 5.45 1.848 8.196l1.473 8.244c.686 5.513 1.457 11.027 1.669 16.54l.248 4.13-.053 4.119c-.063 2.746.042 5.508-.306 8.212-.301 2.714-.401 5.461-.845 8.138l-1.368 8.038-2.698 15.769 13.027-8.666c3.126-2.012 6.944-4.003 10.492-5.418 3.564-1.421 7.308-2.339 9.975-2.181 1.331.074 2.17.391 2.688.776.533.359 1.035 1.014 1.484 2.229.987 2.318 1.082 6.284.782 10.087-.158 1.949-.438 3.94-.792 5.957l-1.024 6.717-.481 3.279-.29 3.602c-.132 2.382-.496 4.827-.401 7.166l.048 7.082.607 7.113c.343 2.366.792 4.732 1.193 7.092.502 2.355 1.215 4.689 1.827 7.029.745 2.313 1.674 4.589 2.529 6.881 1.098 2.213 2.112 4.462 3.353 6.617 1.399 2.081 2.535 4.304 4.224 6.221l2.387 2.947c.861.935 1.806 1.811 2.709 2.714 1.737 1.875 3.945 3.316 5.972 4.911 1.088.708 2.244 1.341 3.364 2.007 1.109.697 2.297 1.267 3.538 1.743 1.23.486 2.418 1.072 3.696 1.452l3.865 1.025c1.278.375 2.646.401 3.966.602l2.001.222.121.074.069.063h.713l.206-.063.412-.053.829-.053 1.653-.09c.613-.058.956.021 1.843-.185 1.563-.296 3.137-.655 4.678-1.061 2.719-1.003 5.286-2.023 7.498-3.528 3.628-2.207 6.706-4.895 9.394-7.779-.945 2.519-1.79 5.08-3.073 7.462-.702 1.405-1.32 2.852-2.075 4.23l-2.445 4.045c-1.484 2.783-3.659 5.154-5.46 7.742-1.906 2.53-4.235 4.748-6.326 7.145-2.213 2.292-4.726 4.32-7.071 6.506-5.016 4.014-10.181 7.927-15.868 11.132l-4.177 2.535-4.562 2.662c-2.952 1.764-5.893 3.332-8.866 5.255l-8.935 5.851c-2.925 1.996-5.692 4.14-8.544 6.205-2.883 2.023-5.539 4.341-8.269 6.559l-4.077 3.353-3.897 3.559c-5.27 4.674-10.186 9.743-14.97 14.913l-6.939 7.995-6.527 8.349-6.083 8.682-5.613 9.015-5.111 9.31-4.578 9.611-3.987 9.891c-1.109 3.385-2.429 6.696-3.358 10.145-.935 3.443-2.028 6.844-2.688 10.372l-1.125 5.255-.935 5.054-1.843 3.385-7.044-32.774v-.005h1.225.613l-12.985 2.355h.158.074l.037.005c.169 1.727.359 4.251.275 6.49.026 2.303-.222 4.637-.385 6.966-.565 4.653-1.336 9.305-2.529 13.873-.686 2.26-1.204 4.568-2.007 6.797l-2.471 6.659c-2.033 4.293-3.902 8.655-6.458 12.695-2.213 4.214-5.201 7.99-7.894 11.924-1.394 1.938-3.057 3.691-4.546 5.566-1.584 1.806-2.947 3.786-4.7 5.455-6.648 6.981-13.872 13.477-21.708 19.281l-5.962 4.256-2.973 2.134-.37.264-.185.137c.016-.011-.016.011-.037.026l-.766.465-1.621.993c-4.467 2.846-8.354 4.864-12.631 6.966-4.557 2.197-9.262 4.109-14.062 5.804l-3.427-4.547-3.823-5.027-4.494-5.043-4.763-5.344c-1.616-1.843-3.506-3.47-5.307-5.265l-5.587-5.381c-1.89-1.817-3.997-3.417-6.025-5.165l-6.215-5.191-6.569-4.832c-4.325-3.338-8.961-6.2-13.47-9.141-4.51-2.947-9.188-5.424-13.624-8.027-4.578-2.297-8.913-4.758-13.228-6.665-4.256-2.023-8.338-3.85-12.171-5.381-3.786-1.648-7.382-2.878-10.524-4.093l-8.317-2.788c-2.308-.729-4.203-1.283-5.576-1.642l-1.943-.518-3.343 16.551 1.811.29c1.077.174 2.762.486 4.974.951 2.186.422 4.858 1.093 7.915 1.811 3.042.845 6.516 1.653 10.228 2.852 3.749 1.083 7.762 2.429 11.981 3.94 4.272 1.399 8.591 3.332 13.18 5.086 4.436 2.054 9.156 3.977 13.724 6.358 4.573 2.387 9.309 4.689 13.756 7.478l6.78 4.019 6.463 4.399c2.117 1.495 4.33 2.846 6.326 4.42l5.909 4.668c1.912 1.568 3.929 2.973 5.666 4.6l5.148 4.742 4.884 4.505c1.5 1.531 2.867 3.089 4.224 4.547l3.274 3.554a171.91 171.91 0 0 1-10.973 3.327c-18.835 5.012-38.653 6.939-58.655 7.832-20.034.982-40.337.739-60.936 1.7-10.302.486-20.694 1.447-31.102 3.301-5.201.887-10.392 2.197-15.54 3.707-5.111 1.737-10.207 3.644-15.007 6.337-4.826 2.445-9.505 6.052-13.301 9.089-4.034 2.936-7.968 6.76-11.881 10.234-7.456 7.309-14.468 14.982-20.647 23.3-6.168 8.307-11.68 17.052-16.412 26.172-4.737 9.099-28.33 64.306-31.208 74.102 4.346-9.21 31.234-61.888 36.873-70.247 5.698-8.323 15.06-22.349 21.66-29.853m-190.91 260.384c-7.889-2.155-15.641-4.674-23.345-7.267-7.688-2.614-15.25-5.619-22.674-8.83-7.393-3.306-14.759-6.601-21.914-10.33-7.176-3.676-14.226-7.61-21.011-11.914-6.875-4.172-13.381-8.883-19.897-13.546-12.905-9.5-24.982-20.083-35.786-31.77-5.412-5.756-10.598-12.009-15.06-18.235-2.329-2.989-4.557-6.401-6.759-9.907l-1.669-2.588-.723-1.109-.998-1.389-4.05-5.561c-11.432-14.422-27.036-23.479-42.587-30.36-14.12-6.078-28.699-10.44-43.448-13.593l66.011-7.145 31.63-3.823c3.321 4.214 6.87 7.958 10.519 11.798 4.795 4.795 9.896 9.268 15.255 13.429 5.365 4.167 10.957 8.053 16.813 11.544 5.819 3.528 11.934 6.643 18.154 9.448 6.337 2.609 12.652 5.228 19.321 6.923 3.247 1.056 6.616 1.759 9.98 2.387 3.379.613 6.68 1.431 10.117 1.621 6.817.692 13.602 1.019 20.383.322 6.727-.253 13.365-2.07 19.744-3.565-3.337-.481-6.611-.903-9.837-1.188-3.232-.19-6.421-.84-9.568-1.621-3.147-.766-6.289-1.077-9.346-2.001l-9.119-2.662c-3.042-.723-5.904-2.255-8.871-3.206-2.952-1.035-5.872-2.118-8.681-3.549-5.719-2.53-11.321-5.276-16.781-8.323-5.365-3.206-10.883-6.126-16.01-9.754-5.328-3.274-10.376-7.024-15.488-10.668-5.064-3.723-10.102-6.733-15.007-10.694-.449-.327-.871-.253-1.315-.253h10.667 11.29l-7.324-10.81-.993-2.545c-4.356-9.125-1.811-4.388-3.849-7.784a160.47 160.47 0 0 0-6.986-8.888c-2.513-2.963-5.434-5.038-8.296-7.531-2.846-2.561-5.951-4.378-9.061-6.411-3.115-2.054-6.205-4.003-9.51-5.571-3.269-1.648-6.479-3.438-9.853-4.774-6.733-2.778-13.465-5.408-20.346-7.531-6.843-2.234-13.724-4.241-20.726-5.74-6.986-1.553-13.998-2.852-21.021-4.019-14.104-1.996-28.298-3.269-42.524-2.857l40.776 10.916c6.722 1.885 13.391 3.881 19.971 6.11 6.527 2.339 13.18 4.288 19.543 6.902 6.469 2.392 12.684 5.244 18.825 8.191 3.094 1.431 5.925 3.258 8.945 4.758 3.057 1.484 5.851 3.29 8.591 5.159 2.746 1.854 5.676 3.528 8.026 5.762 2.376 2.186 4.826 3.813 7.303 5.767 2.339 1.832 3.443 5.054 5.09 5.054h-16.734-12.472l5.534 8.534-27.458-3.253h-.011l-16.602-1.289c-5.566-.227-10.915-1.542-16.285-2.926-5.312-1.6-10.867-2.049-15.963-4.388l-15.577-5.851-14.843-7.7c-5.038-2.392-9.637-5.645-14.421-8.576-4.763-2.968-9.563-5.878-13.94-9.474-4.441-3.48-9.082-6.702-13.381-10.382-8.581-7.414-16.924-15.104-24.971-23.199-4.203-3.866-7.878-8.249-11.834-12.379-4.018-4.087-7.805-8.391-11.506-12.78-15.187-17.248-29.375-35.541-42.788-54.705 2.001 5.513 4.457 10.852 6.949 16.16 2.646 5.228 5.038 10.641 8.084 15.658 5.798 10.208 11.865 20.342 18.719 29.954 3.369 4.848 6.849 9.627 10.582 14.222 3.712 4.605 7.319 9.31 11.401 13.625 4.034 4.346 7.857 8.92 12.156 13.028l13.059 12.21c4.43 3.992 9.257 7.562 13.877 11.365 4.541 3.908 9.589 7.182 14.611 10.504 5.064 3.248 9.832 6.976 15.414 9.421l16.232 8.096 17.135 6.21c.259.116.539.18.803.285l-68.171 7.383.412 13.012c15.752 1.442 31.936 3.728 47.54 7.224 15.609 3.586 31.07 7.842 45.449 14.164 14.315 6.247 27.738 14.639 36.926 25.951l3.306 4.304.845 1.072.982 1.458 1.716 2.545c2.239 3.396 4.562 6.807 7.329 10.261 5.244 6.997 10.725 13.282 16.665 19.355 11.744 12.162 24.697 23.014 38.431 32.679 7.023 4.616 14.109 9.094 21.481 13.081 7.292 4.098 14.817 7.789 22.426 11.196 7.604 3.459 15.35 6.548 23.292 9.104 7.91 2.577 15.899 4.922 23.963 6.855 8.053 2.007 16.174 3.633 24.39 4.674 8.121 1.463 16.428 1.811 24.596 2.535-7.973-2.17-16.053-3.507-23.868-5.999m589.915-286.884c-3.702 4.388-7.488 8.692-11.506 12.78-3.955 4.13-7.63 8.518-11.834 12.384-8.047 8.09-16.385 15.779-24.966 23.194-4.304 3.681-8.945 6.913-13.386 10.393-4.378 3.596-9.177 6.511-13.94 9.485-4.784 2.931-9.383 6.205-14.421 8.592l-14.843 7.747-15.572 5.936c-5.101 2.339-10.656 2.963-15.968 4.563-5.37 1.384-10.719 2.355-16.285 2.582l-16.596 1.283h-.016l-27.458 3.258 5.534-8.539h-12.472-16.734c1.653 0 3.427-3.142 5.09-5.054 2.107-2.35 4.927-3.882 7.303-6.068 2.35-2.234 5.28-3.755 8.026-5.608 2.741-1.869 5.534-3.602 8.591-5.086 3.02-1.5 5.856-3.29 8.945-4.721 6.141-2.947 12.356-5.772 18.825-8.17 6.363-2.614 13.016-4.547 19.543-6.892 6.574-2.229 13.249-4.219 19.971-6.105 13.418-3.908 27.01-7.43 40.77-10.91-14.22-.412-28.419.861-42.524 2.852-7.023 1.172-14.035 2.471-21.022 4.024-7.002 1.5-13.893 3.501-20.736 5.74-6.88 2.123-13.629 4.753-20.356 7.531-3.379 1.336-6.616 3.126-9.885 4.774-3.306 1.563-6.458 3.517-9.568 5.571-3.121 2.033-6.347 3.85-9.193 6.411-2.862 2.493-6.025 4.568-8.533 7.531-2.513 2.957-4.314 5.751-6.611 8.883-2.038 3.396-1.906 2.614-4.161 7.055l-2.191 4.684-5.703 9.4h11.29 10.667c-.444 0-.861-.069-1.31.259-4.911 3.961-9.948 7.362-15.012 11.085-5.111 3.644-10.16 7.198-15.488 10.472-5.122 3.628-10.64 6.448-16.01 9.654-5.46 3.047-11.063 5.746-16.781 8.275-2.809 1.431-5.729 2.487-8.681 3.522-2.968.951-5.83 2.471-8.871 3.195l-9.119 2.656c-3.057.924-6.199 1.236-9.346 1.996-3.147.782-6.337 1.436-9.568 1.621-3.226.285-6.5.708-9.838 1.183 6.379 1.5 13.016 3.316 19.744 3.57 6.78.697 13.565.364 20.383-.322 3.438-.195 6.738-1.009 10.112-1.621 3.374-.634 6.738-1.336 9.98-2.387 6.675-1.7 12.99-4.315 19.332-6.923 6.215-2.809 12.335-5.92 18.149-9.448 5.861-3.491 11.448-7.377 16.813-11.544 5.36-4.161 10.461-8.64 15.255-13.429 3.686-3.876 7.266-7.663 10.619-11.935l31.53 3.612 66.011 7.319c-14.748 3.153-29.328 7.599-43.448 13.683-15.551 6.876-31.155 15.98-42.587 30.397l-4.05 5.582-.998 1.405-.723 1.109-1.663 2.593c-2.207 3.507-4.441 6.918-6.764 9.912-4.457 6.226-9.647 12.479-15.06 18.235-10.804 11.687-22.88 22.27-35.786 31.77-6.516 4.658-13.016 9.368-19.897 13.546-6.785 4.304-13.835 8.238-21.011 11.909-7.16 3.728-14.521 7.024-21.914 10.335-7.424 3.206-14.986 6.216-22.674 8.83-7.704 2.588-15.456 5.112-23.345 7.267-7.815 2.487-15.894 3.823-23.862 5.999 8.164-.729 16.47-1.072 24.591-2.535 8.216-1.04 16.343-2.667 24.39-4.679 8.063-1.928 16.053-4.272 23.963-6.855 7.942-2.551 15.688-5.64 23.292-9.099 7.614-3.406 15.134-7.098 22.426-11.196 7.372-3.987 14.463-8.465 21.486-13.081 13.729-9.664 26.682-20.522 38.426-32.679 5.941-6.073 11.422-12.357 16.665-19.355 2.767-3.454 5.09-6.865 7.329-10.261l1.716-2.551.987-1.452.84-1.072 3.306-4.309c9.183-11.307 22.611-19.698 36.926-25.951 14.384-6.316 29.84-10.572 45.449-14.158 15.604-3.496 31.788-5.788 47.54-7.23l.412-13.007-68.171-7.383c.264-.106.544-.174.808-.285l17.13-6.21 16.232-8.096c5.587-2.445 10.35-6.173 15.414-9.427 5.022-3.316 10.07-6.596 14.616-10.499 4.62-3.802 9.447-7.372 13.872-11.365l13.059-12.21c4.304-4.114 8.121-8.682 12.156-13.033 4.082-4.309 7.688-9.015 11.401-13.625 3.733-4.589 7.208-9.368 10.582-14.216 6.854-9.611 12.921-19.745 18.719-29.954 3.042-5.017 5.439-10.435 8.084-15.658 2.492-5.307 4.953-10.646 6.954-16.16-13.418 19.165-27.606 37.453-42.793 54.705"/><path d="M1805.751 866.528h-197.753l-.475-18.483h171.615s132.011-203.317-86.341-303.655c0 0-111.201 79.426-158.778 195.237-.158.317-.322.687-.422 1.003-.111-.317-.264-.687-.422-1.003-47.577-115.811-158.783-195.237-158.783-195.237-218.347 100.338-86.335 303.655-86.335 303.655h171.615l-.475 18.483h-197.753c-158.572-269.329 116.27-368.505 116.27-368.505 105.609 66.487 151.813 155.577 155.884 163.762 4.061-8.185 50.265-97.275 155.874-163.762 0 0 274.848 99.176 116.281 368.505"/></g><g fill="#b01e13" class="B"><path d="M1534.019 739.628v2.007c-.158-.317-.269-.687-.422-1.003.1-.317.264-.687.422-1.003"/><path d="M1533.596 740.631c-.158.317-.264.687-.422 1.003v-2.007c.158.317.312.687.422 1.003"/></g><g class="C B"><path d="M5880.321 1131.12v-87.696h-33.652v-13.414h90.903v13.414h-33.652v87.696zm116.598-11.31l-32.533-68.711v80.022h-14.801v-101.109h18.429c8.243 0 12.293 2.519 15.086 10.752l34.767 71.362 34.909-71.499c2.931-7.958 7.541-10.615 15.915-10.615h18.851v101.109h-23.873V1051.1l-32.396 68.711c-3.073 8.238-8.797 12.289-17.315 12.289-8.38 0-14.104-4.051-17.04-12.289M2699 937h85V576h-85zm-248.051 0V623.866H2331V576h324v47.866h-119.944V937z"/></g></g></g></g></svg>