<?xml version="1.0" encoding="UTF-8"?> <svg xmlns="http://www.w3.org/2000/svg" xmlns:xlink="http://www.w3.org/1999/xlink" width="1440px" height="1146px" viewBox="0 0 1440 1146" version="1.1"><title>Group 2</title><g id="Augmentation-page" stroke="none" stroke-width="1" fill="none" fill-rule="evenodd"><g id="Aug_Warranty_Details" transform="translate(0.000000, -713.000000)" fill="#FF8300"><g id="Group-2" transform="translate(-212.000000, 392.000000)"><path d="M2208.64982,721.740589 C2132.04024,656.654564 2035.34901,614.547295 1936.68836,617.061576 C1900.30744,617.98871 1864.62284,625.35935 1831.67315,639.428937 C1820.89821,644.029857 1810.41574,649.34714 1800.29701,655.389719 C1758.94583,680.084368 1724.62927,714.739585 1693.42697,751.311655 C1660.25801,790.187419 1629.75902,831.351713 1596.08581,869.791657 C1560.48204,910.435013 1522.4197,948.884801 1481.40513,983.865507 C1440.17966,1019.02702 1395.88629,1051.56642 1347.80924,1076.68701 C1311.14305,1095.84595 1272.82493,1108.43924 1231.79809,1115.15828 C1207.68752,1119.10686 1183.57631,1122.67337 1158.9968,1123.39031 C1125.65113,1124.36295 1092.09441,1120.54743 1059.61826,1110.93098 C1017.55177,1098.47427 978.267463,1076.61593 943.673994,1048.65363 C895.58581,1009.78244 856.32259,960.430419 823.411325,908.026959 C774.672277,830.423814 738.627463,745.295622 708.993331,659.066505 C699.930755,632.69546 691.507996,606.12841 683.560267,579.430306 C681.807693,573.539313 672.89171,575.840088 674.654181,581.76076 C702.99779,676.974491 737.453287,771.358885 784.623897,859.382764 C816.844969,919.508846 855.501522,977.383059 904.068694,1025.4371 C938.578962,1059.58229 978.24121,1088.32159 1022.37129,1107.34207 C1056.3886,1122.00305 1092.59665,1130.3086 1128.97588,1132.44467 C1157.09168,1134.09657 1185.04608,1131.91808 1212.64545,1127.83127 C1223.44757,1126.23113 1234.22311,1124.44307 1244.99049,1122.65906 C1297.63451,1113.936 1346.46835,1090.89321 1391.0329,1062.80539 C1481.58702,1005.73137 1559.55782,929.694731 1627.8785,847.162196 C1690.49782,771.517555 1748.96065,681.320668 1843.89873,644.635733 C1937.65247,608.410067 2047.30164,629.138152 2135.37024,680.577982 C2225.6675,733.318214 2294.944,817.700814 2348.76968,907.071822 C2361.89519,928.865567 2374.19173,951.139734 2385.89606,973.717211 C2388.73912,979.200641 2396.66015,974.580234 2393.81926,969.102113 C2346.31434,877.469458 2287.63491,788.84477 2208.64982,721.740589 Z" id="Fill-1" transform="translate(1534.424774, 854.500000) rotate(-53.000000) translate(-1534.424774, -854.500000) "></path><path d="M699.566161,1437.89719 C650.827114,1360.29404 614.782299,1275.16585 585.148167,1188.93673 C576.085592,1162.56569 567.662832,1135.99864 559.715103,1109.30053 C557.96253,1103.40954 549.046547,1105.71032 550.809017,1111.63099 C579.152626,1206.84472 613.608124,1301.22911 660.778734,1389.25299 C692.999805,1449.37907 732.477427,1490.30065 699.566161,1437.89719 Z" id="Fill-1" transform="translate(631.271076, 1283.917413) scale(-1, 1) rotate(-94.000000) translate(-631.271076, -1283.917413) "></path><path d="M506.036981,1222.04466 C463.970485,1209.58795 424.686181,1187.72961 390.092712,1159.76731 C342.004528,1120.89612 302.741309,1071.5441 269.830043,1019.14064 C221.090995,941.537493 185.046181,856.409301 155.412049,770.180184 C146.349474,743.809139 137.926714,717.242089 129.978985,690.543985 C128.226412,684.652992 121.698061,687.692634 123.231204,693.318333 C149.483863,789.649542 183.872006,882.472563 231.042616,970.496443 C263.263687,1030.62252 301.920241,1088.49674 350.487413,1136.55078 C384.99768,1170.69597 424.659928,1199.43526 468.79001,1218.45575 C502.807322,1233.11673 538.513126,1231.66111 506.036981,1222.04466 Z" id="Fill-1" transform="translate(320.907572, 958.360358) scale(-1, 1) rotate(-109.000000) translate(-320.907572, -958.360358) "></path></g></g></g></svg> 