<?xml version="1.0" encoding="UTF-8"?> <svg xmlns="http://www.w3.org/2000/svg" xmlns:xlink="http://www.w3.org/1999/xlink" width="1440px" height="724px" viewBox="0 0 1440 724" version="1.1"><title>Fill 1 Copy 3</title><g id="Reconstruction-page" stroke="none" stroke-width="1" fill="none" fill-rule="evenodd"><g id="Recon_Expander&amp;ImplantOptions" transform="translate(0.000000, -906.000000)" fill="#FF8300"><path d="M1767.34504,1078.58864 C1679.89421,1006.20603 1569.48312,959.996806 1454.79569,965.228546 C1398.67535,967.788606 1343.70824,983.258186 1295.41483,1012.20379 C1246.78095,1041.35463 1206.08189,1081.69508 1168.95524,1124.14671 C1129.48854,1169.27242 1093.06918,1216.94379 1053.02706,1261.58461 C1010.68925,1308.78429 965.547459,1353.54154 917.058637,1394.41368 C868.320466,1435.49707 816.080617,1473.66393 759.622212,1503.46168 C716.563927,1526.18777 671.743415,1541.46651 623.916327,1550.11167 C595.809401,1555.19218 567.710867,1559.83701 539.136412,1561.24367 C500.371009,1563.15201 461.474937,1559.60537 423.973062,1549.41794 C375.396728,1536.22157 330.277716,1512.23766 290.754675,1481.18088 C235.813943,1438.00792 191.377045,1382.67197 154.393049,1323.70417 C99.6225462,1236.38008 59.7806256,1140.17079 27.413186,1042.55244 C17.5147434,1012.69828 8.36434839,982.605269 -0.231005022,952.351432 C-2.12629843,945.675832 -12.5402224,948.513142 -10.6341399,955.222348 C20.0190242,1063.11694 57.7930251,1169.91933 110.492012,1269.16397 C146.4894,1336.95456 190.017612,1402.02305 245.295205,1455.65589 C284.573693,1493.76514 329.967228,1525.58646 380.784109,1546.21817 C419.955903,1562.12102 461.824985,1570.72417 504.040517,1572.28805 C536.666897,1573.49787 569.197372,1570.3437 601.361017,1565.02195 C613.949553,1562.93837 626.511716,1560.64116 639.064289,1558.34875 C700.436551,1547.13993 757.724521,1519.6934 810.17296,1486.59625 C916.746951,1419.34336 1009.15479,1330.76864 1090.50616,1235.01783 C1165.06875,1147.25806 1235.15025,1043.00372 1346.33001,998.895797 C1456.12276,955.339969 1583.0211,976.348545 1684.11181,1032.89551 C1787.76074,1090.87193 1866.23021,1185.43452 1926.62905,1286.05581 C1941.35743,1310.59302 1955.1112,1335.69793 1968.16966,1361.16291 C1971.34167,1367.34762 1980.6551,1361.88904 1977.48549,1355.71033 C1924.48441,1252.35855 1857.50754,1153.21566 1767.34504,1078.58864 Z" id="Fill-1-Copy-3" transform="translate(983.633946, 1260.545777) rotate(353.000000) translate(-983.633946, -1260.545777) "></path></g></g></svg> 