<?xml version="1.0" encoding="UTF-8"?>
<svg xmlns="http://www.w3.org/2000/svg" xmlns:xlink="http://www.w3.org/1999/xlink" width="95" height="88" xml:space="preserve" overflow="hidden">
  <g transform="translate(-408 -288)">
    <path d="M43.987 0 51.0295 0C53.9488 0 56.3073 2.35851 56.3073 5.27778L56.3073 12.3203 63.3333 12.3203C66.2526 12.3203 68.6111 14.6788 68.6111 17.5981L68.6111 24.6406C68.6111 27.5599 66.2526 29.9184 63.3333 29.9184L56.2908 29.9184 56.2908 36.9444C56.2908 39.8637 53.9323 42.2222 51.013 42.2222L43.987 42.2222C41.0677 42.2222 38.7092 39.8637 38.7092 36.9444L38.7092 29.9019 31.6667 29.9019C28.7474 29.9019 26.3889 27.5434 26.3889 24.6241L26.3889 17.5981C26.3889 14.6788 28.7474 12.3203 31.6667 12.3203L38.7092 12.3203 38.7092 5.27778C38.7092 2.35851 41.0677 0 43.987 0ZM43.987 5.27778 43.987 14.9592C43.987 16.4106 42.7995 17.5981 41.3481 17.5981L31.6667 17.5981 31.6667 24.6406 41.3481 24.6406C42.7995 24.6406 43.987 25.8281 43.987 27.2795L43.987 36.9444 51.0295 36.9444 51.0295 27.263C51.0295 25.8116 52.217 24.6241 53.6684 24.6241L63.3498 24.6241 63.3498 17.5981 53.6519 17.5981C52.2005 17.5981 51.013 16.4106 51.013 14.9592L51.013 5.27778 43.9705 5.27778ZM24.9045 52.349C27.0651 50.8976 29.6215 50.1389 32.2274 50.1389L56.7361 50.1389C61.8325 50.1389 65.9722 54.2786 65.9722 59.375 65.9722 60.7934 65.6589 62.1293 65.0816 63.3333L66.0052 63.3333 81.6241 54.0312C82.9931 53.2231 84.5599 52.7778 86.1597 52.7778L86.3741 52.7778C91.1406 52.7778 95 56.6371 95 61.4036 95 64.3229 93.5156 67.0443 91.0747 68.6276L71.349 81.4592C68.3472 83.4054 64.8507 84.4444 61.2882 84.4444L2.63889 84.4444C1.1875 84.4444 0 83.2569 0 81.8056 0 80.3542 1.1875 79.1667 2.63889 79.1667L61.2717 79.1667C63.8281 79.1667 66.3186 78.4245 68.4627 77.0391L88.1884 64.2075C89.145 63.5972 89.7057 62.5252 89.7057 61.4036 89.7057 59.5564 88.2049 58.0556 86.3576 58.0556L86.1432 58.0556C85.5 58.0556 84.8733 58.237 84.3125 58.5503L68.0668 68.2318C67.6545 68.4792 67.1927 68.6111 66.7144 68.6111L56.7361 68.6111 52.7778 68.6111 42.2222 68.6111C40.7708 68.6111 39.5833 67.4236 39.5833 65.9722 39.5833 64.5208 40.7708 63.3333 42.2222 63.3333L52.7778 63.3333 56.7361 63.3333C58.9297 63.3333 60.6944 61.5686 60.6944 59.375 60.6944 57.1814 58.9297 55.4167 56.7361 55.4167L32.2274 55.4167C30.6606 55.4167 29.1432 55.8785 27.8403 56.7526L14.6623 65.5269C14.2335 65.8238 13.7222 65.9722 13.1944 65.9722L2.63889 65.9722C1.1875 65.9722 0 64.7847 0 63.3333 0 61.8819 1.1875 60.6944 2.63889 60.6944L12.4028 60.6944 24.9045 52.349Z" fill="#F1925E" transform="matrix(1 0 0 1.04211 408 288)"></path>
  </g>
</svg>
