<?xml version="1.0" encoding="UTF-8"?>
<svg xmlns="http://www.w3.org/2000/svg" xmlns:xlink="http://www.w3.org/1999/xlink" width="77" height="77" xml:space="preserve" overflow="hidden">
  <g transform="translate(-120 -299)">
    <path d="M139.25 313.438C139.25 310.776 141.401 308.625 144.062 308.625L182.562 308.625C185.224 308.625 187.375 310.776 187.375 313.438L187.375 343.14C187.375 344.418 186.864 345.636 185.961 346.538L177.163 355.336C176.261 356.239 175.043 356.75 173.765 356.75L144.062 356.75C141.401 356.75 139.25 354.599 139.25 351.938L139.25 313.438ZM134.438 313.438 134.438 351.938C134.438 357.246 138.754 361.562 144.062 361.562L173.765 361.562C176.321 361.562 178.773 360.555 180.577 358.75L189.375 349.952C191.18 348.148 192.188 345.696 192.188 343.14L192.188 313.438C192.188 308.129 187.871 303.812 182.562 303.812L144.062 303.812C138.754 303.812 134.438 308.129 134.438 313.438ZM168.125 373.594C168.125 372.27 167.042 371.188 165.719 371.188L139.25 371.188C131.279 371.188 124.812 364.721 124.812 356.75L124.812 320.656C124.812 319.333 123.73 318.25 122.406 318.25 121.083 318.25 120 319.333 120 320.656L120 356.75C120 367.383 128.617 376 139.25 376L165.719 376C167.042 376 168.125 374.917 168.125 373.594ZM160.906 315.844C158.244 315.844 156.094 317.994 156.094 320.656L156.094 325.469 151.281 325.469C148.619 325.469 146.469 327.619 146.469 330.281L146.469 335.094C146.469 337.756 148.619 339.906 151.281 339.906L156.094 339.906 156.094 344.719C156.094 347.381 158.244 349.531 160.906 349.531L165.719 349.531C168.381 349.531 170.531 347.381 170.531 344.719L170.531 339.906 175.344 339.906C178.006 339.906 180.156 337.756 180.156 335.094L180.156 330.281C180.156 327.619 178.006 325.469 175.344 325.469L170.531 325.469 170.531 320.656C170.531 317.994 168.381 315.844 165.719 315.844L160.906 315.844ZM160.906 320.656 165.719 320.656 165.719 327.875C165.719 329.198 166.802 330.281 168.125 330.281L175.344 330.281 175.344 335.094 168.125 335.094C166.802 335.094 165.719 336.177 165.719 337.5L165.719 344.719 160.906 344.719 160.906 337.5C160.906 336.177 159.823 335.094 158.5 335.094L151.281 335.094 151.281 330.281 158.5 330.281C159.132 330.281 159.748 330.026 160.199 329.574 160.651 329.123 160.906 328.507 160.906 327.875L160.906 320.656Z" fill="#F1925E"></path>
  </g>
</svg>
