<?xml version="1.0" encoding="utf-8" standalone="yes"?>
<svg width="1917" height="769" viewBox="0 0 1917 769" fill="none" xmlns="http://www.w3.org/2000/svg">
<path fill-rule="evenodd" clip-rule="evenodd" d="M562.222 196.949C547.7 191.192 550.206 170.34 550.206 170.34C550.206 76.4514 474.394 0.339844 380.874 0.339844C287.354 0.339844 211.541 76.4514 211.541 170.34C211.541 179.366 204.485 185.279 188.034 185.163C140.496 178.708 95.7933 169.855 54.7129 158.135C33.7163 152.145 14.5221 147.228 -3 143.291L-2.99993 768.84H1918L1918 142.52C1865.98 133.958 1766.45 124.038 1576.48 118.761C1452.66 115.321 1278.23 133.491 1086.38 153.475C917.603 171.056 735.347 190.04 562.222 196.949Z" fill="url(#paint0_linear_2025_2)"/>
<path d="M422.355 136.523C418.33 125.079 431.642 116.822 426.277 104.596C420.918 92.3591 409.825 101.698 403.684 108.518C396.944 105.487 388.991 103.998 381.705 103.135C374.431 102.279 366.904 107.19 360.256 108.029C353.608 108.869 351.51 97.4655 343.93 98.5639C336.357 99.668 334.011 109.3 335.845 115.988C337.68 122.681 342.596 129.07 341.44 135.913C345.535 124.826 334.005 118.202 338.341 106.672C342.683 95.1539 352.533 105.648 358.243 111.64C372.723 104.677 389.836 104.746 404.299 111.64C409.998 105.125 420.935 95.8612 424.351 107.77C427.766 119.68 415.443 126.356 422.344 136.54L422.355 136.523Z" fill="#DC5829"/>
<path d="M353.268 116.609C352.026 112.291 348.604 107.472 343.929 106.649C351.117 110.278 349.266 117.667 346.419 123.452C348.599 121.33 349.892 117.656 353.268 116.603V116.609Z" fill="#DC5829"/>
<path d="M418.619 106.649C413.95 107.454 410.54 112.291 409.281 116.609C412.616 117.639 413.967 121.302 416.129 123.458C413.312 117.639 411.385 110.33 418.619 106.655V106.649Z" fill="#DC5829"/>
<path d="M403.056 117.23C391.026 107.391 371.669 107.495 359.49 117.23C366.092 115.804 372.538 113.837 379.41 113.498C379.686 116.701 379.042 124.441 379.41 127.19C379.778 129.939 377.891 138.461 381.227 138.346C384.556 138.219 382.808 129.283 383.142 126.569C383.475 123.855 382.889 116.621 383.142 113.498C390.036 113.774 396.523 115.678 403.061 117.23H403.056Z" fill="#DC5829"/>
<path d="M381.273 141.503C377.248 137.046 373.987 130.29 368.047 127.345C362.101 124.401 356.655 130.094 352.486 135.747C348.323 141.405 348.237 149.358 350.911 156.926C353.584 164.488 364.165 162.998 371.934 162.665C369.513 170.917 361.405 176.443 358.863 184.447C351.744 183.09 344.51 173.878 354.505 170.135C343.975 170.945 337.995 160.934 338.323 151.463C337.219 159.87 340.284 169.859 349.525 171.382C342.952 179.41 354.545 185.695 361.348 186.322C364.217 173.194 380.905 162.383 373.797 147.11C374.953 151.693 373.924 156.282 373.176 160.802C367.506 160.042 357.23 163.228 354.706 157.489C352.181 151.75 351.831 145.304 354.321 140.077C356.805 134.844 360.813 132.308 365.712 130.307C371.601 135.741 378.311 141.883 380.652 149.6C384.907 143.343 390.152 135.482 396.834 130.307C401.75 132.227 406.138 135.223 408.467 140.456C410.802 145.684 410.261 152.481 407.604 157.88C404.953 163.28 394.85 159.899 389.37 160.807C388.145 156.362 388.484 151.141 388.128 147.115C382.463 162.964 398.059 173.073 401.198 186.328C408.013 185.695 419.588 179.439 413.021 171.388C422.009 170.037 426.115 159.301 423.602 151.469C425.27 161.515 418.064 170.738 408.041 170.14C417.984 173.849 410.882 183.096 403.683 184.453C401.164 176.495 393.033 170.911 390.612 162.67C398.582 163.205 409.249 164.327 411.819 156.489C414.39 148.651 414.154 141.118 409.859 135.333C405.563 129.559 400.025 124.441 394.16 127.627C388.289 130.813 385.298 136.707 381.279 141.509L381.273 141.503Z" fill="#DC5829"/>
<path d="M367.581 143.37C366.189 139.794 366.747 133.06 361.405 134.705C356.057 136.349 358.214 142.169 361.98 143.37C359.41 141.392 358.168 136.2 362.595 135.906C367.029 135.613 363.705 142.22 367.581 143.37Z" fill="#DC5829"/>
<path d="M399.946 143.992C403.707 142.618 406.456 136.137 400.619 134.613C394.777 133.089 396.646 140.151 394.345 143.371C398.135 142.698 395.352 134.239 400.521 135.953C405.68 137.666 401.43 141.651 399.946 143.992Z" fill="#DC5829"/>
<path d="M343.311 137.144C337.549 143.09 332.172 150.773 332.73 159.548C327.456 158.473 330.004 163.384 328.975 167.001C327.945 170.624 322.569 169.692 322.77 165.155C319.452 171.664 326.531 175.661 331.637 179.313C336.749 182.964 338.233 190.86 339.573 196.271C339.452 194.712 339.883 192.958 340.815 191.912C347.468 207.461 368.779 194.684 376.289 208.715C372.822 197.979 360.251 199.824 351.396 198.755C353.27 193.453 361.298 193.735 363.219 190.043C359.596 191.544 355.628 191.555 353.075 195.46C350.527 199.364 346.795 197.001 344.081 194.247C341.367 191.492 341.407 183.482 338.946 188.801C338.497 179.698 328.52 176.92 324.006 170.75C329.21 173.171 332.58 165.46 330.228 161.411C331.833 159.876 333.04 161.877 334.587 162.032C331.729 152.573 338.946 144.557 343.299 137.139L343.311 137.144Z" fill="#DC5829"/>
<path d="M429.823 159.553C430.324 150.887 424.936 142.578 419.243 137.149C423.872 144.539 430.64 152.67 427.955 162.043C429.519 162.02 430.732 159.754 432.313 161.422C429.956 165.459 433.348 173.182 438.535 170.761C436.505 174.458 431.652 176.759 428.42 179.318C425.194 181.882 424.182 190.934 421.727 186.322C421.784 189.663 416.896 199.076 412.44 198.099C407.983 197.121 405.217 188.892 399.317 190.059C401.278 193.78 409.237 193.452 411.14 198.771C401.738 199.674 389.306 198.311 385.62 209.352C389.196 202.871 396.908 200.359 404.291 201.261C411.675 202.164 418.116 197.892 421.721 191.923C422.75 192.917 423.015 194.763 422.963 196.281C424.274 190.813 425.93 182.595 431.209 179.007C436.488 175.425 442.906 171.595 439.766 165.16C440.059 170.1 433.941 170.468 433.406 166.54C432.871 162.612 434.746 158.708 429.806 159.559L429.823 159.553Z" fill="#DC5829"/>
<path d="M326.498 149.593C326.354 152.227 326.625 154.838 325.877 157.063C323.979 163.09 323.353 152.296 324.635 150.214C319.258 153.308 318.12 161.272 317.165 167.644C316.21 174.01 321.869 179.444 325.877 183.826C324.054 183.964 322.622 182.75 320.897 182.584C322.881 185.35 326.998 185.511 330.236 185.695C322.473 178.259 314.56 167.5 322.145 157.063C321.622 162.917 328.125 161.203 327.539 156.856C326.947 152.52 327.47 148.972 327.119 145.234C326.567 146.678 326.584 148.018 326.498 149.593Z" fill="#DC5829"/>
<path d="M435.429 145.234C435.049 149.012 435.521 152.963 435.222 157.264C434.923 161.56 440.863 162.503 440.409 157.057C443.324 161.773 444.359 169.047 441.841 174.05C439.328 179.059 434.457 181.169 432.318 185.689C435.584 185.505 439.644 185.332 441.657 182.578C439.903 182.727 438.488 183.97 436.677 183.82C440.553 179.404 446.366 174.01 445.389 167.638C444.405 161.267 443.301 153.285 437.919 150.209C438.126 153.061 439.914 157.454 437.298 159.547C435.964 154.981 437.275 149.674 435.429 145.234Z" fill="#DC5829"/>
<path d="M371.942 153.953C372.068 146.029 360.533 144.355 355.76 148.352C360.435 146.172 359.032 151.934 362.178 153.763C365.323 155.586 368.601 154.361 371.942 153.958M364.472 147.104C368.451 146.638 370.659 152.55 366.197 153.809C361.735 155.068 360.378 147.593 364.472 147.104Z" fill="#DC5829"/>
<path d="M406.793 148.352C401.595 144.2 391.106 146.305 389.99 153.953C393.533 154.235 397.196 155.839 400.416 153.798C403.642 151.756 402.072 146.259 406.793 148.352ZM399.323 147.104C402.561 148.582 399.697 155.856 395.545 153.372C391.388 150.894 395.942 145.569 399.323 147.104Z" fill="#DC5829"/>
<path d="M366.338 148.973C364.976 149.151 365.177 150.346 364.47 151.461C366.033 151.961 367.751 150.283 366.338 148.973Z" fill="#DC5829"/>
<path d="M398.083 151.461C397.457 150.248 397.434 149.145 396.216 148.973C394.923 150.317 396.44 151.966 398.083 151.461Z" fill="#DC5829"/>
<path d="M325.878 157.064C326.626 154.844 326.355 152.227 326.499 149.594C326.171 151.612 326.304 154.729 325.878 157.064Z" fill="#DC5829"/>
<path d="M373.802 178.225C369.697 180.559 373.699 185.378 377.535 183.826C378.075 185.303 378.075 188.069 380.024 188.184C378.995 186.839 380.093 182.227 377.535 181.962C374.976 181.692 371.807 181.836 373.802 178.23V178.225Z" fill="#DC5829"/>
<path d="M385.01 183.826C388.857 185.338 392.854 180.577 388.742 178.225C390.628 181.727 387.684 181.819 385.056 182.008C382.434 182.204 383.549 186.804 382.514 188.184C384.556 188.075 384.406 185.269 385.004 183.826H385.01Z" fill="#DC5829"/>
<path d="M373.804 208.099C365.586 200.658 352.268 205.874 342.694 202.487C333.125 199.094 329.456 191.446 322.762 185.074C328.513 192.809 332.584 199.859 342.015 203.792C351.44 207.731 364.206 203.78 373.804 208.105V208.099Z" fill="#DC5829"/>
<path d="M439.78 185.068C433.236 191.497 428.998 199.519 419.378 202.63C409.763 205.747 396.951 200.715 388.745 208.093C398.389 203.769 411.597 207.777 420.965 203.59C430.332 199.41 433.955 192.826 439.78 185.062V185.068Z" fill="#DC5829"/>
<path d="M361.361 187.559C356.697 188.249 351.481 189.433 348.29 193.16C350.36 192.136 352.568 191.187 354.719 190.256C356.864 189.324 361.441 190.491 361.361 187.559Z" fill="#DC5829"/>
<path d="M374.43 189.427C371.313 188.381 367.133 188.864 363.849 187.559C366.121 190.75 371.049 190.445 374.43 189.427Z" fill="#DC5829"/>
<path d="M398.702 187.559C395.367 188.829 391.307 188.415 388.122 189.427C391.526 190.44 396.402 190.756 398.702 187.559Z" fill="#DC5829"/>
<path d="M414.262 193.16C411.1 189.439 405.815 188.249 401.191 187.559C401.111 190.629 405.74 189.226 407.902 190.187C410.053 191.153 412.163 192.199 414.262 193.16Z" fill="#DC5829"/>
<path d="M376.923 192.538C373.771 192.59 369.09 192.584 365.721 193.159C369.453 194.689 373.501 194.574 376.923 192.538Z" fill="#DC5829"/>
<path d="M396.832 193.159C393.497 192.532 388.793 192.636 385.63 192.538C389.063 194.562 393.123 194.706 396.832 193.159Z" fill="#DC5829"/>
<path d="M381.895 192.538C378.301 196 373.235 196.207 368.824 196.897C372.367 197.938 377.91 199.749 380.647 196.276C384.782 198.536 389.986 198.795 394.339 196.897C390.457 195.609 384.425 197.19 381.889 192.538H381.895Z" fill="#DC5829"/>
<path d="M365.091 193.158C362.584 193.17 360.261 195.982 359.49 198.138C361.152 196.309 364.263 195.297 365.091 193.158Z" fill="#DC5829"/>
<path d="M403.057 198.138C402.326 195.987 399.946 193.193 397.456 193.158C398.278 195.384 401.378 196.206 403.057 198.138Z" fill="#DC5829"/>
<path d="M355.135 212.458C345.101 215.069 335.572 206.127 329.615 198.767C332.277 205.397 338.177 210.124 343.927 213.706C342.116 214.063 339.241 212.775 338.326 214.948C351.38 214.546 356.469 232.556 369.448 231.13C358.631 230.578 354.364 218.002 345.175 214.948C353.542 209.635 358.315 221.987 366.337 218.68C362.473 218.767 359.431 216.357 356.377 214.322C358.361 209.192 347.038 205.224 342.685 206.852C347.102 207.657 352.306 208.508 355.135 212.453V212.458Z" fill="#DC5829"/>
<path d="M432.934 198.767C427.017 206.11 417.396 215.081 407.413 212.458C410.11 208.134 416.01 208.295 419.863 206.236C414.958 206.242 404.026 208.715 406.171 214.327C403.147 216.334 400.053 218.795 396.212 218.686C404.147 221.987 409.231 209.606 417.373 214.954C408.357 218.399 403.4 230.038 393.101 231.757C406.557 231.504 411.025 214.971 424.222 214.954C423.337 212.757 420.433 214.057 418.621 213.712C424.349 210.141 430.266 205.426 432.934 198.772V198.767Z" fill="#DC5829"/>
<path d="M422.355 136.523C418.33 125.079 431.642 116.822 426.277 104.596C420.918 92.3591 409.825 101.698 403.684 108.518C396.944 105.487 388.991 103.998 381.705 103.135C374.431 102.279 366.904 107.19 360.256 108.029C353.608 108.869 351.51 97.4655 343.93 98.5639C336.357 99.668 334.011 109.3 335.845 115.988C337.68 122.681 342.596 129.07 341.44 135.913C345.535 124.826 334.005 118.202 338.341 106.672C342.683 95.1539 352.533 105.648 358.243 111.64C372.723 104.677 389.836 104.746 404.299 111.64C409.998 105.125 420.935 95.8612 424.351 107.77C427.766 119.68 415.443 126.356 422.344 136.54L422.355 136.523Z" fill="#DC5829"/>
<path opacity="0.99" d="M353.268 116.609C352.026 112.291 348.604 107.472 343.929 106.649C351.117 110.278 349.266 117.667 346.419 123.452C348.599 121.33 349.892 117.656 353.268 116.603V116.609Z" fill="#DC5829"/>
<path opacity="0.99" d="M418.619 106.649C413.95 107.454 410.54 112.291 409.281 116.609C412.616 117.639 413.967 121.302 416.129 123.458C413.312 117.639 411.385 110.33 418.619 106.655V106.649Z" fill="#DC5829"/>
<path d="M403.056 117.23C391.026 107.391 371.669 107.495 359.49 117.23C366.092 115.804 372.538 113.837 379.41 113.498C379.686 116.701 379.042 124.441 379.41 127.19C379.778 129.939 377.891 138.461 381.227 138.346C384.556 138.219 382.808 129.283 383.142 126.569C383.475 123.855 382.889 116.621 383.142 113.498C390.036 113.774 396.523 115.678 403.061 117.23H403.056Z" fill="#DC5829"/>
<path d="M381.273 141.503C377.248 137.046 373.987 130.29 368.047 127.345C362.101 124.401 356.655 130.094 352.486 135.747C348.323 141.405 348.237 149.358 350.911 156.926C353.584 164.488 364.165 162.998 371.934 162.665C369.513 170.917 361.405 176.443 358.863 184.447C351.744 183.09 344.51 173.878 354.505 170.135C343.975 170.945 337.995 160.934 338.323 151.463C337.219 159.87 340.284 169.859 349.525 171.382C342.952 179.41 354.545 185.695 361.348 186.322C364.217 173.194 380.905 162.383 373.797 147.11C374.953 151.693 373.924 156.282 373.176 160.802C367.506 160.042 357.23 163.228 354.706 157.489C352.181 151.75 351.831 145.304 354.321 140.077C356.805 134.844 360.813 132.308 365.712 130.307C371.601 135.741 378.311 141.883 380.652 149.6C384.907 143.343 390.152 135.482 396.834 130.307C401.75 132.227 406.138 135.223 408.467 140.456C410.802 145.684 410.261 152.481 407.604 157.88C404.953 163.28 394.85 159.899 389.37 160.807C388.145 156.362 388.484 151.141 388.128 147.115C382.463 162.964 398.059 173.073 401.198 186.328C408.013 185.695 419.588 179.439 413.021 171.388C422.009 170.037 426.115 159.301 423.602 151.469C425.27 161.515 418.064 170.738 408.041 170.14C417.984 173.849 410.882 183.096 403.683 184.453C401.164 176.495 393.033 170.911 390.612 162.67C398.582 163.205 409.249 164.327 411.819 156.489C414.39 148.651 414.154 141.118 409.859 135.333C405.563 129.559 400.025 124.441 394.16 127.627C388.289 130.813 385.298 136.707 381.279 141.509L381.273 141.503Z" fill="#DC5829"/>
<path opacity="0.98" d="M367.581 143.37C366.189 139.794 366.747 133.06 361.405 134.705C356.057 136.349 358.214 142.169 361.98 143.37C359.41 141.392 358.168 136.2 362.595 135.906C367.029 135.613 363.705 142.22 367.581 143.37Z" fill="#DC5829"/>
<path opacity="0.94" d="M399.946 143.992C403.707 142.618 406.456 136.137 400.619 134.613C394.777 133.089 396.646 140.151 394.345 143.371C398.135 142.698 395.352 134.239 400.521 135.953C405.68 137.666 401.43 141.651 399.946 143.992Z" fill="#DC5829"/>
<path opacity="0.98" d="M343.311 137.144C337.549 143.09 332.172 150.773 332.73 159.548C327.456 158.473 330.004 163.384 328.975 167.001C327.945 170.624 322.569 169.692 322.77 165.155C319.452 171.664 326.531 175.661 331.637 179.313C336.749 182.964 338.233 190.86 339.573 196.271C339.452 194.712 339.883 192.958 340.815 191.912C347.468 207.461 368.779 194.684 376.289 208.715C372.822 197.979 360.251 199.824 351.396 198.755C353.27 193.453 361.298 193.735 363.219 190.043C359.596 191.544 355.628 191.555 353.075 195.46C350.527 199.364 346.795 197.001 344.081 194.247C341.367 191.492 341.407 183.482 338.946 188.801C338.497 179.698 328.52 176.92 324.006 170.75C329.21 173.171 332.58 165.46 330.228 161.411C331.833 159.876 333.04 161.877 334.587 162.032C331.729 152.573 338.946 144.557 343.299 137.139L343.311 137.144Z" fill="#DC5829"/>
<path opacity="0.98" d="M429.823 159.553C430.324 150.887 424.936 142.578 419.243 137.149C423.872 144.539 430.64 152.67 427.955 162.043C429.519 162.02 430.732 159.754 432.313 161.422C429.956 165.459 433.348 173.182 438.535 170.761C436.505 174.458 431.652 176.759 428.42 179.318C425.194 181.882 424.182 190.934 421.727 186.322C421.784 189.663 416.896 199.076 412.44 198.099C407.983 197.121 405.217 188.892 399.317 190.059C401.278 193.78 409.237 193.452 411.14 198.771C401.738 199.674 389.306 198.311 385.62 209.352C389.196 202.871 396.908 200.359 404.291 201.261C411.675 202.164 418.116 197.892 421.721 191.923C422.75 192.917 423.015 194.763 422.963 196.281C424.274 190.813 425.93 182.595 431.209 179.007C436.488 175.425 442.906 171.595 439.766 165.16C440.059 170.1 433.941 170.468 433.406 166.54C432.871 162.612 434.746 158.708 429.806 159.559L429.823 159.553Z" fill="#DC5829"/>
<path d="M326.498 149.593C326.354 152.227 326.625 154.838 325.877 157.063C323.979 163.09 323.353 152.296 324.635 150.214C319.258 153.308 318.12 161.272 317.165 167.644C316.21 174.01 321.869 179.444 325.877 183.826C324.054 183.964 322.622 182.75 320.897 182.584C322.881 185.35 326.998 185.511 330.236 185.695C322.473 178.259 314.56 167.5 322.145 157.063C321.622 162.917 328.125 161.203 327.539 156.856C326.947 152.52 327.47 148.972 327.119 145.234C326.567 146.678 326.584 148.018 326.498 149.593Z" fill="#DC5829"/>
<path d="M435.429 145.234C435.049 149.012 435.521 152.963 435.222 157.264C434.923 161.56 440.863 162.503 440.409 157.057C443.324 161.773 444.359 169.047 441.841 174.05C439.328 179.059 434.457 181.169 432.318 185.689C435.584 185.505 439.644 185.332 441.657 182.578C439.903 182.727 438.488 183.97 436.677 183.82C440.553 179.404 446.366 174.01 445.389 167.638C444.405 161.267 443.301 153.285 437.919 150.209C438.126 153.061 439.914 157.454 437.298 159.547C435.964 154.981 437.275 149.674 435.429 145.234Z" fill="#DC5829"/>
<path d="M389.986 153.953C393.528 154.235 397.191 155.839 400.411 153.798C403.637 151.756 402.067 146.259 406.788 148.352C401.59 144.2 391.101 146.305 389.986 153.953ZM395.546 153.372C391.389 150.894 395.943 145.569 399.324 147.104C402.562 148.582 399.698 155.856 395.546 153.372Z" fill="#DC5829"/>
<path d="M366.338 148.973C364.976 149.151 365.177 150.346 364.47 151.461C366.033 151.961 367.751 150.283 366.338 148.973Z" fill="#DC5829"/>
<path d="M398.083 151.461C397.457 150.248 397.434 149.145 396.216 148.973C394.923 150.317 396.44 151.966 398.083 151.461Z" fill="#DC5829"/>
<path d="M325.878 157.064C326.626 154.844 326.355 152.227 326.499 149.594C326.171 151.612 326.304 154.729 325.878 157.064Z" fill="#DC5829"/>
<path d="M373.802 178.225C369.697 180.559 373.699 185.378 377.535 183.826C378.075 185.303 378.075 188.069 380.024 188.184C378.995 186.839 380.093 182.227 377.535 181.962C374.976 181.692 371.807 181.836 373.802 178.23V178.225Z" fill="#DC5829"/>
<path d="M385.01 183.826C388.857 185.338 392.854 180.577 388.742 178.225C390.628 181.727 387.684 181.819 385.056 182.008C382.434 182.204 383.549 186.804 382.514 188.184C384.556 188.075 384.406 185.269 385.004 183.826H385.01Z" fill="#DC5829"/>
<path opacity="0.97" d="M373.804 208.099C365.586 200.658 352.268 205.874 342.694 202.487C333.125 199.094 329.456 191.446 322.762 185.074C328.513 192.809 332.584 199.859 342.015 203.792C351.44 207.731 364.206 203.78 373.804 208.105V208.099Z" fill="#DC5829"/>
<path opacity="0.97" d="M439.78 185.068C433.236 191.497 428.998 199.519 419.378 202.63C409.763 205.747 396.951 200.715 388.745 208.093C398.389 203.769 411.597 207.777 420.965 203.59C430.332 199.41 433.955 192.826 439.78 185.062V185.068Z" fill="#DC5829"/>
<path opacity="0.93" d="M361.361 187.559C356.697 188.249 351.481 189.433 348.29 193.16C350.36 192.136 352.568 191.187 354.719 190.256C356.864 189.324 361.441 190.491 361.361 187.559Z" fill="#DC5829"/>
<path d="M374.43 189.427C371.313 188.381 367.133 188.864 363.849 187.559C366.121 190.75 371.049 190.445 374.43 189.427Z" fill="#DC5829"/>
<path d="M398.702 187.559C395.367 188.829 391.307 188.415 388.122 189.427C391.526 190.44 396.402 190.756 398.702 187.559Z" fill="#DC5829"/>
<path opacity="0.93" d="M414.262 193.16C411.1 189.439 405.815 188.249 401.191 187.559C401.111 190.629 405.74 189.226 407.902 190.187C410.053 191.153 412.163 192.199 414.262 193.16Z" fill="#DC5829"/>
<path d="M376.923 192.538C373.771 192.59 369.09 192.584 365.721 193.159C369.453 194.689 373.501 194.574 376.923 192.538Z" fill="#DC5829"/>
<path d="M396.832 193.159C393.497 192.532 388.793 192.636 385.63 192.538C389.063 194.562 393.123 194.706 396.832 193.159Z" fill="#DC5829"/>
<path d="M381.895 192.538C378.301 196 373.235 196.207 368.824 196.897C372.367 197.938 377.91 199.749 380.647 196.276C384.782 198.536 389.986 198.795 394.339 196.897C390.457 195.609 384.425 197.19 381.889 192.538H381.895Z" fill="#DC5829"/>
<path d="M365.091 193.158C362.584 193.17 360.261 195.982 359.49 198.138C361.152 196.309 364.263 195.297 365.091 193.158Z" fill="#DC5829"/>
<path d="M403.057 198.138C402.326 195.987 399.946 193.193 397.456 193.158C398.278 195.384 401.378 196.206 403.057 198.138Z" fill="#DC5829"/>
<path d="M355.135 212.458C345.101 215.069 335.572 206.127 329.615 198.767C332.277 205.397 338.177 210.124 343.927 213.706C342.116 214.063 339.241 212.775 338.326 214.948C351.38 214.546 356.469 232.556 369.448 231.13C358.631 230.578 354.364 218.002 345.175 214.948C353.542 209.635 358.315 221.987 366.337 218.68C362.473 218.767 359.431 216.357 356.377 214.322C358.361 209.192 347.038 205.224 342.685 206.852C347.102 207.657 352.306 208.508 355.135 212.453V212.458Z" fill="#DC5829"/>
<path d="M432.934 198.767C427.017 206.11 417.396 215.081 407.413 212.458C410.11 208.134 416.01 208.295 419.863 206.236C414.958 206.242 404.026 208.715 406.171 214.327C403.147 216.334 400.053 218.795 396.212 218.686C404.147 221.987 409.231 209.606 417.373 214.954C408.357 218.399 403.4 230.038 393.101 231.757C406.557 231.504 411.025 214.971 424.222 214.954C423.337 212.757 420.433 214.057 418.621 213.712C424.349 210.141 430.266 205.426 432.934 198.772V198.767Z" fill="#DC5829"/>
<path d="M355.76 148.352C360.435 146.172 359.032 151.934 362.178 153.763C365.323 155.592 368.601 154.361 371.942 153.959C372.068 146.034 360.533 144.361 355.76 148.358V148.352ZM366.197 153.809C361.735 155.068 360.378 147.593 364.472 147.104C368.451 146.638 370.659 152.55 366.197 153.809Z" fill="#DC5829"/>
<path d="M381.272 261.135C328.327 261.135 285.256 218.064 285.256 165.12C285.256 112.175 328.327 69.0986 381.272 69.0986C434.216 69.0986 477.287 112.17 477.287 165.114C477.287 218.059 434.216 261.13 381.272 261.13V261.135ZM381.272 71.8704C329.857 71.8704 288.028 113.699 288.028 165.114C288.028 216.529 329.857 258.358 381.272 258.358C432.687 258.358 474.516 216.529 474.516 165.114C474.516 113.699 432.687 71.8704 381.272 71.8704Z" fill="white"/>
<path d="M381.274 309.893C301.446 309.893 236.5 244.947 236.5 165.114C236.5 85.2798 301.446 20.3398 381.274 20.3398C461.102 20.3398 526.047 85.2856 526.047 165.114C526.047 244.941 461.102 309.887 381.274 309.887V309.893ZM381.274 25.8833C304.505 25.8833 242.043 88.3448 242.043 165.114C242.043 241.882 304.499 304.344 381.274 304.344C458.048 304.344 520.504 241.888 520.504 165.114C520.504 88.3391 458.048 25.8833 381.274 25.8833Z" fill="white"/>
<path d="M262.739 194.631C264.492 194.631 265.913 193.21 265.913 191.456C265.913 189.703 264.492 188.282 262.739 188.282C260.986 188.282 259.565 189.703 259.565 191.456C259.565 193.21 260.986 194.631 262.739 194.631Z" fill="white"/>
<path d="M499.814 194.631C501.567 194.631 502.988 193.21 502.988 191.456C502.988 189.703 501.567 188.282 499.814 188.282C498.061 188.282 496.64 189.703 496.64 191.456C496.64 193.21 498.061 194.631 499.814 194.631Z" fill="white"/>
<path d="M384.842 213.354H377.717C377.259 213.354 376.889 213.725 376.889 214.183V235.609C376.889 236.066 377.259 236.437 377.717 236.437H384.842C385.299 236.437 385.67 236.066 385.67 235.609V214.183C385.67 213.725 385.299 213.354 384.842 213.354Z" fill="white"/>
<path d="M392.818 228.461V221.336C392.818 220.879 392.447 220.508 391.99 220.508H370.564C370.106 220.508 369.736 220.879 369.736 221.336V228.461C369.736 228.918 370.106 229.289 370.564 229.289H391.99C392.447 229.289 392.818 228.918 392.818 228.461Z" fill="white"/>
<path d="M275.546 174.056L255.81 174.913L256.138 182.487L253.119 182.619L252.234 162.159L255.253 162.026L255.58 169.6L275.316 168.743L275.546 174.056Z" fill="white"/>
<path d="M275.594 158.839L252.925 156.551L253.46 151.226L276.128 153.514L275.594 158.839Z" fill="white"/>
<path d="M274.272 146.815C271.977 148.092 268.843 148.184 264.945 147.074C260.074 145.688 257.337 143.008 256.698 139.035C256.066 135.061 257.285 129.386 260.356 122.054L263.231 122.87C258.067 135.728 259.004 140.018 266.359 142.111C269.355 142.962 271.69 143.037 273.306 142.29C274.927 141.542 276.118 139.754 276.929 136.907C277.486 134.941 277.739 133.014 277.659 131.128C277.596 130.426 277.44 130.179 276.831 130.012L272.052 128.649L270.04 135.728L267.285 134.946L270.678 123.026L281.512 126.108C281.236 127.074 280.971 128.931 280.707 131.703C280.413 134.463 280.04 136.683 279.562 138.374C278.332 142.698 276.584 145.51 274.283 146.815H274.272Z" fill="white"/>
<path d="M285.749 120.663C284.783 122.394 283.667 122.71 281.913 121.727L266.973 113.371C265.214 112.388 264.903 111.272 265.869 109.547L273.799 95.3779L276.439 96.8558L270.199 108.006C269.895 108.552 270.015 108.984 270.562 109.288L275.202 111.888L281.58 100.49L284.052 101.87L277.675 113.268L283.523 116.54C284.075 116.844 284.501 116.724 284.806 116.177L291.045 105.027L293.679 106.499L285.749 120.668V120.663Z" fill="white"/>
<path d="M295.394 103.969L280.741 90.8061C279.269 89.4835 279.16 87.9482 280.511 86.453L285.37 81.0476C288.315 77.7698 290.839 75.8089 292.944 75.1591C295.049 74.4691 297.084 75.0269 299.045 76.7923C300.471 78.0746 301.161 79.288 301.276 81.0418C301.368 82.7727 300.35 84.9924 298.177 87.6491L310.954 86.6543L306.624 91.4732L294.514 92.054C293.07 92.1115 292.651 90.9729 293.64 89.8746C295.635 87.6491 296.791 85.8952 297.055 84.6129C297.343 83.3075 296.831 82.0827 295.589 80.9728C294.255 79.7767 293.03 79.3512 291.915 79.702C290.793 80.0068 289.298 81.2029 287.446 83.2615L284.795 86.2115C284.376 86.6773 284.479 86.9878 284.974 87.4249L298.97 100.001L295.394 103.98V103.969Z" fill="white"/>
<path d="M323.874 76.1371C322.879 75.8841 321.861 75.1537 320.734 73.9174L307.657 59.4895L312.608 57.0858L323.954 70.3234C324.966 71.5482 325.484 71.8185 326.306 71.4217C327.1 71.0364 327.22 70.4901 326.91 68.995L324.098 54.0323C323.753 52.3129 324.316 51.0938 325.817 50.3692C327.289 49.6562 328.595 49.9667 329.733 51.3008L339.67 62.704C340.711 63.9116 341.2 64.1991 342.022 63.8023C342.844 63.4055 342.948 62.8995 342.655 61.3641L339.25 44.1702L342.62 42.5371L345.875 61.7954C346.134 63.417 346.076 64.6707 345.702 65.5505C345.323 66.4303 344.5 67.1836 343.224 67.7989C340.308 69.2135 338.595 68.7822 336.444 66.298L327.755 56.3842L330.159 69.4148C330.751 72.589 330.084 74.1704 327.508 75.4183C326.064 76.1198 324.851 76.3556 323.868 76.1313L323.874 76.1371Z" fill="white"/>
<path d="M350.892 52.871C349.702 45.1941 353.422 40.6685 362.065 39.3286C370.68 37.9945 375.596 41.1803 376.786 48.8572C377.983 56.5685 374.256 61.0941 365.585 62.4397C356.97 63.7739 352.083 60.5881 350.892 52.8767V52.871ZM371.623 49.6277C370.685 43.5667 367.885 41.324 362.508 42.1579C357.068 43.0032 355.078 45.9819 356.016 52.0487C356.976 58.2362 359.667 60.3983 365.136 59.5473C370.639 58.6962 372.583 55.8152 371.623 49.6277Z" fill="white"/>
<path d="M383.74 58.8739C382.481 57.3788 382.021 54.8601 382.412 51.2603L383.89 37.626L387.518 38.017C388.611 38.1378 389.117 38.7301 389.002 39.8227L387.737 51.4903C387.449 54.1471 387.633 55.97 388.254 56.959C388.904 57.9481 390.296 58.5404 392.458 58.7762C394.833 59.035 396.834 58.9947 398.479 58.7014C399.22 58.5634 399.393 58.4197 399.462 57.8274L401.446 39.5294L406.73 40.1044L404.384 61.7492C403.355 61.6399 401.452 61.6514 398.617 61.8182C395.787 61.9562 393.384 61.9159 391.411 61.7032C387.564 61.2891 385.011 60.3461 383.746 58.8797L383.74 58.8739Z" fill="white"/>
<path d="M408.053 63.6753L416.069 42.3525L418.985 43.4509C420.428 43.9914 421.348 44.946 421.785 46.2859L427.996 65.2566L434.062 49.1208L437.156 50.2824L429.14 71.6051L426.282 70.5298C424.839 69.9893 423.919 69.0347 423.51 67.7063L417.288 48.494L411.141 64.8368L408.047 63.6753H408.053Z" fill="white"/>
<path d="M434.859 74.9806C433.232 73.8478 433.031 72.7092 434.181 71.0588L443.968 57.0162C445.118 55.3658 446.257 55.1588 447.884 56.2974L452.427 59.4659C456.585 62.3641 459.172 64.9748 460.391 67.2405C461.024 68.3733 461.363 69.5292 461.352 70.708C461.363 73.0542 460.483 75.0899 458.666 77.6948C456.866 80.2768 455.262 81.8064 453.054 82.6057C449.782 83.7788 445.751 82.462 439.396 78.1491L434.854 74.9806H434.859ZM441.518 76.0962C444.486 78.1664 446.895 79.1152 448.689 78.9082C450.483 78.7012 452.329 77.2636 454.215 74.5551C456.067 71.8984 456.78 69.6672 456.355 67.9133C455.929 66.1594 454.204 64.2273 451.237 62.1571L449.069 60.6447C448.551 60.2824 448.114 60.3629 447.758 60.8805L439.12 73.2727C438.758 73.7903 438.839 74.2273 439.356 74.5838L441.524 76.0962H441.518Z" fill="white"/>
<path d="M472.696 111.577C462.938 101.899 461.615 94.6761 469.505 88.7704C473.461 85.8089 477.118 85.0786 480.448 86.637C483.777 88.1954 487.159 92.0309 490.597 98.1437L488.153 99.9723C482.213 89.7192 478.487 88.5749 472.639 92.951C466.796 97.3271 467.095 101.508 475.146 109.748L472.702 111.577H472.696Z" fill="white"/>
<path d="M481.766 131.876L485.073 128.443L479.207 115.004L474.44 115.096L472.939 111.663L493.158 111.421C496.39 111.352 498.322 112.324 499.484 114.975C500.795 117.977 500.254 119.961 497.896 122.503L484.095 137.218L481.766 131.882V131.876ZM482.065 114.958L487.051 126.378L494.377 118.782C495.602 117.425 495.832 116.775 495.481 115.964C495.079 115.038 494.486 114.785 492.698 114.774L482.065 114.952V114.958Z" fill="white"/>
<path d="M484.15 138.835L503.575 135.58C505.53 135.252 506.789 136.126 507.123 138.11L508.325 145.275C509.049 149.617 509.015 152.814 508.21 154.861C507.439 156.937 505.731 158.179 503.126 158.616C501.235 158.933 499.86 158.714 498.417 157.714C497.002 156.707 495.904 154.528 495.185 151.175L487.997 161.791L486.927 155.402L494.023 145.569C494.88 144.401 496.03 144.786 496.272 146.241C496.766 149.191 497.416 151.187 498.256 152.193C499.101 153.234 500.372 153.59 502.017 153.32C503.782 153.021 504.88 152.331 505.306 151.238C505.766 150.175 505.766 148.26 505.306 145.528L504.65 141.618C504.547 140.997 504.242 140.888 503.592 140.997L485.035 144.102L484.15 138.829V138.835Z" fill="white"/>
<path d="M487.572 166.7C487.681 164.722 488.544 163.952 490.556 164.061L507.647 165.01C509.659 165.119 510.43 165.982 510.321 167.965L509.418 184.176L506.405 184.009L507.112 171.255C507.146 170.628 506.853 170.294 506.221 170.26L500.913 169.967L500.188 183.003L497.359 182.848L498.084 169.811L491.39 169.438C490.763 169.403 490.43 169.702 490.395 170.329L489.688 183.083L486.675 182.917L487.578 166.706L487.572 166.7Z" fill="white"/>
<path d="M267.061 205.067C267.205 204.527 267.63 203.975 268.343 203.394L275.963 197.275L277.349 200.691L270.713 205.585C270.304 205.89 270.218 206.062 270.333 206.344C270.448 206.626 270.649 206.7 271.121 206.626L277.786 205.746C278.907 205.585 279.66 205.999 280.063 206.988C280.465 207.977 280.207 208.788 279.292 209.455L273.916 213.457C273.536 213.75 273.421 213.934 273.536 214.216C273.657 214.51 273.852 214.567 274.33 214.515L282.507 213.382L283.49 215.803L273.749 216.723C272.84 216.815 272.167 216.723 271.696 216.453C271.23 216.194 270.862 215.706 270.569 214.981C270.23 214.136 270.126 213.457 270.258 212.905C270.396 212.353 270.828 211.813 271.558 211.278L275.704 208.184L270.552 208.845C268.792 209.093 267.964 208.569 267.366 207.091C267.038 206.281 266.934 205.596 267.072 205.056L267.061 205.067Z" fill="white"/>
<path d="M287.116 221.187C289.376 225.016 288.801 227.932 285.397 229.939C281.924 231.992 279.135 231.026 276.875 227.196C274.615 223.366 275.109 220.502 278.612 218.432C282.016 216.425 284.851 217.339 287.122 221.187H287.116ZM280.693 227.846C281.452 227.972 282.447 227.679 283.672 226.96C286.047 225.557 286.507 224.177 285.34 222.199C284.178 220.232 282.752 219.985 280.377 221.388C277.962 222.814 277.496 224.16 278.663 226.138C279.256 227.138 279.934 227.719 280.693 227.846Z" fill="white"/>
<path d="M283.404 235.643C283.427 234.654 284.071 233.671 285.319 232.705L291.196 228.139L292.72 230.105C293.163 230.675 293.111 231.175 292.542 231.618L287.757 235.333C287.004 235.919 286.573 236.437 286.492 236.879C286.412 237.322 286.625 237.886 287.125 238.53C287.752 239.335 288.315 239.904 288.804 240.249C289.051 240.439 289.281 240.445 289.482 240.289L296.429 234.89L298.62 237.707L289.897 244.487C289.494 243.97 288.752 243.193 287.677 242.176C286.613 241.146 285.762 240.232 285.124 239.41C283.951 237.897 283.381 236.644 283.393 235.649L283.404 235.643Z" fill="white"/>
<path d="M291.726 247.311L299.914 239.128L301.346 240.56C302.065 241.279 302.37 242.107 302.249 243.038L301.243 251.21L306.625 245.833L308.281 247.489L300.093 255.672L298.684 254.263C297.965 253.539 297.66 252.716 297.781 251.785L298.856 243.498L293.387 248.967L291.731 247.311H291.726Z" fill="white"/>
<path d="M304.003 258.972C302.997 258.19 302.911 257.517 303.693 256.511L308.621 250.168C309.403 249.162 310.076 249.076 311.082 249.858L313.474 251.715C315.527 253.308 316.746 254.7 317.275 255.861C317.54 256.453 317.649 257.04 317.597 257.627C317.499 258.823 317.011 259.754 316.027 261.025C315.061 262.273 314.285 262.957 313.152 263.354C311.507 263.935 309.529 263.204 306.395 260.83L304.003 258.972ZM308.023 259.513C309.115 260.364 310.018 260.738 310.731 260.651C311.467 260.559 312.278 259.932 313.175 258.777C314.066 257.632 314.463 256.706 314.36 255.982C314.268 255.246 313.681 254.464 312.589 253.613L311.657 252.888C311.404 252.693 311.18 252.721 310.984 252.974L306.993 258.11C306.798 258.363 306.827 258.587 307.08 258.782L308.023 259.513Z" fill="white"/>
<path d="M327.725 274.384C321.14 271.928 319.168 268.875 321.566 264.533C322.779 262.342 324.28 261.238 326.091 261.221C327.903 261.204 330.266 262.273 333.199 264.418L332.175 266.276C327.696 263.142 326.126 263.441 324.608 266.195C323.095 268.932 323.878 270.617 328.765 272.521L327.73 274.389L327.725 274.384Z" fill="white"/>
<path d="M338.527 279.151L338.561 277.144L332.546 274.66L331.155 276.103L328.768 275.114L335.835 267.909C337.054 266.632 338.274 266.431 339.746 267.041C341.396 267.725 342.109 268.708 342.103 270.52V280.629L338.515 279.151H338.527ZM333.909 273.257L338.607 275.201L338.693 270.56C338.682 269.916 338.555 269.674 338.205 269.531C337.837 269.381 337.578 269.462 337.141 269.887L333.903 273.257H333.909Z" fill="white"/>
<path d="M344.124 281.256L346.711 271.866C347.051 270.635 347.718 270.256 348.948 270.595L352.899 271.682C356.97 272.803 358.413 274.408 357.706 276.978C357.183 278.881 355.791 279.658 353.526 279.301L356.05 284.546L352.053 283.442L349.914 278.467C349.609 277.588 350.11 277.099 350.909 277.317C352.956 277.881 353.807 277.553 354.175 276.213C354.538 274.908 354.037 274.189 352.134 273.666L350.443 273.2C350.15 273.119 350.052 273.24 349.96 273.562L347.597 282.205L344.124 281.251V281.256Z" fill="white"/>
<path d="M360.087 285.212C358.827 285.028 358.425 284.481 358.609 283.222L359.782 275.275C359.966 274.016 360.512 273.607 361.771 273.797L369.834 274.987L369.517 277.115L363.744 276.264C363.428 276.218 363.249 276.35 363.203 276.667L362.91 278.668L368.822 279.542L368.546 281.405L362.634 280.531L362.289 282.883C362.243 283.199 362.375 283.377 362.692 283.423L368.465 284.274L368.149 286.402L360.092 285.212H360.087Z" fill="white"/>
<path d="M378.456 287.138L378.611 277.736L375.04 277.679L375.075 275.511L385.799 275.689L385.765 277.857L382.194 277.799L382.038 287.201L378.45 287.144L378.456 287.138Z" fill="white"/>
<path d="M389.474 286.995C388.203 287.104 387.686 286.667 387.577 285.396L386.904 277.386C386.795 276.115 387.232 275.597 388.502 275.488L396.622 274.804L396.8 276.949L390.987 277.437C390.67 277.466 390.521 277.639 390.55 277.955L390.722 279.973L396.68 279.473L396.841 281.348L390.883 281.848L391.084 284.217C391.113 284.533 391.286 284.683 391.602 284.654L397.416 284.165L397.594 286.31L389.474 286.995Z" fill="white"/>
<path d="M409.732 284.022C403.09 286.322 399.623 285.224 398.708 280.347C398.248 277.886 398.708 276.081 400.089 274.913C401.474 273.746 403.976 273.067 407.604 272.854L407.995 274.936C402.544 275.373 401.526 276.604 402.107 279.692C402.682 282.763 404.361 283.568 409.341 281.923L409.738 284.022H409.732Z" fill="white"/>
<path d="M412.22 283.568L408.822 272.532L412.249 271.474L413.56 275.724L418.206 274.292L416.895 270.042L420.34 268.984L423.738 280.019L420.294 281.083L418.85 276.391L414.204 277.823L415.647 282.515L412.22 283.573V283.568Z" fill="white"/>
<path d="M426.886 278.841L422.119 268.294L423.965 267.461C424.896 267.041 425.77 267.047 426.604 267.495L433.896 271.319L430.762 264.39L432.895 263.424L437.662 273.97L435.845 274.792C434.914 275.212 434.04 275.207 433.206 274.758L425.828 270.83L429.014 277.875L426.88 278.841H426.886Z" fill="white"/>
<path d="M439.785 259.203C443.575 256.874 446.496 257.403 448.566 260.773C450.677 264.212 449.763 267.018 445.973 269.341C442.183 271.67 439.308 271.227 437.18 267.76C435.11 264.39 435.979 261.538 439.785 259.203ZM446.554 265.505C446.669 264.746 446.358 263.757 445.616 262.544C444.173 260.192 442.781 259.755 440.826 260.957C438.883 262.147 438.658 263.579 440.102 265.931C441.568 268.323 442.925 268.76 444.88 267.558C445.869 266.949 446.439 266.264 446.554 265.5V265.505Z" fill="white"/>
<path d="M455.178 262.917C454.171 263.699 453.498 263.618 452.716 262.612L446.684 254.86L449.525 252.646L455.011 259.691C455.206 259.944 455.431 259.973 455.684 259.777L459.887 256.505L461.221 258.213L455.183 262.911L455.178 262.917Z" fill="white"/>
<path d="M458.837 244.436C462.034 241.342 465.002 241.227 467.75 244.068C470.551 246.966 470.269 249.904 467.066 252.998C463.869 256.092 460.965 256.276 458.141 253.355C455.393 250.514 455.623 247.541 458.831 244.436H458.837ZM466.807 249.128C466.75 248.363 466.238 247.46 465.249 246.443C463.334 244.459 461.879 244.332 460.229 245.931C458.59 247.512 458.676 248.961 460.597 250.945C462.546 252.964 463.967 253.102 465.617 251.503C466.457 250.692 466.859 249.899 466.807 249.134V249.128Z" fill="white"/>
<path d="M473.234 244.573C471.889 244.7 470.416 244.136 468.841 242.865C466.863 241.278 466.109 239.473 466.61 237.443C467.11 235.413 468.795 233.003 471.687 230.191L473.355 231.526C471.843 233.032 470.779 234.303 470.152 235.373C469.531 236.425 469.278 237.305 469.422 238.018C469.554 238.719 470.089 239.432 470.997 240.157C472.078 241.025 473.01 241.468 473.775 241.485C474.534 241.485 475.31 240.997 476.075 240.042C476.587 239.409 476.943 238.777 477.179 238.127C477.277 237.776 477.237 237.621 476.989 237.42L475.557 236.275L473.694 238.599L472.211 237.414L476.138 232.515L480.813 236.264C480.405 236.776 479.865 237.65 479.203 238.857C478.542 240.065 477.904 241.043 477.306 241.79C475.931 243.504 474.568 244.441 473.234 244.573Z" fill="white"/>
<path d="M482.833 234.119L473.189 227.713L475.173 224.723L484.817 231.129L482.833 234.119Z" fill="white"/>
<path d="M487.341 227.046C486.72 228.162 486.071 228.346 484.955 227.73L477.928 223.832C476.812 223.211 476.628 222.561 477.249 221.445L481.206 214.32L483.086 215.367L480.251 220.468C480.096 220.749 480.159 220.962 480.435 221.117L482.206 222.101L485.11 216.874L486.755 217.788L483.851 223.015L485.927 224.171C486.209 224.326 486.421 224.263 486.577 223.987L489.412 218.886L491.292 219.933L487.336 227.058L487.341 227.046Z" fill="white"/>
<path d="M490.187 216.724C492.735 212.434 493.465 210.059 492.39 209.605C491.412 209.208 490.607 210.91 489.457 212.52C489.043 213.055 488.623 213.55 488.215 213.987C487.364 214.855 486.104 215.24 484.799 214.688C482.321 213.636 481.585 211.526 485.949 203.849L487.812 204.636C484.931 209.875 485.012 211.002 485.817 211.341C486.11 211.468 486.421 211.387 486.76 211.117C487.41 210.559 487.922 209.478 488.738 208.369C489.152 207.799 489.572 207.299 490.003 206.862C490.86 205.976 492.183 205.603 493.592 206.201C494.575 206.62 495.161 207.075 495.455 208.219C495.598 208.783 495.587 209.455 495.443 210.243C495.133 211.79 494.086 214.343 492.211 217.587L490.187 216.73V216.724Z" fill="white"/>
<defs>
<linearGradient id="paint0_linear_2025_2" x1="958" y1="147.861" x2="954.591" y2="778.855" gradientUnits="userSpaceOnUse">
<stop stop-color="#13294B"/>
<stop offset="1" stop-color="white"/>
</linearGradient>
</defs>
</svg>
