<?xml version="1.0" encoding="UTF-8"?>
<svg id="Layer_2" data-name="Layer 2" xmlns="http://www.w3.org/2000/svg" xmlns:xlink="http://www.w3.org/1999/xlink" viewBox="0 0 162.09 37.61">
  <defs>
    <style>
      .cls-1 {
        fill: url(#Gradient_Swatch_Cyan_2757);
      }

      .cls-2 {
        fill: #002360;
      }

      .cls-3 {
        fill: #00aeef;
      }
    </style>
    <linearGradient id="Gradient_Swatch_Cyan_2757" data-name="Gradient Swatch Cyan 2757" x1="146.45" y1="18.81" x2="162.09" y2="18.81" gradientUnits="userSpaceOnUse">
      <stop offset="0" stop-color="#00aeef"/>
      <stop offset=".4" stop-color="#0074b4"/>
      <stop offset=".99" stop-color="#002360"/>
    </linearGradient>
  </defs>
  <g id="Layer_1-2" data-name="Layer 1">
    <g>
      <path class="cls-1" d="M148.1,35.97c-.81-1.52-.24-3.41,1.28-4.22,1.52-.81,3.41-.24,4.22,1.28.81,1.52.24,3.41-1.28,4.22-1.52.81-3.41.24-4.22-1.28ZM160.73,26.23c1.26-.67,1.73-2.24,1.06-3.5s-2.24-1.73-3.5-1.06-1.73,2.24-1.06,3.5,2.24,1.73,3.5,1.06ZM159.16,12c.97-.52,1.34-1.73.82-2.7s-1.73-1.34-2.7-.82c-.97.52-1.34,1.73-.82,2.7.52.97,1.73,1.34,2.7.82ZM148.46,2.57c.66-.36.91-1.18.56-1.85s-1.18-.91-1.85-.56-.91,1.18-.56,1.85,1.18.91,1.85.56Z"/>
      <g>
        <path class="cls-3" d="M0,3.79h4.61v8.59h9.26V3.79h4.62v20.45h-4.62v-8.15H4.61v8.15H0V3.79Z"/>
        <path class="cls-3" d="M32.72,15.43c-.02-.7-.17-1.29-.44-1.79s-.66-.89-1.17-1.17c-.51-.28-1.09-.42-1.75-.42-.73,0-1.37.19-1.92.56-.55.38-.97.89-1.27,1.55s-.45,1.42-.45,2.28c0,.98.17,1.81.51,2.51.34.7.82,1.23,1.44,1.61.62.38,1.33.56,2.14.56,1.47,0,2.75-.55,3.84-1.64l2.28,2.26c-.75.85-1.68,1.49-2.78,1.95s-2.34.68-3.71.68c-1.62,0-3.02-.32-4.2-.96-1.18-.64-2.1-1.54-2.75-2.69s-.97-2.5-.97-4.02.33-2.92.99-4.08,1.57-2.05,2.75-2.69c1.17-.64,2.53-.97,4.07-.99,1.79,0,3.25.37,4.39,1.11,1.14.74,1.96,1.79,2.48,3.13.52,1.34.71,2.94.58,4.78h-11.67v-2.54h7.61Z"/>
        <path class="cls-3" d="M45.02,17.66c-.83,0-1.45.14-1.86.42-.41.28-.62.73-.62,1.35s.21,1.08.63,1.42c.42.35,1,.52,1.73.52.64,0,1.21-.11,1.71-.32.5-.22.91-.51,1.24-.87.33-.37.53-.79.61-1.28l.65,2.43c-.43,1.01-1.11,1.79-2.03,2.31s-2.05.79-3.38.79c-1.07,0-2-.21-2.78-.62-.78-.41-1.38-.98-1.8-1.69-.42-.71-.63-1.52-.63-2.42,0-1.41.5-2.52,1.5-3.33,1-.81,2.42-1.22,4.29-1.24h4.62v2.54h-3.86ZM48.43,14.84c0-.83-.27-1.48-.8-1.95-.54-.47-1.32-.71-2.36-.71-.68,0-1.4.12-2.17.35-.77.24-1.55.57-2.34,1l-1.35-2.82c.75-.39,1.49-.72,2.2-.99.71-.26,1.45-.46,2.2-.61.75-.14,1.57-.21,2.45-.21,2.05,0,3.63.48,4.74,1.44,1.11.96,1.67,2.28,1.69,3.98l.03,9.9h-4.26l-.03-9.39Z"/>
        <path class="cls-3" d="M56.61,3.31h4.34v20.92h-4.34V3.31Z"/>
        <path class="cls-2" d="M74.2,3.37c2.58,0,4.58.61,6,1.83,1.42,1.22,2.13,2.94,2.13,5.14s-.71,4.06-2.13,5.32c-1.42,1.26-3.42,1.89-6,1.89h-6.5l1.04-1.04v7.72h-2.38V3.37h7.84ZM74.11,15.5c1.89,0,3.35-.43,4.38-1.3s1.55-2.13,1.55-3.8-.52-2.86-1.55-3.7c-1.03-.83-2.49-1.25-4.38-1.25h-6.41l1.04-1.04v12.13l-1.04-1.04h6.41Z"/>
        <path class="cls-2" d="M91.46,3.37h2.44l9.33,20.86h-2.56l-8.05-18.42-7.99,18.42h-2.5l9.33-20.86ZM86.24,16.75h12.67v2.06h-12.67v-2.06Z"/>
        <path class="cls-2" d="M121.14,7.84c-.79-.81-1.73-1.46-2.82-1.92s-2.2-.7-3.35-.7-2.28.22-3.31.66c-1.03.44-1.94,1.05-2.71,1.83-.78.79-1.38,1.69-1.82,2.73-.44,1.03-.66,2.15-.66,3.34s.22,2.28.66,3.31c.44,1.03,1.04,1.94,1.82,2.71s1.68,1.39,2.71,1.83c1.03.45,2.13.67,3.31.67s2.26-.22,3.32-.67c1.06-.45,2.01-1.07,2.85-1.86l1.46,1.49c-.67.64-1.44,1.19-2.28,1.67-.84.48-1.72.84-2.64,1.1-.91.26-1.86.39-2.83.39-1.51,0-2.92-.27-4.22-.82-1.3-.55-2.44-1.31-3.43-2.28-.98-.97-1.75-2.11-2.31-3.4-.56-1.29-.83-2.67-.83-4.14s.28-2.84.83-4.11,1.33-2.39,2.33-3.37c.99-.97,2.15-1.73,3.46-2.27,1.31-.54,2.73-.8,4.26-.8.95,0,1.89.12,2.8.36.91.24,1.78.58,2.59,1.03.81.45,1.56.99,2.24,1.62l-1.43,1.61Z"/>
        <path class="cls-2" d="M126.89,3.37h2.38v12.4l11.21-12.4h2.86l-14.07,15.35v5.51h-2.38V3.37ZM134.7,12.07l9.21,12.16h-2.89l-7.87-10.25,1.55-1.91Z"/>
      </g>
    </g>
  </g>
</svg>