<?xml version="1.0" encoding="UTF-8"?>
<svg id="Ebene_1" xmlns="http://www.w3.org/2000/svg" version="1.1" viewBox="0 0 1600 400">
  <!-- Generator: Adobe Illustrator 29.3.1, SVG Export Plug-In . SVG Version: 2.1.0 Build 151)  -->
  <defs>
    <style>
      .st0 {
        fill: #fff;
        fill-rule: evenodd;
      }

      .st1 {
        fill: #111820;
      }

      .st2 {
        opacity: .98;
      }

      .st2, .st3, .st4, .st5, .st6 {
        isolation: isolate;
      }

      .st2, .st3, .st4, .st5, .st6, .st7 {
        fill: #dc5928;
      }

      .st3 {
        opacity: .97;
      }

      .st4 {
        opacity: .93;
      }

      .st5 {
        opacity: .94;
      }

      .st6 {
        opacity: .99;
      }
    </style>
  </defs>
  <path class="st0" d="M475.26,285.1c-24.36-1.47-23.73-21.99-23.73-21.99,0-75.44-60.99-136.6-136.23-136.6s-136.23,61.16-136.23,136.6c-.36,10-9.9,9.28-19.96,7.56-39.6-8.05-76.83-19.1-111.05-33.71-17.49-7.47-33.48-13.61-48.07-18.52v181.27h1600v-182.23c-43.33-10.68-126.23-23.05-284.45-29.64-103.13-4.29-248.41,18.37-408.2,43.3-139.12,21.7-289.23,45.12-432.08,53.96Z"/>
  <path class="st7" d="M349.7,239.11c-3.35-9.53,7.74-16.41,3.27-26.59-4.46-10.19-13.7-2.41-18.82,3.27-5.61-2.52-12.24-3.76-18.31-4.48-6.06-.71-12.33,3.38-17.86,4.08-5.54.7-7.29-8.8-13.6-7.88-6.31.92-8.26,8.94-6.73,14.51,1.53,5.58,5.62,10.9,4.66,16.6,3.41-9.23-6.19-14.75-2.58-24.35,3.62-9.59,11.82-.85,16.58,4.14,12.06-5.8,26.31-5.74,38.36,0,4.75-5.43,13.86-13.14,16.7-3.22,2.85,9.92-7.42,15.48-1.67,23.96h0Z"/>
  <path class="st7" d="M292.15,222.52c-1.03-3.6-3.88-7.61-7.78-8.3,5.99,3.02,4.44,9.18,2.07,14,1.81-1.77,2.89-4.83,5.7-5.7h0Z"/>
  <path class="st7" d="M346.59,214.23c-3.89.67-6.73,4.7-7.78,8.3,2.78.86,3.9,3.91,5.7,5.7-2.35-4.85-3.95-10.93,2.07-14h0Z"/>
  <path class="st7" d="M333.62,223.04c-10.02-8.19-26.14-8.11-36.29,0,5.5-1.19,10.87-2.83,16.59-3.11.23,2.67-.31,9.11,0,11.4.31,2.29-1.26,9.39,1.51,9.29,2.77-.11,1.32-7.55,1.6-9.81.28-2.26-.21-8.29,0-10.89,5.74.23,11.15,1.81,16.59,3.11h0Z"/>
  <path class="st7" d="M315.48,243.26c-3.35-3.71-6.07-9.34-11.02-11.79-4.95-2.45-9.49,2.29-12.96,7-3.47,4.71-3.54,11.34-1.31,17.64,2.23,6.3,11.04,5.06,17.51,4.78-2.02,6.87-8.77,11.48-10.89,18.14-5.93-1.13-11.95-8.8-3.63-11.92-8.77.67-13.75-7.66-13.48-15.55-.92,7,1.63,15.32,9.33,16.59-5.47,6.69,4.18,11.92,9.85,12.44,2.39-10.93,16.29-19.94,10.37-32.66.96,3.82.1,7.64-.52,11.4-4.72-.63-13.28,2.02-15.38-2.76-2.1-4.78-2.39-10.15-.32-14.5,2.07-4.36,5.41-6.47,9.49-8.14,4.9,4.53,10.49,9.64,12.44,16.07,3.54-5.21,7.91-11.76,13.48-16.07,4.1,1.6,7.75,4.1,9.69,8.45,1.94,4.35,1.5,10.01-.72,14.51-2.21,4.5-10.62,1.68-15.19,2.44-1.02-3.7-.74-8.05-1.03-11.4-4.72,13.2,8.27,21.62,10.89,32.66,5.68-.53,15.32-5.74,9.85-12.44,7.49-1.13,10.91-10.07,8.81-16.59,1.39,8.37-4.61,16.05-12.96,15.55,8.28,3.09,2.37,10.79-3.63,11.92-2.1-6.63-8.87-11.28-10.89-18.14,6.64.44,15.52,1.38,17.66-5.15,2.14-6.53,1.94-12.8-1.63-17.62-3.58-4.81-8.19-9.07-13.08-6.42-4.89,2.65-7.38,7.56-10.73,11.56h0Z"/>
  <path class="st7" d="M304.08,244.81c-1.16-2.98-.69-8.59-5.14-7.22-4.45,1.37-2.66,6.22.48,7.22-2.14-1.65-3.17-5.97.51-6.22,3.69-.24.92,5.26,4.15,6.22Z"/>
  <path class="st7" d="M331.03,245.33c3.13-1.14,5.42-6.54.56-7.81-4.87-1.27-3.31,4.61-5.22,7.29,3.16-.56.84-7.61,5.14-6.18,4.3,1.43.76,4.75-.48,6.7Z"/>
  <path class="st7" d="M283.86,239.63c-4.8,4.95-9.28,11.35-8.81,18.66-4.39-.9-2.27,3.2-3.13,6.21-.86,3.02-5.34,2.24-5.17-1.54-2.76,5.42,3.13,8.75,7.39,11.79,4.26,3.04,5.49,9.62,6.61,14.12-.1-1.3.26-2.76,1.03-3.63,5.54,12.95,23.29,2.31,29.55,14-2.89-8.94-13.36-7.4-20.73-8.3,1.56-4.42,8.25-4.18,9.85-7.26-3.02,1.25-6.32,1.26-8.45,4.51-2.12,3.25-5.23,1.28-7.49-1.01-2.26-2.29-2.23-8.97-4.28-4.54-.37-7.58-8.68-9.89-12.44-15.03,4.33,2.02,7.14-4.41,5.18-7.78,1.34-1.28,2.34.39,3.63.52-2.38-7.88,3.63-14.55,7.26-20.73h0Z"/>
  <path class="st7" d="M355.92,258.29c.42-7.22-4.07-14.14-8.81-18.66,3.86,6.16,9.49,12.93,7.26,20.73,1.3-.02,2.31-1.91,3.63-.52-1.96,3.36.86,9.79,5.18,7.78-1.69,3.08-5.73,4.99-8.42,7.13-2.69,2.14-3.53,9.67-5.58,5.83.05,2.78-4.02,10.62-7.74,9.81-3.71-.81-6.02-7.67-10.93-6.7,1.63,3.1,8.26,2.83,9.85,7.26-7.83.75-18.19-.38-21.26,8.81,2.98-5.4,9.4-7.49,15.55-6.74,6.15.75,11.51-2.81,14.52-7.78.86.83,1.08,2.37,1.03,3.63,1.09-4.56,2.47-11.4,6.87-14.39,4.4-2.98,9.74-6.17,7.13-11.53.24,4.11-4.85,4.42-5.3,1.15-.44-3.27,1.12-6.52-3-5.81h.01Z"/>
  <path class="st7" d="M269.86,250c-.12,2.19.11,4.37-.52,6.22-1.58,5.02-2.1-3.97-1.03-5.7-4.48,2.58-5.43,9.21-6.22,14.52-.79,5.3,3.92,9.83,7.26,13.48-1.52.11-2.71-.9-4.15-1.03,1.65,2.3,5.08,2.44,7.78,2.59-6.47-6.19-13.06-15.15-6.74-23.85-.44,4.87,4.98,3.45,4.49-.17-.49-3.61-.06-6.57-.35-9.68-.46,1.2-.44,2.32-.52,3.63Z"/>
  <path class="st7" d="M360.59,246.36c-.32,3.15.08,6.44-.17,10.02-.25,3.58,4.7,4.36,4.32-.17,2.43,3.93,3.29,9.99,1.19,14.15-2.09,4.17-6.15,5.93-7.93,9.69,2.72-.15,6.1-.3,7.78-2.59-1.46.12-2.64,1.16-4.15,1.03,3.23-3.68,8.07-8.17,7.26-13.48-.82-5.31-1.74-11.95-6.22-14.52.17,2.38,1.66,6.04-.52,7.78-1.11-3.8-.02-8.22-1.56-11.92Z"/>
  <path class="st7" d="M307.71,253.63c.1-6.6-9.5-7.99-13.48-4.67,3.89-1.81,2.73,2.98,5.34,4.51,2.62,1.52,5.35.5,8.13.16M301.49,247.92c3.31-.39,5.15,4.54,1.44,5.58-3.72,1.05-4.85-5.18-1.44-5.58Z"/>
  <path class="st7" d="M336.74,248.96c-4.33-3.46-13.07-1.7-14,4.67,2.95.23,6,1.57,8.68-.13,2.69-1.7,1.38-6.28,5.31-4.54ZM330.51,247.92c2.7,1.23.31,7.29-3.15,5.22-3.46-2.06.33-6.5,3.15-5.22Z"/>
  <path class="st7" d="M303.04,249.48c-1.13.15-.97,1.14-1.56,2.07,1.3.42,2.73-.98,1.56-2.07Z"/>
  <path class="st7" d="M329.48,251.55c-.52-1.01-.54-1.93-1.56-2.07-1.08,1.12.19,2.49,1.56,2.07Z"/>
  <path class="st7" d="M269.34,256.22c.62-1.85.4-4.03.52-6.22-.27,1.68-.16,4.28-.52,6.22Z"/>
  <path class="st7" d="M309.26,273.84c-3.42,1.94-.09,5.96,3.11,4.67.45,1.23.45,3.53,2.07,3.63-.86-1.12.06-4.96-2.07-5.18-2.13-.23-4.77-.11-3.11-3.11h0Z"/>
  <path class="st7" d="M318.59,278.51c3.2,1.26,6.53-2.71,3.11-4.67,1.57,2.92-.88,2.99-3.07,3.15-2.18.16-1.25,3.99-2.12,5.14,1.7-.09,1.58-2.43,2.07-3.63h0Z"/>
  <path class="st7" d="M309.26,298.72c-6.84-6.2-17.94-1.85-25.91-4.68-7.97-2.83-11.03-9.2-16.6-14.5,4.79,6.44,8.18,12.31,16.03,15.59,7.85,3.28,18.48-.01,26.48,3.59h0Z"/>
  <path class="st7" d="M364.21,279.54c-5.45,5.35-8.98,12.04-16.99,14.63-8.01,2.6-18.68-1.6-25.51,4.55,8.03-3.6,19.03-.26,26.84-3.75,7.8-3.48,10.82-8.97,15.67-15.43h0Z"/>
  <path class="st7" d="M298.9,281.62c-3.88.57-8.23,1.56-10.89,4.67,1.72-.85,3.56-1.64,5.35-2.42,1.79-.78,5.6.2,5.53-2.25Z"/>
  <path class="st7" d="M309.78,283.17c-2.6-.87-6.08-.47-8.81-1.56,1.89,2.66,6,2.4,8.81,1.56Z"/>
  <path class="st7" d="M330,281.62c-2.78,1.06-6.16.71-8.81,1.56,2.84.84,6.9,1.11,8.81-1.56Z"/>
  <path class="st7" d="M342.96,286.28c-2.63-3.1-7.04-4.09-10.89-4.67-.07,2.56,3.79,1.39,5.59,2.19,1.79.8,3.55,1.68,5.3,2.48Z"/>
  <path class="st7" d="M311.86,285.76c-2.63.04-6.52.04-9.33.52,3.11,1.27,6.48,1.18,9.33-.52Z"/>
  <path class="st7" d="M328.44,286.28c-2.78-.52-6.7-.44-9.33-.52,2.86,1.69,6.24,1.81,9.33.52Z"/>
  <path class="st7" d="M316,285.76c-2.99,2.88-7.21,3.06-10.89,3.63,2.95.87,7.57,2.38,9.85-.52,3.44,1.88,7.78,2.1,11.4.52-3.23-1.07-8.26.24-10.37-3.63h0Z"/>
  <path class="st7" d="M302,286.28c-2.09,0-4.02,2.35-4.67,4.15,1.38-1.52,3.98-2.37,4.67-4.15Z"/>
  <path class="st7" d="M333.62,290.43c-.61-1.79-2.59-4.12-4.67-4.15.68,1.85,3.27,2.54,4.67,4.15Z"/>
  <path class="st7" d="M293.71,302.35c-8.36,2.17-16.29-5.27-21.26-11.4,2.22,5.52,7.13,9.46,11.92,12.44-1.51.3-3.9-.78-4.67,1.03,10.87-.34,15.11,14.66,25.92,13.48-9.01-.46-12.56-10.93-20.22-13.48,6.97-4.43,10.94,5.86,17.63,3.11-3.22.07-5.75-1.93-8.3-3.63,1.65-4.27-7.78-7.58-11.4-6.22,3.68.67,8.01,1.38,10.37,4.67h0Z"/>
  <path class="st7" d="M358.51,290.95c-4.93,6.12-12.94,13.59-21.26,11.4,2.25-3.6,7.16-3.47,10.37-5.18-4.09,0-13.19,2.06-11.4,6.74-2.52,1.67-5.1,3.72-8.29,3.63,6.61,2.75,10.84-7.56,17.62-3.11-7.51,2.87-11.64,12.56-20.22,13.99,11.21-.21,14.93-13.98,25.92-13.99-.74-1.83-3.16-.75-4.67-1.04,4.77-2.97,9.7-6.9,11.92-12.44h0Z"/>
  <path class="st7" d="M349.7,239.11c-3.35-9.53,7.74-16.41,3.27-26.59-4.46-10.19-13.7-2.41-18.82,3.27-5.61-2.52-12.24-3.76-18.31-4.48-6.06-.71-12.33,3.38-17.86,4.08-5.54.7-7.29-8.8-13.6-7.88-6.31.92-8.26,8.94-6.73,14.51,1.53,5.58,5.62,10.9,4.66,16.6,3.41-9.23-6.19-14.75-2.58-24.35,3.62-9.59,11.82-.85,16.58,4.14,12.06-5.8,26.31-5.74,38.36,0,4.75-5.43,13.86-13.14,16.7-3.22,2.85,9.92-7.42,15.48-1.67,23.96h0Z"/>
  <path class="st6" d="M292.15,222.52c-1.03-3.6-3.88-7.61-7.78-8.3,5.99,3.02,4.44,9.18,2.07,14,1.81-1.77,2.89-4.83,5.7-5.7h0Z"/>
  <path class="st6" d="M346.59,214.23c-3.89.67-6.73,4.7-7.78,8.3,2.78.86,3.9,3.91,5.7,5.7-2.35-4.85-3.95-10.93,2.07-14h0Z"/>
  <path class="st7" d="M333.62,223.04c-10.02-8.19-26.14-8.11-36.29,0,5.5-1.19,10.87-2.83,16.59-3.11.23,2.67-.31,9.11,0,11.4.31,2.29-1.26,9.39,1.51,9.29,2.77-.11,1.32-7.55,1.6-9.81.28-2.26-.21-8.29,0-10.89,5.74.23,11.15,1.81,16.59,3.11h0Z"/>
  <path class="st7" d="M315.48,243.26c-3.35-3.71-6.07-9.34-11.02-11.79-4.95-2.45-9.49,2.29-12.96,7-3.47,4.71-3.54,11.34-1.31,17.64,2.23,6.3,11.04,5.06,17.51,4.78-2.02,6.87-8.77,11.48-10.89,18.14-5.93-1.13-11.95-8.8-3.63-11.92-8.77.67-13.75-7.66-13.48-15.55-.92,7,1.63,15.32,9.33,16.59-5.47,6.69,4.18,11.92,9.85,12.44,2.39-10.93,16.29-19.94,10.37-32.66.96,3.82.1,7.64-.52,11.4-4.72-.63-13.28,2.02-15.38-2.76-2.1-4.78-2.39-10.15-.32-14.5,2.07-4.36,5.41-6.47,9.49-8.14,4.9,4.53,10.49,9.64,12.44,16.07,3.54-5.21,7.91-11.76,13.48-16.07,4.1,1.6,7.75,4.1,9.69,8.45,1.94,4.35,1.5,10.01-.72,14.51-2.21,4.5-10.62,1.68-15.19,2.44-1.02-3.7-.74-8.05-1.03-11.4-4.72,13.2,8.27,21.62,10.89,32.66,5.68-.53,15.32-5.74,9.85-12.44,7.49-1.13,10.91-10.07,8.81-16.59,1.39,8.37-4.61,16.05-12.96,15.55,8.28,3.09,2.37,10.79-3.63,11.92-2.1-6.63-8.87-11.28-10.89-18.14,6.64.44,15.52,1.38,17.66-5.15,2.14-6.53,1.94-12.8-1.63-17.62-3.58-4.81-8.19-9.07-13.08-6.42-4.89,2.65-7.38,7.56-10.73,11.56h0Z"/>
  <path class="st2" d="M304.08,244.81c-1.16-2.98-.69-8.59-5.14-7.22-4.45,1.37-2.66,6.22.48,7.22-2.14-1.65-3.17-5.97.51-6.22,3.69-.24.92,5.26,4.15,6.22Z"/>
  <path class="st5" d="M331.03,245.33c3.13-1.14,5.42-6.54.56-7.81-4.87-1.27-3.31,4.61-5.22,7.29,3.16-.56.84-7.61,5.14-6.18,4.3,1.43.76,4.75-.48,6.7Z"/>
  <path class="st2" d="M283.86,239.63c-4.8,4.95-9.28,11.35-8.81,18.66-4.39-.9-2.27,3.2-3.13,6.21-.86,3.02-5.34,2.24-5.17-1.54-2.76,5.42,3.13,8.75,7.39,11.79,4.26,3.04,5.49,9.62,6.61,14.12-.1-1.3.26-2.76,1.03-3.63,5.54,12.95,23.29,2.31,29.55,14-2.89-8.94-13.36-7.4-20.73-8.3,1.56-4.42,8.25-4.18,9.85-7.26-3.02,1.25-6.32,1.26-8.45,4.51-2.12,3.25-5.23,1.28-7.49-1.01-2.26-2.29-2.23-8.97-4.28-4.54-.37-7.58-8.68-9.89-12.44-15.03,4.33,2.02,7.14-4.41,5.18-7.78,1.34-1.28,2.34.39,3.63.52-2.38-7.88,3.63-14.55,7.26-20.73h0Z"/>
  <path class="st2" d="M355.92,258.29c.42-7.22-4.07-14.14-8.81-18.66,3.86,6.16,9.49,12.93,7.26,20.73,1.3-.02,2.31-1.91,3.63-.52-1.96,3.36.86,9.79,5.18,7.78-1.69,3.08-5.73,4.99-8.42,7.13-2.69,2.14-3.53,9.67-5.58,5.83.05,2.78-4.02,10.62-7.74,9.81-3.71-.81-6.02-7.67-10.93-6.7,1.63,3.1,8.26,2.83,9.85,7.26-7.83.75-18.19-.38-21.26,8.81,2.98-5.4,9.4-7.49,15.55-6.74,6.15.75,11.51-2.81,14.52-7.78.86.83,1.08,2.37,1.03,3.63,1.09-4.56,2.47-11.4,6.87-14.39,4.4-2.98,9.74-6.17,7.13-11.53.24,4.11-4.85,4.42-5.3,1.15-.44-3.27,1.12-6.52-3-5.81h.01Z"/>
  <path class="st7" d="M269.86,250c-.12,2.19.11,4.37-.52,6.22-1.58,5.02-2.1-3.97-1.03-5.7-4.48,2.58-5.43,9.21-6.22,14.52-.79,5.3,3.92,9.83,7.26,13.48-1.52.11-2.71-.9-4.15-1.03,1.65,2.3,5.08,2.44,7.78,2.59-6.47-6.19-13.06-15.15-6.74-23.85-.44,4.87,4.98,3.45,4.49-.17-.49-3.61-.06-6.57-.35-9.68-.46,1.2-.44,2.32-.52,3.63Z"/>
  <path class="st7" d="M360.59,246.36c-.32,3.15.08,6.44-.17,10.02-.25,3.58,4.7,4.36,4.32-.17,2.43,3.93,3.29,9.99,1.19,14.15-2.09,4.17-6.15,5.93-7.93,9.69,2.72-.15,6.1-.3,7.78-2.59-1.46.12-2.64,1.16-4.15,1.03,3.23-3.68,8.07-8.17,7.26-13.48-.82-5.31-1.74-11.95-6.22-14.52.17,2.38,1.66,6.04-.52,7.78-1.11-3.8-.02-8.22-1.56-11.92Z"/>
  <path class="st7" d="M322.74,253.63c2.95.23,6,1.57,8.68-.13,2.69-1.7,1.38-6.28,5.31-4.54-4.33-3.46-13.07-1.7-14,4.67ZM327.37,253.14c-3.46-2.06.33-6.5,3.15-5.22,2.7,1.23.31,7.29-3.15,5.22Z"/>
  <path class="st7" d="M303.04,249.48c-1.13.15-.97,1.14-1.56,2.07,1.3.42,2.73-.98,1.56-2.07Z"/>
  <path class="st7" d="M329.48,251.55c-.52-1.01-.54-1.93-1.56-2.07-1.08,1.12.19,2.49,1.56,2.07Z"/>
  <path class="st7" d="M269.34,256.22c.62-1.85.4-4.03.52-6.22-.27,1.68-.16,4.28-.52,6.22Z"/>
  <path class="st7" d="M309.26,273.84c-3.42,1.94-.09,5.96,3.11,4.67.45,1.23.45,3.53,2.07,3.63-.86-1.12.06-4.96-2.07-5.18-2.13-.23-4.77-.11-3.11-3.11h0Z"/>
  <path class="st7" d="M318.59,278.51c3.2,1.26,6.53-2.71,3.11-4.67,1.57,2.92-.88,2.99-3.07,3.15-2.18.16-1.25,3.99-2.12,5.14,1.7-.09,1.58-2.43,2.07-3.63h0Z"/>
  <path class="st3" d="M309.26,298.72c-6.84-6.2-17.94-1.85-25.91-4.68-7.97-2.83-11.03-9.2-16.6-14.5,4.79,6.44,8.18,12.31,16.03,15.59,7.85,3.28,18.48-.01,26.48,3.59h0Z"/>
  <path class="st3" d="M364.21,279.54c-5.45,5.35-8.98,12.04-16.99,14.63-8.01,2.6-18.68-1.6-25.51,4.55,8.03-3.6,19.03-.26,26.84-3.75,7.8-3.48,10.82-8.97,15.67-15.43h0Z"/>
  <path class="st4" d="M298.9,281.62c-3.88.57-8.23,1.56-10.89,4.67,1.72-.85,3.56-1.64,5.35-2.42,1.79-.78,5.6.2,5.53-2.25Z"/>
  <path class="st7" d="M309.78,283.17c-2.6-.87-6.08-.47-8.81-1.56,1.89,2.66,6,2.4,8.81,1.56Z"/>
  <path class="st7" d="M330,281.62c-2.78,1.06-6.16.71-8.81,1.56,2.84.84,6.9,1.11,8.81-1.56Z"/>
  <path class="st4" d="M342.96,286.28c-2.63-3.1-7.04-4.09-10.89-4.67-.07,2.56,3.79,1.39,5.59,2.19,1.79.8,3.55,1.68,5.3,2.48Z"/>
  <path class="st7" d="M311.86,285.76c-2.63.04-6.52.04-9.33.52,3.11,1.27,6.48,1.18,9.33-.52Z"/>
  <path class="st7" d="M328.44,286.28c-2.78-.52-6.7-.44-9.33-.52,2.86,1.69,6.24,1.81,9.33.52Z"/>
  <path class="st7" d="M316,285.76c-2.99,2.88-7.21,3.06-10.89,3.63,2.95.87,7.57,2.38,9.85-.52,3.44,1.88,7.78,2.1,11.4.52-3.23-1.07-8.26.24-10.37-3.63h0Z"/>
  <path class="st7" d="M302,286.28c-2.09,0-4.02,2.35-4.67,4.15,1.38-1.52,3.98-2.37,4.67-4.15Z"/>
  <path class="st7" d="M333.62,290.43c-.61-1.79-2.59-4.12-4.67-4.15.68,1.85,3.27,2.54,4.67,4.15Z"/>
  <path class="st7" d="M293.71,302.35c-8.36,2.17-16.29-5.27-21.26-11.4,2.22,5.52,7.13,9.46,11.92,12.44-1.51.3-3.9-.78-4.67,1.03,10.87-.34,15.11,14.66,25.92,13.48-9.01-.46-12.56-10.93-20.22-13.48,6.97-4.43,10.94,5.86,17.63,3.11-3.22.07-5.75-1.93-8.3-3.63,1.65-4.27-7.78-7.58-11.4-6.22,3.68.67,8.01,1.38,10.37,4.67h0Z"/>
  <path class="st7" d="M358.51,290.95c-4.93,6.12-12.94,13.59-21.26,11.4,2.25-3.6,7.16-3.47,10.37-5.18-4.09,0-13.19,2.06-11.4,6.74-2.52,1.67-5.1,3.72-8.29,3.63,6.61,2.75,10.84-7.56,17.62-3.11-7.51,2.87-11.64,12.56-20.22,13.99,11.21-.21,14.93-13.98,25.92-13.99-.74-1.83-3.16-.75-4.67-1.04,4.77-2.97,9.7-6.9,11.92-12.44h0Z"/>
  <path class="st7" d="M294.23,248.96c3.89-1.81,2.73,2.98,5.34,4.51,2.62,1.52,5.35.5,8.13.16.1-6.6-9.5-7.99-13.48-4.67h0ZM302.92,253.51c-3.72,1.05-4.85-5.18-1.44-5.58,3.31-.39,5.15,4.54,1.44,5.58Z"/>
  <path class="st1" d="M315.48,342.9c-44.1,0-79.97-35.87-79.97-79.97s35.87-79.98,79.97-79.98,79.97,35.87,79.97,79.97-35.87,79.97-79.97,79.97h0ZM315.48,185.26c-42.82,0-77.66,34.84-77.66,77.66s34.84,77.66,77.66,77.66,77.66-34.84,77.66-77.66-34.84-77.66-77.66-77.66Z"/>
  <path class="st1" d="M315.48,383.51c-66.49,0-120.58-54.09-120.58-120.59s54.09-120.58,120.58-120.58,120.58,54.09,120.58,120.58-54.09,120.58-120.58,120.58h0ZM315.48,146.96c-63.94,0-115.97,52.02-115.97,115.96s52.02,115.96,115.97,115.96,115.96-52.02,115.96-115.96-52.02-115.96-115.96-115.96Z"/>
  <path class="st1" d="M216.75,287.51c1.46,0,2.64-1.18,2.64-2.64s-1.18-2.64-2.64-2.64-2.64,1.18-2.64,2.64,1.18,2.64,2.64,2.64Z"/>
  <path class="st1" d="M414.21,287.51c1.46,0,2.64-1.18,2.64-2.64s-1.18-2.64-2.64-2.64-2.64,1.18-2.64,2.64,1.18,2.64,2.64,2.64Z"/>
  <path class="st1" d="M318.45,303.1h-5.93c-.38,0-.69.31-.69.69v17.85c0,.38.31.69.69.69h5.93c.38,0,.69-.31.69-.69v-17.85c0-.38-.31-.69-.69-.69Z"/>
  <path class="st1" d="M325.1,315.68v-5.93c0-.38-.31-.69-.69-.69h-17.85c-.38,0-.69.31-.69.69v5.93c0,.38.31.69.69.69h17.85c.38,0,.69-.31.69-.69Z"/>
  <path class="st1" d="M227.42,270.37l-16.44.71.27,6.31-2.51.11-.74-17.04,2.51-.11.27,6.31,16.44-.71.19,4.43Z"/>
  <path class="st1" d="M227.46,257.7l-18.88-1.91.45-4.44,18.88,1.91-.45,4.44Z"/>
  <path class="st1" d="M226.36,247.68c-1.91,1.06-4.52,1.14-7.77.22-4.06-1.15-6.34-3.39-6.87-6.7-.53-3.31.49-8.04,3.05-14.14l2.4.68c-4.3,10.71-3.52,14.28,2.61,16.03,2.5.71,4.44.77,5.79.15,1.35-.62,2.34-2.11,3.02-4.48.46-1.64.68-3.24.61-4.81-.05-.58-.18-.79-.69-.93l-3.98-1.14-1.68,5.9-2.29-.65,2.83-9.93,9.02,2.57c-.23.8-.45,2.35-.67,4.66-.24,2.3-.56,4.15-.95,5.56-1.03,3.6-2.48,5.94-4.4,7.03h0Z"/>
  <path class="st1" d="M235.92,225.9c-.8,1.44-1.73,1.7-3.2.89l-12.44-6.96c-1.47-.82-1.72-1.75-.92-3.19l6.6-11.8,2.2,1.23-5.2,9.29c-.25.46-.15.81.3,1.07l3.86,2.16,5.31-9.49,2.06,1.15-5.31,9.49,4.87,2.73c.46.25.81.15,1.07-.3l5.2-9.29,2.19,1.23-6.6,11.8h0Z"/>
  <path class="st1" d="M243.95,212l-12.2-10.96c-1.23-1.1-1.32-2.38-.19-3.63l4.05-4.5c2.45-2.73,4.56-4.36,6.31-4.9,1.75-.57,3.45-.11,5.08,1.36,1.19,1.07,1.76,2.08,1.86,3.54.08,1.44-.77,3.29-2.58,5.5l10.64-.83-3.61,4.01-10.09.48c-1.2.05-1.55-.9-.73-1.81,1.66-1.85,2.63-3.31,2.85-4.38.24-1.09-.19-2.11-1.22-3.03-1.11-1-2.13-1.35-3.06-1.06-.93.25-2.18,1.25-3.72,2.97l-2.21,2.46c-.35.39-.26.65.15,1.01l11.66,10.47-2.98,3.31h0Z"/>
  <path class="st1" d="M267.67,188.81c-.83-.21-1.68-.82-2.62-1.85l-10.89-12.02,4.12-2,9.45,11.03c.84,1.02,1.27,1.25,1.96.91.66-.32.76-.78.5-2.02l-2.34-12.46c-.29-1.43.18-2.45,1.43-3.05,1.23-.59,2.31-.33,3.26.78l8.28,9.5c.87,1.01,1.27,1.25,1.96.91.68-.33.77-.75.53-2.03l-2.84-14.32,2.81-1.36,2.71,16.04c.22,1.35.17,2.4-.14,3.13-.32.73-1,1.36-2.06,1.87-2.43,1.18-3.86.82-5.65-1.25l-7.24-8.26,2,10.85c.49,2.64-.06,3.96-2.21,5-1.2.58-2.21.78-3.03.59h0Z"/>
  <path class="st1" d="M290.18,169.44c-.99-6.39,2.11-10.16,9.31-11.28,7.18-1.11,11.27,1.54,12.26,7.94,1,6.42-2.11,10.19-9.33,11.31-7.18,1.11-11.25-1.54-12.24-7.97h0ZM307.44,166.73c-.78-5.05-3.11-6.92-7.59-6.22-4.53.7-6.19,3.19-5.41,8.24.8,5.15,3.04,6.95,7.6,6.25,4.58-.71,6.2-3.11,5.4-8.26Z"/>
  <path class="st1" d="M317.53,174.44c-1.05-1.25-1.43-3.34-1.11-6.34l1.23-11.36,3.02.33c.91.1,1.33.59,1.24,1.5l-1.05,9.72c-.24,2.21-.09,3.73.43,4.56.54.82,1.7,1.32,3.5,1.51,1.98.22,3.64.18,5.01-.06.62-.11.76-.23.82-.73l1.65-15.24,4.4.48-1.95,18.03c-.86-.09-2.44-.08-4.8.06-2.36.11-4.36.08-6-.1-3.2-.34-5.33-1.13-6.38-2.35h0Z"/>
  <path class="st1" d="M337.78,178.44l6.68-17.76,2.43.92c1.2.45,1.97,1.25,2.33,2.36l5.17,15.8,5.05-13.44,2.58.97-6.68,17.76-2.38-.9c-1.2-.45-1.97-1.25-2.31-2.35l-5.18-16-5.12,13.61-2.58-.97h0Z"/>
  <path class="st1" d="M360.11,187.85c-1.36-.94-1.52-1.89-.56-3.27l8.15-11.7c.96-1.38,1.91-1.55,3.26-.6l3.78,2.64c3.46,2.41,5.62,4.59,6.63,6.48.53.94.81,1.91.8,2.89,0,1.95-.72,3.65-2.24,5.82-1.5,2.15-2.84,3.42-4.67,4.09-2.73.98-6.08-.12-11.38-3.71l-3.78-2.64h0ZM365.66,188.78c2.47,1.72,4.48,2.51,5.97,2.34,1.49-.17,3.03-1.37,4.6-3.63,1.54-2.21,2.14-4.07,1.78-5.53-.35-1.46-1.79-3.07-4.26-4.79l-1.8-1.26c-.43-.3-.8-.23-1.09.2l-7.19,10.32c-.3.43-.23.8.2,1.09l1.81,1.26h0Z"/>
  <path class="st1" d="M391.63,218.33c-8.13-8.06-9.23-14.08-2.66-19,3.3-2.47,6.34-3.08,9.12-1.78,2.77,1.3,5.59,4.49,8.45,9.58l-2.04,1.52c-4.95-8.54-8.05-9.49-12.92-5.85-4.87,3.64-4.62,7.13,2.09,13.99l-2.04,1.52h0Z"/>
  <path class="st1" d="M399.18,235.24l2.75-2.86-4.89-11.19-3.97.08-1.25-2.86,16.84-.2c2.69-.06,4.3.75,5.27,2.96,1.09,2.5.64,4.15-1.32,6.27l-11.49,12.26-1.94-4.45h0ZM399.43,221.15l4.15,9.51,6.1-6.33c1.02-1.13,1.21-1.67.92-2.35-.33-.77-.83-.98-2.32-.99l-8.86.15h0Z"/>
  <path class="st1" d="M401.17,241.03l16.18-2.71c1.63-.27,2.68.45,2.96,2.11l1,5.97c.6,3.62.57,6.28-.1,7.98-.64,1.73-2.06,2.76-4.23,3.13-1.58.26-2.72.08-3.92-.75-1.18-.84-2.09-2.65-2.69-5.45l-5.99,8.84-.89-5.32,5.91-8.19c.71-.97,1.67-.65,1.87.56.41,2.46.95,4.12,1.65,4.96.7.87,1.76,1.16,3.13.94,1.47-.25,2.39-.82,2.74-1.73.38-.89.38-2.48,0-4.76l-.55-3.26c-.09-.52-.34-.61-.88-.52l-15.46,2.59-.74-4.39h0Z"/>
  <path class="st1" d="M404.02,264.24c.09-1.65.81-2.29,2.49-2.2l14.24.79c1.68.09,2.32.81,2.23,2.46l-.75,13.5-2.51-.14.59-10.62c.03-.52-.22-.8-.74-.83l-4.42-.24-.6,10.86-2.36-.13.6-10.86-5.58-.31c-.52-.03-.8.22-.83.74l-.59,10.62-2.51-.14.75-13.5h0Z"/>
  <path class="st1" d="M220.35,296.2c.12-.45.47-.91,1.07-1.39l6.35-5.1,1.15,2.85-5.53,4.08c-.34.25-.41.4-.32.63.1.23.26.3.66.23l5.55-.73c.93-.13,1.56.21,1.9,1.04.33.82.12,1.5-.64,2.05l-4.48,3.33c-.32.24-.41.4-.32.63.1.24.26.29.66.25l6.81-.94.82,2.02-8.11.77c-.76.08-1.32,0-1.71-.22-.39-.22-.69-.62-.94-1.23-.28-.7-.37-1.27-.26-1.73.11-.46.47-.91,1.08-1.36l3.45-2.58-4.29.55c-1.47.21-2.15-.23-2.65-1.46-.27-.68-.36-1.25-.24-1.7h0Z"/>
  <path class="st1" d="M237.06,309.62c1.88,3.19,1.4,5.62-1.43,7.29-2.89,1.71-5.22.91-7.1-2.28-1.88-3.19-1.47-5.57,1.45-7.3,2.84-1.67,5.2-.91,7.09,2.29h0ZM231.71,315.17c.63.11,1.46-.14,2.48-.74,1.98-1.17,2.36-2.32,1.39-3.97-.97-1.64-2.15-1.84-4.13-.68-2.01,1.19-2.4,2.31-1.43,3.96.49.83,1.06,1.32,1.69,1.42Z"/>
  <path class="st1" d="M233.96,321.67c.02-.82.56-1.64,1.6-2.45l4.89-3.8,1.27,1.64c.37.47.33.89-.15,1.26l-3.99,3.09c-.63.49-.99.92-1.05,1.29-.07.37.11.84.53,1.38.52.67.99,1.14,1.4,1.43.21.16.4.16.56.03l5.79-4.5,1.82,2.35-7.27,5.65c-.34-.43-.95-1.08-1.85-1.92-.89-.86-1.6-1.62-2.13-2.3-.98-1.26-1.45-2.3-1.44-3.13h0Z"/>
  <path class="st1" d="M240.9,331.38l6.82-6.81,1.19,1.19c.6.6.85,1.29.75,2.06l-.84,6.81,4.48-4.48,1.38,1.38-6.82,6.82-1.17-1.17c-.6-.6-.85-1.29-.75-2.06l.9-6.9-4.56,4.56-1.38-1.38h0Z"/>
  <path class="st1" d="M251.12,341.1c-.84-.65-.91-1.21-.26-2.05l4.1-5.28c.65-.84,1.21-.91,2.05-.26l1.99,1.55c1.71,1.33,2.73,2.49,3.17,3.45.22.49.31.98.27,1.47-.08,1-.49,1.77-1.31,2.83-.8,1.04-1.45,1.61-2.39,1.94-1.37.48-3.02-.12-5.63-2.1l-1.99-1.55ZM254.47,341.55c.91.71,1.66,1.02,2.26.95.61-.08,1.29-.6,2.04-1.56.74-.95,1.07-1.72.99-2.33-.08-.61-.57-1.27-1.48-1.97l-.78-.6c-.21-.16-.4-.14-.56.07l-3.32,4.28c-.16.21-.14.4.07.56l.79.61Z"/>
  <path class="st1" d="M270.88,353.93c-5.48-2.05-7.13-4.59-5.13-8.2,1.01-1.82,2.26-2.74,3.77-2.76,1.51-.01,3.48.88,5.92,2.66l-.85,1.55c-3.73-2.61-5.04-2.36-6.3-.07-1.26,2.28-.61,3.68,3.46,5.27l-.86,1.56h0Z"/>
  <path class="st1" d="M279.88,357.9l.03-1.67-5.01-2.07-1.16,1.2-1.99-.82,5.89-6c1.02-1.06,2.03-1.23,3.26-.72,1.38.57,1.97,1.39,1.96,2.9v8.42l-2.99-1.23h0ZM276.03,352.99l3.91,1.62.07-3.87c0-.54-.11-.74-.41-.86-.31-.12-.52-.06-.89.3l-2.7,2.81h0Z"/>
  <path class="st1" d="M284.54,359.66l2.16-7.82c.28-1.02.84-1.34,1.86-1.06l3.29.91c3.39.93,4.59,2.27,4,4.41-.44,1.59-1.59,2.23-3.48,1.93l2.1,4.37-3.33-.92-1.78-4.14c-.25-.73.16-1.14.83-.96,1.7.47,2.41.2,2.72-.92.3-1.09-.11-1.69-1.7-2.12l-1.41-.39c-.24-.07-.33.03-.4.3l-1.97,7.2-2.89-.79h0Z"/>
  <path class="st1" d="M297.83,362.95c-1.05-.15-1.38-.61-1.23-1.66l.98-6.62c.15-1.05.61-1.39,1.66-1.23l6.72.99-.26,1.77-4.81-.71c-.26-.04-.41.07-.45.34l-.24,1.67,4.92.73-.23,1.55-4.92-.73-.29,1.96c-.04.26.07.41.34.45l4.81.71-.26,1.77-6.71-.99h0Z"/>
  <path class="st1" d="M313.13,364.56l.13-7.83-2.97-.05.03-1.8,8.93.15-.03,1.81-2.97-.05-.13,7.83-2.99-.05h0Z"/>
  <path class="st1" d="M322.31,364.44c-1.06.09-1.49-.27-1.58-1.33l-.56-6.67c-.09-1.06.27-1.49,1.33-1.58l6.76-.57.15,1.79-4.84.41c-.26.02-.39.17-.36.43l.14,1.68,4.96-.42.13,1.56-4.96.42.17,1.97c.02.26.17.39.43.36l4.84-.41.15,1.79-6.76.57Z"/>
  <path class="st1" d="M339.18,361.96c-5.53,1.92-8.42,1-9.18-3.06-.38-2.05,0-3.55,1.15-4.53,1.15-.97,3.24-1.54,6.26-1.71l.33,1.73c-4.54.36-5.39,1.39-4.9,3.96.48,2.56,1.88,3.23,6.03,1.86l.33,1.75h0Z"/>
  <path class="st1" d="M341.26,361.58l-2.83-9.19,2.86-.88,1.09,3.54,3.87-1.19-1.09-3.54,2.87-.88,2.83,9.19-2.87.89-1.2-3.91-3.87,1.19,1.2,3.91-2.85.88h0Z"/>
  <path class="st1" d="M353.47,357.64l-3.97-8.78,1.54-.69c.78-.35,1.5-.34,2.2.03l6.07,3.19-2.61-5.77,1.78-.8,3.97,8.78-1.51.69c-.78.35-1.5.34-2.2-.03l-6.15-3.27,2.65,5.87-1.78.8h0Z"/>
  <path class="st1" d="M364.22,341.29c3.16-1.94,5.59-1.5,7.31,1.31,1.76,2.86,1,5.2-2.16,7.14-3.16,1.94-5.55,1.57-7.32-1.32-1.72-2.81-1-5.18,2.17-7.13ZM369.85,346.54c.1-.63-.16-1.46-.78-2.47-1.2-1.96-2.36-2.32-3.99-1.32-1.62.99-1.81,2.18-.6,4.14,1.22,1.99,2.35,2.36,3.98,1.36.82-.51,1.3-1.08,1.39-1.71h0Z"/>
  <path class="st1" d="M377.03,344.38c-.84.65-1.4.58-2.05-.25l-5.02-6.46,2.37-1.84,4.57,5.87c.16.21.35.23.56.07l3.5-2.73,1.11,1.42-5.03,3.91h0Z"/>
  <path class="st1" d="M380.08,328.99c2.66-2.58,5.13-2.67,7.42-.31,2.33,2.41,2.1,4.86-.57,7.44-2.66,2.58-5.08,2.73-7.43.3-2.29-2.37-2.1-4.84.57-7.43h0ZM386.72,332.9c-.05-.64-.47-1.39-1.3-2.24-1.6-1.65-2.81-1.76-4.18-.43-1.37,1.32-1.29,2.52.31,4.18,1.62,1.68,2.81,1.8,4.18.46.7-.67,1.03-1.34.99-1.97h0Z"/>
  <path class="st1" d="M392.07,329.1c-1.12.1-2.35-.36-3.66-1.42-1.65-1.32-2.27-2.83-1.86-4.52s1.82-3.7,4.23-6.04l1.39,1.11c-1.26,1.25-2.15,2.31-2.67,3.2-.52.88-.73,1.61-.61,2.2.11.58.56,1.18,1.31,1.78.9.72,1.68,1.09,2.31,1.11.63,0,1.28-.41,1.92-1.2.43-.53.72-1.05.92-1.6.08-.29.05-.42-.16-.59l-1.19-.95-1.55,1.93-1.24-.99,3.27-4.08,3.89,3.12c-.34.43-.79,1.15-1.34,2.16-.55,1.01-1.08,1.82-1.58,2.44-1.15,1.43-2.28,2.21-3.39,2.32Z"/>
  <path class="st1" d="M400.07,320.4l-8.03-5.34,1.65-2.49,8.03,5.34-1.65,2.49Z"/>
  <path class="st1" d="M403.82,314.51c-.52.93-1.06,1.08-1.99.57l-5.85-3.25c-.93-.52-1.08-1.06-.56-1.99l3.29-5.93,1.57.87-2.36,4.25c-.13.23-.08.41.15.54l1.48.82,2.42-4.35,1.37.76-2.42,4.35,1.73.96c.23.13.41.08.54-.15l2.36-4.25,1.57.87-3.29,5.93h0Z"/>
  <path class="st1" d="M406.19,305.91c2.12-3.57,2.73-5.55,1.83-5.93-.81-.33-1.49,1.09-2.44,2.43-.34.44-.69.86-1.03,1.22-.71.72-1.76,1.04-2.85.58-2.06-.88-2.68-2.63.96-9.03l1.55.66c-2.4,4.36-2.33,5.3-1.66,5.58.24.1.5.04.79-.19.54-.46.97-1.36,1.65-2.29.34-.47.69-.89,1.05-1.26.71-.74,1.82-1.05,2.99-.55.82.35,1.31.73,1.55,1.68.12.47.11,1.03-.01,1.69-.26,1.29-1.13,3.41-2.69,6.12l-1.69-.71h0Z"/>
</svg>