<?xml version="1.0" encoding="utf-8" standalone="yes"?>
<svg width="393" height="826" viewBox="0 0 393 826" fill="none" xmlns="http://www.w3.org/2000/svg">
<g filter="url(#filter0_d_3017_2)">
<path fill-rule="evenodd" clip-rule="evenodd" d="M212.44 117.999C210.595 119.245 207.238 119.129 201.852 117.965C188.886 114.281 176.094 110.222 163.219 106.136C114.469 90.6665 64.538 74.822 -0.5 77.5261V187.943H0V826H393V123L393 110.398L393 109.454C389.218 110.832 386.381 113.294 383.731 115.86C381.199 117.195 378.246 118.639 374.994 120.026C365.491 124.08 362.283 116.479 361.169 107.357C356.738 71.0787 326.283 43 289.373 43C253.5 43 223.725 69.5218 218.012 104.317C217.934 104.79 217.859 105.303 217.781 105.843C217.202 109.824 216.403 115.322 212.44 117.999Z" fill="url(#paint0_linear_3017_2)"/>
</g>
<path d="M307.185 101.531C305.405 96.5269 311.292 92.9156 308.919 87.5691C306.549 82.2176 301.644 86.3016 298.928 89.2842C295.948 87.9589 292.431 87.3076 289.21 86.9303C285.993 86.5556 282.664 88.7033 279.725 89.0705C276.785 89.4376 275.857 84.4507 272.506 84.9311C269.157 85.4139 268.119 89.6262 268.93 92.551C269.741 95.4782 271.916 98.2722 271.404 101.265C273.215 96.4162 268.117 93.5192 270.034 88.477C271.954 83.4398 276.31 88.0293 278.835 90.6498C285.238 87.6043 292.805 87.6345 299.201 90.6498C301.721 87.8005 306.557 83.7491 308.068 88.9573C309.578 94.1655 304.129 97.0852 307.18 101.539L307.185 101.531Z" fill="#DC5829"/>
<path d="M276.639 92.8225C276.09 90.9338 274.577 88.8264 272.51 88.4668C275.688 90.0536 274.87 93.2852 273.611 95.8151C274.575 94.8871 275.147 93.2802 276.639 92.8199V92.8225Z" fill="#DC5829"/>
<path d="M305.536 88.4668C303.471 88.8189 301.963 90.9338 301.406 92.8225C302.881 93.2726 303.479 94.8746 304.435 95.8176C303.189 93.2726 302.337 90.0763 305.536 88.4693V88.4668Z" fill="#DC5829"/>
<path d="M298.65 93.093C293.33 88.7901 284.771 88.8354 279.385 93.093C282.304 92.4693 285.155 91.6093 288.193 91.4609C288.315 92.8616 288.031 96.2466 288.193 97.4487C288.356 98.6507 287.522 102.378 288.997 102.327C290.469 102.272 289.696 98.3641 289.844 97.1771C289.991 95.9901 289.732 92.8264 289.844 91.4609C292.892 91.5816 295.761 92.414 298.652 93.093H298.65Z" fill="#DC5829"/>
<path d="M289.017 103.71C287.237 101.761 285.796 98.8065 283.169 97.5189C280.539 96.2313 278.131 98.721 276.288 101.193C274.447 103.668 274.409 107.146 275.591 110.455C276.773 113.762 281.452 113.111 284.888 112.965C283.817 116.574 280.232 118.99 279.108 122.491C275.96 121.898 272.761 117.869 277.18 116.232C272.524 116.586 269.88 112.208 270.025 108.066C269.536 111.743 270.892 116.111 274.978 116.777C272.072 120.288 277.198 123.037 280.206 123.311C281.475 117.57 288.855 112.842 285.712 106.162C286.223 108.167 285.768 110.173 285.437 112.15C282.93 111.818 278.386 113.211 277.269 110.702C276.153 108.192 275.998 105.373 277.099 103.087C278.197 100.798 279.97 99.6892 282.136 98.814C284.74 101.191 287.708 103.876 288.743 107.251C290.624 104.515 292.944 101.077 295.898 98.814C298.073 99.654 300.013 100.964 301.043 103.253C302.075 105.539 301.836 108.511 300.661 110.873C299.489 113.234 295.021 111.755 292.598 112.153C292.056 110.209 292.206 107.925 292.048 106.165C289.544 113.096 296.44 117.517 297.828 123.313C300.842 123.037 305.961 120.301 303.057 116.78C307.031 116.189 308.847 111.494 307.735 108.069C308.473 112.462 305.287 116.496 300.854 116.234C305.251 117.856 302.111 121.9 298.927 122.494C297.813 119.013 294.218 116.571 293.147 112.967C296.671 113.201 301.388 113.692 302.525 110.264C303.662 106.836 303.558 103.542 301.658 101.012C299.758 98.4871 297.31 96.2489 294.716 97.6421C292.12 99.0353 290.797 101.613 289.02 103.713L289.017 103.71Z" fill="#DC5829"/>
<path d="M282.961 104.526C282.345 102.962 282.592 100.017 280.23 100.736C277.865 101.455 278.818 104 280.484 104.526C279.347 103.661 278.798 101.39 280.756 101.262C282.717 101.134 281.247 104.023 282.961 104.526Z" fill="#DC5829"/>
<path d="M297.278 104.798C298.941 104.197 300.156 101.363 297.575 100.696C294.991 100.03 295.818 103.118 294.801 104.527C296.477 104.232 295.246 100.533 297.532 101.282C299.813 102.032 297.934 103.775 297.278 104.798Z" fill="#DC5829"/>
<path d="M272.232 101.803C269.684 104.404 267.306 107.763 267.553 111.601C265.221 111.131 266.348 113.278 265.893 114.86C265.437 116.445 263.06 116.037 263.149 114.053C261.682 116.9 264.812 118.648 267.07 120.244C269.331 121.841 269.987 125.294 270.579 127.661C270.526 126.979 270.716 126.212 271.128 125.754C274.07 132.554 283.494 126.967 286.815 133.103C285.282 128.408 279.723 129.215 275.807 128.747C276.636 126.428 280.186 126.552 281.035 124.937C279.433 125.593 277.679 125.598 276.55 127.306C275.423 129.014 273.773 127.98 272.573 126.775C271.372 125.571 271.39 122.068 270.302 124.394C270.104 120.413 265.692 119.198 263.696 116.5C265.997 117.559 267.487 114.186 266.447 112.416C267.156 111.744 267.69 112.62 268.374 112.687C267.111 108.551 270.302 105.045 272.227 101.801L272.232 101.803Z" fill="#DC5829"/>
<path d="M310.488 111.602C310.71 107.813 308.327 104.179 305.81 101.805C307.857 105.036 310.85 108.592 309.662 112.691C310.354 112.681 310.89 111.69 311.589 112.42C310.547 114.185 312.047 117.563 314.341 116.504C313.443 118.121 311.297 119.127 309.868 120.246C308.441 121.367 307.994 125.326 306.908 123.309C306.934 124.77 304.772 128.887 302.801 128.459C300.831 128.032 299.608 124.433 296.999 124.944C297.866 126.571 301.385 126.427 302.227 128.753C298.069 129.148 292.571 128.552 290.941 133.381C292.523 130.547 295.933 129.448 299.198 129.842C302.463 130.237 305.311 128.369 306.906 125.758C307.361 126.193 307.478 127.001 307.455 127.665C308.035 125.273 308.767 121.679 311.101 120.11C313.436 118.543 316.273 116.868 314.885 114.054C315.015 116.215 312.309 116.376 312.073 114.658C311.836 112.94 312.665 111.233 310.481 111.605L310.488 111.602Z" fill="#DC5829"/>
<path d="M264.797 107.248C264.734 108.4 264.853 109.542 264.523 110.515C263.684 113.15 263.406 108.43 263.973 107.52C261.596 108.873 261.092 112.356 260.67 115.142C260.248 117.926 262.75 120.302 264.523 122.219C263.717 122.279 263.083 121.748 262.321 121.676C263.198 122.885 265.019 122.956 266.45 123.036C263.017 119.784 259.518 115.079 262.872 110.515C262.641 113.075 265.517 112.325 265.258 110.424C264.996 108.528 265.227 106.976 265.072 105.342C264.828 105.973 264.835 106.559 264.797 107.248Z" fill="#DC5829"/>
<path d="M312.967 105.342C312.8 106.994 313.008 108.722 312.876 110.603C312.744 112.481 315.371 112.894 315.17 110.512C316.459 112.574 316.917 115.756 315.803 117.944C314.692 120.134 312.538 121.057 311.592 123.034C313.036 122.953 314.831 122.878 315.721 121.673C314.946 121.738 314.32 122.282 313.519 122.216C315.233 120.285 317.804 117.926 317.372 115.14C316.937 112.353 316.449 108.863 314.069 107.517C314.16 108.764 314.951 110.686 313.794 111.601C313.204 109.604 313.784 107.283 312.967 105.342Z" fill="#DC5829"/>
<path d="M284.894 109.154C284.95 105.688 279.849 104.956 277.738 106.704C279.806 105.751 279.185 108.271 280.576 109.071C281.967 109.868 283.417 109.332 284.894 109.156M281.591 106.158C283.35 105.955 284.327 108.54 282.354 109.091C280.38 109.641 279.78 106.372 281.591 106.158Z" fill="#DC5829"/>
<path d="M300.301 106.704C298.003 104.889 293.364 105.809 292.871 109.154C294.438 109.277 296.057 109.979 297.481 109.086C298.908 108.193 298.214 105.789 300.301 106.704ZM296.998 106.159C298.43 106.805 297.163 109.986 295.327 108.9C293.489 107.816 295.503 105.487 296.998 106.159Z" fill="#DC5829"/>
<path d="M282.414 106.977C281.811 107.054 281.9 107.577 281.588 108.065C282.279 108.283 283.039 107.549 282.414 106.977Z" fill="#DC5829"/>
<path d="M296.453 108.065C296.176 107.534 296.166 107.052 295.627 106.977C295.055 107.565 295.726 108.286 296.453 108.065Z" fill="#DC5829"/>
<path d="M264.521 110.515C264.852 109.544 264.733 108.4 264.796 107.248C264.651 108.131 264.71 109.494 264.521 110.515Z" fill="#DC5829"/>
<path d="M285.714 119.77C283.898 120.791 285.668 122.898 287.364 122.219C287.603 122.865 287.603 124.075 288.465 124.125C288.01 123.537 288.496 121.52 287.364 121.404C286.233 121.286 284.832 121.349 285.714 119.772V119.77Z" fill="#DC5829"/>
<path d="M290.674 122.219C292.375 122.88 294.142 120.798 292.324 119.77C293.158 121.301 291.856 121.341 290.694 121.424C289.535 121.51 290.028 123.522 289.57 124.125C290.473 124.077 290.407 122.85 290.671 122.219H290.674Z" fill="#DC5829"/>
<path d="M285.717 132.833C282.083 129.579 276.194 131.86 271.96 130.379C267.729 128.895 266.106 125.55 263.146 122.764C265.689 126.146 267.49 129.229 271.66 130.949C275.828 132.672 281.473 130.944 285.717 132.836V132.833Z" fill="#DC5829"/>
<path d="M314.89 122.76C311.996 125.572 310.122 129.08 305.868 130.441C301.616 131.804 295.951 129.603 292.322 132.83C296.587 130.939 302.428 132.691 306.57 130.861C310.712 129.032 312.314 126.153 314.89 122.758V122.76Z" fill="#DC5829"/>
<path d="M280.212 123.852C278.149 124.153 275.843 124.671 274.432 126.301C275.347 125.853 276.324 125.438 277.275 125.031C278.223 124.624 280.247 125.134 280.212 123.852Z" fill="#DC5829"/>
<path d="M285.991 124.669C284.613 124.211 282.764 124.422 281.312 123.852C282.317 125.247 284.496 125.114 285.991 124.669Z" fill="#DC5829"/>
<path d="M296.726 123.852C295.251 124.407 293.456 124.226 292.047 124.669C293.552 125.111 295.709 125.25 296.726 123.852Z" fill="#DC5829"/>
<path d="M303.607 126.301C302.208 124.674 299.871 124.153 297.827 123.852C297.791 125.194 299.838 124.581 300.794 125.001C301.745 125.423 302.678 125.881 303.607 126.301Z" fill="#DC5829"/>
<path d="M287.092 126.027C285.699 126.05 283.629 126.047 282.139 126.299C283.789 126.968 285.579 126.918 287.092 126.027Z" fill="#DC5829"/>
<path d="M295.897 126.299C294.422 126.025 292.342 126.07 290.943 126.027C292.461 126.913 294.257 126.975 295.897 126.299Z" fill="#DC5829"/>
<path d="M289.296 126.027C287.706 127.541 285.466 127.632 283.516 127.934C285.082 128.389 287.533 129.181 288.744 127.662C290.572 128.65 292.873 128.763 294.798 127.934C293.082 127.37 290.414 128.062 289.293 126.027H289.296Z" fill="#DC5829"/>
<path d="M281.862 126.301C280.753 126.306 279.726 127.536 279.385 128.479C280.12 127.679 281.495 127.236 281.862 126.301Z" fill="#DC5829"/>
<path d="M298.651 128.479C298.328 127.538 297.275 126.316 296.174 126.301C296.537 127.274 297.908 127.634 298.651 128.479Z" fill="#DC5829"/>
<path d="M277.459 134.74C273.022 135.881 268.808 131.971 266.174 128.752C267.351 131.652 269.96 133.719 272.503 135.285C271.702 135.441 270.431 134.878 270.026 135.829C275.799 135.653 278.049 143.529 283.788 142.905C279.005 142.664 277.118 137.164 273.055 135.829C276.755 133.505 278.865 138.907 282.413 137.461C280.704 137.498 279.359 136.445 278.008 135.555C278.886 133.311 273.879 131.576 271.954 132.288C273.907 132.64 276.208 133.012 277.459 134.737V134.74Z" fill="#DC5829"/>
<path d="M311.864 128.752C309.248 131.963 304.994 135.886 300.579 134.74C301.772 132.849 304.381 132.919 306.085 132.019C303.915 132.021 299.081 133.103 300.03 135.557C298.692 136.435 297.324 137.511 295.626 137.463C299.135 138.907 301.383 133.492 304.983 135.831C300.996 137.338 298.804 142.428 294.25 143.179C300.2 143.069 302.176 135.839 308.012 135.831C307.62 134.871 306.336 135.439 305.535 135.288C308.068 133.726 310.685 131.664 311.864 128.754V128.752Z" fill="#DC5829"/>
<path d="M307.185 101.531C305.405 96.5269 311.292 92.9156 308.919 87.5691C306.549 82.2176 301.644 86.3016 298.928 89.2842C295.948 87.9589 292.431 87.3076 289.21 86.9303C285.993 86.5556 282.664 88.7033 279.725 89.0705C276.785 89.4376 275.857 84.4507 272.506 84.9311C269.157 85.4139 268.119 89.6262 268.93 92.551C269.741 95.4782 271.916 98.2722 271.404 101.265C273.215 96.4162 268.117 93.5192 270.034 88.477C271.954 83.4398 276.31 88.0293 278.835 90.6498C285.238 87.6043 292.805 87.6345 299.201 90.6498C301.721 87.8005 306.557 83.7491 308.068 88.9573C309.578 94.1655 304.129 97.0852 307.18 101.539L307.185 101.531Z" fill="#DC5829"/>
<path opacity="0.99" d="M276.639 92.8225C276.09 90.9338 274.577 88.8264 272.51 88.4668C275.688 90.0536 274.87 93.2852 273.611 95.8151C274.575 94.8871 275.147 93.2802 276.639 92.8199V92.8225Z" fill="#DC5829"/>
<path opacity="0.99" d="M305.536 88.4668C303.471 88.8189 301.963 90.9338 301.406 92.8225C302.881 93.2726 303.479 94.8746 304.435 95.8176C303.189 93.2726 302.337 90.0763 305.536 88.4693V88.4668Z" fill="#DC5829"/>
<path d="M298.65 93.093C293.33 88.7901 284.771 88.8354 279.385 93.093C282.304 92.4693 285.155 91.6093 288.193 91.4609C288.315 92.8616 288.031 96.2466 288.193 97.4487C288.356 98.6507 287.522 102.378 288.997 102.327C290.469 102.272 289.696 98.3641 289.844 97.1771C289.991 95.9901 289.732 92.8264 289.844 91.4609C292.892 91.5816 295.761 92.414 298.652 93.093H298.65Z" fill="#DC5829"/>
<path d="M289.017 103.71C287.237 101.761 285.796 98.8065 283.169 97.5189C280.539 96.2313 278.131 98.721 276.288 101.193C274.447 103.668 274.409 107.146 275.591 110.455C276.773 113.762 281.452 113.111 284.888 112.965C283.817 116.574 280.232 118.99 279.108 122.491C275.96 121.898 272.761 117.869 277.18 116.232C272.524 116.586 269.88 112.208 270.025 108.066C269.536 111.743 270.892 116.111 274.978 116.777C272.072 120.288 277.198 123.037 280.206 123.311C281.475 117.57 288.855 112.842 285.712 106.162C286.223 108.167 285.768 110.173 285.437 112.15C282.93 111.818 278.386 113.211 277.269 110.702C276.153 108.192 275.998 105.373 277.099 103.087C278.197 100.798 279.97 99.6892 282.136 98.814C284.74 101.191 287.708 103.876 288.743 107.251C290.624 104.515 292.944 101.077 295.898 98.814C298.073 99.654 300.013 100.964 301.043 103.253C302.075 105.539 301.836 108.511 300.661 110.873C299.489 113.234 295.021 111.755 292.598 112.153C292.056 110.209 292.206 107.925 292.048 106.165C289.544 113.096 296.44 117.517 297.828 123.313C300.842 123.037 305.961 120.301 303.057 116.78C307.031 116.189 308.847 111.494 307.735 108.069C308.473 112.462 305.287 116.496 300.854 116.234C305.251 117.856 302.111 121.9 298.927 122.494C297.813 119.013 294.218 116.571 293.147 112.967C296.671 113.201 301.388 113.692 302.525 110.264C303.662 106.836 303.558 103.542 301.658 101.012C299.758 98.4871 297.31 96.2489 294.716 97.6421C292.12 99.0353 290.797 101.613 289.02 103.713L289.017 103.71Z" fill="#DC5829"/>
<path opacity="0.98" d="M282.961 104.526C282.345 102.962 282.592 100.017 280.23 100.736C277.865 101.455 278.818 104 280.484 104.526C279.347 103.661 278.798 101.39 280.756 101.262C282.717 101.134 281.247 104.023 282.961 104.526Z" fill="#DC5829"/>
<path opacity="0.94" d="M297.278 104.798C298.941 104.197 300.156 101.363 297.575 100.696C294.991 100.03 295.818 103.118 294.801 104.527C296.477 104.232 295.246 100.533 297.532 101.282C299.813 102.032 297.934 103.775 297.278 104.798Z" fill="#DC5829"/>
<path opacity="0.98" d="M272.232 101.803C269.684 104.404 267.306 107.763 267.553 111.601C265.221 111.131 266.348 113.278 265.893 114.86C265.437 116.445 263.06 116.037 263.149 114.053C261.682 116.9 264.812 118.648 267.07 120.244C269.331 121.841 269.987 125.294 270.579 127.661C270.526 126.979 270.716 126.212 271.128 125.754C274.07 132.554 283.494 126.967 286.815 133.103C285.282 128.408 279.723 129.215 275.807 128.747C276.636 126.428 280.186 126.552 281.035 124.937C279.433 125.593 277.679 125.598 276.55 127.306C275.423 129.014 273.773 127.98 272.573 126.775C271.372 125.571 271.39 122.068 270.302 124.394C270.104 120.413 265.692 119.198 263.696 116.5C265.997 117.559 267.487 114.186 266.447 112.416C267.156 111.744 267.69 112.62 268.374 112.687C267.111 108.551 270.302 105.045 272.227 101.801L272.232 101.803Z" fill="#DC5829"/>
<path opacity="0.98" d="M310.488 111.602C310.71 107.813 308.327 104.179 305.81 101.805C307.857 105.036 310.85 108.592 309.662 112.691C310.354 112.681 310.89 111.69 311.589 112.42C310.547 114.185 312.047 117.563 314.341 116.504C313.443 118.121 311.297 119.127 309.868 120.246C308.441 121.367 307.994 125.326 306.908 123.309C306.934 124.77 304.772 128.887 302.801 128.459C300.831 128.032 299.608 124.433 296.999 124.944C297.866 126.571 301.385 126.427 302.227 128.753C298.069 129.148 292.571 128.552 290.941 133.381C292.523 130.547 295.933 129.448 299.198 129.842C302.463 130.237 305.311 128.369 306.906 125.758C307.361 126.193 307.478 127.001 307.455 127.665C308.035 125.273 308.767 121.679 311.101 120.11C313.436 118.543 316.273 116.868 314.885 114.054C315.015 116.215 312.309 116.376 312.073 114.658C311.836 112.94 312.665 111.233 310.481 111.605L310.488 111.602Z" fill="#DC5829"/>
<path d="M264.797 107.248C264.734 108.4 264.853 109.542 264.523 110.515C263.684 113.15 263.406 108.43 263.973 107.52C261.596 108.873 261.092 112.356 260.67 115.142C260.248 117.926 262.75 120.302 264.523 122.219C263.717 122.279 263.083 121.748 262.321 121.676C263.198 122.885 265.019 122.956 266.45 123.036C263.017 119.784 259.518 115.079 262.872 110.515C262.641 113.075 265.517 112.325 265.258 110.424C264.996 108.528 265.227 106.976 265.072 105.342C264.828 105.973 264.835 106.559 264.797 107.248Z" fill="#DC5829"/>
<path d="M312.967 105.342C312.8 106.994 313.008 108.722 312.876 110.603C312.744 112.481 315.371 112.894 315.17 110.512C316.459 112.574 316.917 115.756 315.803 117.944C314.692 120.134 312.538 121.057 311.592 123.034C313.036 122.953 314.831 122.878 315.721 121.673C314.946 121.738 314.32 122.282 313.519 122.216C315.233 120.285 317.804 117.926 317.372 115.14C316.937 112.353 316.449 108.863 314.069 107.517C314.16 108.764 314.951 110.686 313.794 111.601C313.204 109.604 313.784 107.283 312.967 105.342Z" fill="#DC5829"/>
<path d="M292.871 109.154C294.438 109.277 296.057 109.979 297.481 109.086C298.908 108.193 298.214 105.789 300.301 106.704C298.003 104.889 293.364 105.809 292.871 109.154ZM295.33 108.9C293.492 107.816 295.506 105.487 297.001 106.159C298.432 106.805 297.166 109.986 295.33 108.9Z" fill="#DC5829"/>
<path d="M282.414 106.977C281.811 107.054 281.9 107.577 281.588 108.065C282.279 108.283 283.039 107.549 282.414 106.977Z" fill="#DC5829"/>
<path d="M296.453 108.065C296.176 107.534 296.166 107.052 295.627 106.977C295.055 107.565 295.726 108.286 296.453 108.065Z" fill="#DC5829"/>
<path d="M264.521 110.515C264.852 109.544 264.733 108.4 264.796 107.248C264.651 108.131 264.71 109.494 264.521 110.515Z" fill="#DC5829"/>
<path d="M285.714 119.77C283.898 120.791 285.668 122.898 287.364 122.219C287.603 122.865 287.603 124.075 288.465 124.125C288.01 123.537 288.496 121.52 287.364 121.404C286.233 121.286 284.832 121.349 285.714 119.772V119.77Z" fill="#DC5829"/>
<path d="M290.674 122.219C292.375 122.88 294.142 120.798 292.324 119.77C293.158 121.301 291.856 121.341 290.694 121.424C289.535 121.51 290.028 123.522 289.57 124.125C290.473 124.077 290.407 122.85 290.671 122.219H290.674Z" fill="#DC5829"/>
<path opacity="0.97" d="M285.717 132.833C282.083 129.579 276.194 131.86 271.96 130.379C267.729 128.895 266.106 125.55 263.146 122.764C265.689 126.146 267.49 129.229 271.66 130.949C275.828 132.672 281.473 130.944 285.717 132.836V132.833Z" fill="#DC5829"/>
<path opacity="0.97" d="M314.89 122.76C311.996 125.572 310.122 129.08 305.868 130.441C301.616 131.804 295.951 129.603 292.322 132.83C296.587 130.939 302.428 132.691 306.57 130.861C310.712 129.032 312.314 126.153 314.89 122.758V122.76Z" fill="#DC5829"/>
<path opacity="0.93" d="M280.212 123.852C278.149 124.153 275.843 124.671 274.432 126.301C275.347 125.853 276.324 125.438 277.275 125.031C278.223 124.624 280.247 125.134 280.212 123.852Z" fill="#DC5829"/>
<path d="M285.991 124.669C284.613 124.211 282.764 124.422 281.312 123.852C282.317 125.247 284.496 125.114 285.991 124.669Z" fill="#DC5829"/>
<path d="M296.726 123.852C295.251 124.407 293.456 124.226 292.047 124.669C293.552 125.111 295.709 125.25 296.726 123.852Z" fill="#DC5829"/>
<path opacity="0.93" d="M303.607 126.301C302.208 124.674 299.871 124.153 297.827 123.852C297.791 125.194 299.838 124.581 300.794 125.001C301.745 125.423 302.678 125.881 303.607 126.301Z" fill="#DC5829"/>
<path d="M287.092 126.027C285.699 126.05 283.629 126.047 282.139 126.299C283.789 126.968 285.579 126.918 287.092 126.027Z" fill="#DC5829"/>
<path d="M295.897 126.299C294.422 126.025 292.342 126.07 290.943 126.027C292.461 126.913 294.257 126.975 295.897 126.299Z" fill="#DC5829"/>
<path d="M289.296 126.027C287.706 127.541 285.466 127.632 283.516 127.934C285.082 128.389 287.533 129.181 288.744 127.662C290.572 128.65 292.873 128.763 294.798 127.934C293.082 127.37 290.414 128.062 289.293 126.027H289.296Z" fill="#DC5829"/>
<path d="M281.862 126.301C280.753 126.306 279.726 127.536 279.385 128.479C280.12 127.679 281.495 127.236 281.862 126.301Z" fill="#DC5829"/>
<path d="M298.651 128.479C298.328 127.538 297.275 126.316 296.174 126.301C296.537 127.274 297.908 127.634 298.651 128.479Z" fill="#DC5829"/>
<path d="M277.459 134.74C273.022 135.881 268.808 131.971 266.174 128.752C267.351 131.652 269.96 133.719 272.503 135.285C271.702 135.441 270.431 134.878 270.026 135.829C275.799 135.653 278.049 143.529 283.788 142.905C279.005 142.664 277.118 137.164 273.055 135.829C276.755 133.505 278.865 138.907 282.413 137.461C280.704 137.498 279.359 136.445 278.008 135.555C278.886 133.311 273.879 131.576 271.954 132.288C273.907 132.64 276.208 133.012 277.459 134.737V134.74Z" fill="#DC5829"/>
<path d="M311.864 128.752C309.248 131.963 304.994 135.886 300.579 134.74C301.772 132.849 304.381 132.919 306.085 132.019C303.915 132.021 299.081 133.103 300.03 135.557C298.692 136.435 297.324 137.511 295.626 137.463C299.135 138.907 301.383 133.492 304.983 135.831C300.996 137.338 298.804 142.428 294.25 143.179C300.2 143.069 302.176 135.839 308.012 135.831C307.62 134.871 306.336 135.439 305.535 135.288C308.068 133.726 310.685 131.664 311.864 128.754V128.752Z" fill="#DC5829"/>
<path d="M277.738 106.704C279.806 105.75 279.185 108.27 280.576 109.07C281.967 109.87 283.417 109.332 284.894 109.156C284.95 105.69 279.849 104.958 277.738 106.706V106.704ZM282.354 109.09C280.38 109.641 279.78 106.372 281.591 106.158C283.35 105.954 284.327 108.539 282.354 109.09Z" fill="#DC5829"/>
<path d="M289.019 156.029C265.607 156.029 246.561 137.193 246.561 114.039C246.561 90.8854 265.607 72.0469 289.019 72.0469C312.431 72.0469 331.477 90.8829 331.477 114.037C331.477 137.191 312.431 156.027 289.019 156.027V156.029ZM289.019 73.259C266.283 73.259 247.786 91.5518 247.786 114.037C247.786 136.522 266.283 154.815 289.019 154.815C311.755 154.815 330.251 136.522 330.251 114.037C330.251 91.5518 311.755 73.259 289.019 73.259Z" fill="white"/>
<path d="M289.019 177.351C253.719 177.351 225 148.949 225 114.036C225 79.1225 253.719 50.7227 289.019 50.7227C324.319 50.7227 353.039 79.125 353.039 114.036C353.039 148.946 324.319 177.349 289.019 177.349V177.351ZM289.019 53.1469C255.072 53.1469 227.451 80.4629 227.451 114.036C227.451 147.608 255.069 174.924 289.019 174.924C322.969 174.924 350.587 147.611 350.587 114.036C350.587 80.4604 322.969 53.1469 289.019 53.1469Z" fill="white"/>
<path d="M236.603 126.944C237.378 126.944 238.007 126.323 238.007 125.556C238.007 124.789 237.378 124.168 236.603 124.168C235.828 124.168 235.199 124.789 235.199 125.556C235.199 126.323 235.828 126.944 236.603 126.944Z" fill="white"/>
<path d="M341.439 126.944C342.214 126.944 342.842 126.323 342.842 125.556C342.842 124.789 342.214 124.168 341.439 124.168C340.664 124.168 340.035 124.789 340.035 125.556C340.035 126.323 340.664 126.944 341.439 126.944Z" fill="white"/>
<path d="M290.597 135.133H287.446C287.244 135.133 287.08 135.295 287.08 135.495V144.865C287.08 145.065 287.244 145.227 287.446 145.227H290.597C290.799 145.227 290.963 145.065 290.963 144.865V135.495C290.963 135.295 290.799 135.133 290.597 135.133Z" fill="white"/>
<path d="M294.123 141.74V138.624C294.123 138.424 293.959 138.262 293.757 138.262H284.282C284.08 138.262 283.916 138.424 283.916 138.624V141.74C283.916 141.94 284.08 142.102 284.282 142.102H293.757C293.959 142.102 294.123 141.94 294.123 141.74Z" fill="white"/>
<path d="M242.264 117.947L233.537 118.321L233.682 121.633L232.347 121.691L231.955 112.743L233.29 112.686L233.435 115.998L242.162 115.623L242.264 117.947Z" fill="white"/>
<path d="M242.29 111.293L232.266 110.292L232.502 107.963L242.526 108.964L242.29 111.293Z" fill="white"/>
<path d="M241.702 106.034C240.687 106.592 239.302 106.632 237.578 106.147C235.424 105.541 234.213 104.369 233.931 102.631C233.651 100.894 234.19 98.4115 235.548 95.2051L236.82 95.5622C234.536 101.185 234.951 103.061 238.203 103.977C239.528 104.349 240.56 104.382 241.275 104.055C241.992 103.728 242.518 102.946 242.877 101.701C243.124 100.841 243.235 99.9983 243.2 99.1735C243.172 98.8667 243.103 98.7585 242.834 98.6856L240.721 98.0896L239.83 101.185L238.612 100.843L240.113 95.6301L244.904 96.978C244.781 97.4005 244.664 98.2128 244.548 99.4249C244.418 100.632 244.253 101.603 244.041 102.342C243.497 104.233 242.724 105.463 241.707 106.034H241.702Z" fill="white"/>
<path d="M246.777 94.5967C246.35 95.3537 245.857 95.492 245.081 95.062L238.475 91.4079C237.697 90.9779 237.559 90.49 237.987 89.7356L241.493 83.5391L242.66 84.1854L239.901 89.0616C239.767 89.3005 239.82 89.4891 240.062 89.6224L242.114 90.7591L244.934 85.7747L246.027 86.3783L243.207 91.3627L245.793 92.7936C246.037 92.9269 246.225 92.8741 246.36 92.6352L249.119 87.7589L250.284 88.4027L246.777 94.5992V94.5967Z" fill="white"/>
<path d="M251.045 87.2951L244.566 81.5387C243.915 80.9603 243.866 80.2888 244.464 79.635L246.613 77.271C247.915 75.8376 249.031 74.98 249.962 74.6958C250.892 74.3941 251.793 74.638 252.66 75.4101C253.29 75.9709 253.595 76.5015 253.646 77.2685C253.687 78.0255 253.237 78.9962 252.276 80.158L257.926 79.723L256.011 81.8304L250.656 82.0844C250.018 82.1095 249.832 81.6116 250.269 81.1313C251.152 80.158 251.663 79.391 251.78 78.8302C251.907 78.2593 251.681 77.7237 251.131 77.2383C250.541 76.7152 250 76.5292 249.506 76.6826C249.011 76.8158 248.349 77.3389 247.531 78.2392L246.358 79.5293C246.173 79.733 246.219 79.8688 246.437 80.06L252.627 85.5599L251.045 87.3001V87.2951Z" fill="white"/>
<path d="M263.636 75.1238C263.196 75.0131 262.746 74.6937 262.247 74.153L256.465 67.8434L258.654 66.7922L263.671 72.5813C264.119 73.1169 264.348 73.2351 264.711 73.0616C265.062 72.8931 265.116 72.6542 264.978 72.0004L263.735 65.4568C263.582 64.7049 263.832 64.1717 264.495 63.8549C265.146 63.543 265.723 63.6788 266.227 64.2623L270.621 69.2492C271.081 69.7773 271.297 69.903 271.661 69.7295C272.025 69.556 272.07 69.3347 271.941 68.6632L270.435 61.1439L271.925 60.4297L273.365 68.8518C273.479 69.561 273.454 70.1092 273.288 70.494C273.121 70.8788 272.757 71.2082 272.192 71.4773C270.903 72.0959 270.145 71.9073 269.194 70.8209L265.352 66.4854L266.415 72.1839C266.677 73.5721 266.382 74.2637 265.243 74.8094C264.605 75.1162 264.068 75.2193 263.633 75.1213L263.636 75.1238Z" fill="white"/>
<path d="M275.586 64.95C275.06 61.5927 276.705 59.6136 280.527 59.0276C284.336 58.4442 286.51 59.8374 287.036 63.1947C287.565 66.5671 285.918 68.5462 282.083 69.1347C278.274 69.7181 276.112 68.3249 275.586 64.9525V64.95ZM284.753 63.5317C284.338 60.8811 283.1 59.9003 280.723 60.2649C278.317 60.6346 277.437 61.9373 277.852 64.5904C278.276 67.2964 279.466 68.2419 281.885 67.8697C284.318 67.4975 285.178 66.2376 284.753 63.5317Z" fill="white"/>
<path d="M290.112 67.5735C289.555 66.9197 289.352 65.8182 289.525 64.2439L290.178 58.2812L291.783 58.4523C292.266 58.5051 292.49 58.7641 292.439 59.2419L291.879 64.3445C291.752 65.5063 291.834 66.3035 292.108 66.7361C292.396 67.1686 293.011 67.4276 293.967 67.5307C295.017 67.6439 295.902 67.6263 296.629 67.4981C296.958 67.4377 297.034 67.3748 297.064 67.1158L297.942 59.1137L300.279 59.3651L299.241 68.8309C298.786 68.7831 297.944 68.7882 296.691 68.8611C295.439 68.9214 294.377 68.9038 293.504 68.8108C291.803 68.6297 290.674 68.2173 290.115 67.576L290.112 67.5735Z" fill="white"/>
<path d="M300.864 69.6746L304.409 60.3496L305.698 60.8299C306.336 61.0663 306.743 61.4838 306.936 62.0697L309.683 70.3661L312.365 63.3095L313.733 63.8175L310.189 73.1425L308.925 72.6722C308.287 72.4358 307.88 72.0184 307.699 71.4374L304.948 63.0354L302.229 70.1825L300.861 69.6746H300.864Z" fill="white"/>
<path d="M312.716 74.6182C311.996 74.1228 311.907 73.6249 312.416 72.9031L316.744 66.7619C317.252 66.0402 317.756 65.9497 318.476 66.4476L320.484 67.8333C322.323 69.1007 323.467 70.2425 324.006 71.2333C324.286 71.7287 324.436 72.2342 324.431 72.7497C324.436 73.7758 324.047 74.666 323.243 75.8052C322.447 76.9344 321.738 77.6033 320.762 77.9529C319.315 78.4659 317.532 77.89 314.722 76.0039L312.713 74.6182H312.716ZM315.661 75.1061C316.973 76.0114 318.038 76.4264 318.832 76.3359C319.625 76.2453 320.441 75.6166 321.275 74.4321C322.094 73.2703 322.409 72.2945 322.221 71.5275C322.033 70.7605 321.27 69.9155 319.958 69.0102L318.999 68.3488C318.77 68.1904 318.577 68.2256 318.42 68.4519L314.6 73.8713C314.44 74.0977 314.476 74.2888 314.704 74.4447L315.663 75.1061H315.661Z" fill="white"/>
<path d="M329.444 90.623C325.128 86.3905 324.544 83.2319 328.032 80.6492C329.782 79.3541 331.399 79.0347 332.871 79.7162C334.344 80.3977 335.839 82.0751 337.36 84.7484L336.279 85.5481C333.652 81.0642 332.004 80.5637 329.418 82.4775C326.835 84.3913 326.967 86.2195 330.527 89.8233L329.446 90.623H329.444Z" fill="white"/>
<path d="M333.456 99.5014L334.918 98L332.324 92.1229L330.216 92.1631L329.553 90.6618L338.493 90.5562C339.923 90.526 340.777 90.951 341.291 92.1103C341.87 93.4231 341.631 94.2907 340.589 95.4022L334.486 101.838L333.456 99.5039V99.5014ZM333.588 92.1028L335.793 97.0972L339.033 93.7751C339.574 93.1816 339.676 92.8975 339.521 92.5429C339.343 92.138 339.081 92.0273 338.29 92.0223L333.588 92.1003V92.1028Z" fill="white"/>
<path d="M334.514 102.543L343.103 101.119C343.968 100.976 344.525 101.358 344.672 102.226L345.204 105.359C345.524 107.258 345.509 108.656 345.153 109.551C344.812 110.459 344.057 111.003 342.905 111.194C342.069 111.332 341.461 111.236 340.823 110.799C340.197 110.359 339.711 109.406 339.393 107.939L336.215 112.582L335.742 109.788L338.88 105.488C339.259 104.977 339.767 105.145 339.874 105.782C340.093 107.072 340.38 107.944 340.751 108.385C341.125 108.84 341.687 108.996 342.414 108.877C343.195 108.747 343.681 108.445 343.869 107.967C344.072 107.502 344.072 106.664 343.869 105.47L343.579 103.76C343.533 103.488 343.398 103.44 343.111 103.488L334.905 104.846L334.514 102.54V102.543Z" fill="white"/>
<path d="M336.026 114.729C336.074 113.864 336.455 113.527 337.345 113.575L344.903 113.99C345.793 114.037 346.134 114.415 346.085 115.282L345.686 122.372L344.353 122.299L344.666 116.721C344.682 116.447 344.552 116.301 344.272 116.286L341.925 116.157L341.605 121.859L340.354 121.791L340.674 116.09L337.714 115.926C337.437 115.911 337.289 116.042 337.274 116.316L336.961 121.894L335.629 121.821L336.028 114.732L336.026 114.729Z" fill="white"/>
<path d="M238.513 131.509C238.577 131.273 238.765 131.031 239.08 130.777L242.45 128.102L243.063 129.595L240.128 131.735C239.948 131.869 239.909 131.944 239.96 132.067C240.011 132.191 240.1 132.223 240.309 132.191L243.256 131.806C243.752 131.735 244.085 131.917 244.263 132.349C244.441 132.782 244.326 133.136 243.922 133.428L241.545 135.178C241.377 135.307 241.326 135.387 241.377 135.51C241.43 135.638 241.517 135.664 241.728 135.641L245.344 135.146L245.778 136.204L241.471 136.607C241.069 136.647 240.772 136.607 240.563 136.488C240.357 136.375 240.194 136.162 240.065 135.845C239.915 135.475 239.869 135.178 239.927 134.937C239.988 134.695 240.179 134.459 240.502 134.225L242.335 132.872L240.057 133.161C239.279 133.27 238.913 133.041 238.648 132.394C238.503 132.04 238.457 131.741 238.519 131.504L238.513 131.509Z" fill="white"/>
<path d="M247.384 138.559C248.384 140.234 248.129 141.509 246.624 142.387C245.088 143.284 243.855 142.862 242.855 141.187C241.856 139.512 242.075 138.26 243.623 137.354C245.129 136.477 246.382 136.877 247.387 138.559H247.384ZM244.544 141.471C244.88 141.526 245.32 141.398 245.861 141.084C246.911 140.47 247.115 139.867 246.599 139.002C246.085 138.142 245.454 138.033 244.404 138.647C243.336 139.271 243.13 139.859 243.646 140.724C243.908 141.162 244.208 141.416 244.544 141.471Z" fill="white"/>
<path d="M245.741 144.879C245.752 144.447 246.036 144.017 246.588 143.594L249.187 141.598L249.861 142.458C250.057 142.707 250.034 142.925 249.782 143.119L247.666 144.744C247.333 145 247.143 145.227 247.107 145.42C247.071 145.614 247.165 145.86 247.387 146.142C247.664 146.494 247.913 146.743 248.129 146.894C248.239 146.977 248.34 146.979 248.429 146.911L251.501 144.55L252.47 145.782L248.612 148.747C248.434 148.521 248.106 148.181 247.631 147.736C247.16 147.286 246.784 146.886 246.502 146.527C245.983 145.865 245.731 145.317 245.736 144.882L245.741 144.879Z" fill="white"/>
<path d="M249.418 149.981L253.039 146.402L253.672 147.029C253.99 147.343 254.125 147.705 254.071 148.112L253.626 151.686L256.007 149.335L256.739 150.059L253.118 153.637L252.495 153.021C252.177 152.704 252.042 152.345 252.096 151.937L252.571 148.314L250.153 150.705L249.421 149.981H249.418Z" fill="white"/>
<path d="M254.849 155.082C254.404 154.74 254.366 154.446 254.712 154.006L256.891 151.232C257.237 150.792 257.535 150.754 257.98 151.096L259.037 151.908C259.945 152.605 260.484 153.214 260.718 153.722C260.835 153.981 260.884 154.237 260.861 154.494C260.817 155.017 260.601 155.424 260.166 155.98C259.739 156.526 259.396 156.825 258.895 156.998C258.168 157.252 257.293 156.933 255.907 155.894L254.849 155.082ZM256.627 155.319C257.11 155.691 257.509 155.854 257.824 155.816C258.15 155.776 258.509 155.502 258.905 154.997C259.299 154.496 259.475 154.091 259.429 153.774C259.388 153.453 259.129 153.111 258.646 152.738L258.234 152.421C258.122 152.336 258.023 152.349 257.936 152.459L256.172 154.705C256.085 154.816 256.098 154.914 256.21 154.999L256.627 155.319Z" fill="white"/>
<path d="M265.343 161.823C262.432 160.749 261.559 159.414 262.62 157.515C263.156 156.557 263.82 156.074 264.621 156.066C265.422 156.059 266.467 156.527 267.764 157.465L267.311 158.277C265.33 156.906 264.636 157.037 263.965 158.242C263.296 159.439 263.642 160.176 265.803 161.008L265.346 161.825L265.343 161.823Z" fill="white"/>
<path d="M270.118 163.906L270.133 163.028L267.473 161.942L266.858 162.573L265.803 162.14L268.928 158.989C269.467 158.431 270.006 158.343 270.657 158.61C271.387 158.909 271.702 159.339 271.7 160.131V164.552L270.113 163.906H270.118ZM268.076 161.328L270.154 162.178L270.192 160.149C270.187 159.867 270.131 159.761 269.976 159.698C269.813 159.633 269.698 159.668 269.505 159.854L268.074 161.328H268.076Z" fill="white"/>
<path d="M272.59 164.828L273.734 160.721C273.884 160.183 274.179 160.017 274.723 160.165L276.47 160.64C278.271 161.131 278.909 161.832 278.596 162.957C278.365 163.789 277.749 164.128 276.747 163.972L277.864 166.266L276.096 165.783L275.151 163.608C275.016 163.223 275.237 163.009 275.59 163.105C276.496 163.351 276.872 163.208 277.035 162.622C277.195 162.051 276.974 161.737 276.132 161.508L275.384 161.304C275.255 161.269 275.212 161.322 275.171 161.463L274.126 165.242L272.59 164.825V164.828Z" fill="white"/>
<path d="M279.651 166.558C279.094 166.478 278.916 166.239 278.997 165.688L279.516 162.213C279.597 161.662 279.839 161.483 280.396 161.566L283.961 162.087L283.821 163.017L281.268 162.645C281.128 162.625 281.049 162.683 281.029 162.821L280.899 163.696L283.513 164.079L283.391 164.893L280.777 164.511L280.625 165.54C280.604 165.678 280.663 165.756 280.803 165.776L283.356 166.148L283.216 167.079L279.653 166.558H279.651Z" fill="white"/>
<path d="M287.774 167.401L287.843 163.29L286.264 163.264L286.279 162.316L291.021 162.394L291.006 163.342L289.427 163.317L289.358 167.429L287.772 167.404L287.774 167.401Z" fill="white"/>
<path d="M292.646 167.339C292.084 167.387 291.855 167.196 291.807 166.64L291.509 163.137C291.461 162.581 291.654 162.355 292.216 162.307L295.807 162.008L295.885 162.946L293.315 163.16C293.175 163.172 293.109 163.248 293.121 163.386L293.198 164.269L295.832 164.05L295.903 164.87L293.269 165.088L293.358 166.125C293.37 166.263 293.447 166.328 293.587 166.316L296.157 166.102L296.236 167.04L292.646 167.339Z" fill="white"/>
<path d="M301.603 166.036C298.666 167.042 297.133 166.562 296.729 164.429C296.525 163.353 296.729 162.563 297.339 162.053C297.952 161.542 299.058 161.245 300.662 161.152L300.835 162.063C298.425 162.254 297.975 162.792 298.231 164.142C298.486 165.485 299.228 165.837 301.43 165.118L301.606 166.036H301.603Z" fill="white"/>
<path d="M302.704 165.839L301.201 161.013L302.717 160.55L303.296 162.408L305.351 161.782L304.771 159.924L306.295 159.461L307.797 164.287L306.274 164.752L305.636 162.7L303.581 163.326L304.22 165.378L302.704 165.841V165.839Z" fill="white"/>
<path d="M309.188 163.772L307.08 159.159L307.896 158.795C308.308 158.611 308.695 158.614 309.064 158.81L312.288 160.482L310.902 157.452L311.845 157.029L313.953 161.641L313.15 162.001C312.738 162.185 312.351 162.182 311.983 161.986L308.72 160.268L310.129 163.349L309.186 163.772H309.188Z" fill="white"/>
<path d="M314.893 155.184C316.569 154.165 317.861 154.396 318.776 155.87C319.71 157.374 319.305 158.601 317.63 159.617C315.954 160.636 314.682 160.442 313.742 158.926C312.826 157.452 313.21 156.205 314.893 155.184ZM317.886 157.94C317.937 157.608 317.8 157.175 317.472 156.645C316.834 155.616 316.218 155.425 315.354 155.951C314.494 156.471 314.395 157.097 315.033 158.126C315.682 159.172 316.282 159.363 317.146 158.838C317.584 158.571 317.836 158.272 317.886 157.937V157.94Z" fill="white"/>
<path d="M321.703 156.808C321.258 157.15 320.961 157.115 320.615 156.675L317.947 153.285L319.203 152.316L321.629 155.397C321.716 155.508 321.815 155.52 321.927 155.435L323.786 154.004L324.376 154.751L321.706 156.805L321.703 156.808Z" fill="white"/>
<path d="M323.321 148.725C324.735 147.372 326.047 147.322 327.262 148.564C328.501 149.832 328.376 151.117 326.96 152.47C325.546 153.823 324.262 153.903 323.013 152.626C321.798 151.383 321.899 150.083 323.318 148.725H323.321ZM326.845 150.777C326.82 150.443 326.593 150.048 326.156 149.603C325.309 148.735 324.666 148.68 323.936 149.379C323.211 150.071 323.25 150.704 324.099 151.572C324.961 152.455 325.589 152.515 326.319 151.816C326.69 151.461 326.868 151.114 326.845 150.78V150.777Z" fill="white"/>
<path d="M329.685 148.786C329.09 148.841 328.439 148.595 327.742 148.039C326.868 147.345 326.535 146.555 326.756 145.667C326.977 144.78 327.722 143.726 329.001 142.496L329.739 143.08C329.07 143.738 328.599 144.294 328.322 144.762C328.048 145.222 327.936 145.607 327.999 145.919C328.058 146.226 328.294 146.537 328.696 146.854C329.174 147.234 329.586 147.428 329.924 147.435C330.26 147.435 330.603 147.221 330.941 146.804C331.168 146.527 331.325 146.251 331.43 145.967C331.473 145.813 331.455 145.745 331.346 145.657L330.712 145.157L329.889 146.173L329.233 145.655L330.969 143.512L333.037 145.152C332.856 145.376 332.617 145.758 332.325 146.286C332.032 146.814 331.75 147.242 331.486 147.568C330.878 148.318 330.275 148.728 329.685 148.786Z" fill="white"/>
<path d="M333.932 144.215L329.668 141.413L330.545 140.105L334.81 142.907L333.932 144.215Z" fill="white"/>
<path d="M335.921 141.12C335.647 141.608 335.359 141.688 334.866 141.419L331.759 139.714C331.265 139.443 331.184 139.158 331.459 138.671L333.208 135.555L334.04 136.012L332.786 138.243C332.717 138.366 332.745 138.459 332.867 138.527L333.651 138.957L334.935 136.671L335.662 137.071L334.378 139.357L335.296 139.863C335.42 139.93 335.514 139.903 335.583 139.782L336.837 137.551L337.668 138.009L335.919 141.125L335.921 141.12Z" fill="white"/>
<path d="M337.182 136.607C338.309 134.731 338.632 133.693 338.156 133.494C337.724 133.32 337.368 134.065 336.859 134.769C336.676 135.003 336.49 135.219 336.31 135.41C335.934 135.79 335.377 135.958 334.799 135.717C333.704 135.257 333.378 134.334 335.308 130.977L336.132 131.321C334.858 133.612 334.894 134.105 335.25 134.253C335.379 134.309 335.517 134.273 335.667 134.155C335.954 133.911 336.18 133.439 336.541 132.953C336.724 132.704 336.91 132.485 337.101 132.294C337.48 131.907 338.065 131.744 338.688 132.005C339.122 132.189 339.382 132.387 339.511 132.888C339.575 133.134 339.57 133.429 339.506 133.773C339.369 134.45 338.906 135.566 338.077 136.984L337.182 136.61V136.607Z" fill="white"/>
<defs>
<filter id="filter0_d_3017_2" x="-40.5" y="0.346786" width="473.5" height="863" filterUnits="userSpaceOnUse" color-interpolation-filters="sRGB">
<feFlood flood-opacity="0" result="BackgroundImageFix"/>
<feColorMatrix in="SourceAlpha" type="matrix" values="0 0 0 0 0 0 0 0 0 0 0 0 0 0 0 0 0 0 127 0" result="hardAlpha"/>
<feOffset dy="-2.65321"/>
<feGaussianBlur stdDeviation="20"/>
<feComposite in2="hardAlpha" operator="out"/>
<feColorMatrix type="matrix" values="0 0 0 0 0.0745098 0 0 0 0 0.160784 0 0 0 0 0.294118 0 0 0 0.4 0"/>
<feBlend mode="normal" in2="BackgroundImageFix" result="effect1_dropShadow_3017_2"/>
<feBlend mode="normal" in="SourceGraphic" in2="effect1_dropShadow_3017_2" result="shape"/>
</filter>
<linearGradient id="paint0_linear_3017_2" x1="196.352" y1="89.6896" x2="189.839" y2="911.12" gradientUnits="userSpaceOnUse">
<stop stop-color="#13294B"/>
<stop offset="1" stop-color="white"/>
</linearGradient>
</defs>
</svg>
