<?xml version="1.0" encoding="UTF-8"?>
<svg xmlns="http://www.w3.org/2000/svg" xmlns:xlink="http://www.w3.org/1999/xlink" width="111px" height="25px" viewBox="0 0 111 25" version="1.1">
    <title>allox2_logo</title>
    <defs>
        <polygon id="path-1" points="2.78383965e-22 0 101.719947 0 101.719947 24.5951007 2.78383965e-22 24.5951007"/>
    </defs>
    <g id="Page-1" stroke="none" stroke-width="1" fill="none" fill-rule="evenodd">
        <g id="allox2_logo" transform="translate(0, 0.317)">
            <g id="Fill-401-Clipped">
                <mask id="mask-2" fill="white">
                    <use xlink:href="#path-1"/>
                </mask>
                <g id="path-1"/>
                <path d="M14.3804155,14.0166092 L7.10724695,14.0166092 L10.744165,4.39682195 L14.3804155,14.0166092 Z M-0.00011925,24.1324628 L7.10724695,24.1324628 L7.10724695,23.6698253 L3.43823675,23.6698253 L6.90935575,14.4792471 L14.5789749,14.4792471 L18.0500928,23.6698253 L14.3804155,23.6698253 L14.3804155,24.1324628 L24.562449,24.1324628 L24.562449,23.6698253 L21.620156,23.6698253 L12.6281419,-0.00024075 L11.8345724,-0.00024075 L2.90874575,23.6698253 L-0.00011925,23.6698253 L-0.00011925,24.1324628 Z M25.4549657,24.1324628 L33.3893314,24.1324628 L33.3893314,23.6698253 L30.8434874,23.6698253 L30.8434874,0.29726425 L25.4549657,0.29726425 L25.4549657,0.75990125 L28.0008083,0.75990125 L28.0008083,23.6698253 L25.4549657,23.6698253 L25.4549657,24.1324628 Z M35.2398792,24.1324628 L43.1742467,24.1324628 L43.1742467,23.6698253 L40.6284037,23.6698253 L40.6284037,0.29726425 L35.2398792,0.29726425 L35.2398792,0.75990125 L37.7857234,0.75990125 L37.7857234,23.6698253 L35.2398792,23.6698253 L35.2398792,24.1324628 Z M49.1571148,13.7358178 C49.3336107,12.8433018 49.6037028,12.1159171 49.9673948,11.5536661 C50.3310857,10.9914141 50.7883767,10.5896148 51.3392627,10.3469305 C51.8901487,10.1049155 52.5399787,9.98323815 53.2894257,9.98323815 C54.0388708,9.98323815 54.6887007,10.1049155 55.2402557,10.3469305 C55.7904727,10.5896148 56.2484308,10.9914141 56.6121238,11.5536661 C56.9758138,12.1159171 57.2452417,12.8433018 57.4217368,13.7358178 C57.5982347,14.628335 57.6864877,15.7354555 57.6864877,17.0578503 C57.6864877,18.6229294 57.5648107,19.8677726 57.3227947,20.7937168 C57.0801078,21.7189917 56.7605428,22.430331 56.3640887,22.9257273 C55.9676427,23.4217923 55.5043318,23.7473772 54.9755088,23.9011443 C54.4466848,24.055579 53.8844357,24.1324628 53.2894257,24.1324628 C52.6944127,24.1324628 52.1328318,24.055579 51.6040087,23.9011443 C51.0745167,23.7473772 50.6118797,23.4217923 50.2154278,22.9257273 C49.8183068,22.430331 49.4987398,21.7189917 49.2567257,20.7937168 C49.0140427,19.8677726 48.8930347,18.6229294 48.8930347,17.0578503 C48.8930347,15.7354555 48.9806127,14.628335 49.1571148,13.7358178 L49.1571148,13.7358178 Z M46.2482438,19.9834323 C46.6888207,20.898679 47.2671188,21.6975984 47.9838057,22.3801891 C48.6998237,23.0641177 49.5208018,23.6036389 50.4467437,24.0000894 C51.3720227,24.3972094 52.3193597,24.5951007 53.2894257,24.5951007 C54.2594897,24.5951007 55.2068278,24.3972094 56.1327687,24.0000894 C57.0580468,23.6036389 57.8790307,23.0641177 58.5957167,22.3801891 C59.3117318,21.6975984 59.8900287,20.898679 60.3312748,19.9834323 C60.7718498,19.0695224 60.9924687,18.0941055 60.9924687,17.0578503 C60.9924687,15.9781399 60.7551338,14.9753123 60.2817978,14.0493689 C59.8071277,13.1240931 59.2014228,12.3251743 58.4633438,11.6526108 C57.7245927,10.9807166 56.8982647,10.4579096 55.9836867,10.0828532 C55.0691097,9.70846365 54.1705728,9.52060025 53.2894257,9.52060025 C52.4076088,9.52060025 51.5097437,9.70846365 50.5951637,10.0828532 C49.6805867,10.4579096 48.8542577,10.9807166 48.1161768,11.6526108 C47.3774268,12.3251743 46.7717217,13.1240931 46.2977207,14.0493689 C45.8237178,14.9753123 45.5870478,15.9781399 45.5870478,17.0578503 C45.5870478,18.0941055 45.8070017,19.0695224 46.2482438,19.9834323 L46.2482438,19.9834323 Z M63.4052757,24.1324628 L70.3147457,24.1324628 L70.3147457,23.6698253 L67.1411347,23.6698253 L73.4555998,13.0906657 L79.9017697,23.6698253 L76.7281598,23.6698253 L76.7281598,24.1324628 L86.6461167,24.1324628 L86.6461167,23.6698253 L83.9017128,23.6698253 L75.6705117,10.2145567 L81.1914087,1.05740725 L84.3650157,1.05740725 L84.3650157,0.59477025 L77.4882988,0.59477025 L77.4882988,1.05740725 L80.6619177,1.05740725 L75.3730077,9.75191975 L70.0834297,1.05740725 L73.2570447,1.05740725 L73.2570447,0.59477025 L63.4052757,0.59477025 L63.4052757,1.05740725 L66.1496717,1.05740725 L73.1908557,12.6280278 L66.5788868,23.6698253 L63.4052757,23.6698253 L63.4052757,24.1324628 Z M89.8190677,23.3556063 C90.3478918,23.1684115 90.9315327,22.9150307 91.5713407,22.5954625 C92.2098067,22.2758953 92.8656527,21.9068551 93.5382147,21.487673 C94.2101118,21.0691597 94.8325257,20.5951568 95.4061497,20.0663325 C96.3976048,19.1403886 97.1303397,18.1322131 97.6043388,17.0418054 C98.0776808,15.9507294 98.3150087,14.832242 98.3150087,13.686345 C98.3150087,12.495655 98.0282047,11.5817452 97.4552597,10.9419413 C96.8823077,10.3034743 96.0673437,9.98323815 95.0090247,9.98323815 C93.9513768,9.98323815 93.1410887,10.181798 92.5795117,10.5782489 C92.0172568,10.9753695 91.7364717,11.493496 91.7364717,12.1319628 C91.7364717,12.5290822 91.8026567,12.8874264 91.9350268,13.2069931 C92.0667328,13.5265608 92.1329177,13.8294153 92.1329177,14.1155548 C92.1329177,14.3803015 92.0119157,14.6176377 91.7692247,14.8262252 C91.5265417,15.0361509 91.1628557,15.1404448 90.6788168,15.1404448 C90.1493287,15.1404448 89.7695908,15.0140887 89.5382758,14.7607069 C89.3062888,14.5073261 89.1906267,14.1710453 89.1906267,13.7518634 C89.1906267,13.245101 89.2949207,12.7436876 89.5048437,12.248291 C89.7141027,11.7522259 90.0503827,11.3009529 90.5130148,10.8924685 C90.9763327,10.4853211 91.5873857,10.1543885 92.3481967,9.90100665 C93.1083357,9.64762585 94.0282577,9.52060025 95.1086417,9.52060025 C96.2766027,9.52060025 97.2627167,9.64762585 98.0669767,9.90100665 C98.8712447,10.1543885 99.5324387,10.4906682 100.050574,10.9091815 C100.56803,11.3276949 100.943091,11.8016987 101.174407,12.3305226 C101.406402,12.8593474 101.522048,13.410902 101.522048,13.9838504 C101.522048,14.7332964 101.328841,15.4606809 100.943091,16.1653342 C100.557334,16.8713246 100.045218,17.5432191 99.4060887,18.1816856 C98.7662797,18.8214893 98.0449127,19.4218487 97.2406527,19.9834323 C96.4357137,20.5456837 95.6154088,21.0577943 94.7777087,21.5211005 C93.9400087,21.9837382 93.1297288,22.3915548 92.3481967,22.7438817 C91.5653137,23.0968764 90.8767158,23.3836849 90.2816988,23.6036389 L90.3478918,23.6698253 L96.4637968,23.6698253 C97.2353047,23.6698253 97.9018468,23.6317178 98.4640947,23.5541661 C99.0256867,23.4772823 99.4996858,23.3228472 99.8854437,23.0915286 C100.270522,22.8595409 100.584746,22.534625 100.827422,22.1161117 C101.070113,21.6975984 101.257308,21.1574082 101.38967,20.4962111 L101.719947,20.4962111 L101.719947,24.1324628 L88.5956177,24.1324628 L88.5956177,23.7360117 C88.8817508,23.6698253 89.2902437,23.5434691 89.8190677,23.3556063 L89.8190677,23.3556063 Z" id="Fill-401" fill="#55575A" fill-rule="nonzero" mask="url(#mask-2)"/>
            </g>
            <g id="®" transform="translate(104.1392, 0.875)" fill="#55575A" fill-rule="nonzero">
                <g id="Shape">
                    <path d="M0.48,2.992 C0.48,3.34933333 0.545333333,3.68133333 0.676,3.988 C0.806666667,4.29466667 0.986666667,4.56133333 1.216,4.788 C1.44533333,5.01466667 1.712,5.19333333 2.016,5.324 C2.32,5.45466667 2.648,5.52 3,5.52 C3.352,5.52 3.68,5.45466667 3.984,5.324 C4.288,5.19333333 4.55466667,5.01333333 4.784,4.784 C5.01333333,4.55466667 5.19333333,4.284 5.324,3.972 C5.45466667,3.66 5.52,3.32266667 5.52,2.96 C5.52,2.60266667 5.45466667,2.26933333 5.324,1.96 C5.19333333,1.65066667 5.01333333,1.38266667 4.784,1.156 C4.55466667,0.929333333 4.288,0.752 3.984,0.624 C3.68,0.496 3.352,0.432 3,0.432 C2.648,0.432 2.32,0.497333333 2.016,0.628 C1.712,0.758666667 1.44533333,0.937333333 1.216,1.164 C0.986666667,1.39066667 0.806666667,1.66 0.676,1.972 C0.545333333,2.284 0.48,2.624 0.48,2.992 Z M0,2.992 C0,2.56533333 0.08,2.16933333 0.24,1.804 C0.4,1.43866667 0.616,1.12266667 0.888,0.856 C1.16,0.589333333 1.47733333,0.38 1.84,0.228 C2.20266667,0.076 2.58933333,0 3,0 C3.40533333,0 3.79066667,0.076 4.156,0.228 C4.52133333,0.38 4.84,0.588 5.112,0.852 C5.384,1.116 5.6,1.428 5.76,1.788 C5.92,2.148 6,2.53866667 6,2.96 C6,3.38666667 5.92,3.78266667 5.76,4.148 C5.6,4.51333333 5.384,4.82933333 5.112,5.096 C4.84,5.36266667 4.52133333,5.572 4.156,5.724 C3.79066667,5.876 3.40533333,5.952 3,5.952 C2.58933333,5.952 2.20266667,5.876 1.84,5.724 C1.47733333,5.572 1.16,5.364 0.888,5.1 C0.616,4.836 0.4,4.524 0.24,4.164 C0.08,3.804 0,3.41333333 0,2.992 Z M2.368,2.808 L2.96,2.808 C3.07733333,2.808 3.192,2.804 3.304,2.796 C3.416,2.788 3.516,2.76533333 3.604,2.728 C3.692,2.69066667 3.76133333,2.63466667 3.812,2.56 C3.86266667,2.48533333 3.888,2.37866667 3.888,2.24 C3.888,2.12266667 3.86533333,2.028 3.82,1.956 C3.77466667,1.884 3.71466667,1.82933333 3.64,1.792 C3.56533333,1.75466667 3.48133333,1.73066667 3.388,1.72 C3.29466667,1.70933333 3.20266667,1.704 3.112,1.704 L2.368,1.704 L2.368,2.808 Z M1.888,1.272 L3.152,1.272 C3.568,1.272 3.87466667,1.35066667 4.072,1.508 C4.26933333,1.66533333 4.368,1.91733333 4.368,2.264 C4.368,2.57333333 4.28,2.8 4.104,2.944 C3.928,3.088 3.712,3.17333333 3.456,3.2 L4.448,4.72 L3.928,4.72 L2.984,3.24 L2.368,3.24 L2.368,4.72 L1.888,4.72 L1.888,1.272 Z"/>
                </g>
            </g>
        </g>
    </g>
</svg>
