<?xml version="1.0" encoding="UTF-8"?>
<svg xmlns="http://www.w3.org/2000/svg" xmlns:xlink="http://www.w3.org/1999/xlink" width="109px" height="31px" viewBox="0 0 109 31" version="1.1">
    <title>alloclae</title>
    <defs>
        <polygon id="path-1" points="0 0 3.54489016 0 3.54489016 22.3473718 0 22.3473718"/>
        <polygon id="path-3" points="0 1.13686838e-13 2.94984 1.13686838e-13 2.94984 2.79759584 0 2.79759584"/>
    </defs>
    <g id="Page-1" stroke="none" stroke-width="1" fill="none" fill-rule="evenodd">
        <g id="Tiger-Landing-Page-v3" transform="translate(-224, -655)">
            <g id="alloclae" transform="translate(224.0004, 655)">
                <g id="Group-377" transform="translate(0, 0)">
                    <path d="M74.4990963,10.8972981 C74.9731998,9.93678665 75.5785429,9.12145945 76.3167663,8.40374135 C77.493003,7.26031445 78.8948074,6.52619215 80.5090562,6.24730725 C82.1257659,5.96760265 83.7219683,6.06193105 85.2410684,6.75996255 C86.4845653,7.33167645 87.3425442,8.26593965 87.8346916,9.53896565 C87.8617607,9.61032725 87.8896499,9.68250935 87.9191776,9.75305075 C87.9232784,9.76289365 87.942144,9.76535455 87.9897209,9.78996175 C88.0709234,9.67184635 88.1578708,9.55126945 88.2390743,9.42659185 C89.3201624,7.76968905 90.7974325,6.67711825 92.7512616,6.25222915 C93.4714396,6.09556145 94.1998206,6.08407875 94.9273806,6.13165325 C95.8723056,6.19317095 96.7991876,6.37198535 97.6834136,6.73043385 C99.7783266,7.58267255 101.106311,9.12556025 101.751027,11.2664098 C102.087329,12.3860492 102.179196,13.5384982 102.111938,14.7549271 C101.924918,14.7614898 101.745284,14.7721519 101.565652,14.7721519 C97.6383006,14.7737931 93.7109536,14.7729731 89.7836061,14.7737931 C89.603149,14.7737931 89.4226938,14.7877378 89.2209125,14.7951198 C89.2750507,16.0008849 89.544911,17.0754099 90.272471,17.999011 C90.8179365,18.6921225 91.5364726,19.1416187 92.3764046,19.3778501 C93.5017876,19.693646 94.6419306,19.7067685 95.7771556,19.4237843 C96.9607736,19.1284933 97.8187566,18.4197989 98.3650406,17.3337902 C98.4823366,17.100839 98.5930696,16.8654264 98.7300516,16.5816206 C99.7988346,16.9638577 100.855319,17.3411708 101.942147,17.7291489 C101.626348,18.6117373 101.170293,19.3721079 100.582173,20.0520945 C99.4321806,21.3817167 97.9622976,22.1478299 96.2463386,22.4742888 C95.1242396,22.6875515 93.9963996,22.7310256 92.8685556,22.5546741 C90.7178675,22.2175511 89.060145,21.1463051 87.9897209,19.2261033 C87.8994909,19.0636944 87.816649,18.8971843 87.737083,18.7298522 C87.6575199,18.5641618 87.5869785,18.3943705 87.4885479,18.1729039 C87.4327703,18.2582097 87.399962,18.296761 87.3794561,18.3418756 C86.6117035,20.0266665 85.3280149,21.1955233 83.6702934,21.963275 C82.0691686,22.7047786 80.378636,22.9008169 78.631507,22.680992 C77.8891829,22.5874815 77.1649032,22.4365578 76.4849171,22.1183014 C75.5457329,21.6794682 74.8378589,21.0191669 74.5319062,20.0012369 C74.1267036,18.6486473 74.4867926,16.8998776 75.8582475,15.8975334 C76.8154777,15.1986814 77.8842607,14.7696914 79.0186649,14.4908071 C80.4901906,14.1290783 81.9731994,13.8100004 83.4480062,13.458114 C83.8679729,13.3580439 84.284659,13.2292647 84.6874014,13.0750583 C84.9589039,12.9708866 85.2205625,12.8224215 85.4584347,12.6534505 C85.8521534,12.3745657 86.0375305,11.9759249 86.0071798,11.4895174 C85.9317184,10.2952352 85.3575426,9.57259605 84.3092666,9.24121515 C82.8926969,8.79253955 81.4679266,8.81960765 80.0899092,9.43315405 C79.0826436,9.88101005 78.4001973,10.6659879 77.8916434,11.6182965 C77.7825504,11.8217182 77.68166,12.0292407 77.556162,12.2753158 C76.5472561,11.8208983 75.5490141,11.3705816 74.4990963,10.8972981 L74.4990963,10.8972981 Z M98.7727016,13.8083605 C98.7546566,13.2899632 98.7054426,12.81832 98.5914296,12.3557004 C98.2009916,10.7660584 97.2478626,9.69891445 95.6360746,9.29207085 C94.9306606,9.11407705 94.2088396,9.06486175 93.4739006,9.16247175 C92.7250126,9.26172155 92.0237016,9.46678395 91.3888286,9.87772845 C90.0657707,10.7340688 89.486673,12.022679 89.2783314,13.5220941 C89.2668472,13.6082195 89.2848907,13.6984465 89.2906328,13.8083605 L98.7727016,13.8083605 Z M86.0235859,13.3203127 C85.6241251,13.5590041 85.2615743,13.8280467 84.8588329,14.0027598 C84.3937517,14.2045407 83.8991419,14.3456235 83.4061733,14.4719415 C82.4932366,14.7065325 81.5679961,14.8927293 80.6575204,15.1322422 C79.9217583,15.3258205 79.213884,15.5956822 78.6126419,16.0870109 C77.5807689,16.9318675 77.48398,18.8586326 78.9858542,19.5812716 C79.3672691,19.7650064 79.7691918,19.8560557 80.1858779,19.9151119 C82.0412799,20.1808719 83.9721447,19.4262451 85.0392881,17.7562188 C85.9087492,16.3962449 86.1695896,14.9066734 86.0235859,13.3203127 L86.0235859,13.3203127 Z" id="Fill-357" fill="#EDC701"/>
                    <path d="M40.2526053,22.6604294 C38.7031561,22.6546876 37.453097,22.4594692 36.2686588,21.9566554 C34.4099757,21.1675768 33.070512,19.8445158 32.3314678,17.9661474 C31.4029466,15.6087521 31.3824398,13.2242888 32.3478719,10.8742761 C33.2772142,8.61449075 34.9644634,7.15772775 37.313655,6.48184175 C39.162495,5.95032275 41.0260994,5.96180675 42.8609943,6.51547375 C45.3668536,7.27092375 47.0590278,8.92618575 47.8751737,11.4000557 C48.601092,13.6016035 48.5526973,15.8179149 47.652064,17.974349 C46.6694075,20.3251819 44.883727,21.7581563 42.4254433,22.3774433 C41.6265215,22.5784049 40.8111936,22.6669913 40.2526053,22.6604294 M40.0582065,9.17472075 C39.8720101,9.17472075 39.6849932,9.16159475 39.5004376,9.17636075 C37.8017026,9.31252275 36.4548546,10.0384426 35.7125298,11.612501 C34.8488084,13.4449367 34.8684947,15.3265875 35.6797205,17.172966 C36.2030393,18.3631476 37.1610886,19.087427 38.4193501,19.4171657 C39.3019375,19.6492966 40.1927263,19.6681613 41.0908988,19.5213384 C42.9102093,19.2260484 44.0798837,18.1703882 44.6187874,16.4363831 C45.0264505,15.1231651 45.0198883,13.783699 44.6507768,12.4589957 C44.2882263,11.1564426 43.5286774,10.1598396 42.2728772,9.59058565 C41.5723839,9.27315175 40.8275991,9.14109075 40.0582065,9.17472075" id="Fill-359" fill="#EDC701"/>
                    <path d="M17.1640233,19.6379873 L17.1640233,22.1741969 C16.8506884,22.3866414 16.4988016,22.447339 16.1510166,22.5170621 C15.3980288,22.6671677 14.6401199,22.68111 13.8887714,22.5326445 C12.6157469,22.2800084 11.8455338,21.4671418 11.6880468,20.1662286 C11.6068424,19.4936239 11.6191448,18.8095378 11.593718,18.1303706 C11.5855154,17.8998793 11.5928978,17.6685695 11.5321993,17.4224958 C11.4805245,17.5373287 11.4280275,17.6521657 11.377993,17.7678202 C10.7603458,19.2007946 9.88021975,20.4377307 8.62113705,21.382656 C7.48509445,22.2357156 6.20304715,22.6999765 4.78155645,22.7172024 C3.91291135,22.7270441 3.05165035,22.6236938 2.23222435,22.2939521 C1.10602335,21.8411757 0.300540353,21.0709614 0.0962953528,19.8602752 C-0.192429647,18.1500563 0.129107353,16.8860516 1.59489035,15.8066048 C2.40447535,15.2102847 3.32069335,14.8296885 4.28694475,14.5868949 C5.74124655,14.2218846 7.20949115,13.9101905 8.66543135,13.5501012 C9.29374065,13.3942546 9.92779385,13.2244625 10.5208334,12.9710054 C11.5576262,12.5288915 11.8102631,11.9194468 11.4780621,10.7440299 C11.2705406,10.0099085 10.729176,9.55385005 10.0327849,9.27168355 C9.26667345,8.96162885 8.46119055,8.93948255 7.65324535,8.97147355 C5.72730195,9.04939645 4.34682215,9.97791755 3.46915735,11.6758337 C3.37072835,11.8653106 3.27475835,12.0556087 3.16238535,12.2754344 C2.13789535,11.8128147 1.14047335,11.3616771 0.115983353,10.8990564 C0.420295353,10.243678 0.805812353,9.66950405 1.25284735,9.13716215 C2.70632835,7.40397825 4.57485135,6.45658865 6.81741275,6.19903175 C8.25120575,6.03416245 9.66613515,6.08665835 11.0523542,6.49513995 C12.4484161,6.90608495 13.5664143,7.69270405 14.2455792,9.00920475 C14.6786722,9.84749875 14.8624071,10.7497719 14.8591255,11.6938772 C14.8533835,13.6608352 14.8533835,15.6277908 14.861586,17.5947474 C14.8624071,17.9802646 14.8902945,18.3682432 14.9411501,18.7504786 C15.0223545,19.3591032 15.3857245,19.6904837 16.0025515,19.7068876 C16.3708433,19.716731 16.7399563,19.6650556 17.1640233,19.6379873 M11.6552366,13.1637649 C11.0638374,13.8617962 10.3001865,14.118534 9.52669175,14.3441009 C9.08211835,14.4737014 8.62605985,14.5622881 8.17328205,14.6639985 C7.17750015,14.8871068 6.17597805,15.0897073 5.23105175,15.4908089 C4.79959995,15.6737241 4.40424095,15.9083161 4.06383835,16.237236 C3.25015235,17.0213928 3.08446235,18.8932024 4.63390865,19.5887725 C4.99399985,19.7503615 5.39592205,19.854533 5.78882065,19.9062085 C7.36451855,20.112912 8.78682745,19.7470804 9.93271575,18.6110359 C11.4280275,17.1272052 11.7930378,15.2636002 11.6552366,13.1637649" id="Fill-361" fill="#EDC701"/>
                    <path d="M66.4957919,12.4548654 C65.296588,12.7116033 64.194994,12.9478349 63.0663333,13.1889878 C62.9834886,12.857608 62.9178686,12.5434523 62.827641,12.2374998 C62.3920899,10.7692543 61.5111418,9.71359445 59.9789181,9.33874085 C58.4614592,8.96716885 56.9874725,9.08282385 55.6537485,9.97935495 C54.6505861,10.6527792 54.0862551,11.6428195 53.8139324,12.7895268 C53.511261,14.0609123 53.5547333,15.3331185 53.9689598,16.5831779 C54.5784035,18.4221774 56.0925818,19.506546 58.0661001,19.5984136 C58.6550379,19.6254808 59.2439766,19.6197396 59.8238916,19.4753762 C61.4045096,19.0832959 62.3486161,18.0456821 62.8227201,16.5347835 C62.9236107,16.212426 62.9900503,15.8802246 63.0868392,15.4947076 C64.2023773,15.7235564 65.315454,15.9524067 66.4473968,16.1853572 C66.4473968,16.3075744 66.4670825,16.4158469 66.4449358,16.5142768 C65.9175167,18.7921086 64.7732706,20.6278258 62.6398039,21.7384416 C61.7088232,22.2232104 60.7105808,22.4774858 59.6672249,22.589861 C58.228509,22.7440663 56.8185024,22.6472789 55.4421263,22.1994209 C52.9534911,21.3890172 51.3531871,19.7025853 50.6166061,17.2123098 C50.0539151,15.310972 50.0366901,13.3850277 50.6732011,11.5033775 C51.6304321,8.67679985 53.6162548,6.94689565 56.5355158,6.31530385 C58.0743027,5.98228265 59.6237507,6.02247435 61.143672,6.42767815 C63.7012057,7.11012555 65.3466234,8.76620675 66.1676927,11.2581228 C66.2915492,11.633797 66.3784962,12.0225944 66.4957919,12.4548654" id="Fill-363" fill="#EDC701"/>
                    <path d="M29.2400693,22.3621955 L25.7294063,22.3621955 C25.6424603,22.0242534 25.6080103,0.86839625 25.6941361,0.01615925 L29.2105404,0.01615925 C29.2933856,0.33770025 29.3278361,21.4951916 29.2400693,22.3621955" id="Fill-365" fill="#EDC701"/>
                    <path d="M72.1850705,22.3624994 L68.6752287,22.3624994 C68.592383,22.0196371 68.5628544,0.75468875 68.6448789,0.01482375 L72.1604633,0.01482375 C72.2392069,0.34128375 72.2687358,21.607051 72.1850705,22.3624994" id="Fill-367" fill="#EDC701"/>
                    <g id="Group-371" transform="translate(19.2208, 0)">
                        <mask id="mask-2" fill="white">
                            <use xlink:href="#path-1"/>
                        </mask>
                        <g id="Clip-370"/>
                        <path d="M0.0499083401,-0.000305175783 L3.46624264,-0.000305175783 C3.54908754,0.343379054 3.57779654,21.6181738 3.49659184,22.3473718 L0.0745157871,22.3473718 C-0.00422804866,22.0192718 -0.0329367457,0.742019954 0.0499083401,-0.000305175783" id="Fill-369" fill="#EDC701" mask="url(#mask-2)"/>
                    </g>
                    <g id="Group-374" transform="translate(105.7868, 6.4462)">
                        <mask id="mask-4" fill="white">
                            <use xlink:href="#path-3"/>
                        </mask>
                        <g id="Clip-373"/>
                        <path d="M1.44117645,1.96285493 C1.73892667,1.24103613 1.9923833,0.6283103 2.25158176,1.13686838e-13 L2.85118321,1.13686838e-13 C2.95453456,0.3125143 2.98570421,1.93742717 2.902859,2.74291123 C2.84051994,2.76013661 2.77079895,2.78802521 2.69861707,2.79540719 C2.62397453,2.80278958 2.54687122,2.78966553 2.41891262,2.78310366 C2.35739377,2.26060521 2.41891262,1.73728664 2.37789992,1.15162904 C2.29423472,1.25990183 2.23189566,1.31567867 2.20072642,1.38539989 C2.03011468,1.76599522 1.86524493,2.14987172 1.70119523,2.53374806 C1.63885618,2.67975218 1.58718063,2.83231861 1.32059997,2.77572132 C1.03023192,2.31392144 0.88258728,1.73974736 0.57991555,1.18361873 C0.47984532,1.36407335 0.52085784,1.52648271 0.51511625,1.67822869 C0.50773385,1.86360485 0.51347545,2.04980121 0.51347545,2.23517741 C0.51347545,2.40250834 0.51347545,2.56901884 0.51347545,2.76669891 L0,2.76669891 L0,0.0073819 L0.62666991,0.0073819 C0.88258728,0.6217483 1.14260605,1.24595756 1.44117645,1.96285493" id="Fill-372" fill="#EDC701" mask="url(#mask-4)"/>
                    </g>
                    <path d="M104.388496,9.22256459 L103.830727,9.22256459 L103.830727,6.9439132 C103.542,6.9299691 103.286903,6.9184856 103.004737,6.9053617 C102.994894,6.7527955 102.986692,6.6215558 102.978489,6.493597 C103.339398,6.4074705 104.63211,6.3935268 105.198081,6.468169 C105.205464,6.5928469 105.212846,6.724087 105.222689,6.889777 C104.938883,6.9111035 104.683786,6.9299691 104.388496,6.9512956 L104.388496,9.22256459 Z" id="Fill-375" fill="#EDC701"/>
                </g>
                <g id="Structural-Adipose-F" transform="translate(35.2996, 24.268)" fill="#ECC701" fill-rule="nonzero">
                    <path d="M2.286,0.99 C2.098,0.714 1.824,0.576 1.464,0.576 C1.352,0.576 1.242,0.591 1.134,0.621 C1.026,0.651 0.929,0.697 0.843,0.759 C0.757,0.821 0.688,0.901 0.636,0.999 C0.584,1.097 0.558,1.212 0.558,1.344 C0.558,1.536 0.612,1.685 0.72,1.791 C0.828,1.897 0.962,1.984 1.122,2.052 C1.282,2.12 1.457,2.181 1.647,2.235 C1.837,2.289 2.012,2.361 2.172,2.451 C2.332,2.541 2.466,2.66 2.574,2.808 C2.682,2.956 2.736,3.158 2.736,3.414 C2.736,3.606 2.695,3.779 2.613,3.933 C2.531,4.087 2.423,4.216 2.289,4.32 C2.155,4.424 2.005,4.504 1.839,4.56 C1.673,4.616 1.506,4.644 1.338,4.644 C1.078,4.644 0.831,4.595 0.597,4.497 C0.363,4.399 0.164,4.238 0,4.014 L0.39,3.732 C0.482,3.888 0.61,4.013 0.774,4.107 C0.938,4.201 1.132,4.248 1.356,4.248 C1.464,4.248 1.572,4.231 1.68,4.197 C1.788,4.163 1.885,4.113 1.971,4.047 C2.057,3.981 2.128,3.9 2.184,3.804 C2.24,3.708 2.268,3.598 2.268,3.474 C2.268,3.326 2.237,3.203 2.175,3.105 C2.113,3.007 2.031,2.925 1.929,2.859 C1.827,2.793 1.711,2.738 1.581,2.694 C1.451,2.65 1.317,2.606 1.179,2.562 C1.041,2.518 0.907,2.468 0.777,2.412 C0.647,2.356 0.531,2.285 0.429,2.199 C0.327,2.113 0.245,2.005 0.183,1.875 C0.121,1.745 0.09,1.582 0.09,1.386 C0.09,1.182 0.129,1.004 0.207,0.852 C0.285,0.7 0.389,0.574 0.519,0.474 C0.649,0.374 0.796,0.3 0.96,0.252 C1.124,0.204 1.292,0.18 1.464,0.18 C1.704,0.18 1.922,0.218 2.118,0.294 C2.314,0.37 2.496,0.504 2.664,0.696 L2.286,0.99 Z" id="Path"/>
                    <path d="M4.92,2.088 L4.11,2.088 L4.11,3.744 C4.11,3.848 4.12,3.933 4.14,3.999 C4.16,4.065 4.188,4.116 4.224,4.152 C4.26,4.188 4.303,4.213 4.353,4.227 C4.403,4.241 4.458,4.248 4.518,4.248 C4.586,4.248 4.656,4.238 4.728,4.218 C4.8,4.198 4.866,4.172 4.926,4.14 L4.944,4.506 C4.796,4.574 4.618,4.608 4.41,4.608 C4.334,4.608 4.255,4.598 4.173,4.578 C4.091,4.558 4.016,4.52 3.948,4.464 C3.88,4.408 3.824,4.332 3.78,4.236 C3.736,4.14 3.714,4.014 3.714,3.858 L3.714,2.088 L3.12,2.088 L3.12,1.728 L3.714,1.728 L3.714,0.936 L4.11,0.936 L4.11,1.728 L4.92,1.728 L4.92,2.088 Z" id="Path"/>
                    <path d="M5.502,2.604 C5.502,2.48 5.499,2.354 5.493,2.226 C5.487,2.098 5.482,1.932 5.478,1.728 L5.868,1.728 L5.868,2.25 L5.88,2.25 C5.908,2.174 5.948,2.101 6,2.031 C6.052,1.961 6.115,1.898 6.189,1.842 C6.263,1.786 6.349,1.741 6.447,1.707 C6.545,1.673 6.656,1.656 6.78,1.656 C6.892,1.656 6.99,1.668 7.074,1.692 L6.996,2.082 C6.944,2.062 6.868,2.052 6.768,2.052 C6.616,2.052 6.486,2.081 6.378,2.139 C6.27,2.197 6.18,2.271 6.108,2.361 C6.036,2.451 5.983,2.548 5.949,2.652 C5.915,2.756 5.898,2.856 5.898,2.952 L5.898,4.536 L5.502,4.536 L5.502,2.604 Z" id="Path"/>
                    <path d="M9.48,4.536 C9.472,4.46 9.467,4.385 9.465,4.311 C9.463,4.237 9.462,4.162 9.462,4.086 L9.45,4.086 C9.406,4.162 9.35,4.232 9.282,4.296 C9.214,4.36 9.138,4.415 9.054,4.461 C8.97,4.507 8.881,4.543 8.787,4.569 C8.693,4.595 8.6,4.608 8.508,4.608 C8.148,4.608 7.882,4.513 7.71,4.323 C7.538,4.133 7.452,3.862 7.452,3.51 L7.452,1.728 L7.848,1.728 L7.848,3.282 C7.848,3.438 7.86,3.576 7.884,3.696 C7.908,3.816 7.949,3.917 8.007,3.999 C8.065,4.081 8.143,4.143 8.241,4.185 C8.339,4.227 8.462,4.248 8.61,4.248 C8.63,4.248 8.686,4.24 8.778,4.224 C8.87,4.208 8.967,4.164 9.069,4.092 C9.171,4.02 9.262,3.912 9.342,3.768 C9.422,3.624 9.462,3.424 9.462,3.168 L9.462,1.728 L9.858,1.728 L9.858,3.918 C9.858,3.994 9.861,4.09 9.867,4.206 C9.873,4.322 9.88,4.432 9.888,4.536 L9.48,4.536 Z" id="Path"/>
                    <path d="M12.834,2.388 C12.766,2.284 12.671,2.196 12.549,2.124 C12.427,2.052 12.288,2.016 12.132,2.016 C11.968,2.012 11.821,2.038 11.691,2.094 C11.561,2.15 11.45,2.228 11.358,2.328 C11.266,2.428 11.196,2.547 11.148,2.685 C11.1,2.823 11.076,2.972 11.076,3.132 C11.076,3.292 11.1,3.441 11.148,3.579 C11.196,3.717 11.266,3.836 11.358,3.936 C11.45,4.036 11.561,4.114 11.691,4.17 C11.821,4.226 11.968,4.252 12.132,4.248 C12.288,4.248 12.427,4.212 12.549,4.14 C12.671,4.068 12.766,3.98 12.834,3.876 L13.158,4.122 C13.018,4.286 12.86,4.407 12.684,4.485 C12.508,4.563 12.324,4.604 12.132,4.608 C11.904,4.612 11.698,4.577 11.514,4.503 C11.33,4.429 11.173,4.326 11.043,4.194 C10.913,4.062 10.814,3.905 10.746,3.723 C10.678,3.541 10.644,3.344 10.644,3.132 C10.644,2.92 10.678,2.723 10.746,2.541 C10.814,2.359 10.913,2.202 11.043,2.07 C11.173,1.938 11.33,1.835 11.514,1.761 C11.698,1.687 11.904,1.652 12.132,1.656 C12.324,1.66 12.508,1.701 12.684,1.779 C12.86,1.857 13.018,1.978 13.158,2.142 L12.834,2.388 Z" id="Path"/>
                    <path d="M15.132,2.088 L14.322,2.088 L14.322,3.744 C14.322,3.848 14.332,3.933 14.352,3.999 C14.372,4.065 14.4,4.116 14.436,4.152 C14.472,4.188 14.515,4.213 14.565,4.227 C14.615,4.241 14.67,4.248 14.73,4.248 C14.798,4.248 14.868,4.238 14.94,4.218 C15.012,4.198 15.078,4.172 15.138,4.14 L15.156,4.506 C15.008,4.574 14.83,4.608 14.622,4.608 C14.546,4.608 14.467,4.598 14.385,4.578 C14.303,4.558 14.228,4.52 14.16,4.464 C14.092,4.408 14.036,4.332 13.992,4.236 C13.948,4.14 13.926,4.014 13.926,3.858 L13.926,2.088 L13.332,2.088 L13.332,1.728 L13.926,1.728 L13.926,0.936 L14.322,0.936 L14.322,1.728 L15.132,1.728 L15.132,2.088 Z" id="Path"/>
                    <path d="M17.7,4.536 C17.692,4.46 17.687,4.385 17.685,4.311 C17.683,4.237 17.682,4.162 17.682,4.086 L17.67,4.086 C17.626,4.162 17.57,4.232 17.502,4.296 C17.434,4.36 17.358,4.415 17.274,4.461 C17.19,4.507 17.101,4.543 17.007,4.569 C16.913,4.595 16.82,4.608 16.728,4.608 C16.368,4.608 16.102,4.513 15.93,4.323 C15.758,4.133 15.672,3.862 15.672,3.51 L15.672,1.728 L16.068,1.728 L16.068,3.282 C16.068,3.438 16.08,3.576 16.104,3.696 C16.128,3.816 16.169,3.917 16.227,3.999 C16.285,4.081 16.363,4.143 16.461,4.185 C16.559,4.227 16.682,4.248 16.83,4.248 C16.85,4.248 16.906,4.24 16.998,4.224 C17.09,4.208 17.187,4.164 17.289,4.092 C17.391,4.02 17.482,3.912 17.562,3.768 C17.642,3.624 17.682,3.424 17.682,3.168 L17.682,1.728 L18.078,1.728 L18.078,3.918 C18.078,3.994 18.081,4.09 18.087,4.206 C18.093,4.322 18.1,4.432 18.108,4.536 L17.7,4.536 Z" id="Path"/>
                    <path d="M19.05,2.604 C19.05,2.48 19.047,2.354 19.041,2.226 C19.035,2.098 19.03,1.932 19.026,1.728 L19.416,1.728 L19.416,2.25 L19.428,2.25 C19.456,2.174 19.496,2.101 19.548,2.031 C19.6,1.961 19.663,1.898 19.737,1.842 C19.811,1.786 19.897,1.741 19.995,1.707 C20.093,1.673 20.204,1.656 20.328,1.656 C20.44,1.656 20.538,1.668 20.622,1.692 L20.544,2.082 C20.492,2.062 20.416,2.052 20.316,2.052 C20.164,2.052 20.034,2.081 19.926,2.139 C19.818,2.197 19.728,2.271 19.656,2.361 C19.584,2.451 19.531,2.548 19.497,2.652 C19.463,2.756 19.446,2.856 19.446,2.952 L19.446,4.536 L19.05,4.536 L19.05,2.604 Z" id="Path"/>
                    <path d="M22.596,3.138 C22.496,3.138 22.371,3.143 22.221,3.153 C22.071,3.163 21.927,3.187 21.789,3.225 C21.651,3.263 21.533,3.322 21.435,3.402 C21.337,3.482 21.288,3.592 21.288,3.732 C21.288,3.824 21.307,3.903 21.345,3.969 C21.383,4.035 21.434,4.089 21.498,4.131 C21.562,4.173 21.633,4.203 21.711,4.221 C21.789,4.239 21.868,4.248 21.948,4.248 C22.092,4.248 22.217,4.224 22.323,4.176 C22.429,4.128 22.518,4.063 22.59,3.981 C22.662,3.899 22.715,3.803 22.749,3.693 C22.783,3.583 22.8,3.466 22.8,3.342 L22.8,3.138 L22.596,3.138 Z M22.8,2.814 L22.8,2.742 C22.8,2.258 22.56,2.016 22.08,2.016 C21.752,2.016 21.466,2.126 21.222,2.346 L20.982,2.064 C21.246,1.792 21.642,1.656 22.17,1.656 C22.306,1.656 22.437,1.676 22.563,1.716 C22.689,1.756 22.798,1.817 22.89,1.899 C22.982,1.981 23.056,2.084 23.112,2.208 C23.168,2.332 23.196,2.48 23.196,2.652 L23.196,3.906 C23.196,4.014 23.201,4.127 23.211,4.245 C23.221,4.363 23.232,4.46 23.244,4.536 L22.86,4.536 C22.848,4.468 22.839,4.394 22.833,4.314 C22.827,4.234 22.824,4.156 22.824,4.08 L22.812,4.08 C22.696,4.268 22.559,4.403 22.401,4.485 C22.243,4.567 22.05,4.608 21.822,4.608 C21.698,4.608 21.578,4.591 21.462,4.557 C21.346,4.523 21.243,4.471 21.153,4.401 C21.063,4.331 20.991,4.245 20.937,4.143 C20.883,4.041 20.856,3.922 20.856,3.786 C20.856,3.558 20.915,3.379 21.033,3.249 C21.151,3.119 21.299,3.022 21.477,2.958 C21.655,2.894 21.845,2.854 22.047,2.838 C22.249,2.822 22.434,2.814 22.602,2.814 L22.8,2.814 Z" id="Shape"/>
                    <polygon id="Path" points="24.6 4.536 24.204 4.536 24.204 0 24.6 0"/>
                    <path d="M27.924,3.024 L29.766,3.024 L28.848,0.792 L27.924,3.024 Z M27.294,4.536 L26.79,4.536 L28.638,0.288 L29.058,0.288 L30.906,4.536 L30.402,4.536 L29.934,3.42 L27.762,3.42 L27.294,4.536 Z" id="Shape"/>
                    <path d="M31.578,3.132 C31.578,3.288 31.603,3.434 31.653,3.57 C31.703,3.706 31.774,3.824 31.866,3.924 C31.958,4.024 32.069,4.103 32.199,4.161 C32.329,4.219 32.476,4.248 32.64,4.248 C32.8,4.248 32.949,4.219 33.087,4.161 C33.225,4.103 33.344,4.024 33.444,3.924 C33.544,3.824 33.622,3.706 33.678,3.57 C33.734,3.434 33.762,3.288 33.762,3.132 C33.762,2.976 33.734,2.83 33.678,2.694 C33.622,2.558 33.544,2.44 33.444,2.34 C33.344,2.24 33.225,2.161 33.087,2.103 C32.949,2.045 32.8,2.016 32.64,2.016 C32.476,2.016 32.329,2.045 32.199,2.103 C32.069,2.161 31.958,2.24 31.866,2.34 C31.774,2.44 31.703,2.558 31.653,2.694 C31.603,2.83 31.578,2.976 31.578,3.132 Z M34.14,4.536 L33.744,4.536 L33.744,4.068 L33.732,4.068 C33.668,4.164 33.592,4.246 33.504,4.314 C33.416,4.382 33.324,4.438 33.228,4.482 C33.132,4.526 33.033,4.558 32.931,4.578 C32.829,4.598 32.732,4.608 32.64,4.608 C32.42,4.608 32.219,4.571 32.037,4.497 C31.855,4.423 31.698,4.32 31.566,4.188 C31.434,4.056 31.331,3.9 31.257,3.72 C31.183,3.54 31.146,3.344 31.146,3.132 C31.146,2.92 31.183,2.724 31.257,2.544 C31.331,2.364 31.434,2.208 31.566,2.076 C31.698,1.944 31.855,1.841 32.037,1.767 C32.219,1.693 32.42,1.656 32.64,1.656 C32.732,1.656 32.829,1.666 32.931,1.686 C33.033,1.706 33.132,1.738 33.228,1.782 C33.324,1.826 33.416,1.882 33.504,1.95 C33.592,2.018 33.668,2.1 33.732,2.196 L33.744,2.196 L33.744,0 L34.14,0 L34.14,4.536 Z" id="Shape"/>
                    <path d="M35.58,0.648 C35.58,0.732 35.55,0.801 35.49,0.855 C35.43,0.909 35.364,0.936 35.292,0.936 C35.22,0.936 35.154,0.909 35.094,0.855 C35.034,0.801 35.004,0.732 35.004,0.648 C35.004,0.564 35.034,0.495 35.094,0.441 C35.154,0.387 35.22,0.36 35.292,0.36 C35.364,0.36 35.43,0.387 35.49,0.441 C35.55,0.495 35.58,0.564 35.58,0.648 Z M35.49,4.536 L35.094,4.536 L35.094,1.728 L35.49,1.728 L35.49,4.536 Z" id="Shape"/>
                    <path d="M39.006,3.132 C39.006,2.976 38.981,2.83 38.931,2.694 C38.881,2.558 38.81,2.44 38.718,2.34 C38.626,2.24 38.515,2.161 38.385,2.103 C38.255,2.045 38.108,2.016 37.944,2.016 C37.78,2.016 37.63,2.045 37.494,2.103 C37.358,2.161 37.24,2.24 37.14,2.34 C37.04,2.44 36.962,2.558 36.906,2.694 C36.85,2.83 36.822,2.976 36.822,3.132 C36.822,3.288 36.85,3.434 36.906,3.57 C36.962,3.706 37.04,3.824 37.14,3.924 C37.24,4.024 37.358,4.103 37.494,4.161 C37.63,4.219 37.78,4.248 37.944,4.248 C38.108,4.248 38.255,4.219 38.385,4.161 C38.515,4.103 38.626,4.024 38.718,3.924 C38.81,3.824 38.881,3.706 38.931,3.57 C38.981,3.434 39.006,3.288 39.006,3.132 Z M36.444,1.728 L36.84,1.728 L36.84,2.196 L36.852,2.196 C36.916,2.1 36.992,2.018 37.08,1.95 C37.168,1.882 37.26,1.826 37.356,1.782 C37.452,1.738 37.551,1.706 37.653,1.686 C37.755,1.666 37.852,1.656 37.944,1.656 C38.164,1.656 38.365,1.693 38.547,1.767 C38.729,1.841 38.886,1.944 39.018,2.076 C39.15,2.208 39.253,2.364 39.327,2.544 C39.401,2.724 39.438,2.92 39.438,3.132 C39.438,3.344 39.401,3.54 39.327,3.72 C39.253,3.9 39.15,4.056 39.018,4.188 C38.886,4.32 38.729,4.423 38.547,4.497 C38.365,4.571 38.164,4.608 37.944,4.608 C37.852,4.608 37.755,4.598 37.653,4.578 C37.551,4.558 37.452,4.526 37.356,4.482 C37.26,4.438 37.168,4.382 37.08,4.314 C36.992,4.246 36.916,4.164 36.852,4.068 L36.84,4.068 L36.84,6.264 L36.444,6.264 L36.444,1.728 Z" id="Shape"/>
                    <path d="M42.516,3.132 C42.516,2.976 42.491,2.83 42.441,2.694 C42.391,2.558 42.32,2.44 42.228,2.34 C42.136,2.24 42.025,2.161 41.895,2.103 C41.765,2.045 41.618,2.016 41.454,2.016 C41.29,2.016 41.143,2.045 41.013,2.103 C40.883,2.161 40.773,2.24 40.683,2.34 C40.593,2.44 40.523,2.558 40.473,2.694 C40.423,2.83 40.398,2.976 40.398,3.132 C40.398,3.288 40.423,3.434 40.473,3.57 C40.523,3.706 40.593,3.824 40.683,3.924 C40.773,4.024 40.883,4.103 41.013,4.161 C41.143,4.219 41.29,4.248 41.454,4.248 C41.618,4.248 41.765,4.219 41.895,4.161 C42.025,4.103 42.136,4.024 42.228,3.924 C42.32,3.824 42.391,3.706 42.441,3.57 C42.491,3.434 42.516,3.288 42.516,3.132 Z M42.948,3.132 C42.948,3.344 42.911,3.54 42.837,3.72 C42.763,3.9 42.66,4.056 42.528,4.188 C42.396,4.32 42.239,4.423 42.057,4.497 C41.875,4.571 41.674,4.608 41.454,4.608 C41.238,4.608 41.039,4.571 40.857,4.497 C40.675,4.423 40.518,4.32 40.386,4.188 C40.254,4.056 40.151,3.9 40.077,3.72 C40.003,3.54 39.966,3.344 39.966,3.132 C39.966,2.92 40.003,2.724 40.077,2.544 C40.151,2.364 40.254,2.208 40.386,2.076 C40.518,1.944 40.675,1.841 40.857,1.767 C41.039,1.693 41.238,1.656 41.454,1.656 C41.674,1.656 41.875,1.693 42.057,1.767 C42.239,1.841 42.396,1.944 42.528,2.076 C42.66,2.208 42.763,2.364 42.837,2.544 C42.911,2.724 42.948,2.92 42.948,3.132 Z" id="Shape"/>
                    <path d="M45.156,2.394 C45.096,2.278 45.016,2.186 44.916,2.118 C44.816,2.05 44.694,2.016 44.55,2.016 C44.482,2.016 44.413,2.024 44.343,2.04 C44.273,2.056 44.21,2.081 44.154,2.115 C44.098,2.149 44.053,2.192 44.019,2.244 C43.985,2.296 43.968,2.36 43.968,2.436 C43.968,2.568 44.014,2.664 44.106,2.724 C44.198,2.784 44.336,2.836 44.52,2.88 L44.922,2.976 C45.118,3.02 45.281,3.109 45.411,3.243 C45.541,3.377 45.606,3.544 45.606,3.744 C45.606,3.896 45.575,4.027 45.513,4.137 C45.451,4.247 45.369,4.337 45.267,4.407 C45.165,4.477 45.048,4.528 44.916,4.56 C44.784,4.592 44.65,4.608 44.514,4.608 C44.298,4.608 44.097,4.567 43.911,4.485 C43.725,4.403 43.566,4.262 43.434,4.062 L43.776,3.828 C43.856,3.956 43.957,4.058 44.079,4.134 C44.201,4.21 44.346,4.248 44.514,4.248 C44.594,4.248 44.674,4.239 44.754,4.221 C44.834,4.203 44.905,4.175 44.967,4.137 C45.029,4.099 45.079,4.05 45.117,3.99 C45.155,3.93 45.174,3.86 45.174,3.78 C45.174,3.64 45.122,3.539 45.018,3.477 C44.914,3.415 44.788,3.366 44.64,3.33 L44.256,3.24 C44.208,3.228 44.143,3.208 44.061,3.18 C43.979,3.152 43.899,3.11 43.821,3.054 C43.743,2.998 43.676,2.925 43.62,2.835 C43.564,2.745 43.536,2.634 43.536,2.502 C43.536,2.358 43.565,2.232 43.623,2.124 C43.681,2.016 43.759,1.928 43.857,1.86 C43.955,1.792 44.066,1.741 44.19,1.707 C44.314,1.673 44.442,1.656 44.574,1.656 C44.77,1.656 44.952,1.694 45.12,1.77 C45.288,1.846 45.418,1.976 45.51,2.16 L45.156,2.394 Z" id="Path"/>
                    <path d="M48.408,2.916 C48.408,2.648 48.328,2.431 48.168,2.265 C48.008,2.099 47.784,2.016 47.496,2.016 C47.368,2.016 47.244,2.041 47.124,2.091 C47.004,2.141 46.899,2.208 46.809,2.292 C46.719,2.376 46.647,2.472 46.593,2.58 C46.539,2.688 46.512,2.8 46.512,2.916 L48.408,2.916 Z M46.5,3.24 C46.512,3.38 46.546,3.512 46.602,3.636 C46.658,3.76 46.732,3.867 46.824,3.957 C46.916,4.047 47.022,4.118 47.142,4.17 C47.262,4.222 47.392,4.248 47.532,4.248 C47.744,4.248 47.927,4.199 48.081,4.101 C48.235,4.003 48.352,3.89 48.432,3.762 L48.738,4.014 C48.57,4.226 48.385,4.378 48.183,4.47 C47.981,4.562 47.764,4.608 47.532,4.608 C47.324,4.608 47.131,4.571 46.953,4.497 C46.775,4.423 46.622,4.32 46.494,4.188 C46.366,4.056 46.265,3.9 46.191,3.72 C46.117,3.54 46.08,3.344 46.08,3.132 C46.08,2.92 46.116,2.724 46.188,2.544 C46.26,2.364 46.36,2.208 46.488,2.076 C46.616,1.944 46.766,1.841 46.938,1.767 C47.11,1.693 47.296,1.656 47.496,1.656 C47.708,1.656 47.898,1.694 48.066,1.77 C48.234,1.846 48.375,1.947 48.489,2.073 C48.603,2.199 48.69,2.347 48.75,2.517 C48.81,2.687 48.84,2.868 48.84,3.06 L48.84,3.24 L46.5,3.24 Z" id="Shape"/>
                    <polygon id="Path" points="51.804 4.536 51.372 4.536 51.372 0.288 53.934 0.288 53.934 0.684 51.804 0.684 51.804 2.13 53.784 2.13 53.784 2.526 51.804 2.526"/>
                    <path d="M55.14,0.648 C55.14,0.732 55.11,0.801 55.05,0.855 C54.99,0.909 54.924,0.936 54.852,0.936 C54.78,0.936 54.714,0.909 54.654,0.855 C54.594,0.801 54.564,0.732 54.564,0.648 C54.564,0.564 54.594,0.495 54.654,0.441 C54.714,0.387 54.78,0.36 54.852,0.36 C54.924,0.36 54.99,0.387 55.05,0.441 C55.11,0.495 55.14,0.564 55.14,0.648 Z M55.05,4.536 L54.654,4.536 L54.654,1.728 L55.05,1.728 L55.05,4.536 Z" id="Shape"/>
                    <polygon id="Path" points="56.49 4.536 56.094 4.536 56.094 0 56.49 0"/>
                    <polygon id="Path" points="57.93 4.536 57.534 4.536 57.534 0 57.93 0"/>
                    <path d="M61.068,2.916 C61.068,2.648 60.988,2.431 60.828,2.265 C60.668,2.099 60.444,2.016 60.156,2.016 C60.028,2.016 59.904,2.041 59.784,2.091 C59.664,2.141 59.559,2.208 59.469,2.292 C59.379,2.376 59.307,2.472 59.253,2.58 C59.199,2.688 59.172,2.8 59.172,2.916 L61.068,2.916 Z M59.16,3.24 C59.172,3.38 59.206,3.512 59.262,3.636 C59.318,3.76 59.392,3.867 59.484,3.957 C59.576,4.047 59.682,4.118 59.802,4.17 C59.922,4.222 60.052,4.248 60.192,4.248 C60.404,4.248 60.587,4.199 60.741,4.101 C60.895,4.003 61.012,3.89 61.092,3.762 L61.398,4.014 C61.23,4.226 61.045,4.378 60.843,4.47 C60.641,4.562 60.424,4.608 60.192,4.608 C59.984,4.608 59.791,4.571 59.613,4.497 C59.435,4.423 59.282,4.32 59.154,4.188 C59.026,4.056 58.925,3.9 58.851,3.72 C58.777,3.54 58.74,3.344 58.74,3.132 C58.74,2.92 58.776,2.724 58.848,2.544 C58.92,2.364 59.02,2.208 59.148,2.076 C59.276,1.944 59.426,1.841 59.598,1.767 C59.77,1.693 59.956,1.656 60.156,1.656 C60.368,1.656 60.558,1.694 60.726,1.77 C60.894,1.846 61.035,1.947 61.149,2.073 C61.263,2.199 61.35,2.347 61.41,2.517 C61.47,2.687 61.5,2.868 61.5,3.06 L61.5,3.24 L59.16,3.24 Z" id="Shape"/>
                    <path d="M62.262,2.604 C62.262,2.48 62.259,2.354 62.253,2.226 C62.247,2.098 62.242,1.932 62.238,1.728 L62.628,1.728 L62.628,2.25 L62.64,2.25 C62.668,2.174 62.708,2.101 62.76,2.031 C62.812,1.961 62.875,1.898 62.949,1.842 C63.023,1.786 63.109,1.741 63.207,1.707 C63.305,1.673 63.416,1.656 63.54,1.656 C63.652,1.656 63.75,1.668 63.834,1.692 L63.756,2.082 C63.704,2.062 63.628,2.052 63.528,2.052 C63.376,2.052 63.246,2.081 63.138,2.139 C63.03,2.197 62.94,2.271 62.868,2.361 C62.796,2.451 62.743,2.548 62.709,2.652 C62.675,2.756 62.658,2.856 62.658,2.952 L62.658,4.536 L62.262,4.536 L62.262,2.604 Z" id="Path"/>
                </g>
            </g>
        </g>
    </g>
</svg>
