<?xml version="1.0" encoding="UTF-8"?>
<svg xmlns="http://www.w3.org/2000/svg" xmlns:xlink="http://www.w3.org/1999/xlink" width="109px" height="23px" viewBox="0 0 109 23" version="1.1">
    <title>alloclae logo no tagline</title>
    <defs>
        <polygon id="path-1" points="0 0 3.54489016 0 3.54489016 22.3473718 0 22.3473718"/>
        <polygon id="path-3" points="0 2.78383965e-22 2.94984 2.78383965e-22 2.94984 2.79759584 0 2.79759584"/>
    </defs>
    <g id="Page-1" stroke="none" stroke-width="1" fill="none" fill-rule="evenodd">
        <g id="Group-377">
            <path d="M74.4990963,10.8972981 C74.9731998,9.93678665 75.5785429,9.12145945 76.3167663,8.40374135 C77.493003,7.26031445 78.8948074,6.52619215 80.5090562,6.24730725 C82.1257659,5.96760265 83.7219683,6.06193105 85.2410684,6.75996255 C86.4845653,7.33167645 87.3425442,8.26593965 87.8346916,9.53896565 C87.8617607,9.61032725 87.8896499,9.68250935 87.9191776,9.75305075 C87.9232784,9.76289365 87.942144,9.76535455 87.9897209,9.78996175 C88.0709234,9.67184635 88.1578708,9.55126945 88.2390743,9.42659185 C89.3201624,7.76968905 90.7974325,6.67711825 92.7512616,6.25222915 C93.4714396,6.09556145 94.1998206,6.08407875 94.9273806,6.13165325 C95.8723056,6.19317095 96.7991876,6.37198535 97.6834136,6.73043385 C99.7783266,7.58267255 101.106311,9.12556025 101.751027,11.2664098 C102.087329,12.3860492 102.179196,13.5384982 102.111938,14.7549271 C101.924918,14.7614898 101.745284,14.7721519 101.565652,14.7721519 C97.6383006,14.7737931 93.7109536,14.7729731 89.7836061,14.7737931 C89.603149,14.7737931 89.4226938,14.7877378 89.2209125,14.7951198 C89.2750507,16.0008849 89.544911,17.0754099 90.272471,17.999011 C90.8179365,18.6921225 91.5364726,19.1416187 92.3764046,19.3778501 C93.5017876,19.693646 94.6419306,19.7067685 95.7771556,19.4237843 C96.9607736,19.1284933 97.8187566,18.4197989 98.3650406,17.3337902 C98.4823366,17.100839 98.5930696,16.8654264 98.7300516,16.5816206 C99.7988346,16.9638577 100.855319,17.3411708 101.942147,17.7291489 C101.626348,18.6117373 101.170293,19.3721079 100.582173,20.0520945 C99.4321806,21.3817167 97.9622976,22.1478299 96.2463386,22.4742888 C95.1242396,22.6875515 93.9963996,22.7310256 92.8685556,22.5546741 C90.7178675,22.2175511 89.060145,21.1463051 87.9897209,19.2261033 C87.8994909,19.0636944 87.816649,18.8971843 87.737083,18.7298522 C87.6575199,18.5641618 87.5869785,18.3943705 87.4885479,18.1729039 C87.4327703,18.2582097 87.399962,18.296761 87.3794561,18.3418756 C86.6117035,20.0266665 85.3280149,21.1955233 83.6702934,21.963275 C82.0691686,22.7047786 80.378636,22.9008169 78.631507,22.680992 C77.8891829,22.5874815 77.1649032,22.4365578 76.4849171,22.1183014 C75.5457329,21.6794682 74.8378589,21.0191669 74.5319062,20.0012369 C74.1267036,18.6486473 74.4867926,16.8998776 75.8582475,15.8975334 C76.8154777,15.1986814 77.8842607,14.7696914 79.0186649,14.4908071 C80.4901906,14.1290783 81.9731994,13.8100004 83.4480062,13.458114 C83.8679729,13.3580439 84.284659,13.2292647 84.6874014,13.0750583 C84.9589039,12.9708866 85.2205625,12.8224215 85.4584347,12.6534505 C85.8521534,12.3745657 86.0375305,11.9759249 86.0071798,11.4895174 C85.9317184,10.2952352 85.3575426,9.57259605 84.3092666,9.24121515 C82.8926969,8.79253955 81.4679266,8.81960765 80.0899092,9.43315405 C79.0826436,9.88101005 78.4001973,10.6659879 77.8916434,11.6182965 C77.7825504,11.8217182 77.68166,12.0292407 77.556162,12.2753158 C76.5472561,11.8208983 75.5490141,11.3705816 74.4990963,10.8972981 L74.4990963,10.8972981 Z M98.7727016,13.8083605 C98.7546566,13.2899632 98.7054426,12.81832 98.5914296,12.3557004 C98.2009916,10.7660584 97.2478626,9.69891445 95.6360746,9.29207085 C94.9306606,9.11407705 94.2088396,9.06486175 93.4739006,9.16247175 C92.7250126,9.26172155 92.0237016,9.46678395 91.3888286,9.87772845 C90.0657707,10.7340688 89.486673,12.022679 89.2783314,13.5220941 C89.2668472,13.6082195 89.2848907,13.6984465 89.2906328,13.8083605 L98.7727016,13.8083605 Z M86.0235859,13.3203127 C85.6241251,13.5590041 85.2615743,13.8280467 84.8588329,14.0027598 C84.3937517,14.2045407 83.8991419,14.3456235 83.4061733,14.4719415 C82.4932366,14.7065325 81.5679961,14.8927293 80.6575204,15.1322422 C79.9217583,15.3258205 79.213884,15.5956822 78.6126419,16.0870109 C77.5807689,16.9318675 77.48398,18.8586326 78.9858542,19.5812716 C79.3672691,19.7650064 79.7691918,19.8560557 80.1858779,19.9151119 C82.0412799,20.1808719 83.9721447,19.4262451 85.0392881,17.7562188 C85.9087492,16.3962449 86.1695896,14.9066734 86.0235859,13.3203127 L86.0235859,13.3203127 Z" id="Fill-357" fill="#EDC701" fill-rule="nonzero"/>
            <path d="M40.2526053,22.6604294 C38.7031561,22.6546876 37.453097,22.4594692 36.2686588,21.9566554 C34.4099757,21.1675768 33.070512,19.8445158 32.3314678,17.9661474 C31.4029466,15.6087521 31.3824398,13.2242888 32.3478719,10.8742761 C33.2772142,8.61449075 34.9644634,7.15772775 37.313655,6.48184175 C39.162495,5.95032275 41.0260994,5.96180675 42.8609943,6.51547375 C45.3668536,7.27092375 47.0590278,8.92618575 47.8751737,11.4000557 C48.601092,13.6016035 48.5526973,15.8179149 47.652064,17.974349 C46.6694075,20.3251819 44.883727,21.7581563 42.4254433,22.3774433 C41.6265215,22.5784049 40.8111936,22.6669913 40.2526053,22.6604294 M40.0582065,9.17472075 C39.8720101,9.17472075 39.6849932,9.16159475 39.5004376,9.17636075 C37.8017026,9.31252275 36.4548546,10.0384426 35.7125298,11.612501 C34.8488084,13.4449367 34.8684947,15.3265875 35.6797205,17.172966 C36.2030393,18.3631476 37.1610886,19.087427 38.4193501,19.4171657 C39.3019375,19.6492966 40.1927263,19.6681613 41.0908988,19.5213384 C42.9102093,19.2260484 44.0798837,18.1703882 44.6187874,16.4363831 C45.0264505,15.1231651 45.0198883,13.783699 44.6507768,12.4589957 C44.2882263,11.1564426 43.5286774,10.1598396 42.2728772,9.59058565 C41.5723839,9.27315175 40.8275991,9.14109075 40.0582065,9.17472075" id="Fill-359" fill="#EDC701" fill-rule="nonzero"/>
            <path d="M17.1640233,19.6379873 L17.1640233,22.1741969 C16.8506884,22.3866414 16.4988016,22.447339 16.1510166,22.5170621 C15.3980288,22.6671677 14.6401199,22.68111 13.8887714,22.5326445 C12.6157469,22.2800084 11.8455338,21.4671418 11.6880468,20.1662286 C11.6068424,19.4936239 11.6191448,18.8095378 11.593718,18.1303706 C11.5855154,17.8998793 11.5928978,17.6685695 11.5321993,17.4224958 C11.4805245,17.5373287 11.4280275,17.6521657 11.377993,17.7678202 C10.7603458,19.2007946 9.88021975,20.4377307 8.62113705,21.382656 C7.48509445,22.2357156 6.20304715,22.6999765 4.78155645,22.7172024 C3.91291135,22.7270441 3.05165035,22.6236938 2.23222435,22.2939521 C1.10602335,21.8411757 0.300540353,21.0709614 0.0962953527,19.8602752 C-0.192429647,18.1500563 0.129107353,16.8860516 1.59489035,15.8066048 C2.40447535,15.2102847 3.32069335,14.8296885 4.28694475,14.5868949 C5.74124655,14.2218846 7.20949115,13.9101905 8.66543135,13.5501012 C9.29374065,13.3942546 9.92779385,13.2244625 10.5208334,12.9710054 C11.5576262,12.5288915 11.8102631,11.9194468 11.4780621,10.7440299 C11.2705406,10.0099085 10.729176,9.55385005 10.0327849,9.27168355 C9.26667345,8.96162885 8.46119055,8.93948255 7.65324535,8.97147355 C5.72730195,9.04939645 4.34682215,9.97791755 3.46915735,11.6758337 C3.37072835,11.8653106 3.27475835,12.0556087 3.16238535,12.2754344 C2.13789535,11.8128147 1.14047335,11.3616771 0.115983353,10.8990564 C0.420295353,10.243678 0.805812353,9.66950405 1.25284735,9.13716215 C2.70632835,7.40397825 4.57485135,6.45658865 6.81741275,6.19903175 C8.25120575,6.03416245 9.66613515,6.08665835 11.0523542,6.49513995 C12.4484161,6.90608495 13.5664143,7.69270405 14.2455792,9.00920475 C14.6786722,9.84749875 14.8624071,10.7497719 14.8591255,11.6938772 C14.8533835,13.6608352 14.8533835,15.6277908 14.861586,17.5947474 C14.8624071,17.9802646 14.8902945,18.3682432 14.9411501,18.7504786 C15.0223545,19.3591032 15.3857245,19.6904837 16.0025515,19.7068876 C16.3708433,19.716731 16.7399563,19.6650556 17.1640233,19.6379873 M11.6552366,13.1637649 C11.0638374,13.8617962 10.3001865,14.118534 9.52669175,14.3441009 C9.08211835,14.4737014 8.62605985,14.5622881 8.17328205,14.6639985 C7.17750015,14.8871068 6.17597805,15.0897073 5.23105175,15.4908089 C4.79959995,15.6737241 4.40424095,15.9083161 4.06383835,16.237236 C3.25015235,17.0213928 3.08446235,18.8932024 4.63390865,19.5887725 C4.99399985,19.7503615 5.39592205,19.854533 5.78882065,19.9062085 C7.36451855,20.112912 8.78682745,19.7470804 9.93271575,18.6110359 C11.4280275,17.1272052 11.7930378,15.2636002 11.6552366,13.1637649" id="Fill-361" fill="#EDC701" fill-rule="nonzero"/>
            <path d="M66.4957919,12.4548654 C65.296588,12.7116033 64.194994,12.9478349 63.0663333,13.1889878 C62.9834886,12.857608 62.9178686,12.5434523 62.827641,12.2374998 C62.3920899,10.7692543 61.5111418,9.71359445 59.9789181,9.33874085 C58.4614592,8.96716885 56.9874725,9.08282385 55.6537485,9.97935495 C54.6505861,10.6527792 54.0862551,11.6428195 53.8139324,12.7895268 C53.511261,14.0609123 53.5547333,15.3331185 53.9689598,16.5831779 C54.5784035,18.4221774 56.0925818,19.506546 58.0661001,19.5984136 C58.6550379,19.6254808 59.2439766,19.6197396 59.8238916,19.4753762 C61.4045096,19.0832959 62.3486161,18.0456821 62.8227201,16.5347835 C62.9236107,16.212426 62.9900503,15.8802246 63.0868392,15.4947076 C64.2023773,15.7235564 65.315454,15.9524067 66.4473968,16.1853572 C66.4473968,16.3075744 66.4670825,16.4158469 66.4449358,16.5142768 C65.9175167,18.7921086 64.7732706,20.6278258 62.6398039,21.7384416 C61.7088232,22.2232104 60.7105808,22.4774858 59.6672249,22.589861 C58.228509,22.7440663 56.8185024,22.6472789 55.4421263,22.1994209 C52.9534911,21.3890172 51.3531871,19.7025853 50.6166061,17.2123098 C50.0539151,15.310972 50.0366901,13.3850277 50.6732011,11.5033775 C51.6304321,8.67679985 53.6162548,6.94689565 56.5355158,6.31530385 C58.0743027,5.98228265 59.6237507,6.02247435 61.143672,6.42767815 C63.7012057,7.11012555 65.3466234,8.76620675 66.1676927,11.2581228 C66.2915492,11.633797 66.3784962,12.0225944 66.4957919,12.4548654" id="Fill-363" fill="#EDC701" fill-rule="nonzero"/>
            <path d="M29.2400693,22.3621955 L25.7294063,22.3621955 C25.6424603,22.0242534 25.6080103,0.86839625 25.6941361,0.01615925 L29.2105404,0.01615925 C29.2933856,0.33770025 29.3278361,21.4951916 29.2400693,22.3621955" id="Fill-365" fill="#EDC701" fill-rule="nonzero"/>
            <path d="M72.1850705,22.3624994 L68.6752287,22.3624994 C68.592383,22.0196371 68.5628544,0.75468875 68.6448789,0.01482375 L72.1604633,0.01482375 C72.2392069,0.34128375 72.2687358,21.607051 72.1850705,22.3624994" id="Fill-367" fill="#EDC701" fill-rule="nonzero"/>
            <g id="Fill-369-Clipped" transform="translate(19.2208, 0)">
                <mask id="mask-2" fill="white">
                    <use xlink:href="#path-1"/>
                </mask>
                <g id="path-1"/>
                <path d="M0.0499083401,-0.000305175783 L3.46624264,-0.000305175783 C3.54908754,0.343379054 3.57779654,21.6181738 3.49659184,22.3473718 L0.0745157871,22.3473718 C-0.00422804866,22.0192718 -0.0329367457,0.742019954 0.0499083401,-0.000305175783" id="Fill-369" fill="#EDC701" fill-rule="nonzero" mask="url(#mask-2)"/>
            </g>
            <g id="Fill-372-Clipped" transform="translate(105.7868, 6.4462)">
                <mask id="mask-4" fill="white">
                    <use xlink:href="#path-3"/>
                </mask>
                <g id="path-3"/>
                <path d="M1.44117645,1.96285493 C1.73892667,1.24103613 1.9923833,0.6283103 2.25158176,2.78383965e-22 L2.85118321,2.78383965e-22 C2.95453456,0.3125143 2.98570421,1.93742717 2.902859,2.74291123 C2.84051994,2.76013661 2.77079895,2.78802521 2.69861707,2.79540719 C2.62397453,2.80278958 2.54687122,2.78966553 2.41891262,2.78310366 C2.35739377,2.26060521 2.41891262,1.73728664 2.37789992,1.15162904 C2.29423472,1.25990183 2.23189566,1.31567867 2.20072642,1.38539989 C2.03011468,1.76599522 1.86524493,2.14987172 1.70119523,2.53374806 C1.63885618,2.67975218 1.58718063,2.83231861 1.32059997,2.77572132 C1.03023192,2.31392144 0.88258728,1.73974736 0.57991555,1.18361873 C0.47984532,1.36407335 0.52085784,1.52648271 0.51511625,1.67822869 C0.50773385,1.86360485 0.51347545,2.04980121 0.51347545,2.23517741 C0.51347545,2.40250834 0.51347545,2.56901884 0.51347545,2.76669891 L0,2.76669891 L0,0.0073819 L0.62666991,0.0073819 C0.88258728,0.6217483 1.14260605,1.24595756 1.44117645,1.96285493" id="Fill-372" fill="#EDC701" fill-rule="nonzero" mask="url(#mask-4)"/>
            </g>
            <path d="M104.388496,9.22256459 L103.830727,9.22256459 L103.830727,6.9439132 C103.542,6.9299691 103.286903,6.9184856 103.004737,6.9053617 C102.994894,6.7527955 102.986692,6.6215558 102.978489,6.493597 C103.339398,6.4074705 104.63211,6.3935268 105.198081,6.468169 C105.205464,6.5928469 105.212846,6.724087 105.222689,6.889777 C104.938883,6.9111035 104.683786,6.9299691 104.388496,6.9512956 L104.388496,9.22256459 Z" id="Fill-375" fill="#EDC701" fill-rule="nonzero"/>
        </g>
    </g>
</svg>
