<?xml version="1.0" encoding="UTF-8"?>
<svg xmlns="http://www.w3.org/2000/svg" xmlns:xlink="http://www.w3.org/1999/xlink" width="171px" height="32px" viewBox="0 0 171 32" version="1.1">
    <title>dermaspan_logo_white_outlines</title>
    <g id="Page-1" stroke="none" stroke-width="1" fill="none" fill-rule="evenodd">
        <g id="dermaspan_logo_white_outlines" fill="#55575A" fill-rule="nonzero">
            <g id="™" transform="translate(162.688, 0.3744)">
                <path d="M7.704,3.708 L7.164,3.708 L7.164,0.594 L7.146,0.594 L5.895,3.708 L5.544,3.708 L4.293,0.594 L4.275,0.594 L4.275,3.708 L3.735,3.708 L3.735,0 L4.572,0 L5.733,2.844 L6.894,0 L7.704,0 L7.704,3.708 Z M2.961,0.486 L1.764,0.486 L1.764,3.708 L1.224,3.708 L1.224,0.486 L0,0.486 L0,0 L2.961,0 L2.961,0.486 Z" id="Shape"/>
            </g>
            <g id="Dermaspan" transform="translate(0, -0)">
                <path d="M6.752,22.432 C7.11466667,22.4746667 7.536,22.5066667 8.016,22.528 C8.496,22.5493333 9.024,22.56 9.6,22.56 C10.3253333,22.56 11.0453333,22.5226667 11.76,22.448 C12.4746667,22.3733333 13.1573333,22.2133333 13.808,21.968 C14.4586667,21.7226667 15.0666667,21.3706667 15.632,20.912 C16.1973333,20.4533333 16.704,19.8506667 17.152,19.104 C17.8346667,17.952 18.3093333,16.7733333 18.576,15.568 C18.8426667,14.3626667 18.976,13.0453333 18.976,11.616 C18.976,9.93066667 18.816,8.4 18.496,7.024 C18.176,5.648 17.648,4.47466667 16.912,3.504 C16.176,2.53333333 15.2,1.78133333 13.984,1.248 C12.768,0.714666667 11.264,0.448 9.472,0.448 C8.93866667,0.448 8.45333333,0.458666667 8.016,0.48 C7.57866667,0.501333333 7.15733333,0.522666667 6.752,0.544 L6.752,22.432 Z M-3.04040088e-23,22.432 L3.552,22.432 L3.552,0.544 L-3.04040088e-23,0.544 L-3.04040088e-23,0.096 L5.952,0.096 C6.25066667,0.096 6.54933333,0.0906666667 6.848,0.08 C7.14666667,0.0693333333 7.44533333,0.0533333333 7.744,0.032 C8.04266667,0.032 8.34133333,0.0266666667 8.64,0.016 C8.93866667,0.00533333333 9.23733333,0 9.536,0 C10.176,0 10.7466667,0.0106666667 11.248,0.032 C11.7493333,0.0533333333 12.2186667,0.0906666667 12.656,0.144 C13.0933333,0.197333333 13.5093333,0.272 13.904,0.368 C14.2986667,0.464 14.72,0.586666667 15.168,0.736 C16.4693333,1.16266667 17.5946667,1.73333333 18.544,2.448 C19.4933333,3.16266667 20.272,3.98933333 20.88,4.928 C21.488,5.86666667 21.936,6.89066667 22.224,8 C22.512,9.10933333 22.656,10.272 22.656,11.488 C22.656,12.896 22.4853333,14.16 22.144,15.28 C21.8026667,16.4 21.3333333,17.392 20.736,18.256 C20.1386667,19.12 19.44,19.8666667 18.64,20.496 C17.84,21.1253333 16.9813333,21.632 16.064,22.016 C15.552,22.2506667 15.0666667,22.432 14.608,22.56 C14.1493333,22.688 13.68,22.784 13.2,22.848 C12.72,22.912 12.192,22.9546667 11.616,22.976 C11.04,22.9973333 10.3786667,23.008 9.632,23.008 C9.312,23.008 8.97066667,23.0026667 8.608,22.992 C8.24533333,22.9813333 7.88266667,22.9653333 7.52,22.944 C7.15733333,22.9226667 6.8,22.9066667 6.448,22.896 C6.096,22.8853333 5.76,22.88 5.44,22.88 L-3.04040088e-23,22.88 L-3.04040088e-23,22.432 Z" id="Shape"/>
                <path d="M36.384,14.496 C36.4266667,14.1973333 36.448,13.92 36.448,13.664 C36.448,13.408 36.448,13.1413333 36.448,12.864 C36.448,12.1386667 36.3786667,11.5413333 36.24,11.072 C36.1013333,10.6026667 35.9093333,10.2293333 35.664,9.952 C35.4186667,9.67466667 35.12,9.47733333 34.768,9.36 C34.416,9.24266667 34.0373333,9.184 33.632,9.184 C32.9066667,9.184 32.3093333,9.328 31.84,9.616 C31.3706667,9.904 30.9973333,10.2933333 30.72,10.784 C30.4426667,11.2746667 30.2346667,11.84 30.096,12.48 C29.9573333,13.12 29.8666667,13.792 29.824,14.496 L36.384,14.496 Z M29.792,14.944 C29.792,15.1573333 29.7866667,15.376 29.776,15.6 C29.7653333,15.824 29.76,16.1066667 29.76,16.448 C29.76,17.152 29.8026667,17.888 29.888,18.656 C29.9733333,19.424 30.16,20.1173333 30.448,20.736 C30.736,21.3546667 31.1626667,21.8666667 31.728,22.272 C32.2933333,22.6773333 33.0453333,22.88 33.984,22.88 C34.9226667,22.88 35.696,22.7413333 36.304,22.464 C36.912,22.1866667 37.392,21.8506667 37.744,21.456 C38.096,21.0613333 38.3573333,20.6613333 38.528,20.256 C38.6986667,19.8506667 38.8266667,19.52 38.912,19.264 L39.392,19.36 C39.328,19.5946667 39.2053333,19.9306667 39.024,20.368 C38.8426667,20.8053333 38.5546667,21.2426667 38.16,21.68 C37.7653333,22.1173333 37.232,22.5013333 36.56,22.832 C35.888,23.1626667 35.0186667,23.328 33.952,23.328 C32.8853333,23.328 31.8986667,23.1573333 30.992,22.816 C30.0853333,22.4746667 29.3013333,21.984 28.64,21.344 C27.9786667,20.704 27.4666667,19.9413333 27.104,19.056 C26.7413333,18.1706667 26.56,17.184 26.56,16.096 C26.56,15.1573333 26.7466667,14.2453333 27.12,13.36 C27.4933333,12.4746667 28.0053333,11.6906667 28.656,11.008 C29.3066667,10.3253333 30.0693333,9.776 30.944,9.36 C31.8186667,8.944 32.7573333,8.736 33.76,8.736 C34.3573333,8.736 34.9973333,8.84266667 35.68,9.056 C36.3626667,9.26933333 36.9973333,9.616 37.584,10.096 C38.1706667,10.576 38.6613333,11.2106667 39.056,12 C39.4506667,12.7893333 39.648,13.7706667 39.648,14.944 L29.792,14.944 Z" id="Shape"/>
                <path d="M41.984,22.432 L44.448,22.432 L44.448,9.6 L41.984,9.6 L41.984,9.152 L47.136,9.152 L47.136,12.384 L47.2,12.384 C47.2853333,12.064 47.424,11.7013333 47.616,11.296 C47.808,10.8906667 48.0746667,10.5013333 48.416,10.128 C48.7573333,9.75466667 49.168,9.44 49.648,9.184 C50.128,8.928 50.7093333,8.8 51.392,8.8 C51.8826667,8.8 52.3093333,8.88 52.672,9.04 C53.0346667,9.2 53.3333333,9.40266667 53.568,9.648 C53.8026667,9.89333333 53.9733333,10.176 54.08,10.496 C54.1866667,10.816 54.24,11.136 54.24,11.456 C54.24,12.16 54.08,12.6293333 53.76,12.864 C53.44,13.0986667 53.0666667,13.216 52.64,13.216 C51.7013333,13.216 51.232,12.9173333 51.232,12.32 C51.232,12.128 51.2533333,11.9733333 51.296,11.856 C51.3386667,11.7386667 51.3866667,11.6213333 51.44,11.504 C51.4933333,11.3866667 51.5413333,11.2533333 51.584,11.104 C51.6266667,10.9546667 51.648,10.7413333 51.648,10.464 C51.648,9.78133333 51.2746667,9.44 50.528,9.44 C50.1866667,9.44 49.824,9.568 49.44,9.824 C49.056,10.08 48.6986667,10.4533333 48.368,10.944 C48.0373333,11.4346667 47.76,12.0266667 47.536,12.72 C47.312,13.4133333 47.2,14.208 47.2,15.104 L47.2,22.432 L49.984,22.432 L49.984,22.88 L41.984,22.88 L41.984,22.432 Z" id="Path"/>
                <path d="M54.784,22.432 L57.248,22.432 L57.248,9.6 L54.784,9.6 L54.784,9.152 L59.936,9.152 L59.936,12.512 L60,12.512 C60.448,11.232 61.0933333,10.2933333 61.936,9.696 C62.7786667,9.09866667 63.7973333,8.8 64.992,8.8 C66.0586667,8.8 67.0026667,9.03466667 67.824,9.504 C68.6453333,9.97333333 69.184,10.752 69.44,11.84 L69.504,11.84 C69.6533333,11.456 69.856,11.0826667 70.112,10.72 C70.368,10.3573333 70.688,10.032 71.072,9.744 C71.456,9.456 71.9093333,9.22666667 72.432,9.056 C72.9546667,8.88533333 73.5466667,8.8 74.208,8.8 C77.3226667,8.8 78.88,10.3893333 78.88,13.568 L78.88,22.432 L81.344,22.432 L81.344,22.88 L73.664,22.88 L73.664,22.432 L76.128,22.432 L76.128,11.552 C76.128,10.8266667 75.9306667,10.2613333 75.536,9.856 C75.1413333,9.45066667 74.6026667,9.248 73.92,9.248 C73.3866667,9.248 72.8533333,9.34933333 72.32,9.552 C71.7866667,9.75466667 71.3066667,10.0586667 70.88,10.464 C70.4533333,10.8693333 70.1066667,11.392 69.84,12.032 C69.5733333,12.672 69.44,13.4186667 69.44,14.272 L69.44,22.432 L71.904,22.432 L71.904,22.88 L64.224,22.88 L64.224,22.432 L66.688,22.432 L66.688,12 C66.688,11.0613333 66.496,10.368 66.112,9.92 C65.728,9.472 65.216,9.248 64.576,9.248 C64.128,9.248 63.6373333,9.36 63.104,9.584 C62.5706667,9.808 62.0746667,10.16 61.616,10.64 C61.1573333,11.12 60.7733333,11.744 60.464,12.512 C60.1546667,13.28 60,14.2186667 60,15.328 L60,22.432 L62.464,22.432 L62.464,22.88 L54.784,22.88 L54.784,22.432 Z" id="Path"/>
                <path d="M91.68,15.04 L91.616,15.04 C91.5733333,15.3173333 91.2213333,15.5946667 90.56,15.872 L88.16,16.832 C87.4773333,17.1093333 86.9546667,17.4986667 86.592,18 C86.2293333,18.5013333 86.048,19.1253333 86.048,19.872 C86.048,20.192 86.08,20.5226667 86.144,20.864 C86.208,21.2053333 86.3253333,21.5093333 86.496,21.776 C86.6666667,22.0426667 86.9066667,22.2613333 87.216,22.432 C87.5253333,22.6026667 87.9253333,22.688 88.416,22.688 C89.12,22.688 89.6906667,22.5386667 90.128,22.24 C90.5653333,21.9413333 90.896,21.568 91.12,21.12 C91.344,20.672 91.4933333,20.1866667 91.568,19.664 C91.6426667,19.1413333 91.68,18.6666667 91.68,18.24 L91.68,15.04 Z M97.28,22.528 C97.0026667,22.7413333 96.672,22.928 96.288,23.088 C95.904,23.248 95.4346667,23.328 94.88,23.328 C93.856,23.328 93.1146667,23.1093333 92.656,22.672 C92.1973333,22.2346667 91.8826667,21.6213333 91.712,20.832 L91.648,20.832 C91.5626667,21.024 91.4453333,21.264 91.296,21.552 C91.1466667,21.84 90.9173333,22.1173333 90.608,22.384 C90.2986667,22.6506667 89.888,22.8746667 89.376,23.056 C88.864,23.2373333 88.2133333,23.328 87.424,23.328 C86.528,23.328 85.8133333,23.2266667 85.28,23.024 C84.7466667,22.8213333 84.3306667,22.5706667 84.032,22.272 C83.7333333,21.9733333 83.536,21.6373333 83.44,21.264 C83.344,20.8906667 83.296,20.544 83.296,20.224 C83.296,19.4773333 83.4453333,18.88 83.744,18.432 C84.0426667,17.984 84.432,17.6266667 84.912,17.36 C85.392,17.0933333 85.9253333,16.8746667 86.512,16.704 C87.0986667,16.5333333 87.6906667,16.352 88.288,16.16 C88.992,15.9253333 89.5733333,15.7226667 90.032,15.552 C90.4906667,15.3813333 90.848,15.1733333 91.104,14.928 C91.36,14.6826667 91.536,14.3733333 91.632,14 C91.728,13.6266667 91.776,13.12 91.776,12.48 C91.776,11.968 91.744,11.5093333 91.68,11.104 C91.616,10.6986667 91.4986667,10.352 91.328,10.064 C91.1573333,9.776 90.912,9.55733333 90.592,9.408 C90.272,9.25866667 89.8453333,9.184 89.312,9.184 C88.608,9.184 88.0266667,9.30666667 87.568,9.552 C87.1093333,9.79733333 86.88,10.1973333 86.88,10.752 C86.88,11.1146667 86.912,11.472 86.976,11.824 C87.04,12.176 87.072,12.4373333 87.072,12.608 C87.072,12.9066667 86.9653333,13.1573333 86.752,13.36 C86.5386667,13.5626667 86.2293333,13.664 85.824,13.664 C85.12,13.664 84.6826667,13.536 84.512,13.28 C84.3413333,13.024 84.256,12.6933333 84.256,12.288 C84.256,11.8186667 84.3626667,11.3706667 84.576,10.944 C84.7893333,10.5173333 85.104,10.1386667 85.52,9.808 C85.936,9.47733333 86.4586667,9.216 87.088,9.024 C87.7173333,8.832 88.4373333,8.736 89.248,8.736 C90.2293333,8.736 91.0506667,8.85866667 91.712,9.104 C92.3733333,9.34933333 92.9066667,9.68 93.312,10.096 C93.7173333,10.512 94.0053333,10.9813333 94.176,11.504 C94.3466667,12.0266667 94.432,12.576 94.432,13.152 L94.432,21.12 C94.432,21.7386667 94.528,22.1546667 94.72,22.368 C94.912,22.5813333 95.1893333,22.688 95.552,22.688 C95.7866667,22.688 96.032,22.6453333 96.288,22.56 C96.544,22.4746667 96.7893333,22.3466667 97.024,22.176 L97.28,22.528 Z" id="Shape"/>
                <path d="M99.168,18.4 L99.52,18.4 C99.6693333,18.912 99.8613333,19.4293333 100.096,19.952 C100.330667,20.4746667 100.645333,20.9546667 101.04,21.392 C101.434667,21.8293333 101.92,22.1866667 102.496,22.464 C103.072,22.7413333 103.765333,22.88 104.576,22.88 C105.258667,22.88 105.866667,22.672 106.4,22.256 C106.933333,21.84 107.2,21.1626667 107.2,20.224 C107.2,19.4133333 106.992,18.8426667 106.576,18.512 C106.16,18.1813333 105.674667,17.92 105.12,17.728 L102.624,16.864 C102.304,16.7573333 101.957333,16.624 101.584,16.464 C101.210667,16.304 100.864,16.08 100.544,15.792 C100.224,15.504 99.9626667,15.136 99.76,14.688 C99.5573333,14.24 99.456,13.664 99.456,12.96 C99.456,12.3626667 99.5733333,11.808 99.808,11.296 C100.042667,10.784 100.362667,10.336 100.768,9.952 C101.173333,9.568 101.658667,9.26933333 102.224,9.056 C102.789333,8.84266667 103.402667,8.736 104.064,8.736 C104.533333,8.736 104.912,8.77333333 105.2,8.848 C105.488,8.92266667 105.738667,8.99733333 105.952,9.072 C106.165333,9.14666667 106.357333,9.22133333 106.528,9.296 C106.698667,9.37066667 106.901333,9.408 107.136,9.408 C107.370667,9.408 107.541333,9.32266667 107.648,9.152 L108,9.152 L108,12.8 L107.648,12.8 C107.498667,12.3306667 107.328,11.8773333 107.136,11.44 C106.944,11.0026667 106.714667,10.6133333 106.448,10.272 C106.181333,9.93066667 105.850667,9.664 105.456,9.472 C105.061333,9.28 104.597333,9.184 104.064,9.184 C103.04,9.184 102.245333,9.41333333 101.68,9.872 C101.114667,10.3306667 100.832,10.944 100.832,11.712 C100.832,12.3946667 101.072,12.912 101.552,13.264 C102.032,13.616 102.741333,13.9413333 103.68,14.24 L106.016,15.008 C107.018667,15.3493333 107.84,15.8186667 108.48,16.416 C109.12,17.0133333 109.44,17.8026667 109.44,18.784 C109.44,19.36 109.328,19.9253333 109.104,20.48 C108.88,21.0346667 108.549333,21.52 108.112,21.936 C107.674667,22.352 107.141333,22.688 106.512,22.944 C105.882667,23.2 105.162667,23.328 104.352,23.328 C103.882667,23.328 103.450667,23.28 103.056,23.184 C102.661333,23.088 102.298667,22.9866667 101.968,22.88 C101.637333,22.7733333 101.333333,22.672 101.056,22.576 C100.778667,22.48 100.522667,22.432 100.288,22.432 C100.053333,22.432 99.8826667,22.48 99.776,22.576 C99.6693333,22.672 99.584,22.7733333 99.52,22.88 L99.168,22.88 L99.168,18.4 Z" id="Path"/>
                <path d="M125.12,15.552 C125.12,14.5706667 125.066667,13.6906667 124.96,12.912 C124.853333,12.1333333 124.666667,11.4666667 124.4,10.912 C124.133333,10.3573333 123.76,9.93066667 123.28,9.632 C122.8,9.33333333 122.186667,9.184 121.44,9.184 C120.650667,9.184 120,9.32266667 119.488,9.6 C118.976,9.87733333 118.56,10.2293333 118.24,10.656 C118.005333,10.9546667 117.818667,11.2746667 117.68,11.616 C117.541333,11.9573333 117.429333,12.3626667 117.344,12.832 C117.258667,13.3013333 117.2,13.84 117.168,14.448 C117.136,15.056 117.12,15.776 117.12,16.608 C117.12,17.312 117.173333,18.0373333 117.28,18.784 C117.386667,19.5306667 117.589333,20.208 117.888,20.816 C118.186667,21.424 118.608,21.92 119.152,22.304 C119.696,22.688 120.416,22.88 121.312,22.88 C122.186667,22.88 122.88,22.7093333 123.392,22.368 C123.904,22.0266667 124.288,21.536 124.544,20.896 C124.8,20.256 124.96,19.4826667 125.024,18.576 C125.088,17.6693333 125.12,16.6613333 125.12,15.552 Z M111.904,31.392 L114.368,31.392 L114.368,9.6 L111.904,9.6 L111.904,9.152 L117.056,9.152 L117.056,11.84 L117.12,11.84 C117.44,10.944 117.968,10.2026667 118.704,9.616 C119.44,9.02933333 120.394667,8.736 121.568,8.736 C122.485333,8.736 123.349333,8.93333333 124.16,9.328 C124.970667,9.72266667 125.685333,10.2453333 126.304,10.896 C126.922667,11.5466667 127.413333,12.3093333 127.776,13.184 C128.138667,14.0586667 128.32,14.976 128.32,15.936 C128.32,16.9173333 128.133333,17.8506667 127.76,18.736 C127.386667,19.6213333 126.88,20.4053333 126.24,21.088 C125.6,21.7706667 124.858667,22.3146667 124.016,22.72 C123.173333,23.1253333 122.282667,23.328 121.344,23.328 C120.618667,23.328 120.005333,23.2053333 119.504,22.96 C119.002667,22.7146667 118.592,22.4266667 118.272,22.096 C117.952,21.7653333 117.706667,21.424 117.536,21.072 C117.365333,20.72 117.248,20.4373333 117.184,20.224 L117.12,20.224 L117.12,31.392 L119.584,31.392 L119.584,31.84 L111.904,31.84 L111.904,31.392 Z" id="Shape"/>
                <path d="M139.68,15.04 L139.616,15.04 C139.573333,15.3173333 139.221333,15.5946667 138.56,15.872 L136.16,16.832 C135.477333,17.1093333 134.954667,17.4986667 134.592,18 C134.229333,18.5013333 134.048,19.1253333 134.048,19.872 C134.048,20.192 134.08,20.5226667 134.144,20.864 C134.208,21.2053333 134.325333,21.5093333 134.496,21.776 C134.666667,22.0426667 134.906667,22.2613333 135.216,22.432 C135.525333,22.6026667 135.925333,22.688 136.416,22.688 C137.12,22.688 137.690667,22.5386667 138.128,22.24 C138.565333,21.9413333 138.896,21.568 139.12,21.12 C139.344,20.672 139.493333,20.1866667 139.568,19.664 C139.642667,19.1413333 139.68,18.6666667 139.68,18.24 L139.68,15.04 Z M145.28,22.528 C145.002667,22.7413333 144.672,22.928 144.288,23.088 C143.904,23.248 143.434667,23.328 142.88,23.328 C141.856,23.328 141.114667,23.1093333 140.656,22.672 C140.197333,22.2346667 139.882667,21.6213333 139.712,20.832 L139.648,20.832 C139.562667,21.024 139.445333,21.264 139.296,21.552 C139.146667,21.84 138.917333,22.1173333 138.608,22.384 C138.298667,22.6506667 137.888,22.8746667 137.376,23.056 C136.864,23.2373333 136.213333,23.328 135.424,23.328 C134.528,23.328 133.813333,23.2266667 133.28,23.024 C132.746667,22.8213333 132.330667,22.5706667 132.032,22.272 C131.733333,21.9733333 131.536,21.6373333 131.44,21.264 C131.344,20.8906667 131.296,20.544 131.296,20.224 C131.296,19.4773333 131.445333,18.88 131.744,18.432 C132.042667,17.984 132.432,17.6266667 132.912,17.36 C133.392,17.0933333 133.925333,16.8746667 134.512,16.704 C135.098667,16.5333333 135.690667,16.352 136.288,16.16 C136.992,15.9253333 137.573333,15.7226667 138.032,15.552 C138.490667,15.3813333 138.848,15.1733333 139.104,14.928 C139.36,14.6826667 139.536,14.3733333 139.632,14 C139.728,13.6266667 139.776,13.12 139.776,12.48 C139.776,11.968 139.744,11.5093333 139.68,11.104 C139.616,10.6986667 139.498667,10.352 139.328,10.064 C139.157333,9.776 138.912,9.55733333 138.592,9.408 C138.272,9.25866667 137.845333,9.184 137.312,9.184 C136.608,9.184 136.026667,9.30666667 135.568,9.552 C135.109333,9.79733333 134.88,10.1973333 134.88,10.752 C134.88,11.1146667 134.912,11.472 134.976,11.824 C135.04,12.176 135.072,12.4373333 135.072,12.608 C135.072,12.9066667 134.965333,13.1573333 134.752,13.36 C134.538667,13.5626667 134.229333,13.664 133.824,13.664 C133.12,13.664 132.682667,13.536 132.512,13.28 C132.341333,13.024 132.256,12.6933333 132.256,12.288 C132.256,11.8186667 132.362667,11.3706667 132.576,10.944 C132.789333,10.5173333 133.104,10.1386667 133.52,9.808 C133.936,9.47733333 134.458667,9.216 135.088,9.024 C135.717333,8.832 136.437333,8.736 137.248,8.736 C138.229333,8.736 139.050667,8.85866667 139.712,9.104 C140.373333,9.34933333 140.906667,9.68 141.312,10.096 C141.717333,10.512 142.005333,10.9813333 142.176,11.504 C142.346667,12.0266667 142.432,12.576 142.432,13.152 L142.432,21.12 C142.432,21.7386667 142.528,22.1546667 142.72,22.368 C142.912,22.5813333 143.189333,22.688 143.552,22.688 C143.786667,22.688 144.032,22.6453333 144.288,22.56 C144.544,22.4746667 144.789333,22.3466667 145.024,22.176 L145.28,22.528 Z" id="Shape"/>
                <path d="M146.176,22.432 L148.64,22.432 L148.64,9.6 L146.176,9.6 L146.176,9.152 L151.328,9.152 L151.328,12.576 L151.392,12.576 C151.52,12.2986667 151.706667,11.9466667 151.952,11.52 C152.197333,11.0933333 152.533333,10.6773333 152.96,10.272 C153.386667,9.86666667 153.92,9.52 154.56,9.232 C155.2,8.944 155.978667,8.8 156.896,8.8 C158.304,8.8 159.450667,9.14133333 160.336,9.824 C161.221333,10.5066667 161.664,11.5946667 161.664,13.088 L161.664,22.432 L164.128,22.432 L164.128,22.88 L156.448,22.88 L156.448,22.432 L158.912,22.432 L158.912,12.096 C158.912,11.264 158.714667,10.5813333 158.32,10.048 C157.925333,9.51466667 157.312,9.248 156.48,9.248 C155.797333,9.248 155.146667,9.39733333 154.528,9.696 C153.909333,9.99466667 153.365333,10.4106667 152.896,10.944 C152.426667,11.4773333 152.058667,12.1066667 151.792,12.832 C151.525333,13.5573333 151.392,14.3466667 151.392,15.2 L151.392,22.432 L153.856,22.432 L153.856,22.88 L146.176,22.88 L146.176,22.432 Z" id="Path"/>
            </g>
        </g>
    </g>
</svg>
