<?xml version="1.0" encoding="UTF-8"?>
<svg xmlns="http://www.w3.org/2000/svg" xmlns:xlink="http://www.w3.org/1999/xlink" width="175px" height="21px" viewBox="0 0 175 21" version="1.1">
    <title>tiger guard only - white</title>
    <defs>
        <polygon id="path-1" points="0 0 16.26535 0 16.26535 17.8221435 0 17.8221435"/>
        <polygon id="path-3" points="0 0 16.26538 0 16.26538 17.8221435 0 17.8221435"/>
        <polygon id="path-5" points="0 2.78383965e-22 14.30102 2.78383965e-22 14.30102 17.3910338 0 17.3910338"/>
    </defs>
    <g id="Page-1" stroke="none" stroke-width="1" fill="none" fill-rule="evenodd">
        <g id="tiger-guard-only---white" transform="translate(0, -0)">
            <g id="Fill-414-Clipped" transform="translate(21.4871, 3.1876)">
                <mask id="mask-2" fill="white">
                    <use xlink:href="#path-1"/>
                </mask>
                <g id="path-1"/>
                <path d="M16.26535,16.1933658 C15.163422,16.7682827 14.013588,17.1838994 12.815842,17.4390194 C11.618103,17.6943764 10.396408,17.8222964 9.150757,17.8222964 C7.825089,17.8222964 6.603394,17.6146074 5.485657,17.1994714 C4.367691,16.7843334 3.401588,16.1895321 2.587128,15.4148329 C1.772659,14.6406124 1.137856,13.7020624 0.682716,12.6001375 C0.22757,11.4982145 0,10.268852 0,8.91109058 C0,7.55404787 0.22757,6.32396627 0.682716,5.22204277 C1.137856,4.12011977 1.772659,3.18228677 2.587128,2.40734747 C3.401588,1.63288677 4.367691,1.03808773 5.485657,0.622710595 C6.603394,0.207812525 7.825089,-0.000115625 9.150757,-0.000115625 C10.508034,-0.000115625 11.757759,0.163735591 12.899689,0.490958905 C14.041382,0.818421785 15.043648,1.38136089 15.906021,2.17977617 L13.270989,5.05435917 C12.759789,4.52735207 12.184876,4.12850357 11.546242,3.85661607 C10.907364,3.58520767 10.108948,3.44938327 9.150757,3.44938327 C8.352097,3.44938327 7.629623,3.58520767 6.982842,3.85661607 C6.33606,4.12850357 5.781029,4.50746897 5.317978,4.99447177 C4.854691,5.48171357 4.499443,6.06046267 4.251984,6.73119858 C4.004295,7.40193487 3.880684,8.12872387 3.880684,8.91109058 C3.880684,9.70998547 4.004295,10.4403684 4.251984,11.1029594 C4.499443,11.7660301 4.854691,12.3407076 5.317978,12.827709 C5.781029,13.3149507 6.33606,13.6941564 6.982842,13.9655645 C7.629623,14.2372129 8.352097,14.3727968 9.150757,14.3727968 C9.965225,14.3727968 10.667816,14.2812889 11.258781,14.0973165 C11.849503,13.913822 12.320702,13.7260168 12.672112,13.5343778 L12.672112,10.7795694 L9.629845,10.7795694 L9.629845,7.33006977 L16.26535,7.33006977 L16.26535,16.1933658 Z" id="Fill-414" fill="#FFFFFF" fill-rule="nonzero" mask="url(#mask-2)"/>
            </g>
            <polygon id="Fill-417" fill="#FFFFFF" fill-rule="nonzero" points="41.17778 3.61860496 52.70005 3.61860496 52.70005 7.06786516 44.91473 7.06786516 44.91473 10.2301448 52.26887 10.2301448 52.26887 13.6796439 44.91473 13.6796439 44.91473 17.1289027 53.13125 17.1289027 53.13125 20.5786439 41.17778 20.5786439"/>
            <path d="M56.1253125,3.61868558 L62.6892025,3.61868558 C63.5515725,3.61868558 64.3696425,3.70252768 65.1445725,3.87021158 C65.9190325,4.03789548 66.5976725,4.31744858 67.1807325,4.70863148 C67.7635425,5.10029338 68.2266025,5.62706088 68.5698625,6.28965208 C68.9133925,6.95248298 69.0849125,7.77892568 69.0849125,8.76897928 C69.0849125,9.96672178 68.7734825,10.9848025 68.1506625,11.8232224 C67.5278325,12.6616423 66.6175525,13.1927216 65.4198125,13.4162209 L69.7316725,20.5787218 L65.2521225,20.5787218 L61.7068125,13.7994988 L59.8622725,13.7994988 L59.8622725,20.5787218 L56.1253125,20.5787218 L56.1253125,3.61868558 Z M59.8622725,10.6374581 L62.0661325,10.6374581 C62.4015025,10.6374581 62.7567525,10.62548 63.1323625,10.6015256 C63.5072625,10.5775712 63.8469325,10.5057061 64.1504525,10.3859313 C64.4537025,10.2661574 64.7050025,10.0785916 64.9050125,9.82299258 C65.1045625,9.56763488 65.2044525,9.20831178 65.2044525,8.74502448 C65.2044525,8.31383728 65.1163025,7.97056418 64.9407125,7.71496608 C64.7648725,7.45960738 64.5416225,7.26389628 64.2702125,7.12807248 C63.9985625,6.99248768 63.6869025,6.90050098 63.3357325,6.85259128 C62.9845725,6.80468198 62.6410325,6.78072668 62.3056725,6.78072668 L59.8622725,6.78072668 L59.8622725,10.6374581 Z" id="Fill-419" fill="#FFFFFF" fill-rule="nonzero"/>
            <g id="Fill-421-Clipped" transform="translate(77.8281, 3.1876)">
                <mask id="mask-4" fill="white">
                    <use xlink:href="#path-3"/>
                </mask>
                <g id="path-3"/>
                <path d="M16.26538,16.1933658 C15.16345,16.7682827 14.01361,17.1838994 12.81586,17.4390194 C11.61813,17.6943764 10.39642,17.8222964 9.15079,17.8222964 C7.82513,17.8222964 6.60339,17.6146074 5.48572,17.1994714 C4.3677,16.7843334 3.40161,16.1895321 2.58716,15.4148329 C1.7727,14.6406124 1.13788,13.7020624 0.68274,12.6001375 C0.2276,11.4982145 0,10.268852 0,8.91109058 C0,7.55404787 0.2276,6.32396627 0.68274,5.22204277 C1.13788,4.12011977 1.7727,3.18228677 2.58716,2.40734747 C3.40161,1.63288677 4.3677,1.03808773 5.48572,0.622710595 C6.60339,0.207812525 7.82513,-0.000115625 9.15079,-0.000115625 C10.50806,-0.000115625 11.75778,0.163735591 12.89972,0.490958905 C14.04138,0.818421785 15.04367,1.38136089 15.90607,2.17977617 L13.27099,5.05435917 C12.75983,4.52735207 12.1849,4.12850357 11.54626,3.85661607 C10.90738,3.58520767 10.10898,3.44938327 9.15079,3.44938327 C8.35211,3.44938327 7.62964,3.58520767 6.98288,3.85661607 C6.33609,4.12850357 5.78107,4.50746897 5.31802,4.99447177 C4.85473,5.48171357 4.49948,6.06046267 4.25201,6.73119858 C4.0043,7.40193487 3.88074,8.12872387 3.88074,8.91109058 C3.88074,9.70998547 4.0043,10.4403684 4.25201,11.1029594 C4.49948,11.7660301 4.85473,12.3407076 5.31802,12.827709 C5.78107,13.3149507 6.33609,13.6941564 6.98288,13.9655645 C7.62964,14.2372129 8.35211,14.3727968 9.15079,14.3727968 C9.96527,14.3727968 10.66785,14.2812889 11.25879,14.0973165 C11.84955,13.913822 12.32071,13.7260168 12.67215,13.5343778 L12.67215,10.7795694 L9.62988,10.7795694 L9.62988,7.33006977 L16.26538,7.33006977 L16.26538,16.1933658 Z" id="Fill-421" fill="#FFFFFF" fill-rule="nonzero" mask="url(#mask-4)"/>
            </g>
            <g id="Fill-424-Clipped" transform="translate(97.3754, 3.6187)">
                <mask id="mask-6" fill="white">
                    <use xlink:href="#path-5"/>
                </mask>
                <g id="path-5"/>
                <path d="M14.30102,10.4203619 C14.30102,11.4264654 14.14917,12.3527998 13.84588,13.1991257 C13.54235,14.045689 13.0913,14.7801451 12.49243,15.4029712 C11.89355,16.0255582 11.14691,16.5132802 10.25268,16.8639792 C9.35821,17.2151562 8.32812,17.3912252 7.16247,17.3912252 C5.98059,17.3912252 4.94256,17.2151562 4.04833,16.8639792 C3.15386,16.5132802 2.40747,16.0255582 1.80859,15.4029712 C1.20971,14.7801451 0.75842,14.045689 0.45513,13.1991257 C0.15161,12.3527998 0,11.4264654 0,10.4203619 L0,2.78383965e-22 L3.73693,2.78383965e-22 L3.73693,10.2763933 C3.73693,10.8036398 3.8208,11.2908815 3.98846,11.7378792 C4.15612,12.1851153 4.39166,12.5724653 4.69512,12.8996901 C4.99841,13.2271523 5.36181,13.4827494 5.78509,13.6662449 C6.20813,13.8499788 6.66735,13.9417252 7.16247,13.9417252 C7.6574,13.9417252 8.11254,13.8499788 8.52789,13.6662449 C8.94305,13.4827494 9.30236,13.2271523 9.60589,12.8996901 C9.90911,12.5724653 10.14483,12.1851153 10.31256,11.7378792 C10.48022,11.2908815 10.56408,10.8036398 10.56408,10.2763933 L10.56408,2.78383965e-22 L14.30102,2.78383965e-22 L14.30102,10.4203619 Z" id="Fill-424" fill="#FFFFFF" fill-rule="nonzero" mask="url(#mask-6)"/>
            </g>
            <path d="M120.707333,3.61841821 L123.797243,3.61841821 L131.175353,20.5784552 L126.959533,20.5784552 L125.498293,16.9852269 L118.910702,16.9852269 L117.497373,20.5784552 L113.376893,20.5784552 L120.707333,3.61841821 Z M122.144593,8.55311851 L120.084223,13.8231852 L124.228453,13.8231852 L122.144593,8.55311851 Z" id="Fill-427" fill="#FFFFFF" fill-rule="nonzero"/>
            <path d="M132.876095,3.61868558 L139.439695,3.61868558 C140.302125,3.61868558 141.120415,3.70252768 141.895075,3.87021158 C142.669555,4.03789548 143.348205,4.31744858 143.931275,4.70863148 C144.514095,5.10029338 144.977165,5.62706088 145.320615,6.28965208 C145.663935,6.95248298 145.835685,7.77892568 145.835685,8.76897928 C145.835685,9.96672178 145.524285,10.9848025 144.901425,11.8232224 C144.278625,12.6616423 143.368345,13.1927216 142.170585,13.4162209 L146.482415,20.5787218 L142.002865,20.5787218 L138.457575,13.7994988 L136.613035,13.7994988 L136.613035,20.5787218 L132.876095,20.5787218 L132.876095,3.61868558 Z M136.613035,10.6374581 L138.816895,10.6374581 C139.152275,10.6374581 139.507565,10.62548 139.882865,10.6015256 C140.258055,10.5775712 140.597465,10.5057061 140.900995,10.3859313 C141.204285,10.2661574 141.455745,10.0785916 141.655575,9.82299258 C141.855095,9.56763488 141.954955,9.20831178 141.954955,8.74502448 C141.954955,8.31383728 141.867125,7.97056418 141.691465,7.71496608 C141.515625,7.45960738 141.292175,7.26389628 141.020745,7.12807248 C140.749085,6.99248768 140.437675,6.90050098 140.086485,6.85259128 C139.735105,6.80468198 139.391785,6.78072668 139.056455,6.78072668 L136.613035,6.78072668 L136.613035,10.6374581 Z" id="Fill-429" fill="#FFFFFF" fill-rule="nonzero"/>
            <path d="M148.398605,3.61868558 L154.004015,3.61868558 C155.361315,3.61868558 156.651045,3.77031978 157.872725,4.07358838 C159.094465,4.37733608 160.160445,4.86817098 161.070725,5.54681208 C161.981005,6.22569248 162.703475,7.10818988 163.238575,8.19382358 C163.773545,9.27993708 164.041125,10.5974534 164.041125,12.146374 C164.041125,13.5201848 163.781415,14.729666 163.262555,15.7757743 C162.743515,16.8218825 162.044665,17.7003072 161.166555,18.4108069 C160.288075,19.1213098 159.274095,19.6602938 158.124255,20.0277618 C156.974475,20.3952278 155.768545,20.5784838 154.507065,20.5784838 L148.398605,20.5784838 L148.398605,3.61868558 Z M152.135545,17.1289838 L154.075855,17.1289838 C154.938275,17.1289838 155.740765,17.041548 156.483325,16.8654797 C157.225935,16.6901315 157.868635,16.3983605 158.411725,15.9911282 C158.954515,15.5841353 159.381885,15.0489838 159.693345,14.3863929 C160.004685,13.7238019 160.160445,12.9129298 160.160445,11.9547351 C160.160445,11.1246999 160.004685,10.4019816 159.693345,9.78706048 C159.381885,9.17237928 158.962695,8.66525528 158.435655,8.26568768 C157.908675,7.86684018 157.289715,7.56740408 156.579145,7.36738088 C155.868455,7.16807678 155.121755,7.06794528 154.339405,7.06794528 L152.135545,7.06794528 L152.135545,17.1289838 Z" id="Fill-431" fill="#FFFFFF" fill-rule="nonzero"/>
            <polygon id="Fill-409" fill="#FFFFFF" fill-rule="nonzero" points="0 3.61862123 0 6.92439113 4.838881 6.92439113 4.838881 20.5784198 8.5758381 20.5784198 8.5758381 6.92439113 13.4147196 6.92439113 13.4147196 3.61862123"/>
            <polygon id="Fill-411" fill="#FFFFFF" fill-rule="nonzero" points="15.259025 3.61850083 18.9959833 3.61850083 18.9959833 20.5785398 15.259025 20.5785398"/>
            <g id="™" transform="translate(166.4318, 0)" fill="#FFFFFF" fill-rule="nonzero">
                <path d="M1.071,0.864 L0,0.864 L0,0 L3.114,0 L3.114,0.864 L2.043,0.864 L2.043,3.708 L1.071,3.708 L1.071,0.864 Z M3.906,0 L5.211,0 L6.093,2.412 L6.975,0 L8.28,0 L8.28,3.708 L7.308,3.708 L7.308,1.296 L7.29,1.296 L6.408,3.708 L5.778,3.708 L4.896,1.296 L4.878,1.296 L4.878,3.708 L3.906,3.708 L3.906,0 Z" id="Shape"/>
            </g>
        </g>
    </g>
</svg>
