<?xml version="1.0" encoding="UTF-8"?>
<svg xmlns="http://www.w3.org/2000/svg" xmlns:xlink="http://www.w3.org/1999/xlink" width="175px" height="31px" viewBox="0 0 175 31" version="1.1">
    <title>tiger_guard_implant_delivery_device_logo_outlines</title>
    <defs>
        <polygon id="path-1" points="0 0 16.26535 0 16.26535 17.8221435 0 17.8221435"/>
        <polygon id="path-3" points="0 0 16.26538 0 16.26538 17.8221435 0 17.8221435"/>
        <polygon id="path-5" points="0 2.78383965e-22 14.30102 2.78383965e-22 14.30102 17.3910338 0 17.3910338"/>
    </defs>
    <g id="Page-1" stroke="none" stroke-width="1" fill="none" fill-rule="evenodd">
        <g id="tiger_guard_implant_delivery_device_logo_outlines">
            <g id="Fill-414-Clipped" transform="translate(21.4871, 3.1876)">
                <mask id="mask-2" fill="white">
                    <use xlink:href="#path-1"/>
                </mask>
                <g id="path-1"/>
                <path d="M16.26535,16.1933658 C15.163422,16.7682827 14.013588,17.1838994 12.815842,17.4390194 C11.618103,17.6943764 10.396408,17.8222964 9.150757,17.8222964 C7.825089,17.8222964 6.603394,17.6146074 5.485657,17.1994714 C4.367691,16.7843334 3.401588,16.1895321 2.587128,15.4148329 C1.772659,14.6406124 1.137856,13.7020624 0.682716,12.6001375 C0.22757,11.4982145 0,10.268852 0,8.91109058 C0,7.55404787 0.22757,6.32396627 0.682716,5.22204277 C1.137856,4.12011977 1.772659,3.18228677 2.587128,2.40734747 C3.401588,1.63288677 4.367691,1.03808773 5.485657,0.622710595 C6.603394,0.207812525 7.825089,-0.000115625 9.150757,-0.000115625 C10.508034,-0.000115625 11.757759,0.163735591 12.899689,0.490958905 C14.041382,0.818421785 15.043648,1.38136089 15.906021,2.17977617 L13.270989,5.05435917 C12.759789,4.52735207 12.184876,4.12850357 11.546242,3.85661607 C10.907364,3.58520767 10.108948,3.44938327 9.150757,3.44938327 C8.352097,3.44938327 7.629623,3.58520767 6.982842,3.85661607 C6.33606,4.12850357 5.781029,4.50746897 5.317978,4.99447177 C4.854691,5.48171357 4.499443,6.06046267 4.251984,6.73119858 C4.004295,7.40193487 3.880684,8.12872387 3.880684,8.91109058 C3.880684,9.70998547 4.004295,10.4403684 4.251984,11.1029594 C4.499443,11.7660301 4.854691,12.3407076 5.317978,12.827709 C5.781029,13.3149507 6.33606,13.6941564 6.982842,13.9655645 C7.629623,14.2372129 8.352097,14.3727968 9.150757,14.3727968 C9.965225,14.3727968 10.667816,14.2812889 11.258781,14.0973165 C11.849503,13.913822 12.320702,13.7260168 12.672112,13.5343778 L12.672112,10.7795694 L9.629845,10.7795694 L9.629845,7.33006977 L16.26535,7.33006977 L16.26535,16.1933658 Z" id="Fill-414" fill="#55575A" fill-rule="nonzero" mask="url(#mask-2)"/>
            </g>
            <polygon id="Fill-417" fill="#55575A" fill-rule="nonzero" points="41.17778 3.61860496 52.70005 3.61860496 52.70005 7.06786516 44.91473 7.06786516 44.91473 10.2301448 52.26887 10.2301448 52.26887 13.6796439 44.91473 13.6796439 44.91473 17.1289027 53.13125 17.1289027 53.13125 20.5786439 41.17778 20.5786439"/>
            <path d="M56.1253125,3.61868558 L62.6892025,3.61868558 C63.5515725,3.61868558 64.3696425,3.70252768 65.1445725,3.87021158 C65.9190325,4.03789548 66.5976725,4.31744858 67.1807325,4.70863148 C67.7635425,5.10029338 68.2266025,5.62706088 68.5698625,6.28965208 C68.9133925,6.95248298 69.0849125,7.77892568 69.0849125,8.76897928 C69.0849125,9.96672178 68.7734825,10.9848025 68.1506625,11.8232224 C67.5278325,12.6616423 66.6175525,13.1927216 65.4198125,13.4162209 L69.7316725,20.5787218 L65.2521225,20.5787218 L61.7068125,13.7994988 L59.8622725,13.7994988 L59.8622725,20.5787218 L56.1253125,20.5787218 L56.1253125,3.61868558 Z M59.8622725,10.6374581 L62.0661325,10.6374581 C62.4015025,10.6374581 62.7567525,10.62548 63.1323625,10.6015256 C63.5072625,10.5775712 63.8469325,10.5057061 64.1504525,10.3859313 C64.4537025,10.2661574 64.7050025,10.0785916 64.9050125,9.82299258 C65.1045625,9.56763488 65.2044525,9.20831178 65.2044525,8.74502448 C65.2044525,8.31383728 65.1163025,7.97056418 64.9407125,7.71496608 C64.7648725,7.45960738 64.5416225,7.26389628 64.2702125,7.12807248 C63.9985625,6.99248768 63.6869025,6.90050098 63.3357325,6.85259128 C62.9845725,6.80468198 62.6410325,6.78072668 62.3056725,6.78072668 L59.8622725,6.78072668 L59.8622725,10.6374581 Z" id="Fill-419" fill="#55575A" fill-rule="nonzero"/>
            <g id="Fill-421-Clipped" transform="translate(77.8281, 3.1876)">
                <mask id="mask-4" fill="white">
                    <use xlink:href="#path-3"/>
                </mask>
                <g id="path-3"/>
                <path d="M16.26538,16.1933658 C15.16345,16.7682827 14.01361,17.1838994 12.81586,17.4390194 C11.61813,17.6943764 10.39642,17.8222964 9.15079,17.8222964 C7.82513,17.8222964 6.60339,17.6146074 5.48572,17.1994714 C4.3677,16.7843334 3.40161,16.1895321 2.58716,15.4148329 C1.7727,14.6406124 1.13788,13.7020624 0.68274,12.6001375 C0.2276,11.4982145 0,10.268852 0,8.91109058 C0,7.55404787 0.2276,6.32396627 0.68274,5.22204277 C1.13788,4.12011977 1.7727,3.18228677 2.58716,2.40734747 C3.40161,1.63288677 4.3677,1.03808773 5.48572,0.622710595 C6.60339,0.207812525 7.82513,-0.000115625 9.15079,-0.000115625 C10.50806,-0.000115625 11.75778,0.163735591 12.89972,0.490958905 C14.04138,0.818421785 15.04367,1.38136089 15.90607,2.17977617 L13.27099,5.05435917 C12.75983,4.52735207 12.1849,4.12850357 11.54626,3.85661607 C10.90738,3.58520767 10.10898,3.44938327 9.15079,3.44938327 C8.35211,3.44938327 7.62964,3.58520767 6.98288,3.85661607 C6.33609,4.12850357 5.78107,4.50746897 5.31802,4.99447177 C4.85473,5.48171357 4.49948,6.06046267 4.25201,6.73119858 C4.0043,7.40193487 3.88074,8.12872387 3.88074,8.91109058 C3.88074,9.70998547 4.0043,10.4403684 4.25201,11.1029594 C4.49948,11.7660301 4.85473,12.3407076 5.31802,12.827709 C5.78107,13.3149507 6.33609,13.6941564 6.98288,13.9655645 C7.62964,14.2372129 8.35211,14.3727968 9.15079,14.3727968 C9.96527,14.3727968 10.66785,14.2812889 11.25879,14.0973165 C11.84955,13.913822 12.32071,13.7260168 12.67215,13.5343778 L12.67215,10.7795694 L9.62988,10.7795694 L9.62988,7.33006977 L16.26538,7.33006977 L16.26538,16.1933658 Z" id="Fill-421" fill="#55575A" fill-rule="nonzero" mask="url(#mask-4)"/>
            </g>
            <g id="Fill-424-Clipped" transform="translate(97.3754, 3.6187)">
                <mask id="mask-6" fill="white">
                    <use xlink:href="#path-5"/>
                </mask>
                <g id="path-5"/>
                <path d="M14.30102,10.4203619 C14.30102,11.4264654 14.14917,12.3527998 13.84588,13.1991257 C13.54235,14.045689 13.0913,14.7801451 12.49243,15.4029712 C11.89355,16.0255582 11.14691,16.5132802 10.25268,16.8639792 C9.35821,17.2151562 8.32812,17.3912252 7.16247,17.3912252 C5.98059,17.3912252 4.94256,17.2151562 4.04833,16.8639792 C3.15386,16.5132802 2.40747,16.0255582 1.80859,15.4029712 C1.20971,14.7801451 0.75842,14.045689 0.45513,13.1991257 C0.15161,12.3527998 0,11.4264654 0,10.4203619 L0,2.78383965e-22 L3.73693,2.78383965e-22 L3.73693,10.2763933 C3.73693,10.8036398 3.8208,11.2908815 3.98846,11.7378792 C4.15612,12.1851153 4.39166,12.5724653 4.69512,12.8996901 C4.99841,13.2271523 5.36181,13.4827494 5.78509,13.6662449 C6.20813,13.8499788 6.66735,13.9417252 7.16247,13.9417252 C7.6574,13.9417252 8.11254,13.8499788 8.52789,13.6662449 C8.94305,13.4827494 9.30236,13.2271523 9.60589,12.8996901 C9.90911,12.5724653 10.14483,12.1851153 10.31256,11.7378792 C10.48022,11.2908815 10.56408,10.8036398 10.56408,10.2763933 L10.56408,2.78383965e-22 L14.30102,2.78383965e-22 L14.30102,10.4203619 Z" id="Fill-424" fill="#55575A" fill-rule="nonzero" mask="url(#mask-6)"/>
            </g>
            <path d="M120.707333,3.61841821 L123.797243,3.61841821 L131.175353,20.5784552 L126.959533,20.5784552 L125.498293,16.9852269 L118.910702,16.9852269 L117.497373,20.5784552 L113.376893,20.5784552 L120.707333,3.61841821 Z M122.144593,8.55311851 L120.084223,13.8231852 L124.228453,13.8231852 L122.144593,8.55311851 Z" id="Fill-427" fill="#55575A" fill-rule="nonzero"/>
            <path d="M132.876095,3.61868558 L139.439695,3.61868558 C140.302125,3.61868558 141.120415,3.70252768 141.895075,3.87021158 C142.669555,4.03789548 143.348205,4.31744858 143.931275,4.70863148 C144.514095,5.10029338 144.977165,5.62706088 145.320615,6.28965208 C145.663935,6.95248298 145.835685,7.77892568 145.835685,8.76897928 C145.835685,9.96672178 145.524285,10.9848025 144.901425,11.8232224 C144.278625,12.6616423 143.368345,13.1927216 142.170585,13.4162209 L146.482415,20.5787218 L142.002865,20.5787218 L138.457575,13.7994988 L136.613035,13.7994988 L136.613035,20.5787218 L132.876095,20.5787218 L132.876095,3.61868558 Z M136.613035,10.6374581 L138.816895,10.6374581 C139.152275,10.6374581 139.507565,10.62548 139.882865,10.6015256 C140.258055,10.5775712 140.597465,10.5057061 140.900995,10.3859313 C141.204285,10.2661574 141.455745,10.0785916 141.655575,9.82299258 C141.855095,9.56763488 141.954955,9.20831178 141.954955,8.74502448 C141.954955,8.31383728 141.867125,7.97056418 141.691465,7.71496608 C141.515625,7.45960738 141.292175,7.26389628 141.020745,7.12807248 C140.749085,6.99248768 140.437675,6.90050098 140.086485,6.85259128 C139.735105,6.80468198 139.391785,6.78072668 139.056455,6.78072668 L136.613035,6.78072668 L136.613035,10.6374581 Z" id="Fill-429" fill="#55575A" fill-rule="nonzero"/>
            <path d="M148.398605,3.61868558 L154.004015,3.61868558 C155.361315,3.61868558 156.651045,3.77031978 157.872725,4.07358838 C159.094465,4.37733608 160.160445,4.86817098 161.070725,5.54681208 C161.981005,6.22569248 162.703475,7.10818988 163.238575,8.19382358 C163.773545,9.27993708 164.041125,10.5974534 164.041125,12.146374 C164.041125,13.5201848 163.781415,14.729666 163.262555,15.7757743 C162.743515,16.8218825 162.044665,17.7003072 161.166555,18.4108069 C160.288075,19.1213098 159.274095,19.6602938 158.124255,20.0277618 C156.974475,20.3952278 155.768545,20.5784838 154.507065,20.5784838 L148.398605,20.5784838 L148.398605,3.61868558 Z M152.135545,17.1289838 L154.075855,17.1289838 C154.938275,17.1289838 155.740765,17.041548 156.483325,16.8654797 C157.225935,16.6901315 157.868635,16.3983605 158.411725,15.9911282 C158.954515,15.5841353 159.381885,15.0489838 159.693345,14.3863929 C160.004685,13.7238019 160.160445,12.9129298 160.160445,11.9547351 C160.160445,11.1246999 160.004685,10.4019816 159.693345,9.78706048 C159.381885,9.17237928 158.962695,8.66525528 158.435655,8.26568768 C157.908675,7.86684018 157.289715,7.56740408 156.579145,7.36738088 C155.868455,7.16807678 155.121755,7.06794528 154.339405,7.06794528 L152.135545,7.06794528 L152.135545,17.1289838 Z" id="Fill-431" fill="#55575A" fill-rule="nonzero"/>
            <polygon id="Fill-409" fill="#55575A" fill-rule="nonzero" points="0 3.61862123 0 6.92439113 4.838881 6.92439113 4.838881 20.5784198 8.5758381 20.5784198 8.5758381 6.92439113 13.4147196 6.92439113 13.4147196 3.61862123"/>
            <polygon id="Fill-411" fill="#55575A" fill-rule="nonzero" points="15.259025 3.61850083 18.9959833 3.61850083 18.9959833 20.5785398 15.259025 20.5785398"/>
            <g id="™" transform="translate(166.4318, 0)" fill="#55575A" fill-rule="nonzero">
                <path d="M1.071,0.864 L0,0.864 L0,0 L3.114,0 L3.114,0.864 L2.043,0.864 L2.043,3.708 L1.071,3.708 L1.071,0.864 Z M3.906,0 L5.211,0 L6.093,2.412 L6.975,0 L8.28,0 L8.28,3.708 L7.308,3.708 L7.308,1.296 L7.29,1.296 L6.408,3.708 L5.778,3.708 L4.896,1.296 L4.878,1.296 L4.878,3.708 L3.906,3.708 L3.906,0 Z" id="Shape"/>
            </g>
            <g id="Implant-Delivery-Dev" transform="translate(88.9958, 23.178)" fill="#55575A" fill-rule="nonzero">
                <polygon id="Path" points="0.752 5.292 0.248 5.292 0.248 0.336 0.752 0.336"/>
                <path d="M1.928,2.744 C1.928,2.62266667 1.9245,2.50133333 1.9175,2.38 C1.9105,2.25866667 1.90233333,2.13733333 1.893,2.016 L2.39,2.016 L2.39,2.513 L2.404,2.513 C2.516,2.32166667 2.67116667,2.177 2.8695,2.079 C3.06783333,1.981 3.265,1.932 3.461,1.932 C3.54966667,1.932 3.64416667,1.94133333 3.7445,1.96 C3.84483333,1.97866667 3.94166667,2.0125 4.035,2.0615 C4.12833333,2.1105 4.21583333,2.17933333 4.2975,2.268 C4.37916667,2.35666667 4.448,2.471 4.504,2.611 C4.59733333,2.401 4.7455,2.23533333 4.9485,2.114 C5.1515,1.99266667 5.36266667,1.932 5.582,1.932 C6.002,1.932 6.31233333,2.04283333 6.513,2.2645 C6.71366667,2.48616667 6.814,2.80233333 6.814,3.213 L6.814,5.292 L6.352,5.292 L6.352,3.381 C6.352,3.04966667 6.29366667,2.79533333 6.177,2.618 C6.06033333,2.44066667 5.84333333,2.352 5.526,2.352 C5.35333333,2.352 5.20866667,2.38583333 5.092,2.4535 C4.97533333,2.52116667 4.88083333,2.611 4.8085,2.723 C4.73616667,2.835 4.68366667,2.96216667 4.651,3.1045 C4.61833333,3.24683333 4.602,3.395 4.602,3.549 L4.602,5.292 L4.14,5.292 L4.14,3.381 C4.14,3.04966667 4.08166667,2.79533333 3.965,2.618 C3.84833333,2.44066667 3.63133333,2.352 3.314,2.352 C3.286,2.352 3.22183333,2.36133333 3.1215,2.38 C3.02116667,2.39866667 2.91733333,2.45 2.81,2.534 C2.70266667,2.618 2.60583333,2.744 2.5195,2.912 C2.43316667,3.08 2.39,3.31333333 2.39,3.612 L2.39,5.292 L1.928,5.292 L1.928,2.744 Z" id="Path"/>
                <path d="M10.881,3.654 C10.881,3.472 10.8518333,3.30166667 10.7935,3.143 C10.7351667,2.98433333 10.6523333,2.84666667 10.545,2.73 C10.4376667,2.61333333 10.3081667,2.52116667 10.1565,2.4535 C10.0048333,2.38583333 9.83333333,2.352 9.642,2.352 C9.45066667,2.352 9.27566667,2.38583333 9.117,2.4535 C8.95833333,2.52116667 8.82066667,2.61333333 8.704,2.73 C8.58733333,2.84666667 8.49633333,2.98433333 8.431,3.143 C8.36566667,3.30166667 8.333,3.472 8.333,3.654 C8.333,3.836 8.36566667,4.00633333 8.431,4.165 C8.49633333,4.32366667 8.58733333,4.46133333 8.704,4.578 C8.82066667,4.69466667 8.95833333,4.78683333 9.117,4.8545 C9.27566667,4.92216667 9.45066667,4.956 9.642,4.956 C9.83333333,4.956 10.0048333,4.92216667 10.1565,4.8545 C10.3081667,4.78683333 10.4376667,4.69466667 10.545,4.578 C10.6523333,4.46133333 10.7351667,4.32366667 10.7935,4.165 C10.8518333,4.00633333 10.881,3.836 10.881,3.654 Z M7.892,2.016 L8.354,2.016 L8.354,2.562 L8.368,2.562 C8.44266667,2.45 8.53133333,2.35433333 8.634,2.275 C8.73666667,2.19566667 8.844,2.13033333 8.956,2.079 C9.068,2.02766667 9.1835,1.99033333 9.3025,1.967 C9.4215,1.94366667 9.53466667,1.932 9.642,1.932 C9.89866667,1.932 10.1331667,1.97516667 10.3455,2.0615 C10.5578333,2.14783333 10.741,2.268 10.895,2.422 C11.049,2.576 11.1691667,2.758 11.2555,2.968 C11.3418333,3.178 11.385,3.40666667 11.385,3.654 C11.385,3.90133333 11.3418333,4.13 11.2555,4.34 C11.1691667,4.55 11.049,4.732 10.895,4.886 C10.741,5.04 10.5578333,5.16016667 10.3455,5.2465 C10.1331667,5.33283333 9.89866667,5.376 9.642,5.376 C9.53466667,5.376 9.4215,5.36433333 9.3025,5.341 C9.1835,5.31766667 9.068,5.28033333 8.956,5.229 C8.844,5.17766667 8.73666667,5.11233333 8.634,5.033 C8.53133333,4.95366667 8.44266667,4.858 8.368,4.746 L8.354,4.746 L8.354,7.308 L7.892,7.308 L7.892,2.016 Z" id="Shape"/>
                <polygon id="Path" points="12.736 5.292 12.274 5.292 12.274 0 12.736 0"/>
                <path d="M15.711,3.661 C15.5943333,3.661 15.4485,3.66683333 15.2735,3.6785 C15.0985,3.69016667 14.9305,3.71816667 14.7695,3.7625 C14.6085,3.80683333 14.4708333,3.87566667 14.3565,3.969 C14.2421667,4.06233333 14.185,4.19066667 14.185,4.354 C14.185,4.46133333 14.2071667,4.5535 14.2515,4.6305 C14.2958333,4.7075 14.3553333,4.7705 14.43,4.8195 C14.5046667,4.8685 14.5875,4.9035 14.6785,4.9245 C14.7695,4.9455 14.8616667,4.956 14.955,4.956 C15.123,4.956 15.2688333,4.928 15.3925,4.872 C15.5161667,4.816 15.62,4.74016667 15.704,4.6445 C15.788,4.54883333 15.8498333,4.43683333 15.8895,4.3085 C15.9291667,4.18016667 15.949,4.04366667 15.949,3.899 L15.949,3.661 L15.711,3.661 Z M15.949,3.283 L15.949,3.199 C15.949,2.63433333 15.669,2.352 15.109,2.352 C14.7263333,2.352 14.3926667,2.48033333 14.108,2.737 L13.828,2.408 C14.136,2.09066667 14.598,1.932 15.214,1.932 C15.3726667,1.932 15.5255,1.95533333 15.6725,2.002 C15.8195,2.04866667 15.9466667,2.11983333 16.054,2.2155 C16.1613333,2.31116667 16.2476667,2.43133333 16.313,2.576 C16.3783333,2.72066667 16.411,2.89333333 16.411,3.094 L16.411,4.557 C16.411,4.683 16.4168333,4.81483333 16.4285,4.9525 C16.4401667,5.09016667 16.453,5.20333333 16.467,5.292 L16.019,5.292 C16.005,5.21266667 15.9945,5.12633333 15.9875,5.033 C15.9805,4.93966667 15.977,4.84866667 15.977,4.76 L15.963,4.76 C15.8276667,4.97933333 15.6678333,5.13683333 15.4835,5.2325 C15.2991667,5.32816667 15.074,5.376 14.808,5.376 C14.6633333,5.376 14.5233333,5.35616667 14.388,5.3165 C14.2526667,5.27683333 14.1325,5.21616667 14.0275,5.1345 C13.9225,5.05283333 13.8385,4.9525 13.7755,4.8335 C13.7125,4.7145 13.681,4.57566667 13.681,4.417 C13.681,4.151 13.7498333,3.94216667 13.8875,3.7905 C14.0251667,3.63883333 14.1978333,3.52566667 14.4055,3.451 C14.6131667,3.37633333 14.8348333,3.32966667 15.0705,3.311 C15.3061667,3.29233333 15.522,3.283 15.718,3.283 L15.949,3.283 Z" id="Shape"/>
                <path d="M17.923,2.016 C17.9323333,2.10466667 17.9381667,2.19216667 17.9405,2.2785 C17.9428333,2.36483333 17.944,2.45233333 17.944,2.541 L17.958,2.541 C18.0093333,2.45233333 18.0746667,2.37066667 18.154,2.296 C18.2333333,2.22133333 18.322,2.15716667 18.42,2.1035 C18.518,2.04983333 18.6218333,2.00783333 18.7315,1.9775 C18.8411667,1.94716667 18.9496667,1.932 19.057,1.932 C19.477,1.932 19.7873333,2.04283333 19.988,2.2645 C20.1886667,2.48616667 20.289,2.80233333 20.289,3.213 L20.289,5.292 L19.827,5.292 L19.827,3.479 C19.827,3.115 19.764,2.83616667 19.638,2.6425 C19.512,2.44883333 19.2786667,2.352 18.938,2.352 C18.9146667,2.352 18.8493333,2.36133333 18.742,2.38 C18.6346667,2.39866667 18.5215,2.45 18.4025,2.534 C18.2835,2.618 18.1773333,2.744 18.084,2.912 C17.9906667,3.08 17.944,3.31333333 17.944,3.612 L17.944,5.292 L17.482,5.292 L17.482,2.737 C17.482,2.64833333 17.4785,2.53633333 17.4715,2.401 C17.4645,2.26566667 17.4563333,2.13733333 17.447,2.016 L17.923,2.016 Z" id="Path"/>
                <path d="M23.068,2.436 L22.123,2.436 L22.123,4.368 C22.123,4.48933333 22.1346667,4.5885 22.158,4.6655 C22.1813333,4.7425 22.214,4.802 22.256,4.844 C22.298,4.886 22.3481667,4.91516667 22.4065,4.9315 C22.4648333,4.94783333 22.529,4.956 22.599,4.956 C22.6783333,4.956 22.76,4.94433333 22.844,4.921 C22.928,4.89766667 23.005,4.86733333 23.075,4.83 L23.096,5.257 C22.9233333,5.33633333 22.7156667,5.376 22.473,5.376 C22.3843333,5.376 22.2921667,5.36433333 22.1965,5.341 C22.1008333,5.31766667 22.0133333,5.27333333 21.934,5.208 C21.8546667,5.14266667 21.7893333,5.054 21.738,4.942 C21.6866667,4.83 21.661,4.683 21.661,4.501 L21.661,2.436 L20.968,2.436 L20.968,2.016 L21.661,2.016 L21.661,1.092 L22.123,1.092 L22.123,2.016 L23.068,2.016 L23.068,2.436 Z" id="Path"/>
                <path d="M26.246,4.83 L27.226,4.83 C27.604,4.83 27.9318333,4.77283333 28.2095,4.6585 C28.4871667,4.54416667 28.7181667,4.3925 28.9025,4.2035 C29.0868333,4.0145 29.2233333,3.79983333 29.312,3.5595 C29.4006667,3.31916667 29.445,3.07066667 29.445,2.814 C29.445,2.55733333 29.4006667,2.30883333 29.312,2.0685 C29.2233333,1.82816667 29.0868333,1.6135 28.9025,1.4245 C28.7181667,1.2355 28.4871667,1.08383333 28.2095,0.9695 C27.9318333,0.855166667 27.604,0.798 27.226,0.798 L26.246,0.798 L26.246,4.83 Z M25.742,0.336 L27.387,0.336 C27.695,0.336 28.0041667,0.387333333 28.3145,0.49 C28.6248333,0.592666667 28.9048333,0.747833333 29.1545,0.9555 C29.4041667,1.16316667 29.606,1.42216667 29.76,1.7325 C29.914,2.04283333 29.991,2.40333333 29.991,2.814 C29.991,3.22933333 29.914,3.591 29.76,3.899 C29.606,4.207 29.4041667,4.46483333 29.1545,4.6725 C28.9048333,4.88016667 28.6248333,5.03533333 28.3145,5.138 C28.0041667,5.24066667 27.695,5.292 27.387,5.292 L25.742,5.292 L25.742,0.336 Z" id="Shape"/>
                <path d="M33.379,3.402 C33.379,3.08933333 33.2856667,2.83616667 33.099,2.6425 C32.9123333,2.44883333 32.651,2.352 32.315,2.352 C32.1656667,2.352 32.021,2.38116667 31.881,2.4395 C31.741,2.49783333 31.6185,2.576 31.5135,2.674 C31.4085,2.772 31.3245,2.884 31.2615,3.01 C31.1985,3.136 31.167,3.26666667 31.167,3.402 L33.379,3.402 Z M31.153,3.78 C31.167,3.94333333 31.2066667,4.09733333 31.272,4.242 C31.3373333,4.38666667 31.4236667,4.5115 31.531,4.6165 C31.6383333,4.7215 31.762,4.80433333 31.902,4.865 C32.042,4.92566667 32.1936667,4.956 32.357,4.956 C32.6043333,4.956 32.8178333,4.89883333 32.9975,4.7845 C33.1771667,4.67016667 33.3136667,4.53833333 33.407,4.389 L33.764,4.683 C33.568,4.93033333 33.3521667,5.10766667 33.1165,5.215 C32.8808333,5.32233333 32.6276667,5.376 32.357,5.376 C32.1143333,5.376 31.8891667,5.33283333 31.6815,5.2465 C31.4738333,5.16016667 31.2953333,5.04 31.146,4.886 C30.9966667,4.732 30.8788333,4.55 30.7925,4.34 C30.7061667,4.13 30.663,3.90133333 30.663,3.654 C30.663,3.40666667 30.705,3.178 30.789,2.968 C30.873,2.758 30.9896667,2.576 31.139,2.422 C31.2883333,2.268 31.4633333,2.14783333 31.664,2.0615 C31.8646667,1.97516667 32.0816667,1.932 32.315,1.932 C32.5623333,1.932 32.784,1.97633333 32.98,2.065 C33.176,2.15366667 33.3405,2.2715 33.4735,2.4185 C33.6065,2.5655 33.708,2.73816667 33.778,2.9365 C33.848,3.13483333 33.883,3.346 33.883,3.57 L33.883,3.78 L31.153,3.78 Z" id="Shape"/>
                <polygon id="Path" points="35.29 5.292 34.828 5.292 34.828 0 35.29 0"/>
                <path d="M37.075,0.756 C37.075,0.854 37.04,0.9345 36.97,0.9975 C36.9,1.0605 36.823,1.092 36.739,1.092 C36.655,1.092 36.578,1.0605 36.508,0.9975 C36.438,0.9345 36.403,0.854 36.403,0.756 C36.403,0.658 36.438,0.5775 36.508,0.5145 C36.578,0.4515 36.655,0.42 36.739,0.42 C36.823,0.42 36.9,0.4515 36.97,0.5145 C37.04,0.5775 37.075,0.658 37.075,0.756 Z M36.97,5.292 L36.508,5.292 L36.508,2.016 L36.97,2.016 L36.97,5.292 Z" id="Shape"/>
                <polygon id="Path" points="39.525 5.292 39.007 5.292 37.677 2.016 38.23 2.016 39.273 4.774 39.287 4.774 40.33 2.016 40.855 2.016"/>
                <path d="M44.005,3.402 C44.005,3.08933333 43.9116667,2.83616667 43.725,2.6425 C43.5383333,2.44883333 43.277,2.352 42.941,2.352 C42.7916667,2.352 42.647,2.38116667 42.507,2.4395 C42.367,2.49783333 42.2445,2.576 42.1395,2.674 C42.0345,2.772 41.9505,2.884 41.8875,3.01 C41.8245,3.136 41.793,3.26666667 41.793,3.402 L44.005,3.402 Z M41.779,3.78 C41.793,3.94333333 41.8326667,4.09733333 41.898,4.242 C41.9633333,4.38666667 42.0496667,4.5115 42.157,4.6165 C42.2643333,4.7215 42.388,4.80433333 42.528,4.865 C42.668,4.92566667 42.8196667,4.956 42.983,4.956 C43.2303333,4.956 43.4438333,4.89883333 43.6235,4.7845 C43.8031667,4.67016667 43.9396667,4.53833333 44.033,4.389 L44.39,4.683 C44.194,4.93033333 43.9781667,5.10766667 43.7425,5.215 C43.5068333,5.32233333 43.2536667,5.376 42.983,5.376 C42.7403333,5.376 42.5151667,5.33283333 42.3075,5.2465 C42.0998333,5.16016667 41.9213333,5.04 41.772,4.886 C41.6226667,4.732 41.5048333,4.55 41.4185,4.34 C41.3321667,4.13 41.289,3.90133333 41.289,3.654 C41.289,3.40666667 41.331,3.178 41.415,2.968 C41.499,2.758 41.6156667,2.576 41.765,2.422 C41.9143333,2.268 42.0893333,2.14783333 42.29,2.0615 C42.4906667,1.97516667 42.7076667,1.932 42.941,1.932 C43.1883333,1.932 43.41,1.97633333 43.606,2.065 C43.802,2.15366667 43.9665,2.2715 44.0995,2.4185 C44.2325,2.5655 44.334,2.73816667 44.404,2.9365 C44.474,3.13483333 44.509,3.346 44.509,3.57 L44.509,3.78 L41.779,3.78 Z" id="Shape"/>
                <path d="M45.398,3.038 C45.398,2.89333333 45.3945,2.74633333 45.3875,2.597 C45.3805,2.44766667 45.3746667,2.254 45.37,2.016 L45.825,2.016 L45.825,2.625 L45.839,2.625 C45.8716667,2.53633333 45.9183333,2.45116667 45.979,2.3695 C46.0396667,2.28783333 46.1131667,2.21433333 46.1995,2.149 C46.2858333,2.08366667 46.3861667,2.03116667 46.5005,1.9915 C46.6148333,1.95183333 46.7443333,1.932 46.889,1.932 C47.0196667,1.932 47.134,1.946 47.232,1.974 L47.141,2.429 C47.0803333,2.40566667 46.9916667,2.394 46.875,2.394 C46.6976667,2.394 46.546,2.42783333 46.42,2.4955 C46.294,2.56316667 46.189,2.6495 46.105,2.7545 C46.021,2.8595 45.9591667,2.97266667 45.9195,3.094 C45.8798333,3.21533333 45.86,3.332 45.86,3.444 L45.86,5.292 L45.398,5.292 L45.398,3.038 Z" id="Path"/>
                <path d="M48.891,4.725 L49.892,2.016 L50.452,2.016 L48.814,6.146 C48.716,6.398 48.5911667,6.59866667 48.4395,6.748 C48.2878333,6.89733333 48.0696667,6.972 47.785,6.972 C47.715,6.972 47.6438333,6.96966667 47.5715,6.965 C47.4991667,6.96033333 47.428,6.94633333 47.358,6.923 L47.407,6.475 C47.505,6.52633333 47.6216667,6.552 47.757,6.552 C47.9203333,6.552 48.0486667,6.50066667 48.142,6.398 C48.2353333,6.29533333 48.317,6.15066667 48.387,5.964 L48.625,5.334 L47.281,2.016 L47.862,2.016 L48.891,4.725 Z" id="Path"/>
                <path d="M53.595,4.83 L54.575,4.83 C54.953,4.83 55.2808333,4.77283333 55.5585,4.6585 C55.8361667,4.54416667 56.0671667,4.3925 56.2515,4.2035 C56.4358333,4.0145 56.5723333,3.79983333 56.661,3.5595 C56.7496667,3.31916667 56.794,3.07066667 56.794,2.814 C56.794,2.55733333 56.7496667,2.30883333 56.661,2.0685 C56.5723333,1.82816667 56.4358333,1.6135 56.2515,1.4245 C56.0671667,1.2355 55.8361667,1.08383333 55.5585,0.9695 C55.2808333,0.855166667 54.953,0.798 54.575,0.798 L53.595,0.798 L53.595,4.83 Z M53.091,0.336 L54.736,0.336 C55.044,0.336 55.3531667,0.387333333 55.6635,0.49 C55.9738333,0.592666667 56.2538333,0.747833333 56.5035,0.9555 C56.7531667,1.16316667 56.955,1.42216667 57.109,1.7325 C57.263,2.04283333 57.34,2.40333333 57.34,2.814 C57.34,3.22933333 57.263,3.591 57.109,3.899 C56.955,4.207 56.7531667,4.46483333 56.5035,4.6725 C56.2538333,4.88016667 55.9738333,5.03533333 55.6635,5.138 C55.3531667,5.24066667 55.044,5.292 54.736,5.292 L53.091,5.292 L53.091,0.336 Z" id="Shape"/>
                <path d="M60.728,3.402 C60.728,3.08933333 60.6346667,2.83616667 60.448,2.6425 C60.2613333,2.44883333 60,2.352 59.664,2.352 C59.5146667,2.352 59.37,2.38116667 59.23,2.4395 C59.09,2.49783333 58.9675,2.576 58.8625,2.674 C58.7575,2.772 58.6735,2.884 58.6105,3.01 C58.5475,3.136 58.516,3.26666667 58.516,3.402 L60.728,3.402 Z M58.502,3.78 C58.516,3.94333333 58.5556667,4.09733333 58.621,4.242 C58.6863333,4.38666667 58.7726667,4.5115 58.88,4.6165 C58.9873333,4.7215 59.111,4.80433333 59.251,4.865 C59.391,4.92566667 59.5426667,4.956 59.706,4.956 C59.9533333,4.956 60.1668333,4.89883333 60.3465,4.7845 C60.5261667,4.67016667 60.6626667,4.53833333 60.756,4.389 L61.113,4.683 C60.917,4.93033333 60.7011667,5.10766667 60.4655,5.215 C60.2298333,5.32233333 59.9766667,5.376 59.706,5.376 C59.4633333,5.376 59.2381667,5.33283333 59.0305,5.2465 C58.8228333,5.16016667 58.6443333,5.04 58.495,4.886 C58.3456667,4.732 58.2278333,4.55 58.1415,4.34 C58.0551667,4.13 58.012,3.90133333 58.012,3.654 C58.012,3.40666667 58.054,3.178 58.138,2.968 C58.222,2.758 58.3386667,2.576 58.488,2.422 C58.6373333,2.268 58.8123333,2.14783333 59.013,2.0615 C59.2136667,1.97516667 59.4306667,1.932 59.664,1.932 C59.9113333,1.932 60.133,1.97633333 60.329,2.065 C60.525,2.15366667 60.6895,2.2715 60.8225,2.4185 C60.9555,2.5655 61.057,2.73816667 61.127,2.9365 C61.197,3.13483333 61.232,3.346 61.232,3.57 L61.232,3.78 L58.502,3.78 Z" id="Shape"/>
                <polygon id="Path" points="63.514 5.292 62.996 5.292 61.666 2.016 62.219 2.016 63.262 4.774 63.276 4.774 64.319 2.016 64.844 2.016"/>
                <path d="M66.118,0.756 C66.118,0.854 66.083,0.9345 66.013,0.9975 C65.943,1.0605 65.866,1.092 65.782,1.092 C65.698,1.092 65.621,1.0605 65.551,0.9975 C65.481,0.9345 65.446,0.854 65.446,0.756 C65.446,0.658 65.481,0.5775 65.551,0.5145 C65.621,0.4515 65.698,0.42 65.782,0.42 C65.866,0.42 65.943,0.4515 66.013,0.5145 C66.083,0.5775 66.118,0.658 66.118,0.756 Z M66.013,5.292 L65.551,5.292 L65.551,2.016 L66.013,2.016 L66.013,5.292 Z" id="Shape"/>
                <path d="M69.513,2.786 C69.4336667,2.66466667 69.3228333,2.562 69.1805,2.478 C69.0381667,2.394 68.876,2.352 68.694,2.352 C68.5026667,2.34733333 68.3311667,2.37766667 68.1795,2.443 C68.0278333,2.50833333 67.8983333,2.59933333 67.791,2.716 C67.6836667,2.83266667 67.602,2.9715 67.546,3.1325 C67.49,3.2935 67.462,3.46733333 67.462,3.654 C67.462,3.84066667 67.49,4.0145 67.546,4.1755 C67.602,4.3365 67.6836667,4.47533333 67.791,4.592 C67.8983333,4.70866667 68.0278333,4.79966667 68.1795,4.865 C68.3311667,4.93033333 68.5026667,4.96066667 68.694,4.956 C68.876,4.956 69.0381667,4.914 69.1805,4.83 C69.3228333,4.746 69.4336667,4.64333333 69.513,4.522 L69.891,4.809 C69.7276667,5.00033333 69.5433333,5.1415 69.338,5.2325 C69.1326667,5.3235 68.918,5.37133333 68.694,5.376 C68.428,5.38066667 68.1876667,5.33983333 67.973,5.2535 C67.7583333,5.16716667 67.5751667,5.047 67.4235,4.893 C67.2718333,4.739 67.1563333,4.55583333 67.077,4.3435 C66.9976667,4.13116667 66.958,3.90133333 66.958,3.654 C66.958,3.40666667 66.9976667,3.17683333 67.077,2.9645 C67.1563333,2.75216667 67.2718333,2.569 67.4235,2.415 C67.5751667,2.261 67.7583333,2.14083333 67.973,2.0545 C68.1876667,1.96816667 68.428,1.92733333 68.694,1.932 C68.918,1.93666667 69.1326667,1.9845 69.338,2.0755 C69.5433333,2.1665 69.7276667,2.30766667 69.891,2.499 L69.513,2.786 Z" id="Path"/>
                <path d="M73.048,3.402 C73.048,3.08933333 72.9546667,2.83616667 72.768,2.6425 C72.5813333,2.44883333 72.32,2.352 71.984,2.352 C71.8346667,2.352 71.69,2.38116667 71.55,2.4395 C71.41,2.49783333 71.2875,2.576 71.1825,2.674 C71.0775,2.772 70.9935,2.884 70.9305,3.01 C70.8675,3.136 70.836,3.26666667 70.836,3.402 L73.048,3.402 Z M70.822,3.78 C70.836,3.94333333 70.8756667,4.09733333 70.941,4.242 C71.0063333,4.38666667 71.0926667,4.5115 71.2,4.6165 C71.3073333,4.7215 71.431,4.80433333 71.571,4.865 C71.711,4.92566667 71.8626667,4.956 72.026,4.956 C72.2733333,4.956 72.4868333,4.89883333 72.6665,4.7845 C72.8461667,4.67016667 72.9826667,4.53833333 73.076,4.389 L73.433,4.683 C73.237,4.93033333 73.0211667,5.10766667 72.7855,5.215 C72.5498333,5.32233333 72.2966667,5.376 72.026,5.376 C71.7833333,5.376 71.5581667,5.33283333 71.3505,5.2465 C71.1428333,5.16016667 70.9643333,5.04 70.815,4.886 C70.6656667,4.732 70.5478333,4.55 70.4615,4.34 C70.3751667,4.13 70.332,3.90133333 70.332,3.654 C70.332,3.40666667 70.374,3.178 70.458,2.968 C70.542,2.758 70.6586667,2.576 70.808,2.422 C70.9573333,2.268 71.1323333,2.14783333 71.333,2.0615 C71.5336667,1.97516667 71.7506667,1.932 71.984,1.932 C72.2313333,1.932 72.453,1.97633333 72.649,2.065 C72.845,2.15366667 73.0095,2.2715 73.1425,2.4185 C73.2755,2.5655 73.377,2.73816667 73.447,2.9365 C73.517,3.13483333 73.552,3.346 73.552,3.57 L73.552,3.78 L70.822,3.78 Z" id="Shape"/>
            </g>
        </g>
    </g>
</svg>
