<?xml version="1.0" encoding="iso-8859-1"?>
<!-- Generator: Adobe Illustrator 29.0.1, SVG Export Plug-In . SVG Version: 9.03 Build 54978)  -->
<svg version="1.1" id="Ebene_1" xmlns="http://www.w3.org/2000/svg" xmlns:xlink="http://www.w3.org/1999/xlink" x="0px" y="0px"
	 viewBox="0 0 2000 895" style="enable-background:new 0 0 2000 895;" xml:space="preserve">
<path style="fill:#FFFFFF;" d="M0.383,892.324l66.644,0.177c66.644,0.177,199.931,0.532,333.218,0.886
	c133.287,0.354,266.574,0.709,399.861,1.063s266.574,0.709,399.861,1.063c133.287,0.354,266.574,0.709,399.861,1.063
	s266.574,0.709,333.218,0.886l66.644,0.177l0.511-192l-66.601-16.177c-66.601-16.177-199.803-48.532-333.104-43.586
	c-133.302,5.346-266.701,46.991-400.117,94.937c-133.414,47.346-266.845,100.991-400.188,121.637s-266.603,10.291-399.819-17.063
	c-133.215-27.354-266.391-69.709-332.976-91.586L0.809,732.324L0.383,892.324z"/>
</svg>
