<?xml version="1.0" encoding="iso-8859-1"?>
<!-- Generator: Adobe Illustrator 29.0.1, SVG Export Plug-In . SVG Version: 9.03 Build 54978)  -->
<svg version="1.1" id="Ebene_1" xmlns="http://www.w3.org/2000/svg" xmlns:xlink="http://www.w3.org/1999/xlink" x="0px" y="0px"
	 viewBox="0 0 2000 895" style="enable-background:new 0 0 2000 895;" xml:space="preserve">
<path style="fill:#F7F7F5;" d="M0,160l66.667-21.3C133.333,117,266.667,75,400,48s266.667-37,400-16s266.667,75,400,122.7
	c133.333,48.3,266.667,90.3,400,96c133.333,5.3,266.667-26.7,333.333-42.7L2000,192V0h-66.667c-66.667,0-200,0-333.333,0
	s-266.667,0-400,0S933.333,0,800,0S533.333,0,400,0S133.333,0,66.667,0H0V160z"/>
</svg>
