<?xml version="1.0" encoding="UTF-8"?> <svg xmlns="http://www.w3.org/2000/svg" xmlns:xlink="http://www.w3.org/1999/xlink" width="235px" height="59px" viewBox="0 0 235 59" version="1.1"><title>Logo</title><g id="Page-1" stroke="none" stroke-width="1" fill="none" fill-rule="evenodd"><g id="Logo" transform="translate(0, 0)" fill="#FFFFFF" fill-rule="nonzero"><path d="M234.324359,32.9974 L219.421359,0.8859 C219.383359,0.8016 219.298359,0.7492 219.207359,0.7492 L215.093359,0.7492 C215.000359,0.7492 214.918359,0.8032 214.879359,0.8859 L199.976359,32.9974 C199.904359,33.1543 200.019359,33.3349 200.191359,33.3349 L206.230359,33.3349 C206.325359,33.3349 206.401359,33.2589 206.401359,33.1644 C206.401359,33.1054 206.369359,33.0514 206.320359,33.021 C205.707359,32.6312 205.321359,31.9241 205.385359,31.1428 C205.395359,31.0213 205.405359,30.9167 205.419359,30.8374 C206.218359,25.6365 211.726359,21.654 217.152359,21.654 C222.577359,21.654 228.083359,25.6365 228.885359,30.8374 C228.897359,30.9167 228.909359,31.0213 228.919359,31.1428 C228.983359,31.9241 228.596359,32.6312 227.984359,33.021 C227.933359,33.0531 227.903359,33.1054 227.903359,33.1644 C227.903359,33.2589 227.979359,33.3349 228.073359,33.3349 L234.113359,33.3349 C234.287359,33.3349 234.401359,33.1543 234.327359,32.9974 L234.324359,32.9974 Z M224.557359,20.7495 C222.263359,19.4737 219.702359,18.7836 217.150359,18.7836 C214.599359,18.7836 212.037359,19.4737 209.744359,20.7495 L217.150359,4.6423 L224.557359,20.7495 Z" id="Shape"></path><path d="M57.2173594,47.1943 C55.7443594,47.1943 54.2862594,48.5953 53.2517594,50.8983 L53.1927594,50.8983 L53.7901594,48.5363 L54.7384594,44.0453 L54.5342594,43.9573 L52.0553594,44.5113 L51.9827594,44.8323 L53.2669594,44.8323 L51.0934594,55.1273 L51.2689594,55.2153 L52.4350594,54.9513 L52.4941594,54.6883 C52.9024594,55.0813 53.4424594,55.2863 54.1562594,55.2863 C56.9863594,55.2863 58.9253594,52.0193 58.9253594,49.3663 C58.9253594,48.0973 58.4143594,47.1923 57.2193594,47.1923 L57.2173594,47.1943 Z M54.2119594,54.7783 C53.6146594,54.7783 53.0459594,54.4863 52.6662594,53.8883 C53.4391594,50.7383 55.2463594,47.9823 56.5743594,47.9823 C57.2023594,47.9823 57.5073594,48.5953 57.5073594,49.4273 C57.5073594,51.4093 56.1813594,54.7793 54.2119594,54.7793 L54.2119594,54.7783 Z" id="Shape"></path><path d="M66.1693594,47.1943 C65.7763594,47.1943 65.2803594,47.3833 64.7693594,47.6313 L64.7103594,47.9383 C64.8133594,47.9233 64.9143594,47.9233 65.0173594,47.9233 C65.4253594,47.9233 65.6583594,48.0683 65.6583594,48.5363 C65.6583594,49.6443 64.4183594,52.3123 62.9753594,54.4713 L62.2023594,47.2233 L59.8683594,47.8053 L59.7963594,48.1253 L60.9333594,48.1253 L61.7783594,55.2133 L62.6393594,54.9653 L62.5663594,55.0533 C61.7213594,56.2343 60.8603594,57.0363 59.8113594,57.0363 C59.3743594,57.0363 58.8783594,56.8753 58.4253594,56.5113 L58.1623594,56.3073 C57.9143594,56.5393 57.7823594,56.7873 57.7823594,57.0643 C57.7823594,57.6623 58.4243594,58.0413 59.2123594,58.0413 C60.5093594,58.0413 61.6773594,57.1653 63.0193594,55.2993 C64.4043594,53.3743 66.9123594,49.2173 66.9123594,47.9203 C66.9123594,47.4523 66.6493594,47.1913 66.1683594,47.1913 L66.1693594,47.1943 Z" id="Path"></path><path d="M70.6603594,47.4133 L71.0243594,47.4133 L71.3323594,46.3203 C71.6813594,45.1233 72.4843594,45.0223 73.5193594,45.0223 L74.3503594,45.0223 L74.3503594,53.7433 C74.3503594,54.6043 74.0593594,54.7203 73.0243594,54.8083 L73.0243594,55.1153 L77.1803594,55.1153 L77.1803594,54.8083 C76.1313594,54.7203 75.8393594,54.6043 75.8393594,53.7433 L75.8393594,45.0223 L76.6843594,45.0223 C77.7193594,45.0223 78.5223594,45.1253 78.8563594,46.3203 L79.1773594,47.4133 L79.5263594,47.4133 L79.5263594,44.4973 L70.6603594,44.4973 L70.6603594,47.4133 Z" id="Path"></path><path d="M81.1883594,45.1373 C81.1883594,45.6773 81.5683594,46.0263 82.1063594,46.0263 C82.6443594,46.0263 83.0243594,45.6183 83.0243594,45.1083 C83.0243594,44.5683 82.6443594,44.2343 82.1063594,44.2343 C81.5683594,44.2343 81.1883594,44.6423 81.1883594,45.1393 L81.1883594,45.1373 Z" id="Path"></path><path d="M82.8643594,53.8013 L82.8643594,47.2973 L82.5723594,47.2973 L80.2973594,47.6903 L80.2973594,47.9823 C81.2023594,48.0703 81.4783594,48.4343 81.4783594,49.2953 L81.4783594,53.8013 C81.4783594,54.6023 81.2463594,54.7343 80.2973594,54.8213 L80.2973594,55.1133 L84.0163594,55.1133 L84.0163594,54.8213 C83.1273594,54.7343 82.8643594,54.6023 82.8643594,53.8013 Z" id="Path"></path><path d="M91.7173594,47.0183 C91.2203594,47.0183 90.7683594,47.3683 90.4633594,47.8203 C89.9233594,47.4273 89.2093594,47.1923 88.3923594,47.1923 C86.6143594,47.1923 85.1983594,48.2283 85.1983594,49.9043 C85.1983594,51.0573 85.8983594,51.7423 86.6563594,52.1203 L86.2913594,52.3093 C85.5343594,52.6733 85.1693594,53.0383 85.1693594,53.6223 C85.1693594,54.2633 85.5933594,54.6713 86.9193594,54.7593 L89.2973594,54.9043 C90.4933594,54.9773 90.9303594,55.2973 90.9303594,55.8963 C90.9303594,56.7573 89.9683594,57.5743 88.2913594,57.5743 C86.9053594,57.5743 86.0453594,57.0203 86.0453594,56.1293 C86.0453594,55.9103 86.0893594,55.6773 86.2203594,55.4443 C86.0603594,55.4153 85.9443594,55.4153 85.8273594,55.4153 C85.2743594,55.4153 84.9953594,55.8243 84.9953594,56.4083 C84.9953594,57.5603 86.1043594,58.0993 87.8393594,58.0993 C90.5663594,58.0993 92.0833594,56.8163 92.0833594,55.4313 C92.0833594,54.4543 91.3253594,53.8413 89.5893594,53.7403 L87.2263594,53.5933 C86.5983594,53.5493 86.2783594,53.4333 86.2783594,53.1263 C86.2783594,52.9653 86.3813594,52.8203 86.6863594,52.6293 L87.1673594,52.3223 C87.4723594,52.4253 87.8673594,52.4833 88.2613594,52.4833 C90.0103594,52.4833 91.4403594,51.4333 91.4403594,49.7993 C91.4403594,49.1583 91.2203594,48.6033 90.8563594,48.1813 C91.1483594,48.0363 91.5563594,47.9633 91.9783594,47.9633 L92.4153594,47.9633 C92.4883594,47.3953 92.2553594,47.0153 91.7153594,47.0153 L91.7173594,47.0183 Z M88.3333594,52.0073 C87.2403594,52.0073 86.5393594,51.1333 86.5393594,49.8053 C86.5393594,48.4763 87.1813594,47.6753 88.2893594,47.6753 C89.3983594,47.6753 90.0833594,48.5493 90.0833594,49.8773 C90.0833594,51.2053 89.4273594,52.0073 88.3333594,52.0073 Z" id="Shape"></path><path d="M97.1843594,54.4113 C95.5943594,54.4113 94.5163594,53.2893 94.5163594,51.0143 L94.5163594,50.7953 L100.014359,50.7953 C100.146359,48.6653 99.1253594,47.1943 96.9223594,47.1943 C94.5753594,47.1943 93.0433594,48.8853 93.0433594,51.3643 C93.0433594,53.8433 94.6323594,55.2873 96.7183594,55.2873 C98.0313594,55.2873 99.2263594,54.7473 100.043359,53.4653 L99.6633594,53.2453 C98.9913594,54.1943 97.8983594,54.4113 97.1843594,54.4113 Z M96.7603594,47.6603 C97.9423594,47.6603 98.6423594,48.5933 98.6553594,50.2853 L94.5583594,50.2853 C94.7343594,48.7553 95.4763594,47.6603 96.7603594,47.6603 Z" id="Shape"></path><path d="M105.860359,47.2513 C104.970359,47.2513 104.125359,47.8203 103.716359,48.7253 L103.659359,48.7253 L103.659359,47.2953 L103.455359,47.2953 L101.165359,47.6883 L101.165359,47.9803 C102.069359,48.0683 102.361359,48.4333 102.361359,49.2933 L102.361359,53.7993 C102.361359,54.6003 102.128359,54.7323 101.165359,54.8203 L101.165359,55.1123 L105.044359,55.1123 L105.044359,54.8203 C104.023359,54.7323 103.732359,54.6003 103.732359,53.7993 L103.732359,49.7743 C103.732359,48.8563 104.359359,48.3603 105.190359,48.3603 C105.453359,48.3603 105.701359,48.4193 105.978359,48.5363 L106.678359,48.8433 C106.853359,48.5513 106.941359,48.2593 106.941359,48.0263 C106.941359,47.5743 106.577359,47.2533 105.861359,47.2533 L105.860359,47.2513 Z" id="Path"></path><path d="M119.960359,53.6543 L116.357359,44.4963 L115.424359,44.4963 L111.837359,53.5953 C111.560359,54.3103 111.312359,54.7033 110.539359,54.8053 L110.539359,55.1123 L113.966359,55.1123 L113.966359,54.8053 C112.741359,54.7023 112.275359,54.3243 112.640359,53.4043 L113.281359,51.7573 L117.626359,51.7573 L118.355359,53.6523 C118.662359,54.4543 118.443359,54.7023 117.218359,54.8053 L117.218359,55.1123 L121.214359,55.1123 L121.214359,54.8053 C120.441359,54.7023 120.237359,54.3523 119.960359,53.6523 L119.960359,53.6543 Z M113.485359,51.2193 L115.455359,46.1733 L117.409359,51.2193 L113.485359,51.2193 Z" id="Shape"></path><path d="M125.661359,54.4113 C124.071359,54.4113 122.993359,53.2893 122.993359,51.0143 L122.993359,50.7953 L128.490359,50.7953 C128.622359,48.6653 127.601359,47.1943 125.399359,47.1943 C123.052359,47.1943 121.519359,48.8853 121.519359,51.3643 C121.519359,53.8433 123.109359,55.2873 125.195359,55.2873 C126.508359,55.2873 127.702359,54.7473 128.519359,53.4653 L128.139359,53.2453 C127.468359,54.1943 126.374359,54.4113 125.661359,54.4113 Z M125.237359,47.6603 C126.418359,47.6603 127.119359,48.5933 127.132359,50.2853 L123.035359,50.2853 C123.210359,48.7553 123.954359,47.6603 125.237359,47.6603 Z" id="Shape"></path><path d="M133.111359,50.6063 L132.513359,50.4023 C131.361359,49.9943 130.895359,49.5853 130.895359,48.9153 C130.895359,48.1713 131.449359,47.6773 132.382359,47.6773 C133.315359,47.6773 134.263359,48.2013 134.584359,49.3393 L134.920359,49.3393 L134.920359,47.7933 C134.672359,47.6773 133.679359,47.1963 132.441359,47.1963 C130.807359,47.1963 129.771359,48.0123 129.771359,49.3393 C129.771359,50.6653 130.865359,51.2783 132.017359,51.6733 L132.615359,51.8923 C133.811359,52.3003 134.219359,52.7373 134.219359,53.3653 C134.219359,54.2553 133.431359,54.8083 132.353359,54.8083 C131.275359,54.8083 130.267359,54.2263 129.975359,52.9263 L129.640359,52.9263 L129.640359,54.6923 C129.975359,54.8523 130.937359,55.2893 132.250359,55.2893 C134.101359,55.2893 135.342359,54.4003 135.342359,52.9423 C135.342359,51.8483 134.700359,51.1633 133.111359,50.6083 L133.111359,50.6063 Z" id="Path"></path><path d="M139.601359,54.4863 C138.973359,54.4863 138.595359,54.0623 138.595359,53.0723 L138.595359,48.0833 L140.665359,48.0833 L140.826359,47.3693 L138.595359,47.3693 L138.595359,44.9193 L138.217359,44.9193 C137.501359,47.2673 137.225359,47.4573 136.015359,47.5743 L136.015359,48.0833 L137.211359,48.0833 L137.211359,53.1583 C137.211359,54.5433 137.883359,55.2873 139.020359,55.2873 C140.041359,55.2873 140.726359,54.6593 141.368359,53.9303 L141.047359,53.6823 C140.406359,54.2803 140.041359,54.4843 139.604359,54.4843 L139.601359,54.4863 Z" id="Path"></path><path d="M149.603359,53.8013 L149.603359,49.9953 C149.603359,48.1293 148.713359,47.1963 147.036359,47.1963 C145.651359,47.1963 144.645359,47.9103 144.134359,49.0033 L144.134359,44.1043 L143.842359,44.1043 L141.567359,44.4973 L141.567359,44.7893 C142.471359,44.8773 142.748359,45.2423 142.748359,46.0873 L142.748359,53.8013 C142.748359,54.6023 142.515359,54.7343 141.567359,54.8223 L141.567359,55.1133 L145.286359,55.1133 L145.286359,54.8223 C144.397359,54.7343 144.134359,54.6023 144.134359,53.8013 L144.134359,50.7533 C144.134359,49.0913 145.155359,47.9673 146.511359,47.9673 C147.561359,47.9673 148.217359,48.6373 148.217359,50.1103 L148.217359,53.7993 C148.217359,54.6003 147.969359,54.7323 147.080359,54.8203 L147.080359,55.1123 L150.784359,55.1123 L150.784359,54.8203 C149.836359,54.7323 149.603359,54.6003 149.603359,53.7993 L149.603359,53.8013 Z" id="Path"></path><path d="M155.683359,54.4113 C154.093359,54.4113 153.015359,53.2893 153.015359,51.0143 L153.015359,50.7953 L158.513359,50.7953 C158.644359,48.6653 157.623359,47.1943 155.421359,47.1943 C153.074359,47.1943 151.542359,48.8853 151.542359,51.3643 C151.542359,53.8433 153.131359,55.2873 155.217359,55.2873 C156.530359,55.2873 157.725359,54.7473 158.541359,53.4653 L158.162359,53.2453 C157.490359,54.1943 156.397359,54.4113 155.683359,54.4113 Z M155.261359,47.6603 C156.442359,47.6603 157.143359,48.5933 157.156359,50.2853 L153.059359,50.2853 C153.234359,48.7553 153.978359,47.6603 155.261359,47.6603 Z" id="Shape"></path><path d="M162.959359,54.4863 C162.332359,54.4863 161.954359,54.0623 161.954359,53.0723 L161.954359,48.0833 L164.024359,48.0833 L164.185359,47.3693 L161.954359,47.3693 L161.954359,44.9193 L161.574359,44.9193 C160.859359,47.2673 160.582359,47.4573 159.372359,47.5743 L159.372359,48.0833 L160.568359,48.0833 L160.568359,53.1583 C160.568359,54.5433 161.240359,55.2873 162.377359,55.2873 C163.398359,55.2873 164.083359,54.6593 164.725359,53.9303 L164.404359,53.6823 C163.763359,54.2803 163.398359,54.4843 162.961359,54.4843 L162.959359,54.4863 Z" id="Path"></path><path d="M168.019359,45.1083 C168.019359,44.5683 167.639359,44.2343 167.101359,44.2343 C166.562359,44.2343 166.183359,44.6423 166.183359,45.1393 C166.183359,45.6793 166.562359,46.0283 167.101359,46.0283 C167.639359,46.0283 168.019359,45.6203 168.019359,45.1103 L168.019359,45.1083 Z" id="Path"></path><path d="M167.858359,53.8013 L167.858359,47.2973 L167.566359,47.2973 L165.291359,47.6903 L165.291359,47.9823 C166.196359,48.0703 166.473359,48.4343 166.473359,49.2953 L166.473359,53.8013 C166.473359,54.6023 166.240359,54.7343 165.291359,54.8213 L165.291359,55.1133 L169.011359,55.1133 L169.011359,54.8213 C168.121359,54.7343 167.858359,54.6023 167.858359,53.8013 Z" id="Path"></path><path d="M173.938359,54.4113 C172.392359,54.4113 171.299359,53.2743 171.299359,50.9553 C171.299359,49.1463 172.014359,47.6603 173.472359,47.6603 C174.304359,47.6603 174.901359,48.1413 175.323359,49.2933 L175.499359,49.7893 C176.068359,49.7453 176.403359,49.3963 176.403359,48.9003 C176.403359,48.0393 175.354359,47.1943 173.661359,47.1943 C171.371359,47.1943 169.797359,48.8563 169.797359,51.3643 C169.797359,53.8713 171.400359,55.2873 173.457359,55.2873 C174.755359,55.2873 175.835359,54.7343 176.651359,53.4653 L176.272359,53.2453 C175.615359,54.1943 174.625359,54.4113 173.938359,54.4113 Z" id="Path"></path><path d="M181.026359,50.6063 L180.428359,50.4023 C179.276359,49.9943 178.810359,49.5853 178.810359,48.9153 C178.810359,48.1713 179.363359,47.6773 180.297359,47.6773 C181.230359,47.6773 182.178359,48.2013 182.499359,49.3393 L182.835359,49.3393 L182.835359,47.7933 C182.586359,47.6773 181.594359,47.1963 180.356359,47.1963 C178.722359,47.1963 177.686359,48.0123 177.686359,49.3393 C177.686359,50.6653 178.779359,51.2783 179.932359,51.6733 L180.529359,51.8923 C181.726359,52.3003 182.134359,52.7373 182.134359,53.3653 C182.134359,54.2553 181.346359,54.8083 180.268359,54.8083 C179.190359,54.8083 178.182359,54.2263 177.890359,52.9263 L177.554359,52.9263 L177.554359,54.6923 C177.890359,54.8523 178.852359,55.2893 180.165359,55.2893 C182.016359,55.2893 183.256359,54.4003 183.256359,52.9423 C183.256359,51.8483 182.615359,51.1633 181.026359,50.6083 L181.026359,50.6063 Z" id="Path"></path><path d="M16.4254594,14.3218 C10.8853594,14.0231 5.04655942,13.7733 5.04655942,9.131 C5.04655942,4.4887 10.0365594,2.8434 14.4290594,2.8434 C20.3032594,2.8434 24.4764594,5.0625 26.5369594,6.8833 C26.6347594,6.9693 26.7748594,6.9575 26.8609594,6.8613 L28.5838594,4.9275 C28.6749594,4.8262 28.6682594,4.671 28.5619594,4.5866 C26.0475594,2.5616 21.0002594,-7.10542736e-15 14.5775594,-7.10542736e-15 C8.83845942,-7.10542736e-15 0.59325942,2.246 0.59325942,9.3825 C0.59325942,16.5189 9.53705942,17.1686 16.4237594,17.5668 C21.9131594,17.9161 27.8514594,18.5641 27.8514594,24.0536 C27.8514594,28.9946 22.6607594,31.2406 16.5739594,31.2406 C9.48305942,31.2406 4.97905942,27.9821 2.12385942,25.3614 C2.02595942,25.272 1.87915942,25.2821 1.79145942,25.38 L0.0617594195,27.3206 C-0.0243405805,27.4185 -0.0209405805,27.5653 0.0752594195,27.6547 C3.51605942,30.8036 8.57005942,34.1347 16.5232594,34.1347 C24.4764594,34.1347 32.3047594,30.9909 32.3047594,23.6553 C32.3047594,15.2212 22.0633594,14.6728 16.4237594,14.3235 L16.4254594,14.3218 Z" id="Path"></path><path d="M44.5579594,0.7476 L41.0546594,0.7476 C40.7931594,0.7476 40.5804594,0.9602 40.5804594,1.2218 L40.5804594,33.0987 C40.5804594,33.2303 40.6867594,33.3366 40.8184594,33.3366 L44.7958594,33.3366 C44.9274594,33.3366 45.0337594,33.2303 45.0337594,33.0987 L45.0337594,1.2218 C45.0337594,0.9602 44.8211594,0.7476 44.5596594,0.7476 L44.5579594,0.7476 Z" id="Path"></path><path d="M55.8293594,33.3348 L83.5633594,33.3348 C83.6943594,33.3348 83.8013594,33.2285 83.8013594,33.0969 L83.8013594,30.5775 C83.8013594,30.4458 83.6943594,30.3395 83.5633594,30.3395 L60.0443594,30.3395 L60.0443594,17.5635 L73.5303594,17.5635 C73.6623594,17.5635 73.7683594,17.4571 73.7683594,17.3255 L73.7683594,14.855 C73.7683594,14.7234 73.6623594,14.6171 73.5303594,14.6171 L60.0443594,14.6171 L60.0443594,3.7378 L82.4643594,3.7378 C82.5963594,3.7378 82.7023594,3.6315 82.7023594,3.4998 L82.7023594,0.9787 C82.7023594,0.8471 82.5963594,0.7408 82.4643594,0.7408 L55.8293594,0.7408 C55.6973594,0.7408 55.5913594,0.8471 55.5913594,0.9787 L55.5913594,33.0918 C55.5913594,33.2235 55.6973594,33.3298 55.8293594,33.3298 L55.8293594,33.3348 Z" id="Path"></path><path d="M91.6613594,33.3349 L95.6383594,33.3349 C95.7703594,33.3349 95.8763594,33.2286 95.8763594,33.0969 L95.8763594,6.4851 L95.9273594,6.4851 L118.013359,33.2471 C118.058359,33.3011 118.124359,33.3332 118.195359,33.3332 L122.100359,33.3332 C122.232359,33.3332 122.338359,33.2269 122.338359,33.0952 L122.338359,0.9821 C122.338359,0.8505 122.232359,0.7442 122.100359,0.7442 L118.121359,0.7442 C117.989359,0.7442 117.883359,0.8505 117.883359,0.9821 L117.883359,27.594 L117.832359,27.594 L95.7463594,0.8319 C95.7013594,0.7779 95.6353594,0.7459 95.5643594,0.7459 L91.6593594,0.7459 C91.5283594,0.7459 91.4213594,0.8522 91.4213594,0.9838 L91.4213594,33.0969 C91.4213594,33.2286 91.5283594,33.3349 91.6593594,33.3349 L91.6613594,33.3349 Z" id="Path"></path><path d="M145.688359,33.0986 L145.688359,3.7428 L157.471359,3.7428 C157.603359,3.7428 157.709359,3.6365 157.709359,3.5049 L157.709359,0.9838 C157.709359,0.8521 157.603359,0.7458 157.471359,0.7458 L129.450359,0.7458 C129.319359,0.7458 129.213359,0.8521 129.213359,0.9838 L129.213359,3.5049 C129.213359,3.6365 129.319359,3.7428 129.450359,3.7428 L141.234359,3.7428 L141.234359,33.0986 C141.234359,33.2302 141.341359,33.3365 141.472359,33.3365 L145.451359,33.3365 C145.583359,33.3365 145.689359,33.2302 145.689359,33.0986 L145.688359,33.0986 Z" id="Path"></path><path d="M188.166359,19.062 C193.007359,18.1642 196.051359,14.5698 196.051359,10.179 C196.051359,7.7338 195.154359,5.5873 193.606359,3.9403 C191.660359,1.8444 187.707359,0.7458 183.614359,0.7458 L164.826359,0.7458 C164.694359,0.7458 164.588359,0.8521 164.588359,0.9838 L164.588359,33.0969 C164.588359,33.2285 164.694359,33.3348 164.826359,33.3348 L168.803359,33.3348 C168.935359,33.3348 169.041359,33.2285 169.041359,33.0969 L169.041359,19.4602 L183.663359,19.4602 L191.380359,33.2133 C191.422359,33.2876 191.502359,33.3348 191.588359,33.3348 L195.942359,33.3348 C196.124359,33.3348 196.239359,33.1374 196.147359,32.9804 L188.167359,19.0636 L188.166359,19.062 Z M169.039359,16.5172 L169.039359,3.7411 L183.613359,3.7411 C186.257359,3.7411 188.355359,4.2896 189.900359,5.886 C190.997359,7.0335 191.596359,8.4813 191.596359,10.1283 C191.596359,13.5708 188.901359,16.5155 184.809359,16.5155 L169.039359,16.5155 L169.039359,16.5172 Z" id="Shape"></path></g></g></svg> 