<svg width="132" height="110" xmlns="http://www.w3.org/2000/svg"><path d="M48 4c-4 3.2-8.067 6.667-12.2 10.4-4.133 3.733-8 7.867-11.6 12.4-3.6 4.533-6.533 9.267-8.8 14.2-2.267 4.933-3.4 10.2-3.4 15.8 0 5.333.867 9.6 2.6 12.8 1.733 3.2 3 5.467 3.8 6.8 1.6-1.867 3.8-4 6.6-6.4 2.8-2.4 6.467-3.6 11-3.6 5.867 0 10.8 1.867 14.8 5.6 4 3.733 6 8.8 6 15.2 0 5.333-2.133 10.333-6.4 15s-9.867 7-16.8 7-12.533-1.467-16.8-4.4c-4.267-2.933-7.6-6.467-10-10.6-2.4-4.133-4-8.4-4.8-12.8C1.2 77 .8 73.467.8 70.8c0-8.533 1.533-16.467 4.6-23.8 3.067-7.333 6.867-14 11.4-20s9.333-11.267 14.4-15.8C36.267 6.667 40.8 2.933 44.8 0L48 4zm74.4 0c-4 3.2-8.067 6.667-12.2 10.4-4.133 3.733-8 7.867-11.6 12.4-3.6 4.533-6.533 9.267-8.8 14.2-2.267 4.933-3.4 10.2-3.4 15.8 0 5.333.867 9.6 2.6 12.8 1.733 3.2 3 5.467 3.8 6.8 1.6-1.867 3.8-4 6.6-6.4 2.8-2.4 6.467-3.6 11-3.6 5.867 0 10.8 1.867 14.8 5.6 4 3.733 6 8.8 6 15.2 0 5.333-2.133 10.333-6.4 15s-9.867 7-16.8 7-12.533-1.467-16.8-4.4c-4.267-2.933-7.6-6.467-10-10.6-2.4-4.133-4-8.4-4.8-12.8-.8-4.4-1.2-7.933-1.2-10.6 0-8.533 1.533-16.467 4.6-23.8 3.067-7.333 6.867-14 11.4-20s9.333-11.267 14.4-15.8c5.067-4.533 9.6-8.267 13.6-11.2l3.2 4z" fill="#D69516"/></svg>