<svg width="225" height="17" viewBox="0 0 225 17" fill="none" xmlns="http://www.w3.org/2000/svg">
<path d="M103.182 15.8743H101.712L102.748 13.2423L99.8501 6.0603H101.488L103.462 11.3803L105.408 6.0603H107.004L103.182 15.8743Z" fill="#2B2B2B"/>
<path d="M92.7574 13.3684V3.56836H95.6414C97.5454 3.56836 98.7354 4.60436 98.7354 6.11636C98.7354 7.05436 98.2454 7.82436 97.5034 8.23036C98.4694 8.63636 99.0574 9.43436 99.0574 10.4844C99.0574 12.2344 97.6294 13.3684 95.8794 13.3684H92.7574ZM94.3114 7.67036H95.6974C96.5374 7.67036 97.1394 7.11036 97.1394 6.27036C97.1394 5.44436 96.5794 4.92636 95.6834 4.92636H94.3114V7.67036ZM94.3114 12.0244H95.7254C96.7054 12.0244 97.4474 11.5064 97.4474 10.4844C97.4474 9.43436 96.6914 8.94436 95.7254 8.94436H94.3114V12.0244Z" fill="#2B2B2B"/>
<path d="M86.9169 3.24634V13.3683H85.4749V12.4163C85.2789 12.6683 84.5369 13.5503 83.1229 13.5503C81.0369 13.5503 79.5529 11.9683 79.5529 9.72834C79.5529 7.47434 80.9389 5.87834 83.0249 5.87834C84.4109 5.87834 85.1949 6.71834 85.3909 7.04034V3.24634H86.9169ZM85.4469 9.74234C85.4469 8.14634 84.4809 7.23634 83.2629 7.23634C81.9889 7.23634 81.0929 8.27234 81.0929 9.74234C81.0929 11.2403 82.0309 12.2063 83.2769 12.2063C84.6209 12.2063 85.4469 11.0863 85.4469 9.74234Z" fill="#2B2B2B"/>
<path d="M71.4814 9.74242C71.4814 7.47442 73.0354 5.87842 75.0374 5.87842C77.2494 5.87842 78.5514 7.40442 78.5514 9.70042C78.5514 9.82642 78.5514 9.95242 78.5374 10.0784H73.0354C73.0634 11.3804 74.0014 12.2204 75.3034 12.2204C76.4094 12.2204 77.0395 11.6044 77.3195 11.1984L78.3274 11.9544C77.9774 12.5564 77.0114 13.5504 75.2754 13.5504C72.9934 13.5504 71.4814 11.9544 71.4814 9.74242ZM73.0914 9.02842H76.9974C76.9414 7.82442 76.1014 7.15242 75.0514 7.15242C74.0014 7.15242 73.1894 7.88042 73.0914 9.02842Z" fill="#2B2B2B"/>
<path d="M67.4956 5.87842C69.3856 5.87842 70.0436 7.37642 70.0436 8.97242V13.3684H68.5316V8.84642C68.5316 7.83842 67.9016 7.25042 67.0616 7.25042C66.0956 7.25042 65.4656 7.96442 65.4656 8.95842V13.3684H63.9396V6.06042H65.4376V7.01242C65.7596 6.43842 66.5156 5.87842 67.4956 5.87842Z" fill="#2B2B2B"/>
<path d="M55.619 15.3564L56.109 14.1804C56.375 14.3344 57.229 14.7404 58.251 14.7404C59.469 14.7404 60.547 14.2924 60.547 12.9064V12.4164C60.379 12.6544 59.651 13.5504 58.209 13.5504C56.109 13.5504 54.709 11.9684 54.709 9.72842C54.709 7.47442 56.165 5.87842 58.237 5.87842C59.609 5.87842 60.393 6.70442 60.617 7.04042V6.06042H62.059V12.4024C62.059 15.1464 60.393 16.0564 58.265 16.0564C57.285 16.0564 56.263 15.7344 55.619 15.3564ZM60.589 9.71442C60.589 8.21642 59.665 7.23642 58.405 7.23642C57.145 7.23642 56.235 8.24442 56.235 9.71442C56.235 11.2124 57.173 12.1924 58.419 12.1924C59.735 12.1924 60.589 11.1564 60.589 9.71442Z" fill="#2B2B2B"/>
<path d="M51.6927 13.3682V6.06025H53.2187V13.3682H51.6927ZM51.4967 4.25425C51.4967 3.72225 51.9167 3.30225 52.4487 3.30225C52.9807 3.30225 53.4007 3.72225 53.4007 4.25425C53.4007 4.78625 52.9807 5.20625 52.4487 5.20625C51.9167 5.20625 51.4967 4.78625 51.4967 4.25425Z" fill="#2B2B2B"/>
<path d="M44.9897 12.0944L45.9417 11.3384C46.2777 11.8284 46.7817 12.2904 47.6917 12.2904C48.3357 12.2904 48.8117 11.9684 48.8117 11.3804C48.8117 9.98042 45.2557 10.4844 45.2557 7.95042C45.2557 6.66242 46.3477 5.87842 47.7617 5.87842C49.1337 5.87842 49.8617 6.67642 50.1417 7.23642L49.0917 7.93642C48.8817 7.60042 48.4897 7.12442 47.6777 7.12442C47.1177 7.12442 46.6977 7.41842 46.6977 7.92242C46.6977 9.32242 50.2677 8.73442 50.2677 11.3104C50.2677 12.6684 49.1197 13.5504 47.6217 13.5504C46.1377 13.5504 45.3537 12.7524 44.9897 12.0944Z" fill="#2B2B2B"/>
<path d="M36.9884 9.74242C36.9884 7.47442 38.5424 5.87842 40.5444 5.87842C42.7564 5.87842 44.0584 7.40442 44.0584 9.70042C44.0584 9.82642 44.0584 9.95242 44.0444 10.0784H38.5424C38.5704 11.3804 39.5084 12.2204 40.8104 12.2204C41.9164 12.2204 42.5464 11.6044 42.8264 11.1984L43.8344 11.9544C43.4844 12.5564 42.5184 13.5504 40.7824 13.5504C38.5004 13.5504 36.9884 11.9544 36.9884 9.74242ZM38.5984 9.02842H42.5044C42.4484 7.82442 41.6084 7.15242 40.5584 7.15242C39.5084 7.15242 38.6964 7.88042 38.5984 9.02842Z" fill="#2B2B2B"/>
<path d="M28.3157 13.3684V3.56836H30.6257C33.9017 3.56836 35.8477 5.40236 35.8477 8.46836C35.8477 11.6604 33.8597 13.3684 30.6257 13.3684H28.3157ZM29.8697 12.0104H30.7797C32.8797 12.0104 34.2377 10.8064 34.2377 8.46836C34.2377 6.21436 32.8797 4.94036 30.7797 4.94036H29.8697V12.0104Z" fill="#2B2B2B"/>
<path d="M15.8906 9.74242C15.8906 7.47442 17.4446 5.87842 19.4466 5.87842C21.6586 5.87842 22.9606 7.40442 22.9606 9.70042C22.9606 9.82642 22.9606 9.95242 22.9466 10.0784H17.4446C17.4726 11.3804 18.4106 12.2204 19.7126 12.2204C20.8186 12.2204 21.4486 11.6044 21.7286 11.1984L22.7366 11.9544C22.3866 12.5564 21.4206 13.5504 19.6846 13.5504C17.4026 13.5504 15.8906 11.9544 15.8906 9.74242ZM17.5006 9.02842H21.4066C21.3506 7.82442 20.5106 7.15242 19.4606 7.15242C18.4106 7.15242 17.5986 7.88042 17.5006 9.02842Z" fill="#2B2B2B"/>
<path d="M11.8243 6.06042V4.53442H13.3363V6.06042H14.8203V7.32042H13.3363V10.7224C13.3363 11.8564 13.7703 12.1084 14.5823 12.1084C14.7083 12.1084 14.8763 12.0944 14.8763 12.0944V13.4104C14.8763 13.4104 14.6103 13.4664 14.1343 13.4664C12.3563 13.4664 11.8243 12.2764 11.8243 10.4844V7.32042H11.0123V6.06042H11.8243Z" fill="#2B2B2B"/>
<path d="M8.23409 13.3682V6.06025H9.76009V13.3682H8.23409ZM8.03809 4.25425C8.03809 3.72225 8.45809 3.30225 8.99009 3.30225C9.52209 3.30225 9.94209 3.72225 9.94209 4.25425C9.94209 4.78625 9.52209 5.20625 8.99009 5.20625C8.45809 5.20625 8.03809 4.78625 8.03809 4.25425Z" fill="#2B2B2B"/>
<path d="M0.356689 11.3382L1.67269 10.7222C1.93869 11.4222 2.51269 12.1082 3.59069 12.1082C4.47269 12.1082 5.06069 11.6182 5.06069 10.7922C5.06069 8.72023 0.650689 9.18223 0.650689 6.03223C0.650689 4.50623 1.78469 3.38623 3.59069 3.38623C5.45269 3.38623 6.25069 4.70223 6.48869 5.38823L5.20069 5.96223C4.97669 5.48623 4.52869 4.81423 3.56269 4.81423C2.69469 4.81423 2.20469 5.34623 2.20469 6.01823C2.20469 7.95023 6.64269 7.60023 6.64269 10.6802C6.64269 12.3182 5.45269 13.5502 3.52069 13.5502C1.51869 13.5502 0.650689 12.2062 0.356689 11.3382Z" fill="#2B2B2B"/>
<path d="M152.404 7.49055C152.404 7.26659 152.585 7.08504 152.809 7.08504H155.412C155.518 7.08504 155.604 6.99919 155.604 6.89327V4.32275C155.604 4.09879 155.786 3.91724 156.01 3.91724H158.133C158.357 3.91724 158.539 4.09879 158.539 4.32275V6.89327C158.539 6.99919 158.625 7.08504 158.73 7.08504H161.32C161.544 7.08504 161.726 7.26659 161.726 7.49055V9.47352C161.726 9.69749 161.544 9.87904 161.32 9.87904H158.73C158.625 9.87904 158.539 9.96488 158.539 10.0708V12.717C158.539 12.941 158.357 13.1225 158.133 13.1225H156.01C155.786 13.1225 155.604 12.941 155.604 12.717V10.0708C155.604 9.96488 155.518 9.87904 155.412 9.87904H152.809C152.585 9.87904 152.404 9.69749 152.404 9.47352V7.49055Z" fill="#6B29D6"/>
<path d="M177.89 5.92478C177.89 6.12953 177.735 6.30236 177.531 6.32271C176.105 6.46521 175.569 7.48597 175.569 9.07142V12.4225C175.569 12.6448 175.389 12.8251 175.167 12.8251H173.7C173.477 12.8251 173.297 12.6448 173.297 12.4225V4.61724C173.297 4.39489 173.477 4.21464 173.7 4.21464H175.117C175.34 4.21464 175.52 4.39489 175.52 4.61724V5.4659C175.846 4.72936 176.525 4.17563 177.432 4.03536C177.673 3.99806 177.89 4.19258 177.89 4.43674L177.89 5.92478Z" fill="#2B2B2B"/>
<path d="M191.777 7.30978C192.649 7.30978 193.324 7.5732 193.637 7.78723V7.2275C193.637 6.47016 193.077 5.95977 192.073 5.95977C191.358 5.95977 190.689 6.15515 190.113 6.41144C189.924 6.49591 189.702 6.41971 189.602 6.23808L189.115 5.35819C189.008 5.16537 189.074 4.92121 189.266 4.8131C190.05 4.37141 191.179 4.00073 192.32 4.00073C195.086 4.00073 195.909 5.44943 195.909 7.37563V12.4225C195.909 12.6448 195.729 12.8251 195.506 12.8251H194.21C194.028 12.8251 193.868 12.7021 193.821 12.5255L193.752 12.2653C193.308 12.7428 192.649 13.0391 191.661 13.0391C189.916 13.0391 188.435 11.969 188.435 10.158C188.435 8.46225 189.768 7.30978 191.777 7.30978ZM192.205 11.2775C193.061 11.2775 193.687 10.8165 193.687 10.0921C193.687 9.33479 193.061 8.89027 192.188 8.89027C191.316 8.89027 190.707 9.38419 190.707 10.0921C190.707 10.8001 191.349 11.2775 192.205 11.2775Z" fill="#2B2B2B"/>
<path d="M127.196 7.30978C128.069 7.30978 128.744 7.5732 129.057 7.78723V7.2275C129.057 6.47016 128.497 5.95977 127.493 5.95977C126.777 5.95977 126.108 6.15515 125.533 6.41144C125.343 6.49591 125.121 6.41971 125.021 6.23808L124.534 5.35819C124.428 5.16537 124.493 4.92121 124.685 4.8131C125.469 4.37141 126.598 4.00073 127.739 4.00073C130.505 4.00073 131.328 5.44943 131.328 7.37563V12.4225C131.328 12.6448 131.148 12.8251 130.926 12.8251H129.63C129.447 12.8251 129.287 12.7021 129.241 12.5255L129.172 12.2653C128.727 12.7428 128.069 13.0391 127.081 13.0391C125.336 13.0391 123.854 11.969 123.854 10.158C123.854 8.46225 125.188 7.30978 127.196 7.30978ZM127.624 11.2775C128.48 11.2775 129.106 10.8165 129.106 10.0921C129.106 9.33479 128.48 8.89027 127.608 8.89027C126.735 8.89027 126.126 9.38419 126.126 10.0921C126.126 10.8001 126.768 11.2775 127.624 11.2775Z" fill="#2B2B2B"/>
<path d="M198.509 2.40381H199.942C200.165 2.40381 200.345 2.58406 200.345 2.8064V4.2148H201.556C201.778 4.2148 201.958 4.39505 201.958 4.61739V5.65612C201.958 5.87846 201.778 6.05872 201.556 6.05872H200.345V9.38438C200.345 10.6685 200.74 10.932 201.613 10.932C201.761 10.932 201.843 10.932 202.025 10.9155V12.5108C202.025 12.7179 201.87 12.8909 201.664 12.9116C201.508 12.9273 201.303 12.9404 201.053 12.9404C198.995 12.9404 198.09 11.788 198.09 9.4502V6.05872H197.587C197.364 6.05872 197.184 5.87846 197.184 5.65612V4.61739C197.184 4.39505 197.364 4.2148 197.587 4.2148H198.106V2.8064C198.106 2.58406 198.286 2.40381 198.509 2.40381Z" fill="#2B2B2B"/>
<path d="M204.836 0.943848C205.507 0.943848 206.017 1.43931 206.017 2.09502C206.017 2.75074 205.507 3.24628 204.836 3.24628C204.18 3.24628 203.67 2.75082 203.67 2.09502C203.67 1.43922 204.18 0.943848 204.836 0.943848Z" fill="#2B2B2B"/>
<path d="M203.716 4.59009V12.4224C203.716 12.6448 203.896 12.8251 204.119 12.8251H205.585C205.808 12.8251 205.988 12.6448 205.988 12.4224V4.5793C205.988 4.36069 205.765 4.21535 205.565 4.30254C205.344 4.3984 205.098 4.45217 204.833 4.45217C204.583 4.45217 204.349 4.40217 204.138 4.31284C203.937 4.22776 203.716 4.37192 203.716 4.59009Z" fill="#2B2B2B"/>
<path d="M210.218 12.558L207.427 4.75272C207.333 4.49051 207.528 4.2146 207.806 4.2146H209.361C209.536 4.2146 209.691 4.3279 209.744 4.49477L211.63 10.4049L213.516 4.49477C213.57 4.32786 213.725 4.2146 213.9 4.2146H215.455C215.733 4.2146 215.927 4.49051 215.834 4.75272L213.043 12.558C212.986 12.7181 212.834 12.825 212.664 12.825H210.597C210.427 12.825 210.275 12.7181 210.218 12.558Z" fill="#2B2B2B"/>
<path d="M170.882 10.8188C170.842 10.7431 170.752 10.7138 170.675 10.7519C170.328 10.9246 169.909 11.0584 169.436 11.0584C167.981 11.0584 166.945 10.005 166.945 8.517C166.945 7.11242 167.864 5.95877 169.352 5.95877C169.88 5.95877 170.316 6.09806 170.666 6.28099C170.744 6.32171 170.838 6.29226 170.878 6.2138C171.097 5.78168 171.38 5.39847 171.715 5.07414C171.857 4.93691 171.837 4.70102 171.669 4.59624C171.051 4.20877 170.166 3.85609 168.976 3.92844C166.502 4.07872 164.566 6.21757 164.64 8.69482C164.716 11.2689 166.632 13.0984 169.302 13.0984C170.323 13.0984 171.138 12.7534 171.679 12.4096C171.85 12.3011 171.873 12.0624 171.725 11.9247C171.384 11.6083 171.101 11.2365 170.882 10.8188Z" fill="#2B2B2B"/>
<path d="M139.053 10.8188C139.013 10.7431 138.923 10.7138 138.847 10.7519C138.499 10.9246 138.08 11.0584 137.607 11.0584C136.152 11.0584 135.116 10.005 135.116 8.517C135.116 7.11242 136.035 5.95877 137.524 5.95877C138.051 5.95877 138.487 6.09806 138.838 6.28099C138.916 6.32171 139.009 6.29226 139.049 6.2138C139.269 5.78168 139.551 5.39847 139.886 5.07414C140.028 4.93691 140.008 4.70102 139.841 4.59624C139.222 4.20877 138.337 3.85609 137.147 3.92844C134.673 4.07872 132.737 6.21757 132.811 8.69482C132.888 11.2689 134.803 13.0984 137.473 13.0984C138.494 13.0984 139.309 12.7534 139.85 12.4096C140.021 12.3011 140.044 12.0624 139.896 11.9247C139.555 11.6083 139.272 11.2365 139.053 10.8188Z" fill="#2B2B2B"/>
<path d="M187.121 8.58387C187.121 5.72466 185.583 3.91895 182.874 3.91895C180.383 3.91895 178.594 5.8919 178.594 8.5337C178.594 11.1588 180.383 13.0983 183.192 13.0983C185.096 13.0983 186.23 12.0979 186.707 11.4339C186.806 11.2961 186.779 11.1061 186.644 11.0036L185.473 10.1159C185.407 10.0658 185.313 10.0749 185.262 10.1397C184.958 10.5217 184.295 11.0919 183.226 11.0919C181.938 11.0919 181.002 10.2558 180.952 9.08549H186.81C186.978 9.08549 187.118 8.95167 187.12 8.78379C187.121 8.71716 187.121 8.65053 187.121 8.58387ZM181.018 7.58058C181.119 6.57734 181.821 5.80828 182.908 5.80828C183.961 5.80828 184.73 6.51047 184.78 7.58058H181.018Z" fill="#2B2B2B"/>
<path d="M149.093 8.58387C149.093 5.72466 147.554 3.91895 144.846 3.91895C142.354 3.91895 140.565 5.8919 140.565 8.5337C140.565 11.1588 142.354 13.0983 145.163 13.0983C147.067 13.0983 148.201 12.0979 148.678 11.4339C148.777 11.2961 148.75 11.1061 148.615 11.0036L147.444 10.1159C147.378 10.0658 147.285 10.0749 147.233 10.1397C146.929 10.5217 146.267 11.0919 145.197 11.0919C143.909 11.0919 142.973 10.2558 142.923 9.08549H148.782C148.95 9.08549 149.089 8.95167 149.092 8.78379C149.093 8.71716 149.093 8.65053 149.093 8.58387ZM142.99 7.58058C143.09 6.57734 143.792 5.80828 144.879 5.80828C145.933 5.80828 146.702 6.51047 146.752 7.58058H142.99Z" fill="#2B2B2B"/>
<path d="M224.998 8.58387C224.998 5.72466 223.459 3.91895 220.751 3.91895C218.259 3.91895 216.47 5.8919 216.47 8.5337C216.47 11.1588 218.259 13.0983 221.068 13.0983C222.972 13.0983 224.106 12.0979 224.583 11.4339C224.682 11.2961 224.655 11.1061 224.52 11.0036L223.349 10.1159C223.283 10.0658 223.189 10.0749 223.138 10.1397C222.834 10.5217 222.172 11.0919 221.102 11.0919C219.814 11.0919 218.878 10.2558 218.828 9.08549H224.687C224.854 9.08549 224.994 8.95167 224.997 8.78379C224.998 8.71716 224.998 8.65053 224.998 8.58387ZM218.895 7.58058C218.995 6.57734 219.697 5.80828 220.784 5.80828C221.837 5.80828 222.607 6.51047 222.657 7.58058H218.895Z" fill="#2B2B2B"/>
<path d="M113.549 3.82647H115.343C115.464 3.82647 115.562 3.92468 115.562 4.04581V4.77132C115.803 4.46215 116.696 3.60327 118.225 3.60327C120.801 3.60327 122.622 5.56146 122.622 8.30984C122.622 11.0926 120.939 13.0336 118.362 13.0336C116.816 13.0336 115.923 12.1747 115.7 11.8827V15.8031C115.7 15.9242 115.602 16.0225 115.48 16.0225H113.549C113.428 16.0225 113.329 15.9242 113.329 15.8031V4.04581C113.329 3.92468 113.428 3.82647 113.549 3.82647ZM117.933 10.9379C119.307 10.9379 120.234 9.85566 120.234 8.29265C120.234 6.69512 119.273 5.69881 117.933 5.69881C116.49 5.69881 115.631 6.86686 115.631 8.29265C115.631 9.97602 116.627 10.9379 117.933 10.9379Z" fill="#2B2B2B"/>
</svg>
