<?xml version="1.0" encoding="UTF-8"?> <svg xmlns="http://www.w3.org/2000/svg" xmlns:xlink="http://www.w3.org/1999/xlink" width="1440px" height="676px" viewBox="0 0 1440 676" version="1.1"><title>patient satisfaction s curve</title><g id="4-main-pages" stroke="none" stroke-width="1" fill="none" fill-rule="evenodd"><g id="US-Surgeons" transform="translate(0.000000, -2629.000000)" fill="#FF8300"><g id="patient-satisfaction-s-curve" transform="translate(0.000000, 2594.000000)"><g id="S-Curve" transform="translate(1028.272265, 438.216591) scale(-1, 1) rotate(8.000000) translate(-1028.272265, -438.216591) translate(-151.227735, -228.283409)"><path d="M2067.17193,460.410496 C1968.24566,378.632067 1842.30448,327.001874 1712.56757,332.912735 C1649.08301,335.80511 1586.90303,353.282761 1532.27246,385.985725 C1477.25677,418.920568 1431.21711,464.497519 1389.21863,512.459696 C1344.57305,563.443071 1303.37467,617.302549 1258.07816,667.738095 C1210.18471,721.06466 1159.11934,771.631739 1104.26773,817.809403 C1049.13405,864.225726 990.039197,907.346938 926.172223,941.012671 C877.463756,966.688776 826.761819,983.950821 772.658778,993.718183 C740.863614,999.458185 709.077942,1004.70596 676.753898,1006.2952 C632.901631,1008.45126 588.90155,1004.44424 546.478615,992.934407 C491.52801,978.025045 440.488404,950.927838 395.779081,915.839647 C333.628932,867.062505 283.360948,804.543529 241.523849,737.921257 C179.566266,639.261823 134.49622,530.563825 97.8814697,420.273869 C86.6841365,386.544403 76.3330108,352.54509 66.6097604,318.364072 C64.4657633,310.821928 52.6853063,314.027542 54.8415083,321.607655 C89.5170333,443.507794 132.247803,564.173962 191.862042,676.301316 C232.583069,752.89164 281.823128,826.406525 344.354342,887.00132 C388.78702,930.057443 440.137174,966.009414 497.622332,989.319277 C541.934317,1007.28645 589.297531,1017.00635 637.052659,1018.77323 C673.960328,1020.14009 710.759508,1016.57649 747.143722,1010.56393 C761.384147,1008.20989 775.594739,1005.61448 789.794482,1003.0245 C859.220117,990.360694 924.025514,959.35139 983.356327,921.957977 C1103.91514,845.975148 1208.4489,745.902749 1300.47533,637.722748 C1384.82215,538.571082 1464.09987,420.783729 1589.86882,370.950254 C1714.06877,321.740544 1857.61893,345.476195 1971.97494,409.363388 C2089.22486,474.865594 2177.99122,581.703141 2246.3157,695.385843 C2262.97677,723.108171 2278.53533,751.471894 2293.30735,780.242421 C2296.89559,787.229955 2307.43115,781.062809 2303.84561,774.082054 C2243.88964,657.314423 2169.16571,544.724668 2067.17193,460.410496 Z" id="Fill-1" transform="translate(1179.579162, 666.564414) scale(1, -1) rotate(197.000000) translate(-1179.579162, -666.564414) "></path></g></g></g></g></svg> 