<?xml version="1.0" encoding="UTF-8"?>
<svg width="1919" height="525" viewBox="0 0 1919 525" fill="none" xmlns="http://www.w3.org/2000/svg">
<g clip-path="url(#clip0_3121_122)">
<g filter="url(#filter0_d_3121_122)">
<path d="M378.56 198C468.891 198 542.12 271.425 542.12 362C542.12 362 541.369 386.63 570.607 388.398C939.121 365.605 1347.86 261.994 1579.48 271.631C1769.45 279.534 1868.98 294.391 1921 307.214V526H0V308.368C17.522 314.265 36.7163 321.627 57.7129 330.599C98.7945 348.152 143.499 361.409 191.039 371.076C203.12 373.141 214.571 374.002 215 362C215 271.425 288.228 198 378.56 198Z" fill="white"/>
</g>
<path d="M419.855 333.181C415.83 321.738 429.142 313.48 423.777 301.255C418.417 289.018 407.325 298.357 401.183 305.177C394.444 302.146 386.491 300.657 379.205 299.794C371.931 298.937 364.403 303.848 357.756 304.688C351.108 305.527 349.009 294.124 341.43 295.223C333.857 296.327 331.511 305.959 333.345 312.646C335.179 319.34 340.096 325.729 338.94 332.572C343.035 321.485 331.505 314.86 335.841 303.331C340.182 291.813 350.033 302.307 355.743 308.299C370.223 301.335 387.336 301.404 401.799 308.299C407.497 301.784 418.435 292.52 421.85 304.429C425.266 316.338 412.943 323.014 419.844 333.198L419.855 333.181Z" fill="#DC5829"/>
<path d="M350.768 313.268C349.526 308.949 346.105 304.131 341.43 303.308C348.618 306.937 346.766 314.326 343.92 320.111C346.099 317.989 347.393 314.315 350.768 313.262V313.268Z" fill="#DC5829"/>
<path d="M416.12 303.308C411.451 304.113 408.041 308.949 406.781 313.268C410.117 314.297 411.468 317.96 413.63 320.117C410.812 314.297 408.886 306.989 416.12 303.314V303.308Z" fill="#DC5829"/>
<path d="M400.556 313.889C388.526 304.05 369.17 304.154 356.99 313.889C363.592 312.463 370.038 310.496 376.91 310.157C377.186 313.36 376.542 321.1 376.91 323.849C377.278 326.597 375.392 335.12 378.727 335.005C382.057 334.878 380.308 325.942 380.642 323.228C380.975 320.513 380.389 313.279 380.642 310.157C387.537 310.433 394.023 312.336 400.561 313.889H400.556Z" fill="#DC5829"/>
<path d="M378.773 338.161C374.748 333.705 371.488 326.948 365.547 324.004C359.601 321.059 354.156 326.752 349.987 332.405C345.823 338.063 345.737 346.016 348.411 353.584C351.085 361.146 361.666 359.656 369.435 359.323C367.014 367.574 358.906 373.101 356.364 381.105C349.245 379.748 342.011 370.536 352.005 366.792C341.476 367.603 335.495 357.592 335.823 348.121C334.719 356.528 337.784 366.516 347.025 368.04C340.452 376.068 352.045 382.353 358.848 382.98C361.718 369.852 378.405 359.041 371.298 343.768C372.454 348.351 371.424 352.94 370.677 357.46C365.007 356.7 354.731 359.886 352.206 354.147C349.682 348.408 349.331 341.962 351.821 336.735C354.305 331.502 358.313 328.966 363.213 326.965C369.101 332.399 375.812 338.541 378.152 346.258C382.408 340.001 387.652 332.14 394.334 326.965C399.251 328.886 403.638 331.882 405.967 337.115C408.302 342.342 407.762 349.139 405.105 354.538C402.454 359.938 392.35 356.557 386.87 357.465C385.645 353.02 385.985 347.799 385.628 343.774C379.964 359.622 395.559 369.731 398.699 382.986C405.513 382.353 417.089 376.097 410.522 368.046C419.51 366.695 423.616 355.959 421.103 348.127C422.77 358.173 415.565 367.396 405.542 366.798C415.484 370.507 408.383 379.754 401.183 381.111C398.664 373.152 390.533 367.569 388.112 359.328C396.082 359.863 406.749 360.985 409.32 353.147C411.89 345.309 411.655 337.776 407.359 331.991C403.063 326.218 397.526 321.1 391.66 324.285C385.789 327.471 382.799 333.365 378.779 338.167L378.773 338.161Z" fill="#DC5829"/>
<path d="M365.081 340.029C363.689 336.452 364.247 329.719 358.905 331.363C353.557 333.008 355.714 338.827 359.48 340.029C356.91 338.051 355.668 332.858 360.095 332.565C364.529 332.272 361.205 338.879 365.081 340.029Z" fill="#DC5829"/>
<path d="M397.447 340.65C401.207 339.276 403.956 332.795 398.119 331.271C392.277 329.748 394.146 336.809 391.846 340.029C395.635 339.357 392.852 330.898 398.022 332.611C403.18 334.325 398.93 338.31 397.447 340.65Z" fill="#DC5829"/>
<path d="M340.811 333.803C335.049 339.748 329.672 347.431 330.23 356.206C324.957 355.131 327.504 360.042 326.475 363.659C325.446 367.281 320.069 366.35 320.27 361.813C316.952 368.322 324.031 372.319 329.138 375.97C334.25 379.622 335.733 387.517 337.073 392.928C336.952 391.37 337.384 389.616 338.315 388.569C344.969 404.118 366.28 391.341 373.79 405.372C370.322 394.636 357.752 396.482 348.896 395.412C350.771 390.11 358.798 390.392 360.719 386.7C357.096 388.201 353.128 388.213 350.575 392.117C348.028 396.022 344.296 393.658 341.582 390.904C338.867 388.15 338.908 380.139 336.446 385.458C335.998 376.355 326.021 373.578 321.507 367.408C326.711 369.829 330.081 362.117 327.729 358.069C329.333 356.534 330.541 358.535 332.088 358.69C329.23 349.231 336.446 341.215 340.799 333.797L340.811 333.803Z" fill="#DC5829"/>
<path d="M427.324 356.212C427.824 347.546 422.436 339.237 416.743 333.808C421.372 341.198 428.14 349.329 425.455 358.702C427.019 358.679 428.232 356.413 429.814 358.081C427.456 362.118 430.849 369.84 436.036 367.419C434.006 371.117 429.153 373.417 425.921 375.976C422.695 378.541 421.683 387.592 419.227 382.98C419.285 386.321 414.397 395.734 409.94 394.757C405.484 393.779 402.718 385.55 396.818 386.718C398.779 390.438 406.737 390.111 408.641 395.43C399.239 396.332 386.806 394.97 383.12 406.01C386.697 399.53 394.408 397.017 401.792 397.92C409.175 398.822 415.616 394.55 419.222 388.581C420.251 389.576 420.515 391.422 420.464 392.94C421.775 387.471 423.431 379.254 428.71 375.666C433.989 372.083 440.406 368.253 437.266 361.819C437.56 366.758 431.441 367.126 430.906 363.199C430.372 359.271 432.246 355.367 427.307 356.218L427.324 356.212Z" fill="#DC5829"/>
<path d="M323.998 346.252C323.855 348.885 324.125 351.496 323.377 353.722C321.48 359.748 320.853 348.954 322.135 346.873C316.758 349.967 315.62 357.931 314.665 364.302C313.711 370.668 319.369 376.102 323.377 380.484C321.554 380.622 320.122 379.409 318.397 379.242C320.381 382.008 324.499 382.169 327.736 382.353C319.973 374.917 312.06 364.158 319.645 353.722C319.122 359.575 325.626 357.862 325.039 353.515C324.447 349.179 324.97 345.631 324.619 341.893C324.067 343.336 324.085 344.676 323.998 346.252Z" fill="#DC5829"/>
<path d="M432.929 341.893C432.55 345.671 433.021 349.621 432.722 353.923C432.423 358.218 438.364 359.161 437.909 353.716C440.825 358.431 441.86 365.705 439.341 370.708C436.828 375.717 431.958 377.827 429.818 382.347C433.085 382.163 437.144 381.99 439.157 379.236C437.403 379.386 435.989 380.628 434.177 380.478C438.053 376.062 443.867 370.668 442.889 364.297C441.906 357.925 440.802 349.944 435.419 346.867C435.626 349.719 437.415 354.113 434.798 356.206C433.464 351.64 434.775 346.332 432.929 341.893Z" fill="#DC5829"/>
<path d="M369.442 350.611C369.568 342.687 358.033 341.014 353.26 345.01C357.935 342.831 356.532 348.593 359.677 350.421C362.823 352.244 366.101 351.019 369.442 350.617M361.972 343.762C365.951 343.297 368.159 349.208 363.697 350.467C359.234 351.727 357.877 344.251 361.972 343.762Z" fill="#DC5829"/>
<path d="M404.293 345.01C399.095 340.858 388.606 342.963 387.49 350.611C391.033 350.892 394.696 352.497 397.916 350.455C401.142 348.414 399.572 342.917 404.293 345.01ZM396.823 343.762C400.061 345.24 397.197 352.514 393.045 350.03C388.888 347.551 393.442 342.226 396.823 343.762Z" fill="#DC5829"/>
<path d="M363.838 345.631C362.476 345.809 362.677 347.004 361.971 348.119C363.534 348.619 365.252 346.941 363.838 345.631Z" fill="#DC5829"/>
<path d="M395.584 348.119C394.957 346.906 394.934 345.803 393.716 345.631C392.423 346.975 393.94 348.624 395.584 348.119Z" fill="#DC5829"/>
<path d="M323.379 353.722C324.126 351.502 323.856 348.886 324 346.252C323.672 348.271 323.804 351.387 323.379 353.722Z" fill="#DC5829"/>
<path d="M371.303 374.883C367.197 377.217 371.199 382.036 375.035 380.483C375.575 381.961 375.575 384.727 377.525 384.842C376.495 383.497 377.594 378.885 375.035 378.62C372.476 378.35 369.307 378.494 371.303 374.888V374.883Z" fill="#DC5829"/>
<path d="M382.51 380.483C386.357 381.996 390.354 377.234 386.242 374.883C388.129 378.385 385.184 378.477 382.556 378.666C379.934 378.862 381.05 383.462 380.015 384.842C382.056 384.733 381.907 381.927 382.505 380.483H382.51Z" fill="#DC5829"/>
<path d="M371.304 404.757C363.086 397.316 349.768 402.531 340.194 399.144C330.625 395.752 326.956 388.104 320.263 381.732C326.013 389.466 330.084 396.516 339.515 400.45C348.94 404.389 361.706 400.438 371.304 404.762V404.757Z" fill="#DC5829"/>
<path d="M437.28 381.726C430.736 388.155 426.498 396.177 416.878 399.288C407.263 402.404 394.451 397.373 386.245 404.75C395.889 400.426 409.097 404.434 418.465 400.248C427.832 396.067 431.455 389.483 437.28 381.72V381.726Z" fill="#DC5829"/>
<path d="M358.861 384.216C354.197 384.906 348.982 386.091 345.79 389.817C347.86 388.794 350.068 387.845 352.219 386.913C354.364 385.982 358.941 387.149 358.861 384.216Z" fill="#DC5829"/>
<path d="M371.93 386.085C368.814 385.038 364.633 385.522 361.35 384.216C363.621 387.408 368.549 387.103 371.93 386.085Z" fill="#DC5829"/>
<path d="M396.203 384.216C392.868 385.487 388.808 385.073 385.622 386.085C389.026 387.097 393.903 387.413 396.203 384.216Z" fill="#DC5829"/>
<path d="M411.762 389.817C408.6 386.097 403.315 384.906 398.691 384.216C398.611 387.287 403.24 385.884 405.402 386.844C407.553 387.81 409.663 388.857 411.762 389.817Z" fill="#DC5829"/>
<path d="M374.423 389.196C371.271 389.248 366.59 389.242 363.221 389.817C366.953 391.347 371.001 391.232 374.423 389.196Z" fill="#DC5829"/>
<path d="M394.333 389.817C390.998 389.19 386.294 389.294 383.131 389.196C386.564 391.22 390.624 391.364 394.333 389.817Z" fill="#DC5829"/>
<path d="M379.395 389.196C375.801 392.658 370.735 392.865 366.324 393.555C369.867 394.596 375.41 396.407 378.147 392.934C382.282 395.194 387.486 395.452 391.839 393.555C387.957 392.267 381.925 393.848 379.389 389.196H379.395Z" fill="#DC5829"/>
<path d="M362.591 389.816C360.084 389.828 357.761 392.64 356.99 394.796C358.652 392.968 361.763 391.956 362.591 389.816Z" fill="#DC5829"/>
<path d="M400.557 394.796C399.827 392.646 397.446 389.851 394.956 389.816C395.778 392.042 398.878 392.864 400.557 394.796Z" fill="#DC5829"/>
<path d="M352.635 409.116C342.6 411.726 333.072 402.785 327.114 395.424C329.777 402.054 335.677 406.781 341.427 410.364C339.616 410.72 336.741 409.432 335.826 411.606C348.88 411.203 353.969 429.213 366.948 427.787C356.131 427.235 351.864 414.659 342.675 411.606C351.042 406.292 355.815 418.644 363.837 415.338C359.972 415.424 356.93 413.015 353.877 410.979C355.861 405.85 344.538 401.882 340.185 403.509C344.601 404.314 349.806 405.165 352.635 409.11V409.116Z" fill="#DC5829"/>
<path d="M430.434 395.424C424.517 402.767 414.896 411.738 404.913 409.116C407.61 404.791 413.51 404.952 417.363 402.894C412.458 402.9 401.526 405.372 403.671 410.985C400.647 412.992 397.553 415.453 393.712 415.343C401.647 418.644 406.731 406.264 414.873 411.611C405.857 415.056 400.9 426.695 390.601 428.414C404.057 428.161 408.525 411.629 421.722 411.611C420.837 409.415 417.933 410.714 416.121 410.369C421.849 406.798 427.766 402.083 430.434 395.43V395.424Z" fill="#DC5829"/>
<path d="M419.855 333.181C415.83 321.738 429.142 313.48 423.777 301.255C418.417 289.018 407.325 298.357 401.183 305.177C394.444 302.146 386.491 300.657 379.205 299.794C371.931 298.937 364.403 303.848 357.756 304.688C351.108 305.527 349.009 294.124 341.43 295.223C333.857 296.327 331.511 305.959 333.345 312.646C335.179 319.34 340.096 325.729 338.94 332.572C343.035 321.485 331.505 314.86 335.841 303.331C340.182 291.813 350.033 302.307 355.743 308.299C370.223 301.335 387.336 301.404 401.799 308.299C407.497 301.784 418.435 292.52 421.85 304.429C425.266 316.338 412.943 323.014 419.844 333.198L419.855 333.181Z" fill="#DC5829"/>
<path opacity="0.99" d="M350.768 313.268C349.526 308.949 346.105 304.131 341.43 303.308C348.618 306.937 346.766 314.326 343.92 320.111C346.099 317.989 347.393 314.315 350.768 313.262V313.268Z" fill="#DC5829"/>
<path opacity="0.99" d="M416.12 303.308C411.451 304.113 408.041 308.949 406.781 313.268C410.117 314.297 411.468 317.96 413.63 320.117C410.812 314.297 408.886 306.989 416.12 303.314V303.308Z" fill="#DC5829"/>
<path d="M400.556 313.889C388.526 304.05 369.17 304.154 356.99 313.889C363.592 312.463 370.038 310.496 376.91 310.157C377.186 313.36 376.542 321.1 376.91 323.849C377.278 326.597 375.392 335.12 378.727 335.005C382.057 334.878 380.308 325.942 380.642 323.228C380.975 320.513 380.389 313.279 380.642 310.157C387.537 310.433 394.023 312.336 400.561 313.889H400.556Z" fill="#DC5829"/>
<path d="M378.773 338.161C374.748 333.705 371.488 326.948 365.547 324.004C359.601 321.059 354.156 326.752 349.987 332.405C345.823 338.063 345.737 346.016 348.411 353.584C351.085 361.146 361.666 359.656 369.435 359.323C367.014 367.574 358.906 373.101 356.364 381.105C349.245 379.748 342.011 370.536 352.005 366.792C341.476 367.603 335.495 357.592 335.823 348.121C334.719 356.528 337.784 366.516 347.025 368.04C340.452 376.068 352.045 382.353 358.848 382.98C361.718 369.852 378.405 359.041 371.298 343.768C372.454 348.351 371.424 352.94 370.677 357.46C365.007 356.7 354.731 359.886 352.206 354.147C349.682 348.408 349.331 341.962 351.821 336.735C354.305 331.502 358.313 328.966 363.213 326.965C369.101 332.399 375.812 338.541 378.152 346.258C382.408 340.001 387.652 332.14 394.334 326.965C399.251 328.886 403.638 331.882 405.967 337.115C408.302 342.342 407.762 349.139 405.105 354.538C402.454 359.938 392.35 356.557 386.87 357.465C385.645 353.02 385.985 347.799 385.628 343.774C379.964 359.622 395.559 369.731 398.699 382.986C405.513 382.353 417.089 376.097 410.522 368.046C419.51 366.695 423.616 355.959 421.103 348.127C422.77 358.173 415.565 367.396 405.542 366.798C415.484 370.507 408.383 379.754 401.183 381.111C398.664 373.152 390.533 367.569 388.112 359.328C396.082 359.863 406.749 360.985 409.32 353.147C411.89 345.309 411.655 337.776 407.359 331.991C403.063 326.218 397.526 321.1 391.66 324.285C385.789 327.471 382.799 333.365 378.779 338.167L378.773 338.161Z" fill="#DC5829"/>
<path opacity="0.98" d="M365.081 340.029C363.689 336.452 364.247 329.719 358.905 331.363C353.557 333.008 355.714 338.827 359.48 340.029C356.91 338.051 355.668 332.858 360.095 332.565C364.529 332.272 361.205 338.879 365.081 340.029Z" fill="#DC5829"/>
<path opacity="0.94" d="M397.447 340.65C401.207 339.276 403.956 332.795 398.119 331.271C392.277 329.748 394.146 336.809 391.846 340.029C395.635 339.357 392.852 330.898 398.022 332.611C403.18 334.325 398.93 338.31 397.447 340.65Z" fill="#DC5829"/>
<path opacity="0.98" d="M340.811 333.803C335.049 339.748 329.672 347.431 330.23 356.206C324.957 355.131 327.504 360.042 326.475 363.659C325.446 367.281 320.069 366.35 320.27 361.813C316.952 368.322 324.031 372.319 329.138 375.97C334.25 379.622 335.733 387.517 337.073 392.928C336.952 391.37 337.384 389.616 338.315 388.569C344.969 404.118 366.28 391.341 373.79 405.372C370.322 394.636 357.752 396.482 348.896 395.412C350.771 390.11 358.798 390.392 360.719 386.7C357.096 388.201 353.128 388.213 350.575 392.117C348.028 396.022 344.296 393.658 341.582 390.904C338.867 388.15 338.908 380.139 336.446 385.458C335.998 376.355 326.021 373.578 321.507 367.408C326.711 369.829 330.081 362.117 327.729 358.069C329.333 356.534 330.541 358.535 332.088 358.69C329.23 349.231 336.446 341.215 340.799 333.797L340.811 333.803Z" fill="#DC5829"/>
<path opacity="0.98" d="M427.324 356.212C427.824 347.546 422.436 339.237 416.743 333.808C421.372 341.198 428.14 349.329 425.455 358.702C427.019 358.679 428.232 356.413 429.814 358.081C427.456 362.118 430.849 369.84 436.036 367.419C434.006 371.117 429.153 373.417 425.921 375.976C422.695 378.541 421.683 387.592 419.227 382.98C419.285 386.321 414.397 395.734 409.94 394.757C405.484 393.779 402.718 385.55 396.818 386.718C398.779 390.438 406.737 390.111 408.641 395.43C399.239 396.332 386.806 394.97 383.12 406.01C386.697 399.53 394.408 397.017 401.792 397.92C409.175 398.822 415.616 394.55 419.222 388.581C420.251 389.576 420.515 391.422 420.464 392.94C421.775 387.471 423.431 379.254 428.71 375.666C433.989 372.083 440.406 368.253 437.266 361.819C437.56 366.758 431.441 367.126 430.906 363.199C430.372 359.271 432.246 355.367 427.307 356.218L427.324 356.212Z" fill="#DC5829"/>
<path d="M323.998 346.252C323.855 348.885 324.125 351.496 323.377 353.722C321.48 359.748 320.853 348.954 322.135 346.873C316.758 349.967 315.62 357.931 314.665 364.302C313.711 370.668 319.369 376.102 323.377 380.484C321.554 380.622 320.122 379.409 318.397 379.242C320.381 382.008 324.499 382.169 327.736 382.353C319.973 374.917 312.06 364.158 319.645 353.722C319.122 359.575 325.626 357.862 325.039 353.515C324.447 349.179 324.97 345.631 324.619 341.893C324.067 343.336 324.085 344.676 323.998 346.252Z" fill="#DC5829"/>
<path d="M432.929 341.893C432.55 345.671 433.021 349.621 432.722 353.923C432.423 358.218 438.364 359.161 437.909 353.716C440.825 358.431 441.86 365.705 439.341 370.708C436.828 375.717 431.958 377.827 429.818 382.347C433.085 382.163 437.144 381.99 439.157 379.236C437.403 379.386 435.989 380.628 434.177 380.478C438.053 376.062 443.867 370.668 442.889 364.297C441.906 357.925 440.802 349.944 435.419 346.867C435.626 349.719 437.415 354.113 434.798 356.206C433.464 351.64 434.775 346.332 432.929 341.893Z" fill="#DC5829"/>
<path d="M387.485 350.611C391.028 350.892 394.691 352.497 397.911 350.455C401.137 348.414 399.567 342.917 404.288 345.01C399.09 340.858 388.601 342.963 387.485 350.611ZM393.046 350.03C388.888 347.551 393.443 342.226 396.824 343.762C400.062 345.24 397.198 352.514 393.046 350.03Z" fill="#DC5829"/>
<path d="M363.838 345.631C362.476 345.809 362.677 347.004 361.971 348.119C363.534 348.619 365.252 346.941 363.838 345.631Z" fill="#DC5829"/>
<path d="M395.584 348.119C394.957 346.906 394.934 345.803 393.716 345.631C392.423 346.975 393.94 348.624 395.584 348.119Z" fill="#DC5829"/>
<path d="M323.379 353.722C324.126 351.502 323.856 348.886 324 346.252C323.672 348.271 323.804 351.387 323.379 353.722Z" fill="#DC5829"/>
<path d="M371.303 374.883C367.197 377.217 371.199 382.036 375.035 380.483C375.575 381.961 375.575 384.727 377.525 384.842C376.495 383.497 377.594 378.885 375.035 378.62C372.476 378.35 369.307 378.494 371.303 374.888V374.883Z" fill="#DC5829"/>
<path d="M382.51 380.483C386.357 381.996 390.354 377.234 386.242 374.883C388.129 378.385 385.184 378.477 382.556 378.666C379.934 378.862 381.05 383.462 380.015 384.842C382.056 384.733 381.907 381.927 382.505 380.483H382.51Z" fill="#DC5829"/>
<path opacity="0.97" d="M371.304 404.757C363.086 397.316 349.768 402.531 340.194 399.144C330.625 395.752 326.956 388.104 320.263 381.732C326.013 389.466 330.084 396.516 339.515 400.45C348.94 404.389 361.706 400.438 371.304 404.762V404.757Z" fill="#DC5829"/>
<path opacity="0.97" d="M437.28 381.726C430.736 388.155 426.498 396.177 416.878 399.288C407.263 402.404 394.451 397.373 386.245 404.75C395.889 400.426 409.097 404.434 418.465 400.248C427.832 396.067 431.455 389.483 437.28 381.72V381.726Z" fill="#DC5829"/>
<path opacity="0.93" d="M358.861 384.216C354.197 384.906 348.982 386.091 345.79 389.817C347.86 388.794 350.068 387.845 352.219 386.913C354.364 385.982 358.941 387.149 358.861 384.216Z" fill="#DC5829"/>
<path d="M371.93 386.085C368.814 385.038 364.633 385.522 361.35 384.216C363.621 387.408 368.549 387.103 371.93 386.085Z" fill="#DC5829"/>
<path d="M396.203 384.216C392.868 385.487 388.808 385.073 385.622 386.085C389.026 387.097 393.903 387.413 396.203 384.216Z" fill="#DC5829"/>
<path opacity="0.93" d="M411.762 389.817C408.6 386.097 403.315 384.906 398.691 384.216C398.611 387.287 403.24 385.884 405.402 386.844C407.553 387.81 409.663 388.857 411.762 389.817Z" fill="#DC5829"/>
<path d="M374.423 389.196C371.271 389.248 366.59 389.242 363.221 389.817C366.953 391.347 371.001 391.232 374.423 389.196Z" fill="#DC5829"/>
<path d="M394.333 389.817C390.998 389.19 386.294 389.294 383.131 389.196C386.564 391.22 390.624 391.364 394.333 389.817Z" fill="#DC5829"/>
<path d="M379.395 389.196C375.801 392.658 370.735 392.865 366.324 393.555C369.867 394.596 375.41 396.407 378.147 392.934C382.282 395.194 387.486 395.452 391.839 393.555C387.957 392.267 381.925 393.848 379.389 389.196H379.395Z" fill="#DC5829"/>
<path d="M362.591 389.816C360.084 389.828 357.761 392.64 356.99 394.796C358.652 392.968 361.763 391.956 362.591 389.816Z" fill="#DC5829"/>
<path d="M400.557 394.796C399.827 392.646 397.446 389.851 394.956 389.816C395.778 392.042 398.878 392.864 400.557 394.796Z" fill="#DC5829"/>
<path d="M352.635 409.116C342.6 411.726 333.072 402.785 327.114 395.424C329.777 402.054 335.677 406.781 341.427 410.364C339.616 410.72 336.741 409.432 335.826 411.606C348.88 411.203 353.969 429.213 366.948 427.787C356.131 427.235 351.864 414.659 342.675 411.606C351.042 406.292 355.815 418.644 363.837 415.338C359.972 415.424 356.93 413.015 353.877 410.979C355.861 405.85 344.538 401.882 340.185 403.509C344.601 404.314 349.806 405.165 352.635 409.11V409.116Z" fill="#DC5829"/>
<path d="M430.434 395.424C424.517 402.767 414.896 411.738 404.913 409.116C407.61 404.791 413.51 404.952 417.363 402.894C412.458 402.9 401.526 405.372 403.671 410.985C400.647 412.992 397.553 415.453 393.712 415.343C401.647 418.644 406.731 406.264 414.873 411.611C405.857 415.056 400.9 426.695 390.601 428.414C404.057 428.161 408.525 411.629 421.722 411.611C420.837 409.415 417.933 410.714 416.121 410.369C421.849 406.798 427.766 402.083 430.434 395.43V395.424Z" fill="#DC5829"/>
<path d="M353.26 345.01C357.935 342.831 356.532 348.593 359.677 350.421C362.823 352.25 366.101 351.019 369.442 350.617C369.568 342.693 358.033 341.019 353.26 345.016V345.01ZM363.697 350.467C359.234 351.727 357.877 344.251 361.972 343.762C365.951 343.297 368.159 349.208 363.697 350.467Z" fill="#DC5829"/>
<path d="M378.772 457.793C325.828 457.793 282.757 414.722 282.757 361.778C282.757 308.834 325.828 265.758 378.772 265.758C431.717 265.758 474.788 308.829 474.788 361.773C474.788 414.717 431.717 457.787 378.772 457.787V457.793ZM378.772 268.53C327.357 268.53 285.529 310.358 285.529 361.773C285.529 413.187 327.357 455.015 378.772 455.015C430.187 455.015 472.016 413.187 472.016 361.773C472.016 310.358 430.187 268.53 378.772 268.53Z" fill="#101820"/>
<path d="M378.774 506.55C298.946 506.55 234 441.605 234 361.772C234 281.939 298.946 217 378.774 217C458.602 217 523.547 281.945 523.547 361.772C523.547 441.599 458.602 506.544 378.774 506.544V506.55ZM378.774 222.543C302.005 222.543 239.543 285.004 239.543 361.772C239.543 438.54 301.999 501.001 378.774 501.001C455.548 501.001 518.004 438.546 518.004 361.772C518.004 284.999 455.548 222.543 378.774 222.543Z" fill="#101820"/>
<path d="M260.239 391.289C261.992 391.289 263.413 389.868 263.413 388.115C263.413 386.361 261.992 384.94 260.239 384.94C258.486 384.94 257.064 386.361 257.064 388.115C257.064 389.868 258.486 391.289 260.239 391.289Z" fill="#101820"/>
<path d="M497.314 391.289C499.067 391.289 500.488 389.868 500.488 388.115C500.488 386.361 499.067 384.94 497.314 384.94C495.561 384.94 494.14 386.361 494.14 388.115C494.14 389.868 495.561 391.289 497.314 391.289Z" fill="#101820"/>
<path d="M382.342 410.012H375.217C374.759 410.012 374.389 410.383 374.389 410.84V432.266C374.389 432.723 374.759 433.094 375.217 433.094H382.342C382.799 433.094 383.17 432.723 383.17 432.266V410.84C383.17 410.383 382.799 410.012 382.342 410.012Z" fill="#101820"/>
<path d="M390.318 425.119V417.994C390.318 417.537 389.948 417.166 389.49 417.166H368.064C367.607 417.166 367.236 417.537 367.236 417.994V425.119C367.236 425.576 367.607 425.947 368.064 425.947H389.49C389.948 425.947 390.318 425.576 390.318 425.119Z" fill="#101820"/>
<path d="M273.046 370.714L253.31 371.571L253.638 379.144L250.619 379.277L249.733 358.817L252.752 358.684L253.08 366.258L272.816 365.401L273.046 370.714Z" fill="#101820"/>
<path d="M273.094 355.498L250.426 353.21L250.961 347.885L273.629 350.173L273.094 355.498Z" fill="#101820"/>
<path d="M271.772 343.474C269.477 344.751 266.343 344.843 262.444 343.733C257.574 342.347 254.837 339.668 254.198 335.694C253.566 331.721 254.785 326.045 257.855 318.713L260.731 319.53C255.567 332.388 256.504 336.677 263.859 338.771C266.855 339.622 269.19 339.696 270.806 338.949C272.427 338.201 273.618 336.413 274.428 333.566C274.986 331.6 275.239 329.673 275.159 327.787C275.095 327.086 274.94 326.838 274.331 326.672L269.552 325.309L267.539 332.388L264.785 331.606L268.178 319.685L279.011 322.767C278.735 323.733 278.471 325.591 278.206 328.362C277.913 331.123 277.539 333.342 277.062 335.033C275.831 339.357 274.083 342.169 271.783 343.474H271.772Z" fill="#101820"/>
<path d="M283.249 317.322C282.283 319.053 281.167 319.369 279.413 318.386L264.473 310.03C262.714 309.047 262.403 307.932 263.369 306.206L271.299 292.037L273.939 293.515L267.699 304.665C267.395 305.212 267.515 305.643 268.062 305.948L272.702 308.547L279.08 297.15L281.552 298.53L275.175 309.927L281.023 313.199C281.575 313.504 282.001 313.383 282.306 312.837L288.545 301.687L291.179 303.159L283.249 317.328V317.322Z" fill="#101820"/>
<path d="M292.893 300.628L278.241 287.466C276.769 286.143 276.66 284.608 278.011 283.112L282.87 277.707C285.814 274.429 288.339 272.468 290.444 271.819C292.548 271.129 294.584 271.686 296.545 273.452C297.971 274.734 298.661 275.947 298.776 277.701C298.868 279.432 297.85 281.652 295.677 284.309L308.454 283.314L304.124 288.133L292.013 288.713C290.57 288.771 290.15 287.632 291.139 286.534C293.135 284.309 294.291 282.555 294.555 281.272C294.843 279.967 294.331 278.742 293.089 277.632C291.755 276.436 290.53 276.011 289.414 276.361C288.293 276.666 286.798 277.862 284.946 279.921L282.295 282.871C281.875 283.337 281.979 283.647 282.473 284.084L296.47 296.66L292.893 300.64V300.628Z" fill="#101820"/>
<path d="M321.374 272.797C320.379 272.544 319.361 271.813 318.234 270.577L305.157 256.149L310.108 253.746L321.454 266.983C322.466 268.208 322.984 268.478 323.806 268.081C324.6 267.696 324.72 267.15 324.41 265.655L321.598 250.692C321.253 248.973 321.816 247.754 323.317 247.029C324.789 246.316 326.095 246.627 327.233 247.961L337.17 259.364C338.211 260.571 338.7 260.859 339.522 260.462C340.344 260.065 340.448 259.559 340.155 258.024L336.75 240.83L340.12 239.197L343.375 258.455C343.634 260.077 343.576 261.33 343.202 262.21C342.823 263.09 342 263.843 340.724 264.459C337.808 265.873 336.095 265.442 333.944 262.958L325.255 253.044L327.659 266.075C328.251 269.249 327.584 270.83 325.008 272.078C323.564 272.779 322.351 273.015 321.368 272.791L321.374 272.797Z" fill="#101820"/>
<path d="M348.392 249.53C347.202 241.854 350.922 237.328 359.565 235.988C368.18 234.654 373.096 237.84 374.286 245.517C375.483 253.228 371.756 257.753 363.085 259.099C354.47 260.433 349.583 257.247 348.392 249.536V249.53ZM369.123 246.287C368.185 240.226 365.385 237.984 360.008 238.817C354.568 239.663 352.578 242.641 353.516 248.708C354.476 254.895 357.167 257.058 362.636 256.207C368.139 255.356 370.083 252.475 369.123 246.287Z" fill="#101820"/>
<path d="M381.24 255.534C379.981 254.038 379.521 251.52 379.912 247.92L381.39 234.286L385.018 234.677C386.111 234.798 386.617 235.39 386.502 236.482L385.237 248.15C384.949 250.807 385.133 252.63 385.754 253.619C386.404 254.608 387.796 255.2 389.958 255.436C392.333 255.695 394.334 255.654 395.979 255.361C396.72 255.223 396.893 255.079 396.962 254.487L398.946 236.189L404.23 236.764L401.884 258.409C400.855 258.299 398.952 258.311 396.117 258.478C393.287 258.616 390.884 258.575 388.911 258.363C385.064 257.949 382.511 257.006 381.246 255.539L381.24 255.534Z" fill="#101820"/>
<path d="M405.553 260.335L413.569 239.012L416.484 240.111C417.928 240.651 418.848 241.606 419.285 242.946L425.495 261.916L431.562 245.781L434.656 246.942L426.64 268.265L423.782 267.189C422.338 266.649 421.418 265.694 421.01 264.366L414.788 245.154L408.641 261.497L405.547 260.335H405.553Z" fill="#101820"/>
<path d="M432.359 271.64C430.732 270.507 430.53 269.368 431.681 267.718L441.468 253.675C442.618 252.025 443.757 251.818 445.384 252.957L449.927 256.125C454.084 259.023 456.672 261.634 457.891 263.9C458.524 265.032 458.863 266.188 458.852 267.367C458.863 269.713 457.983 271.749 456.166 274.354C454.366 276.936 452.762 278.465 450.554 279.265C447.282 280.438 443.251 279.121 436.896 274.808L432.353 271.64H432.359ZM439.018 272.755C441.985 274.825 444.395 275.774 446.189 275.567C447.983 275.36 449.829 273.923 451.715 271.214C453.567 268.557 454.28 266.326 453.854 264.572C453.429 262.819 451.704 260.886 448.736 258.816L446.569 257.304C446.051 256.942 445.614 257.022 445.257 257.54L436.62 269.932C436.258 270.449 436.338 270.886 436.856 271.243L439.024 272.755H439.018Z" fill="#101820"/>
<path d="M470.196 308.236C460.437 298.558 459.115 291.336 467.004 285.43C470.961 282.468 474.618 281.738 477.948 283.297C481.277 284.855 484.658 288.69 488.097 294.803L485.653 296.632C479.713 286.379 475.987 285.234 470.138 289.61C464.296 293.987 464.595 298.167 472.646 306.407L470.202 308.236H470.196Z" fill="#101820"/>
<path d="M479.266 328.534L482.573 325.102L476.707 311.663L471.94 311.755L470.439 308.322L490.658 308.08C493.89 308.011 495.822 308.983 496.984 311.634C498.295 314.636 497.754 316.62 495.396 319.161L481.595 333.877L479.266 328.54V328.534ZM479.565 311.617L484.551 323.037L491.877 315.441C493.102 314.084 493.332 313.434 492.981 312.623C492.579 311.697 491.986 311.444 490.198 311.433L479.565 311.611V311.617Z" fill="#101820"/>
<path d="M481.65 335.493L501.075 332.239C503.031 331.911 504.29 332.785 504.623 334.769L505.825 341.934C506.55 346.275 506.515 349.472 505.71 351.52C504.94 353.596 503.232 354.838 500.627 355.275C498.735 355.591 497.361 355.372 495.917 354.372C494.503 353.366 493.404 351.186 492.686 347.834L485.497 358.449L484.428 352.06L491.524 342.227C492.381 341.06 493.531 341.445 493.772 342.9C494.267 345.85 494.917 347.845 495.756 348.851C496.602 349.892 497.872 350.249 499.517 349.979C501.282 349.68 502.381 348.989 502.806 347.897C503.266 346.833 503.266 344.918 502.806 342.187L502.151 338.276C502.047 337.655 501.743 337.546 501.093 337.655L482.536 340.761L481.65 335.488V335.493Z" fill="#101820"/>
<path d="M485.072 363.359C485.181 361.381 486.044 360.61 488.056 360.719L505.147 361.668C507.159 361.777 507.93 362.64 507.821 364.624L506.918 380.834L503.905 380.667L504.612 367.913C504.646 367.286 504.353 366.953 503.721 366.918L498.413 366.625L497.688 379.661L494.859 379.506L495.584 366.47L488.89 366.096C488.263 366.061 487.93 366.36 487.895 366.987L487.188 379.742L484.175 379.575L485.078 363.365L485.072 363.359Z" fill="#101820"/>
<path d="M264.561 401.726C264.705 401.185 265.13 400.633 265.843 400.053L273.462 393.934L274.848 397.35L268.212 402.243C267.804 402.548 267.718 402.721 267.833 403.002C267.948 403.284 268.149 403.359 268.621 403.284L275.285 402.404C276.407 402.243 277.16 402.657 277.563 403.647C277.965 404.636 277.706 405.446 276.792 406.113L271.415 410.116C271.036 410.409 270.921 410.593 271.036 410.875C271.157 411.168 271.352 411.226 271.829 411.174L280.006 410.041L280.99 412.462L271.249 413.382C270.34 413.474 269.667 413.382 269.196 413.112C268.73 412.853 268.362 412.364 268.069 411.64C267.729 410.794 267.626 410.116 267.758 409.564C267.896 409.012 268.327 408.471 269.058 407.936L273.204 404.843L268.051 405.504C266.292 405.751 265.464 405.228 264.866 403.75C264.538 402.939 264.434 402.255 264.572 401.714L264.561 401.726Z" fill="#101820"/>
<path d="M284.616 417.844C286.876 421.674 286.301 424.589 282.897 426.596C279.424 428.649 276.635 427.683 274.375 423.853C272.115 420.023 272.609 417.16 276.111 415.09C279.516 413.083 282.351 413.997 284.622 417.844H284.616ZM278.193 424.503C278.952 424.63 279.947 424.336 281.172 423.617C283.547 422.214 284.007 420.834 282.839 418.856C281.678 416.889 280.252 416.642 277.877 418.045C275.461 419.471 274.996 420.817 276.163 422.795C276.755 423.796 277.434 424.377 278.193 424.503Z" fill="#101820"/>
<path d="M280.904 432.301C280.927 431.312 281.571 430.329 282.819 429.362L288.696 424.797L290.22 426.763C290.663 427.333 290.611 427.833 290.042 428.276L285.257 431.99C284.504 432.577 284.073 433.094 283.992 433.537C283.912 433.98 284.125 434.544 284.625 435.188C285.252 435.993 285.815 436.562 286.304 436.907C286.551 437.097 286.781 437.102 286.982 436.947L293.929 431.548L296.12 434.365L287.397 441.145C286.994 440.628 286.252 439.851 285.177 438.833C284.113 437.804 283.262 436.89 282.624 436.067C281.451 434.555 280.881 433.301 280.893 432.307L280.904 432.301Z" fill="#101820"/>
<path d="M289.226 443.968L297.414 435.785L298.846 437.217C299.565 437.936 299.87 438.764 299.749 439.696L298.743 447.867L304.125 442.49L305.781 444.146L297.593 452.329L296.184 450.92C295.465 450.196 295.16 449.374 295.281 448.442L296.356 440.156L290.887 445.624L289.231 443.968H289.226Z" fill="#101820"/>
<path d="M301.503 455.63C300.497 454.848 300.411 454.175 301.193 453.169L306.121 446.826C306.903 445.82 307.576 445.733 308.582 446.515L310.974 448.373C313.027 449.966 314.246 451.357 314.775 452.519C315.04 453.111 315.149 453.698 315.097 454.284C314.999 455.48 314.511 456.412 313.527 457.683C312.561 458.93 311.785 459.615 310.652 460.012C309.007 460.592 307.029 459.862 303.895 457.487L301.503 455.63ZM305.523 456.17C306.615 457.021 307.518 457.395 308.231 457.309C308.967 457.217 309.778 456.59 310.675 455.434C311.566 454.29 311.963 453.364 311.86 452.64C311.768 451.903 311.181 451.121 310.089 450.27L309.157 449.546C308.904 449.35 308.68 449.379 308.484 449.632L304.493 454.767C304.298 455.02 304.327 455.244 304.58 455.44L305.523 456.17Z" fill="#101820"/>
<path d="M325.225 471.042C318.64 468.586 316.668 465.533 319.066 461.191C320.279 459 321.78 457.896 323.591 457.879C325.403 457.862 327.766 458.931 330.699 461.076L329.675 462.933C325.196 459.799 323.626 460.099 322.108 462.853C320.595 465.59 321.378 467.275 326.265 469.178L325.23 471.047L325.225 471.042Z" fill="#101820"/>
<path d="M336.026 475.809L336.061 473.802L330.046 471.318L328.654 472.761L326.268 471.772L333.335 464.567C334.554 463.29 335.773 463.089 337.245 463.699C338.896 464.383 339.609 465.366 339.603 467.178V477.287L336.015 475.809H336.026ZM331.408 469.915L336.107 471.858L336.193 467.218C336.181 466.574 336.055 466.332 335.704 466.189C335.336 466.039 335.077 466.119 334.64 466.545L331.403 469.915H331.408Z" fill="#101820"/>
<path d="M341.623 477.914L344.211 468.523C344.55 467.293 345.217 466.913 346.448 467.252L350.398 468.339C354.47 469.46 355.913 471.065 355.206 473.635C354.682 475.539 353.291 476.315 351.025 475.958L353.55 481.203L349.553 480.099L347.414 475.125C347.109 474.245 347.609 473.756 348.409 473.975C350.456 474.538 351.307 474.21 351.675 472.87C352.037 471.565 351.537 470.846 349.633 470.323L347.943 469.857C347.65 469.777 347.552 469.898 347.46 470.22L345.096 478.862L341.623 477.908V477.914Z" fill="#101820"/>
<path d="M357.587 481.869C356.327 481.685 355.925 481.138 356.109 479.879L357.282 471.932C357.466 470.673 358.012 470.264 359.271 470.454L367.334 471.644L367.017 473.772L361.244 472.921C360.928 472.875 360.749 473.007 360.703 473.324L360.41 475.325L366.322 476.199L366.046 478.062L360.134 477.188L359.789 479.54C359.743 479.856 359.875 480.034 360.192 480.08L365.965 480.931L365.649 483.059L357.592 481.869H357.587Z" fill="#101820"/>
<path d="M375.956 483.796L376.111 474.394L372.54 474.336L372.575 472.168L383.299 472.347L383.265 474.515L379.694 474.457L379.538 483.859L375.95 483.802L375.956 483.796Z" fill="#101820"/>
<path d="M386.974 483.652C385.703 483.762 385.186 483.325 385.077 482.054L384.404 474.043C384.295 472.773 384.732 472.255 386.002 472.146L394.122 471.462L394.3 473.606L388.487 474.095C388.17 474.124 388.021 474.296 388.05 474.613L388.222 476.631L394.18 476.131L394.341 478.006L388.383 478.506L388.584 480.875C388.613 481.191 388.786 481.341 389.102 481.312L394.916 480.823L395.094 482.968L386.974 483.652Z" fill="#101820"/>
<path d="M407.232 480.679C400.591 482.979 397.123 481.881 396.209 477.004C395.749 474.543 396.209 472.738 397.589 471.57C398.975 470.403 401.476 469.724 405.105 469.512L405.496 471.593C400.044 472.03 399.026 473.261 399.607 476.349C400.182 479.42 401.861 480.225 406.841 478.58L407.238 480.679H407.232Z" fill="#101820"/>
<path d="M409.72 480.225L406.321 469.19L409.749 468.132L411.06 472.381L415.706 470.949L414.395 466.7L417.839 465.642L421.238 476.677L417.793 477.741L416.35 473.048L411.704 474.48L413.147 479.172L409.72 480.23V480.225Z" fill="#101820"/>
<path d="M424.386 475.498L419.619 464.952L421.465 464.118C422.397 463.698 423.271 463.704 424.104 464.152L431.396 467.976L428.262 461.047L430.396 460.081L435.163 470.627L433.345 471.449C432.414 471.869 431.54 471.864 430.706 471.415L423.328 467.487L426.514 474.532L424.381 475.498H424.386Z" fill="#101820"/>
<path d="M437.286 455.861C441.075 453.532 443.996 454.061 446.067 457.431C448.177 460.869 447.263 463.676 443.473 465.999C439.684 468.328 436.808 467.885 434.681 464.417C432.611 461.048 433.479 458.195 437.286 455.861ZM444.054 462.163C444.169 461.404 443.858 460.415 443.117 459.202C441.673 456.85 440.282 456.413 438.327 457.615C436.383 458.805 436.159 460.237 437.602 462.589C439.068 464.981 440.425 465.418 442.381 464.216C443.37 463.607 443.939 462.922 444.054 462.157V462.163Z" fill="#101820"/>
<path d="M452.677 459.575C451.671 460.357 450.998 460.276 450.216 459.27L444.184 451.518L447.024 449.304L452.51 456.349C452.706 456.602 452.93 456.63 453.183 456.435L457.387 453.163L458.721 454.871L452.683 459.569L452.677 459.575Z" fill="#101820"/>
<path d="M456.337 441.093C459.535 437.999 462.502 437.884 465.251 440.725C468.051 443.623 467.769 446.562 464.566 449.655C461.369 452.749 458.465 452.933 455.642 450.012C452.893 447.171 453.123 444.198 456.332 441.093H456.337ZM464.308 445.785C464.25 445.02 463.738 444.118 462.749 443.1C460.834 441.116 459.379 440.989 457.729 442.588C456.09 444.169 456.176 445.618 458.097 447.602C460.046 449.621 461.467 449.759 463.117 448.16C463.957 447.349 464.359 446.556 464.308 445.791V445.785Z" fill="#101820"/>
<path d="M470.734 441.231C469.389 441.358 467.917 440.794 466.341 439.524C464.363 437.936 463.61 436.131 464.11 434.101C464.61 432.071 466.295 429.662 469.188 426.85L470.855 428.184C469.343 429.69 468.279 430.961 467.652 432.031C467.031 433.083 466.778 433.963 466.922 434.676C467.054 435.377 467.589 436.091 468.498 436.815C469.579 437.683 470.51 438.126 471.275 438.143C472.034 438.143 472.81 437.655 473.575 436.7C474.087 436.068 474.444 435.435 474.679 434.785C474.777 434.434 474.737 434.279 474.49 434.078L473.058 432.934L471.195 435.257L469.711 434.072L473.638 429.173L478.314 432.922C477.905 433.434 477.365 434.308 476.703 435.515C476.042 436.723 475.404 437.701 474.806 438.448C473.431 440.162 472.069 441.099 470.734 441.231Z" fill="#101820"/>
<path d="M480.333 430.777L470.689 424.371L472.673 421.381L482.317 427.787L480.333 430.777Z" fill="#101820"/>
<path d="M484.841 423.704C484.22 424.819 483.57 425.004 482.454 424.388L475.427 420.489C474.312 419.868 474.128 419.219 474.749 418.103L478.705 410.978L480.586 412.025L477.751 417.125C477.595 417.407 477.659 417.62 477.935 417.775L479.706 418.759L482.61 413.531L484.254 414.446L481.35 419.673L483.426 420.829C483.708 420.984 483.921 420.921 484.076 420.645L486.911 415.544L488.791 416.591L484.835 423.715L484.841 423.704Z" fill="#101820"/>
<path d="M487.687 413.382C490.235 409.092 490.965 406.717 489.89 406.263C488.912 405.866 488.107 407.568 486.957 409.178C486.543 409.713 486.123 410.208 485.715 410.645C484.864 411.513 483.604 411.898 482.299 411.346C479.821 410.294 479.085 408.184 483.449 400.507L485.312 401.295C482.431 406.533 482.512 407.66 483.317 408C483.61 408.126 483.921 408.046 484.26 407.775C484.91 407.218 485.422 406.136 486.238 405.027C486.652 404.457 487.072 403.957 487.503 403.52C488.36 402.634 489.683 402.261 491.092 402.859C492.075 403.279 492.661 403.733 492.955 404.877C493.098 405.441 493.087 406.113 492.943 406.901C492.633 408.448 491.586 411.001 489.711 414.245L487.687 413.388V413.382Z" fill="#101820"/>
</g>
<defs>
<filter id="filter0_d_3121_122" x="-198.6" y="-6.60001" width="2318.2" height="725.2" filterUnits="userSpaceOnUse" color-interpolation-filters="sRGB">
<feFlood flood-opacity="0" result="BackgroundImageFix"/>
<feColorMatrix in="SourceAlpha" type="matrix" values="0 0 0 0 0 0 0 0 0 0 0 0 0 0 0 0 0 0 127 0" result="hardAlpha"/>
<feOffset dy="-6"/>
<feGaussianBlur stdDeviation="99.3"/>
<feComposite in2="hardAlpha" operator="out"/>
<feColorMatrix type="matrix" values="0 0 0 0 0.0745098 0 0 0 0 0.160784 0 0 0 0 0.294118 0 0 0 0.4 0"/>
<feBlend mode="normal" in2="BackgroundImageFix" result="effect1_dropShadow_3121_122"/>
<feBlend mode="normal" in="SourceGraphic" in2="effect1_dropShadow_3121_122" result="shape"/>
</filter>
<clipPath id="clip0_3121_122">
<rect width="1919" height="525" fill="white"/>
</clipPath>
</defs>
</svg>
