<?xml version="1.0" encoding="utf-8" standalone="yes"?>
<svg width="393" height="163" viewBox="0 0 393 163" fill="none" xmlns="http://www.w3.org/2000/svg">
<g clip-path="url(#clip0_3053_117)">
<g filter="url(#filter0_d_3053_117)">
<path d="M104.093 18C139.953 18 169.719 44.1686 175.431 78.5C176.081 82.41 176.5 88.9999 181 92C185.381 94.9207 198.294 90.2603 226.657 82.168C276.404 66.3822 327.073 49.786 393.5 52.5498V163.043H0V84.5C0.182628 84.5666 0.36271 84.6365 0.541016 84.708C0.51492 84.5704 0.5 84.5 0.5 84.5C0.5 84.5 0.799454 84.7006 1.36133 85.0605C2.80508 85.7224 4.10805 86.5435 5.32227 87.457C8.51018 89.2901 13.092 91.723 18.5 94C28 98 31.2066 90.5 32.3203 81.5C36.7498 45.7048 67.1946 18 104.093 18Z" fill="white"/>
</g>
<path d="M122.349 76.5331C120.569 71.5286 126.456 67.9173 124.083 62.5708C121.713 57.2193 116.808 61.3034 114.093 64.2859C111.112 62.9606 107.595 62.3093 104.374 61.9321C101.157 61.5574 97.8283 63.705 94.8888 64.0722C91.9492 64.4393 91.0211 59.4524 87.6696 59.9328C84.3206 60.4156 83.2831 64.6279 84.0943 67.5527C84.9055 70.4799 87.0796 73.2739 86.5685 76.2665C88.379 71.4179 83.2806 68.5209 85.1979 63.4787C87.1178 58.4415 91.4737 63.031 93.9988 65.6515C100.402 62.606 107.969 62.6362 114.365 65.6515C116.885 62.8022 121.721 58.7508 123.232 63.959C124.742 69.1672 119.293 72.0869 122.344 76.5406L122.349 76.5331Z" fill="#DC5829"/>
<path d="M91.8034 67.8244C91.2542 65.9358 89.7412 63.8284 87.6738 63.4688C90.8524 65.0556 90.0336 68.2871 88.7749 70.817C89.7386 69.8891 90.3108 68.2821 91.8034 67.8219V67.8244Z" fill="#DC5829"/>
<path d="M120.7 63.4688C118.635 63.8208 117.127 65.9358 116.57 67.8244C118.045 68.2746 118.643 69.8765 119.599 70.8196C118.353 68.2746 117.501 65.0782 120.7 63.4713V63.4688Z" fill="#DC5829"/>
<path d="M113.814 68.0959C108.494 63.7931 99.9346 63.8383 94.5488 68.0959C97.468 67.4723 100.319 66.6122 103.357 66.4638C103.479 67.8646 103.195 71.2495 103.357 72.4516C103.52 73.6537 102.686 77.3806 104.161 77.3303C105.633 77.275 104.86 73.367 105.008 72.18C105.155 70.993 104.896 67.8294 105.008 66.4638C108.057 66.5845 110.925 67.4169 113.816 68.0959H113.814Z" fill="#DC5829"/>
<path d="M104.181 78.7108C102.401 76.7619 100.96 73.8069 98.3328 72.5194C95.7035 71.2318 93.2954 73.7214 91.4518 76.1935C89.6108 78.6681 89.5727 82.1461 90.7551 85.4556C91.9375 88.7626 96.6164 88.1112 100.052 87.9654C98.9813 91.5741 95.3958 93.9909 94.2719 97.4915C91.1238 96.898 87.9249 92.8693 92.3444 91.2321C87.6884 91.5867 85.0438 87.2084 85.1888 83.0665C84.7005 86.7432 86.0559 91.1114 90.1423 91.7778C87.2358 95.2885 92.3622 98.0372 95.3704 98.3113C96.6393 92.57 104.019 87.8421 100.876 81.1628C101.387 83.1671 100.932 85.1739 100.601 87.1506C98.0938 86.8186 93.5497 88.2118 92.4334 85.702C91.3171 83.1922 91.162 80.3731 92.263 78.0872C93.3615 75.7987 95.1339 74.6896 97.3004 73.8145C99.9043 76.191 102.872 78.8768 103.907 82.2517C105.789 79.5156 108.108 76.0778 111.062 73.8145C113.237 74.6544 115.177 75.9647 116.207 78.2531C117.239 80.5391 117 83.5116 115.825 85.873C114.653 88.2345 110.185 86.7557 107.762 87.1531C107.22 85.2091 107.37 82.9257 107.213 81.1653C104.708 88.0961 111.604 92.5172 112.992 98.3138C116.006 98.0372 121.125 95.3011 118.221 91.7804C122.195 91.1894 124.011 86.4942 122.9 83.069C123.637 87.4624 120.451 91.4962 116.018 91.2346C120.415 92.8567 117.275 96.9005 114.091 97.494C112.977 94.0135 109.382 91.5716 108.311 87.9679C111.835 88.2018 116.553 88.6922 117.689 85.2645C118.826 81.8368 118.722 78.5423 116.822 76.0124C114.923 73.4876 112.474 71.2494 109.88 72.6426C107.284 74.0358 105.961 76.6135 104.184 78.7134L104.181 78.7108Z" fill="#DC5829"/>
<path d="M98.1248 79.5278C97.5094 77.9635 97.7561 75.0187 95.3937 75.7379C93.0289 76.4572 93.9825 79.0022 95.648 79.5278C94.5114 78.6627 93.9621 76.3918 95.9201 76.2635C97.8807 76.1353 96.4109 79.0248 98.1248 79.5278Z" fill="#DC5829"/>
<path d="M112.442 79.7998C114.105 79.1988 115.32 76.3646 112.739 75.6982C110.156 75.0317 110.982 78.1199 109.965 79.5282C111.641 79.234 110.41 75.5347 112.696 76.2841C114.977 77.0335 113.098 78.7763 112.442 79.7998Z" fill="#DC5829"/>
<path d="M87.396 76.8045C84.8481 79.4048 82.4705 82.7646 82.7171 86.6022C80.3853 86.132 81.5118 88.2796 81.0567 89.8614C80.6015 91.4458 78.2239 91.0384 78.3129 89.0542C76.8457 91.901 79.9759 93.6488 82.234 95.2457C84.4946 96.8426 85.1507 100.295 85.7432 102.662C85.6898 101.98 85.8805 101.213 86.2924 100.756C89.2345 107.556 98.6584 101.968 101.979 108.104C100.446 103.409 94.8873 104.216 90.9713 103.748C91.8003 101.43 95.3501 101.553 96.1994 99.9383C94.5974 100.595 92.8429 100.6 91.7138 102.307C90.5873 104.015 88.937 102.981 87.7368 101.777C86.5365 100.572 86.5543 97.0689 85.466 99.3951C85.2676 95.4142 80.8558 94.1995 78.8596 91.5011C81.1609 92.5598 82.651 89.1875 81.611 87.417C82.3205 86.7456 82.8545 87.6207 83.5385 87.6886C82.2747 83.5518 85.466 80.0461 87.3909 76.802L87.396 76.8045Z" fill="#DC5829"/>
<path d="M125.653 86.6053C125.874 82.8155 123.491 79.1816 120.974 76.8076C123.021 80.0392 126.014 83.5951 124.826 87.6943C125.518 87.6842 126.054 86.6934 126.754 87.4227C125.711 89.1881 127.211 92.5655 129.505 91.5067C128.607 93.1238 126.461 94.1297 125.032 95.2488C123.605 96.3704 123.158 100.329 122.072 98.3118C122.098 99.7729 119.936 103.89 117.965 103.462C115.995 103.035 114.772 99.436 112.163 99.9465C113.03 101.574 116.549 101.43 117.391 103.756C113.233 104.151 107.735 103.555 106.105 108.384C107.687 105.549 111.097 104.45 114.362 104.845C117.627 105.24 120.475 103.372 122.07 100.761C122.525 101.196 122.642 102.004 122.619 102.667C123.199 100.276 123.931 96.6822 126.265 95.113C128.6 93.5462 131.438 91.8714 130.049 89.0573C130.179 91.2175 127.473 91.3785 127.237 89.6609C127 87.9432 127.829 86.2357 125.645 86.6079L125.653 86.6053Z" fill="#DC5829"/>
<path d="M79.9614 82.2495C79.8978 83.4013 80.0173 84.543 79.6867 85.5162C78.8476 88.1518 78.5704 83.4315 79.1375 82.5211C76.7599 83.8741 76.2564 87.3571 75.8343 90.1435C75.4122 92.9274 77.9143 95.3039 79.6867 97.2202C78.8806 97.2806 78.2475 96.7499 77.4846 96.677C78.3619 97.8866 80.1826 97.957 81.6142 98.0375C78.1814 94.7859 74.6824 90.0806 78.0364 85.5162C77.805 88.0763 80.681 87.3269 80.4216 85.4257C80.1597 83.5295 80.3911 81.9779 80.236 80.3433C79.9919 80.9745 79.9995 81.5604 79.9614 82.2495Z" fill="#DC5829"/>
<path d="M128.132 80.3433C127.964 81.9955 128.172 83.7232 128.04 85.6043C127.908 87.4828 130.535 87.8953 130.334 85.5137C131.623 87.5759 132.081 90.7571 130.967 92.945C129.856 95.1354 127.702 96.0584 126.756 98.035C128.2 97.9545 129.995 97.8791 130.885 96.6745C130.11 96.7399 129.484 97.2831 128.683 97.2177C130.397 95.2863 132.968 92.9274 132.536 90.141C132.101 87.3546 131.613 83.864 129.233 82.5186C129.324 83.7659 130.115 85.6872 128.958 86.6026C128.368 84.6059 128.948 82.2847 128.132 80.3433Z" fill="#DC5829"/>
<path d="M100.058 84.1555C100.114 80.6901 95.0129 79.9583 92.9023 81.7061C94.9697 80.753 94.3492 83.2728 95.7402 84.0726C97.1311 84.8698 98.5806 84.3341 100.058 84.1581M96.7548 81.1604C98.5145 80.9567 99.4909 83.5419 97.5177 84.0927C95.5444 84.6434 94.9443 81.3742 96.7548 81.1604Z" fill="#DC5829"/>
<path d="M115.465 81.7059C113.167 79.8902 108.528 80.8107 108.035 84.1554C109.602 84.2786 111.221 84.9802 112.645 84.0875C114.072 83.1947 113.378 80.7905 115.465 81.7059ZM112.162 81.1602C113.594 81.8065 112.328 84.9878 110.492 83.9014C108.653 82.8175 110.667 80.4888 112.162 81.1602Z" fill="#DC5829"/>
<path d="M97.5777 81.9775C96.9756 82.0554 97.0645 82.5781 96.752 83.0656C97.4431 83.2842 98.2028 82.5505 97.5777 81.9775Z" fill="#DC5829"/>
<path d="M111.617 83.0656C111.34 82.5354 111.33 82.0529 110.791 81.9775C110.219 82.5655 110.89 83.2867 111.617 83.0656Z" fill="#DC5829"/>
<path d="M79.6855 85.5163C80.0161 84.5455 79.8966 83.4013 79.9602 82.2495C79.8152 83.1322 79.8737 84.4952 79.6855 85.5163Z" fill="#DC5829"/>
<path d="M100.878 94.7705C99.0625 95.7915 100.832 97.8989 102.528 97.2199C102.767 97.8662 102.767 99.0759 103.629 99.1262C103.174 98.5377 103.66 96.5208 102.528 96.4051C101.397 96.2869 99.9957 96.3498 100.878 94.773V94.7705Z" fill="#DC5829"/>
<path d="M105.838 97.2199C107.539 97.8813 109.306 95.7991 107.488 94.7705C108.322 96.302 107.02 96.3423 105.858 96.4253C104.699 96.5108 105.192 98.5226 104.734 99.1262C105.637 99.0784 105.571 97.8512 105.835 97.2199H105.838Z" fill="#DC5829"/>
<path d="M100.881 107.835C97.2473 104.581 91.358 106.862 87.1241 105.38C82.8928 103.897 81.2704 100.552 78.3105 97.7656C80.8534 101.148 82.6538 104.231 86.8241 105.951C90.9918 107.674 96.637 105.946 100.881 107.837V107.835Z" fill="#DC5829"/>
<path d="M130.054 97.763C127.161 100.575 125.286 104.083 121.032 105.443C116.781 106.806 111.115 104.606 107.486 107.832C111.751 105.941 117.592 107.694 121.734 105.863C125.876 104.035 127.478 101.156 130.054 97.7605V97.763Z" fill="#DC5829"/>
<path d="M95.3756 98.8521C93.3134 99.1538 91.007 99.6719 89.5957 101.301C90.5111 100.854 91.4876 100.439 92.4386 100.032C93.3871 99.6241 95.4112 100.135 95.3756 98.8521Z" fill="#DC5829"/>
<path d="M101.155 99.6694C99.7772 99.2117 97.9285 99.4229 96.4766 98.8521C97.481 100.248 99.6602 100.114 101.155 99.6694Z" fill="#DC5829"/>
<path d="M111.89 98.8521C110.415 99.4078 108.62 99.2268 107.211 99.6694C108.716 100.112 110.873 100.25 111.89 98.8521Z" fill="#DC5829"/>
<path d="M118.771 101.301C117.372 99.6744 115.035 99.1538 112.991 98.8521C112.955 100.195 115.002 99.5813 115.958 100.001C116.909 100.424 117.842 100.882 118.771 101.301Z" fill="#DC5829"/>
<path d="M102.256 101.03C100.863 101.053 98.7929 101.05 97.3027 101.302C98.9531 101.971 100.743 101.92 102.256 101.03Z" fill="#DC5829"/>
<path d="M111.061 101.302C109.586 101.028 107.506 101.073 106.107 101.03C107.626 101.915 109.421 101.978 111.061 101.302Z" fill="#DC5829"/>
<path d="M104.46 101.03C102.87 102.544 100.63 102.634 98.6797 102.936C100.246 103.391 102.697 104.184 103.908 102.665C105.736 103.653 108.037 103.766 109.962 102.936C108.246 102.373 105.578 103.065 104.457 101.03H104.46Z" fill="#DC5829"/>
<path d="M97.0256 101.301C95.9169 101.306 94.8896 102.536 94.5488 103.479C95.2837 102.679 96.6594 102.237 97.0256 101.301Z" fill="#DC5829"/>
<path d="M113.815 103.479C113.492 102.539 112.439 101.316 111.338 101.301C111.702 102.275 113.072 102.634 113.815 103.479Z" fill="#DC5829"/>
<path d="M92.6231 109.742C88.1858 110.883 83.9723 106.973 81.3379 103.754C82.5152 106.653 85.1242 108.721 87.6671 110.287C86.8661 110.443 85.5947 109.88 85.1903 110.831C90.9627 110.655 93.2131 118.531 98.9523 117.907C94.1692 117.666 92.2824 112.166 88.2189 110.831C91.9188 108.507 94.0293 113.909 97.5767 112.463C95.8678 112.5 94.5227 111.447 93.1724 110.556C94.0497 108.313 89.0428 106.578 87.1178 107.29C89.0708 107.642 91.3721 108.014 92.6231 109.739V109.742Z" fill="#DC5829"/>
<path d="M127.029 103.754C124.412 106.965 120.158 110.888 115.743 109.742C116.936 107.851 119.545 107.921 121.249 107.021C119.08 107.023 114.246 108.105 115.194 110.559C113.856 111.437 112.488 112.513 110.79 112.465C114.299 113.909 116.547 108.494 120.148 110.833C116.16 112.339 113.968 117.429 109.414 118.181C115.364 118.071 117.34 110.841 123.176 110.833C122.784 109.872 121.5 110.441 120.699 110.29C123.232 108.728 125.849 106.666 127.029 103.756V103.754Z" fill="#DC5829"/>
<path d="M122.349 76.5331C120.569 71.5286 126.456 67.9173 124.083 62.5708C121.713 57.2193 116.808 61.3034 114.093 64.2859C111.112 62.9606 107.595 62.3093 104.374 61.9321C101.157 61.5574 97.8283 63.705 94.8888 64.0722C91.9492 64.4393 91.0211 59.4524 87.6696 59.9328C84.3206 60.4156 83.2831 64.6279 84.0943 67.5527C84.9055 70.4799 87.0796 73.2739 86.5685 76.2665C88.379 71.4179 83.2806 68.5209 85.1979 63.4787C87.1178 58.4415 91.4737 63.031 93.9988 65.6515C100.402 62.606 107.969 62.6362 114.365 65.6515C116.885 62.8022 121.721 58.7508 123.232 63.959C124.742 69.1672 119.293 72.0869 122.344 76.5406L122.349 76.5331Z" fill="#DC5829"/>
<path opacity="0.99" d="M91.8034 67.8244C91.2542 65.9358 89.7412 63.8284 87.6738 63.4688C90.8524 65.0556 90.0336 68.2871 88.7749 70.817C89.7386 69.8891 90.3108 68.2821 91.8034 67.8219V67.8244Z" fill="#DC5829"/>
<path opacity="0.99" d="M120.7 63.4688C118.635 63.8208 117.127 65.9358 116.57 67.8244C118.045 68.2746 118.643 69.8765 119.599 70.8196C118.353 68.2746 117.501 65.0782 120.7 63.4713V63.4688Z" fill="#DC5829"/>
<path d="M113.814 68.0959C108.494 63.7931 99.9346 63.8383 94.5488 68.0959C97.468 67.4723 100.319 66.6122 103.357 66.4638C103.479 67.8646 103.195 71.2495 103.357 72.4516C103.52 73.6537 102.686 77.3806 104.161 77.3303C105.633 77.275 104.86 73.367 105.008 72.18C105.155 70.993 104.896 67.8294 105.008 66.4638C108.057 66.5845 110.925 67.4169 113.816 68.0959H113.814Z" fill="#DC5829"/>
<path d="M104.181 78.7108C102.401 76.7619 100.96 73.8069 98.3328 72.5194C95.7035 71.2318 93.2954 73.7214 91.4518 76.1935C89.6108 78.6681 89.5727 82.1461 90.7551 85.4556C91.9375 88.7626 96.6164 88.1112 100.052 87.9654C98.9813 91.5741 95.3958 93.9909 94.2719 97.4915C91.1238 96.898 87.9249 92.8693 92.3444 91.2321C87.6884 91.5867 85.0438 87.2084 85.1888 83.0665C84.7005 86.7432 86.0559 91.1114 90.1423 91.7778C87.2358 95.2885 92.3622 98.0372 95.3704 98.3113C96.6393 92.57 104.019 87.8421 100.876 81.1628C101.387 83.1671 100.932 85.1739 100.601 87.1506C98.0938 86.8186 93.5497 88.2118 92.4334 85.702C91.3171 83.1922 91.162 80.3731 92.263 78.0872C93.3615 75.7987 95.1339 74.6896 97.3004 73.8145C99.9043 76.191 102.872 78.8768 103.907 82.2517C105.789 79.5156 108.108 76.0778 111.062 73.8145C113.237 74.6544 115.177 75.9647 116.207 78.2531C117.239 80.5391 117 83.5116 115.825 85.873C114.653 88.2345 110.185 86.7557 107.762 87.1531C107.22 85.2091 107.37 82.9257 107.213 81.1653C104.708 88.0961 111.604 92.5172 112.992 98.3138C116.006 98.0372 121.125 95.3011 118.221 91.7804C122.195 91.1894 124.011 86.4942 122.9 83.069C123.637 87.4624 120.451 91.4962 116.018 91.2346C120.415 92.8567 117.275 96.9005 114.091 97.494C112.977 94.0135 109.382 91.5716 108.311 87.9679C111.835 88.2018 116.553 88.6922 117.689 85.2645C118.826 81.8368 118.722 78.5423 116.822 76.0124C114.923 73.4876 112.474 71.2494 109.88 72.6426C107.284 74.0358 105.961 76.6135 104.184 78.7134L104.181 78.7108Z" fill="#DC5829"/>
<path opacity="0.98" d="M98.1248 79.5278C97.5094 77.9635 97.7561 75.0187 95.3937 75.7379C93.0289 76.4572 93.9825 79.0022 95.648 79.5278C94.5114 78.6627 93.9621 76.3918 95.9201 76.2635C97.8807 76.1353 96.4109 79.0248 98.1248 79.5278Z" fill="#DC5829"/>
<path opacity="0.94" d="M112.442 79.7998C114.105 79.1988 115.32 76.3646 112.739 75.6982C110.156 75.0317 110.982 78.1199 109.965 79.5282C111.641 79.234 110.41 75.5347 112.696 76.2841C114.977 77.0335 113.098 78.7763 112.442 79.7998Z" fill="#DC5829"/>
<path opacity="0.98" d="M87.396 76.8045C84.8481 79.4048 82.4705 82.7646 82.7171 86.6022C80.3853 86.132 81.5118 88.2796 81.0567 89.8614C80.6015 91.4458 78.2239 91.0384 78.3129 89.0542C76.8457 91.901 79.9759 93.6488 82.234 95.2457C84.4946 96.8426 85.1507 100.295 85.7432 102.662C85.6898 101.98 85.8805 101.213 86.2924 100.756C89.2345 107.556 98.6584 101.968 101.979 108.104C100.446 103.409 94.8873 104.216 90.9713 103.748C91.8003 101.43 95.3501 101.553 96.1994 99.9383C94.5974 100.595 92.8429 100.6 91.7138 102.307C90.5873 104.015 88.937 102.981 87.7368 101.777C86.5365 100.572 86.5543 97.0689 85.466 99.3951C85.2676 95.4142 80.8558 94.1995 78.8596 91.5011C81.1609 92.5598 82.651 89.1875 81.611 87.417C82.3205 86.7456 82.8545 87.6207 83.5385 87.6886C82.2747 83.5518 85.466 80.0461 87.3909 76.802L87.396 76.8045Z" fill="#DC5829"/>
<path opacity="0.98" d="M125.653 86.6053C125.874 82.8155 123.491 79.1816 120.974 76.8076C123.021 80.0392 126.014 83.5951 124.826 87.6943C125.518 87.6842 126.054 86.6934 126.754 87.4227C125.711 89.1881 127.211 92.5655 129.505 91.5067C128.607 93.1238 126.461 94.1297 125.032 95.2488C123.605 96.3704 123.158 100.329 122.072 98.3118C122.098 99.7729 119.936 103.89 117.965 103.462C115.995 103.035 114.772 99.436 112.163 99.9465C113.03 101.574 116.549 101.43 117.391 103.756C113.233 104.151 107.735 103.555 106.105 108.384C107.687 105.549 111.097 104.45 114.362 104.845C117.627 105.24 120.475 103.372 122.07 100.761C122.525 101.196 122.642 102.004 122.619 102.667C123.199 100.276 123.931 96.6822 126.265 95.113C128.6 93.5462 131.438 91.8714 130.049 89.0573C130.179 91.2175 127.473 91.3785 127.237 89.6609C127 87.9432 127.829 86.2357 125.645 86.6079L125.653 86.6053Z" fill="#DC5829"/>
<path d="M79.9614 82.2495C79.8978 83.4013 80.0173 84.543 79.6867 85.5162C78.8476 88.1518 78.5704 83.4315 79.1375 82.5211C76.7599 83.8741 76.2564 87.3571 75.8343 90.1435C75.4122 92.9274 77.9143 95.3039 79.6867 97.2202C78.8806 97.2806 78.2475 96.7499 77.4846 96.677C78.3619 97.8866 80.1826 97.957 81.6142 98.0375C78.1814 94.7859 74.6824 90.0806 78.0364 85.5162C77.805 88.0763 80.681 87.3269 80.4216 85.4257C80.1597 83.5295 80.3911 81.9779 80.236 80.3433C79.9919 80.9745 79.9995 81.5604 79.9614 82.2495Z" fill="#DC5829"/>
<path d="M128.132 80.3433C127.964 81.9955 128.172 83.7232 128.04 85.6043C127.908 87.4828 130.535 87.8953 130.334 85.5137C131.623 87.5759 132.081 90.7571 130.967 92.945C129.856 95.1354 127.702 96.0584 126.756 98.035C128.2 97.9545 129.995 97.8791 130.885 96.6745C130.11 96.7399 129.484 97.2831 128.683 97.2177C130.397 95.2863 132.968 92.9274 132.536 90.141C132.101 87.3546 131.613 83.864 129.233 82.5186C129.324 83.7659 130.115 85.6872 128.958 86.6026C128.368 84.6059 128.948 82.2847 128.132 80.3433Z" fill="#DC5829"/>
<path d="M108.035 84.1554C109.602 84.2786 111.221 84.9802 112.645 84.0875C114.072 83.1947 113.378 80.7905 115.465 81.7059C113.167 79.8902 108.528 80.8107 108.035 84.1554ZM110.494 83.9014C108.656 82.8175 110.67 80.4888 112.165 81.1602C113.596 81.8065 112.33 84.9878 110.494 83.9014Z" fill="#DC5829"/>
<path d="M97.5777 81.9775C96.9756 82.0554 97.0645 82.5781 96.752 83.0656C97.4431 83.2842 98.2028 82.5505 97.5777 81.9775Z" fill="#DC5829"/>
<path d="M111.617 83.0656C111.34 82.5354 111.33 82.0529 110.791 81.9775C110.219 82.5655 110.89 83.2867 111.617 83.0656Z" fill="#DC5829"/>
<path d="M79.6855 85.5163C80.0161 84.5455 79.8966 83.4013 79.9602 82.2495C79.8152 83.1322 79.8737 84.4952 79.6855 85.5163Z" fill="#DC5829"/>
<path d="M100.878 94.7705C99.0625 95.7915 100.832 97.8989 102.528 97.2199C102.767 97.8662 102.767 99.0759 103.629 99.1262C103.174 98.5377 103.66 96.5208 102.528 96.4051C101.397 96.2869 99.9957 96.3498 100.878 94.773V94.7705Z" fill="#DC5829"/>
<path d="M105.838 97.2199C107.539 97.8813 109.306 95.7991 107.488 94.7705C108.322 96.302 107.02 96.3423 105.858 96.4253C104.699 96.5108 105.192 98.5226 104.734 99.1262C105.637 99.0784 105.571 97.8512 105.835 97.2199H105.838Z" fill="#DC5829"/>
<path opacity="0.97" d="M100.881 107.835C97.2473 104.581 91.358 106.862 87.1241 105.38C82.8928 103.897 81.2704 100.552 78.3105 97.7656C80.8534 101.148 82.6538 104.231 86.8241 105.951C90.9918 107.674 96.637 105.946 100.881 107.837V107.835Z" fill="#DC5829"/>
<path opacity="0.97" d="M130.054 97.763C127.161 100.575 125.286 104.083 121.032 105.443C116.781 106.806 111.115 104.606 107.486 107.832C111.751 105.941 117.592 107.694 121.734 105.863C125.876 104.035 127.478 101.156 130.054 97.7605V97.763Z" fill="#DC5829"/>
<path opacity="0.93" d="M95.3756 98.8521C93.3134 99.1538 91.007 99.6719 89.5957 101.301C90.5111 100.854 91.4876 100.439 92.4386 100.032C93.3871 99.6241 95.4112 100.135 95.3756 98.8521Z" fill="#DC5829"/>
<path d="M101.155 99.6694C99.7772 99.2117 97.9285 99.4229 96.4766 98.8521C97.481 100.248 99.6602 100.114 101.155 99.6694Z" fill="#DC5829"/>
<path d="M111.89 98.8521C110.415 99.4078 108.62 99.2268 107.211 99.6694C108.716 100.112 110.873 100.25 111.89 98.8521Z" fill="#DC5829"/>
<path opacity="0.93" d="M118.771 101.301C117.372 99.6744 115.035 99.1538 112.991 98.8521C112.955 100.195 115.002 99.5813 115.958 100.001C116.909 100.424 117.842 100.882 118.771 101.301Z" fill="#DC5829"/>
<path d="M102.256 101.03C100.863 101.053 98.7929 101.05 97.3027 101.302C98.9531 101.971 100.743 101.92 102.256 101.03Z" fill="#DC5829"/>
<path d="M111.061 101.302C109.586 101.028 107.506 101.073 106.107 101.03C107.626 101.915 109.421 101.978 111.061 101.302Z" fill="#DC5829"/>
<path d="M104.46 101.03C102.87 102.544 100.63 102.634 98.6797 102.936C100.246 103.391 102.697 104.184 103.908 102.665C105.736 103.653 108.037 103.766 109.962 102.936C108.246 102.373 105.578 103.065 104.457 101.03H104.46Z" fill="#DC5829"/>
<path d="M97.0256 101.301C95.9169 101.306 94.8896 102.536 94.5488 103.479C95.2837 102.679 96.6594 102.237 97.0256 101.301Z" fill="#DC5829"/>
<path d="M113.815 103.479C113.492 102.539 112.439 101.316 111.338 101.301C111.702 102.275 113.072 102.634 113.815 103.479Z" fill="#DC5829"/>
<path d="M92.6231 109.742C88.1858 110.883 83.9723 106.973 81.3379 103.754C82.5152 106.653 85.1242 108.721 87.6671 110.287C86.8661 110.443 85.5947 109.88 85.1903 110.831C90.9627 110.655 93.2131 118.531 98.9523 117.907C94.1692 117.666 92.2824 112.166 88.2189 110.831C91.9188 108.507 94.0293 113.909 97.5767 112.463C95.8678 112.5 94.5227 111.447 93.1724 110.556C94.0497 108.313 89.0428 106.578 87.1178 107.29C89.0708 107.642 91.3721 108.014 92.6231 109.739V109.742Z" fill="#DC5829"/>
<path d="M127.029 103.754C124.412 106.965 120.158 110.888 115.743 109.742C116.936 107.851 119.545 107.921 121.249 107.021C119.08 107.023 114.246 108.105 115.194 110.559C113.856 111.437 112.488 112.513 110.79 112.465C114.299 113.909 116.547 108.494 120.148 110.833C116.16 112.339 113.968 117.429 109.414 118.181C115.364 118.071 117.34 110.841 123.176 110.833C122.784 109.872 121.5 110.441 120.699 110.29C123.232 108.728 125.849 106.666 127.029 103.756V103.754Z" fill="#DC5829"/>
<path d="M92.9023 81.7063C94.9697 80.7532 94.3492 83.273 95.7402 84.0727C97.1311 84.8724 98.5806 84.3343 100.058 84.1582C100.114 80.6928 95.0129 79.961 92.9023 81.7088V81.7063ZM97.5177 84.0929C95.5444 84.6436 94.9443 81.3743 96.7548 81.1606C98.5145 80.9569 99.4909 83.5421 97.5177 84.0929Z" fill="#DC5829"/>
<path d="M104.183 131.029C80.7707 131.029 61.7246 112.193 61.7246 89.0395C61.7246 65.8856 80.7707 47.0471 104.183 47.0471C127.595 47.0471 146.641 65.8831 146.641 89.037C146.641 112.191 127.595 131.027 104.183 131.027V131.029ZM104.183 48.2593C81.4471 48.2593 62.9503 66.552 62.9503 89.037C62.9503 111.522 81.4471 129.815 104.183 129.815C126.919 129.815 145.416 111.522 145.416 89.037C145.416 66.552 126.919 48.2593 104.183 48.2593Z" fill="#101820"/>
<path d="M104.183 152.352C68.8832 152.352 40.1641 123.95 40.1641 89.0367C40.1641 54.1235 68.8832 25.7236 104.183 25.7236C139.483 25.7236 168.203 54.126 168.203 89.0367C168.203 123.947 139.483 152.35 104.183 152.35V152.352ZM104.183 28.1479C70.236 28.1479 42.6154 55.4639 42.6154 89.0367C42.6154 122.609 70.2335 149.925 104.183 149.925C138.133 149.925 165.751 122.612 165.751 89.0367C165.751 55.4613 138.133 28.1479 104.183 28.1479Z" fill="#101820"/>
<path d="M51.7669 101.945C52.5422 101.945 53.1706 101.324 53.1706 100.557C53.1706 99.7906 52.5422 99.1691 51.7669 99.1691C50.9917 99.1691 50.3633 99.7906 50.3633 100.557C50.3633 101.324 50.9917 101.945 51.7669 101.945Z" fill="#101820"/>
<path d="M156.603 101.945C157.378 101.945 158.007 101.324 158.007 100.557C158.007 99.7905 157.378 99.1689 156.603 99.1689C155.828 99.1689 155.199 99.7905 155.199 100.557C155.199 101.324 155.828 101.945 156.603 101.945Z" fill="#101820"/>
<path d="M105.761 110.133H102.61C102.408 110.133 102.244 110.295 102.244 110.495V119.866C102.244 120.066 102.408 120.228 102.61 120.228H105.761C105.963 120.228 106.127 120.066 106.127 119.866V110.495C106.127 110.295 105.963 110.133 105.761 110.133Z" fill="#101820"/>
<path d="M109.287 116.74V113.624C109.287 113.424 109.123 113.262 108.921 113.262H99.4462C99.244 113.262 99.08 113.424 99.08 113.624V116.74C99.08 116.94 99.244 117.102 99.4462 117.102H108.921C109.123 117.102 109.287 116.94 109.287 116.74Z" fill="#101820"/>
<path d="M57.4279 92.9474L48.7008 93.3221L48.8457 96.6341L47.5107 96.692L47.1191 87.7442L48.4541 87.6864L48.5991 90.9984L57.3262 90.6237L57.4279 92.9474Z" fill="#101820"/>
<path d="M57.4537 86.293L47.4297 85.2921L47.6662 82.9634L57.6902 83.9643L57.4537 86.293Z" fill="#101820"/>
<path d="M56.8661 81.0346C55.8515 81.5929 54.4656 81.6331 52.7416 81.1478C50.5878 80.5417 49.3774 79.3698 49.0951 77.6321C48.8154 75.8943 49.3545 73.4122 50.7124 70.2058L51.9838 70.5629C49.7003 76.186 50.1148 78.0621 53.3671 78.9775C54.692 79.3497 55.7244 79.3824 56.4389 79.0555C57.156 78.7285 57.6824 77.9464 58.0409 76.7016C58.2876 75.8415 58.3995 74.9991 58.3639 74.1742C58.3359 73.8674 58.2672 73.7592 57.9977 73.6863L55.8846 73.0903L54.9946 76.186L53.7765 75.844L55.2768 70.6308L60.0676 71.9788C59.9455 72.4012 59.8286 73.2135 59.7116 74.4257C59.5819 75.6328 59.4166 76.6035 59.2056 77.3429C58.6614 79.234 57.8883 80.4638 56.8712 81.0346H56.8661Z" fill="#101820"/>
<path d="M61.9413 69.5974C61.5141 70.3544 61.0208 70.4927 60.2452 70.0627L53.6388 66.4087C52.8607 65.9786 52.7234 65.4908 53.1506 64.7363L56.6572 58.5398L57.8244 59.1861L55.0654 64.0623C54.9306 64.3012 54.984 64.4898 55.2256 64.6231L57.2777 65.7598L60.0977 60.7755L61.1911 61.379L58.3711 66.3634L60.9572 67.7943C61.2013 67.9276 61.3895 67.8748 61.5243 67.6359L64.2833 62.7597L65.4479 63.4035L61.9413 69.6V69.5974Z" fill="#101820"/>
<path d="M66.209 62.2965L59.7297 56.5401C59.0788 55.9617 59.0304 55.2903 59.628 54.6364L61.7767 52.2725C63.0787 50.839 64.195 49.9815 65.1257 49.6973C66.0564 49.3955 66.9566 49.6395 67.8237 50.4115C68.4543 50.9723 68.7595 51.503 68.8103 52.27C68.851 53.0269 68.4009 53.9977 67.4397 55.1595L73.09 54.7244L71.1752 56.8319L65.8199 57.0858C65.1816 57.111 64.996 56.6131 65.4334 56.1327C66.3158 55.1595 66.8269 54.3925 66.9439 53.8317C67.071 53.2608 66.8447 52.7252 66.2954 52.2398C65.7055 51.7167 65.1638 51.5306 64.6705 51.684C64.1747 51.8173 63.5135 52.3404 62.6947 53.2407L61.5225 54.5308C61.3368 54.7345 61.3826 54.8703 61.6013 55.0614L67.7906 60.5613L66.209 62.3016V62.2965Z" fill="#101820"/>
<path d="M78.7998 50.1252C78.3599 50.0146 77.9098 49.6952 77.4114 49.1545L71.6289 42.8448L73.8183 41.7936L78.8354 47.5828C79.2829 48.1184 79.5118 48.2366 79.8754 48.0631C80.2263 47.8946 80.2797 47.6557 80.1424 47.0018L78.899 40.4583C78.7464 39.7063 78.9956 39.1732 79.6593 38.8563C80.3103 38.5445 80.8875 38.6803 81.391 39.2637L85.7851 44.2506C86.2453 44.7787 86.4615 44.9045 86.8251 44.7309C87.1887 44.5574 87.2345 44.3361 87.1048 43.6647L85.5994 36.1454L87.0896 35.4312L88.5288 43.8533C88.6432 44.5625 88.6178 45.1107 88.4525 45.4955C88.2847 45.8802 87.9211 46.2097 87.3566 46.4787C86.0673 47.0974 85.3095 46.9088 84.3585 45.8224L80.5162 41.4868L81.5792 47.1854C81.8411 48.5736 81.5461 49.2652 80.4069 49.8109C79.7686 50.1177 79.2321 50.2208 78.7973 50.1227L78.7998 50.1252Z" fill="#101820"/>
<path d="M90.75 39.95C90.2236 36.5927 91.8688 34.6136 95.6908 34.0276C99.5 33.4442 101.674 34.8374 102.201 38.1947C102.729 41.5671 101.082 43.5462 97.247 44.1347C93.4378 44.7181 91.2764 43.3249 90.75 39.9525V39.95ZM99.917 38.5317C99.5025 35.8811 98.2642 34.9003 95.8866 35.2649C93.481 35.6346 92.6012 36.9373 93.0157 39.5904C93.4403 42.2964 94.6304 43.2419 97.0487 42.8697C99.4822 42.4975 100.342 41.2376 99.917 38.5317Z" fill="#101820"/>
<path d="M105.276 42.5757C104.719 41.9218 104.516 40.8204 104.689 39.2461L105.342 33.2834L106.947 33.4545C107.43 33.5073 107.654 33.7663 107.603 34.2441L107.043 39.3467C106.916 40.5085 106.998 41.3057 107.272 41.7383C107.56 42.1708 108.175 42.4298 109.131 42.5329C110.181 42.6461 111.066 42.6285 111.794 42.5003C112.122 42.4399 112.198 42.377 112.228 42.118L113.106 34.1159L115.443 34.3673L114.405 43.8331C113.95 43.7853 113.108 43.7904 111.855 43.8633C110.603 43.9236 109.541 43.906 108.668 43.813C106.967 43.6319 105.838 43.2195 105.279 42.5782L105.276 42.5757Z" fill="#101820"/>
<path d="M116.028 44.6755L119.573 35.3506L120.862 35.8309C121.5 36.0673 121.907 36.4848 122.1 37.0707L124.847 45.3671L127.529 38.3105L128.897 38.8185L125.353 48.1435L124.089 47.6732C123.451 47.4368 123.044 47.0193 122.863 46.4384L120.112 38.0364L117.393 45.1835L116.025 44.6755H116.028Z" fill="#101820"/>
<path d="M127.88 49.6192C127.16 49.1238 127.071 48.6259 127.58 47.9041L131.908 41.7629C132.416 41.0412 132.92 40.9506 133.64 41.4486L135.648 42.8342C137.487 44.1017 138.631 45.2434 139.17 46.2343C139.45 46.7297 139.6 47.2352 139.595 47.7507C139.6 48.7768 139.211 49.667 138.407 50.8062C137.612 51.9354 136.902 52.6043 135.926 52.9539C134.479 53.4669 132.696 52.891 129.886 51.0049L127.877 49.6192H127.88ZM130.825 50.1071C132.137 51.0124 133.202 51.4274 133.996 51.3368C134.789 51.2463 135.605 50.6176 136.439 49.4331C137.258 48.2713 137.573 47.2955 137.385 46.5285C137.197 45.7615 136.434 44.9165 135.122 44.0112L134.163 43.3498C133.935 43.1913 133.741 43.2266 133.584 43.4529L129.764 48.8723C129.604 49.0986 129.64 49.2898 129.869 49.4457L130.827 50.1071H130.825Z" fill="#101820"/>
<path d="M144.608 65.624C140.292 61.3915 139.708 58.2329 143.196 55.6502C144.946 54.3551 146.563 54.0357 148.035 54.7172C149.508 55.3987 151.003 57.0761 152.524 59.7493L151.443 60.5491C148.816 56.0651 147.168 55.5647 144.582 57.4785C141.999 59.3922 142.131 61.2205 145.691 64.8242L144.61 65.624H144.608Z" fill="#101820"/>
<path d="M148.62 74.5009L150.082 72.9996L147.489 67.1224L145.38 67.1627L144.717 65.6613L153.658 65.5557C155.087 65.5255 155.941 65.9505 156.455 67.1098C157.034 68.4226 156.795 69.2902 155.753 70.4017L149.65 76.8372L148.62 74.5034V74.5009ZM148.752 67.1023L150.957 72.0967L154.197 68.7747C154.738 68.1812 154.84 67.897 154.685 67.5424C154.507 67.1375 154.245 67.0269 153.454 67.0218L148.752 67.0998V67.1023Z" fill="#101820"/>
<path d="M149.678 77.5441L158.268 76.1207C159.132 75.9774 159.689 76.3596 159.836 77.2273L160.368 80.3607C160.688 82.2594 160.673 83.6576 160.317 84.5529C159.976 85.4608 159.221 86.004 158.069 86.1951C157.233 86.3334 156.625 86.2378 155.987 85.8003C155.361 85.3602 154.875 84.4071 154.558 82.9409L151.379 87.5833L150.906 84.7893L154.044 80.489C154.423 79.9785 154.931 80.147 155.038 80.7832C155.257 82.0733 155.544 82.9459 155.915 83.386C156.289 83.8412 156.851 83.9971 157.578 83.8789C158.359 83.7482 158.845 83.4464 159.033 82.9686C159.236 82.5033 159.236 81.6659 159.033 80.4714L158.743 78.7613C158.697 78.4897 158.563 78.4419 158.275 78.4897L150.069 79.8477L149.678 77.5416V77.5441Z" fill="#101820"/>
<path d="M151.19 89.7305C151.238 88.8654 151.619 88.5284 152.509 88.5762L160.067 88.9911C160.957 89.0389 161.298 89.4161 161.249 90.2838L160.85 97.373L159.518 97.3001L159.83 91.7222C159.846 91.4481 159.716 91.3023 159.436 91.2872L157.089 91.1589L156.769 96.86L155.518 96.7921L155.838 91.091L152.878 90.9275C152.601 90.9125 152.453 91.0432 152.438 91.3173L152.125 96.8952L150.793 96.8223L151.192 89.733L151.19 89.7305Z" fill="#101820"/>
<path d="M53.6775 106.509C53.7411 106.273 53.9292 106.032 54.2446 105.778L57.6139 103.102L58.2267 104.596L55.2922 106.736C55.1117 106.869 55.0735 106.944 55.1244 107.068C55.1753 107.191 55.2643 107.224 55.4728 107.191L58.42 106.806C58.9158 106.736 59.2489 106.917 59.4269 107.349C59.6049 107.782 59.4905 108.136 59.0862 108.428L56.7086 110.178C56.5408 110.307 56.4899 110.387 56.5408 110.51C56.5942 110.639 56.6806 110.664 56.8917 110.641L60.5076 110.146L60.9425 111.205L56.6349 111.607C56.2331 111.647 55.9356 111.607 55.7271 111.489C55.5211 111.376 55.3583 111.162 55.2287 110.845C55.0786 110.475 55.0328 110.179 55.0913 109.937C55.1524 109.696 55.3431 109.459 55.666 109.225L57.4994 107.872L55.221 108.162C54.4429 108.27 54.0767 108.041 53.8123 107.395C53.6673 107.04 53.6216 106.741 53.6826 106.504L53.6775 106.509Z" fill="#101820"/>
<path d="M62.5484 113.558C63.5477 115.233 63.2934 116.508 61.7881 117.386C60.2522 118.284 59.0189 117.861 58.0195 116.186C57.0202 114.512 57.2389 113.259 58.7875 112.354C60.2929 111.476 61.5465 111.876 62.5509 113.558H62.5484ZM59.708 116.471C60.0437 116.526 60.4836 116.398 61.0252 116.083C62.0754 115.47 62.2788 114.866 61.7626 114.001C61.249 113.141 60.6184 113.033 59.5681 113.646C58.5001 114.27 58.2942 114.859 58.8104 115.724C59.0723 116.161 59.3723 116.415 59.708 116.471Z" fill="#101820"/>
<path d="M60.9056 119.881C60.9157 119.448 61.2005 119.018 61.7523 118.596L64.3511 116.599L65.025 117.459C65.2208 117.708 65.1979 117.927 64.9462 118.121L62.8305 119.745C62.4974 120.002 62.3067 120.228 62.2711 120.422C62.2355 120.615 62.3296 120.862 62.5508 121.143C62.828 121.495 63.0772 121.744 63.2933 121.895C63.4026 121.978 63.5044 121.981 63.5934 121.913L66.6652 119.552L67.634 120.784L63.7765 123.749C63.5984 123.522 63.2704 123.183 62.7949 122.738C62.3245 122.288 61.9481 121.888 61.6659 121.528C61.1471 120.867 60.8954 120.319 60.9005 119.883L60.9056 119.881Z" fill="#101820"/>
<path d="M64.582 124.983L68.2031 121.405L68.8363 122.031C69.1541 122.345 69.2889 122.707 69.2355 123.115L68.7905 126.688L71.1706 124.337L71.903 125.061L68.2819 128.64L67.6589 128.024C67.341 127.707 67.2063 127.347 67.2597 126.94L67.7352 123.316L65.3169 125.708L64.5846 124.983H64.582Z" fill="#101820"/>
<path d="M70.0134 130.083C69.5684 129.741 69.5303 129.447 69.8761 129.007L72.0553 126.233C72.4012 125.793 72.6987 125.755 73.1437 126.097L74.2015 126.91C75.1093 127.606 75.6484 128.215 75.8823 128.723C75.9993 128.982 76.0476 129.238 76.0247 129.495C75.9815 130.018 75.7654 130.425 75.3305 130.981C74.9033 131.527 74.5601 131.826 74.0591 132C73.3318 132.254 72.4571 131.934 71.0712 130.896L70.0134 130.083ZM71.7909 130.32C72.274 130.692 72.6732 130.855 72.9886 130.818C73.314 130.777 73.6726 130.503 74.0693 129.998C74.4634 129.497 74.6389 129.093 74.5931 128.776C74.5524 128.454 74.2931 128.112 73.8099 127.74L73.398 127.423C73.2861 127.337 73.1869 127.35 73.1004 127.46L71.3357 129.706C71.2492 129.817 71.262 129.915 71.3738 130L71.7909 130.32Z" fill="#101820"/>
<path d="M80.5072 136.823C77.5956 135.749 76.7234 134.414 77.7838 132.515C78.3203 131.557 78.984 131.074 79.785 131.067C80.586 131.059 81.6312 131.527 82.928 132.465L82.4754 133.277C80.4945 131.907 79.8003 132.037 79.129 133.242C78.4602 134.439 78.806 135.176 80.9675 136.008L80.5097 136.826L80.5072 136.823Z" fill="#101820"/>
<path d="M85.282 138.908L85.2973 138.03L82.6375 136.944L82.0221 137.575L80.9668 137.143L84.092 133.991C84.6311 133.433 85.1702 133.345 85.8211 133.612C86.5509 133.911 86.8663 134.341 86.8637 135.133V139.554L85.277 138.908H85.282ZM83.2401 136.33L85.3176 137.18L85.3558 135.151C85.3507 134.869 85.2948 134.763 85.1396 134.701C84.9769 134.635 84.8625 134.67 84.6692 134.857L83.2376 136.33H83.2401Z" fill="#101820"/>
<path d="M87.7539 139.829L88.8982 135.722C89.0482 135.184 89.3432 135.018 89.8874 135.166L91.6343 135.642C93.4347 136.132 94.0729 136.834 93.7602 137.958C93.5288 138.79 92.9134 139.13 91.9115 138.974L93.0278 141.267L91.2605 140.784L90.3146 138.609C90.1798 138.224 90.401 138.011 90.7545 138.106C91.6598 138.353 92.0361 138.209 92.1988 137.623C92.359 137.052 92.1378 136.738 91.2961 136.509L90.5485 136.306C90.4188 136.27 90.3756 136.323 90.3349 136.464L89.2898 140.244L87.7539 139.826V139.829Z" fill="#101820"/>
<path d="M94.8148 141.559C94.2579 141.478 94.0799 141.239 94.1613 140.688L94.68 137.213C94.7614 136.662 95.003 136.484 95.5599 136.567L99.125 137.087L98.9851 138.018L96.4321 137.646C96.2922 137.625 96.2134 137.683 96.193 137.822L96.0634 138.697L98.6774 139.079L98.5554 139.894L95.9413 139.512L95.7887 140.54C95.7684 140.678 95.8269 140.756 95.9667 140.776L98.5198 141.149L98.3799 142.079L94.8173 141.559H94.8148Z" fill="#101820"/>
<path d="M102.938 142.401L103.007 138.289L101.428 138.264L101.443 137.316L106.185 137.394L106.17 138.342L104.591 138.317L104.522 142.429L102.936 142.404L102.938 142.401Z" fill="#101820"/>
<path d="M107.81 142.339C107.248 142.387 107.019 142.196 106.971 141.64L106.673 138.137C106.625 137.581 106.818 137.355 107.38 137.307L110.971 137.008L111.049 137.946L108.479 138.159C108.339 138.172 108.273 138.247 108.285 138.386L108.362 139.268L110.996 139.05L111.067 139.869L108.433 140.088L108.522 141.124C108.535 141.263 108.611 141.328 108.751 141.315L111.322 141.102L111.4 142.04L107.81 142.339Z" fill="#101820"/>
<path d="M116.767 141.038C113.83 142.044 112.297 141.564 111.893 139.431C111.689 138.355 111.893 137.565 112.503 137.055C113.116 136.544 114.222 136.247 115.827 136.154L115.999 137.065C113.589 137.256 113.139 137.794 113.396 139.144C113.65 140.487 114.392 140.839 116.594 140.12L116.77 141.038H116.767Z" fill="#101820"/>
<path d="M117.868 140.839L116.365 136.014L117.881 135.551L118.461 137.409L120.515 136.783L119.935 134.925L121.459 134.462L122.961 139.288L121.438 139.753L120.8 137.701L118.745 138.327L119.384 140.379L117.868 140.842V140.839Z" fill="#101820"/>
<path d="M124.352 138.772L122.244 134.16L123.06 133.796C123.472 133.612 123.859 133.614 124.228 133.811L127.452 135.483L126.066 132.453L127.009 132.03L129.118 136.642L128.314 137.002C127.902 137.186 127.516 137.183 127.147 136.987L123.884 135.269L125.293 138.35L124.35 138.772H124.352Z" fill="#101820"/>
<path d="M130.057 130.184C131.733 129.166 133.025 129.397 133.94 130.871C134.874 132.375 134.469 133.602 132.794 134.618C131.118 135.637 129.846 135.443 128.906 133.926C127.99 132.453 128.374 131.205 130.057 130.184ZM133.05 132.941C133.101 132.609 132.964 132.176 132.636 131.645C131.998 130.617 131.382 130.426 130.518 130.951C129.658 131.472 129.559 132.098 130.197 133.127C130.846 134.173 131.446 134.364 132.31 133.838C132.748 133.572 133 133.273 133.05 132.938V132.941Z" fill="#101820"/>
<path d="M136.867 131.809C136.422 132.151 136.125 132.115 135.779 131.675L133.111 128.285L134.368 127.317L136.793 130.398C136.88 130.508 136.979 130.521 137.091 130.436L138.95 129.005L139.54 129.751L136.87 131.806L136.867 131.809Z" fill="#101820"/>
<path d="M138.485 123.726C139.899 122.373 141.211 122.323 142.426 123.565C143.665 124.833 143.54 126.118 142.124 127.471C140.71 128.824 139.426 128.904 138.177 127.627C136.962 126.384 137.063 125.084 138.482 123.726H138.485ZM142.009 125.778C141.984 125.444 141.758 125.049 141.32 124.604C140.473 123.736 139.83 123.681 139.1 124.38C138.376 125.072 138.414 125.705 139.263 126.573C140.125 127.456 140.753 127.516 141.483 126.817C141.854 126.462 142.032 126.115 142.009 125.781V125.778Z" fill="#101820"/>
<path d="M144.849 123.787C144.254 123.842 143.603 123.596 142.906 123.04C142.032 122.346 141.699 121.556 141.92 120.668C142.141 119.781 142.886 118.727 144.165 117.497L144.903 118.081C144.234 118.739 143.763 119.295 143.486 119.763C143.212 120.223 143.1 120.608 143.163 120.92C143.222 121.227 143.458 121.538 143.86 121.855C144.338 122.235 144.75 122.429 145.088 122.436C145.424 122.436 145.767 122.222 146.105 121.805C146.332 121.528 146.489 121.252 146.594 120.968C146.637 120.814 146.619 120.746 146.51 120.658L145.877 120.158L145.053 121.174L144.397 120.656L146.133 118.513L148.201 120.153C148.02 120.377 147.781 120.759 147.489 121.287C147.196 121.815 146.914 122.243 146.65 122.569C146.042 123.319 145.439 123.729 144.849 123.787Z" fill="#101820"/>
<path d="M149.096 119.215L144.832 116.413L145.709 115.105L149.974 117.907L149.096 119.215Z" fill="#101820"/>
<path d="M151.085 116.121C150.811 116.609 150.523 116.69 150.03 116.42L146.923 114.715C146.429 114.444 146.348 114.16 146.623 113.672L148.372 110.556L149.204 111.014L147.95 113.244C147.881 113.367 147.909 113.461 148.031 113.528L148.815 113.958L150.099 111.672L150.826 112.072L149.542 114.358L150.46 114.864C150.584 114.932 150.678 114.904 150.747 114.783L152.001 112.553L152.832 113.01L151.083 116.126L151.085 116.121Z" fill="#101820"/>
<path d="M152.346 111.607C153.473 109.731 153.796 108.693 153.32 108.494C152.888 108.32 152.532 109.065 152.023 109.769C151.84 110.003 151.655 110.219 151.474 110.41C151.098 110.79 150.541 110.958 149.964 110.717C148.868 110.257 148.542 109.334 150.472 105.977L151.296 106.321C150.022 108.612 150.058 109.105 150.414 109.253C150.543 109.309 150.681 109.273 150.831 109.155C151.118 108.911 151.344 108.439 151.705 107.953C151.888 107.704 152.074 107.485 152.265 107.294C152.644 106.907 153.229 106.744 153.852 107.005C154.286 107.189 154.546 107.387 154.675 107.888C154.739 108.134 154.734 108.429 154.67 108.773C154.533 109.45 154.07 110.566 153.241 111.984L152.346 111.61V111.607Z" fill="#101820"/>
</g>
<defs>
<filter id="filter0_d_3053_117" x="-40" y="-24.6532" width="473.5" height="225.043" filterUnits="userSpaceOnUse" color-interpolation-filters="sRGB">
<feFlood flood-opacity="0" result="BackgroundImageFix"/>
<feColorMatrix in="SourceAlpha" type="matrix" values="0 0 0 0 0 0 0 0 0 0 0 0 0 0 0 0 0 0 127 0" result="hardAlpha"/>
<feOffset dy="-2.65321"/>
<feGaussianBlur stdDeviation="20"/>
<feComposite in2="hardAlpha" operator="out"/>
<feColorMatrix type="matrix" values="0 0 0 0 0.0745098 0 0 0 0 0.160784 0 0 0 0 0.294118 0 0 0 0.4 0"/>
<feBlend mode="normal" in2="BackgroundImageFix" result="effect1_dropShadow_3053_117"/>
<feBlend mode="normal" in="SourceGraphic" in2="effect1_dropShadow_3053_117" result="shape"/>
</filter>
<clipPath id="clip0_3053_117">
<rect width="393" height="163" fill="white"/>
</clipPath>
</defs>
</svg>
