<?xml version="1.0" encoding="UTF-8"?> <svg xmlns="http://www.w3.org/2000/svg" xmlns:xlink="http://www.w3.org/1999/xlink" width="1920px" height="2567px" viewBox="0 0 1920 2567" version="1.1"><title>Group</title><defs><polyline id="path-1" points="0 0 0 2546.118 415.746 2566.088 539.004 0"></polyline><polygon id="path-3" points="0 0 350 0 350 669.23 0 669.23"></polygon><polygon id="path-5" points="0 0 372.6919 0 372.6919 528.692 0 528.692"></polygon></defs><g id="jen" stroke="none" stroke-width="1" fill="none" fill-rule="evenodd"><g id="Group"><g id="curve"><mask id="mask-2" fill="white"><use xlink:href="#path-1"></use></mask><g id="Clip-9"></g><path d="M323.913171,-92.9833927 C216.572967,-27.4367743 112.117525,55.6633797 31.29322,172.056346 C-47.1002963,284.948746 -100.181146,430.914084 -102.2508,583.805746 C-103.263554,658.620684 -91.2180978,732.52445 -65.1917274,798.197184 C-38.9806933,864.332953 -1.0078109,920.448772 39.3168884,971.912028 C82.1816013,1026.61887 127.801565,1077.39297 170.141789,1132.84222 C214.908973,1191.47046 257.040281,1253.71255 295.04996,1320.22155 C333.256163,1387.07261 368.305049,1458.4432 394.666547,1535.02398 C414.771957,1593.42874 427.274125,1653.81906 432.911975,1717.89038 C436.225162,1755.54369 439.100677,1793.16477 438.688781,1831.26282 C438.129998,1882.94837 432.076204,1934.54428 419.432183,1983.96381 C403.053777,2047.9771 376.04621,2106.86782 342.282442,2157.96909 C295.34651,2229.0046 236.848455,2285.4728 175.173909,2331.84638 C83.8413417,2400.52227 -15.4736593,2448.90027 -115.728065,2487.26232 C-146.388383,2498.99395 -177.241109,2509.71846 -208.220116,2519.69648 C-215.055643,2521.89644 -212.867602,2535.89353 -205.997584,2533.68084 C-95.5168483,2498.09682 14.3205715,2452.98282 117.510475,2387.63984 C187.995968,2343.0056 256.224998,2288.21698 313.703084,2217.23849 C354.54464,2166.80342 389.452676,2107.92597 413.45283,2041.28993 C431.952222,1989.92401 443.281947,1934.61557 447.553678,1878.50596 C450.856271,1835.14156 449.763407,1791.69397 446.466915,1748.62987 C445.176005,1731.77497 443.668531,1714.94485 442.165272,1698.12773 C434.814794,1615.90511 410.871205,1538.33384 380.934804,1466.93057 C320.10448,1321.84079 236.922891,1194.5748 145.816719,1081.67732 C62.3139917,978.201171 -38.0655519,879.892066 -75.3220756,729.790605 C-112.111963,581.561798 -82.8689925,413.686211 -19.5311044,281.87527 C45.4080845,146.728615 145.536221,46.8611919 250.603005,-28.6631101 C276.224262,-47.079845 302.354213,-64.1720198 328.801869,-80.321415 C335.225276,-84.2442825 330.330389,-96.9033592 323.913171,-92.9833927" id="Fill-8" fill="#FF8300" mask="url(#mask-2)"></path></g><g id="dots" transform="translate(0.000000, 424.794900)"><g id="Group-17" transform="translate(1570.000000, 0.000000)"><mask id="mask-4" fill="white"><use xlink:href="#path-3"></use></mask><g id="Clip-16"></g><path d="M334.615,669.23 C519.418,669.23 669.23,519.418 669.23,334.615 C669.23,149.812 519.418,0 334.615,0 C149.812,0 0,149.812 0,334.615 C0,519.418 149.812,669.23 334.615,669.23" id="Fill-15" fill="#E7792B" mask="url(#mask-4)"></path></g><g id="Group-20" transform="translate(0.000000, 1200.204900)"><mask id="mask-6" fill="white"><use xlink:href="#path-5"></use></mask><g id="Clip-19"></g><path d="M108.3459,528.692 C-37.6481,528.692 -156.0001,410.34 -156.0001,264.346 C-156.0001,118.352 -37.6481,0 108.3459,0 C254.3399,0 372.6919,118.352 372.6919,264.346 C372.6919,410.34 254.3399,528.692 108.3459,528.692" id="Fill-18" fill="#E7792B" mask="url(#mask-6)"></path></g></g></g></g></svg> 