<?xml version="1.0" encoding="UTF-8"?> <svg xmlns="http://www.w3.org/2000/svg" xmlns:xlink="http://www.w3.org/1999/xlink" width="1440px" height="3199px" viewBox="0 0 1440 3199" version="1.1"><title>s curve and dots - xtra long</title><g id="Jen" stroke="none" stroke-width="1" fill="none" fill-rule="evenodd"><g id="s-curve-and-dots" transform="translate(-555.000000, -336.382084)"><circle id="Oval-Copy-5" fill="#F58320" style="mix-blend-mode: multiply;" cx="767.592506" cy="1417.88208" r="130.5"></circle><circle id="Oval-Copy-4" fill="#F58320" style="mix-blend-mode: multiply;" cx="2040.59251" cy="379.882084" r="205.5"></circle><path d="M2460.56615,1508.2977 C2404.01313,1460.23022 2341.87982,1418.55088 2276.0608,1385.52458 C2167.02944,1330.81544 2047.88413,1299.85109 1927.23708,1302.92703 C1855.8924,1304.74598 1785.91324,1319.2065 1721.29736,1346.80975 C1700.16721,1355.83633 1679.61059,1366.26836 1659.7673,1378.12335 C1578.67571,1426.57199 1511.37934,1494.56237 1450.19018,1566.31343 C1385.14429,1642.58413 1325.33436,1723.34472 1259.29963,1798.76038 C1189.47898,1878.49894 1114.83697,1953.93391 1034.40549,2022.56286 C953.560429,2091.54655 866.699068,2155.38587 772.417738,2204.67019 C700.513634,2242.25828 625.370016,2266.96516 544.914475,2280.1473 C497.632525,2287.89406 450.349313,2294.89121 402.147756,2296.29778 C336.755335,2298.20603 270.94905,2290.72032 207.261819,2271.85372 C124.767463,2247.4148 47.7291167,2204.53072 -20.1102849,2149.67125 C-114.413451,2073.40952 -191.41045,1976.58536 -255.950973,1873.77455 C-351.530512,1721.52426 -422.216069,1554.51052 -480.329981,1385.33686 C-498.102113,1333.59928 -514.619536,1281.47715 -530.205403,1229.09791 C-533.64228,1217.54032 -551.126938,1222.05423 -547.670651,1233.67005 C-492.087516,1420.4707 -424.518682,1605.64426 -332.014922,1778.33908 C-268.827903,1896.30097 -193.020603,2009.84489 -97.7781195,2104.12253 C-30.1018794,2171.11229 47.6776331,2227.49615 134.218776,2264.81261 C200.928307,2293.57611 271.933974,2309.87084 343.275336,2314.06162 C398.411725,2317.30249 453.231599,2313.0285 507.355259,2305.01055 C528.538707,2301.87121 549.670053,2298.36321 570.785374,2294.86314 C674.022755,2277.74929 769.788185,2232.54145 857.181343,2177.43571 C1034.76217,2065.4617 1187.66655,1916.28474 1321.64657,1754.36344 C1341.17069,1730.76778 1360.48877,1706.4504 1379.92104,1681.94802 C1482.71047,1552.3396 1588.69511,1417.55445 1745.2723,1357.02501 C1929.12774,1285.95356 2144.15487,1326.62017 2316.86149,1427.54042 C2493.9386,1531.01194 2629.79305,1696.5629 2735.3477,1871.90066 C2761.08744,1914.658 2785.20152,1958.35788 2808.15426,2002.65283 C2813.72964,2013.41082 2829.26314,2004.346 2823.69202,1993.59843 C2730.53266,1813.82352 2615.45958,1639.94997 2460.56615,1508.2977 Z" id="Fill-1" fill="#FF8300" transform="translate(1138.379473, 1768.759544) scale(-1, 1) rotate(-472.000000) translate(-1138.379473, -1768.759544) "></path></g></g></svg> 